ISO-10303-21;
HEADER;
/* Generated by software containing ST-Developer
 * from STEP Tools, Inc. (www.steptools.com) 
 */
/* OPTION: using custom renumber hook */

FILE_DESCRIPTION(
/* description */ ('STEP AP242 Edition 2',
'CAx-IF Rec.Pracs.---Representation and Presentation of Product Manufa
cturing Information (PMI)---4.0---2014-10-13',
'CAx-IF Rec.Pracs.---3D Tessellated Geometry---0.4---2014-09-14','2;1',
'CAx-IF Rec.Pracs.---User Defined Attributes---1.5---2016-08-15'),
/* implementation_level */ '2;1');

FILE_NAME(
/* name */ 'Ladder!!',
/* time_stamp */ '2026-09-13T04:33:04Z',
/* author */ (''),
/* organization */ (''),
/* preprocessor_version */ 'ST-DEVELOPER v20',
/* originating_system */ 'ONSHAPE BY PTC INC, 1.220',
/* authorisation */ '  ');

FILE_SCHEMA (('AP242_MANAGED_MODEL_BASED_3D_ENGINEERING_MIM_LF { 1 0 10303 442 3 1 4 }'));
ENDSEC;

DATA;
#10=SHAPE_REPRESENTATION_RELATIONSHIP('','',#1393,#12);
#11=SHAPE_REPRESENTATION_RELATIONSHIP('','',#1394,#13);
#12=ADVANCED_BREP_SHAPE_REPRESENTATION('',(#1389),#2183);
#13=ADVANCED_BREP_SHAPE_REPRESENTATION('',(#1390),#2184);
#14=ORIENTED_EDGE('',*,*,#400,.F.);
#15=ORIENTED_EDGE('',*,*,#401,.F.);
#16=ORIENTED_EDGE('',*,*,#402,.T.);
#17=ORIENTED_EDGE('',*,*,#403,.T.);
#18=ORIENTED_EDGE('',*,*,#404,.F.);
#19=ORIENTED_EDGE('',*,*,#405,.F.);
#20=ORIENTED_EDGE('',*,*,#406,.T.);
#21=ORIENTED_EDGE('',*,*,#401,.T.);
#22=ORIENTED_EDGE('',*,*,#407,.F.);
#23=ORIENTED_EDGE('',*,*,#408,.F.);
#24=ORIENTED_EDGE('',*,*,#409,.T.);
#25=ORIENTED_EDGE('',*,*,#405,.T.);
#26=ORIENTED_EDGE('',*,*,#410,.F.);
#27=ORIENTED_EDGE('',*,*,#403,.F.);
#28=ORIENTED_EDGE('',*,*,#411,.T.);
#29=ORIENTED_EDGE('',*,*,#408,.T.);
#30=ORIENTED_EDGE('',*,*,#402,.F.);
#31=ORIENTED_EDGE('',*,*,#406,.F.);
#32=ORIENTED_EDGE('',*,*,#409,.F.);
#33=ORIENTED_EDGE('',*,*,#411,.F.);
#34=ORIENTED_EDGE('',*,*,#400,.T.);
#35=ORIENTED_EDGE('',*,*,#410,.T.);
#36=ORIENTED_EDGE('',*,*,#407,.T.);
#37=ORIENTED_EDGE('',*,*,#404,.T.);
#38=ORIENTED_EDGE('',*,*,#412,.F.);
#39=ORIENTED_EDGE('',*,*,#413,.F.);
#40=ORIENTED_EDGE('',*,*,#414,.F.);
#41=ORIENTED_EDGE('',*,*,#415,.T.);
#42=ORIENTED_EDGE('',*,*,#416,.F.);
#43=ORIENTED_EDGE('',*,*,#417,.T.);
#44=ORIENTED_EDGE('',*,*,#418,.T.);
#45=ORIENTED_EDGE('',*,*,#419,.F.);
#46=ORIENTED_EDGE('',*,*,#420,.F.);
#47=ORIENTED_EDGE('',*,*,#421,.F.);
#48=ORIENTED_EDGE('',*,*,#422,.F.);
#49=ORIENTED_EDGE('',*,*,#423,.T.);
#50=ORIENTED_EDGE('',*,*,#424,.F.);
#51=ORIENTED_EDGE('',*,*,#425,.T.);
#52=ORIENTED_EDGE('',*,*,#426,.T.);
#53=ORIENTED_EDGE('',*,*,#427,.F.);
#54=ORIENTED_EDGE('',*,*,#428,.F.);
#55=ORIENTED_EDGE('',*,*,#429,.F.);
#56=ORIENTED_EDGE('',*,*,#430,.F.);
#57=ORIENTED_EDGE('',*,*,#431,.T.);
#58=ORIENTED_EDGE('',*,*,#432,.F.);
#59=ORIENTED_EDGE('',*,*,#433,.T.);
#60=ORIENTED_EDGE('',*,*,#434,.T.);
#61=ORIENTED_EDGE('',*,*,#435,.F.);
#62=ORIENTED_EDGE('',*,*,#436,.F.);
#63=ORIENTED_EDGE('',*,*,#437,.T.);
#64=ORIENTED_EDGE('',*,*,#438,.T.);
#65=ORIENTED_EDGE('',*,*,#439,.F.);
#66=ORIENTED_EDGE('',*,*,#440,.F.);
#67=ORIENTED_EDGE('',*,*,#441,.T.);
#68=ORIENTED_EDGE('',*,*,#442,.T.);
#69=ORIENTED_EDGE('',*,*,#443,.T.);
#70=ORIENTED_EDGE('',*,*,#444,.T.);
#71=ORIENTED_EDGE('',*,*,#445,.F.);
#72=ORIENTED_EDGE('',*,*,#446,.F.);
#73=ORIENTED_EDGE('',*,*,#447,.T.);
#74=ORIENTED_EDGE('',*,*,#448,.T.);
#75=ORIENTED_EDGE('',*,*,#449,.T.);
#76=ORIENTED_EDGE('',*,*,#447,.F.);
#77=ORIENTED_EDGE('',*,*,#450,.T.);
#78=ORIENTED_EDGE('',*,*,#451,.F.);
#79=ORIENTED_EDGE('',*,*,#448,.F.);
#80=ORIENTED_EDGE('',*,*,#452,.F.);
#81=ORIENTED_EDGE('',*,*,#453,.T.);
#82=ORIENTED_EDGE('',*,*,#454,.T.);
#83=ORIENTED_EDGE('',*,*,#455,.F.);
#84=ORIENTED_EDGE('',*,*,#456,.T.);
#85=ORIENTED_EDGE('',*,*,#457,.F.);
#86=ORIENTED_EDGE('',*,*,#458,.T.);
#87=ORIENTED_EDGE('',*,*,#459,.T.);
#88=ORIENTED_EDGE('',*,*,#460,.T.);
#89=ORIENTED_EDGE('',*,*,#439,.T.);
#90=ORIENTED_EDGE('',*,*,#461,.F.);
#91=ORIENTED_EDGE('',*,*,#462,.F.);
#92=ORIENTED_EDGE('',*,*,#463,.F.);
#93=ORIENTED_EDGE('',*,*,#464,.F.);
#94=ORIENTED_EDGE('',*,*,#465,.T.);
#95=ORIENTED_EDGE('',*,*,#466,.T.);
#96=ORIENTED_EDGE('',*,*,#467,.T.);
#97=ORIENTED_EDGE('',*,*,#466,.F.);
#98=ORIENTED_EDGE('',*,*,#468,.F.);
#99=ORIENTED_EDGE('',*,*,#462,.T.);
#100=ORIENTED_EDGE('',*,*,#453,.F.);
#101=ORIENTED_EDGE('',*,*,#469,.T.);
#102=ORIENTED_EDGE('',*,*,#470,.T.);
#103=ORIENTED_EDGE('',*,*,#471,.F.);
#104=ORIENTED_EDGE('',*,*,#465,.F.);
#105=ORIENTED_EDGE('',*,*,#472,.T.);
#106=ORIENTED_EDGE('',*,*,#473,.T.);
#107=ORIENTED_EDGE('',*,*,#474,.F.);
#108=ORIENTED_EDGE('',*,*,#469,.F.);
#109=ORIENTED_EDGE('',*,*,#452,.T.);
#110=ORIENTED_EDGE('',*,*,#450,.F.);
#111=ORIENTED_EDGE('',*,*,#446,.T.);
#112=ORIENTED_EDGE('',*,*,#475,.T.);
#113=ORIENTED_EDGE('',*,*,#476,.T.);
#114=ORIENTED_EDGE('',*,*,#477,.F.);
#115=ORIENTED_EDGE('',*,*,#478,.T.);
#116=ORIENTED_EDGE('',*,*,#479,.T.);
#117=ORIENTED_EDGE('',*,*,#480,.T.);
#118=ORIENTED_EDGE('',*,*,#481,.F.);
#119=ORIENTED_EDGE('',*,*,#482,.T.);
#120=ORIENTED_EDGE('',*,*,#483,.T.);
#121=ORIENTED_EDGE('',*,*,#484,.T.);
#122=ORIENTED_EDGE('',*,*,#485,.T.);
#123=ORIENTED_EDGE('',*,*,#414,.T.);
#124=ORIENTED_EDGE('',*,*,#486,.T.);
#125=ORIENTED_EDGE('',*,*,#487,.F.);
#126=ORIENTED_EDGE('',*,*,#488,.F.);
#127=ORIENTED_EDGE('',*,*,#422,.T.);
#128=ORIENTED_EDGE('',*,*,#489,.T.);
#129=ORIENTED_EDGE('',*,*,#490,.F.);
#130=ORIENTED_EDGE('',*,*,#491,.F.);
#131=ORIENTED_EDGE('',*,*,#430,.T.);
#132=ORIENTED_EDGE('',*,*,#492,.T.);
#133=ORIENTED_EDGE('',*,*,#493,.T.);
#134=ORIENTED_EDGE('',*,*,#494,.F.);
#135=ORIENTED_EDGE('',*,*,#495,.T.);
#136=ORIENTED_EDGE('',*,*,#458,.F.);
#137=ORIENTED_EDGE('',*,*,#468,.T.);
#138=ORIENTED_EDGE('',*,*,#471,.T.);
#139=ORIENTED_EDGE('',*,*,#496,.T.);
#140=ORIENTED_EDGE('',*,*,#497,.T.);
#141=ORIENTED_EDGE('',*,*,#498,.F.);
#142=ORIENTED_EDGE('',*,*,#463,.T.);
#143=ORIENTED_EDGE('',*,*,#467,.F.);
#144=ORIENTED_EDGE('',*,*,#461,.T.);
#145=ORIENTED_EDGE('',*,*,#438,.F.);
#146=ORIENTED_EDGE('',*,*,#499,.T.);
#147=ORIENTED_EDGE('',*,*,#500,.F.);
#148=ORIENTED_EDGE('',*,*,#501,.F.);
#149=ORIENTED_EDGE('',*,*,#502,.F.);
#150=ORIENTED_EDGE('',*,*,#503,.T.);
#151=ORIENTED_EDGE('',*,*,#504,.T.);
#152=ORIENTED_EDGE('',*,*,#505,.F.);
#153=ORIENTED_EDGE('',*,*,#506,.F.);
#154=ORIENTED_EDGE('',*,*,#507,.T.);
#155=ORIENTED_EDGE('',*,*,#508,.T.);
#156=ORIENTED_EDGE('',*,*,#509,.F.);
#157=ORIENTED_EDGE('',*,*,#510,.F.);
#158=ORIENTED_EDGE('',*,*,#418,.F.);
#159=ORIENTED_EDGE('',*,*,#511,.F.);
#160=ORIENTED_EDGE('',*,*,#512,.F.);
#161=ORIENTED_EDGE('',*,*,#513,.F.);
#162=ORIENTED_EDGE('',*,*,#427,.T.);
#163=ORIENTED_EDGE('',*,*,#514,.F.);
#164=ORIENTED_EDGE('',*,*,#515,.F.);
#165=ORIENTED_EDGE('',*,*,#516,.F.);
#166=ORIENTED_EDGE('',*,*,#435,.T.);
#167=ORIENTED_EDGE('',*,*,#517,.F.);
#168=ORIENTED_EDGE('',*,*,#518,.F.);
#169=ORIENTED_EDGE('',*,*,#444,.F.);
#170=ORIENTED_EDGE('',*,*,#519,.T.);
#171=ORIENTED_EDGE('',*,*,#454,.F.);
#172=ORIENTED_EDGE('',*,*,#520,.T.);
#173=ORIENTED_EDGE('',*,*,#521,.T.);
#174=ORIENTED_EDGE('',*,*,#459,.F.);
#175=ORIENTED_EDGE('',*,*,#495,.F.);
#176=ORIENTED_EDGE('',*,*,#499,.F.);
#177=ORIENTED_EDGE('',*,*,#437,.F.);
#178=ORIENTED_EDGE('',*,*,#522,.F.);
#179=ORIENTED_EDGE('',*,*,#520,.F.);
#180=ORIENTED_EDGE('',*,*,#494,.T.);
#181=ORIENTED_EDGE('',*,*,#523,.T.);
#182=ORIENTED_EDGE('',*,*,#500,.T.);
#183=ORIENTED_EDGE('',*,*,#523,.F.);
#184=ORIENTED_EDGE('',*,*,#493,.F.);
#185=ORIENTED_EDGE('',*,*,#524,.T.);
#186=ORIENTED_EDGE('',*,*,#501,.T.);
#187=ORIENTED_EDGE('',*,*,#524,.F.);
#188=ORIENTED_EDGE('',*,*,#492,.F.);
#189=ORIENTED_EDGE('',*,*,#429,.T.);
#190=ORIENTED_EDGE('',*,*,#525,.T.);
#191=ORIENTED_EDGE('',*,*,#526,.T.);
#192=ORIENTED_EDGE('',*,*,#526,.F.);
#193=ORIENTED_EDGE('',*,*,#527,.T.);
#194=ORIENTED_EDGE('',*,*,#528,.T.);
#195=ORIENTED_EDGE('',*,*,#502,.T.);
#196=ORIENTED_EDGE('',*,*,#503,.F.);
#197=ORIENTED_EDGE('',*,*,#528,.F.);
#198=ORIENTED_EDGE('',*,*,#529,.F.);
#199=ORIENTED_EDGE('',*,*,#431,.F.);
#200=ORIENTED_EDGE('',*,*,#491,.T.);
#201=ORIENTED_EDGE('',*,*,#530,.T.);
#202=ORIENTED_EDGE('',*,*,#504,.F.);
#203=ORIENTED_EDGE('',*,*,#530,.F.);
#204=ORIENTED_EDGE('',*,*,#490,.T.);
#205=ORIENTED_EDGE('',*,*,#531,.T.);
#206=ORIENTED_EDGE('',*,*,#505,.T.);
#207=ORIENTED_EDGE('',*,*,#531,.F.);
#208=ORIENTED_EDGE('',*,*,#489,.F.);
#209=ORIENTED_EDGE('',*,*,#421,.T.);
#210=ORIENTED_EDGE('',*,*,#532,.T.);
#211=ORIENTED_EDGE('',*,*,#533,.T.);
#212=ORIENTED_EDGE('',*,*,#533,.F.);
#213=ORIENTED_EDGE('',*,*,#534,.T.);
#214=ORIENTED_EDGE('',*,*,#535,.T.);
#215=ORIENTED_EDGE('',*,*,#506,.T.);
#216=ORIENTED_EDGE('',*,*,#507,.F.);
#217=ORIENTED_EDGE('',*,*,#535,.F.);
#218=ORIENTED_EDGE('',*,*,#536,.F.);
#219=ORIENTED_EDGE('',*,*,#423,.F.);
#220=ORIENTED_EDGE('',*,*,#488,.T.);
#221=ORIENTED_EDGE('',*,*,#537,.T.);
#222=ORIENTED_EDGE('',*,*,#508,.F.);
#223=ORIENTED_EDGE('',*,*,#537,.F.);
#224=ORIENTED_EDGE('',*,*,#487,.T.);
#225=ORIENTED_EDGE('',*,*,#538,.T.);
#226=ORIENTED_EDGE('',*,*,#509,.T.);
#227=ORIENTED_EDGE('',*,*,#538,.F.);
#228=ORIENTED_EDGE('',*,*,#486,.F.);
#229=ORIENTED_EDGE('',*,*,#413,.T.);
#230=ORIENTED_EDGE('',*,*,#539,.T.);
#231=ORIENTED_EDGE('',*,*,#540,.T.);
#232=ORIENTED_EDGE('',*,*,#540,.F.);
#233=ORIENTED_EDGE('',*,*,#541,.T.);
#234=ORIENTED_EDGE('',*,*,#419,.T.);
#235=ORIENTED_EDGE('',*,*,#510,.T.);
#236=ORIENTED_EDGE('',*,*,#542,.T.);
#237=ORIENTED_EDGE('',*,*,#543,.T.);
#238=ORIENTED_EDGE('',*,*,#415,.F.);
#239=ORIENTED_EDGE('',*,*,#485,.F.);
#240=ORIENTED_EDGE('',*,*,#544,.F.);
#241=ORIENTED_EDGE('',*,*,#545,.T.);
#242=ORIENTED_EDGE('',*,*,#542,.F.);
#243=ORIENTED_EDGE('',*,*,#484,.F.);
#244=ORIENTED_EDGE('',*,*,#546,.T.);
#245=ORIENTED_EDGE('',*,*,#511,.T.);
#246=ORIENTED_EDGE('',*,*,#417,.F.);
#247=ORIENTED_EDGE('',*,*,#547,.F.);
#248=ORIENTED_EDGE('',*,*,#512,.T.);
#249=ORIENTED_EDGE('',*,*,#546,.F.);
#250=ORIENTED_EDGE('',*,*,#483,.F.);
#251=ORIENTED_EDGE('',*,*,#548,.T.);
#252=ORIENTED_EDGE('',*,*,#549,.T.);
#253=ORIENTED_EDGE('',*,*,#550,.T.);
#254=ORIENTED_EDGE('',*,*,#551,.T.);
#255=ORIENTED_EDGE('',*,*,#552,.F.);
#256=ORIENTED_EDGE('',*,*,#424,.T.);
#257=ORIENTED_EDGE('',*,*,#513,.T.);
#258=ORIENTED_EDGE('',*,*,#548,.F.);
#259=ORIENTED_EDGE('',*,*,#482,.F.);
#260=ORIENTED_EDGE('',*,*,#553,.F.);
#261=ORIENTED_EDGE('',*,*,#549,.F.);
#262=ORIENTED_EDGE('',*,*,#481,.T.);
#263=ORIENTED_EDGE('',*,*,#554,.T.);
#264=ORIENTED_EDGE('',*,*,#555,.F.);
#265=ORIENTED_EDGE('',*,*,#556,.T.);
#266=ORIENTED_EDGE('',*,*,#554,.F.);
#267=ORIENTED_EDGE('',*,*,#480,.F.);
#268=ORIENTED_EDGE('',*,*,#557,.T.);
#269=ORIENTED_EDGE('',*,*,#514,.T.);
#270=ORIENTED_EDGE('',*,*,#426,.F.);
#271=ORIENTED_EDGE('',*,*,#558,.F.);
#272=ORIENTED_EDGE('',*,*,#515,.T.);
#273=ORIENTED_EDGE('',*,*,#557,.F.);
#274=ORIENTED_EDGE('',*,*,#479,.F.);
#275=ORIENTED_EDGE('',*,*,#559,.T.);
#276=ORIENTED_EDGE('',*,*,#560,.T.);
#277=ORIENTED_EDGE('',*,*,#561,.T.);
#278=ORIENTED_EDGE('',*,*,#562,.T.);
#279=ORIENTED_EDGE('',*,*,#563,.F.);
#280=ORIENTED_EDGE('',*,*,#432,.T.);
#281=ORIENTED_EDGE('',*,*,#516,.T.);
#282=ORIENTED_EDGE('',*,*,#559,.F.);
#283=ORIENTED_EDGE('',*,*,#478,.F.);
#284=ORIENTED_EDGE('',*,*,#564,.F.);
#285=ORIENTED_EDGE('',*,*,#560,.F.);
#286=ORIENTED_EDGE('',*,*,#477,.T.);
#287=ORIENTED_EDGE('',*,*,#565,.T.);
#288=ORIENTED_EDGE('',*,*,#566,.F.);
#289=ORIENTED_EDGE('',*,*,#567,.T.);
#290=ORIENTED_EDGE('',*,*,#565,.F.);
#291=ORIENTED_EDGE('',*,*,#476,.F.);
#292=ORIENTED_EDGE('',*,*,#568,.T.);
#293=ORIENTED_EDGE('',*,*,#517,.T.);
#294=ORIENTED_EDGE('',*,*,#434,.F.);
#295=ORIENTED_EDGE('',*,*,#569,.F.);
#296=ORIENTED_EDGE('',*,*,#518,.T.);
#297=ORIENTED_EDGE('',*,*,#568,.F.);
#298=ORIENTED_EDGE('',*,*,#475,.F.);
#299=ORIENTED_EDGE('',*,*,#445,.T.);
#300=ORIENTED_EDGE('',*,*,#570,.F.);
#301=ORIENTED_EDGE('',*,*,#455,.T.);
#302=ORIENTED_EDGE('',*,*,#519,.F.);
#303=ORIENTED_EDGE('',*,*,#443,.F.);
#304=ORIENTED_EDGE('',*,*,#571,.T.);
#305=ORIENTED_EDGE('',*,*,#522,.T.);
#306=ORIENTED_EDGE('',*,*,#572,.F.);
#307=ORIENTED_EDGE('',*,*,#441,.F.);
#308=ORIENTED_EDGE('',*,*,#440,.T.);
#309=ORIENTED_EDGE('',*,*,#449,.F.);
#310=ORIENTED_EDGE('',*,*,#451,.T.);
#311=ORIENTED_EDGE('',*,*,#573,.T.);
#312=ORIENTED_EDGE('',*,*,#521,.F.);
#313=ORIENTED_EDGE('',*,*,#571,.F.);
#314=ORIENTED_EDGE('',*,*,#572,.T.);
#315=ORIENTED_EDGE('',*,*,#436,.T.);
#316=ORIENTED_EDGE('',*,*,#574,.F.);
#317=ORIENTED_EDGE('',*,*,#456,.F.);
#318=ORIENTED_EDGE('',*,*,#570,.T.);
#319=ORIENTED_EDGE('',*,*,#442,.F.);
#320=ORIENTED_EDGE('',*,*,#457,.T.);
#321=ORIENTED_EDGE('',*,*,#574,.T.);
#322=ORIENTED_EDGE('',*,*,#460,.F.);
#323=ORIENTED_EDGE('',*,*,#573,.F.);
#324=ORIENTED_EDGE('',*,*,#575,.T.);
#325=ORIENTED_EDGE('',*,*,#529,.T.);
#326=ORIENTED_EDGE('',*,*,#576,.F.);
#327=ORIENTED_EDGE('',*,*,#562,.F.);
#328=ORIENTED_EDGE('',*,*,#566,.T.);
#329=ORIENTED_EDGE('',*,*,#577,.T.);
#330=ORIENTED_EDGE('',*,*,#525,.F.);
#331=ORIENTED_EDGE('',*,*,#578,.F.);
#332=ORIENTED_EDGE('',*,*,#564,.T.);
#333=ORIENTED_EDGE('',*,*,#567,.F.);
#334=ORIENTED_EDGE('',*,*,#578,.T.);
#335=ORIENTED_EDGE('',*,*,#428,.T.);
#336=ORIENTED_EDGE('',*,*,#575,.F.);
#337=ORIENTED_EDGE('',*,*,#561,.F.);
#338=ORIENTED_EDGE('',*,*,#563,.T.);
#339=ORIENTED_EDGE('',*,*,#576,.T.);
#340=ORIENTED_EDGE('',*,*,#527,.F.);
#341=ORIENTED_EDGE('',*,*,#577,.F.);
#342=ORIENTED_EDGE('',*,*,#569,.T.);
#343=ORIENTED_EDGE('',*,*,#433,.F.);
#344=ORIENTED_EDGE('',*,*,#579,.T.);
#345=ORIENTED_EDGE('',*,*,#536,.T.);
#346=ORIENTED_EDGE('',*,*,#580,.F.);
#347=ORIENTED_EDGE('',*,*,#551,.F.);
#348=ORIENTED_EDGE('',*,*,#555,.T.);
#349=ORIENTED_EDGE('',*,*,#581,.T.);
#350=ORIENTED_EDGE('',*,*,#532,.F.);
#351=ORIENTED_EDGE('',*,*,#582,.F.);
#352=ORIENTED_EDGE('',*,*,#553,.T.);
#353=ORIENTED_EDGE('',*,*,#556,.F.);
#354=ORIENTED_EDGE('',*,*,#582,.T.);
#355=ORIENTED_EDGE('',*,*,#420,.T.);
#356=ORIENTED_EDGE('',*,*,#579,.F.);
#357=ORIENTED_EDGE('',*,*,#550,.F.);
#358=ORIENTED_EDGE('',*,*,#552,.T.);
#359=ORIENTED_EDGE('',*,*,#580,.T.);
#360=ORIENTED_EDGE('',*,*,#534,.F.);
#361=ORIENTED_EDGE('',*,*,#581,.F.);
#362=ORIENTED_EDGE('',*,*,#558,.T.);
#363=ORIENTED_EDGE('',*,*,#425,.F.);
#364=ORIENTED_EDGE('',*,*,#544,.T.);
#365=ORIENTED_EDGE('',*,*,#583,.T.);
#366=ORIENTED_EDGE('',*,*,#539,.F.);
#367=ORIENTED_EDGE('',*,*,#584,.F.);
#368=ORIENTED_EDGE('',*,*,#545,.F.);
#369=ORIENTED_EDGE('',*,*,#584,.T.);
#370=ORIENTED_EDGE('',*,*,#412,.T.);
#371=ORIENTED_EDGE('',*,*,#543,.F.);
#372=ORIENTED_EDGE('',*,*,#416,.T.);
#373=ORIENTED_EDGE('',*,*,#541,.F.);
#374=ORIENTED_EDGE('',*,*,#583,.F.);
#375=ORIENTED_EDGE('',*,*,#547,.T.);
#376=ORIENTED_EDGE('',*,*,#470,.F.);
#377=ORIENTED_EDGE('',*,*,#474,.T.);
#378=ORIENTED_EDGE('',*,*,#585,.T.);
#379=ORIENTED_EDGE('',*,*,#586,.T.);
#380=ORIENTED_EDGE('',*,*,#587,.F.);
#381=ORIENTED_EDGE('',*,*,#496,.F.);
#382=ORIENTED_EDGE('',*,*,#464,.T.);
#383=ORIENTED_EDGE('',*,*,#498,.T.);
#384=ORIENTED_EDGE('',*,*,#588,.F.);
#385=ORIENTED_EDGE('',*,*,#589,.F.);
#386=ORIENTED_EDGE('',*,*,#590,.F.);
#387=ORIENTED_EDGE('',*,*,#472,.F.);
#388=ORIENTED_EDGE('',*,*,#591,.T.);
#389=ORIENTED_EDGE('',*,*,#585,.F.);
#390=ORIENTED_EDGE('',*,*,#473,.F.);
#391=ORIENTED_EDGE('',*,*,#590,.T.);
#392=ORIENTED_EDGE('',*,*,#591,.F.);
#393=ORIENTED_EDGE('',*,*,#589,.T.);
#394=ORIENTED_EDGE('',*,*,#592,.T.);
#395=ORIENTED_EDGE('',*,*,#586,.F.);
#396=ORIENTED_EDGE('',*,*,#587,.T.);
#397=ORIENTED_EDGE('',*,*,#592,.F.);
#398=ORIENTED_EDGE('',*,*,#588,.T.);
#399=ORIENTED_EDGE('',*,*,#497,.F.);
#400=EDGE_CURVE('',#593,#594,#717,.T.);
#401=EDGE_CURVE('',#595,#593,#718,.T.);
#402=EDGE_CURVE('',#595,#596,#719,.T.);
#403=EDGE_CURVE('',#596,#594,#720,.T.);
#404=EDGE_CURVE('',#597,#593,#721,.T.);
#405=EDGE_CURVE('',#598,#597,#722,.T.);
#406=EDGE_CURVE('',#598,#595,#723,.T.);
#407=EDGE_CURVE('',#599,#597,#724,.T.);
#408=EDGE_CURVE('',#600,#599,#725,.T.);
#409=EDGE_CURVE('',#600,#598,#726,.T.);
#410=EDGE_CURVE('',#594,#599,#727,.T.);
#411=EDGE_CURVE('',#596,#600,#728,.T.);
#412=EDGE_CURVE('',#601,#602,#729,.T.);
#413=EDGE_CURVE('',#603,#601,#730,.T.);
#414=EDGE_CURVE('',#604,#603,#731,.T.);
#415=EDGE_CURVE('',#604,#602,#732,.T.);
#416=EDGE_CURVE('',#605,#606,#733,.T.);
#417=EDGE_CURVE('',#605,#607,#734,.T.);
#418=EDGE_CURVE('',#607,#608,#735,.T.);
#419=EDGE_CURVE('',#606,#608,#736,.T.);
#420=EDGE_CURVE('',#609,#610,#737,.T.);
#421=EDGE_CURVE('',#611,#609,#738,.T.);
#422=EDGE_CURVE('',#612,#611,#739,.T.);
#423=EDGE_CURVE('',#612,#610,#740,.T.);
#424=EDGE_CURVE('',#613,#614,#741,.T.);
#425=EDGE_CURVE('',#613,#615,#742,.T.);
#426=EDGE_CURVE('',#615,#616,#743,.T.);
#427=EDGE_CURVE('',#614,#616,#744,.T.);
#428=EDGE_CURVE('',#617,#618,#745,.T.);
#429=EDGE_CURVE('',#619,#617,#746,.T.);
#430=EDGE_CURVE('',#620,#619,#747,.T.);
#431=EDGE_CURVE('',#620,#618,#748,.T.);
#432=EDGE_CURVE('',#621,#622,#749,.T.);
#433=EDGE_CURVE('',#621,#623,#750,.T.);
#434=EDGE_CURVE('',#623,#624,#751,.T.);
#435=EDGE_CURVE('',#622,#624,#752,.T.);
#436=EDGE_CURVE('',#625,#626,#753,.T.);
#437=EDGE_CURVE('',#625,#627,#754,.T.);
#438=EDGE_CURVE('',#627,#628,#755,.T.);
#439=EDGE_CURVE('',#626,#628,#756,.T.);
#440=EDGE_CURVE('',#629,#630,#757,.T.);
#441=EDGE_CURVE('',#629,#631,#758,.T.);
#442=EDGE_CURVE('',#631,#632,#759,.T.);
#443=EDGE_CURVE('',#632,#633,#760,.T.);
#444=EDGE_CURVE('',#633,#634,#761,.T.);
#445=EDGE_CURVE('',#635,#634,#762,.T.);
#446=EDGE_CURVE('',#636,#635,#763,.T.);
#447=EDGE_CURVE('',#636,#630,#764,.T.);
#448=EDGE_CURVE('',#637,#638,#765,.T.);
#449=EDGE_CURVE('',#638,#630,#766,.T.);
#450=EDGE_CURVE('',#636,#637,#767,.T.);
#451=EDGE_CURVE('',#638,#639,#768,.T.);
#452=EDGE_CURVE('',#640,#637,#769,.T.);
#453=EDGE_CURVE('',#640,#641,#770,.T.);
#454=EDGE_CURVE('',#641,#642,#771,.T.);
#455=EDGE_CURVE('',#643,#642,#772,.T.);
#456=EDGE_CURVE('',#643,#644,#773,.T.);
#457=EDGE_CURVE('',#639,#644,#774,.T.);
#458=EDGE_CURVE('',#645,#646,#775,.T.);
#459=EDGE_CURVE('',#646,#647,#776,.T.);
#460=EDGE_CURVE('',#647,#626,#777,.T.);
#461=EDGE_CURVE('',#648,#628,#778,.T.);
#462=EDGE_CURVE('',#645,#648,#779,.T.);
#463=EDGE_CURVE('',#649,#650,#780,.T.);
#464=EDGE_CURVE('',#651,#649,#781,.T.);
#465=EDGE_CURVE('',#651,#652,#782,.T.);
#466=EDGE_CURVE('',#652,#650,#783,.T.);
#467=EDGE_CURVE('',#648,#650,#784,.T.);
#468=EDGE_CURVE('',#645,#652,#785,.T.);
#469=EDGE_CURVE('',#640,#653,#786,.T.);
#470=EDGE_CURVE('',#653,#654,#787,.T.);
#471=EDGE_CURVE('',#641,#654,#788,.T.);
#472=EDGE_CURVE('',#651,#655,#789,.T.);
#473=EDGE_CURVE('',#655,#656,#790,.T.);
#474=EDGE_CURVE('',#653,#656,#791,.T.);
#475=EDGE_CURVE('',#635,#657,#792,.T.);
#476=EDGE_CURVE('',#657,#658,#793,.T.);
#477=EDGE_CURVE('',#659,#658,#794,.T.);
#478=EDGE_CURVE('',#659,#660,#795,.T.);
#479=EDGE_CURVE('',#660,#661,#796,.T.);
#480=EDGE_CURVE('',#661,#662,#797,.T.);
#481=EDGE_CURVE('',#663,#662,#798,.T.);
#482=EDGE_CURVE('',#663,#664,#799,.T.);
#483=EDGE_CURVE('',#664,#665,#800,.T.);
#484=EDGE_CURVE('',#665,#666,#801,.T.);
#485=EDGE_CURVE('',#666,#604,#802,.T.);
#486=EDGE_CURVE('',#603,#667,#803,.T.);
#487=EDGE_CURVE('',#668,#667,#804,.T.);
#488=EDGE_CURVE('',#612,#668,#805,.T.);
#489=EDGE_CURVE('',#611,#669,#806,.T.);
#490=EDGE_CURVE('',#670,#669,#807,.T.);
#491=EDGE_CURVE('',#620,#670,#808,.T.);
#492=EDGE_CURVE('',#619,#671,#809,.T.);
#493=EDGE_CURVE('',#671,#672,#810,.T.);
#494=EDGE_CURVE('',#673,#672,#811,.T.);
#495=EDGE_CURVE('',#673,#646,#812,.T.);
#496=EDGE_CURVE('',#654,#674,#813,.T.);
#497=EDGE_CURVE('',#674,#675,#814,.T.);
#498=EDGE_CURVE('',#649,#675,#815,.T.);
#499=EDGE_CURVE('',#627,#676,#816,.T.);
#500=EDGE_CURVE('',#677,#676,#817,.T.);
#501=EDGE_CURVE('',#678,#677,#818,.T.);
#502=EDGE_CURVE('',#679,#678,#819,.T.);
#503=EDGE_CURVE('',#679,#680,#820,.T.);
#504=EDGE_CURVE('',#680,#681,#821,.T.);
#505=EDGE_CURVE('',#682,#681,#822,.T.);
#506=EDGE_CURVE('',#683,#682,#823,.T.);
#507=EDGE_CURVE('',#683,#684,#824,.T.);
#508=EDGE_CURVE('',#684,#685,#825,.T.);
#509=EDGE_CURVE('',#686,#685,#826,.T.);
#510=EDGE_CURVE('',#608,#686,#827,.T.);
#511=EDGE_CURVE('',#687,#607,#828,.T.);
#512=EDGE_CURVE('',#688,#687,#829,.T.);
#513=EDGE_CURVE('',#614,#688,#830,.T.);
#514=EDGE_CURVE('',#689,#616,#831,.T.);
#515=EDGE_CURVE('',#690,#689,#832,.T.);
#516=EDGE_CURVE('',#622,#690,#833,.T.);
#517=EDGE_CURVE('',#691,#624,#834,.T.);
#518=EDGE_CURVE('',#634,#691,#835,.T.);
#519=EDGE_CURVE('',#633,#642,#836,.T.);
#520=EDGE_CURVE('',#673,#692,#837,.T.);
#521=EDGE_CURVE('',#692,#647,#838,.T.);
#522=EDGE_CURVE('',#692,#625,#839,.T.);
#523=EDGE_CURVE('',#672,#676,#840,.T.);
#524=EDGE_CURVE('',#671,#677,#841,.T.);
#525=EDGE_CURVE('',#617,#693,#842,.T.);
#526=EDGE_CURVE('',#693,#678,#843,.T.);
#527=EDGE_CURVE('',#693,#694,#844,.T.);
#528=EDGE_CURVE('',#694,#679,#845,.T.);
#529=EDGE_CURVE('',#618,#694,#846,.T.);
#530=EDGE_CURVE('',#670,#680,#847,.T.);
#531=EDGE_CURVE('',#669,#681,#848,.T.);
#532=EDGE_CURVE('',#609,#695,#849,.T.);
#533=EDGE_CURVE('',#695,#682,#850,.T.);
#534=EDGE_CURVE('',#695,#696,#851,.T.);
#535=EDGE_CURVE('',#696,#683,#852,.T.);
#536=EDGE_CURVE('',#610,#696,#853,.T.);
#537=EDGE_CURVE('',#668,#684,#854,.T.);
#538=EDGE_CURVE('',#667,#685,#855,.T.);
#539=EDGE_CURVE('',#601,#697,#856,.T.);
#540=EDGE_CURVE('',#697,#686,#857,.T.);
#541=EDGE_CURVE('',#697,#606,#858,.T.);
#542=EDGE_CURVE('',#666,#698,#859,.T.);
#543=EDGE_CURVE('',#698,#602,#860,.T.);
#544=EDGE_CURVE('',#699,#700,#861,.T.);
#545=EDGE_CURVE('',#699,#698,#862,.T.);
#546=EDGE_CURVE('',#665,#687,#863,.T.);
#547=EDGE_CURVE('',#700,#605,#864,.T.);
#548=EDGE_CURVE('',#664,#688,#865,.T.);
#549=EDGE_CURVE('',#663,#701,#866,.T.);
#550=EDGE_CURVE('',#701,#702,#867,.T.);
#551=EDGE_CURVE('',#702,#703,#868,.T.);
#552=EDGE_CURVE('',#613,#703,#869,.T.);
#553=EDGE_CURVE('',#701,#704,#870,.T.);
#554=EDGE_CURVE('',#662,#704,#871,.T.);
#555=EDGE_CURVE('',#705,#706,#872,.T.);
#556=EDGE_CURVE('',#705,#704,#873,.T.);
#557=EDGE_CURVE('',#661,#689,#874,.T.);
#558=EDGE_CURVE('',#706,#615,#875,.T.);
#559=EDGE_CURVE('',#660,#690,#876,.T.);
#560=EDGE_CURVE('',#659,#707,#877,.T.);
#561=EDGE_CURVE('',#707,#708,#878,.T.);
#562=EDGE_CURVE('',#708,#709,#879,.T.);
#563=EDGE_CURVE('',#621,#709,#880,.T.);
#564=EDGE_CURVE('',#707,#710,#881,.T.);
#565=EDGE_CURVE('',#658,#710,#882,.T.);
#566=EDGE_CURVE('',#711,#712,#883,.T.);
#567=EDGE_CURVE('',#711,#710,#884,.T.);
#568=EDGE_CURVE('',#657,#691,#885,.T.);
#569=EDGE_CURVE('',#712,#623,#886,.T.);
#570=EDGE_CURVE('',#643,#632,#887,.T.);
#571=EDGE_CURVE('',#629,#692,#888,.T.);
#572=EDGE_CURVE('',#631,#625,#889,.T.);
#573=EDGE_CURVE('',#639,#647,#890,.T.);
#574=EDGE_CURVE('',#644,#626,#891,.T.);
#575=EDGE_CURVE('',#708,#618,#892,.T.);
#576=EDGE_CURVE('',#709,#694,#893,.T.);
#577=EDGE_CURVE('',#712,#693,#894,.T.);
#578=EDGE_CURVE('',#711,#617,#895,.T.);
#579=EDGE_CURVE('',#702,#610,#896,.T.);
#580=EDGE_CURVE('',#703,#696,#897,.T.);
#581=EDGE_CURVE('',#706,#695,#898,.T.);
#582=EDGE_CURVE('',#705,#609,#899,.T.);
#583=EDGE_CURVE('',#700,#697,#900,.T.);
#584=EDGE_CURVE('',#699,#601,#901,.T.);
#585=EDGE_CURVE('',#656,#713,#902,.T.);
#586=EDGE_CURVE('',#713,#714,#903,.T.);
#587=EDGE_CURVE('',#674,#714,#904,.T.);
#588=EDGE_CURVE('',#715,#675,#905,.T.);
#589=EDGE_CURVE('',#716,#715,#906,.T.);
#590=EDGE_CURVE('',#655,#716,#907,.T.);
#591=EDGE_CURVE('',#716,#713,#908,.T.);
#592=EDGE_CURVE('',#715,#714,#909,.T.);
#593=VERTEX_POINT('',#1798);
#594=VERTEX_POINT('',#1799);
#595=VERTEX_POINT('',#1801);
#596=VERTEX_POINT('',#1803);
#597=VERTEX_POINT('',#1807);
#598=VERTEX_POINT('',#1809);
#599=VERTEX_POINT('',#1813);
#600=VERTEX_POINT('',#1815);
#601=VERTEX_POINT('',#1825);
#602=VERTEX_POINT('',#1826);
#603=VERTEX_POINT('',#1828);
#604=VERTEX_POINT('',#1830);
#605=VERTEX_POINT('',#1834);
#606=VERTEX_POINT('',#1835);
#607=VERTEX_POINT('',#1837);
#608=VERTEX_POINT('',#1839);
#609=VERTEX_POINT('',#1843);
#610=VERTEX_POINT('',#1844);
#611=VERTEX_POINT('',#1846);
#612=VERTEX_POINT('',#1848);
#613=VERTEX_POINT('',#1852);
#614=VERTEX_POINT('',#1853);
#615=VERTEX_POINT('',#1855);
#616=VERTEX_POINT('',#1857);
#617=VERTEX_POINT('',#1861);
#618=VERTEX_POINT('',#1862);
#619=VERTEX_POINT('',#1864);
#620=VERTEX_POINT('',#1866);
#621=VERTEX_POINT('',#1870);
#622=VERTEX_POINT('',#1871);
#623=VERTEX_POINT('',#1873);
#624=VERTEX_POINT('',#1875);
#625=VERTEX_POINT('',#1879);
#626=VERTEX_POINT('',#1880);
#627=VERTEX_POINT('',#1882);
#628=VERTEX_POINT('',#1884);
#629=VERTEX_POINT('',#1888);
#630=VERTEX_POINT('',#1889);
#631=VERTEX_POINT('',#1891);
#632=VERTEX_POINT('',#1893);
#633=VERTEX_POINT('',#1895);
#634=VERTEX_POINT('',#1897);
#635=VERTEX_POINT('',#1899);
#636=VERTEX_POINT('',#1901);
#637=VERTEX_POINT('',#1905);
#638=VERTEX_POINT('',#1906);
#639=VERTEX_POINT('',#1911);
#640=VERTEX_POINT('',#1913);
#641=VERTEX_POINT('',#1915);
#642=VERTEX_POINT('',#1917);
#643=VERTEX_POINT('',#1919);
#644=VERTEX_POINT('',#1921);
#645=VERTEX_POINT('',#1925);
#646=VERTEX_POINT('',#1926);
#647=VERTEX_POINT('',#1928);
#648=VERTEX_POINT('',#1931);
#649=VERTEX_POINT('',#1935);
#650=VERTEX_POINT('',#1936);
#651=VERTEX_POINT('',#1938);
#652=VERTEX_POINT('',#1940);
#653=VERTEX_POINT('',#1947);
#654=VERTEX_POINT('',#1949);
#655=VERTEX_POINT('',#1953);
#656=VERTEX_POINT('',#1955);
#657=VERTEX_POINT('',#1958);
#658=VERTEX_POINT('',#1960);
#659=VERTEX_POINT('',#1962);
#660=VERTEX_POINT('',#1964);
#661=VERTEX_POINT('',#1966);
#662=VERTEX_POINT('',#1968);
#663=VERTEX_POINT('',#1970);
#664=VERTEX_POINT('',#1972);
#665=VERTEX_POINT('',#1974);
#666=VERTEX_POINT('',#1976);
#667=VERTEX_POINT('',#1979);
#668=VERTEX_POINT('',#1981);
#669=VERTEX_POINT('',#1984);
#670=VERTEX_POINT('',#1986);
#671=VERTEX_POINT('',#1989);
#672=VERTEX_POINT('',#1991);
#673=VERTEX_POINT('',#1993);
#674=VERTEX_POINT('',#1997);
#675=VERTEX_POINT('',#1999);
#676=VERTEX_POINT('',#2002);
#677=VERTEX_POINT('',#2004);
#678=VERTEX_POINT('',#2006);
#679=VERTEX_POINT('',#2008);
#680=VERTEX_POINT('',#2010);
#681=VERTEX_POINT('',#2012);
#682=VERTEX_POINT('',#2014);
#683=VERTEX_POINT('',#2016);
#684=VERTEX_POINT('',#2018);
#685=VERTEX_POINT('',#2020);
#686=VERTEX_POINT('',#2022);
#687=VERTEX_POINT('',#2025);
#688=VERTEX_POINT('',#2027);
#689=VERTEX_POINT('',#2030);
#690=VERTEX_POINT('',#2032);
#691=VERTEX_POINT('',#2035);
#692=VERTEX_POINT('',#2040);
#693=VERTEX_POINT('',#2049);
#694=VERTEX_POINT('',#2053);
#695=VERTEX_POINT('',#2062);
#696=VERTEX_POINT('',#2066);
#697=VERTEX_POINT('',#2075);
#698=VERTEX_POINT('',#2081);
#699=VERTEX_POINT('',#2085);
#700=VERTEX_POINT('',#2086);
#701=VERTEX_POINT('',#2094);
#702=VERTEX_POINT('',#2096);
#703=VERTEX_POINT('',#2098);
#704=VERTEX_POINT('',#2102);
#705=VERTEX_POINT('',#2106);
#706=VERTEX_POINT('',#2107);
#707=VERTEX_POINT('',#2115);
#708=VERTEX_POINT('',#2117);
#709=VERTEX_POINT('',#2119);
#710=VERTEX_POINT('',#2123);
#711=VERTEX_POINT('',#2127);
#712=VERTEX_POINT('',#2128);
#713=VERTEX_POINT('',#2166);
#714=VERTEX_POINT('',#2168);
#715=VERTEX_POINT('',#2172);
#716=VERTEX_POINT('',#2174);
#717=LINE('',#1797,#910);
#718=LINE('',#1800,#911);
#719=LINE('',#1802,#912);
#720=LINE('',#1804,#913);
#721=LINE('',#1806,#914);
#722=LINE('',#1808,#915);
#723=LINE('',#1810,#916);
#724=LINE('',#1812,#917);
#725=LINE('',#1814,#918);
#726=LINE('',#1816,#919);
#727=LINE('',#1818,#920);
#728=LINE('',#1819,#921);
#729=LINE('',#1824,#922);
#730=LINE('',#1827,#923);
#731=LINE('',#1829,#924);
#732=LINE('',#1831,#925);
#733=LINE('',#1833,#926);
#734=LINE('',#1836,#927);
#735=LINE('',#1838,#928);
#736=LINE('',#1840,#929);
#737=LINE('',#1842,#930);
#738=LINE('',#1845,#931);
#739=LINE('',#1847,#932);
#740=LINE('',#1849,#933);
#741=LINE('',#1851,#934);
#742=LINE('',#1854,#935);
#743=LINE('',#1856,#936);
#744=LINE('',#1858,#937);
#745=LINE('',#1860,#938);
#746=LINE('',#1863,#939);
#747=LINE('',#1865,#940);
#748=LINE('',#1867,#941);
#749=LINE('',#1869,#942);
#750=LINE('',#1872,#943);
#751=LINE('',#1874,#944);
#752=LINE('',#1876,#945);
#753=LINE('',#1878,#946);
#754=LINE('',#1881,#947);
#755=LINE('',#1883,#948);
#756=LINE('',#1885,#949);
#757=LINE('',#1887,#950);
#758=LINE('',#1890,#951);
#759=LINE('',#1892,#952);
#760=LINE('',#1894,#953);
#761=LINE('',#1896,#954);
#762=LINE('',#1898,#955);
#763=LINE('',#1900,#956);
#764=LINE('',#1902,#957);
#765=LINE('',#1904,#958);
#766=LINE('',#1907,#959);
#767=LINE('',#1908,#960);
#768=LINE('',#1910,#961);
#769=LINE('',#1912,#962);
#770=LINE('',#1914,#963);
#771=LINE('',#1916,#964);
#772=LINE('',#1918,#965);
#773=LINE('',#1920,#966);
#774=LINE('',#1922,#967);
#775=LINE('',#1924,#968);
#776=LINE('',#1927,#969);
#777=LINE('',#1929,#970);
#778=LINE('',#1930,#971);
#779=LINE('',#1932,#972);
#780=LINE('',#1934,#973);
#781=LINE('',#1937,#974);
#782=LINE('',#1939,#975);
#783=LINE('',#1941,#976);
#784=LINE('',#1943,#977);
#785=LINE('',#1944,#978);
#786=LINE('',#1946,#979);
#787=LINE('',#1948,#980);
#788=LINE('',#1950,#981);
#789=LINE('',#1952,#982);
#790=LINE('',#1954,#983);
#791=LINE('',#1956,#984);
#792=LINE('',#1957,#985);
#793=LINE('',#1959,#986);
#794=LINE('',#1961,#987);
#795=LINE('',#1963,#988);
#796=LINE('',#1965,#989);
#797=LINE('',#1967,#990);
#798=LINE('',#1969,#991);
#799=LINE('',#1971,#992);
#800=LINE('',#1973,#993);
#801=LINE('',#1975,#994);
#802=LINE('',#1977,#995);
#803=LINE('',#1978,#996);
#804=LINE('',#1980,#997);
#805=LINE('',#1982,#998);
#806=LINE('',#1983,#999);
#807=LINE('',#1985,#1000);
#808=LINE('',#1987,#1001);
#809=LINE('',#1988,#1002);
#810=LINE('',#1990,#1003);
#811=LINE('',#1992,#1004);
#812=LINE('',#1994,#1005);
#813=LINE('',#1996,#1006);
#814=LINE('',#1998,#1007);
#815=LINE('',#2000,#1008);
#816=LINE('',#2001,#1009);
#817=LINE('',#2003,#1010);
#818=LINE('',#2005,#1011);
#819=LINE('',#2007,#1012);
#820=LINE('',#2009,#1013);
#821=LINE('',#2011,#1014);
#822=LINE('',#2013,#1015);
#823=LINE('',#2015,#1016);
#824=LINE('',#2017,#1017);
#825=LINE('',#2019,#1018);
#826=LINE('',#2021,#1019);
#827=LINE('',#2023,#1020);
#828=LINE('',#2024,#1021);
#829=LINE('',#2026,#1022);
#830=LINE('',#2028,#1023);
#831=LINE('',#2029,#1024);
#832=LINE('',#2031,#1025);
#833=LINE('',#2033,#1026);
#834=LINE('',#2034,#1027);
#835=LINE('',#2036,#1028);
#836=LINE('',#2037,#1029);
#837=LINE('',#2039,#1030);
#838=LINE('',#2041,#1031);
#839=LINE('',#2043,#1032);
#840=LINE('',#2044,#1033);
#841=LINE('',#2046,#1034);
#842=LINE('',#2048,#1035);
#843=LINE('',#2050,#1036);
#844=LINE('',#2052,#1037);
#845=LINE('',#2054,#1038);
#846=LINE('',#2056,#1039);
#847=LINE('',#2057,#1040);
#848=LINE('',#2059,#1041);
#849=LINE('',#2061,#1042);
#850=LINE('',#2063,#1043);
#851=LINE('',#2065,#1044);
#852=LINE('',#2067,#1045);
#853=LINE('',#2069,#1046);
#854=LINE('',#2070,#1047);
#855=LINE('',#2072,#1048);
#856=LINE('',#2074,#1049);
#857=LINE('',#2076,#1050);
#858=LINE('',#2078,#1051);
#859=LINE('',#2080,#1052);
#860=LINE('',#2082,#1053);
#861=LINE('',#2084,#1054);
#862=LINE('',#2087,#1055);
#863=LINE('',#2088,#1056);
#864=LINE('',#2089,#1057);
#865=LINE('',#2091,#1058);
#866=LINE('',#2093,#1059);
#867=LINE('',#2095,#1060);
#868=LINE('',#2097,#1061);
#869=LINE('',#2099,#1062);
#870=LINE('',#2101,#1063);
#871=LINE('',#2103,#1064);
#872=LINE('',#2105,#1065);
#873=LINE('',#2108,#1066);
#874=LINE('',#2109,#1067);
#875=LINE('',#2110,#1068);
#876=LINE('',#2112,#1069);
#877=LINE('',#2114,#1070);
#878=LINE('',#2116,#1071);
#879=LINE('',#2118,#1072);
#880=LINE('',#2120,#1073);
#881=LINE('',#2122,#1074);
#882=LINE('',#2124,#1075);
#883=LINE('',#2126,#1076);
#884=LINE('',#2129,#1077);
#885=LINE('',#2130,#1078);
#886=LINE('',#2131,#1079);
#887=LINE('',#2134,#1080);
#888=LINE('',#2136,#1081);
#889=LINE('',#2137,#1082);
#890=LINE('',#2139,#1083);
#891=LINE('',#2141,#1084);
#892=LINE('',#2144,#1085);
#893=LINE('',#2145,#1086);
#894=LINE('',#2147,#1087);
#895=LINE('',#2148,#1088);
#896=LINE('',#2152,#1089);
#897=LINE('',#2153,#1090);
#898=LINE('',#2155,#1091);
#899=LINE('',#2156,#1092);
#900=LINE('',#2160,#1093);
#901=LINE('',#2161,#1094);
#902=LINE('',#2165,#1095);
#903=LINE('',#2167,#1096);
#904=LINE('',#2169,#1097);
#905=LINE('',#2171,#1098);
#906=LINE('',#2173,#1099);
#907=LINE('',#2175,#1100);
#908=LINE('',#2177,#1101);
#909=LINE('',#2179,#1102);
#910=VECTOR('',#1468,1.);
#911=VECTOR('',#1469,1.);
#912=VECTOR('',#1470,1.);
#913=VECTOR('',#1471,1.);
#914=VECTOR('',#1474,1.);
#915=VECTOR('',#1475,1.);
#916=VECTOR('',#1476,1.);
#917=VECTOR('',#1479,1.);
#918=VECTOR('',#1480,1.);
#919=VECTOR('',#1481,1.);
#920=VECTOR('',#1484,1.);
#921=VECTOR('',#1485,1.);
#922=VECTOR('',#1494,1.);
#923=VECTOR('',#1495,1.);
#924=VECTOR('',#1496,1.);
#925=VECTOR('',#1497,1.);
#926=VECTOR('',#1500,1.);
#927=VECTOR('',#1501,1.);
#928=VECTOR('',#1502,1.);
#929=VECTOR('',#1503,1.);
#930=VECTOR('',#1506,1.);
#931=VECTOR('',#1507,1.);
#932=VECTOR('',#1508,1.);
#933=VECTOR('',#1509,1.);
#934=VECTOR('',#1512,1.);
#935=VECTOR('',#1513,1.);
#936=VECTOR('',#1514,1.);
#937=VECTOR('',#1515,1.);
#938=VECTOR('',#1518,1.);
#939=VECTOR('',#1519,1.);
#940=VECTOR('',#1520,1.);
#941=VECTOR('',#1521,1.);
#942=VECTOR('',#1524,1.);
#943=VECTOR('',#1525,1.);
#944=VECTOR('',#1526,1.);
#945=VECTOR('',#1527,1.);
#946=VECTOR('',#1530,1.);
#947=VECTOR('',#1531,1.);
#948=VECTOR('',#1532,1.);
#949=VECTOR('',#1533,1.);
#950=VECTOR('',#1536,1.);
#951=VECTOR('',#1537,1.);
#952=VECTOR('',#1538,1.);
#953=VECTOR('',#1539,1.);
#954=VECTOR('',#1540,1.);
#955=VECTOR('',#1541,1.);
#956=VECTOR('',#1542,1.);
#957=VECTOR('',#1543,1.);
#958=VECTOR('',#1546,1.);
#959=VECTOR('',#1547,1.);
#960=VECTOR('',#1548,1.);
#961=VECTOR('',#1551,1.);
#962=VECTOR('',#1552,1.);
#963=VECTOR('',#1553,1.);
#964=VECTOR('',#1554,1.);
#965=VECTOR('',#1555,1.);
#966=VECTOR('',#1556,1.);
#967=VECTOR('',#1557,1.);
#968=VECTOR('',#1560,1.);
#969=VECTOR('',#1561,1.);
#970=VECTOR('',#1562,1.);
#971=VECTOR('',#1563,1.);
#972=VECTOR('',#1564,1.);
#973=VECTOR('',#1567,1.);
#974=VECTOR('',#1568,1.);
#975=VECTOR('',#1569,1.);
#976=VECTOR('',#1570,1.);
#977=VECTOR('',#1573,1.);
#978=VECTOR('',#1574,1.);
#979=VECTOR('',#1577,1.);
#980=VECTOR('',#1578,1.);
#981=VECTOR('',#1579,1.);
#982=VECTOR('',#1582,1.);
#983=VECTOR('',#1583,1.);
#984=VECTOR('',#1584,1.);
#985=VECTOR('',#1585,1.);
#986=VECTOR('',#1586,1.);
#987=VECTOR('',#1587,1.);
#988=VECTOR('',#1588,1.);
#989=VECTOR('',#1589,1.);
#990=VECTOR('',#1590,1.);
#991=VECTOR('',#1591,1.);
#992=VECTOR('',#1592,1.);
#993=VECTOR('',#1593,1.);
#994=VECTOR('',#1594,1.);
#995=VECTOR('',#1595,1.);
#996=VECTOR('',#1596,1.);
#997=VECTOR('',#1597,1.);
#998=VECTOR('',#1598,1.);
#999=VECTOR('',#1599,1.);
#1000=VECTOR('',#1600,1.);
#1001=VECTOR('',#1601,1.);
#1002=VECTOR('',#1602,1.);
#1003=VECTOR('',#1603,1.);
#1004=VECTOR('',#1604,1.);
#1005=VECTOR('',#1605,1.);
#1006=VECTOR('',#1608,1.);
#1007=VECTOR('',#1609,1.);
#1008=VECTOR('',#1610,1.);
#1009=VECTOR('',#1611,1.);
#1010=VECTOR('',#1612,1.);
#1011=VECTOR('',#1613,1.);
#1012=VECTOR('',#1614,1.);
#1013=VECTOR('',#1615,1.);
#1014=VECTOR('',#1616,1.);
#1015=VECTOR('',#1617,1.);
#1016=VECTOR('',#1618,1.);
#1017=VECTOR('',#1619,1.);
#1018=VECTOR('',#1620,1.);
#1019=VECTOR('',#1621,1.);
#1020=VECTOR('',#1622,1.);
#1021=VECTOR('',#1623,1.);
#1022=VECTOR('',#1624,1.);
#1023=VECTOR('',#1625,1.);
#1024=VECTOR('',#1626,1.);
#1025=VECTOR('',#1627,1.);
#1026=VECTOR('',#1628,1.);
#1027=VECTOR('',#1629,1.);
#1028=VECTOR('',#1630,1.);
#1029=VECTOR('',#1631,1.);
#1030=VECTOR('',#1634,1.);
#1031=VECTOR('',#1635,1.);
#1032=VECTOR('',#1638,1.);
#1033=VECTOR('',#1639,1.);
#1034=VECTOR('',#1642,1.);
#1035=VECTOR('',#1645,1.);
#1036=VECTOR('',#1646,1.);
#1037=VECTOR('',#1649,1.);
#1038=VECTOR('',#1650,1.);
#1039=VECTOR('',#1653,1.);
#1040=VECTOR('',#1654,1.);
#1041=VECTOR('',#1657,1.);
#1042=VECTOR('',#1660,1.);
#1043=VECTOR('',#1661,1.);
#1044=VECTOR('',#1664,1.);
#1045=VECTOR('',#1665,1.);
#1046=VECTOR('',#1668,1.);
#1047=VECTOR('',#1669,1.);
#1048=VECTOR('',#1672,1.);
#1049=VECTOR('',#1675,1.);
#1050=VECTOR('',#1676,1.);
#1051=VECTOR('',#1679,1.);
#1052=VECTOR('',#1682,1.);
#1053=VECTOR('',#1683,1.);
#1054=VECTOR('',#1686,1.);
#1055=VECTOR('',#1687,1.);
#1056=VECTOR('',#1688,1.);
#1057=VECTOR('',#1689,1.);
#1058=VECTOR('',#1692,1.);
#1059=VECTOR('',#1695,1.);
#1060=VECTOR('',#1696,1.);
#1061=VECTOR('',#1697,1.);
#1062=VECTOR('',#1698,1.);
#1063=VECTOR('',#1701,1.);
#1064=VECTOR('',#1702,1.);
#1065=VECTOR('',#1705,1.);
#1066=VECTOR('',#1706,1.);
#1067=VECTOR('',#1707,1.);
#1068=VECTOR('',#1708,1.);
#1069=VECTOR('',#1711,1.);
#1070=VECTOR('',#1714,1.);
#1071=VECTOR('',#1715,1.);
#1072=VECTOR('',#1716,1.);
#1073=VECTOR('',#1717,1.);
#1074=VECTOR('',#1720,1.);
#1075=VECTOR('',#1721,1.);
#1076=VECTOR('',#1724,1.);
#1077=VECTOR('',#1725,1.);
#1078=VECTOR('',#1726,1.);
#1079=VECTOR('',#1727,1.);
#1080=VECTOR('',#1732,1.);
#1081=VECTOR('',#1735,1.);
#1082=VECTOR('',#1736,1.);
#1083=VECTOR('',#1739,1.);
#1084=VECTOR('',#1742,1.);
#1085=VECTOR('',#1747,1.);
#1086=VECTOR('',#1748,1.);
#1087=VECTOR('',#1751,1.);
#1088=VECTOR('',#1752,1.);
#1089=VECTOR('',#1759,1.);
#1090=VECTOR('',#1760,1.);
#1091=VECTOR('',#1763,1.);
#1092=VECTOR('',#1764,1.);
#1093=VECTOR('',#1771,1.);
#1094=VECTOR('',#1772,1.);
#1095=VECTOR('',#1779,1.);
#1096=VECTOR('',#1780,1.);
#1097=VECTOR('',#1781,1.);
#1098=VECTOR('',#1784,1.);
#1099=VECTOR('',#1785,1.);
#1100=VECTOR('',#1786,1.);
#1101=VECTOR('',#1789,1.);
#1102=VECTOR('',#1792,1.);
#1103=EDGE_LOOP('',(#14,#15,#16,#17));
#1104=EDGE_LOOP('',(#18,#19,#20,#21));
#1105=EDGE_LOOP('',(#22,#23,#24,#25));
#1106=EDGE_LOOP('',(#26,#27,#28,#29));
#1107=EDGE_LOOP('',(#30,#31,#32,#33));
#1108=EDGE_LOOP('',(#34,#35,#36,#37));
#1109=EDGE_LOOP('',(#38,#39,#40,#41));
#1110=EDGE_LOOP('',(#42,#43,#44,#45));
#1111=EDGE_LOOP('',(#46,#47,#48,#49));
#1112=EDGE_LOOP('',(#50,#51,#52,#53));
#1113=EDGE_LOOP('',(#54,#55,#56,#57));
#1114=EDGE_LOOP('',(#58,#59,#60,#61));
#1115=EDGE_LOOP('',(#62,#63,#64,#65));
#1116=EDGE_LOOP('',(#66,#67,#68,#69,#70,#71,#72,#73));
#1117=EDGE_LOOP('',(#74,#75,#76,#77));
#1118=EDGE_LOOP('',(#78,#79,#80,#81,#82,#83,#84,#85));
#1119=EDGE_LOOP('',(#86,#87,#88,#89,#90,#91));
#1120=EDGE_LOOP('',(#92,#93,#94,#95));
#1121=EDGE_LOOP('',(#96,#97,#98,#99));
#1122=EDGE_LOOP('',(#100,#101,#102,#103));
#1123=EDGE_LOOP('',(#104,#105,#106,#107,#108,#109,#110,#111,#112,#113,#114,
#115,#116,#117,#118,#119,#120,#121,#122,#123,#124,#125,#126,#127,#128,#129,
#130,#131,#132,#133,#134,#135,#136,#137));
#1124=EDGE_LOOP('',(#138,#139,#140,#141,#142,#143,#144,#145,#146,#147,#148,
#149,#150,#151,#152,#153,#154,#155,#156,#157,#158,#159,#160,#161,#162,#163,
#164,#165,#166,#167,#168,#169,#170,#171));
#1125=EDGE_LOOP('',(#172,#173,#174,#175));
#1126=EDGE_LOOP('',(#176,#177,#178,#179,#180,#181));
#1127=EDGE_LOOP('',(#182,#183,#184,#185));
#1128=EDGE_LOOP('',(#186,#187,#188,#189,#190,#191));
#1129=EDGE_LOOP('',(#192,#193,#194,#195));
#1130=EDGE_LOOP('',(#196,#197,#198,#199,#200,#201));
#1131=EDGE_LOOP('',(#202,#203,#204,#205));
#1132=EDGE_LOOP('',(#206,#207,#208,#209,#210,#211));
#1133=EDGE_LOOP('',(#212,#213,#214,#215));
#1134=EDGE_LOOP('',(#216,#217,#218,#219,#220,#221));
#1135=EDGE_LOOP('',(#222,#223,#224,#225));
#1136=EDGE_LOOP('',(#226,#227,#228,#229,#230,#231));
#1137=EDGE_LOOP('',(#232,#233,#234,#235));
#1138=EDGE_LOOP('',(#236,#237,#238,#239));
#1139=EDGE_LOOP('',(#240,#241,#242,#243,#244,#245,#246,#247));
#1140=EDGE_LOOP('',(#248,#249,#250,#251));
#1141=EDGE_LOOP('',(#252,#253,#254,#255,#256,#257,#258,#259));
#1142=EDGE_LOOP('',(#260,#261,#262,#263));
#1143=EDGE_LOOP('',(#264,#265,#266,#267,#268,#269,#270,#271));
#1144=EDGE_LOOP('',(#272,#273,#274,#275));
#1145=EDGE_LOOP('',(#276,#277,#278,#279,#280,#281,#282,#283));
#1146=EDGE_LOOP('',(#284,#285,#286,#287));
#1147=EDGE_LOOP('',(#288,#289,#290,#291,#292,#293,#294,#295));
#1148=EDGE_LOOP('',(#296,#297,#298,#299));
#1149=EDGE_LOOP('',(#300,#301,#302,#303));
#1150=EDGE_LOOP('',(#304,#305,#306,#307));
#1151=EDGE_LOOP('',(#308,#309,#310,#311,#312,#313));
#1152=EDGE_LOOP('',(#314,#315,#316,#317,#318,#319));
#1153=EDGE_LOOP('',(#320,#321,#322,#323));
#1154=EDGE_LOOP('',(#324,#325,#326,#327));
#1155=EDGE_LOOP('',(#328,#329,#330,#331));
#1156=EDGE_LOOP('',(#332,#333,#334,#335,#336,#337));
#1157=EDGE_LOOP('',(#338,#339,#340,#341,#342,#343));
#1158=EDGE_LOOP('',(#344,#345,#346,#347));
#1159=EDGE_LOOP('',(#348,#349,#350,#351));
#1160=EDGE_LOOP('',(#352,#353,#354,#355,#356,#357));
#1161=EDGE_LOOP('',(#358,#359,#360,#361,#362,#363));
#1162=EDGE_LOOP('',(#364,#365,#366,#367));
#1163=EDGE_LOOP('',(#368,#369,#370,#371));
#1164=EDGE_LOOP('',(#372,#373,#374,#375));
#1165=EDGE_LOOP('',(#376,#377,#378,#379,#380,#381));
#1166=EDGE_LOOP('',(#382,#383,#384,#385,#386,#387));
#1167=EDGE_LOOP('',(#388,#389,#390,#391));
#1168=EDGE_LOOP('',(#392,#393,#394,#395));
#1169=EDGE_LOOP('',(#396,#397,#398,#399));
#1170=FACE_BOUND('',#1103,.T.);
#1171=FACE_BOUND('',#1104,.T.);
#1172=FACE_BOUND('',#1105,.T.);
#1173=FACE_BOUND('',#1106,.T.);
#1174=FACE_BOUND('',#1107,.T.);
#1175=FACE_BOUND('',#1108,.T.);
#1176=FACE_BOUND('',#1109,.T.);
#1177=FACE_BOUND('',#1110,.T.);
#1178=FACE_BOUND('',#1111,.T.);
#1179=FACE_BOUND('',#1112,.T.);
#1180=FACE_BOUND('',#1113,.T.);
#1181=FACE_BOUND('',#1114,.T.);
#1182=FACE_BOUND('',#1115,.T.);
#1183=FACE_BOUND('',#1116,.T.);
#1184=FACE_BOUND('',#1117,.T.);
#1185=FACE_BOUND('',#1118,.T.);
#1186=FACE_BOUND('',#1119,.T.);
#1187=FACE_BOUND('',#1120,.T.);
#1188=FACE_BOUND('',#1121,.T.);
#1189=FACE_BOUND('',#1122,.T.);
#1190=FACE_BOUND('',#1123,.T.);
#1191=FACE_BOUND('',#1124,.T.);
#1192=FACE_BOUND('',#1125,.T.);
#1193=FACE_BOUND('',#1126,.T.);
#1194=FACE_BOUND('',#1127,.T.);
#1195=FACE_BOUND('',#1128,.T.);
#1196=FACE_BOUND('',#1129,.T.);
#1197=FACE_BOUND('',#1130,.T.);
#1198=FACE_BOUND('',#1131,.T.);
#1199=FACE_BOUND('',#1132,.T.);
#1200=FACE_BOUND('',#1133,.T.);
#1201=FACE_BOUND('',#1134,.T.);
#1202=FACE_BOUND('',#1135,.T.);
#1203=FACE_BOUND('',#1136,.T.);
#1204=FACE_BOUND('',#1137,.T.);
#1205=FACE_BOUND('',#1138,.T.);
#1206=FACE_BOUND('',#1139,.T.);
#1207=FACE_BOUND('',#1140,.T.);
#1208=FACE_BOUND('',#1141,.T.);
#1209=FACE_BOUND('',#1142,.T.);
#1210=FACE_BOUND('',#1143,.T.);
#1211=FACE_BOUND('',#1144,.T.);
#1212=FACE_BOUND('',#1145,.T.);
#1213=FACE_BOUND('',#1146,.T.);
#1214=FACE_BOUND('',#1147,.T.);
#1215=FACE_BOUND('',#1148,.T.);
#1216=FACE_BOUND('',#1149,.T.);
#1217=FACE_BOUND('',#1150,.T.);
#1218=FACE_BOUND('',#1151,.T.);
#1219=FACE_BOUND('',#1152,.T.);
#1220=FACE_BOUND('',#1153,.T.);
#1221=FACE_BOUND('',#1154,.T.);
#1222=FACE_BOUND('',#1155,.T.);
#1223=FACE_BOUND('',#1156,.T.);
#1224=FACE_BOUND('',#1157,.T.);
#1225=FACE_BOUND('',#1158,.T.);
#1226=FACE_BOUND('',#1159,.T.);
#1227=FACE_BOUND('',#1160,.T.);
#1228=FACE_BOUND('',#1161,.T.);
#1229=FACE_BOUND('',#1162,.T.);
#1230=FACE_BOUND('',#1163,.T.);
#1231=FACE_BOUND('',#1164,.T.);
#1232=FACE_BOUND('',#1165,.T.);
#1233=FACE_BOUND('',#1166,.T.);
#1234=FACE_BOUND('',#1167,.T.);
#1235=FACE_BOUND('',#1168,.T.);
#1236=FACE_BOUND('',#1169,.T.);
#1237=PLANE('',#1396);
#1238=PLANE('',#1397);
#1239=PLANE('',#1398);
#1240=PLANE('',#1399);
#1241=PLANE('',#1400);
#1242=PLANE('',#1401);
#1243=PLANE('',#1403);
#1244=PLANE('',#1404);
#1245=PLANE('',#1405);
#1246=PLANE('',#1406);
#1247=PLANE('',#1407);
#1248=PLANE('',#1408);
#1249=PLANE('',#1409);
#1250=PLANE('',#1410);
#1251=PLANE('',#1411);
#1252=PLANE('',#1412);
#1253=PLANE('',#1413);
#1254=PLANE('',#1414);
#1255=PLANE('',#1415);
#1256=PLANE('',#1416);
#1257=PLANE('',#1417);
#1258=PLANE('',#1418);
#1259=PLANE('',#1419);
#1260=PLANE('',#1420);
#1261=PLANE('',#1421);
#1262=PLANE('',#1422);
#1263=PLANE('',#1423);
#1264=PLANE('',#1424);
#1265=PLANE('',#1425);
#1266=PLANE('',#1426);
#1267=PLANE('',#1427);
#1268=PLANE('',#1428);
#1269=PLANE('',#1429);
#1270=PLANE('',#1430);
#1271=PLANE('',#1431);
#1272=PLANE('',#1432);
#1273=PLANE('',#1433);
#1274=PLANE('',#1434);
#1275=PLANE('',#1435);
#1276=PLANE('',#1436);
#1277=PLANE('',#1437);
#1278=PLANE('',#1438);
#1279=PLANE('',#1439);
#1280=PLANE('',#1440);
#1281=PLANE('',#1441);
#1282=PLANE('',#1442);
#1283=PLANE('',#1443);
#1284=PLANE('',#1444);
#1285=PLANE('',#1445);
#1286=PLANE('',#1446);
#1287=PLANE('',#1447);
#1288=PLANE('',#1448);
#1289=PLANE('',#1449);
#1290=PLANE('',#1450);
#1291=PLANE('',#1451);
#1292=PLANE('',#1452);
#1293=PLANE('',#1453);
#1294=PLANE('',#1454);
#1295=PLANE('',#1455);
#1296=PLANE('',#1456);
#1297=PLANE('',#1457);
#1298=PLANE('',#1458);
#1299=PLANE('',#1459);
#1300=PLANE('',#1460);
#1301=PLANE('',#1461);
#1302=PLANE('',#1462);
#1303=PLANE('',#1463);
#1304=ADVANCED_FACE('',(#1170),#1237,.T.);
#1305=ADVANCED_FACE('',(#1171),#1238,.T.);
#1306=ADVANCED_FACE('',(#1172),#1239,.T.);
#1307=ADVANCED_FACE('',(#1173),#1240,.T.);
#1308=ADVANCED_FACE('',(#1174),#1241,.T.);
#1309=ADVANCED_FACE('',(#1175),#1242,.F.);
#1310=ADVANCED_FACE('',(#1176),#1243,.F.);
#1311=ADVANCED_FACE('',(#1177),#1244,.F.);
#1312=ADVANCED_FACE('',(#1178),#1245,.F.);
#1313=ADVANCED_FACE('',(#1179),#1246,.T.);
#1314=ADVANCED_FACE('',(#1180),#1247,.F.);
#1315=ADVANCED_FACE('',(#1181),#1248,.T.);
#1316=ADVANCED_FACE('',(#1182),#1249,.F.);
#1317=ADVANCED_FACE('',(#1183),#1250,.F.);
#1318=ADVANCED_FACE('',(#1184),#1251,.T.);
#1319=ADVANCED_FACE('',(#1185),#1252,.F.);
#1320=ADVANCED_FACE('',(#1186),#1253,.T.);
#1321=ADVANCED_FACE('',(#1187),#1254,.T.);
#1322=ADVANCED_FACE('',(#1188),#1255,.F.);
#1323=ADVANCED_FACE('',(#1189),#1256,.T.);
#1324=ADVANCED_FACE('',(#1190),#1257,.F.);
#1325=ADVANCED_FACE('',(#1191),#1258,.T.);
#1326=ADVANCED_FACE('',(#1192),#1259,.F.);
#1327=ADVANCED_FACE('',(#1193),#1260,.T.);
#1328=ADVANCED_FACE('',(#1194),#1261,.F.);
#1329=ADVANCED_FACE('',(#1195),#1262,.F.);
#1330=ADVANCED_FACE('',(#1196),#1263,.F.);
#1331=ADVANCED_FACE('',(#1197),#1264,.T.);
#1332=ADVANCED_FACE('',(#1198),#1265,.T.);
#1333=ADVANCED_FACE('',(#1199),#1266,.F.);
#1334=ADVANCED_FACE('',(#1200),#1267,.F.);
#1335=ADVANCED_FACE('',(#1201),#1268,.T.);
#1336=ADVANCED_FACE('',(#1202),#1269,.T.);
#1337=ADVANCED_FACE('',(#1203),#1270,.F.);
#1338=ADVANCED_FACE('',(#1204),#1271,.F.);
#1339=ADVANCED_FACE('',(#1205),#1272,.F.);
#1340=ADVANCED_FACE('',(#1206),#1273,.F.);
#1341=ADVANCED_FACE('',(#1207),#1274,.F.);
#1342=ADVANCED_FACE('',(#1208),#1275,.F.);
#1343=ADVANCED_FACE('',(#1209),#1276,.T.);
#1344=ADVANCED_FACE('',(#1210),#1277,.F.);
#1345=ADVANCED_FACE('',(#1211),#1278,.F.);
#1346=ADVANCED_FACE('',(#1212),#1279,.F.);
#1347=ADVANCED_FACE('',(#1213),#1280,.T.);
#1348=ADVANCED_FACE('',(#1214),#1281,.F.);
#1349=ADVANCED_FACE('',(#1215),#1282,.F.);
#1350=ADVANCED_FACE('',(#1216),#1283,.T.);
#1351=ADVANCED_FACE('',(#1217),#1284,.F.);
#1352=ADVANCED_FACE('',(#1218),#1285,.T.);
#1353=ADVANCED_FACE('',(#1219),#1286,.F.);
#1354=ADVANCED_FACE('',(#1220),#1287,.T.);
#1355=ADVANCED_FACE('',(#1221),#1288,.F.);
#1356=ADVANCED_FACE('',(#1222),#1289,.T.);
#1357=ADVANCED_FACE('',(#1223),#1290,.F.);
#1358=ADVANCED_FACE('',(#1224),#1291,.T.);
#1359=ADVANCED_FACE('',(#1225),#1292,.F.);
#1360=ADVANCED_FACE('',(#1226),#1293,.T.);
#1361=ADVANCED_FACE('',(#1227),#1294,.F.);
#1362=ADVANCED_FACE('',(#1228),#1295,.T.);
#1363=ADVANCED_FACE('',(#1229),#1296,.T.);
#1364=ADVANCED_FACE('',(#1230),#1297,.F.);
#1365=ADVANCED_FACE('',(#1231),#1298,.T.);
#1366=ADVANCED_FACE('',(#1232),#1299,.T.);
#1367=ADVANCED_FACE('',(#1233),#1300,.F.);
#1368=ADVANCED_FACE('',(#1234),#1301,.F.);
#1369=ADVANCED_FACE('',(#1235),#1302,.F.);
#1370=ADVANCED_FACE('',(#1236),#1303,.F.);
#1371=CLOSED_SHELL('',(#1304,#1305,#1306,#1307,#1308,#1309));
#1372=CLOSED_SHELL('',(#1310,#1311,#1312,#1313,#1314,#1315,#1316,#1317,
#1318,#1319,#1320,#1321,#1322,#1323,#1324,#1325,#1326,#1327,#1328,#1329,
#1330,#1331,#1332,#1333,#1334,#1335,#1336,#1337,#1338,#1339,#1340,#1341,
#1342,#1343,#1344,#1345,#1346,#1347,#1348,#1349,#1350,#1351,#1352,#1353,
#1354,#1355,#1356,#1357,#1358,#1359,#1360,#1361,#1362,#1363,#1364,#1365,
#1366,#1367,#1368,#1369,#1370));
#1373=STYLED_ITEM('',(#1375),#1389);
#1374=STYLED_ITEM('',(#1376),#1390);
#1375=PRESENTATION_STYLE_ASSIGNMENT((#1377));
#1376=PRESENTATION_STYLE_ASSIGNMENT((#1378));
#1377=SURFACE_STYLE_USAGE(.BOTH.,#1379);
#1378=SURFACE_STYLE_USAGE(.BOTH.,#1380);
#1379=SURFACE_SIDE_STYLE('',(#1381));
#1380=SURFACE_SIDE_STYLE('',(#1382));
#1381=SURFACE_STYLE_FILL_AREA(#1383);
#1382=SURFACE_STYLE_FILL_AREA(#1384);
#1383=FILL_AREA_STYLE('',(#1385));
#1384=FILL_AREA_STYLE('',(#1386));
#1385=FILL_AREA_STYLE_COLOUR('',#1387);
#1386=FILL_AREA_STYLE_COLOUR('',#1388);
#1387=COLOUR_RGB('',0.917647058823529,0.917647058823529,0.917647058823529);
#1388=COLOUR_RGB('',0.901960784313726,0.901960784313726,0.901960784313726);
#1389=MANIFOLD_SOLID_BREP('Part 1',#1371);
#1390=MANIFOLD_SOLID_BREP('Part 2',#1372);
#1391=SHAPE_DEFINITION_REPRESENTATION(#2193,#1393);
#1392=SHAPE_DEFINITION_REPRESENTATION(#2194,#1394);
#1393=SHAPE_REPRESENTATION('Part 1',(#1395),#2183);
#1394=SHAPE_REPRESENTATION('Part 2',(#1402),#2184);
#1395=AXIS2_PLACEMENT_3D('',#1795,#1464,#1465);
#1396=AXIS2_PLACEMENT_3D('',#1796,#1466,#1467);
#1397=AXIS2_PLACEMENT_3D('',#1805,#1472,#1473);
#1398=AXIS2_PLACEMENT_3D('',#1811,#1477,#1478);
#1399=AXIS2_PLACEMENT_3D('',#1817,#1482,#1483);
#1400=AXIS2_PLACEMENT_3D('',#1820,#1486,#1487);
#1401=AXIS2_PLACEMENT_3D('',#1821,#1488,#1489);
#1402=AXIS2_PLACEMENT_3D('',#1822,#1490,#1491);
#1403=AXIS2_PLACEMENT_3D('',#1823,#1492,#1493);
#1404=AXIS2_PLACEMENT_3D('',#1832,#1498,#1499);
#1405=AXIS2_PLACEMENT_3D('',#1841,#1504,#1505);
#1406=AXIS2_PLACEMENT_3D('',#1850,#1510,#1511);
#1407=AXIS2_PLACEMENT_3D('',#1859,#1516,#1517);
#1408=AXIS2_PLACEMENT_3D('',#1868,#1522,#1523);
#1409=AXIS2_PLACEMENT_3D('',#1877,#1528,#1529);
#1410=AXIS2_PLACEMENT_3D('',#1886,#1534,#1535);
#1411=AXIS2_PLACEMENT_3D('',#1903,#1544,#1545);
#1412=AXIS2_PLACEMENT_3D('',#1909,#1549,#1550);
#1413=AXIS2_PLACEMENT_3D('',#1923,#1558,#1559);
#1414=AXIS2_PLACEMENT_3D('',#1933,#1565,#1566);
#1415=AXIS2_PLACEMENT_3D('',#1942,#1571,#1572);
#1416=AXIS2_PLACEMENT_3D('',#1945,#1575,#1576);
#1417=AXIS2_PLACEMENT_3D('',#1951,#1580,#1581);
#1418=AXIS2_PLACEMENT_3D('',#1995,#1606,#1607);
#1419=AXIS2_PLACEMENT_3D('',#2038,#1632,#1633);
#1420=AXIS2_PLACEMENT_3D('',#2042,#1636,#1637);
#1421=AXIS2_PLACEMENT_3D('',#2045,#1640,#1641);
#1422=AXIS2_PLACEMENT_3D('',#2047,#1643,#1644);
#1423=AXIS2_PLACEMENT_3D('',#2051,#1647,#1648);
#1424=AXIS2_PLACEMENT_3D('',#2055,#1651,#1652);
#1425=AXIS2_PLACEMENT_3D('',#2058,#1655,#1656);
#1426=AXIS2_PLACEMENT_3D('',#2060,#1658,#1659);
#1427=AXIS2_PLACEMENT_3D('',#2064,#1662,#1663);
#1428=AXIS2_PLACEMENT_3D('',#2068,#1666,#1667);
#1429=AXIS2_PLACEMENT_3D('',#2071,#1670,#1671);
#1430=AXIS2_PLACEMENT_3D('',#2073,#1673,#1674);
#1431=AXIS2_PLACEMENT_3D('',#2077,#1677,#1678);
#1432=AXIS2_PLACEMENT_3D('',#2079,#1680,#1681);
#1433=AXIS2_PLACEMENT_3D('',#2083,#1684,#1685);
#1434=AXIS2_PLACEMENT_3D('',#2090,#1690,#1691);
#1435=AXIS2_PLACEMENT_3D('',#2092,#1693,#1694);
#1436=AXIS2_PLACEMENT_3D('',#2100,#1699,#1700);
#1437=AXIS2_PLACEMENT_3D('',#2104,#1703,#1704);
#1438=AXIS2_PLACEMENT_3D('',#2111,#1709,#1710);
#1439=AXIS2_PLACEMENT_3D('',#2113,#1712,#1713);
#1440=AXIS2_PLACEMENT_3D('',#2121,#1718,#1719);
#1441=AXIS2_PLACEMENT_3D('',#2125,#1722,#1723);
#1442=AXIS2_PLACEMENT_3D('',#2132,#1728,#1729);
#1443=AXIS2_PLACEMENT_3D('',#2133,#1730,#1731);
#1444=AXIS2_PLACEMENT_3D('',#2135,#1733,#1734);
#1445=AXIS2_PLACEMENT_3D('',#2138,#1737,#1738);
#1446=AXIS2_PLACEMENT_3D('',#2140,#1740,#1741);
#1447=AXIS2_PLACEMENT_3D('',#2142,#1743,#1744);
#1448=AXIS2_PLACEMENT_3D('',#2143,#1745,#1746);
#1449=AXIS2_PLACEMENT_3D('',#2146,#1749,#1750);
#1450=AXIS2_PLACEMENT_3D('',#2149,#1753,#1754);
#1451=AXIS2_PLACEMENT_3D('',#2150,#1755,#1756);
#1452=AXIS2_PLACEMENT_3D('',#2151,#1757,#1758);
#1453=AXIS2_PLACEMENT_3D('',#2154,#1761,#1762);
#1454=AXIS2_PLACEMENT_3D('',#2157,#1765,#1766);
#1455=AXIS2_PLACEMENT_3D('',#2158,#1767,#1768);
#1456=AXIS2_PLACEMENT_3D('',#2159,#1769,#1770);
#1457=AXIS2_PLACEMENT_3D('',#2162,#1773,#1774);
#1458=AXIS2_PLACEMENT_3D('',#2163,#1775,#1776);
#1459=AXIS2_PLACEMENT_3D('',#2164,#1777,#1778);
#1460=AXIS2_PLACEMENT_3D('',#2170,#1782,#1783);
#1461=AXIS2_PLACEMENT_3D('',#2176,#1787,#1788);
#1462=AXIS2_PLACEMENT_3D('',#2178,#1790,#1791);
#1463=AXIS2_PLACEMENT_3D('',#2180,#1793,#1794);
#1464=DIRECTION('',(0.,0.,1.));
#1465=DIRECTION('',(1.,0.,0.));
#1466=DIRECTION('',(0.,1.,0.));
#1467=DIRECTION('',(0.,0.,1.));
#1468=DIRECTION('',(1.,0.,0.));
#1469=DIRECTION('',(0.,0.,-1.));
#1470=DIRECTION('',(1.,0.,0.));
#1471=DIRECTION('',(0.,0.,-1.));
#1472=DIRECTION('',(-1.,0.,0.));
#1473=DIRECTION('',(0.,0.,1.));
#1474=DIRECTION('',(0.,1.,0.));
#1475=DIRECTION('',(0.,0.,-1.));
#1476=DIRECTION('',(0.,1.,0.));
#1477=DIRECTION('',(1.36592399683213E-15,-1.,0.));
#1478=DIRECTION('',(1.,1.36592399683213E-15,0.));
#1479=DIRECTION('',(-1.,-1.36592399683213E-15,0.));
#1480=DIRECTION('',(0.,0.,-1.));
#1481=DIRECTION('',(-1.,-1.36592399683213E-15,0.));
#1482=DIRECTION('',(1.,0.,0.));
#1483=DIRECTION('',(0.,0.,-1.));
#1484=DIRECTION('',(0.,-1.,0.));
#1485=DIRECTION('',(0.,-1.,0.));
#1486=DIRECTION('',(0.,0.,1.));
#1487=DIRECTION('',(1.,0.,0.));
#1488=DIRECTION('',(0.,0.,1.));
#1489=DIRECTION('',(1.,0.,0.));
#1490=DIRECTION('',(0.,0.,1.));
#1491=DIRECTION('',(1.,0.,0.));
#1492=DIRECTION('',(0.935941993439745,0.,-0.352154206159796));
#1493=DIRECTION('',(-0.352154206159796,0.,-0.935941993439745));
#1494=DIRECTION('',(-0.352154206159796,0.,-0.935941993439745));
#1495=DIRECTION('',(0.,-1.,0.));
#1496=DIRECTION('',(0.352154206159796,0.,0.935941993439745));
#1497=DIRECTION('',(0.,-1.,0.));
#1498=DIRECTION('',(0.,0.,1.));
#1499=DIRECTION('',(1.,0.,0.));
#1500=DIRECTION('',(-1.,0.,0.));
#1501=DIRECTION('',(0.,-1.,0.));
#1502=DIRECTION('',(-1.,0.,0.));
#1503=DIRECTION('',(0.,-1.,0.));
#1504=DIRECTION('',(0.935941993439745,0.,-0.352154206159796));
#1505=DIRECTION('',(-0.352154206159796,0.,-0.935941993439745));
#1506=DIRECTION('',(-0.352154206159796,-1.42800963807009E-16,-0.935941993439745));
#1507=DIRECTION('',(0.,-1.,0.));
#1508=DIRECTION('',(0.352154206159796,0.,0.935941993439745));
#1509=DIRECTION('',(0.,-1.,0.));
#1510=DIRECTION('',(0.,0.,1.));
#1511=DIRECTION('',(1.,0.,0.));
#1512=DIRECTION('',(0.,-1.,0.));
#1513=DIRECTION('',(-1.,-5.0287960048311E-17,0.));
#1514=DIRECTION('',(0.,-1.,0.));
#1515=DIRECTION('',(-1.,0.,0.));
#1516=DIRECTION('',(0.935941993439745,0.,-0.352154206159796));
#1517=DIRECTION('',(-0.352154206159796,0.,-0.935941993439745));
#1518=DIRECTION('',(-0.352154206159796,-1.42800963807009E-16,-0.935941993439745));
#1519=DIRECTION('',(0.,-1.,0.));
#1520=DIRECTION('',(0.352154206159796,0.,0.935941993439745));
#1521=DIRECTION('',(0.,-1.,0.));
#1522=DIRECTION('',(0.,0.,1.));
#1523=DIRECTION('',(1.,0.,0.));
#1524=DIRECTION('',(0.,-1.,0.));
#1525=DIRECTION('',(-1.,-5.02879600483111E-17,0.));
#1526=DIRECTION('',(0.,-1.,0.));
#1527=DIRECTION('',(-1.,0.,0.));
#1528=DIRECTION('',(0.935941993439745,0.,-0.352154206159796));
#1529=DIRECTION('',(-0.352154206159796,0.,-0.935941993439745));
#1530=DIRECTION('',(0.352154206159796,0.,0.935941993439745));
#1531=DIRECTION('',(0.,-1.,0.));
#1532=DIRECTION('',(0.352154206159796,0.,0.935941993439745));
#1533=DIRECTION('',(0.,-1.,0.));
#1534=DIRECTION('',(-1.,0.,-1.17384093477761E-16));
#1535=DIRECTION('',(-1.17384093477761E-16,0.,1.));
#1536=DIRECTION('',(-1.17384093477761E-16,0.,1.));
#1537=DIRECTION('',(0.,-1.,0.));
#1538=DIRECTION('',(-1.17384093477761E-16,0.,1.));
#1539=DIRECTION('',(0.,-1.,0.));
#1540=DIRECTION('',(1.17384093477761E-16,0.,-1.));
#1541=DIRECTION('',(0.,-1.,0.));
#1542=DIRECTION('',(1.17384093477761E-16,0.,-1.));
#1543=DIRECTION('',(0.,-1.,0.));
#1544=DIRECTION('',(0.,0.,1.));
#1545=DIRECTION('',(1.,0.,0.));
#1546=DIRECTION('',(0.,-1.,0.));
#1547=DIRECTION('',(1.,0.,0.));
#1548=DIRECTION('',(-1.,0.,0.));
#1549=DIRECTION('',(-0.935941993439745,0.,0.352154206159796));
#1550=DIRECTION('',(0.352154206159796,0.,0.935941993439745));
#1551=DIRECTION('',(0.352154206159796,0.,0.935941993439745));
#1552=DIRECTION('',(-0.352154206159796,0.,-0.935941993439745));
#1553=DIRECTION('',(0.,-1.,0.));
#1554=DIRECTION('',(-0.352154206159796,0.,-0.935941993439745));
#1555=DIRECTION('',(0.,-1.,0.));
#1556=DIRECTION('',(0.352154206159796,0.,0.935941993439745));
#1557=DIRECTION('',(0.,-1.,0.));
#1558=DIRECTION('',(0.,0.,-1.));
#1559=DIRECTION('',(-1.,0.,0.));
#1560=DIRECTION('',(1.,0.,0.));
#1561=DIRECTION('',(0.,-1.,0.));
#1562=DIRECTION('',(0.,-1.,0.));
#1563=DIRECTION('',(1.,0.,0.));
#1564=DIRECTION('',(0.,-1.,0.));
#1565=DIRECTION('',(0.,0.,1.));
#1566=DIRECTION('',(1.,0.,0.));
#1567=DIRECTION('',(-1.,0.,0.));
#1568=DIRECTION('',(0.,-1.,0.));
#1569=DIRECTION('',(-1.,0.,0.));
#1570=DIRECTION('',(0.,-1.,0.));
#1571=DIRECTION('',(1.,0.,2.4492935982947E-16));
#1572=DIRECTION('',(2.4492935982947E-16,0.,-1.));
#1573=DIRECTION('',(-2.4492935982947E-16,0.,1.));
#1574=DIRECTION('',(-2.4492935982947E-16,0.,1.));
#1575=DIRECTION('',(0.,0.,-1.));
#1576=DIRECTION('',(-1.,0.,0.));
#1577=DIRECTION('',(1.,0.,0.));
#1578=DIRECTION('',(0.,-1.,0.));
#1579=DIRECTION('',(1.,0.,0.));
#1580=DIRECTION('',(0.,-1.,0.));
#1581=DIRECTION('',(1.,0.,0.));
#1582=DIRECTION('',(0.,0.,-1.));
#1583=DIRECTION('',(-1.,0.,0.));
#1584=DIRECTION('',(0.,0.,-1.));
#1585=DIRECTION('',(-1.,0.,0.));
#1586=DIRECTION('',(-0.352154206159796,0.,-0.935941993439745));
#1587=DIRECTION('',(-1.,0.,0.));
#1588=DIRECTION('',(0.,0.,-1.));
#1589=DIRECTION('',(-1.,0.,0.));
#1590=DIRECTION('',(-0.352154206159796,0.,-0.935941993439745));
#1591=DIRECTION('',(-1.,0.,0.));
#1592=DIRECTION('',(0.,0.,-1.));
#1593=DIRECTION('',(-1.,0.,0.));
#1594=DIRECTION('',(-0.352154206159796,0.,-0.935941993439745));
#1595=DIRECTION('',(-1.,0.,0.));
#1596=DIRECTION('',(-1.,0.,0.));
#1597=DIRECTION('',(0.,0.,-1.));
#1598=DIRECTION('',(-1.,0.,0.));
#1599=DIRECTION('',(-1.,0.,-1.04259770030407E-15));
#1600=DIRECTION('',(0.,0.,-1.));
#1601=DIRECTION('',(-1.,0.,0.));
#1602=DIRECTION('',(-1.,0.,0.));
#1603=DIRECTION('',(-3.41480999208032E-16,0.,1.));
#1604=DIRECTION('',(-1.,0.,0.));
#1605=DIRECTION('',(0.352154206159796,0.,0.935941993439745));
#1606=DIRECTION('',(0.,-1.,0.));
#1607=DIRECTION('',(1.,0.,0.));
#1608=DIRECTION('',(0.,0.,-1.));
#1609=DIRECTION('',(1.,0.,0.));
#1610=DIRECTION('',(0.,0.,-1.));
#1611=DIRECTION('',(-1.,0.,0.));
#1612=DIRECTION('',(-3.41480999208032E-16,0.,1.));
#1613=DIRECTION('',(-1.,0.,0.));
#1614=DIRECTION('',(0.352154206159796,0.,0.935941993439745));
#1615=DIRECTION('',(-1.,0.,0.));
#1616=DIRECTION('',(0.,0.,-1.));
#1617=DIRECTION('',(-1.,0.,-1.04259770030407E-15));
#1618=DIRECTION('',(0.352154206159796,0.,0.935941993439745));
#1619=DIRECTION('',(-1.,0.,0.));
#1620=DIRECTION('',(0.,0.,-1.));
#1621=DIRECTION('',(-1.,0.,0.));
#1622=DIRECTION('',(0.352154206159796,0.,0.935941993439745));
#1623=DIRECTION('',(-0.352154206159796,0.,-0.935941993439745));
#1624=DIRECTION('',(-1.,0.,0.));
#1625=DIRECTION('',(0.,0.,-1.));
#1626=DIRECTION('',(-0.352154206159796,0.,-0.935941993439745));
#1627=DIRECTION('',(-1.,0.,0.));
#1628=DIRECTION('',(0.,0.,-1.));
#1629=DIRECTION('',(-0.352154206159796,0.,-0.935941993439745));
#1630=DIRECTION('',(-1.,0.,0.));
#1631=DIRECTION('',(-1.,0.,0.));
#1632=DIRECTION('',(0.935941993439745,0.,-0.352154206159796));
#1633=DIRECTION('',(-0.352154206159796,0.,-0.935941993439745));
#1634=DIRECTION('',(0.,-1.,0.));
#1635=DIRECTION('',(0.352154206159796,0.,0.935941993439745));
#1636=DIRECTION('',(0.,0.,1.));
#1637=DIRECTION('',(1.,0.,0.));
#1638=DIRECTION('',(0.,-1.,0.));
#1639=DIRECTION('',(0.,-1.,0.));
#1640=DIRECTION('',(1.,0.,3.41480999208032E-16));
#1641=DIRECTION('',(3.41480999208032E-16,0.,-1.));
#1642=DIRECTION('',(0.,-1.,0.));
#1643=DIRECTION('',(0.,0.,1.));
#1644=DIRECTION('',(1.,0.,0.));
#1645=DIRECTION('',(0.,-1.,0.));
#1646=DIRECTION('',(0.,-1.,0.));
#1647=DIRECTION('',(0.935941993439745,0.,-0.352154206159796));
#1648=DIRECTION('',(-0.352154206159796,0.,-0.935941993439745));
#1649=DIRECTION('',(-0.352154206159796,-1.42800963807009E-16,-0.935941993439745));
#1650=DIRECTION('',(0.,-1.,0.));
#1651=DIRECTION('',(0.,0.,1.));
#1652=DIRECTION('',(1.,0.,0.));
#1653=DIRECTION('',(0.,-1.,0.));
#1654=DIRECTION('',(0.,-1.,0.));
#1655=DIRECTION('',(-1.,0.,0.));
#1656=DIRECTION('',(0.,0.,1.));
#1657=DIRECTION('',(0.,-1.,0.));
#1658=DIRECTION('',(-1.04259770030407E-15,0.,1.));
#1659=DIRECTION('',(1.,0.,1.04259770030407E-15));
#1660=DIRECTION('',(0.,-1.,0.));
#1661=DIRECTION('',(0.,-1.,0.));
#1662=DIRECTION('',(0.935941993439745,0.,-0.352154206159796));
#1663=DIRECTION('',(-0.352154206159796,0.,-0.935941993439745));
#1664=DIRECTION('',(-0.352154206159796,-1.42800963807009E-16,-0.935941993439745));
#1665=DIRECTION('',(0.,-1.,0.));
#1666=DIRECTION('',(0.,0.,1.));
#1667=DIRECTION('',(1.,0.,0.));
#1668=DIRECTION('',(0.,-1.,0.));
#1669=DIRECTION('',(0.,-1.,0.));
#1670=DIRECTION('',(-1.,0.,0.));
#1671=DIRECTION('',(0.,0.,1.));
#1672=DIRECTION('',(0.,-1.,0.));
#1673=DIRECTION('',(0.,0.,1.));
#1674=DIRECTION('',(1.,0.,0.));
#1675=DIRECTION('',(0.,-1.,0.));
#1676=DIRECTION('',(0.,-1.,0.));
#1677=DIRECTION('',(0.935941993439745,0.,-0.352154206159796));
#1678=DIRECTION('',(-0.352154206159796,0.,-0.935941993439745));
#1679=DIRECTION('',(-0.352154206159796,0.,-0.935941993439745));
#1680=DIRECTION('',(0.,0.,1.));
#1681=DIRECTION('',(1.,0.,0.));
#1682=DIRECTION('',(0.,-1.,0.));
#1683=DIRECTION('',(-1.,0.,0.));
#1684=DIRECTION('',(-0.935941993439745,0.,0.352154206159796));
#1685=DIRECTION('',(0.352154206159796,0.,0.935941993439745));
#1686=DIRECTION('',(0.,-1.,0.));
#1687=DIRECTION('',(-0.352154206159796,0.,-0.935941993439745));
#1688=DIRECTION('',(0.,-1.,0.));
#1689=DIRECTION('',(-0.352154206159796,0.,-0.935941993439745));
#1690=DIRECTION('',(0.,0.,1.));
#1691=DIRECTION('',(1.,0.,0.));
#1692=DIRECTION('',(0.,-1.,0.));
#1693=DIRECTION('',(-1.,0.,0.));
#1694=DIRECTION('',(0.,0.,1.));
#1695=DIRECTION('',(0.,-1.,0.));
#1696=DIRECTION('',(0.,-1.33653418730649E-16,-1.));
#1697=DIRECTION('',(0.,-1.,0.));
#1698=DIRECTION('',(0.,-1.33653418730649E-16,-1.));
#1699=DIRECTION('',(0.,0.,1.));
#1700=DIRECTION('',(1.,0.,0.));
#1701=DIRECTION('',(-1.,-5.0287960048311E-17,0.));
#1702=DIRECTION('',(0.,-1.,0.));
#1703=DIRECTION('',(-0.935941993439745,0.,0.352154206159796));
#1704=DIRECTION('',(0.352154206159796,0.,0.935941993439745));
#1705=DIRECTION('',(0.,-1.,0.));
#1706=DIRECTION('',(-0.352154206159796,-1.42800963807009E-16,-0.935941993439745));
#1707=DIRECTION('',(0.,-1.,0.));
#1708=DIRECTION('',(-0.352154206159796,-1.42800963807009E-16,-0.935941993439745));
#1709=DIRECTION('',(0.,0.,1.));
#1710=DIRECTION('',(1.,0.,0.));
#1711=DIRECTION('',(0.,-1.,0.));
#1712=DIRECTION('',(-1.,0.,0.));
#1713=DIRECTION('',(0.,0.,1.));
#1714=DIRECTION('',(0.,-1.,0.));
#1715=DIRECTION('',(0.,-1.33653418730649E-16,-1.));
#1716=DIRECTION('',(0.,-1.,0.));
#1717=DIRECTION('',(0.,-1.33653418730649E-16,-1.));
#1718=DIRECTION('',(0.,0.,1.));
#1719=DIRECTION('',(1.,0.,0.));
#1720=DIRECTION('',(-1.,-5.02879600483111E-17,0.));
#1721=DIRECTION('',(0.,-1.,0.));
#1722=DIRECTION('',(-0.935941993439745,0.,0.352154206159796));
#1723=DIRECTION('',(0.352154206159796,0.,0.935941993439745));
#1724=DIRECTION('',(0.,-1.,0.));
#1725=DIRECTION('',(-0.352154206159796,-1.42800963807009E-16,-0.935941993439745));
#1726=DIRECTION('',(0.,-1.,0.));
#1727=DIRECTION('',(-0.352154206159796,-1.42800963807009E-16,-0.935941993439745));
#1728=DIRECTION('',(0.,0.,1.));
#1729=DIRECTION('',(1.,0.,0.));
#1730=DIRECTION('',(0.,0.,1.));
#1731=DIRECTION('',(1.,0.,0.));
#1732=DIRECTION('',(1.,0.,0.));
#1733=DIRECTION('',(-0.352154206159796,0.,-0.935941993439745));
#1734=DIRECTION('',(-0.935941993439745,0.,0.352154206159796));
#1735=DIRECTION('',(-0.935941993439745,0.,0.352154206159796));
#1736=DIRECTION('',(-0.935941993439745,0.,0.352154206159796));
#1737=DIRECTION('',(0.,-1.,0.));
#1738=DIRECTION('',(0.,0.,-1.));
#1739=DIRECTION('',(-0.935941993439745,0.,0.352154206159796));
#1740=DIRECTION('',(0.,-1.,0.));
#1741=DIRECTION('',(0.,0.,-1.));
#1742=DIRECTION('',(-0.935941993439745,0.,0.352154206159796));
#1743=DIRECTION('',(-0.352154206159796,0.,-0.935941993439745));
#1744=DIRECTION('',(-0.935941993439745,0.,0.352154206159796));
#1745=DIRECTION('',(-0.352154206159796,0.,-0.935941993439745));
#1746=DIRECTION('',(-0.935941993439745,0.,0.352154206159796));
#1747=DIRECTION('',(-0.935941993439745,0.,0.352154206159796));
#1748=DIRECTION('',(-0.935941993439745,0.,0.352154206159796));
#1749=DIRECTION('',(-0.352154206159796,0.,-0.935941993439745));
#1750=DIRECTION('',(-0.935941993439745,0.,0.352154206159796));
#1751=DIRECTION('',(-0.935941993439745,0.,0.352154206159796));
#1752=DIRECTION('',(-0.935941993439745,0.,0.352154206159796));
#1753=DIRECTION('',(-5.02879600483111E-17,1.,-1.33653418730649E-16));
#1754=DIRECTION('',(0.,1.33653418730649E-16,1.));
#1755=DIRECTION('',(-5.02879600483111E-17,1.,-1.33653418730649E-16));
#1756=DIRECTION('',(0.,1.33653418730649E-16,1.));
#1757=DIRECTION('',(-0.352154206159796,0.,-0.935941993439745));
#1758=DIRECTION('',(-0.935941993439745,0.,0.352154206159796));
#1759=DIRECTION('',(-0.935941993439745,0.,0.352154206159796));
#1760=DIRECTION('',(-0.935941993439745,0.,0.352154206159796));
#1761=DIRECTION('',(-0.352154206159796,0.,-0.935941993439745));
#1762=DIRECTION('',(-0.935941993439745,0.,0.352154206159796));
#1763=DIRECTION('',(-0.935941993439745,0.,0.352154206159796));
#1764=DIRECTION('',(-0.935941993439745,0.,0.352154206159796));
#1765=DIRECTION('',(-5.0287960048311E-17,1.,-1.33653418730649E-16));
#1766=DIRECTION('',(0.,1.33653418730649E-16,1.));
#1767=DIRECTION('',(-5.0287960048311E-17,1.,-1.33653418730649E-16));
#1768=DIRECTION('',(0.,1.33653418730649E-16,1.));
#1769=DIRECTION('',(-0.352154206159796,0.,-0.935941993439745));
#1770=DIRECTION('',(-0.935941993439745,0.,0.352154206159796));
#1771=DIRECTION('',(-0.935941993439745,0.,0.352154206159796));
#1772=DIRECTION('',(-0.935941993439745,0.,0.352154206159796));
#1773=DIRECTION('',(0.,1.,0.));
#1774=DIRECTION('',(0.,0.,1.));
#1775=DIRECTION('',(0.,1.,0.));
#1776=DIRECTION('',(0.,0.,1.));
#1777=DIRECTION('',(-1.,0.,0.));
#1778=DIRECTION('',(0.,0.,1.));
#1779=DIRECTION('',(0.,-1.,0.));
#1780=DIRECTION('',(0.,0.,-1.));
#1781=DIRECTION('',(0.,1.,0.));
#1782=DIRECTION('',(-1.,0.,0.));
#1783=DIRECTION('',(0.,0.,1.));
#1784=DIRECTION('',(0.,-1.,0.));
#1785=DIRECTION('',(0.,0.,-1.));
#1786=DIRECTION('',(0.,-1.,0.));
#1787=DIRECTION('',(0.,0.,1.));
#1788=DIRECTION('',(1.,0.,0.));
#1789=DIRECTION('',(-1.,0.,0.));
#1790=DIRECTION('',(0.,-1.,0.));
#1791=DIRECTION('',(0.,0.,-1.));
#1792=DIRECTION('',(-1.,0.,0.));
#1793=DIRECTION('',(0.,0.,1.));
#1794=DIRECTION('',(1.,0.,0.));
#1795=CARTESIAN_POINT('',(0.,0.,0.));
#1796=CARTESIAN_POINT('',(0.0263311310365649,0.0225634921605876,0.09779));
#1797=CARTESIAN_POINT('',(0.0263311310365649,0.0225634921605876,0.));
#1798=CARTESIAN_POINT('',(0.0250611310365649,0.0225634921605876,0.));
#1799=CARTESIAN_POINT('',(0.0276011310365649,0.0225634921605876,0.));
#1800=CARTESIAN_POINT('',(0.0250611310365649,0.0225634921605876,0.09779));
#1801=CARTESIAN_POINT('',(0.0250611310365649,0.0225634921605876,0.09779));
#1802=CARTESIAN_POINT('',(0.0263311310365649,0.0225634921605876,0.09779));
#1803=CARTESIAN_POINT('',(0.0276011310365649,0.0225634921605876,0.09779));
#1804=CARTESIAN_POINT('',(0.0276011310365649,0.0225634921605876,0.09779));
#1805=CARTESIAN_POINT('',(0.0250611310365649,0.0212934921605877,0.09779));
#1806=CARTESIAN_POINT('',(0.0250611310365649,0.0212934921605877,0.));
#1807=CARTESIAN_POINT('',(0.0250611310365649,0.0200234921605877,0.));
#1808=CARTESIAN_POINT('',(0.0250611310365649,0.0200234921605877,0.09779));
#1809=CARTESIAN_POINT('',(0.0250611310365649,0.0200234921605877,0.09779));
#1810=CARTESIAN_POINT('',(0.0250611310365649,0.0212934921605877,0.09779));
#1811=CARTESIAN_POINT('',(0.0263311310365649,0.0200234921605877,0.09779));
#1812=CARTESIAN_POINT('',(0.0263311310365649,0.0200234921605877,0.));
#1813=CARTESIAN_POINT('',(0.0276011310365649,0.0200234921605877,0.));
#1814=CARTESIAN_POINT('',(0.0276011310365649,0.0200234921605877,0.09779));
#1815=CARTESIAN_POINT('',(0.0276011310365649,0.0200234921605877,0.09779));
#1816=CARTESIAN_POINT('',(0.0263311310365649,0.0200234921605877,0.09779));
#1817=CARTESIAN_POINT('',(0.0276011310365649,0.0212934921605877,0.09779));
#1818=CARTESIAN_POINT('',(0.0276011310365649,0.0212934921605877,0.));
#1819=CARTESIAN_POINT('',(0.0276011310365649,0.0212934921605877,0.09779));
#1820=CARTESIAN_POINT('',(-0.0041488689634351,0.00351349216058763,0.09779));
#1821=CARTESIAN_POINT('',(-0.0041488689634351,0.00351349216058763,0.));
#1822=CARTESIAN_POINT('',(0.,0.,0.));
#1823=CARTESIAN_POINT('',(-0.0327247790090023,0.0225634921605876,0.008435975));
#1824=CARTESIAN_POINT('',(-0.0327247790090023,0.0200234921605877,0.008435975));
#1825=CARTESIAN_POINT('',(-0.0295506890545696,0.0200234921605877,0.01687195));
#1826=CARTESIAN_POINT('',(-0.0358988689634351,0.0200234921605877,-8.67361737988404E-19));
#1827=CARTESIAN_POINT('',(-0.0295506890545696,0.0225634921605876,0.01687195));
#1828=CARTESIAN_POINT('',(-0.0295506890545696,0.0225634921605876,0.01687195));
#1829=CARTESIAN_POINT('',(-0.0327247790090023,0.0225634921605876,0.008435975));
#1830=CARTESIAN_POINT('',(-0.0358988689634351,0.0225634921605876,0.));
#1831=CARTESIAN_POINT('',(-0.0358988689634351,0.0225634921605876,0.));
#1832=CARTESIAN_POINT('',(-0.0346288689634351,0.0225634921605876,0.));
#1833=CARTESIAN_POINT('',(-0.0346288689634351,-0.0129965078394124,0.));
#1834=CARTESIAN_POINT('',(-0.0333588689634351,-0.0129965078394124,1.7347234759768E-18));
#1835=CARTESIAN_POINT('',(-0.0358988689634351,-0.0129965078394124,-8.67361737988404E-19));
#1836=CARTESIAN_POINT('',(-0.0333588689634351,0.0225634921605876,0.));
#1837=CARTESIAN_POINT('',(-0.0333588689634351,-0.0155365078394124,0.));
#1838=CARTESIAN_POINT('',(-0.0346288689634351,-0.0155365078394124,0.));
#1839=CARTESIAN_POINT('',(-0.0358988689634351,-0.0155365078394124,0.));
#1840=CARTESIAN_POINT('',(-0.0358988689634351,0.0225634921605876,0.));
#1841=CARTESIAN_POINT('',(-0.023361392835557,0.0225634921605876,0.033321625));
#1842=CARTESIAN_POINT('',(-0.0233613928355571,0.0200234921605877,0.033321625));
#1843=CARTESIAN_POINT('',(-0.0190834793516189,0.0200234921605877,0.0446913));
#1844=CARTESIAN_POINT('',(-0.0276393063194952,0.0200234921605877,0.02195195));
#1845=CARTESIAN_POINT('',(-0.0190834793516189,0.0225634921605876,0.0446913));
#1846=CARTESIAN_POINT('',(-0.0190834793516189,0.0225634921605876,0.0446913));
#1847=CARTESIAN_POINT('',(-0.023361392835557,0.0225634921605876,0.033321625));
#1848=CARTESIAN_POINT('',(-0.0276393063194952,0.0225634921605876,0.02195195));
#1849=CARTESIAN_POINT('',(-0.0276393063194952,0.0225634921605876,0.02195195));
#1850=CARTESIAN_POINT('',(-0.0241490876414652,0.0225634921605876,0.02195195));
#1851=CARTESIAN_POINT('',(-0.0231988689634351,0.0225634921605876,0.02195195));
#1852=CARTESIAN_POINT('',(-0.0231988689634351,-0.0129965078394124,0.02195195));
#1853=CARTESIAN_POINT('',(-0.0231988689634351,-0.0155365078394124,0.02195195));
#1854=CARTESIAN_POINT('',(-0.0241490876414652,-0.0129965078394124,0.02195195));
#1855=CARTESIAN_POINT('',(-0.0250993063194952,-0.0129965078394124,0.02195195));
#1856=CARTESIAN_POINT('',(-0.0250993063194952,0.0225634921605876,0.02195195));
#1857=CARTESIAN_POINT('',(-0.0250993063194952,-0.0155365078394124,0.02195195));
#1858=CARTESIAN_POINT('',(-0.0241490876414652,-0.0155365078394124,0.02195195));
#1859=CARTESIAN_POINT('',(-0.0128941831326064,0.0225634921605876,0.061140975));
#1860=CARTESIAN_POINT('',(-0.0128941831326064,0.0200234921605877,0.061140975));
#1861=CARTESIAN_POINT('',(-0.00861626964866817,0.0200234921605877,0.07251065));
#1862=CARTESIAN_POINT('',(-0.0171720966165445,0.0200234921605877,0.0497713));
#1863=CARTESIAN_POINT('',(-0.00861626964866817,0.0225634921605876,0.07251065));
#1864=CARTESIAN_POINT('',(-0.00861626964866817,0.0225634921605876,0.07251065));
#1865=CARTESIAN_POINT('',(-0.0128941831326064,0.0225634921605876,0.061140975));
#1866=CARTESIAN_POINT('',(-0.0171720966165445,0.0225634921605876,0.0497713));
#1867=CARTESIAN_POINT('',(-0.0171720966165445,0.0225634921605876,0.0497713));
#1868=CARTESIAN_POINT('',(-0.0138354827899898,0.0225634921605876,0.0497713));
#1869=CARTESIAN_POINT('',(-0.0130388689634351,0.0225634921605876,0.0497713));
#1870=CARTESIAN_POINT('',(-0.0130388689634351,-0.0129965078394124,0.0497713));
#1871=CARTESIAN_POINT('',(-0.0130388689634351,-0.0155365078394124,0.0497713));
#1872=CARTESIAN_POINT('',(-0.0138354827899898,-0.0129965078394124,0.0497713));
#1873=CARTESIAN_POINT('',(-0.0146320966165445,-0.0129965078394124,0.0497713));
#1874=CARTESIAN_POINT('',(-0.0146320966165445,0.0225634921605876,0.0497713));
#1875=CARTESIAN_POINT('',(-0.0146320966165445,-0.0155365078394124,0.0497713));
#1876=CARTESIAN_POINT('',(-0.0138354827899898,-0.0155365078394124,0.0497713));
#1877=CARTESIAN_POINT('',(-0.00242697342965566,0.0225634921605876,0.088960325));
#1878=CARTESIAN_POINT('',(-0.00242697342965566,-0.0129965078394124,0.088960325));
#1879=CARTESIAN_POINT('',(-0.00670488691359385,-0.0129965078394123,0.07759065));
#1880=CARTESIAN_POINT('',(0.00185094005428254,-0.0129965078394124,0.10033));
#1881=CARTESIAN_POINT('',(-0.00670488691359385,0.0225634921605876,0.07759065));
#1882=CARTESIAN_POINT('',(-0.00670488691359385,-0.0155365078394124,0.07759065));
#1883=CARTESIAN_POINT('',(-0.00242697342965566,-0.0155365078394124,0.088960325));
#1884=CARTESIAN_POINT('',(0.00185094005428254,-0.0155365078394124,0.10033));
#1885=CARTESIAN_POINT('',(0.00185094005428254,0.0225634921605876,0.10033));
#1886=CARTESIAN_POINT('',(-0.000338868963435107,0.0225634921605876,0.07505065));
#1887=CARTESIAN_POINT('',(-0.000338868963435107,0.0200234921605877,0.07505065));
#1888=CARTESIAN_POINT('',(-0.000338868963435115,0.0200234921605877,0.0751953947241916));
#1889=CARTESIAN_POINT('',(-0.000338868963435107,0.0200234921605877,0.07759065));
#1890=CARTESIAN_POINT('',(-0.000338868963435107,0.0225634921605876,0.0751953947241916));
#1891=CARTESIAN_POINT('',(-0.000338868963435104,-0.0129965078394124,0.0751953947241916));
#1892=CARTESIAN_POINT('',(-0.000338868963435107,-0.0129965078394124,0.07505065));
#1893=CARTESIAN_POINT('',(-0.000338868963435107,-0.0129965078394124,0.07759065));
#1894=CARTESIAN_POINT('',(-0.000338868963435107,0.0225634921605876,0.07759065));
#1895=CARTESIAN_POINT('',(-0.000338868963435107,-0.0155365078394124,0.07759065));
#1896=CARTESIAN_POINT('',(-0.000338868963435107,-0.0155365078394124,0.07505065));
#1897=CARTESIAN_POINT('',(-0.000338868963435107,-0.0155365078394124,0.07251065));
#1898=CARTESIAN_POINT('',(-0.000338868963435107,0.0225634921605876,0.07251065));
#1899=CARTESIAN_POINT('',(-0.000338868963435107,0.0225634921605876,0.07251065));
#1900=CARTESIAN_POINT('',(-0.000338868963435107,0.0225634921605876,0.07505065));
#1901=CARTESIAN_POINT('',(-0.000338868963435107,0.0225634921605876,0.07759065));
#1902=CARTESIAN_POINT('',(-0.000338868963435107,0.0225634921605876,0.07759065));
#1903=CARTESIAN_POINT('',(-0.00225187793851448,0.0225634921605876,0.07759065));
#1904=CARTESIAN_POINT('',(-0.00416488691359385,0.0225634921605876,0.07759065));
#1905=CARTESIAN_POINT('',(-0.00416488691359385,0.0225634921605876,0.07759065));
#1906=CARTESIAN_POINT('',(-0.00416488691359385,0.0200234921605877,0.07759065));
#1907=CARTESIAN_POINT('',(-0.00225187793851448,0.0200234921605877,0.07759065));
#1908=CARTESIAN_POINT('',(-0.00225187793851448,0.0225634921605876,0.07759065));
#1909=CARTESIAN_POINT('',(0.000113026570344362,0.0225634921605876,0.088960325));
#1910=CARTESIAN_POINT('',(0.000113026570344362,0.0200234921605877,0.088960325));
#1911=CARTESIAN_POINT('',(0.00407594808859581,0.0200234921605877,0.0994928263893331));
#1912=CARTESIAN_POINT('',(0.000113026570344362,0.0225634921605876,0.088960325));
#1913=CARTESIAN_POINT('',(0.00439094005428254,0.0225634921605876,0.10033));
#1914=CARTESIAN_POINT('',(0.00439094005428254,0.0225634921605876,0.10033));
#1915=CARTESIAN_POINT('',(0.00439094005428254,-0.0155365078394124,0.10033));
#1916=CARTESIAN_POINT('',(0.000113026570344362,-0.0155365078394124,0.088960325));
#1917=CARTESIAN_POINT('',(-0.00416488691359385,-0.0155365078394124,0.07759065));
#1918=CARTESIAN_POINT('',(-0.00416488691359385,0.0225634921605876,0.07759065));
#1919=CARTESIAN_POINT('',(-0.00416488691359385,-0.0129965078394124,0.07759065));
#1920=CARTESIAN_POINT('',(0.000113026570344362,-0.0129965078394124,0.088960325));
#1921=CARTESIAN_POINT('',(0.0040759480885958,-0.0129965078394124,0.0994928263893331));
#1922=CARTESIAN_POINT('',(0.00407594808859581,0.0225634921605876,0.0994928263893331));
#1923=CARTESIAN_POINT('',(0.0125305655182824,0.0225634921605876,0.10033));
#1924=CARTESIAN_POINT('',(0.0125305655182824,0.0225634921605876,0.10033));
#1925=CARTESIAN_POINT('',(2.30967758302519E-19,0.0225634921605876,0.10033));
#1926=CARTESIAN_POINT('',(0.00185094005428254,0.0225634921605876,0.10033));
#1927=CARTESIAN_POINT('',(0.00185094005428254,0.0225634921605876,0.10033));
#1928=CARTESIAN_POINT('',(0.00185094005428254,0.0200234921605877,0.10033));
#1929=CARTESIAN_POINT('',(0.00185094005428254,0.0225634921605876,0.10033));
#1930=CARTESIAN_POINT('',(0.0125305655182824,-0.0155365078394124,0.10033));
#1931=CARTESIAN_POINT('',(2.30967758302519E-19,-0.0155365078394124,0.10033));
#1932=CARTESIAN_POINT('',(2.30967758302519E-19,0.0225634921605876,0.10033));
#1933=CARTESIAN_POINT('',(0.0193599138572479,0.0225634921605876,0.1016));
#1934=CARTESIAN_POINT('',(0.0193599138572479,-0.0155365078394124,0.1016));
#1935=CARTESIAN_POINT('',(0.0276011310365649,-0.0155365078394124,0.1016));
#1936=CARTESIAN_POINT('',(-8.00925286809099E-20,-0.0155365078394124,0.1016));
#1937=CARTESIAN_POINT('',(0.0276011310365649,0.0225634921605876,0.1016));
#1938=CARTESIAN_POINT('',(0.0276011310365649,0.0225634921605876,0.1016));
#1939=CARTESIAN_POINT('',(0.0193599138572479,0.0225634921605876,0.1016));
#1940=CARTESIAN_POINT('',(-8.00925286809099E-20,0.0225634921605876,0.1016));
#1941=CARTESIAN_POINT('',(-8.00925286809099E-20,0.0225634921605876,0.1016));
#1942=CARTESIAN_POINT('',(7.54376148108046E-20,0.0225634921605876,0.100965));
#1943=CARTESIAN_POINT('',(7.54376148108046E-20,-0.0155365078394124,0.100965));
#1944=CARTESIAN_POINT('',(7.54376148108046E-20,0.0225634921605876,0.100965));
#1945=CARTESIAN_POINT('',(0.0125305655182824,0.0225634921605876,0.10033));
#1946=CARTESIAN_POINT('',(0.0125305655182824,0.0225634921605876,0.10033));
#1947=CARTESIAN_POINT('',(0.0250611310365649,0.0225634921605876,0.10033));
#1948=CARTESIAN_POINT('',(0.0250611310365649,0.0225634921605876,0.10033));
#1949=CARTESIAN_POINT('',(0.0250611310365649,-0.0155365078394124,0.10033));
#1950=CARTESIAN_POINT('',(0.0125305655182824,-0.0155365078394124,0.10033));
#1951=CARTESIAN_POINT('',(0.0138005655182824,0.0225634921605876,0.0508));
#1952=CARTESIAN_POINT('',(0.0276011310365649,0.0225634921605876,0.1016));
#1953=CARTESIAN_POINT('',(0.0276011310365649,0.0225634921605876,0.0977989399027824));
#1954=CARTESIAN_POINT('',(0.0263311310365649,0.0225634921605876,0.0977989399027824));
#1955=CARTESIAN_POINT('',(0.0250611310365649,0.0225634921605876,0.0977989399027824));
#1956=CARTESIAN_POINT('',(0.0250611310365649,0.0225634921605876,0.1016));
#1957=CARTESIAN_POINT('',(-0.00320756930605163,0.0225634921605876,0.07251065));
#1958=CARTESIAN_POINT('',(-0.00607626964866816,0.0225634921605876,0.07251065));
#1959=CARTESIAN_POINT('',(-0.0103541831326064,0.0225634921605876,0.061140975));
#1960=CARTESIAN_POINT('',(-0.0146320966165445,0.0225634921605876,0.0497713));
#1961=CARTESIAN_POINT('',(-0.0138354827899898,0.0225634921605876,0.0497713));
#1962=CARTESIAN_POINT('',(-0.0130388689634351,0.0225634921605876,0.0497713));
#1963=CARTESIAN_POINT('',(-0.0130388689634351,0.0225634921605876,0.0472313));
#1964=CARTESIAN_POINT('',(-0.0130388689634351,0.0225634921605876,0.0446913));
#1965=CARTESIAN_POINT('',(-0.014791174157527,0.0225634921605876,0.0446913));
#1966=CARTESIAN_POINT('',(-0.0165434793516189,0.0225634921605876,0.0446913));
#1967=CARTESIAN_POINT('',(-0.0208213928355571,0.0225634921605876,0.033321625));
#1968=CARTESIAN_POINT('',(-0.0250993063194952,0.0225634921605876,0.02195195));
#1969=CARTESIAN_POINT('',(-0.0241490876414652,0.0225634921605876,0.02195195));
#1970=CARTESIAN_POINT('',(-0.0231988689634351,0.0225634921605876,0.02195195));
#1971=CARTESIAN_POINT('',(-0.0231988689634351,0.0225634921605876,0.01941195));
#1972=CARTESIAN_POINT('',(-0.0231988689634351,0.0225634921605876,0.01687195));
#1973=CARTESIAN_POINT('',(-0.0251047790090024,0.0225634921605876,0.01687195));
#1974=CARTESIAN_POINT('',(-0.0270106890545696,0.0225634921605876,0.01687195));
#1975=CARTESIAN_POINT('',(-0.0301847790090023,0.0225634921605876,0.008435975));
#1976=CARTESIAN_POINT('',(-0.0333588689634351,0.0225634921605876,0.));
#1977=CARTESIAN_POINT('',(-0.0346288689634351,0.0225634921605876,0.));
#1978=CARTESIAN_POINT('',(-0.0327247790090023,0.0225634921605876,0.01687195));
#1979=CARTESIAN_POINT('',(-0.0358988689634351,0.0225634921605876,0.01687195));
#1980=CARTESIAN_POINT('',(-0.0358988689634351,0.0225634921605876,0.01941195));
#1981=CARTESIAN_POINT('',(-0.0358988689634351,0.0225634921605876,0.02195195));
#1982=CARTESIAN_POINT('',(-0.0317690876414652,0.0225634921605876,0.02195195));
#1983=CARTESIAN_POINT('',(-0.022411174157527,0.0225634921605876,0.0446913));
#1984=CARTESIAN_POINT('',(-0.0257388689634351,0.0225634921605876,0.0446913));
#1985=CARTESIAN_POINT('',(-0.0257388689634351,0.0225634921605876,0.0472313));
#1986=CARTESIAN_POINT('',(-0.0257388689634351,0.0225634921605876,0.0497713));
#1987=CARTESIAN_POINT('',(-0.0214554827899898,0.0225634921605876,0.0497713));
#1988=CARTESIAN_POINT('',(-0.0108275693060516,0.0225634921605876,0.07251065));
#1989=CARTESIAN_POINT('',(-0.0130388689634351,0.0225634921605876,0.07251065));
#1990=CARTESIAN_POINT('',(-0.0130388689634351,0.0225634921605876,0.07505065));
#1991=CARTESIAN_POINT('',(-0.0130388689634351,0.0225634921605876,0.07759065));
#1992=CARTESIAN_POINT('',(-0.00987187793851448,0.0225634921605876,0.07759065));
#1993=CARTESIAN_POINT('',(-0.00670488691359385,0.0225634921605876,0.07759065));
#1994=CARTESIAN_POINT('',(-0.00242697342965566,0.0225634921605876,0.088960325));
#1995=CARTESIAN_POINT('',(0.0138005655182824,-0.0155365078394124,0.0508));
#1996=CARTESIAN_POINT('',(0.0250611310365649,-0.0155365078394124,0.1016));
#1997=CARTESIAN_POINT('',(0.0250611310365649,-0.0155365078394124,0.));
#1998=CARTESIAN_POINT('',(0.0263311310365649,-0.0155365078394124,0.));
#1999=CARTESIAN_POINT('',(0.0276011310365649,-0.0155365078394124,0.));
#2000=CARTESIAN_POINT('',(0.0276011310365649,-0.0155365078394124,0.1016));
#2001=CARTESIAN_POINT('',(-0.00987187793851448,-0.0155365078394124,0.07759065));
#2002=CARTESIAN_POINT('',(-0.0130388689634351,-0.0155365078394124,0.07759065));
#2003=CARTESIAN_POINT('',(-0.0130388689634351,-0.0155365078394124,0.07505065));
#2004=CARTESIAN_POINT('',(-0.0130388689634351,-0.0155365078394124,0.07251065));
#2005=CARTESIAN_POINT('',(-0.0108275693060516,-0.0155365078394124,0.07251065));
#2006=CARTESIAN_POINT('',(-0.00861626964866817,-0.0155365078394124,0.07251065));
#2007=CARTESIAN_POINT('',(-0.0128941831326064,-0.0155365078394124,0.061140975));
#2008=CARTESIAN_POINT('',(-0.0171720966165445,-0.0155365078394124,0.0497713));
#2009=CARTESIAN_POINT('',(-0.0214554827899898,-0.0155365078394124,0.0497713));
#2010=CARTESIAN_POINT('',(-0.0257388689634351,-0.0155365078394124,0.0497713));
#2011=CARTESIAN_POINT('',(-0.0257388689634351,-0.0155365078394124,0.0472313));
#2012=CARTESIAN_POINT('',(-0.0257388689634351,-0.0155365078394124,0.0446913));
#2013=CARTESIAN_POINT('',(-0.022411174157527,-0.0155365078394124,0.0446913));
#2014=CARTESIAN_POINT('',(-0.0190834793516189,-0.0155365078394124,0.0446913));
#2015=CARTESIAN_POINT('',(-0.023361392835557,-0.0155365078394124,0.033321625));
#2016=CARTESIAN_POINT('',(-0.0276393063194952,-0.0155365078394124,0.02195195));
#2017=CARTESIAN_POINT('',(-0.0317690876414652,-0.0155365078394124,0.02195195));
#2018=CARTESIAN_POINT('',(-0.0358988689634351,-0.0155365078394124,0.02195195));
#2019=CARTESIAN_POINT('',(-0.0358988689634351,-0.0155365078394124,0.01941195));
#2020=CARTESIAN_POINT('',(-0.0358988689634351,-0.0155365078394124,0.01687195));
#2021=CARTESIAN_POINT('',(-0.0327247790090023,-0.0155365078394124,0.01687195));
#2022=CARTESIAN_POINT('',(-0.0295506890545696,-0.0155365078394124,0.01687195));
#2023=CARTESIAN_POINT('',(-0.0327247790090023,-0.0155365078394124,0.008435975));
#2024=CARTESIAN_POINT('',(-0.0301847790090023,-0.0155365078394124,0.008435975));
#2025=CARTESIAN_POINT('',(-0.0270106890545696,-0.0155365078394124,0.01687195));
#2026=CARTESIAN_POINT('',(-0.0251047790090024,-0.0155365078394124,0.01687195));
#2027=CARTESIAN_POINT('',(-0.0231988689634351,-0.0155365078394124,0.01687195));
#2028=CARTESIAN_POINT('',(-0.0231988689634351,-0.0155365078394124,0.01941195));
#2029=CARTESIAN_POINT('',(-0.0208213928355571,-0.0155365078394124,0.033321625));
#2030=CARTESIAN_POINT('',(-0.0165434793516189,-0.0155365078394124,0.0446913));
#2031=CARTESIAN_POINT('',(-0.014791174157527,-0.0155365078394124,0.0446913));
#2032=CARTESIAN_POINT('',(-0.0130388689634351,-0.0155365078394124,0.0446913));
#2033=CARTESIAN_POINT('',(-0.0130388689634351,-0.0155365078394124,0.0472313));
#2034=CARTESIAN_POINT('',(-0.0103541831326064,-0.0155365078394124,0.061140975));
#2035=CARTESIAN_POINT('',(-0.00607626964866816,-0.0155365078394124,0.07251065));
#2036=CARTESIAN_POINT('',(-0.00320756930605163,-0.0155365078394124,0.07251065));
#2037=CARTESIAN_POINT('',(-0.00225187793851448,-0.0155365078394124,0.07759065));
#2038=CARTESIAN_POINT('',(-0.00242697342965566,0.0225634921605876,0.088960325));
#2039=CARTESIAN_POINT('',(-0.00670488691359385,0.0225634921605876,0.07759065));
#2040=CARTESIAN_POINT('',(-0.00670488691359385,0.0200234921605877,0.07759065));
#2041=CARTESIAN_POINT('',(-0.00242697342965566,0.0200234921605877,0.088960325));
#2042=CARTESIAN_POINT('',(-0.00987187793851448,0.0225634921605876,0.07759065));
#2043=CARTESIAN_POINT('',(-0.00670488691359385,0.0225634921605876,0.07759065));
#2044=CARTESIAN_POINT('',(-0.0130388689634351,0.0225634921605876,0.07759065));
#2045=CARTESIAN_POINT('',(-0.0130388689634351,0.0225634921605876,0.07505065));
#2046=CARTESIAN_POINT('',(-0.0130388689634351,0.0225634921605876,0.07251065));
#2047=CARTESIAN_POINT('',(-0.0108275693060516,0.0225634921605876,0.07251065));
#2048=CARTESIAN_POINT('',(-0.00861626964866817,0.0225634921605876,0.07251065));
#2049=CARTESIAN_POINT('',(-0.00861626964866817,-0.0129965078394124,0.07251065));
#2050=CARTESIAN_POINT('',(-0.00861626964866817,0.0225634921605876,0.07251065));
#2051=CARTESIAN_POINT('',(-0.0128941831326064,0.0225634921605876,0.061140975));
#2052=CARTESIAN_POINT('',(-0.0128941831326064,-0.0129965078394124,0.061140975));
#2053=CARTESIAN_POINT('',(-0.0171720966165445,-0.0129965078394124,0.0497713));
#2054=CARTESIAN_POINT('',(-0.0171720966165445,0.0225634921605876,0.0497713));
#2055=CARTESIAN_POINT('',(-0.0214554827899898,0.0225634921605876,0.0497713));
#2056=CARTESIAN_POINT('',(-0.0171720966165445,0.0225634921605876,0.0497713));
#2057=CARTESIAN_POINT('',(-0.0257388689634351,0.0225634921605876,0.0497713));
#2058=CARTESIAN_POINT('',(-0.0257388689634351,0.0225634921605876,0.0472313));
#2059=CARTESIAN_POINT('',(-0.0257388689634351,0.0225634921605876,0.0446913));
#2060=CARTESIAN_POINT('',(-0.022411174157527,0.0225634921605876,0.0446913));
#2061=CARTESIAN_POINT('',(-0.0190834793516189,0.0225634921605876,0.0446913));
#2062=CARTESIAN_POINT('',(-0.0190834793516189,-0.0129965078394124,0.0446913));
#2063=CARTESIAN_POINT('',(-0.0190834793516189,0.0225634921605876,0.0446913));
#2064=CARTESIAN_POINT('',(-0.023361392835557,0.0225634921605876,0.033321625));
#2065=CARTESIAN_POINT('',(-0.023361392835557,-0.0129965078394124,0.033321625));
#2066=CARTESIAN_POINT('',(-0.0276393063194952,-0.0129965078394124,0.02195195));
#2067=CARTESIAN_POINT('',(-0.0276393063194952,0.0225634921605876,0.02195195));
#2068=CARTESIAN_POINT('',(-0.0317690876414652,0.0225634921605876,0.02195195));
#2069=CARTESIAN_POINT('',(-0.0276393063194952,0.0225634921605876,0.02195195));
#2070=CARTESIAN_POINT('',(-0.0358988689634351,0.0225634921605876,0.02195195));
#2071=CARTESIAN_POINT('',(-0.0358988689634351,0.0225634921605876,0.01941195));
#2072=CARTESIAN_POINT('',(-0.0358988689634351,0.0225634921605876,0.01687195));
#2073=CARTESIAN_POINT('',(-0.0327247790090023,0.0225634921605876,0.01687195));
#2074=CARTESIAN_POINT('',(-0.0295506890545696,0.0225634921605876,0.01687195));
#2075=CARTESIAN_POINT('',(-0.0295506890545696,-0.0129965078394124,0.01687195));
#2076=CARTESIAN_POINT('',(-0.0295506890545696,0.0225634921605876,0.01687195));
#2077=CARTESIAN_POINT('',(-0.0327247790090023,0.0225634921605876,0.008435975));
#2078=CARTESIAN_POINT('',(-0.0327247790090023,-0.0129965078394124,0.008435975));
#2079=CARTESIAN_POINT('',(-0.0346288689634351,0.0225634921605876,0.));
#2080=CARTESIAN_POINT('',(-0.0333588689634351,0.0225634921605876,0.));
#2081=CARTESIAN_POINT('',(-0.0333588689634351,0.0200234921605877,1.7347234759768E-18));
#2082=CARTESIAN_POINT('',(-0.0346288689634351,0.0200234921605877,0.));
#2083=CARTESIAN_POINT('',(-0.0301847790090023,0.0225634921605876,0.008435975));
#2084=CARTESIAN_POINT('',(-0.0273256810202563,0.0225634921605876,0.0160347763893331));
#2085=CARTESIAN_POINT('',(-0.0273256810202563,0.0200234921605877,0.0160347763893331));
#2086=CARTESIAN_POINT('',(-0.0273256810202563,-0.0129965078394124,0.0160347763893331));
#2087=CARTESIAN_POINT('',(-0.0301847790090023,0.0200234921605877,0.008435975));
#2088=CARTESIAN_POINT('',(-0.0270106890545696,0.0225634921605876,0.01687195));
#2089=CARTESIAN_POINT('',(-0.0301847790090023,-0.0129965078394124,0.008435975));
#2090=CARTESIAN_POINT('',(-0.0251047790090024,0.0225634921605876,0.01687195));
#2091=CARTESIAN_POINT('',(-0.0231988689634351,0.0225634921605876,0.01687195));
#2092=CARTESIAN_POINT('',(-0.0231988689634351,0.0225634921605876,0.01941195));
#2093=CARTESIAN_POINT('',(-0.0231988689634351,0.0225634921605876,0.02195195));
#2094=CARTESIAN_POINT('',(-0.0231988689634351,0.0200234921605877,0.02195195));
#2095=CARTESIAN_POINT('',(-0.0231988689634351,0.0200234921605877,0.01941195));
#2096=CARTESIAN_POINT('',(-0.0231988689634351,0.0200234921605877,0.0202812068309936));
#2097=CARTESIAN_POINT('',(-0.0231988689634351,0.0225634921605876,0.0202812068309935));
#2098=CARTESIAN_POINT('',(-0.0231988689634351,-0.0129965078394124,0.0202812068309935));
#2099=CARTESIAN_POINT('',(-0.0231988689634351,-0.0129965078394124,0.01941195));
#2100=CARTESIAN_POINT('',(-0.0241490876414652,0.0225634921605876,0.02195195));
#2101=CARTESIAN_POINT('',(-0.0241490876414652,0.0200234921605877,0.02195195));
#2102=CARTESIAN_POINT('',(-0.0250993063194952,0.0200234921605877,0.02195195));
#2103=CARTESIAN_POINT('',(-0.0250993063194952,0.0225634921605876,0.02195195));
#2104=CARTESIAN_POINT('',(-0.0208213928355571,0.0225634921605876,0.033321625));
#2105=CARTESIAN_POINT('',(-0.0168584713173056,0.0225634921605876,0.043854126389333));
#2106=CARTESIAN_POINT('',(-0.0168584713173056,0.0200234921605877,0.043854126389333));
#2107=CARTESIAN_POINT('',(-0.0168584713173056,-0.0129965078394124,0.043854126389333));
#2108=CARTESIAN_POINT('',(-0.0208213928355571,0.0200234921605877,0.033321625));
#2109=CARTESIAN_POINT('',(-0.0165434793516189,0.0225634921605876,0.0446913));
#2110=CARTESIAN_POINT('',(-0.0208213928355571,-0.0129965078394124,0.033321625));
#2111=CARTESIAN_POINT('',(-0.014791174157527,0.0225634921605876,0.0446913));
#2112=CARTESIAN_POINT('',(-0.0130388689634351,0.0225634921605876,0.0446913));
#2113=CARTESIAN_POINT('',(-0.0130388689634351,0.0225634921605876,0.0472313));
#2114=CARTESIAN_POINT('',(-0.0130388689634351,0.0225634921605876,0.0497713));
#2115=CARTESIAN_POINT('',(-0.0130388689634351,0.0200234921605877,0.0497713));
#2116=CARTESIAN_POINT('',(-0.0130388689634351,0.0200234921605877,0.0472313));
#2117=CARTESIAN_POINT('',(-0.0130388689634351,0.0200234921605877,0.0482161464613612));
#2118=CARTESIAN_POINT('',(-0.0130388689634351,0.0225634921605876,0.0482161464613612));
#2119=CARTESIAN_POINT('',(-0.0130388689634351,-0.0129965078394124,0.0482161464613612));
#2120=CARTESIAN_POINT('',(-0.0130388689634351,-0.0129965078394124,0.0472313));
#2121=CARTESIAN_POINT('',(-0.0138354827899898,0.0225634921605876,0.0497713));
#2122=CARTESIAN_POINT('',(-0.0138354827899898,0.0200234921605877,0.0497713));
#2123=CARTESIAN_POINT('',(-0.0146320966165445,0.0200234921605877,0.0497713));
#2124=CARTESIAN_POINT('',(-0.0146320966165445,0.0225634921605876,0.0497713));
#2125=CARTESIAN_POINT('',(-0.0103541831326064,0.0225634921605876,0.061140975));
#2126=CARTESIAN_POINT('',(-0.0063912616143549,0.0225634921605876,0.071673476389333));
#2127=CARTESIAN_POINT('',(-0.00639126161435488,0.0200234921605877,0.071673476389333));
#2128=CARTESIAN_POINT('',(-0.00639126161435488,-0.0129965078394124,0.071673476389333));
#2129=CARTESIAN_POINT('',(-0.0103541831326064,0.0200234921605877,0.061140975));
#2130=CARTESIAN_POINT('',(-0.00607626964866816,0.0225634921605876,0.07251065));
#2131=CARTESIAN_POINT('',(-0.0103541831326063,-0.0129965078394124,0.061140975));
#2132=CARTESIAN_POINT('',(-0.00320756930605163,0.0225634921605876,0.07251065));
#2133=CARTESIAN_POINT('',(-0.00225187793851448,0.0225634921605876,0.07759065));
#2134=CARTESIAN_POINT('',(-0.00225187793851448,-0.0129965078394124,0.07759065));
#2135=CARTESIAN_POINT('',(0.110974455924082,0.0225634921605876,0.0333130389419638));
#2136=CARTESIAN_POINT('',(0.110974455924082,0.0200234921605877,0.0333130389419638));
#2137=CARTESIAN_POINT('',(0.110974455924082,-0.0129965078394124,0.0333130389419638));
#2138=CARTESIAN_POINT('',(0.11525236940802,0.0200234921605877,0.0446827139419638));
#2139=CARTESIAN_POINT('',(0.119530282891958,0.0200234921605877,0.0560523889419638));
#2140=CARTESIAN_POINT('',(0.11525236940802,-0.0129965078394124,0.0446827139419638));
#2141=CARTESIAN_POINT('',(0.119530282891958,-0.0129965078394124,0.0560523889419638));
#2142=CARTESIAN_POINT('',(0.119530282891958,0.0225634921605876,0.0560523889419638));
#2143=CARTESIAN_POINT('',(0.100507246221131,0.0225634921605876,0.00549368894196377));
#2144=CARTESIAN_POINT('',(0.100507246221131,0.0200234921605877,0.00549368894196377));
#2145=CARTESIAN_POINT('',(0.100507246221131,-0.0129965078394124,0.00549368894196377));
#2146=CARTESIAN_POINT('',(0.109063073189007,0.0225634921605876,0.0282330389419638));
#2147=CARTESIAN_POINT('',(0.109063073189007,-0.0129965078394124,0.0282330389419638));
#2148=CARTESIAN_POINT('',(0.109063073189007,0.0200234921605877,0.0282330389419638));
#2149=CARTESIAN_POINT('',(0.104785159705069,0.0200234921605877,0.0168633639419638));
#2150=CARTESIAN_POINT('',(0.104785159705069,-0.0129965078394124,0.0168633639419638));
#2151=CARTESIAN_POINT('',(0.0900400365181803,0.0225634921605876,-0.0223256610580362));
#2152=CARTESIAN_POINT('',(0.0900400365181803,0.0200234921605877,-0.0223256610580362));
#2153=CARTESIAN_POINT('',(0.0900400365181803,-0.0129965078394124,-0.0223256610580362));
#2154=CARTESIAN_POINT('',(0.0985958634860567,0.0225634921605876,0.000413688941963787));
#2155=CARTESIAN_POINT('',(0.0985958634860567,-0.0129965078394124,0.000413688941963787));
#2156=CARTESIAN_POINT('',(0.0985958634860567,0.0200234921605877,0.000413688941963787));
#2157=CARTESIAN_POINT('',(0.0943179500021185,0.0200234921605877,-0.0109559860580362));
#2158=CARTESIAN_POINT('',(0.0943179500021185,-0.0129965078394124,-0.0109559860580362));
#2159=CARTESIAN_POINT('',(-0.00577776242120003,0.0225634921605876,0.00792723316354116));
#2160=CARTESIAN_POINT('',(-0.00577776242120003,-0.0129965078394124,0.00792723316354116));
#2161=CARTESIAN_POINT('',(-0.00577776242120003,0.0200234921605877,0.00792723316354116));
#2162=CARTESIAN_POINT('',(-0.00895185237563281,0.0200234921605877,-0.000508741836458831));
#2163=CARTESIAN_POINT('',(-0.00895185237563281,-0.0129965078394124,-0.000508741836458831));
#2164=CARTESIAN_POINT('',(0.0250611310365649,0.0225634921605876,0.1016));
#2165=CARTESIAN_POINT('',(0.0250611310365649,0.0225634921605876,0.0977989399027824));
#2166=CARTESIAN_POINT('',(0.0250611310365649,-0.0129965078394124,0.0977989399027824));
#2167=CARTESIAN_POINT('',(0.0250611310365649,-0.0129965078394124,0.1016));
#2168=CARTESIAN_POINT('',(0.0250611310365649,-0.0129965078394124,0.));
#2169=CARTESIAN_POINT('',(0.0250611310365649,-0.0142665078394124,0.));
#2170=CARTESIAN_POINT('',(0.0276011310365649,0.0225634921605876,0.1016));
#2171=CARTESIAN_POINT('',(0.0276011310365649,-0.0142665078394124,0.));
#2172=CARTESIAN_POINT('',(0.0276011310365649,-0.0129965078394124,0.));
#2173=CARTESIAN_POINT('',(0.0276011310365649,-0.0129965078394124,0.1016));
#2174=CARTESIAN_POINT('',(0.0276011310365649,-0.0129965078394124,0.0977989399027824));
#2175=CARTESIAN_POINT('',(0.0276011310365649,0.0225634921605876,0.0977989399027824));
#2176=CARTESIAN_POINT('',(0.0263311310365649,0.0225634921605876,0.0977989399027824));
#2177=CARTESIAN_POINT('',(0.0263311310365649,-0.0129965078394124,0.0977989399027824));
#2178=CARTESIAN_POINT('',(0.0263311310365649,-0.0129965078394124,0.1016));
#2179=CARTESIAN_POINT('',(0.0263311310365649,-0.0129965078394124,0.));
#2180=CARTESIAN_POINT('',(-0.0041488689634351,0.00351349216058763,0.));
#2181=MECHANICAL_DESIGN_GEOMETRIC_PRESENTATION_REPRESENTATION('',(#1373),
#2183);
#2182=MECHANICAL_DESIGN_GEOMETRIC_PRESENTATION_REPRESENTATION('',(#1374),
#2184);
#2183=(
GEOMETRIC_REPRESENTATION_CONTEXT(3)
GLOBAL_UNCERTAINTY_ASSIGNED_CONTEXT((#2185))
GLOBAL_UNIT_ASSIGNED_CONTEXT((#2191,#2189,#2187))
REPRESENTATION_CONTEXT('Part 1','TOP_LEVEL_ASSEMBLY_PART')
);
#2184=(
GEOMETRIC_REPRESENTATION_CONTEXT(3)
GLOBAL_UNCERTAINTY_ASSIGNED_CONTEXT((#2186))
GLOBAL_UNIT_ASSIGNED_CONTEXT((#2192,#2190,#2188))
REPRESENTATION_CONTEXT('Part 2','TOP_LEVEL_ASSEMBLY_PART')
);
#2185=UNCERTAINTY_MEASURE_WITH_UNIT(LENGTH_MEASURE(1.E-8),#2191,
'DISTANCE_ACCURACY_VALUE','Maximum Tolerance applied to model');
#2186=UNCERTAINTY_MEASURE_WITH_UNIT(LENGTH_MEASURE(1.E-8),#2192,
'DISTANCE_ACCURACY_VALUE','Maximum Tolerance applied to model');
#2187=(
NAMED_UNIT(*)
SI_UNIT($,.STERADIAN.)
SOLID_ANGLE_UNIT()
);
#2188=(
NAMED_UNIT(*)
SI_UNIT($,.STERADIAN.)
SOLID_ANGLE_UNIT()
);
#2189=(
NAMED_UNIT(*)
PLANE_ANGLE_UNIT()
SI_UNIT($,.RADIAN.)
);
#2190=(
NAMED_UNIT(*)
PLANE_ANGLE_UNIT()
SI_UNIT($,.RADIAN.)
);
#2191=(
LENGTH_UNIT()
NAMED_UNIT(*)
SI_UNIT($,.METRE.)
);
#2192=(
LENGTH_UNIT()
NAMED_UNIT(*)
SI_UNIT($,.METRE.)
);
#2193=PRODUCT_DEFINITION_SHAPE('','',#2195);
#2194=PRODUCT_DEFINITION_SHAPE('','',#2196);
#2195=PRODUCT_DEFINITION('','',#2199,#2197);
#2196=PRODUCT_DEFINITION('','',#2200,#2198);
#2197=PRODUCT_DEFINITION_CONTEXT('',#2211,'design');
#2198=PRODUCT_DEFINITION_CONTEXT('',#2212,'design');
#2199=PRODUCT_DEFINITION_FORMATION_WITH_SPECIFIED_SOURCE('','',#2203,
 .NOT_KNOWN.);
#2200=PRODUCT_DEFINITION_FORMATION_WITH_SPECIFIED_SOURCE('','',#2204,
 .NOT_KNOWN.);
#2201=PRODUCT_RELATED_PRODUCT_CATEGORY('','',(#2203));
#2202=PRODUCT_RELATED_PRODUCT_CATEGORY('','',(#2204));
#2203=PRODUCT('Part 1','Part 1','Part 1',(#2207));
#2204=PRODUCT('Part 2','Part 2','Part 2',(#2208));
#2205=PRODUCT_CATEGORY('','');
#2206=PRODUCT_CATEGORY('','');
#2207=PRODUCT_CONTEXT('',#2211,'mechanical');
#2208=PRODUCT_CONTEXT('',#2212,'mechanical');
#2209=APPLICATION_PROTOCOL_DEFINITION('international standard',
'ap242_managed_model_based_3d_engineering',2020,#2211);
#2210=APPLICATION_PROTOCOL_DEFINITION('international standard',
'ap242_managed_model_based_3d_engineering',2020,#2212);
#2211=APPLICATION_CONTEXT('managed model based 3d engineering');
#2212=APPLICATION_CONTEXT('managed model based 3d engineering');
ENDSEC;
END-ISO-10303-21;
