ISO-10303-21;
HEADER;
/* Generated by software containing ST-Developer
 * from STEP Tools, Inc. (www.steptools.com) 
 */
/* OPTION: using custom renumber hook */

FILE_DESCRIPTION(
/* description */ ('STEP AP242 Edition 2',
'CAx-IF Rec.Pracs.---Representation and Presentation of Product Manufa
cturing Information (PMI)---4.0---2014-10-13',
'CAx-IF Rec.Pracs.---3D Tessellated Geometry---0.4---2014-09-14','2;1',
'CAx-IF Rec.Pracs.---User Defined Attributes---1.5---2016-08-15'),
/* implementation_level */ '2;1');

FILE_NAME(
/* name */ 'Side Plate Copy 1',
/* time_stamp */ '2026-09-13T04:28:22Z',
/* author */ (''),
/* organization */ (''),
/* preprocessor_version */ 'ST-DEVELOPER v20',
/* originating_system */ 'ONSHAPE BY PTC INC, 1.220',
/* authorisation */ '  ');

FILE_SCHEMA (('AP242_MANAGED_MODEL_BASED_3D_ENGINEERING_MIM_LF { 1 0 10303 442 3 1 4 }'));
ENDSEC;

DATA;
#10=SHAPE_REPRESENTATION_RELATIONSHIP('','',#715,#11);
#11=ADVANCED_BREP_SHAPE_REPRESENTATION('',(#713),#1153);
#12=CYLINDRICAL_SURFACE('',#736,0.0127);
#13=CYLINDRICAL_SURFACE('',#740,0.01397);
#14=CYLINDRICAL_SURFACE('',#743,0.0127);
#15=CYLINDRICAL_SURFACE('',#746,0.00257853647374156);
#16=CYLINDRICAL_SURFACE('',#748,0.0127);
#17=CYLINDRICAL_SURFACE('',#751,0.00257853647374158);
#18=CYLINDRICAL_SURFACE('',#754,0.0127);
#19=CYLINDRICAL_SURFACE('',#760,0.00257853647374157);
#20=CYLINDRICAL_SURFACE('',#765,0.0025785364737416);
#21=LINE('',#961,#99);
#22=LINE('',#965,#100);
#23=LINE('',#969,#101);
#24=LINE('',#973,#102);
#25=LINE('',#974,#103);
#26=LINE('',#977,#104);
#27=LINE('',#979,#105);
#28=LINE('',#981,#106);
#29=LINE('',#982,#107);
#30=LINE('',#985,#108);
#31=LINE('',#987,#109);
#32=LINE('',#989,#110);
#33=LINE('',#993,#111);
#34=LINE('',#997,#112);
#35=LINE('',#998,#113);
#36=LINE('',#1001,#114);
#37=LINE('',#1003,#115);
#38=LINE('',#1005,#116);
#39=LINE('',#1009,#117);
#40=LINE('',#1013,#118);
#41=LINE('',#1015,#119);
#42=LINE('',#1017,#120);
#43=LINE('',#1019,#121);
#44=LINE('',#1021,#122);
#45=LINE('',#1023,#123);
#46=LINE('',#1025,#124);
#47=LINE('',#1027,#125);
#48=LINE('',#1029,#126);
#49=LINE('',#1031,#127);
#50=LINE('',#1034,#128);
#51=LINE('',#1036,#129);
#52=LINE('',#1040,#130);
#53=LINE('',#1042,#131);
#54=LINE('',#1044,#132);
#55=LINE('',#1046,#133);
#56=LINE('',#1048,#134);
#57=LINE('',#1050,#135);
#58=LINE('',#1052,#136);
#59=LINE('',#1054,#137);
#60=LINE('',#1056,#138);
#61=LINE('',#1058,#139);
#62=LINE('',#1060,#140);
#63=LINE('',#1064,#141);
#64=LINE('',#1066,#142);
#65=LINE('',#1068,#143);
#66=LINE('',#1070,#144);
#67=LINE('',#1072,#145);
#68=LINE('',#1074,#146);
#69=LINE('',#1078,#147);
#70=LINE('',#1080,#148);
#71=LINE('',#1082,#149);
#72=LINE('',#1084,#150);
#73=LINE('',#1088,#151);
#74=LINE('',#1090,#152);
#75=LINE('',#1092,#153);
#76=LINE('',#1096,#154);
#77=LINE('',#1098,#155);
#78=LINE('',#1102,#156);
#79=LINE('',#1104,#157);
#80=LINE('',#1106,#158);
#81=LINE('',#1110,#159);
#82=LINE('',#1112,#160);
#83=LINE('',#1114,#161);
#84=LINE('',#1116,#162);
#85=LINE('',#1120,#163);
#86=LINE('',#1122,#164);
#87=LINE('',#1124,#165);
#88=LINE('',#1126,#166);
#89=LINE('',#1128,#167);
#90=LINE('',#1130,#168);
#91=LINE('',#1132,#169);
#92=LINE('',#1134,#170);
#93=LINE('',#1136,#171);
#94=LINE('',#1140,#172);
#95=LINE('',#1142,#173);
#96=LINE('',#1144,#174);
#97=LINE('',#1148,#175);
#98=LINE('',#1150,#176);
#99=VECTOR('',#776,1.);
#100=VECTOR('',#779,1.);
#101=VECTOR('',#782,1.);
#102=VECTOR('',#785,1.);
#103=VECTOR('',#786,1.);
#104=VECTOR('',#787,1.);
#105=VECTOR('',#788,1.);
#106=VECTOR('',#789,1.);
#107=VECTOR('',#790,1.);
#108=VECTOR('',#791,1.);
#109=VECTOR('',#792,1.);
#110=VECTOR('',#793,1.);
#111=VECTOR('',#796,1.);
#112=VECTOR('',#799,1.);
#113=VECTOR('',#800,1.);
#114=VECTOR('',#801,1.);
#115=VECTOR('',#802,1.);
#116=VECTOR('',#803,1.);
#117=VECTOR('',#806,1.);
#118=VECTOR('',#809,1.);
#119=VECTOR('',#812,1.);
#120=VECTOR('',#813,1.);
#121=VECTOR('',#814,1.);
#122=VECTOR('',#817,1.);
#123=VECTOR('',#818,1.);
#124=VECTOR('',#821,1.);
#125=VECTOR('',#822,1.);
#126=VECTOR('',#825,1.);
#127=VECTOR('',#828,1.);
#128=VECTOR('',#829,1.);
#129=VECTOR('',#830,1.);
#130=VECTOR('',#835,1.);
#131=VECTOR('',#836,1.);
#132=VECTOR('',#837,1.);
#133=VECTOR('',#840,1.);
#134=VECTOR('',#841,1.);
#135=VECTOR('',#844,1.);
#136=VECTOR('',#845,1.);
#137=VECTOR('',#848,1.);
#138=VECTOR('',#849,1.);
#139=VECTOR('',#850,1.);
#140=VECTOR('',#853,1.);
#141=VECTOR('',#858,1.);
#142=VECTOR('',#859,1.);
#143=VECTOR('',#862,1.);
#144=VECTOR('',#863,1.);
#145=VECTOR('',#864,1.);
#146=VECTOR('',#867,1.);
#147=VECTOR('',#872,1.);
#148=VECTOR('',#873,1.);
#149=VECTOR('',#876,1.);
#150=VECTOR('',#877,1.);
#151=VECTOR('',#882,1.);
#152=VECTOR('',#883,1.);
#153=VECTOR('',#886,1.);
#154=VECTOR('',#891,1.);
#155=VECTOR('',#892,1.);
#156=VECTOR('',#897,1.);
#157=VECTOR('',#898,1.);
#158=VECTOR('',#901,1.);
#159=VECTOR('',#906,1.);
#160=VECTOR('',#907,1.);
#161=VECTOR('',#908,1.);
#162=VECTOR('',#911,1.);
#163=VECTOR('',#916,1.);
#164=VECTOR('',#917,1.);
#165=VECTOR('',#920,1.);
#166=VECTOR('',#921,1.);
#167=VECTOR('',#922,1.);
#168=VECTOR('',#925,1.);
#169=VECTOR('',#926,1.);
#170=VECTOR('',#929,1.);
#171=VECTOR('',#930,1.);
#172=VECTOR('',#937,1.);
#173=VECTOR('',#940,1.);
#174=VECTOR('',#943,1.);
#175=VECTOR('',#950,1.);
#176=VECTOR('',#953,1.);
#177=ORIENTED_EDGE('',*,*,#369,.F.);
#178=ORIENTED_EDGE('',*,*,#370,.T.);
#179=ORIENTED_EDGE('',*,*,#371,.T.);
#180=ORIENTED_EDGE('',*,*,#372,.F.);
#181=ORIENTED_EDGE('',*,*,#373,.F.);
#182=ORIENTED_EDGE('',*,*,#374,.T.);
#183=ORIENTED_EDGE('',*,*,#375,.T.);
#184=ORIENTED_EDGE('',*,*,#376,.F.);
#185=ORIENTED_EDGE('',*,*,#377,.T.);
#186=ORIENTED_EDGE('',*,*,#378,.T.);
#187=ORIENTED_EDGE('',*,*,#379,.F.);
#188=ORIENTED_EDGE('',*,*,#380,.F.);
#189=ORIENTED_EDGE('',*,*,#381,.F.);
#190=ORIENTED_EDGE('',*,*,#382,.T.);
#191=ORIENTED_EDGE('',*,*,#383,.T.);
#192=ORIENTED_EDGE('',*,*,#384,.F.);
#193=ORIENTED_EDGE('',*,*,#385,.F.);
#194=ORIENTED_EDGE('',*,*,#386,.T.);
#195=ORIENTED_EDGE('',*,*,#387,.T.);
#196=ORIENTED_EDGE('',*,*,#388,.T.);
#197=ORIENTED_EDGE('',*,*,#389,.F.);
#198=ORIENTED_EDGE('',*,*,#390,.T.);
#199=ORIENTED_EDGE('',*,*,#391,.T.);
#200=ORIENTED_EDGE('',*,*,#392,.F.);
#201=ORIENTED_EDGE('',*,*,#393,.F.);
#202=ORIENTED_EDGE('',*,*,#394,.T.);
#203=ORIENTED_EDGE('',*,*,#395,.T.);
#204=ORIENTED_EDGE('',*,*,#396,.F.);
#205=ORIENTED_EDGE('',*,*,#377,.F.);
#206=ORIENTED_EDGE('',*,*,#397,.F.);
#207=ORIENTED_EDGE('',*,*,#398,.T.);
#208=ORIENTED_EDGE('',*,*,#399,.T.);
#209=ORIENTED_EDGE('',*,*,#380,.T.);
#210=ORIENTED_EDGE('',*,*,#400,.F.);
#211=ORIENTED_EDGE('',*,*,#401,.F.);
#212=ORIENTED_EDGE('',*,*,#397,.T.);
#213=ORIENTED_EDGE('',*,*,#379,.T.);
#214=ORIENTED_EDGE('',*,*,#402,.F.);
#215=ORIENTED_EDGE('',*,*,#403,.F.);
#216=ORIENTED_EDGE('',*,*,#400,.T.);
#217=ORIENTED_EDGE('',*,*,#378,.F.);
#218=ORIENTED_EDGE('',*,*,#399,.F.);
#219=ORIENTED_EDGE('',*,*,#404,.T.);
#220=ORIENTED_EDGE('',*,*,#402,.T.);
#221=ORIENTED_EDGE('',*,*,#405,.F.);
#222=ORIENTED_EDGE('',*,*,#406,.T.);
#223=ORIENTED_EDGE('',*,*,#407,.F.);
#224=ORIENTED_EDGE('',*,*,#408,.F.);
#225=ORIENTED_EDGE('',*,*,#398,.F.);
#226=ORIENTED_EDGE('',*,*,#401,.T.);
#227=ORIENTED_EDGE('',*,*,#403,.T.);
#228=ORIENTED_EDGE('',*,*,#404,.F.);
#229=ORIENTED_EDGE('',*,*,#409,.F.);
#230=ORIENTED_EDGE('',*,*,#390,.F.);
#231=ORIENTED_EDGE('',*,*,#410,.T.);
#232=ORIENTED_EDGE('',*,*,#411,.T.);
#233=ORIENTED_EDGE('',*,*,#410,.F.);
#234=ORIENTED_EDGE('',*,*,#389,.T.);
#235=ORIENTED_EDGE('',*,*,#412,.T.);
#236=ORIENTED_EDGE('',*,*,#413,.F.);
#237=ORIENTED_EDGE('',*,*,#412,.F.);
#238=ORIENTED_EDGE('',*,*,#392,.T.);
#239=ORIENTED_EDGE('',*,*,#414,.T.);
#240=ORIENTED_EDGE('',*,*,#415,.F.);
#241=ORIENTED_EDGE('',*,*,#416,.F.);
#242=ORIENTED_EDGE('',*,*,#396,.T.);
#243=ORIENTED_EDGE('',*,*,#417,.T.);
#244=ORIENTED_EDGE('',*,*,#418,.F.);
#245=ORIENTED_EDGE('',*,*,#417,.F.);
#246=ORIENTED_EDGE('',*,*,#395,.F.);
#247=ORIENTED_EDGE('',*,*,#419,.T.);
#248=ORIENTED_EDGE('',*,*,#420,.T.);
#249=ORIENTED_EDGE('',*,*,#419,.F.);
#250=ORIENTED_EDGE('',*,*,#394,.F.);
#251=ORIENTED_EDGE('',*,*,#421,.T.);
#252=ORIENTED_EDGE('',*,*,#422,.T.);
#253=ORIENTED_EDGE('',*,*,#423,.F.);
#254=ORIENTED_EDGE('',*,*,#405,.T.);
#255=ORIENTED_EDGE('',*,*,#424,.T.);
#256=ORIENTED_EDGE('',*,*,#425,.F.);
#257=ORIENTED_EDGE('',*,*,#424,.F.);
#258=ORIENTED_EDGE('',*,*,#408,.T.);
#259=ORIENTED_EDGE('',*,*,#426,.T.);
#260=ORIENTED_EDGE('',*,*,#427,.F.);
#261=ORIENTED_EDGE('',*,*,#426,.F.);
#262=ORIENTED_EDGE('',*,*,#407,.T.);
#263=ORIENTED_EDGE('',*,*,#428,.T.);
#264=ORIENTED_EDGE('',*,*,#429,.F.);
#265=ORIENTED_EDGE('',*,*,#430,.F.);
#266=ORIENTED_EDGE('',*,*,#375,.F.);
#267=ORIENTED_EDGE('',*,*,#431,.T.);
#268=ORIENTED_EDGE('',*,*,#432,.T.);
#269=ORIENTED_EDGE('',*,*,#431,.F.);
#270=ORIENTED_EDGE('',*,*,#374,.F.);
#271=ORIENTED_EDGE('',*,*,#433,.T.);
#272=ORIENTED_EDGE('',*,*,#434,.T.);
#273=ORIENTED_EDGE('',*,*,#433,.F.);
#274=ORIENTED_EDGE('',*,*,#373,.T.);
#275=ORIENTED_EDGE('',*,*,#435,.T.);
#276=ORIENTED_EDGE('',*,*,#436,.F.);
#277=ORIENTED_EDGE('',*,*,#437,.F.);
#278=ORIENTED_EDGE('',*,*,#371,.F.);
#279=ORIENTED_EDGE('',*,*,#438,.T.);
#280=ORIENTED_EDGE('',*,*,#439,.T.);
#281=ORIENTED_EDGE('',*,*,#438,.F.);
#282=ORIENTED_EDGE('',*,*,#370,.F.);
#283=ORIENTED_EDGE('',*,*,#440,.T.);
#284=ORIENTED_EDGE('',*,*,#441,.T.);
#285=ORIENTED_EDGE('',*,*,#440,.F.);
#286=ORIENTED_EDGE('',*,*,#369,.T.);
#287=ORIENTED_EDGE('',*,*,#442,.T.);
#288=ORIENTED_EDGE('',*,*,#443,.F.);
#289=ORIENTED_EDGE('',*,*,#444,.F.);
#290=ORIENTED_EDGE('',*,*,#388,.F.);
#291=ORIENTED_EDGE('',*,*,#445,.T.);
#292=ORIENTED_EDGE('',*,*,#446,.T.);
#293=ORIENTED_EDGE('',*,*,#445,.F.);
#294=ORIENTED_EDGE('',*,*,#387,.F.);
#295=ORIENTED_EDGE('',*,*,#447,.T.);
#296=ORIENTED_EDGE('',*,*,#448,.T.);
#297=ORIENTED_EDGE('',*,*,#447,.F.);
#298=ORIENTED_EDGE('',*,*,#386,.F.);
#299=ORIENTED_EDGE('',*,*,#449,.T.);
#300=ORIENTED_EDGE('',*,*,#450,.T.);
#301=ORIENTED_EDGE('',*,*,#451,.F.);
#302=ORIENTED_EDGE('',*,*,#382,.F.);
#303=ORIENTED_EDGE('',*,*,#452,.T.);
#304=ORIENTED_EDGE('',*,*,#453,.T.);
#305=ORIENTED_EDGE('',*,*,#452,.F.);
#306=ORIENTED_EDGE('',*,*,#381,.T.);
#307=ORIENTED_EDGE('',*,*,#454,.T.);
#308=ORIENTED_EDGE('',*,*,#455,.F.);
#309=ORIENTED_EDGE('',*,*,#454,.F.);
#310=ORIENTED_EDGE('',*,*,#384,.T.);
#311=ORIENTED_EDGE('',*,*,#456,.T.);
#312=ORIENTED_EDGE('',*,*,#457,.F.);
#313=ORIENTED_EDGE('',*,*,#421,.F.);
#314=ORIENTED_EDGE('',*,*,#393,.T.);
#315=ORIENTED_EDGE('',*,*,#416,.T.);
#316=ORIENTED_EDGE('',*,*,#458,.F.);
#317=ORIENTED_EDGE('',*,*,#406,.F.);
#318=ORIENTED_EDGE('',*,*,#423,.T.);
#319=ORIENTED_EDGE('',*,*,#459,.T.);
#320=ORIENTED_EDGE('',*,*,#428,.F.);
#321=ORIENTED_EDGE('',*,*,#435,.F.);
#322=ORIENTED_EDGE('',*,*,#376,.T.);
#323=ORIENTED_EDGE('',*,*,#430,.T.);
#324=ORIENTED_EDGE('',*,*,#460,.F.);
#325=ORIENTED_EDGE('',*,*,#442,.F.);
#326=ORIENTED_EDGE('',*,*,#372,.T.);
#327=ORIENTED_EDGE('',*,*,#437,.T.);
#328=ORIENTED_EDGE('',*,*,#461,.F.);
#329=ORIENTED_EDGE('',*,*,#449,.F.);
#330=ORIENTED_EDGE('',*,*,#385,.T.);
#331=ORIENTED_EDGE('',*,*,#444,.T.);
#332=ORIENTED_EDGE('',*,*,#462,.F.);
#333=ORIENTED_EDGE('',*,*,#456,.F.);
#334=ORIENTED_EDGE('',*,*,#383,.F.);
#335=ORIENTED_EDGE('',*,*,#451,.T.);
#336=ORIENTED_EDGE('',*,*,#463,.T.);
#337=ORIENTED_EDGE('',*,*,#414,.F.);
#338=ORIENTED_EDGE('',*,*,#391,.F.);
#339=ORIENTED_EDGE('',*,*,#409,.T.);
#340=ORIENTED_EDGE('',*,*,#464,.T.);
#341=ORIENTED_EDGE('',*,*,#453,.F.);
#342=ORIENTED_EDGE('',*,*,#455,.T.);
#343=ORIENTED_EDGE('',*,*,#457,.T.);
#344=ORIENTED_EDGE('',*,*,#463,.F.);
#345=ORIENTED_EDGE('',*,*,#446,.F.);
#346=ORIENTED_EDGE('',*,*,#448,.F.);
#347=ORIENTED_EDGE('',*,*,#450,.F.);
#348=ORIENTED_EDGE('',*,*,#462,.T.);
#349=ORIENTED_EDGE('',*,*,#439,.F.);
#350=ORIENTED_EDGE('',*,*,#441,.F.);
#351=ORIENTED_EDGE('',*,*,#443,.T.);
#352=ORIENTED_EDGE('',*,*,#461,.T.);
#353=ORIENTED_EDGE('',*,*,#432,.F.);
#354=ORIENTED_EDGE('',*,*,#434,.F.);
#355=ORIENTED_EDGE('',*,*,#436,.T.);
#356=ORIENTED_EDGE('',*,*,#460,.T.);
#357=ORIENTED_EDGE('',*,*,#425,.T.);
#358=ORIENTED_EDGE('',*,*,#427,.T.);
#359=ORIENTED_EDGE('',*,*,#429,.T.);
#360=ORIENTED_EDGE('',*,*,#459,.F.);
#361=ORIENTED_EDGE('',*,*,#418,.T.);
#362=ORIENTED_EDGE('',*,*,#420,.F.);
#363=ORIENTED_EDGE('',*,*,#422,.F.);
#364=ORIENTED_EDGE('',*,*,#458,.T.);
#365=ORIENTED_EDGE('',*,*,#411,.F.);
#366=ORIENTED_EDGE('',*,*,#413,.T.);
#367=ORIENTED_EDGE('',*,*,#415,.T.);
#368=ORIENTED_EDGE('',*,*,#464,.F.);
#369=EDGE_CURVE('',#465,#466,#529,.T.);
#370=EDGE_CURVE('',#465,#467,#21,.T.);
#371=EDGE_CURVE('',#467,#468,#530,.T.);
#372=EDGE_CURVE('',#466,#468,#22,.T.);
#373=EDGE_CURVE('',#469,#470,#531,.T.);
#374=EDGE_CURVE('',#469,#471,#23,.T.);
#375=EDGE_CURVE('',#471,#472,#532,.T.);
#376=EDGE_CURVE('',#470,#472,#24,.T.);
#377=EDGE_CURVE('',#473,#474,#25,.T.);
#378=EDGE_CURVE('',#474,#475,#26,.T.);
#379=EDGE_CURVE('',#476,#475,#27,.T.);
#380=EDGE_CURVE('',#473,#476,#28,.T.);
#381=EDGE_CURVE('',#477,#478,#29,.T.);
#382=EDGE_CURVE('',#477,#479,#30,.T.);
#383=EDGE_CURVE('',#479,#480,#31,.T.);
#384=EDGE_CURVE('',#478,#480,#32,.T.);
#385=EDGE_CURVE('',#481,#482,#533,.T.);
#386=EDGE_CURVE('',#481,#483,#33,.T.);
#387=EDGE_CURVE('',#483,#484,#534,.T.);
#388=EDGE_CURVE('',#484,#482,#34,.T.);
#389=EDGE_CURVE('',#485,#486,#35,.T.);
#390=EDGE_CURVE('',#485,#487,#36,.T.);
#391=EDGE_CURVE('',#487,#488,#37,.T.);
#392=EDGE_CURVE('',#486,#488,#38,.T.);
#393=EDGE_CURVE('',#489,#490,#535,.T.);
#394=EDGE_CURVE('',#489,#491,#39,.T.);
#395=EDGE_CURVE('',#491,#492,#536,.T.);
#396=EDGE_CURVE('',#490,#492,#40,.T.);
#397=EDGE_CURVE('',#493,#473,#41,.T.);
#398=EDGE_CURVE('',#493,#494,#42,.T.);
#399=EDGE_CURVE('',#494,#474,#43,.T.);
#400=EDGE_CURVE('',#495,#476,#44,.T.);
#401=EDGE_CURVE('',#493,#495,#45,.T.);
#402=EDGE_CURVE('',#496,#475,#46,.T.);
#403=EDGE_CURVE('',#495,#496,#47,.T.);
#404=EDGE_CURVE('',#494,#496,#48,.T.);
#405=EDGE_CURVE('',#497,#498,#49,.T.);
#406=EDGE_CURVE('',#497,#499,#50,.T.);
#407=EDGE_CURVE('',#500,#499,#51,.T.);
#408=EDGE_CURVE('',#498,#500,#537,.T.);
#409=EDGE_CURVE('',#487,#501,#52,.T.);
#410=EDGE_CURVE('',#485,#502,#53,.T.);
#411=EDGE_CURVE('',#502,#501,#54,.T.);
#412=EDGE_CURVE('',#486,#503,#55,.T.);
#413=EDGE_CURVE('',#502,#503,#56,.T.);
#414=EDGE_CURVE('',#488,#504,#57,.T.);
#415=EDGE_CURVE('',#503,#504,#58,.T.);
#416=EDGE_CURVE('',#490,#505,#59,.T.);
#417=EDGE_CURVE('',#492,#506,#60,.T.);
#418=EDGE_CURVE('',#505,#506,#61,.T.);
#419=EDGE_CURVE('',#491,#507,#62,.T.);
#420=EDGE_CURVE('',#507,#506,#538,.T.);
#421=EDGE_CURVE('',#489,#508,#63,.T.);
#422=EDGE_CURVE('',#508,#507,#64,.T.);
#423=EDGE_CURVE('',#497,#509,#65,.T.);
#424=EDGE_CURVE('',#498,#510,#66,.T.);
#425=EDGE_CURVE('',#509,#510,#67,.T.);
#426=EDGE_CURVE('',#500,#511,#68,.T.);
#427=EDGE_CURVE('',#510,#511,#539,.T.);
#428=EDGE_CURVE('',#499,#512,#69,.T.);
#429=EDGE_CURVE('',#511,#512,#70,.T.);
#430=EDGE_CURVE('',#472,#513,#71,.T.);
#431=EDGE_CURVE('',#471,#514,#72,.T.);
#432=EDGE_CURVE('',#514,#513,#540,.T.);
#433=EDGE_CURVE('',#469,#515,#73,.T.);
#434=EDGE_CURVE('',#515,#514,#74,.T.);
#435=EDGE_CURVE('',#470,#516,#75,.T.);
#436=EDGE_CURVE('',#515,#516,#541,.T.);
#437=EDGE_CURVE('',#468,#517,#76,.T.);
#438=EDGE_CURVE('',#467,#518,#77,.T.);
#439=EDGE_CURVE('',#518,#517,#542,.T.);
#440=EDGE_CURVE('',#465,#519,#78,.T.);
#441=EDGE_CURVE('',#519,#518,#79,.T.);
#442=EDGE_CURVE('',#466,#520,#80,.T.);
#443=EDGE_CURVE('',#519,#520,#543,.T.);
#444=EDGE_CURVE('',#482,#521,#81,.T.);
#445=EDGE_CURVE('',#484,#522,#82,.T.);
#446=EDGE_CURVE('',#522,#521,#83,.T.);
#447=EDGE_CURVE('',#483,#523,#84,.T.);
#448=EDGE_CURVE('',#523,#522,#544,.T.);
#449=EDGE_CURVE('',#481,#524,#85,.T.);
#450=EDGE_CURVE('',#524,#523,#86,.T.);
#451=EDGE_CURVE('',#479,#525,#87,.T.);
#452=EDGE_CURVE('',#477,#526,#88,.T.);
#453=EDGE_CURVE('',#526,#525,#89,.T.);
#454=EDGE_CURVE('',#478,#527,#90,.T.);
#455=EDGE_CURVE('',#526,#527,#91,.T.);
#456=EDGE_CURVE('',#480,#528,#92,.T.);
#457=EDGE_CURVE('',#527,#528,#93,.T.);
#458=EDGE_CURVE('',#508,#505,#545,.T.);
#459=EDGE_CURVE('',#509,#512,#94,.T.);
#460=EDGE_CURVE('',#516,#513,#95,.T.);
#461=EDGE_CURVE('',#520,#517,#96,.T.);
#462=EDGE_CURVE('',#524,#521,#546,.T.);
#463=EDGE_CURVE('',#525,#528,#97,.T.);
#464=EDGE_CURVE('',#501,#504,#98,.T.);
#465=VERTEX_POINT('',#959);
#466=VERTEX_POINT('',#960);
#467=VERTEX_POINT('',#962);
#468=VERTEX_POINT('',#964);
#469=VERTEX_POINT('',#967);
#470=VERTEX_POINT('',#968);
#471=VERTEX_POINT('',#970);
#472=VERTEX_POINT('',#972);
#473=VERTEX_POINT('',#975);
#474=VERTEX_POINT('',#976);
#475=VERTEX_POINT('',#978);
#476=VERTEX_POINT('',#980);
#477=VERTEX_POINT('',#983);
#478=VERTEX_POINT('',#984);
#479=VERTEX_POINT('',#986);
#480=VERTEX_POINT('',#988);
#481=VERTEX_POINT('',#991);
#482=VERTEX_POINT('',#992);
#483=VERTEX_POINT('',#994);
#484=VERTEX_POINT('',#996);
#485=VERTEX_POINT('',#999);
#486=VERTEX_POINT('',#1000);
#487=VERTEX_POINT('',#1002);
#488=VERTEX_POINT('',#1004);
#489=VERTEX_POINT('',#1007);
#490=VERTEX_POINT('',#1008);
#491=VERTEX_POINT('',#1010);
#492=VERTEX_POINT('',#1012);
#493=VERTEX_POINT('',#1016);
#494=VERTEX_POINT('',#1018);
#495=VERTEX_POINT('',#1022);
#496=VERTEX_POINT('',#1026);
#497=VERTEX_POINT('',#1032);
#498=VERTEX_POINT('',#1033);
#499=VERTEX_POINT('',#1035);
#500=VERTEX_POINT('',#1037);
#501=VERTEX_POINT('',#1041);
#502=VERTEX_POINT('',#1043);
#503=VERTEX_POINT('',#1047);
#504=VERTEX_POINT('',#1051);
#505=VERTEX_POINT('',#1055);
#506=VERTEX_POINT('',#1057);
#507=VERTEX_POINT('',#1061);
#508=VERTEX_POINT('',#1065);
#509=VERTEX_POINT('',#1069);
#510=VERTEX_POINT('',#1071);
#511=VERTEX_POINT('',#1075);
#512=VERTEX_POINT('',#1079);
#513=VERTEX_POINT('',#1083);
#514=VERTEX_POINT('',#1085);
#515=VERTEX_POINT('',#1089);
#516=VERTEX_POINT('',#1093);
#517=VERTEX_POINT('',#1097);
#518=VERTEX_POINT('',#1099);
#519=VERTEX_POINT('',#1103);
#520=VERTEX_POINT('',#1107);
#521=VERTEX_POINT('',#1111);
#522=VERTEX_POINT('',#1113);
#523=VERTEX_POINT('',#1117);
#524=VERTEX_POINT('',#1121);
#525=VERTEX_POINT('',#1125);
#526=VERTEX_POINT('',#1127);
#527=VERTEX_POINT('',#1131);
#528=VERTEX_POINT('',#1135);
#529=CIRCLE('',#718,0.00257853647374158);
#530=CIRCLE('',#719,0.0127);
#531=CIRCLE('',#720,0.00257853647374156);
#532=CIRCLE('',#721,0.0127);
#533=CIRCLE('',#722,0.0025785364737416);
#534=CIRCLE('',#723,0.0127);
#535=CIRCLE('',#724,0.00257853647374157);
#536=CIRCLE('',#725,0.0127);
#537=CIRCLE('',#731,0.01397);
#538=CIRCLE('',#737,0.0127);
#539=CIRCLE('',#741,0.01397);
#540=CIRCLE('',#744,0.0127);
#541=CIRCLE('',#747,0.00257853647374156);
#542=CIRCLE('',#749,0.0127);
#543=CIRCLE('',#752,0.00257853647374158);
#544=CIRCLE('',#755,0.0127);
#545=CIRCLE('',#761,0.00257853647374157);
#546=CIRCLE('',#766,0.0025785364737416);
#547=EDGE_LOOP('',(#177,#178,#179,#180));
#548=EDGE_LOOP('',(#181,#182,#183,#184));
#549=EDGE_LOOP('',(#185,#186,#187,#188));
#550=EDGE_LOOP('',(#189,#190,#191,#192));
#551=EDGE_LOOP('',(#193,#194,#195,#196));
#552=EDGE_LOOP('',(#197,#198,#199,#200));
#553=EDGE_LOOP('',(#201,#202,#203,#204));
#554=EDGE_LOOP('',(#205,#206,#207,#208));
#555=EDGE_LOOP('',(#209,#210,#211,#212));
#556=EDGE_LOOP('',(#213,#214,#215,#216));
#557=EDGE_LOOP('',(#217,#218,#219,#220));
#558=EDGE_LOOP('',(#221,#222,#223,#224));
#559=EDGE_LOOP('',(#225,#226,#227,#228));
#560=EDGE_LOOP('',(#229,#230,#231,#232));
#561=EDGE_LOOP('',(#233,#234,#235,#236));
#562=EDGE_LOOP('',(#237,#238,#239,#240));
#563=EDGE_LOOP('',(#241,#242,#243,#244));
#564=EDGE_LOOP('',(#245,#246,#247,#248));
#565=EDGE_LOOP('',(#249,#250,#251,#252));
#566=EDGE_LOOP('',(#253,#254,#255,#256));
#567=EDGE_LOOP('',(#257,#258,#259,#260));
#568=EDGE_LOOP('',(#261,#262,#263,#264));
#569=EDGE_LOOP('',(#265,#266,#267,#268));
#570=EDGE_LOOP('',(#269,#270,#271,#272));
#571=EDGE_LOOP('',(#273,#274,#275,#276));
#572=EDGE_LOOP('',(#277,#278,#279,#280));
#573=EDGE_LOOP('',(#281,#282,#283,#284));
#574=EDGE_LOOP('',(#285,#286,#287,#288));
#575=EDGE_LOOP('',(#289,#290,#291,#292));
#576=EDGE_LOOP('',(#293,#294,#295,#296));
#577=EDGE_LOOP('',(#297,#298,#299,#300));
#578=EDGE_LOOP('',(#301,#302,#303,#304));
#579=EDGE_LOOP('',(#305,#306,#307,#308));
#580=EDGE_LOOP('',(#309,#310,#311,#312));
#581=EDGE_LOOP('',(#313,#314,#315,#316));
#582=EDGE_LOOP('',(#317,#318,#319,#320));
#583=EDGE_LOOP('',(#321,#322,#323,#324));
#584=EDGE_LOOP('',(#325,#326,#327,#328));
#585=EDGE_LOOP('',(#329,#330,#331,#332));
#586=EDGE_LOOP('',(#333,#334,#335,#336));
#587=EDGE_LOOP('',(#337,#338,#339,#340));
#588=EDGE_LOOP('',(#341,#342,#343,#344));
#589=EDGE_LOOP('',(#345,#346,#347,#348));
#590=EDGE_LOOP('',(#349,#350,#351,#352));
#591=EDGE_LOOP('',(#353,#354,#355,#356));
#592=EDGE_LOOP('',(#357,#358,#359,#360));
#593=EDGE_LOOP('',(#361,#362,#363,#364));
#594=EDGE_LOOP('',(#365,#366,#367,#368));
#595=FACE_BOUND('',#547,.T.);
#596=FACE_BOUND('',#548,.T.);
#597=FACE_BOUND('',#549,.T.);
#598=FACE_BOUND('',#550,.T.);
#599=FACE_BOUND('',#551,.T.);
#600=FACE_BOUND('',#552,.T.);
#601=FACE_BOUND('',#553,.T.);
#602=FACE_BOUND('',#554,.T.);
#603=FACE_BOUND('',#555,.T.);
#604=FACE_BOUND('',#556,.T.);
#605=FACE_BOUND('',#557,.T.);
#606=FACE_BOUND('',#558,.T.);
#607=FACE_BOUND('',#559,.T.);
#608=FACE_BOUND('',#560,.T.);
#609=FACE_BOUND('',#561,.T.);
#610=FACE_BOUND('',#562,.T.);
#611=FACE_BOUND('',#563,.T.);
#612=FACE_BOUND('',#564,.T.);
#613=FACE_BOUND('',#565,.T.);
#614=FACE_BOUND('',#566,.T.);
#615=FACE_BOUND('',#567,.T.);
#616=FACE_BOUND('',#568,.T.);
#617=FACE_BOUND('',#569,.T.);
#618=FACE_BOUND('',#570,.T.);
#619=FACE_BOUND('',#571,.T.);
#620=FACE_BOUND('',#572,.T.);
#621=FACE_BOUND('',#573,.T.);
#622=FACE_BOUND('',#574,.T.);
#623=FACE_BOUND('',#575,.T.);
#624=FACE_BOUND('',#576,.T.);
#625=FACE_BOUND('',#577,.T.);
#626=FACE_BOUND('',#578,.T.);
#627=FACE_BOUND('',#579,.T.);
#628=FACE_BOUND('',#580,.T.);
#629=FACE_BOUND('',#581,.T.);
#630=FACE_BOUND('',#582,.T.);
#631=FACE_BOUND('',#583,.T.);
#632=FACE_BOUND('',#584,.T.);
#633=FACE_BOUND('',#585,.T.);
#634=FACE_BOUND('',#586,.T.);
#635=FACE_BOUND('',#587,.T.);
#636=FACE_BOUND('',#588,.T.);
#637=FACE_BOUND('',#589,.T.);
#638=FACE_BOUND('',#590,.T.);
#639=FACE_BOUND('',#591,.T.);
#640=FACE_BOUND('',#592,.T.);
#641=FACE_BOUND('',#593,.T.);
#642=FACE_BOUND('',#594,.T.);
#643=PLANE('',#717);
#644=PLANE('',#726);
#645=PLANE('',#727);
#646=PLANE('',#728);
#647=PLANE('',#729);
#648=PLANE('',#730);
#649=PLANE('',#732);
#650=PLANE('',#733);
#651=PLANE('',#734);
#652=PLANE('',#735);
#653=PLANE('',#738);
#654=PLANE('',#739);
#655=PLANE('',#742);
#656=PLANE('',#745);
#657=PLANE('',#750);
#658=PLANE('',#753);
#659=PLANE('',#756);
#660=PLANE('',#757);
#661=PLANE('',#758);
#662=PLANE('',#759);
#663=PLANE('',#762);
#664=PLANE('',#763);
#665=PLANE('',#764);
#666=PLANE('',#767);
#667=PLANE('',#768);
#668=PLANE('',#769);
#669=ADVANCED_FACE('',(#595,#596,#597,#598,#599,#600,#601),#643,.F.);
#670=ADVANCED_FACE('',(#602),#644,.T.);
#671=ADVANCED_FACE('',(#603),#645,.F.);
#672=ADVANCED_FACE('',(#604),#646,.F.);
#673=ADVANCED_FACE('',(#605),#647,.T.);
#674=ADVANCED_FACE('',(#606,#607),#648,.T.);
#675=ADVANCED_FACE('',(#608),#649,.F.);
#676=ADVANCED_FACE('',(#609),#650,.T.);
#677=ADVANCED_FACE('',(#610),#651,.T.);
#678=ADVANCED_FACE('',(#611),#652,.T.);
#679=ADVANCED_FACE('',(#612),#12,.F.);
#680=ADVANCED_FACE('',(#613),#653,.F.);
#681=ADVANCED_FACE('',(#614),#654,.T.);
#682=ADVANCED_FACE('',(#615),#13,.T.);
#683=ADVANCED_FACE('',(#616),#655,.T.);
#684=ADVANCED_FACE('',(#617),#14,.F.);
#685=ADVANCED_FACE('',(#618),#656,.F.);
#686=ADVANCED_FACE('',(#619),#15,.T.);
#687=ADVANCED_FACE('',(#620),#16,.F.);
#688=ADVANCED_FACE('',(#621),#657,.F.);
#689=ADVANCED_FACE('',(#622),#17,.T.);
#690=ADVANCED_FACE('',(#623),#658,.F.);
#691=ADVANCED_FACE('',(#624),#18,.F.);
#692=ADVANCED_FACE('',(#625),#659,.F.);
#693=ADVANCED_FACE('',(#626),#660,.F.);
#694=ADVANCED_FACE('',(#627),#661,.T.);
#695=ADVANCED_FACE('',(#628),#662,.T.);
#696=ADVANCED_FACE('',(#629),#19,.T.);
#697=ADVANCED_FACE('',(#630),#663,.F.);
#698=ADVANCED_FACE('',(#631),#664,.T.);
#699=ADVANCED_FACE('',(#632),#665,.T.);
#700=ADVANCED_FACE('',(#633),#20,.T.);
#701=ADVANCED_FACE('',(#634),#666,.F.);
#702=ADVANCED_FACE('',(#635),#667,.F.);
#703=ADVANCED_FACE('',(#636,#637,#638,#639,#640,#641,#642),#668,.T.);
#704=CLOSED_SHELL('',(#669,#670,#671,#672,#673,#674,#675,#676,#677,#678,
#679,#680,#681,#682,#683,#684,#685,#686,#687,#688,#689,#690,#691,#692,#693,
#694,#695,#696,#697,#698,#699,#700,#701,#702,#703));
#705=STYLED_ITEM('',(#706),#713);
#706=PRESENTATION_STYLE_ASSIGNMENT((#707));
#707=SURFACE_STYLE_USAGE(.BOTH.,#708);
#708=SURFACE_SIDE_STYLE('',(#709));
#709=SURFACE_STYLE_FILL_AREA(#710);
#710=FILL_AREA_STYLE('',(#711));
#711=FILL_AREA_STYLE_COLOUR('',#712);
#712=COLOUR_RGB('',0.615686274509804,0.811764705882353,0.929411764705882);
#713=MANIFOLD_SOLID_BREP('Part 1',#704);
#714=SHAPE_DEFINITION_REPRESENTATION(#1158,#715);
#715=SHAPE_REPRESENTATION('Part 1',(#716),#1153);
#716=AXIS2_PLACEMENT_3D('',#956,#770,#771);
#717=AXIS2_PLACEMENT_3D('',#957,#772,#773);
#718=AXIS2_PLACEMENT_3D('',#958,#774,#775);
#719=AXIS2_PLACEMENT_3D('',#963,#777,#778);
#720=AXIS2_PLACEMENT_3D('',#966,#780,#781);
#721=AXIS2_PLACEMENT_3D('',#971,#783,#784);
#722=AXIS2_PLACEMENT_3D('',#990,#794,#795);
#723=AXIS2_PLACEMENT_3D('',#995,#797,#798);
#724=AXIS2_PLACEMENT_3D('',#1006,#804,#805);
#725=AXIS2_PLACEMENT_3D('',#1011,#807,#808);
#726=AXIS2_PLACEMENT_3D('',#1014,#810,#811);
#727=AXIS2_PLACEMENT_3D('',#1020,#815,#816);
#728=AXIS2_PLACEMENT_3D('',#1024,#819,#820);
#729=AXIS2_PLACEMENT_3D('',#1028,#823,#824);
#730=AXIS2_PLACEMENT_3D('',#1030,#826,#827);
#731=AXIS2_PLACEMENT_3D('',#1038,#831,#832);
#732=AXIS2_PLACEMENT_3D('',#1039,#833,#834);
#733=AXIS2_PLACEMENT_3D('',#1045,#838,#839);
#734=AXIS2_PLACEMENT_3D('',#1049,#842,#843);
#735=AXIS2_PLACEMENT_3D('',#1053,#846,#847);
#736=AXIS2_PLACEMENT_3D('',#1059,#851,#852);
#737=AXIS2_PLACEMENT_3D('',#1062,#854,#855);
#738=AXIS2_PLACEMENT_3D('',#1063,#856,#857);
#739=AXIS2_PLACEMENT_3D('',#1067,#860,#861);
#740=AXIS2_PLACEMENT_3D('',#1073,#865,#866);
#741=AXIS2_PLACEMENT_3D('',#1076,#868,#869);
#742=AXIS2_PLACEMENT_3D('',#1077,#870,#871);
#743=AXIS2_PLACEMENT_3D('',#1081,#874,#875);
#744=AXIS2_PLACEMENT_3D('',#1086,#878,#879);
#745=AXIS2_PLACEMENT_3D('',#1087,#880,#881);
#746=AXIS2_PLACEMENT_3D('',#1091,#884,#885);
#747=AXIS2_PLACEMENT_3D('',#1094,#887,#888);
#748=AXIS2_PLACEMENT_3D('',#1095,#889,#890);
#749=AXIS2_PLACEMENT_3D('',#1100,#893,#894);
#750=AXIS2_PLACEMENT_3D('',#1101,#895,#896);
#751=AXIS2_PLACEMENT_3D('',#1105,#899,#900);
#752=AXIS2_PLACEMENT_3D('',#1108,#902,#903);
#753=AXIS2_PLACEMENT_3D('',#1109,#904,#905);
#754=AXIS2_PLACEMENT_3D('',#1115,#909,#910);
#755=AXIS2_PLACEMENT_3D('',#1118,#912,#913);
#756=AXIS2_PLACEMENT_3D('',#1119,#914,#915);
#757=AXIS2_PLACEMENT_3D('',#1123,#918,#919);
#758=AXIS2_PLACEMENT_3D('',#1129,#923,#924);
#759=AXIS2_PLACEMENT_3D('',#1133,#927,#928);
#760=AXIS2_PLACEMENT_3D('',#1137,#931,#932);
#761=AXIS2_PLACEMENT_3D('',#1138,#933,#934);
#762=AXIS2_PLACEMENT_3D('',#1139,#935,#936);
#763=AXIS2_PLACEMENT_3D('',#1141,#938,#939);
#764=AXIS2_PLACEMENT_3D('',#1143,#941,#942);
#765=AXIS2_PLACEMENT_3D('',#1145,#944,#945);
#766=AXIS2_PLACEMENT_3D('',#1146,#946,#947);
#767=AXIS2_PLACEMENT_3D('',#1147,#948,#949);
#768=AXIS2_PLACEMENT_3D('',#1149,#951,#952);
#769=AXIS2_PLACEMENT_3D('',#1151,#954,#955);
#770=DIRECTION('',(0.,0.,1.));
#771=DIRECTION('',(1.,0.,0.));
#772=DIRECTION('',(0.,0.,1.));
#773=DIRECTION('',(1.,0.,0.));
#774=DIRECTION('',(0.,0.,1.));
#775=DIRECTION('',(1.,0.,0.));
#776=DIRECTION('',(0.,1.,0.));
#777=DIRECTION('',(0.,0.,1.));
#778=DIRECTION('',(1.,0.,0.));
#779=DIRECTION('',(-0.866025403784438,0.5,0.));
#780=DIRECTION('',(0.,0.,1.));
#781=DIRECTION('',(1.,0.,0.));
#782=DIRECTION('',(0.866025403784439,0.5,0.));
#783=DIRECTION('',(0.,0.,1.));
#784=DIRECTION('',(1.,0.,0.));
#785=DIRECTION('',(0.,1.,0.));
#786=DIRECTION('',(1.,0.,0.));
#787=DIRECTION('',(0.,-1.,0.));
#788=DIRECTION('',(1.,0.,0.));
#789=DIRECTION('',(0.,-1.,0.));
#790=DIRECTION('',(1.,0.,0.));
#791=DIRECTION('',(0.,-1.,0.));
#792=DIRECTION('',(1.,2.87562946701502E-16,0.));
#793=DIRECTION('',(0.,-1.,0.));
#794=DIRECTION('',(0.,0.,1.));
#795=DIRECTION('',(1.,0.,0.));
#796=DIRECTION('',(-0.859886456950598,0.51048533882272,0.));
#797=DIRECTION('',(0.,0.,1.));
#798=DIRECTION('',(1.,0.,0.));
#799=DIRECTION('',(1.,0.,0.));
#800=DIRECTION('',(1.,0.,0.));
#801=DIRECTION('',(0.,-1.,0.));
#802=DIRECTION('',(1.,0.,0.));
#803=DIRECTION('',(0.,-1.,0.));
#804=DIRECTION('',(0.,0.,1.));
#805=DIRECTION('',(1.,0.,0.));
#806=DIRECTION('',(1.,0.,0.));
#807=DIRECTION('',(0.,0.,1.));
#808=DIRECTION('',(1.,0.,0.));
#809=DIRECTION('',(0.859886456950596,0.510485338822723,0.));
#810=DIRECTION('',(0.,1.,0.));
#811=DIRECTION('',(0.,0.,1.));
#812=DIRECTION('',(0.,0.,-1.));
#813=DIRECTION('',(1.,0.,0.));
#814=DIRECTION('',(0.,0.,-1.));
#815=DIRECTION('',(1.,0.,0.));
#816=DIRECTION('',(0.,0.,-1.));
#817=DIRECTION('',(0.,0.,-1.));
#818=DIRECTION('',(0.,-1.,0.));
#819=DIRECTION('',(0.,1.,0.));
#820=DIRECTION('',(0.,0.,1.));
#821=DIRECTION('',(0.,0.,-1.));
#822=DIRECTION('',(1.,0.,0.));
#823=DIRECTION('',(1.,0.,0.));
#824=DIRECTION('',(0.,0.,-1.));
#825=DIRECTION('',(0.,-1.,0.));
#826=DIRECTION('',(0.,0.,1.));
#827=DIRECTION('',(1.,0.,0.));
#828=DIRECTION('',(0.,1.,0.));
#829=DIRECTION('',(-1.,-1.24174908802921E-16,0.));
#830=DIRECTION('',(-1.30087999698298E-16,-1.,0.));
#831=DIRECTION('',(0.,0.,1.));
#832=DIRECTION('',(1.,0.,0.));
#833=DIRECTION('',(-1.,0.,0.));
#834=DIRECTION('',(0.,0.,1.));
#835=DIRECTION('',(0.,0.,1.));
#836=DIRECTION('',(0.,0.,1.));
#837=DIRECTION('',(0.,-1.,0.));
#838=DIRECTION('',(0.,-1.,0.));
#839=DIRECTION('',(0.,0.,-1.));
#840=DIRECTION('',(0.,0.,1.));
#841=DIRECTION('',(1.,0.,0.));
#842=DIRECTION('',(-1.,0.,0.));
#843=DIRECTION('',(0.,0.,1.));
#844=DIRECTION('',(0.,0.,1.));
#845=DIRECTION('',(0.,-1.,0.));
#846=DIRECTION('',(0.510485338822723,-0.859886456950596,0.));
#847=DIRECTION('',(0.859886456950596,0.510485338822723,0.));
#848=DIRECTION('',(0.,0.,1.));
#849=DIRECTION('',(0.,0.,1.));
#850=DIRECTION('',(0.859886456950596,0.510485338822723,0.));
#851=DIRECTION('',(0.,0.,1.));
#852=DIRECTION('',(1.,0.,0.));
#853=DIRECTION('',(0.,0.,1.));
#854=DIRECTION('',(0.,0.,1.));
#855=DIRECTION('',(1.,0.,0.));
#856=DIRECTION('',(0.,-1.,0.));
#857=DIRECTION('',(0.,0.,-1.));
#858=DIRECTION('',(0.,0.,1.));
#859=DIRECTION('',(1.,0.,0.));
#860=DIRECTION('',(1.,0.,0.));
#861=DIRECTION('',(0.,0.,-1.));
#862=DIRECTION('',(0.,0.,1.));
#863=DIRECTION('',(0.,0.,1.));
#864=DIRECTION('',(0.,1.,0.));
#865=DIRECTION('',(0.,0.,1.));
#866=DIRECTION('',(1.,0.,0.));
#867=DIRECTION('',(0.,0.,1.));
#868=DIRECTION('',(0.,0.,1.));
#869=DIRECTION('',(1.,0.,0.));
#870=DIRECTION('',(-1.,1.30087999698298E-16,0.));
#871=DIRECTION('',(-1.30087999698298E-16,-1.,0.));
#872=DIRECTION('',(0.,0.,1.));
#873=DIRECTION('',(-1.30087999698298E-16,-1.,0.));
#874=DIRECTION('',(0.,0.,1.));
#875=DIRECTION('',(1.,0.,0.));
#876=DIRECTION('',(0.,0.,1.));
#877=DIRECTION('',(0.,0.,1.));
#878=DIRECTION('',(0.,0.,1.));
#879=DIRECTION('',(1.,0.,0.));
#880=DIRECTION('',(0.5,-0.866025403784439,0.));
#881=DIRECTION('',(0.866025403784439,0.5,0.));
#882=DIRECTION('',(0.,0.,1.));
#883=DIRECTION('',(0.866025403784439,0.5,0.));
#884=DIRECTION('',(0.,0.,1.));
#885=DIRECTION('',(1.,0.,0.));
#886=DIRECTION('',(0.,0.,1.));
#887=DIRECTION('',(0.,0.,1.));
#888=DIRECTION('',(1.,0.,0.));
#889=DIRECTION('',(0.,0.,1.));
#890=DIRECTION('',(1.,0.,0.));
#891=DIRECTION('',(0.,0.,1.));
#892=DIRECTION('',(0.,0.,1.));
#893=DIRECTION('',(0.,0.,1.));
#894=DIRECTION('',(1.,0.,0.));
#895=DIRECTION('',(1.,0.,0.));
#896=DIRECTION('',(0.,0.,-1.));
#897=DIRECTION('',(0.,0.,1.));
#898=DIRECTION('',(0.,1.,0.));
#899=DIRECTION('',(0.,0.,1.));
#900=DIRECTION('',(1.,0.,0.));
#901=DIRECTION('',(0.,0.,1.));
#902=DIRECTION('',(0.,0.,1.));
#903=DIRECTION('',(1.,0.,0.));
#904=DIRECTION('',(0.,-1.,0.));
#905=DIRECTION('',(0.,0.,-1.));
#906=DIRECTION('',(0.,0.,1.));
#907=DIRECTION('',(0.,0.,1.));
#908=DIRECTION('',(1.,0.,0.));
#909=DIRECTION('',(0.,0.,1.));
#910=DIRECTION('',(1.,0.,0.));
#911=DIRECTION('',(0.,0.,1.));
#912=DIRECTION('',(0.,0.,1.));
#913=DIRECTION('',(1.,0.,0.));
#914=DIRECTION('',(0.51048533882272,0.859886456950598,0.));
#915=DIRECTION('',(-0.859886456950598,0.51048533882272,0.));
#916=DIRECTION('',(0.,0.,1.));
#917=DIRECTION('',(-0.859886456950598,0.51048533882272,0.));
#918=DIRECTION('',(-1.,0.,0.));
#919=DIRECTION('',(0.,0.,1.));
#920=DIRECTION('',(0.,0.,1.));
#921=DIRECTION('',(0.,0.,1.));
#922=DIRECTION('',(0.,-1.,0.));
#923=DIRECTION('',(0.,-1.,0.));
#924=DIRECTION('',(0.,0.,-1.));
#925=DIRECTION('',(0.,0.,1.));
#926=DIRECTION('',(1.,0.,0.));
#927=DIRECTION('',(-1.,0.,0.));
#928=DIRECTION('',(0.,0.,1.));
#929=DIRECTION('',(0.,0.,1.));
#930=DIRECTION('',(0.,-1.,0.));
#931=DIRECTION('',(0.,0.,1.));
#932=DIRECTION('',(1.,0.,0.));
#933=DIRECTION('',(0.,0.,1.));
#934=DIRECTION('',(1.,0.,0.));
#935=DIRECTION('',(-1.24174908802921E-16,1.,0.));
#936=DIRECTION('',(-1.,-1.24174908802921E-16,0.));
#937=DIRECTION('',(-1.,-1.24174908802921E-16,0.));
#938=DIRECTION('',(1.,0.,0.));
#939=DIRECTION('',(0.,0.,-1.));
#940=DIRECTION('',(0.,1.,0.));
#941=DIRECTION('',(0.5,0.866025403784438,0.));
#942=DIRECTION('',(-0.866025403784438,0.5,0.));
#943=DIRECTION('',(-0.866025403784438,0.5,0.));
#944=DIRECTION('',(0.,0.,1.));
#945=DIRECTION('',(1.,0.,0.));
#946=DIRECTION('',(0.,0.,1.));
#947=DIRECTION('',(1.,0.,0.));
#948=DIRECTION('',(2.87562946701502E-16,-1.,0.));
#949=DIRECTION('',(1.,2.87562946701502E-16,0.));
#950=DIRECTION('',(1.,2.87562946701502E-16,0.));
#951=DIRECTION('',(0.,-1.,0.));
#952=DIRECTION('',(0.,0.,-1.));
#953=DIRECTION('',(1.,0.,0.));
#954=DIRECTION('',(0.,0.,1.));
#955=DIRECTION('',(1.,0.,0.));
#956=CARTESIAN_POINT('',(0.,0.,0.));
#957=CARTESIAN_POINT('',(-0.00172520554411838,0.00449760444462299,0.));
#958=CARTESIAN_POINT('',(-0.00172520554411837,0.0489700609469414,0.));
#959=CARTESIAN_POINT('',(-0.00197920554411838,0.0515360567276113,0.));
#960=CARTESIAN_POINT('',(-0.00358024648793375,0.0507610588372763,0.));
#961=CARTESIAN_POINT('',(-0.00197920554411838,0.00449760444462299,0.));
#962=CARTESIAN_POINT('',(-0.00197920554411838,0.0616675206928906,0.));
#963=CARTESIAN_POINT('',(-0.00172520554411835,0.0489700609469414,0.));
#964=CARTESIAN_POINT('',(-0.0123986996352708,0.0558523951357275,0.));
#965=CARTESIAN_POINT('',(0.0178436976053581,0.0383919389479108,0.));
#966=CARTESIAN_POINT('',(-0.00172520554411837,0.0489700609469414,0.));
#967=CARTESIAN_POINT('',(0.000129835399697001,0.0507610588372763,0.));
#968=CARTESIAN_POINT('',(-0.00147120554411839,0.0515360567276113,0.));
#969=CARTESIAN_POINT('',(-0.0212941086935949,0.0383919389479108,0.));
#970=CARTESIAN_POINT('',(0.0089482885470341,0.0558523951357275,0.));
#971=CARTESIAN_POINT('',(-0.00172520554411838,0.0489700609469414,0.));
#972=CARTESIAN_POINT('',(-0.00147120554411839,0.0616675206928906,0.));
#973=CARTESIAN_POINT('',(-0.00147120554411839,0.00449760444462299,0.));
#974=CARTESIAN_POINT('',(-0.00172520554411838,0.073247604444623,0.));
#975=CARTESIAN_POINT('',(-0.0704752055441184,0.073247604444623,0.));
#976=CARTESIAN_POINT('',(0.0670247944558816,0.073247604444623,0.));
#977=CARTESIAN_POINT('',(0.0670247944558816,0.00449760444462301,0.));
#978=CARTESIAN_POINT('',(0.0670247944558816,-0.064252395555377,0.));
#979=CARTESIAN_POINT('',(-0.00172520554411838,-0.064252395555377,0.));
#980=CARTESIAN_POINT('',(-0.0704752055441184,-0.064252395555377,0.));
#981=CARTESIAN_POINT('',(-0.0704752055441184,0.00449760444462299,0.));
#982=CARTESIAN_POINT('',(-0.00172520554411838,0.0477000609469414,0.));
#983=CARTESIAN_POINT('',(-0.0144252055441184,0.0477000609469414,0.));
#984=CARTESIAN_POINT('',(-0.00236020554411838,0.0477000609469414,0.));
#985=CARTESIAN_POINT('',(-0.0144252055441184,0.00449760444462299,0.));
#986=CARTESIAN_POINT('',(-0.0144252055441184,0.0223000609469414,0.));
#987=CARTESIAN_POINT('',(-0.00172520554411839,0.0223000609469414,0.));
#988=CARTESIAN_POINT('',(-0.00236020554411838,0.0223000609469414,0.));
#989=CARTESIAN_POINT('',(-0.00236020554411838,0.00449760444462299,0.));
#990=CARTESIAN_POINT('',(-0.00172520554411836,0.0489700609469414,0.));
#991=CARTESIAN_POINT('',(-0.00396189210235842,0.0502530588372764,0.));
#992=CARTESIAN_POINT('',(-0.00430374201785995,0.0489700609469414,0.));
#993=CARTESIAN_POINT('',(0.0177767126421139,0.037347588680357,0.));
#994=CARTESIAN_POINT('',(-0.0126653991433688,0.0554200349012236,0.));
#995=CARTESIAN_POINT('',(-0.00172520554411836,0.0489700609469414,0.));
#996=CARTESIAN_POINT('',(-0.0144252055441184,0.0489700609469414,0.));
#997=CARTESIAN_POINT('',(-0.00172520554411838,0.0489700609469414,0.));
#998=CARTESIAN_POINT('',(-0.00172520554411838,0.0477000609469414,0.));
#999=CARTESIAN_POINT('',(-0.00109020554411838,0.0477000609469414,0.));
#1000=CARTESIAN_POINT('',(0.0109747944558816,0.0477000609469414,0.));
#1001=CARTESIAN_POINT('',(-0.00109020554411838,0.00449760444462299,0.));
#1002=CARTESIAN_POINT('',(-0.00109020554411838,0.0223000609469414,0.));
#1003=CARTESIAN_POINT('',(-0.00172520554411838,0.0223000609469414,0.));
#1004=CARTESIAN_POINT('',(0.0109747944558816,0.0223000609469414,0.));
#1005=CARTESIAN_POINT('',(0.0109747944558816,0.00449760444462299,0.));
#1006=CARTESIAN_POINT('',(-0.00172520554411837,0.0489700609469414,0.));
#1007=CARTESIAN_POINT('',(0.000853330929623192,0.0489700609469414,0.));
#1008=CARTESIAN_POINT('',(0.000511481014121667,0.0502530588372763,0.));
#1009=CARTESIAN_POINT('',(-0.00172520554411838,0.0489700609469414,0.));
#1010=CARTESIAN_POINT('',(0.0109747944558816,0.0489700609469414,0.));
#1011=CARTESIAN_POINT('',(-0.00172520554411835,0.0489700609469414,0.));
#1012=CARTESIAN_POINT('',(0.0092149880551321,0.0554200349012236,0.));
#1013=CARTESIAN_POINT('',(-0.0212271237303506,0.0373475886803568,0.));
#1014=CARTESIAN_POINT('',(-0.00172520554411838,0.073247604444623,0.0025));
#1015=CARTESIAN_POINT('',(-0.0704752055441184,0.073247604444623,0.0025));
#1016=CARTESIAN_POINT('',(-0.0704752055441184,0.073247604444623,0.0025));
#1017=CARTESIAN_POINT('',(-0.00172520554411838,0.073247604444623,0.0025));
#1018=CARTESIAN_POINT('',(0.0670247944558816,0.073247604444623,0.0025));
#1019=CARTESIAN_POINT('',(0.0670247944558816,0.073247604444623,0.0025));
#1020=CARTESIAN_POINT('',(-0.0704752055441184,0.00449760444462299,0.0025));
#1021=CARTESIAN_POINT('',(-0.0704752055441184,-0.064252395555377,0.0025));
#1022=CARTESIAN_POINT('',(-0.0704752055441184,-0.064252395555377,0.0025));
#1023=CARTESIAN_POINT('',(-0.0704752055441184,0.00449760444462299,0.0025));
#1024=CARTESIAN_POINT('',(-0.00172520554411838,-0.064252395555377,0.0025));
#1025=CARTESIAN_POINT('',(0.0670247944558816,-0.064252395555377,0.0025));
#1026=CARTESIAN_POINT('',(0.0670247944558816,-0.064252395555377,0.0025));
#1027=CARTESIAN_POINT('',(-0.00172520554411838,-0.064252395555377,0.0025));
#1028=CARTESIAN_POINT('',(0.0670247944558816,0.00449760444462301,0.0025));
#1029=CARTESIAN_POINT('',(0.0670247944558816,0.00449760444462301,0.0025));
#1030=CARTESIAN_POINT('',(-0.00172520554411838,0.00449760444462299,0.0025));
#1031=CARTESIAN_POINT('',(0.0122447944558816,0.00449760444462299,0.0025));
#1032=CARTESIAN_POINT('',(0.0122447944558816,0.0210300609469414,0.0025));
#1033=CARTESIAN_POINT('',(0.0122447944558816,0.0489700609469414,0.0025));
#1034=CARTESIAN_POINT('',(-0.00172520554411838,0.0210300609469414,0.0025));
#1035=CARTESIAN_POINT('',(-0.0156952055441184,0.0210300609469414,0.0025));
#1036=CARTESIAN_POINT('',(-0.0156952055441184,0.00449760444462299,0.0025));
#1037=CARTESIAN_POINT('',(-0.0156952055441184,0.0489700609469414,0.0025));
#1038=CARTESIAN_POINT('',(-0.00172520554411838,0.0489700609469414,0.0025));
#1039=CARTESIAN_POINT('',(-0.00109020554411838,0.0350000609469414,0.00123));
#1040=CARTESIAN_POINT('',(-0.00109020554411838,0.0223000609469414,0.00123));
#1041=CARTESIAN_POINT('',(-0.00109020554411838,0.0223000609469414,0.00377));
#1042=CARTESIAN_POINT('',(-0.00109020554411838,0.0477000609469414,0.00123));
#1043=CARTESIAN_POINT('',(-0.00109020554411838,0.0477000609469414,0.00377));
#1044=CARTESIAN_POINT('',(-0.00109020554411838,0.0350000609469414,0.00377));
#1045=CARTESIAN_POINT('',(0.00494229445588162,0.0477000609469414,0.00123));
#1046=CARTESIAN_POINT('',(0.0109747944558816,0.0477000609469414,0.00123));
#1047=CARTESIAN_POINT('',(0.0109747944558816,0.0477000609469414,0.00377));
#1048=CARTESIAN_POINT('',(0.00494229445588162,0.0477000609469414,0.00377));
#1049=CARTESIAN_POINT('',(0.0109747944558816,0.0350000609469414,0.00123));
#1050=CARTESIAN_POINT('',(0.0109747944558816,0.0223000609469414,0.00123));
#1051=CARTESIAN_POINT('',(0.0109747944558816,0.0223000609469414,0.00377));
#1052=CARTESIAN_POINT('',(0.0109747944558816,0.0350000609469414,0.00377));
#1053=CARTESIAN_POINT('',(0.00486323453462689,0.05283654686925,0.00123));
#1054=CARTESIAN_POINT('',(0.000511481014121665,0.0502530588372763,0.00123));
#1055=CARTESIAN_POINT('',(0.000511481014121665,0.0502530588372763,0.00377));
#1056=CARTESIAN_POINT('',(0.0092149880551321,0.0554200349012236,0.00123));
#1057=CARTESIAN_POINT('',(0.0092149880551321,0.0554200349012236,0.00377));
#1058=CARTESIAN_POINT('',(0.00486323453462689,0.05283654686925,0.00377));
#1059=CARTESIAN_POINT('',(-0.00172520554411835,0.0489700609469414,0.00123));
#1060=CARTESIAN_POINT('',(0.0109747944558816,0.0489700609469414,0.00123));
#1061=CARTESIAN_POINT('',(0.0109747944558816,0.0489700609469414,0.00377));
#1062=CARTESIAN_POINT('',(-0.00172520554411835,0.0489700609469414,0.00377));
#1063=CARTESIAN_POINT('',(0.00591406269275241,0.0489700609469414,0.00123));
#1064=CARTESIAN_POINT('',(0.000853330929623192,0.0489700609469414,0.00123));
#1065=CARTESIAN_POINT('',(0.000853330929623192,0.0489700609469414,0.00377));
#1066=CARTESIAN_POINT('',(0.00591406269275241,0.0489700609469414,0.00377));
#1067=CARTESIAN_POINT('',(0.0122447944558816,0.0356350609469414,0.00123));
#1068=CARTESIAN_POINT('',(0.0122447944558816,0.0210300609469414,0.00123));
#1069=CARTESIAN_POINT('',(0.0122447944558816,0.0210300609469414,0.00377));
#1070=CARTESIAN_POINT('',(0.0122447944558816,0.0489700609469414,0.00123));
#1071=CARTESIAN_POINT('',(0.0122447944558816,0.0489700609469414,0.00377));
#1072=CARTESIAN_POINT('',(0.0122447944558816,0.0356350609469414,0.00377));
#1073=CARTESIAN_POINT('',(-0.00172520554411838,0.0489700609469414,0.00123));
#1074=CARTESIAN_POINT('',(-0.0156952055441184,0.0489700609469414,0.00123));
#1075=CARTESIAN_POINT('',(-0.0156952055441184,0.0489700609469414,0.00377));
#1076=CARTESIAN_POINT('',(-0.00172520554411838,0.0489700609469414,0.00377));
#1077=CARTESIAN_POINT('',(-0.0156952055441184,0.0356350609469414,0.00123));
#1078=CARTESIAN_POINT('',(-0.0156952055441184,0.0210300609469414,0.00123));
#1079=CARTESIAN_POINT('',(-0.0156952055441184,0.0210300609469414,0.00377));
#1080=CARTESIAN_POINT('',(-0.0156952055441184,0.0356350609469414,0.00377));
#1081=CARTESIAN_POINT('',(-0.00172520554411838,0.0489700609469414,0.00123));
#1082=CARTESIAN_POINT('',(-0.00147120554411839,0.0616675206928906,0.00123));
#1083=CARTESIAN_POINT('',(-0.00147120554411839,0.0616675206928906,0.00377));
#1084=CARTESIAN_POINT('',(0.0089482885470341,0.0558523951357275,0.00123));
#1085=CARTESIAN_POINT('',(0.0089482885470341,0.0558523951357275,0.00377));
#1086=CARTESIAN_POINT('',(-0.00172520554411838,0.0489700609469414,0.00377));
#1087=CARTESIAN_POINT('',(0.00453906197336556,0.0533067269865019,0.00123));
#1088=CARTESIAN_POINT('',(0.000129835399697024,0.0507610588372764,0.00123));
#1089=CARTESIAN_POINT('',(0.000129835399697024,0.0507610588372764,0.00377));
#1090=CARTESIAN_POINT('',(0.00453906197336556,0.0533067269865019,0.00377));
#1091=CARTESIAN_POINT('',(-0.00172520554411837,0.0489700609469414,0.00123));
#1092=CARTESIAN_POINT('',(-0.00147120554411839,0.0515360567276113,0.00123));
#1093=CARTESIAN_POINT('',(-0.00147120554411839,0.0515360567276113,0.00377));
#1094=CARTESIAN_POINT('',(-0.00172520554411837,0.0489700609469414,0.00377));
#1095=CARTESIAN_POINT('',(-0.00172520554411835,0.0489700609469414,0.00123));
#1096=CARTESIAN_POINT('',(-0.0123986996352708,0.0558523951357275,0.00123));
#1097=CARTESIAN_POINT('',(-0.0123986996352708,0.0558523951357275,0.00377));
#1098=CARTESIAN_POINT('',(-0.00197920554411838,0.0616675206928906,0.00123));
#1099=CARTESIAN_POINT('',(-0.00197920554411838,0.0616675206928906,0.00377));
#1100=CARTESIAN_POINT('',(-0.00172520554411835,0.0489700609469414,0.00377));
#1101=CARTESIAN_POINT('',(-0.00197920554411838,0.0566017887102509,0.00123));
#1102=CARTESIAN_POINT('',(-0.00197920554411838,0.0515360567276113,0.00123));
#1103=CARTESIAN_POINT('',(-0.00197920554411838,0.0515360567276113,0.00377));
#1104=CARTESIAN_POINT('',(-0.00197920554411838,0.0566017887102509,0.00377));
#1105=CARTESIAN_POINT('',(-0.00172520554411837,0.0489700609469414,0.00123));
#1106=CARTESIAN_POINT('',(-0.00358024648793375,0.0507610588372763,0.00123));
#1107=CARTESIAN_POINT('',(-0.00358024648793375,0.0507610588372763,0.00377));
#1108=CARTESIAN_POINT('',(-0.00172520554411837,0.0489700609469414,0.00377));
#1109=CARTESIAN_POINT('',(-0.00936447378098916,0.0489700609469414,0.00123));
#1110=CARTESIAN_POINT('',(-0.00430374201785995,0.0489700609469414,0.00123));
#1111=CARTESIAN_POINT('',(-0.00430374201785995,0.0489700609469414,0.00377));
#1112=CARTESIAN_POINT('',(-0.0144252055441184,0.0489700609469414,0.00123));
#1113=CARTESIAN_POINT('',(-0.0144252055441184,0.0489700609469414,0.00377));
#1114=CARTESIAN_POINT('',(-0.00936447378098916,0.0489700609469414,0.00377));
#1115=CARTESIAN_POINT('',(-0.00172520554411836,0.0489700609469414,0.00123));
#1116=CARTESIAN_POINT('',(-0.0126653991433688,0.0554200349012236,0.00123));
#1117=CARTESIAN_POINT('',(-0.0126653991433688,0.0554200349012236,0.00377));
#1118=CARTESIAN_POINT('',(-0.00172520554411836,0.0489700609469414,0.00377));
#1119=CARTESIAN_POINT('',(-0.00831364562286363,0.05283654686925,0.00123));
#1120=CARTESIAN_POINT('',(-0.00396189210235842,0.0502530588372764,0.00123));
#1121=CARTESIAN_POINT('',(-0.00396189210235842,0.0502530588372764,0.00377));
#1122=CARTESIAN_POINT('',(-0.00831364562286363,0.05283654686925,0.00377));
#1123=CARTESIAN_POINT('',(-0.0144252055441184,0.0350000609469414,0.00123));
#1124=CARTESIAN_POINT('',(-0.0144252055441184,0.0223000609469414,0.00123));
#1125=CARTESIAN_POINT('',(-0.0144252055441184,0.0223000609469414,0.00377));
#1126=CARTESIAN_POINT('',(-0.0144252055441184,0.0477000609469414,0.00123));
#1127=CARTESIAN_POINT('',(-0.0144252055441184,0.0477000609469414,0.00377));
#1128=CARTESIAN_POINT('',(-0.0144252055441184,0.0350000609469414,0.00377));
#1129=CARTESIAN_POINT('',(-0.00839270554411838,0.0477000609469414,0.00123));
#1130=CARTESIAN_POINT('',(-0.00236020554411838,0.0477000609469414,0.00123));
#1131=CARTESIAN_POINT('',(-0.00236020554411838,0.0477000609469414,0.00377));
#1132=CARTESIAN_POINT('',(-0.00839270554411838,0.0477000609469414,0.00377));
#1133=CARTESIAN_POINT('',(-0.00236020554411838,0.0350000609469414,0.00123));
#1134=CARTESIAN_POINT('',(-0.00236020554411838,0.0223000609469414,0.00123));
#1135=CARTESIAN_POINT('',(-0.00236020554411838,0.0223000609469414,0.00377));
#1136=CARTESIAN_POINT('',(-0.00236020554411838,0.0350000609469414,0.00377));
#1137=CARTESIAN_POINT('',(-0.00172520554411837,0.0489700609469414,0.00123));
#1138=CARTESIAN_POINT('',(-0.00172520554411837,0.0489700609469414,0.00377));
#1139=CARTESIAN_POINT('',(-0.00172520554411838,0.0210300609469414,0.00123));
#1140=CARTESIAN_POINT('',(-0.00172520554411838,0.0210300609469414,0.00377));
#1141=CARTESIAN_POINT('',(-0.00147120554411839,0.0566017887102509,0.00123));
#1142=CARTESIAN_POINT('',(-0.00147120554411839,0.0566017887102509,0.00377));
#1143=CARTESIAN_POINT('',(-0.00798947306160229,0.0533067269865019,0.00123));
#1144=CARTESIAN_POINT('',(-0.00798947306160229,0.0533067269865019,0.00377));
#1145=CARTESIAN_POINT('',(-0.00172520554411836,0.0489700609469414,0.00123));
#1146=CARTESIAN_POINT('',(-0.00172520554411836,0.0489700609469414,0.00377));
#1147=CARTESIAN_POINT('',(-0.00839270554411838,0.0223000609469414,0.00123));
#1148=CARTESIAN_POINT('',(-0.00839270554411838,0.0223000609469414,0.00377));
#1149=CARTESIAN_POINT('',(0.00494229445588162,0.0223000609469414,0.00123));
#1150=CARTESIAN_POINT('',(0.00494229445588162,0.0223000609469414,0.00377));
#1151=CARTESIAN_POINT('',(-0.00172520554411838,0.00449760444462299,0.00377));
#1152=MECHANICAL_DESIGN_GEOMETRIC_PRESENTATION_REPRESENTATION('',(#705),
#1153);
#1153=(
GEOMETRIC_REPRESENTATION_CONTEXT(3)
GLOBAL_UNCERTAINTY_ASSIGNED_CONTEXT((#1154))
GLOBAL_UNIT_ASSIGNED_CONTEXT((#1157,#1156,#1155))
REPRESENTATION_CONTEXT('Part 1','TOP_LEVEL_ASSEMBLY_PART')
);
#1154=UNCERTAINTY_MEASURE_WITH_UNIT(LENGTH_MEASURE(1.E-8),#1157,
'DISTANCE_ACCURACY_VALUE','Maximum Tolerance applied to model');
#1155=(
NAMED_UNIT(*)
SI_UNIT($,.STERADIAN.)
SOLID_ANGLE_UNIT()
);
#1156=(
NAMED_UNIT(*)
PLANE_ANGLE_UNIT()
SI_UNIT($,.RADIAN.)
);
#1157=(
LENGTH_UNIT()
NAMED_UNIT(*)
SI_UNIT($,.METRE.)
);
#1158=PRODUCT_DEFINITION_SHAPE('','',#1159);
#1159=PRODUCT_DEFINITION('','',#1161,#1160);
#1160=PRODUCT_DEFINITION_CONTEXT('',#1167,'design');
#1161=PRODUCT_DEFINITION_FORMATION_WITH_SPECIFIED_SOURCE('','',#1163,
 .NOT_KNOWN.);
#1162=PRODUCT_RELATED_PRODUCT_CATEGORY('','',(#1163));
#1163=PRODUCT('Part 1','Part 1','Part 1',(#1165));
#1164=PRODUCT_CATEGORY('','');
#1165=PRODUCT_CONTEXT('',#1167,'mechanical');
#1166=APPLICATION_PROTOCOL_DEFINITION('international standard',
'ap242_managed_model_based_3d_engineering',2020,#1167);
#1167=APPLICATION_CONTEXT('managed model based 3d engineering');
ENDSEC;
END-ISO-10303-21;
