ISO-10303-21;
HEADER;
/* Generated by software containing ST-Developer
 * from STEP Tools, Inc. (www.steptools.com) 
 */
/* OPTION: using custom renumber hook */

FILE_DESCRIPTION(
/* description */ ('STEP AP242 Edition 2',
'CAx-IF Rec.Pracs.---Representation and Presentation of Product Manufa
cturing Information (PMI)---4.0---2014-10-13',
'CAx-IF Rec.Pracs.---3D Tessellated Geometry---0.4---2014-09-14','2;1',
'CAx-IF Rec.Pracs.---User Defined Attributes---1.5---2016-08-15'),
/* implementation_level */ '2;1');

FILE_NAME(
/* name */ 'table Copy 1',
/* time_stamp */ '2026-09-13T04:24:00Z',
/* author */ (''),
/* organization */ (''),
/* preprocessor_version */ 'ST-DEVELOPER v20',
/* originating_system */ 'ONSHAPE BY PTC INC, 1.220',
/* authorisation */ '  ');

FILE_SCHEMA (('AP242_MANAGED_MODEL_BASED_3D_ENGINEERING_MIM_LF { 1 0 10303 442 3 1 4 }'));
ENDSEC;

DATA;
#10=LINE('',#614,#16);
#11=LINE('',#618,#17);
#12=LINE('',#622,#18);
#13=LINE('',#628,#19);
#14=LINE('',#634,#20);
#15=LINE('',#640,#21);
#16=VECTOR('',#504,1.);
#17=VECTOR('',#507,1.);
#18=VECTOR('',#512,1.);
#19=VECTOR('',#519,1.);
#20=VECTOR('',#526,1.);
#21=VECTOR('',#533,1.);
#22=COLOUR_RGB('',0.301960784313725,0.301960784313725,0.301960784313725);
#23=SHAPE_REPRESENTATION_RELATIONSHIP('','',#380,#27);
#24=SHAPE_REPRESENTATION_RELATIONSHIP('','',#381,#28);
#25=SHAPE_REPRESENTATION_RELATIONSHIP('','',#382,#29);
#26=SHAPE_REPRESENTATION_RELATIONSHIP('','',#383,#30);
#27=ADVANCED_BREP_SHAPE_REPRESENTATION('',(#372),#670);
#28=ADVANCED_BREP_SHAPE_REPRESENTATION('',(#373),#671);
#29=ADVANCED_BREP_SHAPE_REPRESENTATION('',(#374),#672);
#30=ADVANCED_BREP_SHAPE_REPRESENTATION('',(#375),#673);
#31=PLANE('',#391);
#32=PLANE('',#392);
#33=PLANE('',#400);
#34=PLANE('',#401);
#35=PLANE('',#409);
#36=PLANE('',#410);
#37=PLANE('',#430);
#38=PLANE('',#434);
#39=PLANE('',#437);
#40=PLANE('',#440);
#41=PLANE('',#443);
#42=ORIENTED_EDGE('',*,*,#114,.F.);
#43=ORIENTED_EDGE('',*,*,#115,.T.);
#44=ORIENTED_EDGE('',*,*,#116,.T.);
#45=ORIENTED_EDGE('',*,*,#117,.F.);
#46=ORIENTED_EDGE('',*,*,#114,.T.);
#47=ORIENTED_EDGE('',*,*,#116,.F.);
#48=ORIENTED_EDGE('',*,*,#115,.F.);
#49=ORIENTED_EDGE('',*,*,#117,.T.);
#50=ORIENTED_EDGE('',*,*,#118,.F.);
#51=ORIENTED_EDGE('',*,*,#119,.T.);
#52=ORIENTED_EDGE('',*,*,#120,.T.);
#53=ORIENTED_EDGE('',*,*,#121,.F.);
#54=ORIENTED_EDGE('',*,*,#118,.T.);
#55=ORIENTED_EDGE('',*,*,#120,.F.);
#56=ORIENTED_EDGE('',*,*,#119,.F.);
#57=ORIENTED_EDGE('',*,*,#121,.T.);
#58=ORIENTED_EDGE('',*,*,#122,.F.);
#59=ORIENTED_EDGE('',*,*,#123,.T.);
#60=ORIENTED_EDGE('',*,*,#124,.T.);
#61=ORIENTED_EDGE('',*,*,#125,.F.);
#62=ORIENTED_EDGE('',*,*,#122,.T.);
#63=ORIENTED_EDGE('',*,*,#124,.F.);
#64=ORIENTED_EDGE('',*,*,#123,.F.);
#65=ORIENTED_EDGE('',*,*,#125,.T.);
#66=ORIENTED_EDGE('',*,*,#126,.F.);
#67=ORIENTED_EDGE('',*,*,#127,.F.);
#68=ORIENTED_EDGE('',*,*,#128,.T.);
#69=ORIENTED_EDGE('',*,*,#129,.T.);
#70=ORIENTED_EDGE('',*,*,#130,.T.);
#71=ORIENTED_EDGE('',*,*,#131,.F.);
#72=ORIENTED_EDGE('',*,*,#132,.F.);
#73=ORIENTED_EDGE('',*,*,#127,.T.);
#74=ORIENTED_EDGE('',*,*,#133,.F.);
#75=ORIENTED_EDGE('',*,*,#134,.F.);
#76=ORIENTED_EDGE('',*,*,#135,.T.);
#77=ORIENTED_EDGE('',*,*,#131,.T.);
#78=ORIENTED_EDGE('',*,*,#136,.T.);
#79=ORIENTED_EDGE('',*,*,#137,.F.);
#80=ORIENTED_EDGE('',*,*,#138,.F.);
#81=ORIENTED_EDGE('',*,*,#134,.T.);
#82=ORIENTED_EDGE('',*,*,#139,.F.);
#83=ORIENTED_EDGE('',*,*,#140,.F.);
#84=ORIENTED_EDGE('',*,*,#141,.T.);
#85=ORIENTED_EDGE('',*,*,#137,.T.);
#86=ORIENTED_EDGE('',*,*,#142,.T.);
#87=ORIENTED_EDGE('',*,*,#129,.F.);
#88=ORIENTED_EDGE('',*,*,#143,.F.);
#89=ORIENTED_EDGE('',*,*,#140,.T.);
#90=ORIENTED_EDGE('',*,*,#144,.F.);
#91=ORIENTED_EDGE('',*,*,#145,.F.);
#92=ORIENTED_EDGE('',*,*,#128,.F.);
#93=ORIENTED_EDGE('',*,*,#132,.T.);
#94=ORIENTED_EDGE('',*,*,#135,.F.);
#95=ORIENTED_EDGE('',*,*,#138,.T.);
#96=ORIENTED_EDGE('',*,*,#141,.F.);
#97=ORIENTED_EDGE('',*,*,#143,.T.);
#98=ORIENTED_EDGE('',*,*,#146,.F.);
#99=ORIENTED_EDGE('',*,*,#126,.T.);
#100=ORIENTED_EDGE('',*,*,#142,.F.);
#101=ORIENTED_EDGE('',*,*,#139,.T.);
#102=ORIENTED_EDGE('',*,*,#136,.F.);
#103=ORIENTED_EDGE('',*,*,#133,.T.);
#104=ORIENTED_EDGE('',*,*,#130,.F.);
#105=ORIENTED_EDGE('',*,*,#144,.T.);
#106=ORIENTED_EDGE('',*,*,#147,.F.);
#107=ORIENTED_EDGE('',*,*,#147,.T.);
#108=ORIENTED_EDGE('',*,*,#145,.T.);
#109=ORIENTED_EDGE('',*,*,#148,.F.);
#110=ORIENTED_EDGE('',*,*,#148,.T.);
#111=ORIENTED_EDGE('',*,*,#146,.T.);
#112=ORIENTED_EDGE('',*,*,#149,.F.);
#113=ORIENTED_EDGE('',*,*,#149,.T.);
#114=EDGE_CURVE('',#150,#150,#180,.T.);
#115=EDGE_CURVE('',#151,#151,#181,.T.);
#116=EDGE_CURVE('',#152,#152,#182,.T.);
#117=EDGE_CURVE('',#153,#153,#183,.T.);
#118=EDGE_CURVE('',#154,#154,#184,.T.);
#119=EDGE_CURVE('',#155,#155,#185,.T.);
#120=EDGE_CURVE('',#156,#156,#186,.T.);
#121=EDGE_CURVE('',#157,#157,#187,.T.);
#122=EDGE_CURVE('',#158,#158,#188,.T.);
#123=EDGE_CURVE('',#159,#159,#189,.T.);
#124=EDGE_CURVE('',#160,#160,#190,.T.);
#125=EDGE_CURVE('',#161,#161,#191,.T.);
#126=EDGE_CURVE('',#162,#163,#192,.T.);
#127=EDGE_CURVE('',#164,#162,#10,.T.);
#128=EDGE_CURVE('',#164,#165,#193,.T.);
#129=EDGE_CURVE('',#165,#163,#11,.T.);
#130=EDGE_CURVE('',#162,#166,#194,.T.);
#131=EDGE_CURVE('',#167,#166,#12,.T.);
#132=EDGE_CURVE('',#164,#167,#195,.T.);
#133=EDGE_CURVE('',#168,#166,#196,.T.);
#134=EDGE_CURVE('',#169,#168,#13,.T.);
#135=EDGE_CURVE('',#169,#167,#197,.T.);
#136=EDGE_CURVE('',#168,#170,#198,.T.);
#137=EDGE_CURVE('',#171,#170,#14,.T.);
#138=EDGE_CURVE('',#169,#171,#199,.T.);
#139=EDGE_CURVE('',#172,#170,#200,.T.);
#140=EDGE_CURVE('',#173,#172,#15,.T.);
#141=EDGE_CURVE('',#173,#171,#201,.T.);
#142=EDGE_CURVE('',#172,#163,#202,.T.);
#143=EDGE_CURVE('',#173,#165,#203,.T.);
#144=EDGE_CURVE('',#174,#174,#204,.T.);
#145=EDGE_CURVE('',#175,#175,#205,.T.);
#146=EDGE_CURVE('',#176,#176,#206,.T.);
#147=EDGE_CURVE('',#177,#177,#207,.T.);
#148=EDGE_CURVE('',#178,#178,#208,.T.);
#149=EDGE_CURVE('',#179,#179,#209,.T.);
#150=VERTEX_POINT('',#573);
#151=VERTEX_POINT('',#575);
#152=VERTEX_POINT('',#578);
#153=VERTEX_POINT('',#580);
#154=VERTEX_POINT('',#586);
#155=VERTEX_POINT('',#588);
#156=VERTEX_POINT('',#591);
#157=VERTEX_POINT('',#593);
#158=VERTEX_POINT('',#599);
#159=VERTEX_POINT('',#601);
#160=VERTEX_POINT('',#604);
#161=VERTEX_POINT('',#606);
#162=VERTEX_POINT('',#612);
#163=VERTEX_POINT('',#613);
#164=VERTEX_POINT('',#615);
#165=VERTEX_POINT('',#617);
#166=VERTEX_POINT('',#621);
#167=VERTEX_POINT('',#623);
#168=VERTEX_POINT('',#627);
#169=VERTEX_POINT('',#629);
#170=VERTEX_POINT('',#633);
#171=VERTEX_POINT('',#635);
#172=VERTEX_POINT('',#639);
#173=VERTEX_POINT('',#641);
#174=VERTEX_POINT('',#648);
#175=VERTEX_POINT('',#650);
#176=VERTEX_POINT('',#652);
#177=VERTEX_POINT('',#656);
#178=VERTEX_POINT('',#660);
#179=VERTEX_POINT('',#664);
#180=CIRCLE('',#386,0.0127);
#181=CIRCLE('',#387,0.0127);
#182=CIRCLE('',#389,0.000635);
#183=CIRCLE('',#390,0.000635);
#184=CIRCLE('',#395,0.0127);
#185=CIRCLE('',#396,0.0127);
#186=CIRCLE('',#398,0.000635);
#187=CIRCLE('',#399,0.000635);
#188=CIRCLE('',#404,0.0127);
#189=CIRCLE('',#405,0.0127);
#190=CIRCLE('',#407,0.000635);
#191=CIRCLE('',#408,0.000635);
#192=CIRCLE('',#413,0.0177799999999996);
#193=CIRCLE('',#414,0.0177799999999996);
#194=CIRCLE('',#416,0.00635);
#195=CIRCLE('',#417,0.00635);
#196=CIRCLE('',#419,0.0508000000000021);
#197=CIRCLE('',#420,0.0508000000000021);
#198=CIRCLE('',#422,0.00635);
#199=CIRCLE('',#423,0.00635);
#200=CIRCLE('',#425,0.0177799999999898);
#201=CIRCLE('',#426,0.0177799999999898);
#202=CIRCLE('',#428,0.00635);
#203=CIRCLE('',#429,0.00635);
#204=CIRCLE('',#431,0.001905);
#205=CIRCLE('',#432,0.001905);
#206=CIRCLE('',#433,0.001905);
#207=CIRCLE('',#436,0.001905);
#208=CIRCLE('',#439,0.001905);
#209=CIRCLE('',#442,0.001905);
#210=EDGE_LOOP('',(#42));
#211=EDGE_LOOP('',(#43));
#212=EDGE_LOOP('',(#44));
#213=EDGE_LOOP('',(#45));
#214=EDGE_LOOP('',(#46));
#215=EDGE_LOOP('',(#47));
#216=EDGE_LOOP('',(#48));
#217=EDGE_LOOP('',(#49));
#218=EDGE_LOOP('',(#50));
#219=EDGE_LOOP('',(#51));
#220=EDGE_LOOP('',(#52));
#221=EDGE_LOOP('',(#53));
#222=EDGE_LOOP('',(#54));
#223=EDGE_LOOP('',(#55));
#224=EDGE_LOOP('',(#56));
#225=EDGE_LOOP('',(#57));
#226=EDGE_LOOP('',(#58));
#227=EDGE_LOOP('',(#59));
#228=EDGE_LOOP('',(#60));
#229=EDGE_LOOP('',(#61));
#230=EDGE_LOOP('',(#62));
#231=EDGE_LOOP('',(#63));
#232=EDGE_LOOP('',(#64));
#233=EDGE_LOOP('',(#65));
#234=EDGE_LOOP('',(#66,#67,#68,#69));
#235=EDGE_LOOP('',(#70,#71,#72,#73));
#236=EDGE_LOOP('',(#74,#75,#76,#77));
#237=EDGE_LOOP('',(#78,#79,#80,#81));
#238=EDGE_LOOP('',(#82,#83,#84,#85));
#239=EDGE_LOOP('',(#86,#87,#88,#89));
#240=EDGE_LOOP('',(#90));
#241=EDGE_LOOP('',(#91));
#242=EDGE_LOOP('',(#92,#93,#94,#95,#96,#97));
#243=EDGE_LOOP('',(#98));
#244=EDGE_LOOP('',(#99,#100,#101,#102,#103,#104));
#245=EDGE_LOOP('',(#105));
#246=EDGE_LOOP('',(#106));
#247=EDGE_LOOP('',(#107));
#248=EDGE_LOOP('',(#108));
#249=EDGE_LOOP('',(#109));
#250=EDGE_LOOP('',(#110));
#251=EDGE_LOOP('',(#111));
#252=EDGE_LOOP('',(#112));
#253=EDGE_LOOP('',(#113));
#254=FACE_BOUND('',#210,.T.);
#255=FACE_BOUND('',#211,.T.);
#256=FACE_BOUND('',#212,.T.);
#257=FACE_BOUND('',#213,.T.);
#258=FACE_BOUND('',#214,.T.);
#259=FACE_BOUND('',#215,.T.);
#260=FACE_BOUND('',#216,.T.);
#261=FACE_BOUND('',#217,.T.);
#262=FACE_BOUND('',#218,.T.);
#263=FACE_BOUND('',#219,.T.);
#264=FACE_BOUND('',#220,.T.);
#265=FACE_BOUND('',#221,.T.);
#266=FACE_BOUND('',#222,.T.);
#267=FACE_BOUND('',#223,.T.);
#268=FACE_BOUND('',#224,.T.);
#269=FACE_BOUND('',#225,.T.);
#270=FACE_BOUND('',#226,.T.);
#271=FACE_BOUND('',#227,.T.);
#272=FACE_BOUND('',#228,.T.);
#273=FACE_BOUND('',#229,.T.);
#274=FACE_BOUND('',#230,.T.);
#275=FACE_BOUND('',#231,.T.);
#276=FACE_BOUND('',#232,.T.);
#277=FACE_BOUND('',#233,.T.);
#278=FACE_BOUND('',#234,.T.);
#279=FACE_BOUND('',#235,.T.);
#280=FACE_BOUND('',#236,.T.);
#281=FACE_BOUND('',#237,.T.);
#282=FACE_BOUND('',#238,.T.);
#283=FACE_BOUND('',#239,.T.);
#284=FACE_BOUND('',#240,.T.);
#285=FACE_BOUND('',#241,.T.);
#286=FACE_BOUND('',#242,.T.);
#287=FACE_BOUND('',#243,.T.);
#288=FACE_BOUND('',#244,.T.);
#289=FACE_BOUND('',#245,.T.);
#290=FACE_BOUND('',#246,.T.);
#291=FACE_BOUND('',#247,.T.);
#292=FACE_BOUND('',#248,.T.);
#293=FACE_BOUND('',#249,.T.);
#294=FACE_BOUND('',#250,.T.);
#295=FACE_BOUND('',#251,.T.);
#296=FACE_BOUND('',#252,.T.);
#297=FACE_BOUND('',#253,.T.);
#298=CYLINDRICAL_SURFACE('',#385,0.0127);
#299=CYLINDRICAL_SURFACE('',#388,0.000635);
#300=CYLINDRICAL_SURFACE('',#394,0.0127);
#301=CYLINDRICAL_SURFACE('',#397,0.000635);
#302=CYLINDRICAL_SURFACE('',#403,0.0127);
#303=CYLINDRICAL_SURFACE('',#406,0.000635);
#304=CYLINDRICAL_SURFACE('',#412,0.0177799999999996);
#305=CYLINDRICAL_SURFACE('',#415,0.00635);
#306=CYLINDRICAL_SURFACE('',#418,0.0508000000000021);
#307=CYLINDRICAL_SURFACE('',#421,0.00635);
#308=CYLINDRICAL_SURFACE('',#424,0.0177799999999898);
#309=CYLINDRICAL_SURFACE('',#427,0.00635);
#310=CYLINDRICAL_SURFACE('',#435,0.001905);
#311=CYLINDRICAL_SURFACE('',#438,0.001905);
#312=CYLINDRICAL_SURFACE('',#441,0.001905);
#313=ADVANCED_FACE('',(#254,#255),#298,.T.);
#314=ADVANCED_FACE('',(#256,#257),#299,.F.);
#315=ADVANCED_FACE('',(#258,#259),#31,.T.);
#316=ADVANCED_FACE('',(#260,#261),#32,.F.);
#317=ADVANCED_FACE('',(#262,#263),#300,.T.);
#318=ADVANCED_FACE('',(#264,#265),#301,.F.);
#319=ADVANCED_FACE('',(#266,#267),#33,.T.);
#320=ADVANCED_FACE('',(#268,#269),#34,.F.);
#321=ADVANCED_FACE('',(#270,#271),#302,.T.);
#322=ADVANCED_FACE('',(#272,#273),#303,.F.);
#323=ADVANCED_FACE('',(#274,#275),#35,.T.);
#324=ADVANCED_FACE('',(#276,#277),#36,.F.);
#325=ADVANCED_FACE('',(#278),#304,.F.);
#326=ADVANCED_FACE('',(#279),#305,.T.);
#327=ADVANCED_FACE('',(#280),#306,.F.);
#328=ADVANCED_FACE('',(#281),#307,.T.);
#329=ADVANCED_FACE('',(#282),#308,.F.);
#330=ADVANCED_FACE('',(#283),#309,.T.);
#331=ADVANCED_FACE('',(#284,#285,#286,#287),#37,.T.);
#332=ADVANCED_FACE('',(#288),#38,.F.);
#333=ADVANCED_FACE('',(#289,#290),#310,.T.);
#334=ADVANCED_FACE('',(#291),#39,.T.);
#335=ADVANCED_FACE('',(#292,#293),#311,.T.);
#336=ADVANCED_FACE('',(#294),#40,.T.);
#337=ADVANCED_FACE('',(#295,#296),#312,.T.);
#338=ADVANCED_FACE('',(#297),#41,.T.);
#339=CLOSED_SHELL('',(#313,#314,#315,#316));
#340=CLOSED_SHELL('',(#317,#318,#319,#320));
#341=CLOSED_SHELL('',(#321,#322,#323,#324));
#342=CLOSED_SHELL('',(#325,#326,#327,#328,#329,#330,#331,#332,#333,#334,
#335,#336,#337,#338));
#343=STYLED_ITEM('',(#347),#372);
#344=STYLED_ITEM('',(#348),#373);
#345=STYLED_ITEM('',(#349),#374);
#346=STYLED_ITEM('',(#350),#375);
#347=PRESENTATION_STYLE_ASSIGNMENT((#351));
#348=PRESENTATION_STYLE_ASSIGNMENT((#352));
#349=PRESENTATION_STYLE_ASSIGNMENT((#353));
#350=PRESENTATION_STYLE_ASSIGNMENT((#354));
#351=SURFACE_STYLE_USAGE(.BOTH.,#355);
#352=SURFACE_STYLE_USAGE(.BOTH.,#356);
#353=SURFACE_STYLE_USAGE(.BOTH.,#357);
#354=SURFACE_STYLE_USAGE(.BOTH.,#358);
#355=SURFACE_SIDE_STYLE('',(#359));
#356=SURFACE_SIDE_STYLE('',(#360));
#357=SURFACE_SIDE_STYLE('',(#361));
#358=SURFACE_SIDE_STYLE('',(#362));
#359=SURFACE_STYLE_FILL_AREA(#363);
#360=SURFACE_STYLE_FILL_AREA(#364);
#361=SURFACE_STYLE_FILL_AREA(#365);
#362=SURFACE_STYLE_FILL_AREA(#366);
#363=FILL_AREA_STYLE('',(#367));
#364=FILL_AREA_STYLE('',(#368));
#365=FILL_AREA_STYLE('',(#369));
#366=FILL_AREA_STYLE('',(#370));
#367=FILL_AREA_STYLE_COLOUR('',#371);
#368=FILL_AREA_STYLE_COLOUR('',#371);
#369=FILL_AREA_STYLE_COLOUR('',#371);
#370=FILL_AREA_STYLE_COLOUR('',#22);
#371=DRAUGHTING_PRE_DEFINED_COLOUR('black');
#372=MANIFOLD_SOLID_BREP('Part 4',#339);
#373=MANIFOLD_SOLID_BREP('Part 2',#340);
#374=MANIFOLD_SOLID_BREP('Part 3',#341);
#375=MANIFOLD_SOLID_BREP('Part 1',#342);
#376=SHAPE_DEFINITION_REPRESENTATION(#690,#380);
#377=SHAPE_DEFINITION_REPRESENTATION(#691,#381);
#378=SHAPE_DEFINITION_REPRESENTATION(#692,#382);
#379=SHAPE_DEFINITION_REPRESENTATION(#693,#383);
#380=SHAPE_REPRESENTATION('Part 4',(#384),#670);
#381=SHAPE_REPRESENTATION('Part 2',(#393),#671);
#382=SHAPE_REPRESENTATION('Part 3',(#402),#672);
#383=SHAPE_REPRESENTATION('Part 1',(#411),#673);
#384=AXIS2_PLACEMENT_3D('',#570,#444,#445);
#385=AXIS2_PLACEMENT_3D('',#571,#446,#447);
#386=AXIS2_PLACEMENT_3D('',#572,#448,#449);
#387=AXIS2_PLACEMENT_3D('',#574,#450,#451);
#388=AXIS2_PLACEMENT_3D('',#576,#452,#453);
#389=AXIS2_PLACEMENT_3D('',#577,#454,#455);
#390=AXIS2_PLACEMENT_3D('',#579,#456,#457);
#391=AXIS2_PLACEMENT_3D('',#581,#458,#459);
#392=AXIS2_PLACEMENT_3D('',#582,#460,#461);
#393=AXIS2_PLACEMENT_3D('',#583,#462,#463);
#394=AXIS2_PLACEMENT_3D('',#584,#464,#465);
#395=AXIS2_PLACEMENT_3D('',#585,#466,#467);
#396=AXIS2_PLACEMENT_3D('',#587,#468,#469);
#397=AXIS2_PLACEMENT_3D('',#589,#470,#471);
#398=AXIS2_PLACEMENT_3D('',#590,#472,#473);
#399=AXIS2_PLACEMENT_3D('',#592,#474,#475);
#400=AXIS2_PLACEMENT_3D('',#594,#476,#477);
#401=AXIS2_PLACEMENT_3D('',#595,#478,#479);
#402=AXIS2_PLACEMENT_3D('',#596,#480,#481);
#403=AXIS2_PLACEMENT_3D('',#597,#482,#483);
#404=AXIS2_PLACEMENT_3D('',#598,#484,#485);
#405=AXIS2_PLACEMENT_3D('',#600,#486,#487);
#406=AXIS2_PLACEMENT_3D('',#602,#488,#489);
#407=AXIS2_PLACEMENT_3D('',#603,#490,#491);
#408=AXIS2_PLACEMENT_3D('',#605,#492,#493);
#409=AXIS2_PLACEMENT_3D('',#607,#494,#495);
#410=AXIS2_PLACEMENT_3D('',#608,#496,#497);
#411=AXIS2_PLACEMENT_3D('',#609,#498,#499);
#412=AXIS2_PLACEMENT_3D('',#610,#500,#501);
#413=AXIS2_PLACEMENT_3D('',#611,#502,#503);
#414=AXIS2_PLACEMENT_3D('',#616,#505,#506);
#415=AXIS2_PLACEMENT_3D('',#619,#508,#509);
#416=AXIS2_PLACEMENT_3D('',#620,#510,#511);
#417=AXIS2_PLACEMENT_3D('',#624,#513,#514);
#418=AXIS2_PLACEMENT_3D('',#625,#515,#516);
#419=AXIS2_PLACEMENT_3D('',#626,#517,#518);
#420=AXIS2_PLACEMENT_3D('',#630,#520,#521);
#421=AXIS2_PLACEMENT_3D('',#631,#522,#523);
#422=AXIS2_PLACEMENT_3D('',#632,#524,#525);
#423=AXIS2_PLACEMENT_3D('',#636,#527,#528);
#424=AXIS2_PLACEMENT_3D('',#637,#529,#530);
#425=AXIS2_PLACEMENT_3D('',#638,#531,#532);
#426=AXIS2_PLACEMENT_3D('',#642,#534,#535);
#427=AXIS2_PLACEMENT_3D('',#643,#536,#537);
#428=AXIS2_PLACEMENT_3D('',#644,#538,#539);
#429=AXIS2_PLACEMENT_3D('',#645,#540,#541);
#430=AXIS2_PLACEMENT_3D('',#646,#542,#543);
#431=AXIS2_PLACEMENT_3D('',#647,#544,#545);
#432=AXIS2_PLACEMENT_3D('',#649,#546,#547);
#433=AXIS2_PLACEMENT_3D('',#651,#548,#549);
#434=AXIS2_PLACEMENT_3D('',#653,#550,#551);
#435=AXIS2_PLACEMENT_3D('',#654,#552,#553);
#436=AXIS2_PLACEMENT_3D('',#655,#554,#555);
#437=AXIS2_PLACEMENT_3D('',#657,#556,#557);
#438=AXIS2_PLACEMENT_3D('',#658,#558,#559);
#439=AXIS2_PLACEMENT_3D('',#659,#560,#561);
#440=AXIS2_PLACEMENT_3D('',#661,#562,#563);
#441=AXIS2_PLACEMENT_3D('',#662,#564,#565);
#442=AXIS2_PLACEMENT_3D('',#663,#566,#567);
#443=AXIS2_PLACEMENT_3D('',#665,#568,#569);
#444=DIRECTION('',(0.,0.,1.));
#445=DIRECTION('',(1.,0.,0.));
#446=DIRECTION('',(0.,0.,-1.));
#447=DIRECTION('',(-1.,0.,0.));
#448=DIRECTION('',(0.,0.,1.));
#449=DIRECTION('',(1.,0.,0.));
#450=DIRECTION('',(0.,0.,1.));
#451=DIRECTION('',(1.,0.,0.));
#452=DIRECTION('',(0.,0.,-1.));
#453=DIRECTION('',(-1.,0.,0.));
#454=DIRECTION('',(0.,0.,1.));
#455=DIRECTION('',(1.,0.,0.));
#456=DIRECTION('',(0.,0.,1.));
#457=DIRECTION('',(1.,0.,0.));
#458=DIRECTION('',(0.,0.,1.));
#459=DIRECTION('',(1.,0.,0.));
#460=DIRECTION('',(0.,0.,1.));
#461=DIRECTION('',(1.,0.,0.));
#462=DIRECTION('',(0.,0.,1.));
#463=DIRECTION('',(1.,0.,0.));
#464=DIRECTION('',(0.,0.,-1.));
#465=DIRECTION('',(-1.,0.,0.));
#466=DIRECTION('',(0.,0.,1.));
#467=DIRECTION('',(1.,0.,0.));
#468=DIRECTION('',(0.,0.,1.));
#469=DIRECTION('',(1.,0.,0.));
#470=DIRECTION('',(0.,0.,-1.));
#471=DIRECTION('',(-1.,0.,0.));
#472=DIRECTION('',(0.,0.,1.));
#473=DIRECTION('',(1.,0.,0.));
#474=DIRECTION('',(0.,0.,1.));
#475=DIRECTION('',(1.,0.,0.));
#476=DIRECTION('',(0.,0.,1.));
#477=DIRECTION('',(1.,0.,0.));
#478=DIRECTION('',(0.,0.,1.));
#479=DIRECTION('',(1.,0.,0.));
#480=DIRECTION('',(0.,0.,1.));
#481=DIRECTION('',(1.,0.,0.));
#482=DIRECTION('',(0.,0.,-1.));
#483=DIRECTION('',(-1.,0.,0.));
#484=DIRECTION('',(0.,0.,1.));
#485=DIRECTION('',(1.,0.,0.));
#486=DIRECTION('',(0.,0.,1.));
#487=DIRECTION('',(1.,0.,0.));
#488=DIRECTION('',(0.,0.,-1.));
#489=DIRECTION('',(-1.,0.,0.));
#490=DIRECTION('',(0.,0.,1.));
#491=DIRECTION('',(1.,0.,0.));
#492=DIRECTION('',(0.,0.,1.));
#493=DIRECTION('',(1.,0.,0.));
#494=DIRECTION('',(0.,0.,1.));
#495=DIRECTION('',(1.,0.,0.));
#496=DIRECTION('',(0.,0.,1.));
#497=DIRECTION('',(1.,0.,0.));
#498=DIRECTION('',(0.,0.,1.));
#499=DIRECTION('',(1.,0.,0.));
#500=DIRECTION('',(0.,0.,-1.));
#501=DIRECTION('',(-1.,0.,0.));
#502=DIRECTION('',(0.,0.,1.));
#503=DIRECTION('',(1.,0.,0.));
#504=DIRECTION('',(0.,0.,-1.));
#505=DIRECTION('',(0.,0.,1.));
#506=DIRECTION('',(1.,0.,0.));
#507=DIRECTION('',(0.,0.,-1.));
#508=DIRECTION('',(0.,0.,-1.));
#509=DIRECTION('',(-1.,0.,0.));
#510=DIRECTION('',(0.,0.,1.));
#511=DIRECTION('',(1.,0.,0.));
#512=DIRECTION('',(0.,0.,-1.));
#513=DIRECTION('',(0.,0.,1.));
#514=DIRECTION('',(1.,0.,0.));
#515=DIRECTION('',(0.,0.,-1.));
#516=DIRECTION('',(-1.,0.,0.));
#517=DIRECTION('',(0.,0.,1.));
#518=DIRECTION('',(1.,0.,0.));
#519=DIRECTION('',(0.,0.,-1.));
#520=DIRECTION('',(0.,0.,1.));
#521=DIRECTION('',(1.,0.,0.));
#522=DIRECTION('',(0.,0.,-1.));
#523=DIRECTION('',(-1.,0.,0.));
#524=DIRECTION('',(0.,0.,1.));
#525=DIRECTION('',(1.,0.,0.));
#526=DIRECTION('',(0.,0.,-1.));
#527=DIRECTION('',(0.,0.,1.));
#528=DIRECTION('',(1.,0.,0.));
#529=DIRECTION('',(0.,0.,-1.));
#530=DIRECTION('',(-1.,0.,0.));
#531=DIRECTION('',(0.,0.,1.));
#532=DIRECTION('',(1.,0.,0.));
#533=DIRECTION('',(0.,0.,-1.));
#534=DIRECTION('',(0.,0.,1.));
#535=DIRECTION('',(1.,0.,0.));
#536=DIRECTION('',(0.,0.,-1.));
#537=DIRECTION('',(-1.,0.,0.));
#538=DIRECTION('',(0.,0.,1.));
#539=DIRECTION('',(1.,0.,0.));
#540=DIRECTION('',(0.,0.,1.));
#541=DIRECTION('',(1.,0.,0.));
#542=DIRECTION('',(0.,0.,1.));
#543=DIRECTION('',(1.,0.,0.));
#544=DIRECTION('',(0.,0.,1.));
#545=DIRECTION('',(1.,0.,0.));
#546=DIRECTION('',(0.,0.,1.));
#547=DIRECTION('',(1.,0.,0.));
#548=DIRECTION('',(0.,0.,1.));
#549=DIRECTION('',(1.,0.,0.));
#550=DIRECTION('',(0.,0.,1.));
#551=DIRECTION('',(1.,0.,0.));
#552=DIRECTION('',(0.,0.,-1.));
#553=DIRECTION('',(-1.,0.,0.));
#554=DIRECTION('',(0.,0.,1.));
#555=DIRECTION('',(1.,0.,0.));
#556=DIRECTION('',(0.,0.,1.));
#557=DIRECTION('',(1.,0.,0.));
#558=DIRECTION('',(0.,0.,-1.));
#559=DIRECTION('',(-1.,0.,0.));
#560=DIRECTION('',(0.,0.,1.));
#561=DIRECTION('',(1.,0.,0.));
#562=DIRECTION('',(0.,0.,1.));
#563=DIRECTION('',(1.,0.,0.));
#564=DIRECTION('',(0.,0.,-1.));
#565=DIRECTION('',(-1.,0.,0.));
#566=DIRECTION('',(0.,0.,1.));
#567=DIRECTION('',(1.,0.,0.));
#568=DIRECTION('',(0.,0.,1.));
#569=DIRECTION('',(1.,0.,0.));
#570=CARTESIAN_POINT('',(0.,0.,0.));
#571=CARTESIAN_POINT('',(0.0136580583967666,0.0179587621203951,0.02032));
#572=CARTESIAN_POINT('',(0.0136580583967666,0.0179587621203951,0.02032));
#573=CARTESIAN_POINT('',(0.0263580583967666,0.0179587621203951,0.02032));
#574=CARTESIAN_POINT('',(0.0136580583967666,0.0179587621203951,0.01905));
#575=CARTESIAN_POINT('',(0.0263580583967666,0.0179587621203951,0.01905));
#576=CARTESIAN_POINT('',(0.0136580583967666,0.0179587621203951,0.02032));
#577=CARTESIAN_POINT('',(0.0136580583967666,0.0179587621203951,0.02032));
#578=CARTESIAN_POINT('',(0.0142930583967666,0.0179587621203951,0.02032));
#579=CARTESIAN_POINT('',(0.0136580583967666,0.0179587621203951,0.01905));
#580=CARTESIAN_POINT('',(0.0142930583967666,0.0179587621203951,0.01905));
#581=CARTESIAN_POINT('',(0.0136580583967666,0.0179587621203951,0.02032));
#582=CARTESIAN_POINT('',(0.0136580583967666,0.0179587621203951,0.01905));
#583=CARTESIAN_POINT('',(0.,0.,0.));
#584=CARTESIAN_POINT('',(-0.0117172124861976,0.0168382142114726,0.02667));
#585=CARTESIAN_POINT('',(-0.0117172124861976,0.0168382142114726,0.02667));
#586=CARTESIAN_POINT('',(0.000982787513802401,0.0168382142114726,0.02667));
#587=CARTESIAN_POINT('',(-0.0117172124861976,0.0168382142114726,0.0254));
#588=CARTESIAN_POINT('',(0.000982787513802401,0.0168382142114726,0.0254));
#589=CARTESIAN_POINT('',(-0.0117172124861976,0.0168382142114726,0.02667));
#590=CARTESIAN_POINT('',(-0.0117172124861976,0.0168382142114726,0.02667));
#591=CARTESIAN_POINT('',(-0.0110822124861976,0.0168382142114726,0.02667));
#592=CARTESIAN_POINT('',(-0.0117172124861976,0.0168382142114726,0.0254));
#593=CARTESIAN_POINT('',(-0.0110822124861976,0.0168382142114726,0.0254));
#594=CARTESIAN_POINT('',(-0.0117172124861976,0.0168382142114726,0.02667));
#595=CARTESIAN_POINT('',(-0.0117172124861976,0.0168382142114726,0.0254));
#596=CARTESIAN_POINT('',(0.,0.,0.));
#597=CARTESIAN_POINT('',(-3.46944695195361E-18,0.0393741173784924,0.02286));
#598=CARTESIAN_POINT('',(-3.46944695195361E-18,0.0393741173784924,0.02286));
#599=CARTESIAN_POINT('',(0.0127,0.0393741173784924,0.02286));
#600=CARTESIAN_POINT('',(-3.46944695195361E-18,0.0393741173784924,0.02159));
#601=CARTESIAN_POINT('',(0.0127,0.0393741173784924,0.02159));
#602=CARTESIAN_POINT('',(-2.92734586571086E-18,0.0393741173784924,0.02286));
#603=CARTESIAN_POINT('',(-2.92734586571086E-18,0.0393741173784924,0.02286));
#604=CARTESIAN_POINT('',(0.000634999999999997,0.0393741173784924,0.02286));
#605=CARTESIAN_POINT('',(-2.92734586571086E-18,0.0393741173784924,0.02159));
#606=CARTESIAN_POINT('',(0.000634999999999997,0.0393741173784924,0.02159));
#607=CARTESIAN_POINT('',(-3.46944695195361E-18,0.0393741173784924,0.02286));
#608=CARTESIAN_POINT('',(-3.46944695195361E-18,0.0393741173784924,0.02159));
#609=CARTESIAN_POINT('',(0.,0.,0.));
#610=CARTESIAN_POINT('',(-0.0238429099055272,0.0361919006924232,0.00254));
#611=CARTESIAN_POINT('',(-0.0238429099055272,0.0361919006924232,0.));
#612=CARTESIAN_POINT('',(-0.0117172124861976,0.0231882142114725,0.));
#613=CARTESIAN_POINT('',(-0.00635,0.0393741173784924,0.));
#614=CARTESIAN_POINT('',(-0.0117172124861976,0.0231882142114725,0.00254));
#615=CARTESIAN_POINT('',(-0.0117172124861976,0.0231882142114725,0.00254));
#616=CARTESIAN_POINT('',(-0.0238429099055272,0.0361919006924232,0.00254));
#617=CARTESIAN_POINT('',(-0.00635,0.0393741173784924,0.00254));
#618=CARTESIAN_POINT('',(-0.00635,0.0393741173784924,0.00254));
#619=CARTESIAN_POINT('',(-0.0117172124861976,0.0168382142114726,0.00254));
#620=CARTESIAN_POINT('',(-0.0117172124861976,0.0168382142114726,0.));
#621=CARTESIAN_POINT('',(-0.0117172124861976,0.0104882142114726,0.));
#622=CARTESIAN_POINT('',(-0.0117172124861976,0.0104882142114726,0.00254));
#623=CARTESIAN_POINT('',(-0.0117172124861976,0.0104882142114726,0.00254));
#624=CARTESIAN_POINT('',(-0.0117172124861976,0.0168382142114726,0.00254));
#625=CARTESIAN_POINT('',(0.00314035465022637,-0.0380905126016794,0.00254));
#626=CARTESIAN_POINT('',(0.00314035465022637,-0.0380905126016794,0.));
#627=CARTESIAN_POINT('',(0.0136580583967666,0.0116087621203951,0.));
#628=CARTESIAN_POINT('',(0.0136580583967666,0.0116087621203951,0.00254));
#629=CARTESIAN_POINT('',(0.0136580583967666,0.0116087621203951,0.00254));
#630=CARTESIAN_POINT('',(0.00314035465022637,-0.0380905126016794,0.00254));
#631=CARTESIAN_POINT('',(0.0136580583967666,0.0179587621203951,0.00254));
#632=CARTESIAN_POINT('',(0.0136580583967666,0.0179587621203951,0.));
#633=CARTESIAN_POINT('',(0.0136580583967666,0.0243087621203951,0.));
#634=CARTESIAN_POINT('',(0.0136580583967666,0.0243087621203951,0.00254));
#635=CARTESIAN_POINT('',(0.0136580583967666,0.0243087621203951,0.00254));
#636=CARTESIAN_POINT('',(0.0136580583967666,0.0179587621203951,0.00254));
#637=CARTESIAN_POINT('',(0.024116732568426,0.038687375912095,0.00254));
#638=CARTESIAN_POINT('',(0.024116732568426,0.038687375912095,0.));
#639=CARTESIAN_POINT('',(0.00635,0.0393741173784924,0.));
#640=CARTESIAN_POINT('',(0.00635,0.0393741173784924,0.00254));
#641=CARTESIAN_POINT('',(0.00635,0.0393741173784924,0.00254));
#642=CARTESIAN_POINT('',(0.024116732568426,0.038687375912095,0.00254));
#643=CARTESIAN_POINT('',(0.,0.0393741173784924,0.00254));
#644=CARTESIAN_POINT('',(0.,0.0393741173784924,0.));
#645=CARTESIAN_POINT('',(0.,0.0393741173784924,0.00254));
#646=CARTESIAN_POINT('',(0.000970422955284482,0.0281061657949825,0.00254));
#647=CARTESIAN_POINT('',(-0.0117172124861976,0.0168382142114726,0.00254));
#648=CARTESIAN_POINT('',(-0.0098122124861976,0.0168382142114726,0.00254));
#649=CARTESIAN_POINT('',(-2.88668828424265E-18,0.0393741173784924,0.00254));
#650=CARTESIAN_POINT('',(0.001905,0.0393741173784924,0.00254));
#651=CARTESIAN_POINT('',(0.0136580583967666,0.0179587621203951,0.00254));
#652=CARTESIAN_POINT('',(0.0155630583967666,0.0179587621203951,0.00254));
#653=CARTESIAN_POINT('',(0.000970422955284482,0.0281061657949825,0.));
#654=CARTESIAN_POINT('',(-0.0117172124861976,0.0168382142114726,0.0254));
#655=CARTESIAN_POINT('',(-0.0117172124861976,0.0168382142114726,0.0254));
#656=CARTESIAN_POINT('',(-0.0098122124861976,0.0168382142114726,0.0254));
#657=CARTESIAN_POINT('',(0.000970422955284482,0.0281061657949825,0.0254));
#658=CARTESIAN_POINT('',(-2.88668828424265E-18,0.0393741173784924,0.02159));
#659=CARTESIAN_POINT('',(-2.88668828424265E-18,0.0393741173784924,0.02159));
#660=CARTESIAN_POINT('',(0.001905,0.0393741173784924,0.02159));
#661=CARTESIAN_POINT('',(0.000970422955284482,0.0281061657949825,0.02159));
#662=CARTESIAN_POINT('',(0.0136580583967666,0.0179587621203951,0.01905));
#663=CARTESIAN_POINT('',(0.0136580583967666,0.0179587621203951,0.01905));
#664=CARTESIAN_POINT('',(0.0155630583967666,0.0179587621203951,0.01905));
#665=CARTESIAN_POINT('',(0.000970422955284482,0.0281061657949825,0.01905));
#666=MECHANICAL_DESIGN_GEOMETRIC_PRESENTATION_REPRESENTATION('',(#343),
#670);
#667=MECHANICAL_DESIGN_GEOMETRIC_PRESENTATION_REPRESENTATION('',(#344),
#671);
#668=MECHANICAL_DESIGN_GEOMETRIC_PRESENTATION_REPRESENTATION('',(#345),
#672);
#669=MECHANICAL_DESIGN_GEOMETRIC_PRESENTATION_REPRESENTATION('',(#346),
#673);
#670=(
GEOMETRIC_REPRESENTATION_CONTEXT(3)
GLOBAL_UNCERTAINTY_ASSIGNED_CONTEXT((#674))
GLOBAL_UNIT_ASSIGNED_CONTEXT((#686,#682,#678))
REPRESENTATION_CONTEXT('Part 4','TOP_LEVEL_ASSEMBLY_PART')
);
#671=(
GEOMETRIC_REPRESENTATION_CONTEXT(3)
GLOBAL_UNCERTAINTY_ASSIGNED_CONTEXT((#675))
GLOBAL_UNIT_ASSIGNED_CONTEXT((#687,#683,#679))
REPRESENTATION_CONTEXT('Part 2','TOP_LEVEL_ASSEMBLY_PART')
);
#672=(
GEOMETRIC_REPRESENTATION_CONTEXT(3)
GLOBAL_UNCERTAINTY_ASSIGNED_CONTEXT((#676))
GLOBAL_UNIT_ASSIGNED_CONTEXT((#688,#684,#680))
REPRESENTATION_CONTEXT('Part 3','TOP_LEVEL_ASSEMBLY_PART')
);
#673=(
GEOMETRIC_REPRESENTATION_CONTEXT(3)
GLOBAL_UNCERTAINTY_ASSIGNED_CONTEXT((#677))
GLOBAL_UNIT_ASSIGNED_CONTEXT((#689,#685,#681))
REPRESENTATION_CONTEXT('Part 1','TOP_LEVEL_ASSEMBLY_PART')
);
#674=UNCERTAINTY_MEASURE_WITH_UNIT(LENGTH_MEASURE(1.E-8),#686,
'DISTANCE_ACCURACY_VALUE','Maximum Tolerance applied to model');
#675=UNCERTAINTY_MEASURE_WITH_UNIT(LENGTH_MEASURE(1.E-8),#687,
'DISTANCE_ACCURACY_VALUE','Maximum Tolerance applied to model');
#676=UNCERTAINTY_MEASURE_WITH_UNIT(LENGTH_MEASURE(1.E-8),#688,
'DISTANCE_ACCURACY_VALUE','Maximum Tolerance applied to model');
#677=UNCERTAINTY_MEASURE_WITH_UNIT(LENGTH_MEASURE(1.E-8),#689,
'DISTANCE_ACCURACY_VALUE','Maximum Tolerance applied to model');
#678=(
NAMED_UNIT(*)
SI_UNIT($,.STERADIAN.)
SOLID_ANGLE_UNIT()
);
#679=(
NAMED_UNIT(*)
SI_UNIT($,.STERADIAN.)
SOLID_ANGLE_UNIT()
);
#680=(
NAMED_UNIT(*)
SI_UNIT($,.STERADIAN.)
SOLID_ANGLE_UNIT()
);
#681=(
NAMED_UNIT(*)
SI_UNIT($,.STERADIAN.)
SOLID_ANGLE_UNIT()
);
#682=(
NAMED_UNIT(*)
PLANE_ANGLE_UNIT()
SI_UNIT($,.RADIAN.)
);
#683=(
NAMED_UNIT(*)
PLANE_ANGLE_UNIT()
SI_UNIT($,.RADIAN.)
);
#684=(
NAMED_UNIT(*)
PLANE_ANGLE_UNIT()
SI_UNIT($,.RADIAN.)
);
#685=(
NAMED_UNIT(*)
PLANE_ANGLE_UNIT()
SI_UNIT($,.RADIAN.)
);
#686=(
LENGTH_UNIT()
NAMED_UNIT(*)
SI_UNIT($,.METRE.)
);
#687=(
LENGTH_UNIT()
NAMED_UNIT(*)
SI_UNIT($,.METRE.)
);
#688=(
LENGTH_UNIT()
NAMED_UNIT(*)
SI_UNIT($,.METRE.)
);
#689=(
LENGTH_UNIT()
NAMED_UNIT(*)
SI_UNIT($,.METRE.)
);
#690=PRODUCT_DEFINITION_SHAPE('','',#694);
#691=PRODUCT_DEFINITION_SHAPE('','',#695);
#692=PRODUCT_DEFINITION_SHAPE('','',#696);
#693=PRODUCT_DEFINITION_SHAPE('','',#697);
#694=PRODUCT_DEFINITION('','',#702,#698);
#695=PRODUCT_DEFINITION('','',#703,#699);
#696=PRODUCT_DEFINITION('','',#704,#700);
#697=PRODUCT_DEFINITION('','',#705,#701);
#698=PRODUCT_DEFINITION_CONTEXT('',#726,'design');
#699=PRODUCT_DEFINITION_CONTEXT('',#727,'design');
#700=PRODUCT_DEFINITION_CONTEXT('',#728,'design');
#701=PRODUCT_DEFINITION_CONTEXT('',#729,'design');
#702=PRODUCT_DEFINITION_FORMATION_WITH_SPECIFIED_SOURCE('','',#710,
 .NOT_KNOWN.);
#703=PRODUCT_DEFINITION_FORMATION_WITH_SPECIFIED_SOURCE('','',#711,
 .NOT_KNOWN.);
#704=PRODUCT_DEFINITION_FORMATION_WITH_SPECIFIED_SOURCE('','',#712,
 .NOT_KNOWN.);
#705=PRODUCT_DEFINITION_FORMATION_WITH_SPECIFIED_SOURCE('','',#713,
 .NOT_KNOWN.);
#706=PRODUCT_RELATED_PRODUCT_CATEGORY('','',(#710));
#707=PRODUCT_RELATED_PRODUCT_CATEGORY('','',(#711));
#708=PRODUCT_RELATED_PRODUCT_CATEGORY('','',(#712));
#709=PRODUCT_RELATED_PRODUCT_CATEGORY('','',(#713));
#710=PRODUCT('Part 4','Part 4','Part 4',(#718));
#711=PRODUCT('Part 2','Part 2','Part 2',(#719));
#712=PRODUCT('Part 3','Part 3','Part 3',(#720));
#713=PRODUCT('Part 1','Part 1','Part 1',(#721));
#714=PRODUCT_CATEGORY('','');
#715=PRODUCT_CATEGORY('','');
#716=PRODUCT_CATEGORY('','');
#717=PRODUCT_CATEGORY('','');
#718=PRODUCT_CONTEXT('',#726,'mechanical');
#719=PRODUCT_CONTEXT('',#727,'mechanical');
#720=PRODUCT_CONTEXT('',#728,'mechanical');
#721=PRODUCT_CONTEXT('',#729,'mechanical');
#722=APPLICATION_PROTOCOL_DEFINITION('international standard',
'ap242_managed_model_based_3d_engineering',2020,#726);
#723=APPLICATION_PROTOCOL_DEFINITION('international standard',
'ap242_managed_model_based_3d_engineering',2020,#727);
#724=APPLICATION_PROTOCOL_DEFINITION('international standard',
'ap242_managed_model_based_3d_engineering',2020,#728);
#725=APPLICATION_PROTOCOL_DEFINITION('international standard',
'ap242_managed_model_based_3d_engineering',2020,#729);
#726=APPLICATION_CONTEXT('managed model based 3d engineering');
#727=APPLICATION_CONTEXT('managed model based 3d engineering');
#728=APPLICATION_CONTEXT('managed model based 3d engineering');
#729=APPLICATION_CONTEXT('managed model based 3d engineering');
ENDSEC;
END-ISO-10303-21;
