ISO-10303-21;
HEADER;
/* Generated by software containing ST-Developer
 * from STEP Tools, Inc. (www.steptools.com) 
 */
/* OPTION: using custom renumber hook */

FILE_DESCRIPTION(
/* description */ ('STEP AP242 Edition 2',
'CAx-IF Rec.Pracs.---Representation and Presentation of Product Manufa
cturing Information (PMI)---4.0---2014-10-13',
'CAx-IF Rec.Pracs.---3D Tessellated Geometry---0.4---2014-09-14','2;1',
'CAx-IF Rec.Pracs.---User Defined Attributes---1.5---2016-08-15'),
/* implementation_level */ '2;1');

FILE_NAME(
/* name */ 'ampo',
/* time_stamp */ '2026-09-08T02:26:20Z',
/* author */ (''),
/* organization */ (''),
/* preprocessor_version */ 'ST-DEVELOPER v20',
/* originating_system */ 'ONSHAPE BY PTC INC, 1.220',
/* authorisation */ '  ');

FILE_SCHEMA (('AP242_MANAGED_MODEL_BASED_3D_ENGINEERING_MIM_LF { 1 0 10303 442 3 1 4 }'));
ENDSEC;

DATA;
#10=SHAPE_REPRESENTATION_RELATIONSHIP('','',#593,#11);
#11=ADVANCED_BREP_SHAPE_REPRESENTATION('',(#591),#983);
#12=CYLINDRICAL_SURFACE('',#620,0.000635);
#13=CYLINDRICAL_SURFACE('',#623,0.000635);
#14=CYLINDRICAL_SURFACE('',#626,0.000635);
#15=CYLINDRICAL_SURFACE('',#629,0.000635);
#16=CYLINDRICAL_SURFACE('',#632,0.000635);
#17=CYLINDRICAL_SURFACE('',#635,0.000635);
#18=CYLINDRICAL_SURFACE('',#638,0.000635);
#19=CYLINDRICAL_SURFACE('',#641,0.000635);
#20=CYLINDRICAL_SURFACE('',#644,0.000598022918045605);
#21=CYLINDRICAL_SURFACE('',#651,0.000338832140457556);
#22=CIRCLE('',#597,0.000635);
#23=CIRCLE('',#598,0.000635);
#24=CIRCLE('',#599,0.000635);
#25=CIRCLE('',#600,0.000635);
#26=CIRCLE('',#601,0.000635);
#27=CIRCLE('',#602,0.000635);
#28=CIRCLE('',#603,0.000635);
#29=CIRCLE('',#604,0.000635);
#30=CIRCLE('',#605,0.000598022918045605);
#31=CIRCLE('',#621,0.000635);
#32=CIRCLE('',#624,0.000635);
#33=CIRCLE('',#627,0.000635);
#34=CIRCLE('',#630,0.000635);
#35=CIRCLE('',#633,0.000635);
#36=CIRCLE('',#636,0.000635);
#37=CIRCLE('',#639,0.000635);
#38=CIRCLE('',#642,0.000635);
#39=CIRCLE('',#645,0.000598022918045605);
#40=CIRCLE('',#647,0.000338832140457556);
#41=CIRCLE('',#652,0.000338832140457556);
#42=ORIENTED_EDGE('',*,*,#178,.F.);
#43=ORIENTED_EDGE('',*,*,#179,.T.);
#44=ORIENTED_EDGE('',*,*,#180,.T.);
#45=ORIENTED_EDGE('',*,*,#181,.F.);
#46=ORIENTED_EDGE('',*,*,#182,.F.);
#47=ORIENTED_EDGE('',*,*,#183,.T.);
#48=ORIENTED_EDGE('',*,*,#184,.T.);
#49=ORIENTED_EDGE('',*,*,#185,.F.);
#50=ORIENTED_EDGE('',*,*,#186,.F.);
#51=ORIENTED_EDGE('',*,*,#187,.F.);
#52=ORIENTED_EDGE('',*,*,#188,.F.);
#53=ORIENTED_EDGE('',*,*,#189,.T.);
#54=ORIENTED_EDGE('',*,*,#190,.F.);
#55=ORIENTED_EDGE('',*,*,#191,.F.);
#56=ORIENTED_EDGE('',*,*,#192,.F.);
#57=ORIENTED_EDGE('',*,*,#193,.F.);
#58=ORIENTED_EDGE('',*,*,#194,.T.);
#59=ORIENTED_EDGE('',*,*,#195,.T.);
#60=ORIENTED_EDGE('',*,*,#196,.F.);
#61=ORIENTED_EDGE('',*,*,#197,.F.);
#62=ORIENTED_EDGE('',*,*,#198,.F.);
#63=ORIENTED_EDGE('',*,*,#199,.F.);
#64=ORIENTED_EDGE('',*,*,#200,.F.);
#65=ORIENTED_EDGE('',*,*,#201,.F.);
#66=ORIENTED_EDGE('',*,*,#202,.F.);
#67=ORIENTED_EDGE('',*,*,#203,.F.);
#68=ORIENTED_EDGE('',*,*,#204,.F.);
#69=ORIENTED_EDGE('',*,*,#205,.T.);
#70=ORIENTED_EDGE('',*,*,#206,.T.);
#71=ORIENTED_EDGE('',*,*,#207,.F.);
#72=ORIENTED_EDGE('',*,*,#208,.F.);
#73=ORIENTED_EDGE('',*,*,#209,.T.);
#74=ORIENTED_EDGE('',*,*,#204,.T.);
#75=ORIENTED_EDGE('',*,*,#210,.F.);
#76=ORIENTED_EDGE('',*,*,#211,.T.);
#77=ORIENTED_EDGE('',*,*,#212,.T.);
#78=ORIENTED_EDGE('',*,*,#183,.F.);
#79=ORIENTED_EDGE('',*,*,#213,.T.);
#80=ORIENTED_EDGE('',*,*,#208,.T.);
#81=ORIENTED_EDGE('',*,*,#214,.F.);
#82=ORIENTED_EDGE('',*,*,#179,.F.);
#83=ORIENTED_EDGE('',*,*,#215,.T.);
#84=ORIENTED_EDGE('',*,*,#206,.F.);
#85=ORIENTED_EDGE('',*,*,#216,.F.);
#86=ORIENTED_EDGE('',*,*,#181,.T.);
#87=ORIENTED_EDGE('',*,*,#205,.F.);
#88=ORIENTED_EDGE('',*,*,#209,.F.);
#89=ORIENTED_EDGE('',*,*,#213,.F.);
#90=ORIENTED_EDGE('',*,*,#182,.T.);
#91=ORIENTED_EDGE('',*,*,#216,.T.);
#92=ORIENTED_EDGE('',*,*,#203,.T.);
#93=ORIENTED_EDGE('',*,*,#215,.F.);
#94=ORIENTED_EDGE('',*,*,#180,.F.);
#95=ORIENTED_EDGE('',*,*,#214,.T.);
#96=ORIENTED_EDGE('',*,*,#207,.T.);
#97=ORIENTED_EDGE('',*,*,#211,.F.);
#98=ORIENTED_EDGE('',*,*,#217,.F.);
#99=ORIENTED_EDGE('',*,*,#188,.T.);
#100=ORIENTED_EDGE('',*,*,#218,.T.);
#101=ORIENTED_EDGE('',*,*,#210,.T.);
#102=ORIENTED_EDGE('',*,*,#178,.T.);
#103=ORIENTED_EDGE('',*,*,#219,.F.);
#104=ORIENTED_EDGE('',*,*,#220,.F.);
#105=ORIENTED_EDGE('',*,*,#221,.T.);
#106=ORIENTED_EDGE('',*,*,#189,.F.);
#107=ORIENTED_EDGE('',*,*,#217,.T.);
#108=ORIENTED_EDGE('',*,*,#187,.T.);
#109=ORIENTED_EDGE('',*,*,#222,.F.);
#110=ORIENTED_EDGE('',*,*,#223,.T.);
#111=ORIENTED_EDGE('',*,*,#224,.T.);
#112=ORIENTED_EDGE('',*,*,#184,.F.);
#113=ORIENTED_EDGE('',*,*,#212,.F.);
#114=ORIENTED_EDGE('',*,*,#218,.F.);
#115=ORIENTED_EDGE('',*,*,#194,.F.);
#116=ORIENTED_EDGE('',*,*,#225,.F.);
#117=ORIENTED_EDGE('',*,*,#226,.T.);
#118=ORIENTED_EDGE('',*,*,#227,.T.);
#119=ORIENTED_EDGE('',*,*,#197,.T.);
#120=ORIENTED_EDGE('',*,*,#228,.F.);
#121=ORIENTED_EDGE('',*,*,#229,.F.);
#122=ORIENTED_EDGE('',*,*,#225,.T.);
#123=ORIENTED_EDGE('',*,*,#196,.T.);
#124=ORIENTED_EDGE('',*,*,#230,.F.);
#125=ORIENTED_EDGE('',*,*,#231,.F.);
#126=ORIENTED_EDGE('',*,*,#228,.T.);
#127=ORIENTED_EDGE('',*,*,#195,.F.);
#128=ORIENTED_EDGE('',*,*,#227,.F.);
#129=ORIENTED_EDGE('',*,*,#232,.T.);
#130=ORIENTED_EDGE('',*,*,#230,.T.);
#131=ORIENTED_EDGE('',*,*,#226,.F.);
#132=ORIENTED_EDGE('',*,*,#229,.T.);
#133=ORIENTED_EDGE('',*,*,#231,.T.);
#134=ORIENTED_EDGE('',*,*,#232,.F.);
#135=ORIENTED_EDGE('',*,*,#233,.F.);
#136=ORIENTED_EDGE('',*,*,#198,.T.);
#137=ORIENTED_EDGE('',*,*,#233,.T.);
#138=ORIENTED_EDGE('',*,*,#234,.F.);
#139=ORIENTED_EDGE('',*,*,#193,.T.);
#140=ORIENTED_EDGE('',*,*,#234,.T.);
#141=ORIENTED_EDGE('',*,*,#235,.F.);
#142=ORIENTED_EDGE('',*,*,#199,.T.);
#143=ORIENTED_EDGE('',*,*,#235,.T.);
#144=ORIENTED_EDGE('',*,*,#236,.F.);
#145=ORIENTED_EDGE('',*,*,#192,.T.);
#146=ORIENTED_EDGE('',*,*,#236,.T.);
#147=ORIENTED_EDGE('',*,*,#237,.F.);
#148=ORIENTED_EDGE('',*,*,#200,.T.);
#149=ORIENTED_EDGE('',*,*,#237,.T.);
#150=ORIENTED_EDGE('',*,*,#238,.F.);
#151=ORIENTED_EDGE('',*,*,#191,.T.);
#152=ORIENTED_EDGE('',*,*,#238,.T.);
#153=ORIENTED_EDGE('',*,*,#239,.F.);
#154=ORIENTED_EDGE('',*,*,#201,.T.);
#155=ORIENTED_EDGE('',*,*,#239,.T.);
#156=ORIENTED_EDGE('',*,*,#240,.F.);
#157=ORIENTED_EDGE('',*,*,#190,.T.);
#158=ORIENTED_EDGE('',*,*,#240,.T.);
#159=ORIENTED_EDGE('',*,*,#241,.F.);
#160=ORIENTED_EDGE('',*,*,#202,.T.);
#161=ORIENTED_EDGE('',*,*,#242,.F.);
#162=ORIENTED_EDGE('',*,*,#241,.T.);
#163=ORIENTED_EDGE('',*,*,#186,.T.);
#164=ORIENTED_EDGE('',*,*,#221,.F.);
#165=ORIENTED_EDGE('',*,*,#243,.F.);
#166=ORIENTED_EDGE('',*,*,#222,.T.);
#167=ORIENTED_EDGE('',*,*,#185,.T.);
#168=ORIENTED_EDGE('',*,*,#224,.F.);
#169=ORIENTED_EDGE('',*,*,#244,.F.);
#170=ORIENTED_EDGE('',*,*,#219,.T.);
#171=ORIENTED_EDGE('',*,*,#243,.T.);
#172=ORIENTED_EDGE('',*,*,#220,.T.);
#173=ORIENTED_EDGE('',*,*,#244,.T.);
#174=ORIENTED_EDGE('',*,*,#223,.F.);
#175=ORIENTED_EDGE('',*,*,#245,.F.);
#176=ORIENTED_EDGE('',*,*,#242,.T.);
#177=ORIENTED_EDGE('',*,*,#245,.T.);
#178=EDGE_CURVE('',#246,#247,#298,.T.);
#179=EDGE_CURVE('',#246,#248,#299,.T.);
#180=EDGE_CURVE('',#248,#249,#300,.T.);
#181=EDGE_CURVE('',#250,#249,#301,.T.);
#182=EDGE_CURVE('',#251,#250,#302,.T.);
#183=EDGE_CURVE('',#251,#252,#303,.T.);
#184=EDGE_CURVE('',#252,#253,#304,.T.);
#185=EDGE_CURVE('',#247,#253,#305,.T.);
#186=EDGE_CURVE('',#254,#255,#306,.T.);
#187=EDGE_CURVE('',#256,#254,#307,.T.);
#188=EDGE_CURVE('',#257,#256,#308,.T.);
#189=EDGE_CURVE('',#257,#255,#309,.T.);
#190=EDGE_CURVE('',#258,#258,#22,.T.);
#191=EDGE_CURVE('',#259,#259,#23,.T.);
#192=EDGE_CURVE('',#260,#260,#24,.T.);
#193=EDGE_CURVE('',#261,#261,#25,.T.);
#194=EDGE_CURVE('',#262,#263,#310,.T.);
#195=EDGE_CURVE('',#263,#264,#311,.T.);
#196=EDGE_CURVE('',#265,#264,#312,.T.);
#197=EDGE_CURVE('',#262,#265,#313,.T.);
#198=EDGE_CURVE('',#266,#266,#26,.T.);
#199=EDGE_CURVE('',#267,#267,#27,.T.);
#200=EDGE_CURVE('',#268,#268,#28,.T.);
#201=EDGE_CURVE('',#269,#269,#29,.T.);
#202=EDGE_CURVE('',#270,#270,#30,.T.);
#203=EDGE_CURVE('',#271,#272,#314,.T.);
#204=EDGE_CURVE('',#273,#271,#315,.T.);
#205=EDGE_CURVE('',#273,#274,#316,.T.);
#206=EDGE_CURVE('',#274,#272,#317,.T.);
#207=EDGE_CURVE('',#275,#271,#318,.T.);
#208=EDGE_CURVE('',#276,#275,#319,.T.);
#209=EDGE_CURVE('',#276,#273,#320,.T.);
#210=EDGE_CURVE('',#277,#246,#321,.T.);
#211=EDGE_CURVE('',#277,#278,#322,.T.);
#212=EDGE_CURVE('',#278,#252,#323,.T.);
#213=EDGE_CURVE('',#251,#276,#324,.T.);
#214=EDGE_CURVE('',#248,#275,#325,.T.);
#215=EDGE_CURVE('',#249,#272,#326,.T.);
#216=EDGE_CURVE('',#250,#274,#327,.T.);
#217=EDGE_CURVE('',#257,#277,#328,.T.);
#218=EDGE_CURVE('',#256,#278,#329,.T.);
#219=EDGE_CURVE('',#279,#247,#330,.T.);
#220=EDGE_CURVE('',#280,#279,#331,.T.);
#221=EDGE_CURVE('',#280,#255,#332,.T.);
#222=EDGE_CURVE('',#281,#254,#333,.T.);
#223=EDGE_CURVE('',#281,#282,#334,.T.);
#224=EDGE_CURVE('',#282,#253,#335,.T.);
#225=EDGE_CURVE('',#283,#262,#336,.T.);
#226=EDGE_CURVE('',#283,#284,#337,.T.);
#227=EDGE_CURVE('',#284,#263,#338,.T.);
#228=EDGE_CURVE('',#285,#265,#339,.T.);
#229=EDGE_CURVE('',#283,#285,#340,.T.);
#230=EDGE_CURVE('',#286,#264,#341,.T.);
#231=EDGE_CURVE('',#285,#286,#342,.T.);
#232=EDGE_CURVE('',#284,#286,#343,.T.);
#233=EDGE_CURVE('',#287,#287,#31,.T.);
#234=EDGE_CURVE('',#288,#288,#32,.T.);
#235=EDGE_CURVE('',#289,#289,#33,.T.);
#236=EDGE_CURVE('',#290,#290,#34,.T.);
#237=EDGE_CURVE('',#291,#291,#35,.T.);
#238=EDGE_CURVE('',#292,#292,#36,.T.);
#239=EDGE_CURVE('',#293,#293,#37,.T.);
#240=EDGE_CURVE('',#294,#294,#38,.T.);
#241=EDGE_CURVE('',#295,#295,#39,.T.);
#242=EDGE_CURVE('',#296,#296,#40,.T.);
#243=EDGE_CURVE('',#281,#280,#344,.T.);
#244=EDGE_CURVE('',#279,#282,#345,.T.);
#245=EDGE_CURVE('',#297,#297,#41,.T.);
#246=VERTEX_POINT('',#825);
#247=VERTEX_POINT('',#826);
#248=VERTEX_POINT('',#828);
#249=VERTEX_POINT('',#830);
#250=VERTEX_POINT('',#832);
#251=VERTEX_POINT('',#834);
#252=VERTEX_POINT('',#836);
#253=VERTEX_POINT('',#838);
#254=VERTEX_POINT('',#842);
#255=VERTEX_POINT('',#843);
#256=VERTEX_POINT('',#845);
#257=VERTEX_POINT('',#847);
#258=VERTEX_POINT('',#850);
#259=VERTEX_POINT('',#852);
#260=VERTEX_POINT('',#854);
#261=VERTEX_POINT('',#856);
#262=VERTEX_POINT('',#858);
#263=VERTEX_POINT('',#859);
#264=VERTEX_POINT('',#861);
#265=VERTEX_POINT('',#863);
#266=VERTEX_POINT('',#866);
#267=VERTEX_POINT('',#868);
#268=VERTEX_POINT('',#870);
#269=VERTEX_POINT('',#872);
#270=VERTEX_POINT('',#874);
#271=VERTEX_POINT('',#877);
#272=VERTEX_POINT('',#878);
#273=VERTEX_POINT('',#880);
#274=VERTEX_POINT('',#882);
#275=VERTEX_POINT('',#886);
#276=VERTEX_POINT('',#888);
#277=VERTEX_POINT('',#892);
#278=VERTEX_POINT('',#894);
#279=VERTEX_POINT('',#908);
#280=VERTEX_POINT('',#910);
#281=VERTEX_POINT('',#914);
#282=VERTEX_POINT('',#916);
#283=VERTEX_POINT('',#920);
#284=VERTEX_POINT('',#922);
#285=VERTEX_POINT('',#926);
#286=VERTEX_POINT('',#930);
#287=VERTEX_POINT('',#937);
#288=VERTEX_POINT('',#941);
#289=VERTEX_POINT('',#945);
#290=VERTEX_POINT('',#949);
#291=VERTEX_POINT('',#953);
#292=VERTEX_POINT('',#957);
#293=VERTEX_POINT('',#961);
#294=VERTEX_POINT('',#965);
#295=VERTEX_POINT('',#969);
#296=VERTEX_POINT('',#972);
#297=VERTEX_POINT('',#980);
#298=LINE('',#824,#346);
#299=LINE('',#827,#347);
#300=LINE('',#829,#348);
#301=LINE('',#831,#349);
#302=LINE('',#833,#350);
#303=LINE('',#835,#351);
#304=LINE('',#837,#352);
#305=LINE('',#839,#353);
#306=LINE('',#841,#354);
#307=LINE('',#844,#355);
#308=LINE('',#846,#356);
#309=LINE('',#848,#357);
#310=LINE('',#857,#358);
#311=LINE('',#860,#359);
#312=LINE('',#862,#360);
#313=LINE('',#864,#361);
#314=LINE('',#876,#362);
#315=LINE('',#879,#363);
#316=LINE('',#881,#364);
#317=LINE('',#883,#365);
#318=LINE('',#885,#366);
#319=LINE('',#887,#367);
#320=LINE('',#889,#368);
#321=LINE('',#891,#369);
#322=LINE('',#893,#370);
#323=LINE('',#895,#371);
#324=LINE('',#896,#372);
#325=LINE('',#897,#373);
#326=LINE('',#899,#374);
#327=LINE('',#900,#375);
#328=LINE('',#904,#376);
#329=LINE('',#905,#377);
#330=LINE('',#907,#378);
#331=LINE('',#909,#379);
#332=LINE('',#911,#380);
#333=LINE('',#913,#381);
#334=LINE('',#915,#382);
#335=LINE('',#917,#383);
#336=LINE('',#919,#384);
#337=LINE('',#921,#385);
#338=LINE('',#923,#386);
#339=LINE('',#925,#387);
#340=LINE('',#927,#388);
#341=LINE('',#929,#389);
#342=LINE('',#931,#390);
#343=LINE('',#933,#391);
#344=LINE('',#974,#392);
#345=LINE('',#976,#393);
#346=VECTOR('',#658,1.);
#347=VECTOR('',#659,1.);
#348=VECTOR('',#660,1.);
#349=VECTOR('',#661,1.);
#350=VECTOR('',#662,1.);
#351=VECTOR('',#663,1.);
#352=VECTOR('',#664,1.);
#353=VECTOR('',#665,1.);
#354=VECTOR('',#668,1.);
#355=VECTOR('',#669,1.);
#356=VECTOR('',#670,1.);
#357=VECTOR('',#671,1.);
#358=VECTOR('',#680,1.);
#359=VECTOR('',#681,1.);
#360=VECTOR('',#682,1.);
#361=VECTOR('',#683,1.);
#362=VECTOR('',#696,1.);
#363=VECTOR('',#697,1.);
#364=VECTOR('',#698,1.);
#365=VECTOR('',#699,1.);
#366=VECTOR('',#702,1.);
#367=VECTOR('',#703,1.);
#368=VECTOR('',#704,1.);
#369=VECTOR('',#707,1.);
#370=VECTOR('',#708,1.);
#371=VECTOR('',#709,1.);
#372=VECTOR('',#710,1.);
#373=VECTOR('',#711,1.);
#374=VECTOR('',#714,1.);
#375=VECTOR('',#715,1.);
#376=VECTOR('',#722,1.);
#377=VECTOR('',#723,1.);
#378=VECTOR('',#726,1.);
#379=VECTOR('',#727,1.);
#380=VECTOR('',#728,1.);
#381=VECTOR('',#731,1.);
#382=VECTOR('',#732,1.);
#383=VECTOR('',#733,1.);
#384=VECTOR('',#736,1.);
#385=VECTOR('',#737,1.);
#386=VECTOR('',#738,1.);
#387=VECTOR('',#741,1.);
#388=VECTOR('',#742,1.);
#389=VECTOR('',#745,1.);
#390=VECTOR('',#746,1.);
#391=VECTOR('',#749,1.);
#392=VECTOR('',#810,1.);
#393=VECTOR('',#813,1.);
#394=EDGE_LOOP('',(#42,#43,#44,#45,#46,#47,#48,#49));
#395=EDGE_LOOP('',(#50,#51,#52,#53));
#396=EDGE_LOOP('',(#54));
#397=EDGE_LOOP('',(#55));
#398=EDGE_LOOP('',(#56));
#399=EDGE_LOOP('',(#57));
#400=EDGE_LOOP('',(#58,#59,#60,#61));
#401=EDGE_LOOP('',(#62));
#402=EDGE_LOOP('',(#63));
#403=EDGE_LOOP('',(#64));
#404=EDGE_LOOP('',(#65));
#405=EDGE_LOOP('',(#66));
#406=EDGE_LOOP('',(#67,#68,#69,#70));
#407=EDGE_LOOP('',(#71,#72,#73,#74));
#408=EDGE_LOOP('',(#75,#76,#77,#78,#79,#80,#81,#82));
#409=EDGE_LOOP('',(#83,#84,#85,#86));
#410=EDGE_LOOP('',(#87,#88,#89,#90,#91));
#411=EDGE_LOOP('',(#92,#93,#94,#95,#96));
#412=EDGE_LOOP('',(#97,#98,#99,#100));
#413=EDGE_LOOP('',(#101,#102,#103,#104,#105,#106,#107));
#414=EDGE_LOOP('',(#108,#109,#110,#111,#112,#113,#114));
#415=EDGE_LOOP('',(#115,#116,#117,#118));
#416=EDGE_LOOP('',(#119,#120,#121,#122));
#417=EDGE_LOOP('',(#123,#124,#125,#126));
#418=EDGE_LOOP('',(#127,#128,#129,#130));
#419=EDGE_LOOP('',(#131,#132,#133,#134));
#420=EDGE_LOOP('',(#135));
#421=EDGE_LOOP('',(#136));
#422=EDGE_LOOP('',(#137));
#423=EDGE_LOOP('',(#138));
#424=EDGE_LOOP('',(#139));
#425=EDGE_LOOP('',(#140));
#426=EDGE_LOOP('',(#141));
#427=EDGE_LOOP('',(#142));
#428=EDGE_LOOP('',(#143));
#429=EDGE_LOOP('',(#144));
#430=EDGE_LOOP('',(#145));
#431=EDGE_LOOP('',(#146));
#432=EDGE_LOOP('',(#147));
#433=EDGE_LOOP('',(#148));
#434=EDGE_LOOP('',(#149));
#435=EDGE_LOOP('',(#150));
#436=EDGE_LOOP('',(#151));
#437=EDGE_LOOP('',(#152));
#438=EDGE_LOOP('',(#153));
#439=EDGE_LOOP('',(#154));
#440=EDGE_LOOP('',(#155));
#441=EDGE_LOOP('',(#156));
#442=EDGE_LOOP('',(#157));
#443=EDGE_LOOP('',(#158));
#444=EDGE_LOOP('',(#159));
#445=EDGE_LOOP('',(#160));
#446=EDGE_LOOP('',(#161));
#447=EDGE_LOOP('',(#162));
#448=EDGE_LOOP('',(#163,#164,#165,#166));
#449=EDGE_LOOP('',(#167,#168,#169,#170));
#450=EDGE_LOOP('',(#171,#172,#173,#174));
#451=EDGE_LOOP('',(#175));
#452=EDGE_LOOP('',(#176));
#453=EDGE_LOOP('',(#177));
#454=FACE_BOUND('',#394,.T.);
#455=FACE_BOUND('',#395,.T.);
#456=FACE_BOUND('',#396,.T.);
#457=FACE_BOUND('',#397,.T.);
#458=FACE_BOUND('',#398,.T.);
#459=FACE_BOUND('',#399,.T.);
#460=FACE_BOUND('',#400,.T.);
#461=FACE_BOUND('',#401,.T.);
#462=FACE_BOUND('',#402,.T.);
#463=FACE_BOUND('',#403,.T.);
#464=FACE_BOUND('',#404,.T.);
#465=FACE_BOUND('',#405,.T.);
#466=FACE_BOUND('',#406,.T.);
#467=FACE_BOUND('',#407,.T.);
#468=FACE_BOUND('',#408,.T.);
#469=FACE_BOUND('',#409,.T.);
#470=FACE_BOUND('',#410,.T.);
#471=FACE_BOUND('',#411,.T.);
#472=FACE_BOUND('',#412,.T.);
#473=FACE_BOUND('',#413,.T.);
#474=FACE_BOUND('',#414,.T.);
#475=FACE_BOUND('',#415,.T.);
#476=FACE_BOUND('',#416,.T.);
#477=FACE_BOUND('',#417,.T.);
#478=FACE_BOUND('',#418,.T.);
#479=FACE_BOUND('',#419,.T.);
#480=FACE_BOUND('',#420,.T.);
#481=FACE_BOUND('',#421,.T.);
#482=FACE_BOUND('',#422,.T.);
#483=FACE_BOUND('',#423,.T.);
#484=FACE_BOUND('',#424,.T.);
#485=FACE_BOUND('',#425,.T.);
#486=FACE_BOUND('',#426,.T.);
#487=FACE_BOUND('',#427,.T.);
#488=FACE_BOUND('',#428,.T.);
#489=FACE_BOUND('',#429,.T.);
#490=FACE_BOUND('',#430,.T.);
#491=FACE_BOUND('',#431,.T.);
#492=FACE_BOUND('',#432,.T.);
#493=FACE_BOUND('',#433,.T.);
#494=FACE_BOUND('',#434,.T.);
#495=FACE_BOUND('',#435,.T.);
#496=FACE_BOUND('',#436,.T.);
#497=FACE_BOUND('',#437,.T.);
#498=FACE_BOUND('',#438,.T.);
#499=FACE_BOUND('',#439,.T.);
#500=FACE_BOUND('',#440,.T.);
#501=FACE_BOUND('',#441,.T.);
#502=FACE_BOUND('',#442,.T.);
#503=FACE_BOUND('',#443,.T.);
#504=FACE_BOUND('',#444,.T.);
#505=FACE_BOUND('',#445,.T.);
#506=FACE_BOUND('',#446,.T.);
#507=FACE_BOUND('',#447,.T.);
#508=FACE_BOUND('',#448,.T.);
#509=FACE_BOUND('',#449,.T.);
#510=FACE_BOUND('',#450,.T.);
#511=FACE_BOUND('',#451,.T.);
#512=FACE_BOUND('',#452,.T.);
#513=FACE_BOUND('',#453,.T.);
#514=PLANE('',#595);
#515=PLANE('',#596);
#516=PLANE('',#606);
#517=PLANE('',#607);
#518=PLANE('',#608);
#519=PLANE('',#609);
#520=PLANE('',#610);
#521=PLANE('',#611);
#522=PLANE('',#612);
#523=PLANE('',#613);
#524=PLANE('',#614);
#525=PLANE('',#615);
#526=PLANE('',#616);
#527=PLANE('',#617);
#528=PLANE('',#618);
#529=PLANE('',#619);
#530=PLANE('',#622);
#531=PLANE('',#625);
#532=PLANE('',#628);
#533=PLANE('',#631);
#534=PLANE('',#634);
#535=PLANE('',#637);
#536=PLANE('',#640);
#537=PLANE('',#643);
#538=PLANE('',#646);
#539=PLANE('',#648);
#540=PLANE('',#649);
#541=PLANE('',#650);
#542=PLANE('',#653);
#543=ADVANCED_FACE('',(#454),#514,.F.);
#544=ADVANCED_FACE('',(#455,#456,#457,#458,#459,#460,#461,#462,#463,#464,
#465),#515,.T.);
#545=ADVANCED_FACE('',(#466),#516,.T.);
#546=ADVANCED_FACE('',(#467),#517,.T.);
#547=ADVANCED_FACE('',(#468),#518,.T.);
#548=ADVANCED_FACE('',(#469),#519,.F.);
#549=ADVANCED_FACE('',(#470),#520,.T.);
#550=ADVANCED_FACE('',(#471),#521,.F.);
#551=ADVANCED_FACE('',(#472),#522,.T.);
#552=ADVANCED_FACE('',(#473),#523,.F.);
#553=ADVANCED_FACE('',(#474),#524,.T.);
#554=ADVANCED_FACE('',(#475),#525,.T.);
#555=ADVANCED_FACE('',(#476),#526,.F.);
#556=ADVANCED_FACE('',(#477),#527,.F.);
#557=ADVANCED_FACE('',(#478),#528,.T.);
#558=ADVANCED_FACE('',(#479),#529,.T.);
#559=ADVANCED_FACE('',(#480,#481),#12,.T.);
#560=ADVANCED_FACE('',(#482),#530,.T.);
#561=ADVANCED_FACE('',(#483,#484),#13,.T.);
#562=ADVANCED_FACE('',(#485),#531,.T.);
#563=ADVANCED_FACE('',(#486,#487),#14,.T.);
#564=ADVANCED_FACE('',(#488),#532,.T.);
#565=ADVANCED_FACE('',(#489,#490),#15,.T.);
#566=ADVANCED_FACE('',(#491),#533,.T.);
#567=ADVANCED_FACE('',(#492,#493),#16,.T.);
#568=ADVANCED_FACE('',(#494),#534,.T.);
#569=ADVANCED_FACE('',(#495,#496),#17,.T.);
#570=ADVANCED_FACE('',(#497),#535,.T.);
#571=ADVANCED_FACE('',(#498,#499),#18,.T.);
#572=ADVANCED_FACE('',(#500),#536,.T.);
#573=ADVANCED_FACE('',(#501,#502),#19,.T.);
#574=ADVANCED_FACE('',(#503),#537,.T.);
#575=ADVANCED_FACE('',(#504,#505),#20,.T.);
#576=ADVANCED_FACE('',(#506,#507),#538,.T.);
#577=ADVANCED_FACE('',(#508),#539,.F.);
#578=ADVANCED_FACE('',(#509),#540,.F.);
#579=ADVANCED_FACE('',(#510),#541,.T.);
#580=ADVANCED_FACE('',(#511,#512),#21,.F.);
#581=ADVANCED_FACE('',(#513),#542,.T.);
#582=CLOSED_SHELL('',(#543,#544,#545,#546,#547,#548,#549,#550,#551,#552,
#553,#554,#555,#556,#557,#558,#559,#560,#561,#562,#563,#564,#565,#566,#567,
#568,#569,#570,#571,#572,#573,#574,#575,#576,#577,#578,#579,#580,#581));
#583=STYLED_ITEM('',(#584),#591);
#584=PRESENTATION_STYLE_ASSIGNMENT((#585));
#585=SURFACE_STYLE_USAGE(.BOTH.,#586);
#586=SURFACE_SIDE_STYLE('',(#587));
#587=SURFACE_STYLE_FILL_AREA(#588);
#588=FILL_AREA_STYLE('',(#589));
#589=FILL_AREA_STYLE_COLOUR('',#590);
#590=COLOUR_RGB('',0.615686274509804,0.811764705882353,0.929411764705882);
#591=MANIFOLD_SOLID_BREP('Part 1',#582);
#592=SHAPE_DEFINITION_REPRESENTATION(#988,#593);
#593=SHAPE_REPRESENTATION('Part 1',(#594),#983);
#594=AXIS2_PLACEMENT_3D('',#822,#654,#655);
#595=AXIS2_PLACEMENT_3D('',#823,#656,#657);
#596=AXIS2_PLACEMENT_3D('',#840,#666,#667);
#597=AXIS2_PLACEMENT_3D('',#849,#672,#673);
#598=AXIS2_PLACEMENT_3D('',#851,#674,#675);
#599=AXIS2_PLACEMENT_3D('',#853,#676,#677);
#600=AXIS2_PLACEMENT_3D('',#855,#678,#679);
#601=AXIS2_PLACEMENT_3D('',#865,#684,#685);
#602=AXIS2_PLACEMENT_3D('',#867,#686,#687);
#603=AXIS2_PLACEMENT_3D('',#869,#688,#689);
#604=AXIS2_PLACEMENT_3D('',#871,#690,#691);
#605=AXIS2_PLACEMENT_3D('',#873,#692,#693);
#606=AXIS2_PLACEMENT_3D('',#875,#694,#695);
#607=AXIS2_PLACEMENT_3D('',#884,#700,#701);
#608=AXIS2_PLACEMENT_3D('',#890,#705,#706);
#609=AXIS2_PLACEMENT_3D('',#898,#712,#713);
#610=AXIS2_PLACEMENT_3D('',#901,#716,#717);
#611=AXIS2_PLACEMENT_3D('',#902,#718,#719);
#612=AXIS2_PLACEMENT_3D('',#903,#720,#721);
#613=AXIS2_PLACEMENT_3D('',#906,#724,#725);
#614=AXIS2_PLACEMENT_3D('',#912,#729,#730);
#615=AXIS2_PLACEMENT_3D('',#918,#734,#735);
#616=AXIS2_PLACEMENT_3D('',#924,#739,#740);
#617=AXIS2_PLACEMENT_3D('',#928,#743,#744);
#618=AXIS2_PLACEMENT_3D('',#932,#747,#748);
#619=AXIS2_PLACEMENT_3D('',#934,#750,#751);
#620=AXIS2_PLACEMENT_3D('',#935,#752,#753);
#621=AXIS2_PLACEMENT_3D('',#936,#754,#755);
#622=AXIS2_PLACEMENT_3D('',#938,#756,#757);
#623=AXIS2_PLACEMENT_3D('',#939,#758,#759);
#624=AXIS2_PLACEMENT_3D('',#940,#760,#761);
#625=AXIS2_PLACEMENT_3D('',#942,#762,#763);
#626=AXIS2_PLACEMENT_3D('',#943,#764,#765);
#627=AXIS2_PLACEMENT_3D('',#944,#766,#767);
#628=AXIS2_PLACEMENT_3D('',#946,#768,#769);
#629=AXIS2_PLACEMENT_3D('',#947,#770,#771);
#630=AXIS2_PLACEMENT_3D('',#948,#772,#773);
#631=AXIS2_PLACEMENT_3D('',#950,#774,#775);
#632=AXIS2_PLACEMENT_3D('',#951,#776,#777);
#633=AXIS2_PLACEMENT_3D('',#952,#778,#779);
#634=AXIS2_PLACEMENT_3D('',#954,#780,#781);
#635=AXIS2_PLACEMENT_3D('',#955,#782,#783);
#636=AXIS2_PLACEMENT_3D('',#956,#784,#785);
#637=AXIS2_PLACEMENT_3D('',#958,#786,#787);
#638=AXIS2_PLACEMENT_3D('',#959,#788,#789);
#639=AXIS2_PLACEMENT_3D('',#960,#790,#791);
#640=AXIS2_PLACEMENT_3D('',#962,#792,#793);
#641=AXIS2_PLACEMENT_3D('',#963,#794,#795);
#642=AXIS2_PLACEMENT_3D('',#964,#796,#797);
#643=AXIS2_PLACEMENT_3D('',#966,#798,#799);
#644=AXIS2_PLACEMENT_3D('',#967,#800,#801);
#645=AXIS2_PLACEMENT_3D('',#968,#802,#803);
#646=AXIS2_PLACEMENT_3D('',#970,#804,#805);
#647=AXIS2_PLACEMENT_3D('',#971,#806,#807);
#648=AXIS2_PLACEMENT_3D('',#973,#808,#809);
#649=AXIS2_PLACEMENT_3D('',#975,#811,#812);
#650=AXIS2_PLACEMENT_3D('',#977,#814,#815);
#651=AXIS2_PLACEMENT_3D('',#978,#816,#817);
#652=AXIS2_PLACEMENT_3D('',#979,#818,#819);
#653=AXIS2_PLACEMENT_3D('',#981,#820,#821);
#654=DIRECTION('',(0.,0.,1.));
#655=DIRECTION('',(1.,0.,0.));
#656=DIRECTION('',(1.,0.,0.));
#657=DIRECTION('',(0.,0.,-1.));
#658=DIRECTION('',(0.,0.,-1.));
#659=DIRECTION('',(0.,1.,0.));
#660=DIRECTION('',(0.,0.,-1.));
#661=DIRECTION('',(0.,1.,0.));
#662=DIRECTION('',(0.,0.,-1.));
#663=DIRECTION('',(0.,1.,0.));
#664=DIRECTION('',(0.,0.,-1.));
#665=DIRECTION('',(0.,-1.,1.781639995868E-16));
#666=DIRECTION('',(-0.707106781186549,0.,0.707106781186547));
#667=DIRECTION('',(0.,-1.,0.));
#668=DIRECTION('',(0.,1.,0.));
#669=DIRECTION('',(-0.707106781186547,0.,-0.707106781186549));
#670=DIRECTION('',(0.,-1.,0.));
#671=DIRECTION('',(-0.707106781186547,0.,-0.707106781186549));
#672=DIRECTION('',(-0.707106781186549,0.,0.707106781186547));
#673=DIRECTION('',(0.707106781186547,0.,0.707106781186549));
#674=DIRECTION('',(-0.707106781186549,0.,0.707106781186547));
#675=DIRECTION('',(0.707106781186547,0.,0.707106781186549));
#676=DIRECTION('',(-0.707106781186549,0.,0.707106781186547));
#677=DIRECTION('',(0.707106781186547,0.,0.707106781186549));
#678=DIRECTION('',(-0.707106781186549,0.,0.707106781186547));
#679=DIRECTION('',(0.707106781186547,0.,0.707106781186549));
#680=DIRECTION('',(0.,-1.,0.));
#681=DIRECTION('',(-0.707106781186547,0.,-0.707106781186549));
#682=DIRECTION('',(0.,-1.,0.));
#683=DIRECTION('',(-0.707106781186547,0.,-0.707106781186549));
#684=DIRECTION('',(-0.707106781186549,0.,0.707106781186547));
#685=DIRECTION('',(0.707106781186547,0.,0.707106781186549));
#686=DIRECTION('',(-0.707106781186549,0.,0.707106781186547));
#687=DIRECTION('',(0.707106781186547,0.,0.707106781186549));
#688=DIRECTION('',(-0.707106781186549,0.,0.707106781186547));
#689=DIRECTION('',(0.707106781186547,0.,0.707106781186549));
#690=DIRECTION('',(-0.707106781186549,0.,0.707106781186547));
#691=DIRECTION('',(0.707106781186547,0.,0.707106781186549));
#692=DIRECTION('',(-0.707106781186549,0.,0.707106781186547));
#693=DIRECTION('',(0.707106781186547,0.,0.707106781186549));
#694=DIRECTION('',(1.,0.,0.));
#695=DIRECTION('',(0.,0.,-1.));
#696=DIRECTION('',(0.,0.,-1.));
#697=DIRECTION('',(0.,1.,0.));
#698=DIRECTION('',(0.,0.,-1.));
#699=DIRECTION('',(0.,1.,0.));
#700=DIRECTION('',(0.,0.,1.));
#701=DIRECTION('',(1.,0.,0.));
#702=DIRECTION('',(1.,0.,0.));
#703=DIRECTION('',(0.,1.,0.));
#704=DIRECTION('',(1.,0.,0.));
#705=DIRECTION('',(-0.707106781186549,0.,0.707106781186547));
#706=DIRECTION('',(0.707106781186547,0.,0.707106781186549));
#707=DIRECTION('',(-0.707106781186547,0.,-0.707106781186549));
#708=DIRECTION('',(0.,-1.,0.));
#709=DIRECTION('',(-0.707106781186547,0.,-0.707106781186549));
#710=DIRECTION('',(0.707106781186547,0.,0.707106781186549));
#711=DIRECTION('',(0.707106781186547,0.,0.707106781186549));
#712=DIRECTION('',(0.,0.,1.));
#713=DIRECTION('',(1.,0.,0.));
#714=DIRECTION('',(1.,0.,0.));
#715=DIRECTION('',(1.,0.,0.));
#716=DIRECTION('',(0.,-1.,0.));
#717=DIRECTION('',(1.,0.,0.));
#718=DIRECTION('',(0.,-1.,0.));
#719=DIRECTION('',(1.,0.,0.));
#720=DIRECTION('',(-0.707106781186547,0.,-0.707106781186549));
#721=DIRECTION('',(-0.707106781186549,0.,0.707106781186547));
#722=DIRECTION('',(-0.707106781186549,0.,0.707106781186547));
#723=DIRECTION('',(-0.707106781186549,0.,0.707106781186547));
#724=DIRECTION('',(0.,1.,0.));
#725=DIRECTION('',(0.,0.,1.));
#726=DIRECTION('',(-1.,0.,0.));
#727=DIRECTION('',(0.,0.,-1.));
#728=DIRECTION('',(-1.,0.,0.));
#729=DIRECTION('',(0.,1.,0.));
#730=DIRECTION('',(0.,0.,1.));
#731=DIRECTION('',(-1.,0.,0.));
#732=DIRECTION('',(0.,0.,-1.));
#733=DIRECTION('',(-1.,0.,0.));
#734=DIRECTION('',(0.707106781186547,0.,0.707106781186549));
#735=DIRECTION('',(0.707106781186549,0.,-0.707106781186547));
#736=DIRECTION('',(0.707106781186549,0.,-0.707106781186547));
#737=DIRECTION('',(0.,-1.,0.));
#738=DIRECTION('',(0.707106781186549,0.,-0.707106781186547));
#739=DIRECTION('',(0.,-1.,0.));
#740=DIRECTION('',(0.,0.,-1.));
#741=DIRECTION('',(0.707106781186549,0.,-0.707106781186547));
#742=DIRECTION('',(-0.707106781186547,0.,-0.707106781186549));
#743=DIRECTION('',(0.707106781186547,0.,0.707106781186549));
#744=DIRECTION('',(0.707106781186549,0.,-0.707106781186547));
#745=DIRECTION('',(0.707106781186549,0.,-0.707106781186547));
#746=DIRECTION('',(0.,-1.,0.));
#747=DIRECTION('',(0.,-1.,0.));
#748=DIRECTION('',(0.,0.,-1.));
#749=DIRECTION('',(-0.707106781186547,0.,-0.707106781186549));
#750=DIRECTION('',(-0.707106781186549,0.,0.707106781186547));
#751=DIRECTION('',(0.,-1.,0.));
#752=DIRECTION('',(0.707106781186549,0.,-0.707106781186547));
#753=DIRECTION('',(-0.707106781186547,0.,-0.707106781186549));
#754=DIRECTION('',(-0.707106781186549,0.,0.707106781186547));
#755=DIRECTION('',(0.707106781186547,0.,0.707106781186549));
#756=DIRECTION('',(-0.707106781186549,0.,0.707106781186547));
#757=DIRECTION('',(0.,-1.,0.));
#758=DIRECTION('',(0.707106781186549,0.,-0.707106781186547));
#759=DIRECTION('',(-0.707106781186547,0.,-0.707106781186549));
#760=DIRECTION('',(-0.707106781186549,0.,0.707106781186547));
#761=DIRECTION('',(0.707106781186547,0.,0.707106781186549));
#762=DIRECTION('',(-0.707106781186549,0.,0.707106781186547));
#763=DIRECTION('',(0.,-1.,0.));
#764=DIRECTION('',(0.707106781186549,0.,-0.707106781186547));
#765=DIRECTION('',(-0.707106781186547,0.,-0.707106781186549));
#766=DIRECTION('',(-0.707106781186549,0.,0.707106781186547));
#767=DIRECTION('',(0.707106781186547,0.,0.707106781186549));
#768=DIRECTION('',(-0.707106781186549,0.,0.707106781186547));
#769=DIRECTION('',(0.,-1.,0.));
#770=DIRECTION('',(0.707106781186549,0.,-0.707106781186547));
#771=DIRECTION('',(-0.707106781186547,0.,-0.707106781186549));
#772=DIRECTION('',(-0.707106781186549,0.,0.707106781186547));
#773=DIRECTION('',(0.707106781186547,0.,0.707106781186549));
#774=DIRECTION('',(-0.707106781186549,0.,0.707106781186547));
#775=DIRECTION('',(0.,-1.,0.));
#776=DIRECTION('',(0.707106781186549,0.,-0.707106781186547));
#777=DIRECTION('',(-0.707106781186547,0.,-0.707106781186549));
#778=DIRECTION('',(-0.707106781186549,0.,0.707106781186547));
#779=DIRECTION('',(0.707106781186547,0.,0.707106781186549));
#780=DIRECTION('',(-0.707106781186549,0.,0.707106781186547));
#781=DIRECTION('',(0.,-1.,0.));
#782=DIRECTION('',(0.707106781186549,0.,-0.707106781186547));
#783=DIRECTION('',(-0.707106781186547,0.,-0.707106781186549));
#784=DIRECTION('',(-0.707106781186549,0.,0.707106781186547));
#785=DIRECTION('',(0.707106781186547,0.,0.707106781186549));
#786=DIRECTION('',(-0.707106781186549,0.,0.707106781186547));
#787=DIRECTION('',(0.,-1.,0.));
#788=DIRECTION('',(0.707106781186549,0.,-0.707106781186547));
#789=DIRECTION('',(-0.707106781186547,0.,-0.707106781186549));
#790=DIRECTION('',(-0.707106781186549,0.,0.707106781186547));
#791=DIRECTION('',(0.707106781186547,0.,0.707106781186549));
#792=DIRECTION('',(-0.707106781186549,0.,0.707106781186547));
#793=DIRECTION('',(0.,-1.,0.));
#794=DIRECTION('',(0.707106781186549,0.,-0.707106781186547));
#795=DIRECTION('',(-0.707106781186547,0.,-0.707106781186549));
#796=DIRECTION('',(-0.707106781186549,0.,0.707106781186547));
#797=DIRECTION('',(0.707106781186547,0.,0.707106781186549));
#798=DIRECTION('',(-0.707106781186549,0.,0.707106781186547));
#799=DIRECTION('',(0.,-1.,0.));
#800=DIRECTION('',(0.707106781186549,0.,-0.707106781186547));
#801=DIRECTION('',(-0.707106781186547,0.,-0.707106781186549));
#802=DIRECTION('',(-0.707106781186549,0.,0.707106781186547));
#803=DIRECTION('',(0.707106781186547,0.,0.707106781186549));
#804=DIRECTION('',(-0.707106781186549,0.,0.707106781186547));
#805=DIRECTION('',(0.,-1.,0.));
#806=DIRECTION('',(-0.707106781186549,0.,0.707106781186547));
#807=DIRECTION('',(0.707106781186547,0.,0.707106781186549));
#808=DIRECTION('',(0.,0.,1.));
#809=DIRECTION('',(1.,0.,0.));
#810=DIRECTION('',(0.,1.,0.));
#811=DIRECTION('',(0.,-1.781639995868E-16,-1.));
#812=DIRECTION('',(0.,1.,-1.781639995868E-16));
#813=DIRECTION('',(0.,-1.,1.781639995868E-16));
#814=DIRECTION('',(-1.,0.,0.));
#815=DIRECTION('',(0.,-1.,0.));
#816=DIRECTION('',(-0.707106781186549,0.,0.707106781186547));
#817=DIRECTION('',(0.707106781186547,0.,0.707106781186549));
#818=DIRECTION('',(-0.707106781186549,0.,0.707106781186547));
#819=DIRECTION('',(0.707106781186547,0.,0.707106781186549));
#820=DIRECTION('',(-0.707106781186549,0.,0.707106781186547));
#821=DIRECTION('',(0.,-1.,0.));
#822=CARTESIAN_POINT('',(0.,0.,0.));
#823=CARTESIAN_POINT('',(-0.0562759458526969,-0.015875,0.0272386264475513));
#824=CARTESIAN_POINT('',(-0.0562759458526969,0.014605,0.0278736264475513));
#825=CARTESIAN_POINT('',(-0.0562759458526969,0.014605,0.0412086264475513));
#826=CARTESIAN_POINT('',(-0.0562759458526969,0.014605,0.0145386264475513));
#827=CARTESIAN_POINT('',(-0.0562759458526969,-0.015875,0.0412086264475513));
#828=CARTESIAN_POINT('',(-0.0562759458526969,0.015875,0.0412086264475513));
#829=CARTESIAN_POINT('',(-0.0562759458526969,0.015875,0.0272386264475513));
#830=CARTESIAN_POINT('',(-0.0562759458526969,0.015875,0.0132686264475513));
#831=CARTESIAN_POINT('',(-0.0562759458526969,-0.015875,0.0132686264475513));
#832=CARTESIAN_POINT('',(-0.0562759458526969,-0.015875,0.0132686264475513));
#833=CARTESIAN_POINT('',(-0.0562759458526969,-0.015875,0.0272386264475513));
#834=CARTESIAN_POINT('',(-0.0562759458526969,-0.015875,0.0412086264475513));
#835=CARTESIAN_POINT('',(-0.0562759458526969,-0.015875,0.0412086264475513));
#836=CARTESIAN_POINT('',(-0.0562759458526969,-0.014605,0.0412086264475513));
#837=CARTESIAN_POINT('',(-0.0562759458526969,-0.014605,0.0278736264475513));
#838=CARTESIAN_POINT('',(-0.0562759458526969,-0.014605,0.0145386264475513));
#839=CARTESIAN_POINT('',(-0.0562759458526969,0.,0.0145386264475513));
#840=CARTESIAN_POINT('',(-0.0548263407302755,0.,0.0422990213251299));
#841=CARTESIAN_POINT('',(-0.0559167356078542,0.,0.0412086264475513));
#842=CARTESIAN_POINT('',(-0.0559167356078542,-0.014605,0.0412086264475513));
#843=CARTESIAN_POINT('',(-0.0559167356078542,0.014605,0.0412086264475513));
#844=CARTESIAN_POINT('',(-0.0550059458526969,-0.014605,0.0421194162027086));
#845=CARTESIAN_POINT('',(-0.0539155509751183,-0.014605,0.0432098110802872));
#846=CARTESIAN_POINT('',(-0.0539155509751183,8.67361737988404E-19,0.0432098110802872));
#847=CARTESIAN_POINT('',(-0.0539155509751183,0.014605,0.0432098110802872));
#848=CARTESIAN_POINT('',(-0.0550059458526969,0.014605,0.0421194162027086));
#849=CARTESIAN_POINT('',(-0.0550059458526969,0.010795,0.0421194162027086));
#850=CARTESIAN_POINT('',(-0.0545569330466434,0.010795,0.0425684290087621));
#851=CARTESIAN_POINT('',(-0.0550059458526969,0.005715,0.0421194162027086));
#852=CARTESIAN_POINT('',(-0.0545569330466434,0.005715,0.0425684290087621));
#853=CARTESIAN_POINT('',(-0.0550059458526969,0.000635,0.0421194162027086));
#854=CARTESIAN_POINT('',(-0.0545569330466434,0.000635,0.0425684290087621));
#855=CARTESIAN_POINT('',(-0.0550059458526969,-0.006985,0.0421194162027086));
#856=CARTESIAN_POINT('',(-0.0545569330466434,-0.006985,0.0425684290087621));
#857=CARTESIAN_POINT('',(-0.0544958394462155,-0.0125166898364447,0.04262952260919));
#858=CARTESIAN_POINT('',(-0.0544958394462155,-0.012065,0.04262952260919));
#859=CARTESIAN_POINT('',(-0.0544958394462155,-0.0129683796728894,0.04262952260919));
#860=CARTESIAN_POINT('',(-0.0550059458526969,-0.0129683796728894,0.0421194162027086));
#861=CARTESIAN_POINT('',(-0.0555160522591783,-0.0129683796728894,0.0416093097962272));
#862=CARTESIAN_POINT('',(-0.0555160522591784,-0.0125166898364447,0.0416093097962272));
#863=CARTESIAN_POINT('',(-0.0555160522591784,-0.012065,0.0416093097962272));
#864=CARTESIAN_POINT('',(-0.0550059458526969,-0.012065,0.0421194162027086));
#865=CARTESIAN_POINT('',(-0.0550059458526969,-0.009525,0.0421194162027086));
#866=CARTESIAN_POINT('',(-0.0545569330466434,-0.009525,0.0425684290087621));
#867=CARTESIAN_POINT('',(-0.0550059458526969,-0.001905,0.0421194162027086));
#868=CARTESIAN_POINT('',(-0.0545569330466434,-0.001905,0.0425684290087621));
#869=CARTESIAN_POINT('',(-0.0550059458526969,0.003175,0.0421194162027086));
#870=CARTESIAN_POINT('',(-0.0545569330466434,0.003175,0.0425684290087621));
#871=CARTESIAN_POINT('',(-0.0550059458526969,0.008255,0.0421194162027086));
#872=CARTESIAN_POINT('',(-0.0545569330466434,0.008255,0.0425684290087621));
#873=CARTESIAN_POINT('',(-0.0550059458526969,0.013335,0.0421194162027086));
#874=CARTESIAN_POINT('',(-0.0545830797920419,0.013335,0.0425422822633636));
#875=CARTESIAN_POINT('',(-0.0308759458526969,-0.015875,0.0272386264475513));
#876=CARTESIAN_POINT('',(-0.0308759458526969,0.015875,0.0272386264475513));
#877=CARTESIAN_POINT('',(-0.0308759458526969,0.015875,0.0437486264475513));
#878=CARTESIAN_POINT('',(-0.0308759458526969,0.015875,0.0132686264475513));
#879=CARTESIAN_POINT('',(-0.0308759458526969,-0.015875,0.0437486264475513));
#880=CARTESIAN_POINT('',(-0.0308759458526969,-0.015875,0.0437486264475513));
#881=CARTESIAN_POINT('',(-0.0308759458526969,-0.015875,0.0272386264475513));
#882=CARTESIAN_POINT('',(-0.0308759458526969,-0.015875,0.0132686264475513));
#883=CARTESIAN_POINT('',(-0.0308759458526969,-0.015875,0.0132686264475513));
#884=CARTESIAN_POINT('',(-0.0423059458526969,-0.015875,0.0437486264475513));
#885=CARTESIAN_POINT('',(-0.0423059458526969,0.015875,0.0437486264475513));
#886=CARTESIAN_POINT('',(-0.0537359458526969,0.015875,0.0437486264475513));
#887=CARTESIAN_POINT('',(-0.0537359458526969,-0.015875,0.0437486264475513));
#888=CARTESIAN_POINT('',(-0.0537359458526969,-0.015875,0.0437486264475513));
#889=CARTESIAN_POINT('',(-0.0423059458526969,-0.015875,0.0437486264475513));
#890=CARTESIAN_POINT('',(-0.0550059458526969,-0.015875,0.0424786264475513));
#891=CARTESIAN_POINT('',(-0.0551855509751183,0.014605,0.0422990213251299));
#892=CARTESIAN_POINT('',(-0.0540951560975397,0.014605,0.0433894162027086));
#893=CARTESIAN_POINT('',(-0.0540951560975397,8.67361737988404E-19,0.0433894162027086));
#894=CARTESIAN_POINT('',(-0.0540951560975397,-0.014605,0.0433894162027086));
#895=CARTESIAN_POINT('',(-0.0551855509751183,-0.014605,0.0422990213251299));
#896=CARTESIAN_POINT('',(-0.0550059458526969,-0.015875,0.0424786264475513));
#897=CARTESIAN_POINT('',(-0.0550059458526969,0.015875,0.0424786264475513));
#898=CARTESIAN_POINT('',(-0.0435759458526969,-0.015875,0.0132686264475513));
#899=CARTESIAN_POINT('',(-0.0435759458526969,0.015875,0.0132686264475513));
#900=CARTESIAN_POINT('',(-0.0435759458526969,-0.015875,0.0132686264475513));
#901=CARTESIAN_POINT('',(-0.0435759458526969,-0.015875,0.0285086264475513));
#902=CARTESIAN_POINT('',(-0.0435759458526969,0.015875,0.0285086264475513));
#903=CARTESIAN_POINT('',(-0.0539155509751183,8.67361737988404E-19,0.0432098110802872));
#904=CARTESIAN_POINT('',(-0.0539155509751183,0.014605,0.0432098110802872));
#905=CARTESIAN_POINT('',(-0.0539155509751183,-0.014605,0.0432098110802872));
#906=CARTESIAN_POINT('',(-0.0550059458526969,0.014605,0.0421194162027086));
#907=CARTESIAN_POINT('',(-0.0557679458526969,0.014605,0.0145386264475513));
#908=CARTESIAN_POINT('',(-0.0557679458526969,0.014605,0.0145386264475513));
#909=CARTESIAN_POINT('',(-0.0557679458526969,0.014605,0.0278736264475513));
#910=CARTESIAN_POINT('',(-0.0557679458526969,0.014605,0.0412086264475513));
#911=CARTESIAN_POINT('',(-0.0557679458526969,0.014605,0.0412086264475513));
#912=CARTESIAN_POINT('',(-0.0550059458526969,-0.014605,0.0421194162027086));
#913=CARTESIAN_POINT('',(-0.0557679458526969,-0.014605,0.0412086264475513));
#914=CARTESIAN_POINT('',(-0.0557679458526969,-0.014605,0.0412086264475513));
#915=CARTESIAN_POINT('',(-0.0557679458526969,-0.014605,0.0278736264475513));
#916=CARTESIAN_POINT('',(-0.0557679458526969,-0.014605,0.0145386264475513));
#917=CARTESIAN_POINT('',(-0.0557679458526969,-0.014605,0.0145386264475513));
#918=CARTESIAN_POINT('',(-0.0546754445686369,-0.0125166898364447,0.0428091277316114));
#919=CARTESIAN_POINT('',(-0.0546754445686369,-0.012065,0.0428091277316114));
#920=CARTESIAN_POINT('',(-0.0546754445686369,-0.012065,0.0428091277316114));
#921=CARTESIAN_POINT('',(-0.0546754445686369,-0.0125166898364447,0.0428091277316114));
#922=CARTESIAN_POINT('',(-0.0546754445686369,-0.0129683796728894,0.0428091277316114));
#923=CARTESIAN_POINT('',(-0.0546754445686369,-0.0129683796728894,0.0428091277316114));
#924=CARTESIAN_POINT('',(-0.0551855509751183,-0.012065,0.04229902132513));
#925=CARTESIAN_POINT('',(-0.0556956573815998,-0.012065,0.0417889149186485));
#926=CARTESIAN_POINT('',(-0.0556956573815998,-0.012065,0.0417889149186485));
#927=CARTESIAN_POINT('',(-0.0551855509751183,-0.012065,0.04229902132513));
#928=CARTESIAN_POINT('',(-0.0556956573815998,-0.0125166898364447,0.0417889149186485));
#929=CARTESIAN_POINT('',(-0.0556956573815998,-0.0129683796728894,0.0417889149186485));
#930=CARTESIAN_POINT('',(-0.0556956573815998,-0.0129683796728894,0.0417889149186485));
#931=CARTESIAN_POINT('',(-0.0556956573815998,-0.0125166898364447,0.0417889149186485));
#932=CARTESIAN_POINT('',(-0.0551855509751183,-0.0129683796728894,0.04229902132513));
#933=CARTESIAN_POINT('',(-0.0551855509751183,-0.0129683796728894,0.04229902132513));
#934=CARTESIAN_POINT('',(-0.0551855509751183,3.46944695195361E-18,0.04229902132513));
#935=CARTESIAN_POINT('',(-0.0551855509751183,-0.009525,0.04229902132513));
#936=CARTESIAN_POINT('',(-0.0551855509751183,-0.009525,0.04229902132513));
#937=CARTESIAN_POINT('',(-0.0547365381690648,-0.009525,0.0427480341311835));
#938=CARTESIAN_POINT('',(-0.0551855509751183,3.46944695195361E-18,0.04229902132513));
#939=CARTESIAN_POINT('',(-0.0551855509751183,-0.006985,0.04229902132513));
#940=CARTESIAN_POINT('',(-0.0551855509751183,-0.006985,0.04229902132513));
#941=CARTESIAN_POINT('',(-0.0547365381690648,-0.006985,0.0427480341311835));
#942=CARTESIAN_POINT('',(-0.0551855509751183,3.46944695195361E-18,0.04229902132513));
#943=CARTESIAN_POINT('',(-0.0551855509751183,-0.001905,0.04229902132513));
#944=CARTESIAN_POINT('',(-0.0551855509751183,-0.001905,0.04229902132513));
#945=CARTESIAN_POINT('',(-0.0547365381690648,-0.001905,0.0427480341311835));
#946=CARTESIAN_POINT('',(-0.0551855509751183,3.46944695195361E-18,0.04229902132513));
#947=CARTESIAN_POINT('',(-0.0551855509751183,0.000635,0.04229902132513));
#948=CARTESIAN_POINT('',(-0.0551855509751183,0.000635,0.04229902132513));
#949=CARTESIAN_POINT('',(-0.0547365381690648,0.000635,0.0427480341311835));
#950=CARTESIAN_POINT('',(-0.0551855509751183,3.46944695195361E-18,0.04229902132513));
#951=CARTESIAN_POINT('',(-0.0551855509751183,0.003175,0.0422990213251299));
#952=CARTESIAN_POINT('',(-0.0551855509751183,0.003175,0.0422990213251299));
#953=CARTESIAN_POINT('',(-0.0547365381690648,0.003175,0.0427480341311834));
#954=CARTESIAN_POINT('',(-0.0551855509751183,3.46944695195361E-18,0.04229902132513));
#955=CARTESIAN_POINT('',(-0.0551855509751183,0.005715,0.0422990213251299));
#956=CARTESIAN_POINT('',(-0.0551855509751183,0.005715,0.0422990213251299));
#957=CARTESIAN_POINT('',(-0.0547365381690648,0.005715,0.0427480341311834));
#958=CARTESIAN_POINT('',(-0.0551855509751183,3.46944695195361E-18,0.04229902132513));
#959=CARTESIAN_POINT('',(-0.0551855509751183,0.008255,0.0422990213251299));
#960=CARTESIAN_POINT('',(-0.0551855509751183,0.008255,0.0422990213251299));
#961=CARTESIAN_POINT('',(-0.0547365381690648,0.008255,0.0427480341311834));
#962=CARTESIAN_POINT('',(-0.0551855509751183,3.46944695195361E-18,0.04229902132513));
#963=CARTESIAN_POINT('',(-0.0551855509751183,0.010795,0.0422990213251299));
#964=CARTESIAN_POINT('',(-0.0551855509751183,0.010795,0.0422990213251299));
#965=CARTESIAN_POINT('',(-0.0547365381690648,0.010795,0.0427480341311834));
#966=CARTESIAN_POINT('',(-0.0551855509751183,3.46944695195361E-18,0.04229902132513));
#967=CARTESIAN_POINT('',(-0.0551855509751183,0.013335,0.0422990213251299));
#968=CARTESIAN_POINT('',(-0.0551855509751183,0.013335,0.0422990213251299));
#969=CARTESIAN_POINT('',(-0.0547626849144633,0.013335,0.042721887385785));
#970=CARTESIAN_POINT('',(-0.0551855509751183,3.46944695195361E-18,0.04229902132513));
#971=CARTESIAN_POINT('',(-0.0551855509751183,0.013335,0.04229902132513));
#972=CARTESIAN_POINT('',(-0.0549459604709168,0.013335,0.0425386118293315));
#973=CARTESIAN_POINT('',(-0.0557679458526969,-0.015875,0.0412086264475513));
#974=CARTESIAN_POINT('',(-0.0557679458526969,-0.015875,0.0412086264475513));
#975=CARTESIAN_POINT('',(-0.0557679458526969,0.,0.0145386264475513));
#976=CARTESIAN_POINT('',(-0.0557679458526969,0.,0.0145386264475513));
#977=CARTESIAN_POINT('',(-0.0557679458526969,0.,0.0272386264475513));
#978=CARTESIAN_POINT('',(-0.0547365381690649,0.013335,0.0418500085190765));
#979=CARTESIAN_POINT('',(-0.0547365381690649,0.013335,0.0418500085190765));
#980=CARTESIAN_POINT('',(-0.0544969476648634,0.013335,0.042089599023278));
#981=CARTESIAN_POINT('',(-0.0547365381690649,0.013335,0.0418500085190766));
#982=MECHANICAL_DESIGN_GEOMETRIC_PRESENTATION_REPRESENTATION('',(#583),
#983);
#983=(
GEOMETRIC_REPRESENTATION_CONTEXT(3)
GLOBAL_UNCERTAINTY_ASSIGNED_CONTEXT((#984))
GLOBAL_UNIT_ASSIGNED_CONTEXT((#987,#986,#985))
REPRESENTATION_CONTEXT('Part 1','TOP_LEVEL_ASSEMBLY_PART')
);
#984=UNCERTAINTY_MEASURE_WITH_UNIT(LENGTH_MEASURE(1.E-8),#987,
'DISTANCE_ACCURACY_VALUE','Maximum Tolerance applied to model');
#985=(
NAMED_UNIT(*)
SI_UNIT($,.STERADIAN.)
SOLID_ANGLE_UNIT()
);
#986=(
NAMED_UNIT(*)
PLANE_ANGLE_UNIT()
SI_UNIT($,.RADIAN.)
);
#987=(
LENGTH_UNIT()
NAMED_UNIT(*)
SI_UNIT($,.METRE.)
);
#988=PRODUCT_DEFINITION_SHAPE('','',#989);
#989=PRODUCT_DEFINITION('','',#991,#990);
#990=PRODUCT_DEFINITION_CONTEXT('',#997,'design');
#991=PRODUCT_DEFINITION_FORMATION_WITH_SPECIFIED_SOURCE('','',#993,
 .NOT_KNOWN.);
#992=PRODUCT_RELATED_PRODUCT_CATEGORY('','',(#993));
#993=PRODUCT('Part 1','Part 1','Part 1',(#995));
#994=PRODUCT_CATEGORY('','');
#995=PRODUCT_CONTEXT('',#997,'mechanical');
#996=APPLICATION_PROTOCOL_DEFINITION('international standard',
'ap242_managed_model_based_3d_engineering',2020,#997);
#997=APPLICATION_CONTEXT('managed model based 3d engineering');
ENDSEC;
END-ISO-10303-21;
