ISO-10303-21;
HEADER;
/* Generated by software containing ST-Developer
 * from STEP Tools, Inc. (www.steptools.com) 
 */
/* OPTION: using custom renumber hook */

FILE_DESCRIPTION(
/* description */ ('STEP AP242 Edition 2',
'CAx-IF Rec.Pracs.---Representation and Presentation of Product Manufa
cturing Information (PMI)---4.0---2014-10-13',
'CAx-IF Rec.Pracs.---3D Tessellated Geometry---0.4---2014-09-14','2;1',
'CAx-IF Rec.Pracs.---User Defined Attributes---1.5---2016-08-15'),
/* implementation_level */ '2;1');

FILE_NAME(
/* name */ 'Bookshelf',
/* time_stamp */ '2026-09-08T02:25:06Z',
/* author */ (''),
/* organization */ (''),
/* preprocessor_version */ 'ST-DEVELOPER v20',
/* originating_system */ 'ONSHAPE BY PTC INC, 1.220',
/* authorisation */ '  ');

FILE_SCHEMA (('AP242_MANAGED_MODEL_BASED_3D_ENGINEERING_MIM_LF { 1 0 10303 442 3 1 4 }'));
ENDSEC;

DATA;
#10=SHAPE_REPRESENTATION_RELATIONSHIP('','',#967,#11);
#11=ADVANCED_BREP_SHAPE_REPRESENTATION('',(#965),#1517);
#12=ORIENTED_EDGE('',*,*,#276,.F.);
#13=ORIENTED_EDGE('',*,*,#277,.T.);
#14=ORIENTED_EDGE('',*,*,#278,.F.);
#15=ORIENTED_EDGE('',*,*,#279,.F.);
#16=ORIENTED_EDGE('',*,*,#280,.F.);
#17=ORIENTED_EDGE('',*,*,#281,.F.);
#18=ORIENTED_EDGE('',*,*,#282,.F.);
#19=ORIENTED_EDGE('',*,*,#283,.F.);
#20=ORIENTED_EDGE('',*,*,#284,.F.);
#21=ORIENTED_EDGE('',*,*,#285,.F.);
#22=ORIENTED_EDGE('',*,*,#286,.T.);
#23=ORIENTED_EDGE('',*,*,#287,.F.);
#24=ORIENTED_EDGE('',*,*,#288,.F.);
#25=ORIENTED_EDGE('',*,*,#289,.F.);
#26=ORIENTED_EDGE('',*,*,#290,.T.);
#27=ORIENTED_EDGE('',*,*,#291,.T.);
#28=ORIENTED_EDGE('',*,*,#292,.F.);
#29=ORIENTED_EDGE('',*,*,#293,.F.);
#30=ORIENTED_EDGE('',*,*,#294,.T.);
#31=ORIENTED_EDGE('',*,*,#295,.T.);
#32=ORIENTED_EDGE('',*,*,#296,.F.);
#33=ORIENTED_EDGE('',*,*,#297,.F.);
#34=ORIENTED_EDGE('',*,*,#298,.T.);
#35=ORIENTED_EDGE('',*,*,#299,.F.);
#36=ORIENTED_EDGE('',*,*,#300,.F.);
#37=ORIENTED_EDGE('',*,*,#301,.T.);
#38=ORIENTED_EDGE('',*,*,#297,.T.);
#39=ORIENTED_EDGE('',*,*,#302,.F.);
#40=ORIENTED_EDGE('',*,*,#303,.T.);
#41=ORIENTED_EDGE('',*,*,#304,.T.);
#42=ORIENTED_EDGE('',*,*,#289,.T.);
#43=ORIENTED_EDGE('',*,*,#305,.F.);
#44=ORIENTED_EDGE('',*,*,#306,.F.);
#45=ORIENTED_EDGE('',*,*,#285,.T.);
#46=ORIENTED_EDGE('',*,*,#307,.T.);
#47=ORIENTED_EDGE('',*,*,#308,.T.);
#48=ORIENTED_EDGE('',*,*,#309,.T.);
#49=ORIENTED_EDGE('',*,*,#283,.T.);
#50=ORIENTED_EDGE('',*,*,#310,.F.);
#51=ORIENTED_EDGE('',*,*,#311,.T.);
#52=ORIENTED_EDGE('',*,*,#312,.F.);
#53=ORIENTED_EDGE('',*,*,#279,.T.);
#54=ORIENTED_EDGE('',*,*,#313,.F.);
#55=ORIENTED_EDGE('',*,*,#314,.F.);
#56=ORIENTED_EDGE('',*,*,#315,.F.);
#57=ORIENTED_EDGE('',*,*,#316,.T.);
#58=ORIENTED_EDGE('',*,*,#317,.F.);
#59=ORIENTED_EDGE('',*,*,#318,.F.);
#60=ORIENTED_EDGE('',*,*,#319,.F.);
#61=ORIENTED_EDGE('',*,*,#320,.T.);
#62=ORIENTED_EDGE('',*,*,#321,.T.);
#63=ORIENTED_EDGE('',*,*,#322,.T.);
#64=ORIENTED_EDGE('',*,*,#323,.F.);
#65=ORIENTED_EDGE('',*,*,#324,.F.);
#66=ORIENTED_EDGE('',*,*,#325,.T.);
#67=ORIENTED_EDGE('',*,*,#293,.T.);
#68=ORIENTED_EDGE('',*,*,#326,.T.);
#69=ORIENTED_EDGE('',*,*,#327,.T.);
#70=ORIENTED_EDGE('',*,*,#300,.T.);
#71=ORIENTED_EDGE('',*,*,#328,.F.);
#72=ORIENTED_EDGE('',*,*,#329,.T.);
#73=ORIENTED_EDGE('',*,*,#330,.T.);
#74=ORIENTED_EDGE('',*,*,#314,.T.);
#75=ORIENTED_EDGE('',*,*,#331,.F.);
#76=ORIENTED_EDGE('',*,*,#332,.F.);
#77=ORIENTED_EDGE('',*,*,#333,.T.);
#78=ORIENTED_EDGE('',*,*,#324,.T.);
#79=ORIENTED_EDGE('',*,*,#334,.F.);
#80=ORIENTED_EDGE('',*,*,#335,.F.);
#81=ORIENTED_EDGE('',*,*,#336,.F.);
#82=ORIENTED_EDGE('',*,*,#337,.T.);
#83=ORIENTED_EDGE('',*,*,#338,.T.);
#84=ORIENTED_EDGE('',*,*,#339,.F.);
#85=ORIENTED_EDGE('',*,*,#340,.T.);
#86=ORIENTED_EDGE('',*,*,#291,.F.);
#87=ORIENTED_EDGE('',*,*,#341,.F.);
#88=ORIENTED_EDGE('',*,*,#342,.F.);
#89=ORIENTED_EDGE('',*,*,#343,.T.);
#90=ORIENTED_EDGE('',*,*,#295,.F.);
#91=ORIENTED_EDGE('',*,*,#344,.F.);
#92=ORIENTED_EDGE('',*,*,#336,.T.);
#93=ORIENTED_EDGE('',*,*,#345,.T.);
#94=ORIENTED_EDGE('',*,*,#277,.F.);
#95=ORIENTED_EDGE('',*,*,#346,.F.);
#96=ORIENTED_EDGE('',*,*,#347,.F.);
#97=ORIENTED_EDGE('',*,*,#338,.F.);
#98=ORIENTED_EDGE('',*,*,#348,.T.);
#99=ORIENTED_EDGE('',*,*,#332,.T.);
#100=ORIENTED_EDGE('',*,*,#337,.F.);
#101=ORIENTED_EDGE('',*,*,#344,.T.);
#102=ORIENTED_EDGE('',*,*,#294,.F.);
#103=ORIENTED_EDGE('',*,*,#325,.F.);
#104=ORIENTED_EDGE('',*,*,#333,.F.);
#105=ORIENTED_EDGE('',*,*,#348,.F.);
#106=ORIENTED_EDGE('',*,*,#335,.T.);
#107=ORIENTED_EDGE('',*,*,#347,.T.);
#108=ORIENTED_EDGE('',*,*,#331,.T.);
#109=ORIENTED_EDGE('',*,*,#313,.T.);
#110=ORIENTED_EDGE('',*,*,#278,.T.);
#111=ORIENTED_EDGE('',*,*,#345,.F.);
#112=ORIENTED_EDGE('',*,*,#306,.T.);
#113=ORIENTED_EDGE('',*,*,#330,.F.);
#114=ORIENTED_EDGE('',*,*,#349,.F.);
#115=ORIENTED_EDGE('',*,*,#350,.T.);
#116=ORIENTED_EDGE('',*,*,#351,.T.);
#117=ORIENTED_EDGE('',*,*,#286,.F.);
#118=ORIENTED_EDGE('',*,*,#305,.T.);
#119=ORIENTED_EDGE('',*,*,#288,.T.);
#120=ORIENTED_EDGE('',*,*,#352,.F.);
#121=ORIENTED_EDGE('',*,*,#353,.F.);
#122=ORIENTED_EDGE('',*,*,#354,.F.);
#123=ORIENTED_EDGE('',*,*,#328,.T.);
#124=ORIENTED_EDGE('',*,*,#349,.T.);
#125=ORIENTED_EDGE('',*,*,#329,.F.);
#126=ORIENTED_EDGE('',*,*,#354,.T.);
#127=ORIENTED_EDGE('',*,*,#355,.T.);
#128=ORIENTED_EDGE('',*,*,#301,.F.);
#129=ORIENTED_EDGE('',*,*,#327,.F.);
#130=ORIENTED_EDGE('',*,*,#356,.T.);
#131=ORIENTED_EDGE('',*,*,#357,.T.);
#132=ORIENTED_EDGE('',*,*,#358,.T.);
#133=ORIENTED_EDGE('',*,*,#298,.F.);
#134=ORIENTED_EDGE('',*,*,#323,.T.);
#135=ORIENTED_EDGE('',*,*,#292,.T.);
#136=ORIENTED_EDGE('',*,*,#359,.F.);
#137=ORIENTED_EDGE('',*,*,#360,.F.);
#138=ORIENTED_EDGE('',*,*,#361,.F.);
#139=ORIENTED_EDGE('',*,*,#334,.T.);
#140=ORIENTED_EDGE('',*,*,#356,.F.);
#141=ORIENTED_EDGE('',*,*,#326,.F.);
#142=ORIENTED_EDGE('',*,*,#361,.T.);
#143=ORIENTED_EDGE('',*,*,#362,.T.);
#144=ORIENTED_EDGE('',*,*,#315,.T.);
#145=ORIENTED_EDGE('',*,*,#363,.F.);
#146=ORIENTED_EDGE('',*,*,#364,.F.);
#147=ORIENTED_EDGE('',*,*,#365,.T.);
#148=ORIENTED_EDGE('',*,*,#318,.T.);
#149=ORIENTED_EDGE('',*,*,#366,.F.);
#150=ORIENTED_EDGE('',*,*,#367,.F.);
#151=ORIENTED_EDGE('',*,*,#363,.T.);
#152=ORIENTED_EDGE('',*,*,#317,.T.);
#153=ORIENTED_EDGE('',*,*,#368,.F.);
#154=ORIENTED_EDGE('',*,*,#369,.F.);
#155=ORIENTED_EDGE('',*,*,#366,.T.);
#156=ORIENTED_EDGE('',*,*,#316,.F.);
#157=ORIENTED_EDGE('',*,*,#365,.F.);
#158=ORIENTED_EDGE('',*,*,#370,.T.);
#159=ORIENTED_EDGE('',*,*,#368,.T.);
#160=ORIENTED_EDGE('',*,*,#364,.T.);
#161=ORIENTED_EDGE('',*,*,#367,.T.);
#162=ORIENTED_EDGE('',*,*,#369,.T.);
#163=ORIENTED_EDGE('',*,*,#370,.F.);
#164=ORIENTED_EDGE('',*,*,#311,.F.);
#165=ORIENTED_EDGE('',*,*,#371,.F.);
#166=ORIENTED_EDGE('',*,*,#372,.T.);
#167=ORIENTED_EDGE('',*,*,#373,.T.);
#168=ORIENTED_EDGE('',*,*,#310,.T.);
#169=ORIENTED_EDGE('',*,*,#282,.T.);
#170=ORIENTED_EDGE('',*,*,#374,.F.);
#171=ORIENTED_EDGE('',*,*,#375,.F.);
#172=ORIENTED_EDGE('',*,*,#376,.F.);
#173=ORIENTED_EDGE('',*,*,#371,.T.);
#174=ORIENTED_EDGE('',*,*,#312,.T.);
#175=ORIENTED_EDGE('',*,*,#373,.F.);
#176=ORIENTED_EDGE('',*,*,#377,.F.);
#177=ORIENTED_EDGE('',*,*,#378,.F.);
#178=ORIENTED_EDGE('',*,*,#379,.T.);
#179=ORIENTED_EDGE('',*,*,#280,.T.);
#180=ORIENTED_EDGE('',*,*,#372,.F.);
#181=ORIENTED_EDGE('',*,*,#376,.T.);
#182=ORIENTED_EDGE('',*,*,#380,.T.);
#183=ORIENTED_EDGE('',*,*,#377,.T.);
#184=ORIENTED_EDGE('',*,*,#320,.F.);
#185=ORIENTED_EDGE('',*,*,#381,.F.);
#186=ORIENTED_EDGE('',*,*,#382,.T.);
#187=ORIENTED_EDGE('',*,*,#383,.T.);
#188=ORIENTED_EDGE('',*,*,#319,.T.);
#189=ORIENTED_EDGE('',*,*,#384,.F.);
#190=ORIENTED_EDGE('',*,*,#385,.F.);
#191=ORIENTED_EDGE('',*,*,#381,.T.);
#192=ORIENTED_EDGE('',*,*,#322,.F.);
#193=ORIENTED_EDGE('',*,*,#386,.F.);
#194=ORIENTED_EDGE('',*,*,#387,.T.);
#195=ORIENTED_EDGE('',*,*,#384,.T.);
#196=ORIENTED_EDGE('',*,*,#321,.F.);
#197=ORIENTED_EDGE('',*,*,#383,.F.);
#198=ORIENTED_EDGE('',*,*,#388,.T.);
#199=ORIENTED_EDGE('',*,*,#386,.T.);
#200=ORIENTED_EDGE('',*,*,#382,.F.);
#201=ORIENTED_EDGE('',*,*,#385,.T.);
#202=ORIENTED_EDGE('',*,*,#387,.F.);
#203=ORIENTED_EDGE('',*,*,#388,.F.);
#204=ORIENTED_EDGE('',*,*,#307,.F.);
#205=ORIENTED_EDGE('',*,*,#284,.T.);
#206=ORIENTED_EDGE('',*,*,#340,.F.);
#207=ORIENTED_EDGE('',*,*,#389,.F.);
#208=ORIENTED_EDGE('',*,*,#390,.T.);
#209=ORIENTED_EDGE('',*,*,#391,.T.);
#210=ORIENTED_EDGE('',*,*,#309,.F.);
#211=ORIENTED_EDGE('',*,*,#392,.F.);
#212=ORIENTED_EDGE('',*,*,#393,.T.);
#213=ORIENTED_EDGE('',*,*,#394,.F.);
#214=ORIENTED_EDGE('',*,*,#346,.T.);
#215=ORIENTED_EDGE('',*,*,#276,.T.);
#216=ORIENTED_EDGE('',*,*,#308,.F.);
#217=ORIENTED_EDGE('',*,*,#391,.F.);
#218=ORIENTED_EDGE('',*,*,#395,.T.);
#219=ORIENTED_EDGE('',*,*,#392,.T.);
#220=ORIENTED_EDGE('',*,*,#390,.F.);
#221=ORIENTED_EDGE('',*,*,#396,.T.);
#222=ORIENTED_EDGE('',*,*,#393,.F.);
#223=ORIENTED_EDGE('',*,*,#395,.F.);
#224=ORIENTED_EDGE('',*,*,#303,.F.);
#225=ORIENTED_EDGE('',*,*,#397,.F.);
#226=ORIENTED_EDGE('',*,*,#398,.T.);
#227=ORIENTED_EDGE('',*,*,#399,.T.);
#228=ORIENTED_EDGE('',*,*,#302,.T.);
#229=ORIENTED_EDGE('',*,*,#296,.T.);
#230=ORIENTED_EDGE('',*,*,#343,.F.);
#231=ORIENTED_EDGE('',*,*,#400,.F.);
#232=ORIENTED_EDGE('',*,*,#401,.F.);
#233=ORIENTED_EDGE('',*,*,#397,.T.);
#234=ORIENTED_EDGE('',*,*,#304,.F.);
#235=ORIENTED_EDGE('',*,*,#399,.F.);
#236=ORIENTED_EDGE('',*,*,#402,.T.);
#237=ORIENTED_EDGE('',*,*,#403,.T.);
#238=ORIENTED_EDGE('',*,*,#341,.T.);
#239=ORIENTED_EDGE('',*,*,#290,.F.);
#240=ORIENTED_EDGE('',*,*,#398,.F.);
#241=ORIENTED_EDGE('',*,*,#401,.T.);
#242=ORIENTED_EDGE('',*,*,#404,.T.);
#243=ORIENTED_EDGE('',*,*,#402,.F.);
#244=ORIENTED_EDGE('',*,*,#287,.T.);
#245=ORIENTED_EDGE('',*,*,#351,.F.);
#246=ORIENTED_EDGE('',*,*,#405,.F.);
#247=ORIENTED_EDGE('',*,*,#352,.T.);
#248=ORIENTED_EDGE('',*,*,#350,.F.);
#249=ORIENTED_EDGE('',*,*,#355,.F.);
#250=ORIENTED_EDGE('',*,*,#353,.T.);
#251=ORIENTED_EDGE('',*,*,#405,.T.);
#252=ORIENTED_EDGE('',*,*,#299,.T.);
#253=ORIENTED_EDGE('',*,*,#358,.F.);
#254=ORIENTED_EDGE('',*,*,#406,.F.);
#255=ORIENTED_EDGE('',*,*,#359,.T.);
#256=ORIENTED_EDGE('',*,*,#360,.T.);
#257=ORIENTED_EDGE('',*,*,#406,.T.);
#258=ORIENTED_EDGE('',*,*,#357,.F.);
#259=ORIENTED_EDGE('',*,*,#362,.F.);
#260=ORIENTED_EDGE('',*,*,#281,.T.);
#261=ORIENTED_EDGE('',*,*,#379,.F.);
#262=ORIENTED_EDGE('',*,*,#407,.F.);
#263=ORIENTED_EDGE('',*,*,#374,.T.);
#264=ORIENTED_EDGE('',*,*,#407,.T.);
#265=ORIENTED_EDGE('',*,*,#378,.T.);
#266=ORIENTED_EDGE('',*,*,#380,.F.);
#267=ORIENTED_EDGE('',*,*,#375,.T.);
#268=ORIENTED_EDGE('',*,*,#403,.F.);
#269=ORIENTED_EDGE('',*,*,#404,.F.);
#270=ORIENTED_EDGE('',*,*,#400,.T.);
#271=ORIENTED_EDGE('',*,*,#342,.T.);
#272=ORIENTED_EDGE('',*,*,#394,.T.);
#273=ORIENTED_EDGE('',*,*,#396,.F.);
#274=ORIENTED_EDGE('',*,*,#389,.T.);
#275=ORIENTED_EDGE('',*,*,#339,.T.);
#276=EDGE_CURVE('',#408,#409,#496,.T.);
#277=EDGE_CURVE('',#408,#410,#497,.T.);
#278=EDGE_CURVE('',#411,#410,#498,.T.);
#279=EDGE_CURVE('',#412,#411,#499,.T.);
#280=EDGE_CURVE('',#413,#412,#500,.T.);
#281=EDGE_CURVE('',#414,#413,#501,.T.);
#282=EDGE_CURVE('',#415,#414,#502,.T.);
#283=EDGE_CURVE('',#409,#415,#503,.T.);
#284=EDGE_CURVE('',#416,#417,#504,.T.);
#285=EDGE_CURVE('',#418,#416,#505,.T.);
#286=EDGE_CURVE('',#418,#419,#506,.T.);
#287=EDGE_CURVE('',#420,#419,#507,.T.);
#288=EDGE_CURVE('',#421,#420,#508,.T.);
#289=EDGE_CURVE('',#422,#421,#509,.T.);
#290=EDGE_CURVE('',#422,#423,#510,.T.);
#291=EDGE_CURVE('',#423,#417,#511,.T.);
#292=EDGE_CURVE('',#424,#425,#512,.T.);
#293=EDGE_CURVE('',#426,#424,#513,.T.);
#294=EDGE_CURVE('',#426,#427,#514,.T.);
#295=EDGE_CURVE('',#427,#428,#515,.T.);
#296=EDGE_CURVE('',#429,#428,#516,.T.);
#297=EDGE_CURVE('',#430,#429,#517,.T.);
#298=EDGE_CURVE('',#430,#431,#518,.T.);
#299=EDGE_CURVE('',#425,#431,#519,.T.);
#300=EDGE_CURVE('',#432,#433,#520,.T.);
#301=EDGE_CURVE('',#432,#430,#521,.T.);
#302=EDGE_CURVE('',#434,#429,#522,.T.);
#303=EDGE_CURVE('',#434,#435,#523,.T.);
#304=EDGE_CURVE('',#435,#422,#524,.T.);
#305=EDGE_CURVE('',#433,#421,#525,.T.);
#306=EDGE_CURVE('',#418,#436,#526,.T.);
#307=EDGE_CURVE('',#416,#437,#527,.T.);
#308=EDGE_CURVE('',#437,#438,#528,.T.);
#309=EDGE_CURVE('',#438,#409,#529,.T.);
#310=EDGE_CURVE('',#439,#415,#530,.T.);
#311=EDGE_CURVE('',#439,#440,#531,.T.);
#312=EDGE_CURVE('',#412,#440,#532,.T.);
#313=EDGE_CURVE('',#441,#411,#533,.T.);
#314=EDGE_CURVE('',#436,#441,#534,.T.);
#315=EDGE_CURVE('',#442,#443,#535,.T.);
#316=EDGE_CURVE('',#442,#444,#536,.T.);
#317=EDGE_CURVE('',#445,#444,#537,.T.);
#318=EDGE_CURVE('',#443,#445,#538,.T.);
#319=EDGE_CURVE('',#446,#447,#539,.T.);
#320=EDGE_CURVE('',#446,#448,#540,.T.);
#321=EDGE_CURVE('',#448,#449,#541,.T.);
#322=EDGE_CURVE('',#449,#447,#542,.T.);
#323=EDGE_CURVE('',#450,#424,#543,.T.);
#324=EDGE_CURVE('',#451,#450,#544,.T.);
#325=EDGE_CURVE('',#451,#426,#545,.T.);
#326=EDGE_CURVE('',#452,#453,#546,.T.);
#327=EDGE_CURVE('',#453,#432,#547,.T.);
#328=EDGE_CURVE('',#454,#433,#548,.T.);
#329=EDGE_CURVE('',#454,#455,#549,.T.);
#330=EDGE_CURVE('',#455,#436,#550,.T.);
#331=EDGE_CURVE('',#456,#441,#551,.T.);
#332=EDGE_CURVE('',#457,#456,#552,.T.);
#333=EDGE_CURVE('',#457,#451,#553,.T.);
#334=EDGE_CURVE('',#452,#450,#554,.T.);
#335=EDGE_CURVE('',#458,#459,#555,.T.);
#336=EDGE_CURVE('',#460,#458,#556,.T.);
#337=EDGE_CURVE('',#460,#461,#557,.T.);
#338=EDGE_CURVE('',#461,#459,#558,.T.);
#339=EDGE_CURVE('',#462,#463,#559,.T.);
#340=EDGE_CURVE('',#462,#417,#560,.T.);
#341=EDGE_CURVE('',#464,#423,#561,.T.);
#342=EDGE_CURVE('',#465,#464,#562,.T.);
#343=EDGE_CURVE('',#465,#428,#563,.T.);
#344=EDGE_CURVE('',#460,#427,#564,.T.);
#345=EDGE_CURVE('',#458,#410,#565,.T.);
#346=EDGE_CURVE('',#463,#408,#566,.T.);
#347=EDGE_CURVE('',#459,#456,#567,.T.);
#348=EDGE_CURVE('',#461,#457,#568,.T.);
#349=EDGE_CURVE('',#466,#455,#569,.T.);
#350=EDGE_CURVE('',#466,#467,#570,.T.);
#351=EDGE_CURVE('',#467,#419,#571,.T.);
#352=EDGE_CURVE('',#468,#420,#572,.T.);
#353=EDGE_CURVE('',#469,#468,#573,.T.);
#354=EDGE_CURVE('',#454,#469,#574,.T.);
#355=EDGE_CURVE('',#469,#466,#575,.T.);
#356=EDGE_CURVE('',#453,#470,#576,.T.);
#357=EDGE_CURVE('',#470,#471,#577,.T.);
#358=EDGE_CURVE('',#471,#431,#578,.T.);
#359=EDGE_CURVE('',#472,#425,#579,.T.);
#360=EDGE_CURVE('',#473,#472,#580,.T.);
#361=EDGE_CURVE('',#452,#473,#581,.T.);
#362=EDGE_CURVE('',#473,#470,#582,.T.);
#363=EDGE_CURVE('',#474,#443,#583,.T.);
#364=EDGE_CURVE('',#475,#474,#584,.T.);
#365=EDGE_CURVE('',#475,#442,#585,.T.);
#366=EDGE_CURVE('',#476,#445,#586,.T.);
#367=EDGE_CURVE('',#474,#476,#587,.T.);
#368=EDGE_CURVE('',#477,#444,#588,.T.);
#369=EDGE_CURVE('',#476,#477,#589,.T.);
#370=EDGE_CURVE('',#475,#477,#590,.T.);
#371=EDGE_CURVE('',#478,#439,#591,.T.);
#372=EDGE_CURVE('',#478,#479,#592,.T.);
#373=EDGE_CURVE('',#479,#440,#593,.T.);
#374=EDGE_CURVE('',#480,#414,#594,.T.);
#375=EDGE_CURVE('',#481,#480,#595,.T.);
#376=EDGE_CURVE('',#478,#481,#596,.T.);
#377=EDGE_CURVE('',#482,#479,#597,.T.);
#378=EDGE_CURVE('',#483,#482,#598,.T.);
#379=EDGE_CURVE('',#483,#413,#599,.T.);
#380=EDGE_CURVE('',#481,#482,#600,.T.);
#381=EDGE_CURVE('',#484,#446,#601,.T.);
#382=EDGE_CURVE('',#484,#485,#602,.T.);
#383=EDGE_CURVE('',#485,#448,#603,.T.);
#384=EDGE_CURVE('',#486,#447,#604,.T.);
#385=EDGE_CURVE('',#484,#486,#605,.T.);
#386=EDGE_CURVE('',#487,#449,#606,.T.);
#387=EDGE_CURVE('',#487,#486,#607,.T.);
#388=EDGE_CURVE('',#485,#487,#608,.T.);
#389=EDGE_CURVE('',#488,#462,#609,.T.);
#390=EDGE_CURVE('',#488,#489,#610,.T.);
#391=EDGE_CURVE('',#489,#437,#611,.T.);
#392=EDGE_CURVE('',#490,#438,#612,.T.);
#393=EDGE_CURVE('',#490,#491,#613,.T.);
#394=EDGE_CURVE('',#463,#491,#614,.T.);
#395=EDGE_CURVE('',#489,#490,#615,.T.);
#396=EDGE_CURVE('',#488,#491,#616,.T.);
#397=EDGE_CURVE('',#492,#434,#617,.T.);
#398=EDGE_CURVE('',#492,#493,#618,.T.);
#399=EDGE_CURVE('',#493,#435,#619,.T.);
#400=EDGE_CURVE('',#494,#465,#620,.T.);
#401=EDGE_CURVE('',#492,#494,#621,.T.);
#402=EDGE_CURVE('',#493,#495,#622,.T.);
#403=EDGE_CURVE('',#495,#464,#623,.T.);
#404=EDGE_CURVE('',#494,#495,#624,.T.);
#405=EDGE_CURVE('',#468,#467,#625,.T.);
#406=EDGE_CURVE('',#472,#471,#626,.T.);
#407=EDGE_CURVE('',#480,#483,#627,.T.);
#408=VERTEX_POINT('',#1250);
#409=VERTEX_POINT('',#1251);
#410=VERTEX_POINT('',#1253);
#411=VERTEX_POINT('',#1255);
#412=VERTEX_POINT('',#1257);
#413=VERTEX_POINT('',#1259);
#414=VERTEX_POINT('',#1261);
#415=VERTEX_POINT('',#1263);
#416=VERTEX_POINT('',#1267);
#417=VERTEX_POINT('',#1268);
#418=VERTEX_POINT('',#1270);
#419=VERTEX_POINT('',#1272);
#420=VERTEX_POINT('',#1274);
#421=VERTEX_POINT('',#1276);
#422=VERTEX_POINT('',#1278);
#423=VERTEX_POINT('',#1280);
#424=VERTEX_POINT('',#1284);
#425=VERTEX_POINT('',#1285);
#426=VERTEX_POINT('',#1287);
#427=VERTEX_POINT('',#1289);
#428=VERTEX_POINT('',#1291);
#429=VERTEX_POINT('',#1293);
#430=VERTEX_POINT('',#1295);
#431=VERTEX_POINT('',#1297);
#432=VERTEX_POINT('',#1301);
#433=VERTEX_POINT('',#1302);
#434=VERTEX_POINT('',#1305);
#435=VERTEX_POINT('',#1307);
#436=VERTEX_POINT('',#1312);
#437=VERTEX_POINT('',#1314);
#438=VERTEX_POINT('',#1316);
#439=VERTEX_POINT('',#1319);
#440=VERTEX_POINT('',#1321);
#441=VERTEX_POINT('',#1324);
#442=VERTEX_POINT('',#1327);
#443=VERTEX_POINT('',#1328);
#444=VERTEX_POINT('',#1330);
#445=VERTEX_POINT('',#1332);
#446=VERTEX_POINT('',#1335);
#447=VERTEX_POINT('',#1336);
#448=VERTEX_POINT('',#1338);
#449=VERTEX_POINT('',#1340);
#450=VERTEX_POINT('',#1344);
#451=VERTEX_POINT('',#1346);
#452=VERTEX_POINT('',#1350);
#453=VERTEX_POINT('',#1351);
#454=VERTEX_POINT('',#1354);
#455=VERTEX_POINT('',#1356);
#456=VERTEX_POINT('',#1359);
#457=VERTEX_POINT('',#1361);
#458=VERTEX_POINT('',#1366);
#459=VERTEX_POINT('',#1367);
#460=VERTEX_POINT('',#1369);
#461=VERTEX_POINT('',#1371);
#462=VERTEX_POINT('',#1375);
#463=VERTEX_POINT('',#1376);
#464=VERTEX_POINT('',#1379);
#465=VERTEX_POINT('',#1381);
#466=VERTEX_POINT('',#1393);
#467=VERTEX_POINT('',#1395);
#468=VERTEX_POINT('',#1399);
#469=VERTEX_POINT('',#1401);
#470=VERTEX_POINT('',#1407);
#471=VERTEX_POINT('',#1409);
#472=VERTEX_POINT('',#1413);
#473=VERTEX_POINT('',#1415);
#474=VERTEX_POINT('',#1421);
#475=VERTEX_POINT('',#1423);
#476=VERTEX_POINT('',#1427);
#477=VERTEX_POINT('',#1431);
#478=VERTEX_POINT('',#1438);
#479=VERTEX_POINT('',#1440);
#480=VERTEX_POINT('',#1444);
#481=VERTEX_POINT('',#1446);
#482=VERTEX_POINT('',#1450);
#483=VERTEX_POINT('',#1452);
#484=VERTEX_POINT('',#1458);
#485=VERTEX_POINT('',#1460);
#486=VERTEX_POINT('',#1464);
#487=VERTEX_POINT('',#1468);
#488=VERTEX_POINT('',#1475);
#489=VERTEX_POINT('',#1477);
#490=VERTEX_POINT('',#1481);
#491=VERTEX_POINT('',#1483);
#492=VERTEX_POINT('',#1491);
#493=VERTEX_POINT('',#1493);
#494=VERTEX_POINT('',#1497);
#495=VERTEX_POINT('',#1501);
#496=LINE('',#1249,#628);
#497=LINE('',#1252,#629);
#498=LINE('',#1254,#630);
#499=LINE('',#1256,#631);
#500=LINE('',#1258,#632);
#501=LINE('',#1260,#633);
#502=LINE('',#1262,#634);
#503=LINE('',#1264,#635);
#504=LINE('',#1266,#636);
#505=LINE('',#1269,#637);
#506=LINE('',#1271,#638);
#507=LINE('',#1273,#639);
#508=LINE('',#1275,#640);
#509=LINE('',#1277,#641);
#510=LINE('',#1279,#642);
#511=LINE('',#1281,#643);
#512=LINE('',#1283,#644);
#513=LINE('',#1286,#645);
#514=LINE('',#1288,#646);
#515=LINE('',#1290,#647);
#516=LINE('',#1292,#648);
#517=LINE('',#1294,#649);
#518=LINE('',#1296,#650);
#519=LINE('',#1298,#651);
#520=LINE('',#1300,#652);
#521=LINE('',#1303,#653);
#522=LINE('',#1304,#654);
#523=LINE('',#1306,#655);
#524=LINE('',#1308,#656);
#525=LINE('',#1309,#657);
#526=LINE('',#1311,#658);
#527=LINE('',#1313,#659);
#528=LINE('',#1315,#660);
#529=LINE('',#1317,#661);
#530=LINE('',#1318,#662);
#531=LINE('',#1320,#663);
#532=LINE('',#1322,#664);
#533=LINE('',#1323,#665);
#534=LINE('',#1325,#666);
#535=LINE('',#1326,#667);
#536=LINE('',#1329,#668);
#537=LINE('',#1331,#669);
#538=LINE('',#1333,#670);
#539=LINE('',#1334,#671);
#540=LINE('',#1337,#672);
#541=LINE('',#1339,#673);
#542=LINE('',#1341,#674);
#543=LINE('',#1343,#675);
#544=LINE('',#1345,#676);
#545=LINE('',#1347,#677);
#546=LINE('',#1349,#678);
#547=LINE('',#1352,#679);
#548=LINE('',#1353,#680);
#549=LINE('',#1355,#681);
#550=LINE('',#1357,#682);
#551=LINE('',#1358,#683);
#552=LINE('',#1360,#684);
#553=LINE('',#1362,#685);
#554=LINE('',#1363,#686);
#555=LINE('',#1365,#687);
#556=LINE('',#1368,#688);
#557=LINE('',#1370,#689);
#558=LINE('',#1372,#690);
#559=LINE('',#1374,#691);
#560=LINE('',#1377,#692);
#561=LINE('',#1378,#693);
#562=LINE('',#1380,#694);
#563=LINE('',#1382,#695);
#564=LINE('',#1383,#696);
#565=LINE('',#1384,#697);
#566=LINE('',#1385,#698);
#567=LINE('',#1387,#699);
#568=LINE('',#1388,#700);
#569=LINE('',#1392,#701);
#570=LINE('',#1394,#702);
#571=LINE('',#1396,#703);
#572=LINE('',#1398,#704);
#573=LINE('',#1400,#705);
#574=LINE('',#1402,#706);
#575=LINE('',#1404,#707);
#576=LINE('',#1406,#708);
#577=LINE('',#1408,#709);
#578=LINE('',#1410,#710);
#579=LINE('',#1412,#711);
#580=LINE('',#1414,#712);
#581=LINE('',#1416,#713);
#582=LINE('',#1418,#714);
#583=LINE('',#1420,#715);
#584=LINE('',#1422,#716);
#585=LINE('',#1424,#717);
#586=LINE('',#1426,#718);
#587=LINE('',#1428,#719);
#588=LINE('',#1430,#720);
#589=LINE('',#1432,#721);
#590=LINE('',#1434,#722);
#591=LINE('',#1437,#723);
#592=LINE('',#1439,#724);
#593=LINE('',#1441,#725);
#594=LINE('',#1443,#726);
#595=LINE('',#1445,#727);
#596=LINE('',#1447,#728);
#597=LINE('',#1449,#729);
#598=LINE('',#1451,#730);
#599=LINE('',#1453,#731);
#600=LINE('',#1455,#732);
#601=LINE('',#1457,#733);
#602=LINE('',#1459,#734);
#603=LINE('',#1461,#735);
#604=LINE('',#1463,#736);
#605=LINE('',#1465,#737);
#606=LINE('',#1467,#738);
#607=LINE('',#1469,#739);
#608=LINE('',#1471,#740);
#609=LINE('',#1474,#741);
#610=LINE('',#1476,#742);
#611=LINE('',#1478,#743);
#612=LINE('',#1480,#744);
#613=LINE('',#1482,#745);
#614=LINE('',#1484,#746);
#615=LINE('',#1486,#747);
#616=LINE('',#1488,#748);
#617=LINE('',#1490,#749);
#618=LINE('',#1492,#750);
#619=LINE('',#1494,#751);
#620=LINE('',#1496,#752);
#621=LINE('',#1498,#753);
#622=LINE('',#1500,#754);
#623=LINE('',#1502,#755);
#624=LINE('',#1504,#756);
#625=LINE('',#1506,#757);
#626=LINE('',#1509,#758);
#627=LINE('',#1512,#759);
#628=VECTOR('',#1021,1.);
#629=VECTOR('',#1022,1.);
#630=VECTOR('',#1023,1.);
#631=VECTOR('',#1024,1.);
#632=VECTOR('',#1025,1.);
#633=VECTOR('',#1026,1.);
#634=VECTOR('',#1027,1.);
#635=VECTOR('',#1028,1.);
#636=VECTOR('',#1031,1.);
#637=VECTOR('',#1032,1.);
#638=VECTOR('',#1033,1.);
#639=VECTOR('',#1034,1.);
#640=VECTOR('',#1035,1.);
#641=VECTOR('',#1036,1.);
#642=VECTOR('',#1037,1.);
#643=VECTOR('',#1038,1.);
#644=VECTOR('',#1041,1.);
#645=VECTOR('',#1042,1.);
#646=VECTOR('',#1043,1.);
#647=VECTOR('',#1044,1.);
#648=VECTOR('',#1045,1.);
#649=VECTOR('',#1046,1.);
#650=VECTOR('',#1047,1.);
#651=VECTOR('',#1048,1.);
#652=VECTOR('',#1051,1.);
#653=VECTOR('',#1052,1.);
#654=VECTOR('',#1053,1.);
#655=VECTOR('',#1054,1.);
#656=VECTOR('',#1055,1.);
#657=VECTOR('',#1056,1.);
#658=VECTOR('',#1059,1.);
#659=VECTOR('',#1060,1.);
#660=VECTOR('',#1061,1.);
#661=VECTOR('',#1062,1.);
#662=VECTOR('',#1063,1.);
#663=VECTOR('',#1064,1.);
#664=VECTOR('',#1065,1.);
#665=VECTOR('',#1066,1.);
#666=VECTOR('',#1067,1.);
#667=VECTOR('',#1068,1.);
#668=VECTOR('',#1069,1.);
#669=VECTOR('',#1070,1.);
#670=VECTOR('',#1071,1.);
#671=VECTOR('',#1072,1.);
#672=VECTOR('',#1073,1.);
#673=VECTOR('',#1074,1.);
#674=VECTOR('',#1075,1.);
#675=VECTOR('',#1078,1.);
#676=VECTOR('',#1079,1.);
#677=VECTOR('',#1080,1.);
#678=VECTOR('',#1083,1.);
#679=VECTOR('',#1084,1.);
#680=VECTOR('',#1085,1.);
#681=VECTOR('',#1086,1.);
#682=VECTOR('',#1087,1.);
#683=VECTOR('',#1088,1.);
#684=VECTOR('',#1089,1.);
#685=VECTOR('',#1090,1.);
#686=VECTOR('',#1091,1.);
#687=VECTOR('',#1094,1.);
#688=VECTOR('',#1095,1.);
#689=VECTOR('',#1096,1.);
#690=VECTOR('',#1097,1.);
#691=VECTOR('',#1100,1.);
#692=VECTOR('',#1101,1.);
#693=VECTOR('',#1102,1.);
#694=VECTOR('',#1103,1.);
#695=VECTOR('',#1104,1.);
#696=VECTOR('',#1105,1.);
#697=VECTOR('',#1106,1.);
#698=VECTOR('',#1107,1.);
#699=VECTOR('',#1110,1.);
#700=VECTOR('',#1111,1.);
#701=VECTOR('',#1118,1.);
#702=VECTOR('',#1119,1.);
#703=VECTOR('',#1120,1.);
#704=VECTOR('',#1123,1.);
#705=VECTOR('',#1124,1.);
#706=VECTOR('',#1125,1.);
#707=VECTOR('',#1128,1.);
#708=VECTOR('',#1131,1.);
#709=VECTOR('',#1132,1.);
#710=VECTOR('',#1133,1.);
#711=VECTOR('',#1136,1.);
#712=VECTOR('',#1137,1.);
#713=VECTOR('',#1138,1.);
#714=VECTOR('',#1141,1.);
#715=VECTOR('',#1144,1.);
#716=VECTOR('',#1145,1.);
#717=VECTOR('',#1146,1.);
#718=VECTOR('',#1149,1.);
#719=VECTOR('',#1150,1.);
#720=VECTOR('',#1153,1.);
#721=VECTOR('',#1154,1.);
#722=VECTOR('',#1157,1.);
#723=VECTOR('',#1162,1.);
#724=VECTOR('',#1163,1.);
#725=VECTOR('',#1164,1.);
#726=VECTOR('',#1167,1.);
#727=VECTOR('',#1168,1.);
#728=VECTOR('',#1169,1.);
#729=VECTOR('',#1172,1.);
#730=VECTOR('',#1173,1.);
#731=VECTOR('',#1174,1.);
#732=VECTOR('',#1177,1.);
#733=VECTOR('',#1180,1.);
#734=VECTOR('',#1181,1.);
#735=VECTOR('',#1182,1.);
#736=VECTOR('',#1185,1.);
#737=VECTOR('',#1186,1.);
#738=VECTOR('',#1189,1.);
#739=VECTOR('',#1190,1.);
#740=VECTOR('',#1193,1.);
#741=VECTOR('',#1198,1.);
#742=VECTOR('',#1199,1.);
#743=VECTOR('',#1200,1.);
#744=VECTOR('',#1203,1.);
#745=VECTOR('',#1204,1.);
#746=VECTOR('',#1205,1.);
#747=VECTOR('',#1208,1.);
#748=VECTOR('',#1211,1.);
#749=VECTOR('',#1214,1.);
#750=VECTOR('',#1215,1.);
#751=VECTOR('',#1216,1.);
#752=VECTOR('',#1219,1.);
#753=VECTOR('',#1220,1.);
#754=VECTOR('',#1223,1.);
#755=VECTOR('',#1224,1.);
#756=VECTOR('',#1227,1.);
#757=VECTOR('',#1230,1.);
#758=VECTOR('',#1235,1.);
#759=VECTOR('',#1240,1.);
#760=EDGE_LOOP('',(#12,#13,#14,#15,#16,#17,#18,#19));
#761=EDGE_LOOP('',(#20,#21,#22,#23,#24,#25,#26,#27));
#762=EDGE_LOOP('',(#28,#29,#30,#31,#32,#33,#34,#35));
#763=EDGE_LOOP('',(#36,#37,#38,#39,#40,#41,#42,#43));
#764=EDGE_LOOP('',(#44,#45,#46,#47,#48,#49,#50,#51,#52,#53,#54,#55));
#765=EDGE_LOOP('',(#56,#57,#58,#59));
#766=EDGE_LOOP('',(#60,#61,#62,#63));
#767=EDGE_LOOP('',(#64,#65,#66,#67));
#768=EDGE_LOOP('',(#68,#69,#70,#71,#72,#73,#74,#75,#76,#77,#78,#79));
#769=EDGE_LOOP('',(#80,#81,#82,#83));
#770=EDGE_LOOP('',(#84,#85,#86,#87,#88,#89,#90,#91,#92,#93,#94,#95));
#771=EDGE_LOOP('',(#96,#97,#98,#99));
#772=EDGE_LOOP('',(#100,#101,#102,#103,#104,#105));
#773=EDGE_LOOP('',(#106,#107,#108,#109,#110,#111));
#774=EDGE_LOOP('',(#112,#113,#114,#115,#116,#117));
#775=EDGE_LOOP('',(#118,#119,#120,#121,#122,#123));
#776=EDGE_LOOP('',(#124,#125,#126,#127));
#777=EDGE_LOOP('',(#128,#129,#130,#131,#132,#133));
#778=EDGE_LOOP('',(#134,#135,#136,#137,#138,#139));
#779=EDGE_LOOP('',(#140,#141,#142,#143));
#780=EDGE_LOOP('',(#144,#145,#146,#147));
#781=EDGE_LOOP('',(#148,#149,#150,#151));
#782=EDGE_LOOP('',(#152,#153,#154,#155));
#783=EDGE_LOOP('',(#156,#157,#158,#159));
#784=EDGE_LOOP('',(#160,#161,#162,#163));
#785=EDGE_LOOP('',(#164,#165,#166,#167));
#786=EDGE_LOOP('',(#168,#169,#170,#171,#172,#173));
#787=EDGE_LOOP('',(#174,#175,#176,#177,#178,#179));
#788=EDGE_LOOP('',(#180,#181,#182,#183));
#789=EDGE_LOOP('',(#184,#185,#186,#187));
#790=EDGE_LOOP('',(#188,#189,#190,#191));
#791=EDGE_LOOP('',(#192,#193,#194,#195));
#792=EDGE_LOOP('',(#196,#197,#198,#199));
#793=EDGE_LOOP('',(#200,#201,#202,#203));
#794=EDGE_LOOP('',(#204,#205,#206,#207,#208,#209));
#795=EDGE_LOOP('',(#210,#211,#212,#213,#214,#215));
#796=EDGE_LOOP('',(#216,#217,#218,#219));
#797=EDGE_LOOP('',(#220,#221,#222,#223));
#798=EDGE_LOOP('',(#224,#225,#226,#227));
#799=EDGE_LOOP('',(#228,#229,#230,#231,#232,#233));
#800=EDGE_LOOP('',(#234,#235,#236,#237,#238,#239));
#801=EDGE_LOOP('',(#240,#241,#242,#243));
#802=EDGE_LOOP('',(#244,#245,#246,#247));
#803=EDGE_LOOP('',(#248,#249,#250,#251));
#804=EDGE_LOOP('',(#252,#253,#254,#255));
#805=EDGE_LOOP('',(#256,#257,#258,#259));
#806=EDGE_LOOP('',(#260,#261,#262,#263));
#807=EDGE_LOOP('',(#264,#265,#266,#267));
#808=EDGE_LOOP('',(#268,#269,#270,#271));
#809=EDGE_LOOP('',(#272,#273,#274,#275));
#810=FACE_BOUND('',#760,.T.);
#811=FACE_BOUND('',#761,.T.);
#812=FACE_BOUND('',#762,.T.);
#813=FACE_BOUND('',#763,.T.);
#814=FACE_BOUND('',#764,.T.);
#815=FACE_BOUND('',#765,.T.);
#816=FACE_BOUND('',#766,.T.);
#817=FACE_BOUND('',#767,.T.);
#818=FACE_BOUND('',#768,.T.);
#819=FACE_BOUND('',#769,.T.);
#820=FACE_BOUND('',#770,.T.);
#821=FACE_BOUND('',#771,.T.);
#822=FACE_BOUND('',#772,.T.);
#823=FACE_BOUND('',#773,.T.);
#824=FACE_BOUND('',#774,.T.);
#825=FACE_BOUND('',#775,.T.);
#826=FACE_BOUND('',#776,.T.);
#827=FACE_BOUND('',#777,.T.);
#828=FACE_BOUND('',#778,.T.);
#829=FACE_BOUND('',#779,.T.);
#830=FACE_BOUND('',#780,.T.);
#831=FACE_BOUND('',#781,.T.);
#832=FACE_BOUND('',#782,.T.);
#833=FACE_BOUND('',#783,.T.);
#834=FACE_BOUND('',#784,.T.);
#835=FACE_BOUND('',#785,.T.);
#836=FACE_BOUND('',#786,.T.);
#837=FACE_BOUND('',#787,.T.);
#838=FACE_BOUND('',#788,.T.);
#839=FACE_BOUND('',#789,.T.);
#840=FACE_BOUND('',#790,.T.);
#841=FACE_BOUND('',#791,.T.);
#842=FACE_BOUND('',#792,.T.);
#843=FACE_BOUND('',#793,.T.);
#844=FACE_BOUND('',#794,.T.);
#845=FACE_BOUND('',#795,.T.);
#846=FACE_BOUND('',#796,.T.);
#847=FACE_BOUND('',#797,.T.);
#848=FACE_BOUND('',#798,.T.);
#849=FACE_BOUND('',#799,.T.);
#850=FACE_BOUND('',#800,.T.);
#851=FACE_BOUND('',#801,.T.);
#852=FACE_BOUND('',#802,.T.);
#853=FACE_BOUND('',#803,.T.);
#854=FACE_BOUND('',#804,.T.);
#855=FACE_BOUND('',#805,.T.);
#856=FACE_BOUND('',#806,.T.);
#857=FACE_BOUND('',#807,.T.);
#858=FACE_BOUND('',#808,.T.);
#859=FACE_BOUND('',#809,.T.);
#860=PLANE('',#969);
#861=PLANE('',#970);
#862=PLANE('',#971);
#863=PLANE('',#972);
#864=PLANE('',#973);
#865=PLANE('',#974);
#866=PLANE('',#975);
#867=PLANE('',#976);
#868=PLANE('',#977);
#869=PLANE('',#978);
#870=PLANE('',#979);
#871=PLANE('',#980);
#872=PLANE('',#981);
#873=PLANE('',#982);
#874=PLANE('',#983);
#875=PLANE('',#984);
#876=PLANE('',#985);
#877=PLANE('',#986);
#878=PLANE('',#987);
#879=PLANE('',#988);
#880=PLANE('',#989);
#881=PLANE('',#990);
#882=PLANE('',#991);
#883=PLANE('',#992);
#884=PLANE('',#993);
#885=PLANE('',#994);
#886=PLANE('',#995);
#887=PLANE('',#996);
#888=PLANE('',#997);
#889=PLANE('',#998);
#890=PLANE('',#999);
#891=PLANE('',#1000);
#892=PLANE('',#1001);
#893=PLANE('',#1002);
#894=PLANE('',#1003);
#895=PLANE('',#1004);
#896=PLANE('',#1005);
#897=PLANE('',#1006);
#898=PLANE('',#1007);
#899=PLANE('',#1008);
#900=PLANE('',#1009);
#901=PLANE('',#1010);
#902=PLANE('',#1011);
#903=PLANE('',#1012);
#904=PLANE('',#1013);
#905=PLANE('',#1014);
#906=PLANE('',#1015);
#907=PLANE('',#1016);
#908=ADVANCED_FACE('',(#810),#860,.T.);
#909=ADVANCED_FACE('',(#811),#861,.T.);
#910=ADVANCED_FACE('',(#812),#862,.T.);
#911=ADVANCED_FACE('',(#813),#863,.T.);
#912=ADVANCED_FACE('',(#814,#815,#816),#864,.T.);
#913=ADVANCED_FACE('',(#817),#865,.T.);
#914=ADVANCED_FACE('',(#818),#866,.T.);
#915=ADVANCED_FACE('',(#819),#867,.T.);
#916=ADVANCED_FACE('',(#820),#868,.F.);
#917=ADVANCED_FACE('',(#821),#869,.T.);
#918=ADVANCED_FACE('',(#822),#870,.T.);
#919=ADVANCED_FACE('',(#823),#871,.F.);
#920=ADVANCED_FACE('',(#824),#872,.F.);
#921=ADVANCED_FACE('',(#825),#873,.F.);
#922=ADVANCED_FACE('',(#826),#874,.T.);
#923=ADVANCED_FACE('',(#827),#875,.T.);
#924=ADVANCED_FACE('',(#828),#876,.F.);
#925=ADVANCED_FACE('',(#829),#877,.T.);
#926=ADVANCED_FACE('',(#830),#878,.F.);
#927=ADVANCED_FACE('',(#831),#879,.F.);
#928=ADVANCED_FACE('',(#832),#880,.F.);
#929=ADVANCED_FACE('',(#833),#881,.T.);
#930=ADVANCED_FACE('',(#834),#882,.T.);
#931=ADVANCED_FACE('',(#835),#883,.T.);
#932=ADVANCED_FACE('',(#836),#884,.F.);
#933=ADVANCED_FACE('',(#837),#885,.F.);
#934=ADVANCED_FACE('',(#838),#886,.T.);
#935=ADVANCED_FACE('',(#839),#887,.T.);
#936=ADVANCED_FACE('',(#840),#888,.F.);
#937=ADVANCED_FACE('',(#841),#889,.T.);
#938=ADVANCED_FACE('',(#842),#890,.T.);
#939=ADVANCED_FACE('',(#843),#891,.T.);
#940=ADVANCED_FACE('',(#844),#892,.T.);
#941=ADVANCED_FACE('',(#845),#893,.T.);
#942=ADVANCED_FACE('',(#846),#894,.T.);
#943=ADVANCED_FACE('',(#847),#895,.T.);
#944=ADVANCED_FACE('',(#848),#896,.T.);
#945=ADVANCED_FACE('',(#849),#897,.F.);
#946=ADVANCED_FACE('',(#850),#898,.T.);
#947=ADVANCED_FACE('',(#851),#899,.T.);
#948=ADVANCED_FACE('',(#852),#900,.F.);
#949=ADVANCED_FACE('',(#853),#901,.T.);
#950=ADVANCED_FACE('',(#854),#902,.F.);
#951=ADVANCED_FACE('',(#855),#903,.T.);
#952=ADVANCED_FACE('',(#856),#904,.F.);
#953=ADVANCED_FACE('',(#857),#905,.T.);
#954=ADVANCED_FACE('',(#858),#906,.T.);
#955=ADVANCED_FACE('',(#859),#907,.T.);
#956=CLOSED_SHELL('',(#908,#909,#910,#911,#912,#913,#914,#915,#916,#917,
#918,#919,#920,#921,#922,#923,#924,#925,#926,#927,#928,#929,#930,#931,#932,
#933,#934,#935,#936,#937,#938,#939,#940,#941,#942,#943,#944,#945,#946,#947,
#948,#949,#950,#951,#952,#953,#954,#955));
#957=STYLED_ITEM('',(#958),#965);
#958=PRESENTATION_STYLE_ASSIGNMENT((#959));
#959=SURFACE_STYLE_USAGE(.BOTH.,#960);
#960=SURFACE_SIDE_STYLE('',(#961));
#961=SURFACE_STYLE_FILL_AREA(#962);
#962=FILL_AREA_STYLE('',(#963));
#963=FILL_AREA_STYLE_COLOUR('',#964);
#964=COLOUR_RGB('',0.615686274509804,0.811764705882353,0.929411764705882);
#965=MANIFOLD_SOLID_BREP('Part 1',#956);
#966=SHAPE_DEFINITION_REPRESENTATION(#1522,#967);
#967=SHAPE_REPRESENTATION('Part 1',(#968),#1517);
#968=AXIS2_PLACEMENT_3D('',#1247,#1017,#1018);
#969=AXIS2_PLACEMENT_3D('',#1248,#1019,#1020);
#970=AXIS2_PLACEMENT_3D('',#1265,#1029,#1030);
#971=AXIS2_PLACEMENT_3D('',#1282,#1039,#1040);
#972=AXIS2_PLACEMENT_3D('',#1299,#1049,#1050);
#973=AXIS2_PLACEMENT_3D('',#1310,#1057,#1058);
#974=AXIS2_PLACEMENT_3D('',#1342,#1076,#1077);
#975=AXIS2_PLACEMENT_3D('',#1348,#1081,#1082);
#976=AXIS2_PLACEMENT_3D('',#1364,#1092,#1093);
#977=AXIS2_PLACEMENT_3D('',#1373,#1098,#1099);
#978=AXIS2_PLACEMENT_3D('',#1386,#1108,#1109);
#979=AXIS2_PLACEMENT_3D('',#1389,#1112,#1113);
#980=AXIS2_PLACEMENT_3D('',#1390,#1114,#1115);
#981=AXIS2_PLACEMENT_3D('',#1391,#1116,#1117);
#982=AXIS2_PLACEMENT_3D('',#1397,#1121,#1122);
#983=AXIS2_PLACEMENT_3D('',#1403,#1126,#1127);
#984=AXIS2_PLACEMENT_3D('',#1405,#1129,#1130);
#985=AXIS2_PLACEMENT_3D('',#1411,#1134,#1135);
#986=AXIS2_PLACEMENT_3D('',#1417,#1139,#1140);
#987=AXIS2_PLACEMENT_3D('',#1419,#1142,#1143);
#988=AXIS2_PLACEMENT_3D('',#1425,#1147,#1148);
#989=AXIS2_PLACEMENT_3D('',#1429,#1151,#1152);
#990=AXIS2_PLACEMENT_3D('',#1433,#1155,#1156);
#991=AXIS2_PLACEMENT_3D('',#1435,#1158,#1159);
#992=AXIS2_PLACEMENT_3D('',#1436,#1160,#1161);
#993=AXIS2_PLACEMENT_3D('',#1442,#1165,#1166);
#994=AXIS2_PLACEMENT_3D('',#1448,#1170,#1171);
#995=AXIS2_PLACEMENT_3D('',#1454,#1175,#1176);
#996=AXIS2_PLACEMENT_3D('',#1456,#1178,#1179);
#997=AXIS2_PLACEMENT_3D('',#1462,#1183,#1184);
#998=AXIS2_PLACEMENT_3D('',#1466,#1187,#1188);
#999=AXIS2_PLACEMENT_3D('',#1470,#1191,#1192);
#1000=AXIS2_PLACEMENT_3D('',#1472,#1194,#1195);
#1001=AXIS2_PLACEMENT_3D('',#1473,#1196,#1197);
#1002=AXIS2_PLACEMENT_3D('',#1479,#1201,#1202);
#1003=AXIS2_PLACEMENT_3D('',#1485,#1206,#1207);
#1004=AXIS2_PLACEMENT_3D('',#1487,#1209,#1210);
#1005=AXIS2_PLACEMENT_3D('',#1489,#1212,#1213);
#1006=AXIS2_PLACEMENT_3D('',#1495,#1217,#1218);
#1007=AXIS2_PLACEMENT_3D('',#1499,#1221,#1222);
#1008=AXIS2_PLACEMENT_3D('',#1503,#1225,#1226);
#1009=AXIS2_PLACEMENT_3D('',#1505,#1228,#1229);
#1010=AXIS2_PLACEMENT_3D('',#1507,#1231,#1232);
#1011=AXIS2_PLACEMENT_3D('',#1508,#1233,#1234);
#1012=AXIS2_PLACEMENT_3D('',#1510,#1236,#1237);
#1013=AXIS2_PLACEMENT_3D('',#1511,#1238,#1239);
#1014=AXIS2_PLACEMENT_3D('',#1513,#1241,#1242);
#1015=AXIS2_PLACEMENT_3D('',#1514,#1243,#1244);
#1016=AXIS2_PLACEMENT_3D('',#1515,#1245,#1246);
#1017=DIRECTION('',(0.,0.,1.));
#1018=DIRECTION('',(1.,0.,0.));
#1019=DIRECTION('',(1.,1.36592399683213E-16,0.));
#1020=DIRECTION('',(-1.36592399683213E-16,1.,0.));
#1021=DIRECTION('',(-1.36592399683213E-16,1.,1.36592399683213E-15));
#1022=DIRECTION('',(0.,0.,-1.));
#1023=DIRECTION('',(1.36592399683213E-16,-1.,0.));
#1024=DIRECTION('',(0.,0.,-1.));
#1025=DIRECTION('',(-1.36592399683213E-16,1.,0.));
#1026=DIRECTION('',(-9.92603080315858E-33,7.26689832390321E-17,-1.));
#1027=DIRECTION('',(6.82961998416066E-17,-1.,0.));
#1028=DIRECTION('',(0.,0.,-1.));
#1029=DIRECTION('',(1.,1.36592399683213E-16,0.));
#1030=DIRECTION('',(-1.36592399683213E-16,1.,0.));
#1031=DIRECTION('',(1.36592399683213E-16,-1.,0.));
#1032=DIRECTION('',(0.,0.,-1.));
#1033=DIRECTION('',(1.36592399683213E-16,-1.,0.));
#1034=DIRECTION('',(-7.00508506026787E-33,5.12845888681519E-17,-1.));
#1035=DIRECTION('',(6.82961998416066E-17,-1.,0.));
#1036=DIRECTION('',(0.,0.,-1.));
#1037=DIRECTION('',(1.36592399683213E-16,-1.,0.));
#1038=DIRECTION('',(0.,0.,-1.));
#1039=DIRECTION('',(1.,1.36592399683213E-16,0.));
#1040=DIRECTION('',(-1.36592399683213E-16,1.,0.));
#1041=DIRECTION('',(6.82961998416066E-17,-1.,0.));
#1042=DIRECTION('',(0.,0.,-1.));
#1043=DIRECTION('',(1.36592399683213E-16,-1.,0.));
#1044=DIRECTION('',(0.,0.,-1.));
#1045=DIRECTION('',(6.82961998416066E-17,-1.,0.));
#1046=DIRECTION('',(0.,0.,-1.));
#1047=DIRECTION('',(1.36592399683213E-16,-1.,0.));
#1048=DIRECTION('',(-7.00508506026787E-33,5.12845888681519E-17,-1.));
#1049=DIRECTION('',(6.82961998416066E-17,-1.,0.));
#1050=DIRECTION('',(1.,6.82961998416066E-17,0.));
#1051=DIRECTION('',(0.,0.,-1.));
#1052=DIRECTION('',(-1.,-6.82961998416066E-17,0.));
#1053=DIRECTION('',(-1.,-6.82961998416066E-17,0.));
#1054=DIRECTION('',(2.7351780729681E-16,1.86802268273809E-32,-1.));
#1055=DIRECTION('',(-1.,-6.82961998416066E-17,0.));
#1056=DIRECTION('',(-1.,-6.82961998416066E-17,0.));
#1057=DIRECTION('',(6.82961998416066E-17,-1.,0.));
#1058=DIRECTION('',(1.,6.82961998416066E-17,0.));
#1059=DIRECTION('',(1.,6.82961998416066E-17,0.));
#1060=DIRECTION('',(1.,6.82961998416066E-17,0.));
#1061=DIRECTION('',(0.,0.,-1.));
#1062=DIRECTION('',(-1.,-6.82961998416066E-17,-1.43781473350751E-16));
#1063=DIRECTION('',(-1.,-6.82961998416066E-17,-1.43781473350751E-16));
#1064=DIRECTION('',(0.,0.,-1.));
#1065=DIRECTION('',(1.,6.82961998416066E-17,0.));
#1066=DIRECTION('',(-1.,-6.82961998416066E-17,0.));
#1067=DIRECTION('',(0.,0.,-1.));
#1068=DIRECTION('',(-1.,-6.82961998416066E-17,-1.51769332981348E-16));
#1069=DIRECTION('',(3.87567910608171E-16,2.64694154750896E-32,-1.));
#1070=DIRECTION('',(1.,6.82961998416066E-17,0.));
#1071=DIRECTION('',(0.,0.,-1.));
#1072=DIRECTION('',(0.,0.,-1.));
#1073=DIRECTION('',(1.,6.82961998416066E-17,0.));
#1074=DIRECTION('',(2.73517670371268E-16,1.86802174758868E-32,-1.));
#1075=DIRECTION('',(-1.,-6.82961998416066E-17,-1.51769332981348E-16));
#1076=DIRECTION('',(6.82961998416066E-17,-1.,0.));
#1077=DIRECTION('',(1.,6.82961998416066E-17,0.));
#1078=DIRECTION('',(-1.,-6.82961998416066E-17,0.));
#1079=DIRECTION('',(0.,0.,-1.));
#1080=DIRECTION('',(-1.,-6.82961998416066E-17,0.));
#1081=DIRECTION('',(1.,0.,0.));
#1082=DIRECTION('',(0.,0.,-1.));
#1083=DIRECTION('',(0.,0.,-1.));
#1084=DIRECTION('',(6.82961998416066E-17,-1.,0.));
#1085=DIRECTION('',(6.82961998416066E-17,-1.,0.));
#1086=DIRECTION('',(0.,0.,-1.));
#1087=DIRECTION('',(6.82961998416066E-17,-1.,0.));
#1088=DIRECTION('',(0.,-1.,0.));
#1089=DIRECTION('',(0.,0.,-1.));
#1090=DIRECTION('',(0.,-1.,0.));
#1091=DIRECTION('',(6.82961998416066E-17,-1.,0.));
#1092=DIRECTION('',(-1.,0.,0.));
#1093=DIRECTION('',(0.,0.,1.));
#1094=DIRECTION('',(0.,1.,0.));
#1095=DIRECTION('',(0.,0.,-1.));
#1096=DIRECTION('',(0.,1.,0.));
#1097=DIRECTION('',(0.,0.,-1.));
#1098=DIRECTION('',(0.,1.,0.));
#1099=DIRECTION('',(0.,0.,1.));
#1100=DIRECTION('',(0.,0.,-1.));
#1101=DIRECTION('',(1.,1.36592399683213E-16,0.));
#1102=DIRECTION('',(1.,1.36592399683213E-16,0.));
#1103=DIRECTION('',(0.,0.,-1.));
#1104=DIRECTION('',(1.,1.36592399683213E-16,0.));
#1105=DIRECTION('',(1.,0.,0.));
#1106=DIRECTION('',(1.,0.,0.));
#1107=DIRECTION('',(1.,1.36592399683213E-16,0.));
#1108=DIRECTION('',(-1.36592399683213E-16,1.,0.));
#1109=DIRECTION('',(-1.,-1.36592399683213E-16,0.));
#1110=DIRECTION('',(1.,1.36592399683213E-16,0.));
#1111=DIRECTION('',(1.,1.36592399683213E-16,0.));
#1112=DIRECTION('',(0.,0.,1.));
#1113=DIRECTION('',(1.,0.,0.));
#1114=DIRECTION('',(0.,0.,1.));
#1115=DIRECTION('',(1.,0.,0.));
#1116=DIRECTION('',(0.,0.,-1.));
#1117=DIRECTION('',(-1.,0.,0.));
#1118=DIRECTION('',(1.,6.82961998416066E-17,0.));
#1119=DIRECTION('',(1.36592399683213E-16,-1.,0.));
#1120=DIRECTION('',(1.,1.36592399683213E-16,0.));
#1121=DIRECTION('',(0.,0.,1.));
#1122=DIRECTION('',(1.,0.,0.));
#1123=DIRECTION('',(1.,1.36592399683213E-16,0.));
#1124=DIRECTION('',(6.82961998416066E-17,-1.,0.));
#1125=DIRECTION('',(-1.,-6.82961998416066E-17,0.));
#1126=DIRECTION('',(6.82961998416066E-17,-1.,0.));
#1127=DIRECTION('',(1.,6.82961998416066E-17,0.));
#1128=DIRECTION('',(0.,0.,-1.));
#1129=DIRECTION('',(0.,0.,1.));
#1130=DIRECTION('',(1.,0.,0.));
#1131=DIRECTION('',(-1.,-6.82961998416066E-17,0.));
#1132=DIRECTION('',(1.36592399683213E-16,-1.,0.));
#1133=DIRECTION('',(1.,1.36592399683213E-16,0.));
#1134=DIRECTION('',(0.,0.,1.));
#1135=DIRECTION('',(1.,0.,0.));
#1136=DIRECTION('',(1.,1.36592399683213E-16,0.));
#1137=DIRECTION('',(6.82961998416066E-17,-1.,0.));
#1138=DIRECTION('',(-1.,-6.82961998416066E-17,0.));
#1139=DIRECTION('',(6.82961998416066E-17,-1.,0.));
#1140=DIRECTION('',(1.,6.82961998416066E-17,0.));
#1141=DIRECTION('',(0.,0.,-1.));
#1142=DIRECTION('',(-1.51769332981348E-16,-1.03652686951215E-32,1.));
#1143=DIRECTION('',(1.,0.,1.51769332981348E-16));
#1144=DIRECTION('',(6.82961998416066E-17,-1.,0.));
#1145=DIRECTION('',(-1.,-6.82961998416066E-17,-1.51769332981348E-16));
#1146=DIRECTION('',(6.82961998416066E-17,-1.,0.));
#1147=DIRECTION('',(-1.,-6.82961998416066E-17,0.));
#1148=DIRECTION('',(6.82961998416066E-17,-1.,0.));
#1149=DIRECTION('',(6.82961998416066E-17,-1.,0.));
#1150=DIRECTION('',(0.,0.,-1.));
#1151=DIRECTION('',(0.,0.,-1.));
#1152=DIRECTION('',(-1.,0.,0.));
#1153=DIRECTION('',(6.82961998416066E-17,-1.,0.));
#1154=DIRECTION('',(1.,6.82961998416066E-17,0.));
#1155=DIRECTION('',(-1.,-6.82961998416066E-17,-3.87567910608171E-16));
#1156=DIRECTION('',(-3.87567910608171E-16,0.,1.));
#1157=DIRECTION('',(3.87567910608171E-16,2.64694154750896E-32,-1.));
#1158=DIRECTION('',(6.82961998416066E-17,-1.,0.));
#1159=DIRECTION('',(1.,6.82961998416066E-17,0.));
#1160=DIRECTION('',(-1.,-6.82961998416066E-17,0.));
#1161=DIRECTION('',(6.82961998416066E-17,-1.,0.));
#1162=DIRECTION('',(6.82961998416066E-17,-1.,0.));
#1163=DIRECTION('',(0.,0.,-1.));
#1164=DIRECTION('',(6.82961998416066E-17,-1.,0.));
#1165=DIRECTION('',(-1.43781473350751E-16,-9.81972823748349E-33,1.));
#1166=DIRECTION('',(1.,0.,1.43781473350751E-16));
#1167=DIRECTION('',(1.,1.36592399683213E-16,0.));
#1168=DIRECTION('',(6.82961998416066E-17,-1.,0.));
#1169=DIRECTION('',(-1.,-6.82961998416066E-17,-1.43781473350751E-16));
#1170=DIRECTION('',(0.,0.,-1.));
#1171=DIRECTION('',(-1.,0.,0.));
#1172=DIRECTION('',(1.,6.82961998416066E-17,0.));
#1173=DIRECTION('',(-1.36592399683213E-16,1.,0.));
#1174=DIRECTION('',(1.,1.36592399683213E-16,0.));
#1175=DIRECTION('',(6.82961998416066E-17,-1.,0.));
#1176=DIRECTION('',(1.,6.82961998416066E-17,0.));
#1177=DIRECTION('',(0.,0.,-1.));
#1178=DIRECTION('',(0.,0.,-1.));
#1179=DIRECTION('',(-1.,0.,0.));
#1180=DIRECTION('',(6.82961998416066E-17,-1.,0.));
#1181=DIRECTION('',(1.,6.82961998416066E-17,0.));
#1182=DIRECTION('',(6.82961998416066E-17,-1.,0.));
#1183=DIRECTION('',(-1.,-6.82961998416066E-17,0.));
#1184=DIRECTION('',(6.82961998416066E-17,-1.,0.));
#1185=DIRECTION('',(6.82961998416066E-17,-1.,0.));
#1186=DIRECTION('',(0.,0.,-1.));
#1187=DIRECTION('',(-1.51769332981348E-16,-1.03652686951215E-32,1.));
#1188=DIRECTION('',(1.,0.,1.51769332981348E-16));
#1189=DIRECTION('',(6.82961998416066E-17,-1.,0.));
#1190=DIRECTION('',(-1.,-6.82961998416066E-17,-1.51769332981348E-16));
#1191=DIRECTION('',(-1.,-6.82961998416066E-17,-2.73517670371268E-16));
#1192=DIRECTION('',(-2.73517670371268E-16,0.,1.));
#1193=DIRECTION('',(2.73517670371268E-16,1.86802174758868E-32,-1.));
#1194=DIRECTION('',(6.82961998416066E-17,-1.,0.));
#1195=DIRECTION('',(1.,6.82961998416066E-17,0.));
#1196=DIRECTION('',(0.,0.,-1.));
#1197=DIRECTION('',(-1.,0.,0.));
#1198=DIRECTION('',(1.36592399683213E-16,-1.,0.));
#1199=DIRECTION('',(1.,6.82961998416066E-17,0.));
#1200=DIRECTION('',(6.82961998416066E-17,-1.,0.));
#1201=DIRECTION('',(-1.43781473350751E-16,-9.81972823748349E-33,1.));
#1202=DIRECTION('',(1.,0.,1.43781473350751E-16));
#1203=DIRECTION('',(6.82961998416066E-17,-1.,0.));
#1204=DIRECTION('',(-1.,-6.82961998416066E-17,-1.43781473350751E-16));
#1205=DIRECTION('',(-1.36592399683213E-16,1.,1.36592399683213E-15));
#1206=DIRECTION('',(-1.,-6.82961998416066E-17,0.));
#1207=DIRECTION('',(6.82961998416066E-17,-1.,0.));
#1208=DIRECTION('',(0.,0.,-1.));
#1209=DIRECTION('',(6.82961998416066E-17,-1.,0.));
#1210=DIRECTION('',(1.,6.82961998416066E-17,0.));
#1211=DIRECTION('',(0.,0.,-1.));
#1212=DIRECTION('',(-1.,-6.82961998416066E-17,-2.7351780729681E-16));
#1213=DIRECTION('',(-2.7351780729681E-16,0.,1.));
#1214=DIRECTION('',(6.82961998416066E-17,-1.,0.));
#1215=DIRECTION('',(2.7351780729681E-16,1.86802268273809E-32,-1.));
#1216=DIRECTION('',(6.82961998416066E-17,-1.,0.));
#1217=DIRECTION('',(0.,0.,1.));
#1218=DIRECTION('',(1.,0.,0.));
#1219=DIRECTION('',(6.82961998416066E-17,-1.,0.));
#1220=DIRECTION('',(-1.,-6.82961998416066E-17,0.));
#1221=DIRECTION('',(0.,0.,1.));
#1222=DIRECTION('',(1.,0.,0.));
#1223=DIRECTION('',(-1.,-6.82961998416066E-17,0.));
#1224=DIRECTION('',(1.36592399683213E-16,-1.,0.));
#1225=DIRECTION('',(6.82961998416066E-17,-1.,0.));
#1226=DIRECTION('',(1.,6.82961998416066E-17,0.));
#1227=DIRECTION('',(0.,0.,-1.));
#1228=DIRECTION('',(1.36592399683213E-16,-1.,-5.12845888681519E-17));
#1229=DIRECTION('',(1.,1.36592399683213E-16,0.));
#1230=DIRECTION('',(-7.00508506026787E-33,5.12845888681519E-17,-1.));
#1231=DIRECTION('',(1.,1.36592399683213E-16,0.));
#1232=DIRECTION('',(-1.36592399683213E-16,1.,0.));
#1233=DIRECTION('',(1.36592399683213E-16,-1.,-5.12845888681519E-17));
#1234=DIRECTION('',(1.,1.36592399683213E-16,0.));
#1235=DIRECTION('',(-7.00508506026787E-33,5.12845888681519E-17,-1.));
#1236=DIRECTION('',(1.,1.36592399683213E-16,0.));
#1237=DIRECTION('',(-1.36592399683213E-16,1.,0.));
#1238=DIRECTION('',(1.36592399683213E-16,-1.,-7.26689832390321E-17));
#1239=DIRECTION('',(1.,1.36592399683213E-16,0.));
#1240=DIRECTION('',(-9.92603080315858E-33,7.26689832390321E-17,-1.));
#1241=DIRECTION('',(1.,1.36592399683213E-16,0.));
#1242=DIRECTION('',(-1.36592399683213E-16,1.,0.));
#1243=DIRECTION('',(1.,1.36592399683213E-16,0.));
#1244=DIRECTION('',(-1.36592399683213E-16,1.,0.));
#1245=DIRECTION('',(1.,1.36592399683213E-16,0.));
#1246=DIRECTION('',(-1.36592399683213E-16,1.,0.));
#1247=CARTESIAN_POINT('',(0.,0.,0.));
#1248=CARTESIAN_POINT('',(-0.0156505036638298,0.0127,0.13335));
#1249=CARTESIAN_POINT('',(-0.0156505036638298,0.00127,0.0217136853));
#1250=CARTESIAN_POINT('',(-0.0156505036638298,-1.7347234759768E-18,0.0217136853));
#1251=CARTESIAN_POINT('',(-0.0156505036638298,0.0254,0.0217136853));
#1252=CARTESIAN_POINT('',(-0.0156505036638298,-1.7347234759768E-18,0.13335));
#1253=CARTESIAN_POINT('',(-0.0156505036638298,-1.7347234759768E-18,0.));
#1254=CARTESIAN_POINT('',(-0.0156505036638298,0.0127,0.));
#1255=CARTESIAN_POINT('',(-0.0156505036638298,0.0254,0.));
#1256=CARTESIAN_POINT('',(-0.0156505036638298,0.0254,0.13335));
#1257=CARTESIAN_POINT('',(-0.0156505036638298,0.0254,0.00127));
#1258=CARTESIAN_POINT('',(-0.0156505036638298,0.01397,0.00127));
#1259=CARTESIAN_POINT('',(-0.0156505036638298,0.00254,0.00127));
#1260=CARTESIAN_POINT('',(-0.0156505036638298,0.00254,0.01022184265));
#1261=CARTESIAN_POINT('',(-0.0156505036638298,0.00254,0.0191736853));
#1262=CARTESIAN_POINT('',(-0.0156505036638298,0.04953,0.0191736853));
#1263=CARTESIAN_POINT('',(-0.0156505036638298,0.0254,0.0191736853));
#1264=CARTESIAN_POINT('',(-0.0156505036638298,0.0254,0.13335));
#1265=CARTESIAN_POINT('',(-0.0156505036638298,0.0127,0.13335));
#1266=CARTESIAN_POINT('',(-0.0156505036638298,0.00127,0.0470827735));
#1267=CARTESIAN_POINT('',(-0.0156505036638298,0.0254,0.0470827735));
#1268=CARTESIAN_POINT('',(-0.0156505036638298,-1.7347234759768E-18,0.0470827735));
#1269=CARTESIAN_POINT('',(-0.0156505036638298,0.0254,0.13335));
#1270=CARTESIAN_POINT('',(-0.0156505036638298,0.0254,0.0496227735));
#1271=CARTESIAN_POINT('',(-0.0156505036638298,0.01397,0.0496227735));
#1272=CARTESIAN_POINT('',(-0.0156505036638298,0.00254,0.0496227735));
#1273=CARTESIAN_POINT('',(-0.0156505036638298,0.00254,0.06230731125));
#1274=CARTESIAN_POINT('',(-0.0156505036638298,0.00254,0.074991849));
#1275=CARTESIAN_POINT('',(-0.0156505036638298,0.04953,0.074991849));
#1276=CARTESIAN_POINT('',(-0.0156505036638298,0.0254,0.074991849));
#1277=CARTESIAN_POINT('',(-0.0156505036638298,0.0254,0.13335));
#1278=CARTESIAN_POINT('',(-0.0156505036638298,0.0254,0.077531849));
#1279=CARTESIAN_POINT('',(-0.0156505036638298,0.01397,0.077531849));
#1280=CARTESIAN_POINT('',(-0.0156505036638298,-1.7347234759768E-18,0.077531849));
#1281=CARTESIAN_POINT('',(-0.0156505036638298,-1.7347234759768E-18,0.13335));
#1282=CARTESIAN_POINT('',(-0.0156505036638298,0.0127,0.13335));
#1283=CARTESIAN_POINT('',(-0.0156505036638298,0.04953,0.13081));
#1284=CARTESIAN_POINT('',(-0.0156505036638298,0.0254,0.13081));
#1285=CARTESIAN_POINT('',(-0.0156505036638298,0.00254,0.13081));
#1286=CARTESIAN_POINT('',(-0.0156505036638298,0.0254,0.13335));
#1287=CARTESIAN_POINT('',(-0.0156505036638298,0.0254,0.13335));
#1288=CARTESIAN_POINT('',(-0.0156505036638298,0.0127,0.13335));
#1289=CARTESIAN_POINT('',(-0.0156505036638298,-1.7347234759768E-18,0.13335));
#1290=CARTESIAN_POINT('',(-0.0156505036638298,-1.7347234759768E-18,0.13335));
#1291=CARTESIAN_POINT('',(-0.0156505036638298,-1.7347234759768E-18,0.1029009245));
#1292=CARTESIAN_POINT('',(-0.0156505036638298,0.04953,0.1029009245));
#1293=CARTESIAN_POINT('',(-0.0156505036638298,0.0254,0.1029009245));
#1294=CARTESIAN_POINT('',(-0.0156505036638298,0.0254,0.13335));
#1295=CARTESIAN_POINT('',(-0.0156505036638298,0.0254,0.1054409245));
#1296=CARTESIAN_POINT('',(-0.0156505036638298,0.01397,0.1054409245));
#1297=CARTESIAN_POINT('',(-0.0156505036638298,0.00254,0.1054409245));
#1298=CARTESIAN_POINT('',(-0.0156505036638298,0.00254,0.11812546225));
#1299=CARTESIAN_POINT('',(0.00974949633617023,0.0254,0.13335));
#1300=CARTESIAN_POINT('',(0.0351494963361702,0.0254,0.13335));
#1301=CARTESIAN_POINT('',(0.0351494963361702,0.0254,0.1054409245));
#1302=CARTESIAN_POINT('',(0.0351494963361702,0.0254,0.074991849));
#1303=CARTESIAN_POINT('',(-0.00358550366382978,0.0254,0.1054409245));
#1304=CARTESIAN_POINT('',(-0.00358550366382978,0.0254,0.1029009245));
#1305=CARTESIAN_POINT('',(0.0338794963361702,0.0254,0.1029009245));
#1306=CARTESIAN_POINT('',(0.0338794963361702,0.0254,0.09021638675));
#1307=CARTESIAN_POINT('',(0.0338794963361702,0.0254,0.077531849));
#1308=CARTESIAN_POINT('',(-0.00358550366382978,0.0254,0.077531849));
#1309=CARTESIAN_POINT('',(-0.00358550366382978,0.0254,0.074991849));
#1310=CARTESIAN_POINT('',(0.00974949633617023,0.0254,0.13335));
#1311=CARTESIAN_POINT('',(-0.00358550366382978,0.0254,0.0496227735));
#1312=CARTESIAN_POINT('',(0.0351494963361702,0.0254,0.0496227735));
#1313=CARTESIAN_POINT('',(-0.00358550366382978,0.0254,0.0470827735));
#1314=CARTESIAN_POINT('',(0.00847949633617023,0.0254,0.0470827735));
#1315=CARTESIAN_POINT('',(0.00847949633617023,0.0254,0.0343982294));
#1316=CARTESIAN_POINT('',(0.00847949633617023,0.0254,0.0217136853));
#1317=CARTESIAN_POINT('',(-0.00358550366382978,0.0254,0.0217136853));
#1318=CARTESIAN_POINT('',(-0.00358550366382978,0.0254,0.0191736853));
#1319=CARTESIAN_POINT('',(0.00847949633617023,0.0254,0.0191736853));
#1320=CARTESIAN_POINT('',(0.00847949633617023,0.0254,0.01022184265));
#1321=CARTESIAN_POINT('',(0.00847949633617023,0.0254,0.00127));
#1322=CARTESIAN_POINT('',(-0.00358550366382977,0.0254,0.00127));
#1323=CARTESIAN_POINT('',(0.00974949633617023,0.0254,0.));
#1324=CARTESIAN_POINT('',(0.0351494963361702,0.0254,0.));
#1325=CARTESIAN_POINT('',(0.0351494963361702,0.0254,0.13335));
#1326=CARTESIAN_POINT('',(0.0224494963361703,0.0254,0.0191736853));
#1327=CARTESIAN_POINT('',(0.0338794963361702,0.0254,0.0191736853));
#1328=CARTESIAN_POINT('',(0.0110194963361702,0.0254,0.0191736853));
#1329=CARTESIAN_POINT('',(0.0338794963361702,0.0254,0.01022184265));
#1330=CARTESIAN_POINT('',(0.0338794963361702,0.0254,0.00127));
#1331=CARTESIAN_POINT('',(0.0224494963361703,0.0254,0.00127));
#1332=CARTESIAN_POINT('',(0.0110194963361702,0.0254,0.00127));
#1333=CARTESIAN_POINT('',(0.0110194963361702,0.0254,0.01022184265));
#1334=CARTESIAN_POINT('',(0.0110194963361702,0.0254,0.0343982294));
#1335=CARTESIAN_POINT('',(0.0110194963361702,0.0254,0.0470827735));
#1336=CARTESIAN_POINT('',(0.0110194963361702,0.0254,0.0217136853));
#1337=CARTESIAN_POINT('',(0.0224494963361703,0.0254,0.0470827735));
#1338=CARTESIAN_POINT('',(0.0338794963361702,0.0254,0.0470827735));
#1339=CARTESIAN_POINT('',(0.0338794963361702,0.0254,0.0343982294));
#1340=CARTESIAN_POINT('',(0.0338794963361702,0.0254,0.0217136853));
#1341=CARTESIAN_POINT('',(0.0224494963361703,0.0254,0.0217136853));
#1342=CARTESIAN_POINT('',(0.00974949633617023,0.0254,0.13335));
#1343=CARTESIAN_POINT('',(-0.00358550366382978,0.0254,0.13081));
#1344=CARTESIAN_POINT('',(0.0351494963361702,0.0254,0.13081));
#1345=CARTESIAN_POINT('',(0.0351494963361702,0.0254,0.13335));
#1346=CARTESIAN_POINT('',(0.0351494963361702,0.0254,0.13335));
#1347=CARTESIAN_POINT('',(0.00974949633617023,0.0254,0.13335));
#1348=CARTESIAN_POINT('',(0.0351494963361702,0.0381,0.13335));
#1349=CARTESIAN_POINT('',(0.0351494963361702,0.04953,0.13335));
#1350=CARTESIAN_POINT('',(0.0351494963361702,0.04953,0.13081));
#1351=CARTESIAN_POINT('',(0.0351494963361702,0.04953,0.1054409245));
#1352=CARTESIAN_POINT('',(0.0351494963361702,0.04953,0.1054409245));
#1353=CARTESIAN_POINT('',(0.0351494963361702,0.04953,0.074991849));
#1354=CARTESIAN_POINT('',(0.0351494963361702,0.04953,0.074991849));
#1355=CARTESIAN_POINT('',(0.0351494963361702,0.04953,0.13335));
#1356=CARTESIAN_POINT('',(0.0351494963361702,0.04953,0.0496227735));
#1357=CARTESIAN_POINT('',(0.0351494963361702,0.04953,0.0496227735));
#1358=CARTESIAN_POINT('',(0.0351494963361702,0.0381,0.));
#1359=CARTESIAN_POINT('',(0.0351494963361702,0.0508,0.));
#1360=CARTESIAN_POINT('',(0.0351494963361702,0.0508,0.13335));
#1361=CARTESIAN_POINT('',(0.0351494963361702,0.0508,0.13335));
#1362=CARTESIAN_POINT('',(0.0351494963361702,0.0381,0.13335));
#1363=CARTESIAN_POINT('',(0.0351494963361702,0.04953,0.13081));
#1364=CARTESIAN_POINT('',(-0.0410505036638298,0.0384848497083855,0.13335));
#1365=CARTESIAN_POINT('',(-0.0410505036638298,0.0384848497083855,0.));
#1366=CARTESIAN_POINT('',(-0.0410505036638298,0.,0.));
#1367=CARTESIAN_POINT('',(-0.0410505036638298,0.0508,0.));
#1368=CARTESIAN_POINT('',(-0.0410505036638298,0.,0.13335));
#1369=CARTESIAN_POINT('',(-0.0410505036638298,0.,0.13335));
#1370=CARTESIAN_POINT('',(-0.0410505036638298,0.0384848497083855,0.13335));
#1371=CARTESIAN_POINT('',(-0.0410505036638298,0.0508,0.13335));
#1372=CARTESIAN_POINT('',(-0.0410505036638298,0.0508,0.13335));
#1373=CARTESIAN_POINT('',(-0.0283505036638298,0.,0.13335));
#1374=CARTESIAN_POINT('',(-0.0397805036638298,-5.03069808033274E-18,0.13335));
#1375=CARTESIAN_POINT('',(-0.0397805036638298,0.,0.0470827735));
#1376=CARTESIAN_POINT('',(-0.0397805036638298,-5.03069808033274E-18,0.0217136853));
#1377=CARTESIAN_POINT('',(-0.0397805036638298,-5.03069808033274E-18,0.0470827735));
#1378=CARTESIAN_POINT('',(-0.0397805036638298,-5.03069808033274E-18,0.077531849));
#1379=CARTESIAN_POINT('',(-0.0397805036638298,-5.03069808033274E-18,0.077531849));
#1380=CARTESIAN_POINT('',(-0.0397805036638298,-5.03069808033274E-18,0.13335));
#1381=CARTESIAN_POINT('',(-0.0397805036638298,0.,0.1029009245));
#1382=CARTESIAN_POINT('',(-0.0397805036638298,-5.03069808033274E-18,0.1029009245));
#1383=CARTESIAN_POINT('',(-0.0283505036638298,0.,0.13335));
#1384=CARTESIAN_POINT('',(-0.0283505036638298,0.,0.));
#1385=CARTESIAN_POINT('',(-0.0397805036638298,-5.03069808033274E-18,0.0217136853));
#1386=CARTESIAN_POINT('',(0.00974949633617023,0.0508,0.13335));
#1387=CARTESIAN_POINT('',(0.00974949633617023,0.0508,0.));
#1388=CARTESIAN_POINT('',(0.00974949633617023,0.0508,0.13335));
#1389=CARTESIAN_POINT('',(-0.00295050366382978,0.0254,0.13335));
#1390=CARTESIAN_POINT('',(-0.00295050366382978,0.0254,0.));
#1391=CARTESIAN_POINT('',(-0.00358550366382978,0.04953,0.0496227735));
#1392=CARTESIAN_POINT('',(-0.00358550366382978,0.04953,0.0496227735));
#1393=CARTESIAN_POINT('',(-0.0397805036638298,0.04953,0.0496227735));
#1394=CARTESIAN_POINT('',(-0.0397805036638298,0.01397,0.0496227735));
#1395=CARTESIAN_POINT('',(-0.0397805036638298,0.00254,0.0496227735));
#1396=CARTESIAN_POINT('',(-0.0397805036638298,0.00254,0.0496227735));
#1397=CARTESIAN_POINT('',(-0.00358550366382978,0.04953,0.074991849));
#1398=CARTESIAN_POINT('',(-0.0397805036638298,0.00254,0.074991849));
#1399=CARTESIAN_POINT('',(-0.0397805036638298,0.00254,0.074991849));
#1400=CARTESIAN_POINT('',(-0.0397805036638298,0.04953,0.074991849));
#1401=CARTESIAN_POINT('',(-0.0397805036638298,0.04953,0.074991849));
#1402=CARTESIAN_POINT('',(-0.00358550366382978,0.04953,0.074991849));
#1403=CARTESIAN_POINT('',(-0.00295050366382978,0.04953,0.066675));
#1404=CARTESIAN_POINT('',(-0.0397805036638298,0.04953,0.13335));
#1405=CARTESIAN_POINT('',(-0.00358550366382979,0.04953,0.1054409245));
#1406=CARTESIAN_POINT('',(-0.00358550366382979,0.04953,0.1054409245));
#1407=CARTESIAN_POINT('',(-0.0397805036638298,0.04953,0.1054409245));
#1408=CARTESIAN_POINT('',(-0.0397805036638298,0.01397,0.1054409245));
#1409=CARTESIAN_POINT('',(-0.0397805036638298,0.00254,0.1054409245));
#1410=CARTESIAN_POINT('',(-0.0397805036638298,0.00254,0.1054409245));
#1411=CARTESIAN_POINT('',(-0.00358550366382979,0.04953,0.13081));
#1412=CARTESIAN_POINT('',(-0.0397805036638298,0.00254,0.13081));
#1413=CARTESIAN_POINT('',(-0.0397805036638298,0.00254,0.13081));
#1414=CARTESIAN_POINT('',(-0.0397805036638298,0.04953,0.13081));
#1415=CARTESIAN_POINT('',(-0.0397805036638298,0.04953,0.13081));
#1416=CARTESIAN_POINT('',(-0.00358550366382979,0.04953,0.13081));
#1417=CARTESIAN_POINT('',(-0.00295050366382978,0.04953,0.066675));
#1418=CARTESIAN_POINT('',(-0.0397805036638298,0.04953,0.13335));
#1419=CARTESIAN_POINT('',(0.0224494963361703,0.04953,0.0191736853));
#1420=CARTESIAN_POINT('',(0.0110194963361702,0.04953,0.0191736853));
#1421=CARTESIAN_POINT('',(0.0110194963361702,0.04953,0.0191736853));
#1422=CARTESIAN_POINT('',(0.0224494963361703,0.04953,0.0191736853));
#1423=CARTESIAN_POINT('',(0.0338794963361702,0.04953,0.0191736853));
#1424=CARTESIAN_POINT('',(0.0338794963361702,0.04953,0.0191736853));
#1425=CARTESIAN_POINT('',(0.0110194963361702,0.04953,0.01022184265));
#1426=CARTESIAN_POINT('',(0.0110194963361702,0.04953,0.00127));
#1427=CARTESIAN_POINT('',(0.0110194963361702,0.04953,0.00127));
#1428=CARTESIAN_POINT('',(0.0110194963361702,0.04953,0.01022184265));
#1429=CARTESIAN_POINT('',(0.0224494963361703,0.04953,0.00127));
#1430=CARTESIAN_POINT('',(0.0338794963361702,0.04953,0.00127));
#1431=CARTESIAN_POINT('',(0.0338794963361702,0.04953,0.00127));
#1432=CARTESIAN_POINT('',(0.0224494963361703,0.04953,0.00127));
#1433=CARTESIAN_POINT('',(0.0338794963361702,0.04953,0.01022184265));
#1434=CARTESIAN_POINT('',(0.0338794963361702,0.04953,0.01022184265));
#1435=CARTESIAN_POINT('',(-0.00295050366382978,0.04953,0.066675));
#1436=CARTESIAN_POINT('',(0.00847949633617023,0.04953,0.01022184265));
#1437=CARTESIAN_POINT('',(0.00847949633617023,0.04953,0.0191736853));
#1438=CARTESIAN_POINT('',(0.00847949633617023,0.04953,0.0191736853));
#1439=CARTESIAN_POINT('',(0.00847949633617023,0.04953,0.01022184265));
#1440=CARTESIAN_POINT('',(0.00847949633617023,0.04953,0.00127));
#1441=CARTESIAN_POINT('',(0.00847949633617023,0.04953,0.00127));
#1442=CARTESIAN_POINT('',(-0.00358550366382978,0.04953,0.0191736853));
#1443=CARTESIAN_POINT('',(-0.0397805036638298,0.00254,0.0191736853));
#1444=CARTESIAN_POINT('',(-0.0397805036638298,0.00254,0.0191736853));
#1445=CARTESIAN_POINT('',(-0.0397805036638298,0.04953,0.0191736853));
#1446=CARTESIAN_POINT('',(-0.0397805036638298,0.04953,0.0191736853));
#1447=CARTESIAN_POINT('',(-0.00358550366382978,0.04953,0.0191736853));
#1448=CARTESIAN_POINT('',(-0.00358550366382978,0.04953,0.00127));
#1449=CARTESIAN_POINT('',(-0.00358550366382978,0.04953,0.00127));
#1450=CARTESIAN_POINT('',(-0.0397805036638298,0.04953,0.00127));
#1451=CARTESIAN_POINT('',(-0.0397805036638298,0.01397,0.00127));
#1452=CARTESIAN_POINT('',(-0.0397805036638298,0.00254,0.00127));
#1453=CARTESIAN_POINT('',(-0.0397805036638298,0.00254,0.00127));
#1454=CARTESIAN_POINT('',(-0.00295050366382978,0.04953,0.066675));
#1455=CARTESIAN_POINT('',(-0.0397805036638298,0.04953,0.13335));
#1456=CARTESIAN_POINT('',(0.0224494963361703,0.04953,0.0470827735));
#1457=CARTESIAN_POINT('',(0.0110194963361702,0.04953,0.0470827735));
#1458=CARTESIAN_POINT('',(0.0110194963361702,0.04953,0.0470827735));
#1459=CARTESIAN_POINT('',(0.0224494963361703,0.04953,0.0470827735));
#1460=CARTESIAN_POINT('',(0.0338794963361702,0.04953,0.0470827735));
#1461=CARTESIAN_POINT('',(0.0338794963361702,0.04953,0.0470827735));
#1462=CARTESIAN_POINT('',(0.0110194963361702,0.04953,0.0343982294));
#1463=CARTESIAN_POINT('',(0.0110194963361702,0.04953,0.0217136853));
#1464=CARTESIAN_POINT('',(0.0110194963361702,0.04953,0.0217136853));
#1465=CARTESIAN_POINT('',(0.0110194963361702,0.04953,0.0343982294));
#1466=CARTESIAN_POINT('',(0.0224494963361703,0.04953,0.0217136853));
#1467=CARTESIAN_POINT('',(0.0338794963361702,0.04953,0.0217136853));
#1468=CARTESIAN_POINT('',(0.0338794963361702,0.04953,0.0217136853));
#1469=CARTESIAN_POINT('',(0.0224494963361703,0.04953,0.0217136853));
#1470=CARTESIAN_POINT('',(0.0338794963361702,0.04953,0.0343982294));
#1471=CARTESIAN_POINT('',(0.0338794963361702,0.04953,0.0343982294));
#1472=CARTESIAN_POINT('',(-0.00295050366382978,0.04953,0.066675));
#1473=CARTESIAN_POINT('',(-0.00358550366382978,0.04953,0.0470827735));
#1474=CARTESIAN_POINT('',(-0.0397805036638298,0.00127,0.0470827735));
#1475=CARTESIAN_POINT('',(-0.0397805036638298,0.04953,0.0470827735));
#1476=CARTESIAN_POINT('',(-0.00358550366382978,0.04953,0.0470827735));
#1477=CARTESIAN_POINT('',(0.00847949633617023,0.04953,0.0470827735));
#1478=CARTESIAN_POINT('',(0.00847949633617023,0.04953,0.0470827735));
#1479=CARTESIAN_POINT('',(-0.00358550366382978,0.04953,0.0217136853));
#1480=CARTESIAN_POINT('',(0.00847949633617023,0.04953,0.0217136853));
#1481=CARTESIAN_POINT('',(0.00847949633617023,0.04953,0.0217136853));
#1482=CARTESIAN_POINT('',(-0.00358550366382978,0.04953,0.0217136853));
#1483=CARTESIAN_POINT('',(-0.0397805036638298,0.04953,0.0217136853));
#1484=CARTESIAN_POINT('',(-0.0397805036638298,0.00127,0.0217136853));
#1485=CARTESIAN_POINT('',(0.00847949633617023,0.04953,0.0343982294));
#1486=CARTESIAN_POINT('',(0.00847949633617023,0.04953,0.0343982294));
#1487=CARTESIAN_POINT('',(-0.00295050366382978,0.04953,0.066675));
#1488=CARTESIAN_POINT('',(-0.0397805036638298,0.04953,0.13335));
#1489=CARTESIAN_POINT('',(0.0338794963361702,0.04953,0.09021638675));
#1490=CARTESIAN_POINT('',(0.0338794963361702,0.04953,0.1029009245));
#1491=CARTESIAN_POINT('',(0.0338794963361702,0.04953,0.1029009245));
#1492=CARTESIAN_POINT('',(0.0338794963361702,0.04953,0.09021638675));
#1493=CARTESIAN_POINT('',(0.0338794963361702,0.04953,0.077531849));
#1494=CARTESIAN_POINT('',(0.0338794963361702,0.04953,0.077531849));
#1495=CARTESIAN_POINT('',(-0.00358550366382979,0.04953,0.1029009245));
#1496=CARTESIAN_POINT('',(-0.0397805036638298,0.04953,0.1029009245));
#1497=CARTESIAN_POINT('',(-0.0397805036638298,0.04953,0.1029009245));
#1498=CARTESIAN_POINT('',(-0.00358550366382979,0.04953,0.1029009245));
#1499=CARTESIAN_POINT('',(-0.00358550366382978,0.04953,0.077531849));
#1500=CARTESIAN_POINT('',(-0.00358550366382978,0.04953,0.077531849));
#1501=CARTESIAN_POINT('',(-0.0397805036638298,0.04953,0.077531849));
#1502=CARTESIAN_POINT('',(-0.0397805036638298,0.01397,0.077531849));
#1503=CARTESIAN_POINT('',(-0.00295050366382978,0.04953,0.066675));
#1504=CARTESIAN_POINT('',(-0.0397805036638298,0.04953,0.13335));
#1505=CARTESIAN_POINT('',(-0.0397805036638298,0.00254,0.06230731125));
#1506=CARTESIAN_POINT('',(-0.0397805036638298,0.00254,0.06230731125));
#1507=CARTESIAN_POINT('',(-0.0397805036638298,0.024765,0.066675));
#1508=CARTESIAN_POINT('',(-0.0397805036638298,0.00254,0.11812546225));
#1509=CARTESIAN_POINT('',(-0.0397805036638298,0.00254,0.11812546225));
#1510=CARTESIAN_POINT('',(-0.0397805036638298,0.024765,0.066675));
#1511=CARTESIAN_POINT('',(-0.0397805036638298,0.00254,0.01022184265));
#1512=CARTESIAN_POINT('',(-0.0397805036638298,0.00254,0.01022184265));
#1513=CARTESIAN_POINT('',(-0.0397805036638298,0.024765,0.066675));
#1514=CARTESIAN_POINT('',(-0.0397805036638298,0.024765,0.066675));
#1515=CARTESIAN_POINT('',(-0.0397805036638298,0.024765,0.066675));
#1516=MECHANICAL_DESIGN_GEOMETRIC_PRESENTATION_REPRESENTATION('',(#957),
#1517);
#1517=(
GEOMETRIC_REPRESENTATION_CONTEXT(3)
GLOBAL_UNCERTAINTY_ASSIGNED_CONTEXT((#1518))
GLOBAL_UNIT_ASSIGNED_CONTEXT((#1521,#1520,#1519))
REPRESENTATION_CONTEXT('Part 1','TOP_LEVEL_ASSEMBLY_PART')
);
#1518=UNCERTAINTY_MEASURE_WITH_UNIT(LENGTH_MEASURE(1.E-8),#1521,
'DISTANCE_ACCURACY_VALUE','Maximum Tolerance applied to model');
#1519=(
NAMED_UNIT(*)
SI_UNIT($,.STERADIAN.)
SOLID_ANGLE_UNIT()
);
#1520=(
NAMED_UNIT(*)
PLANE_ANGLE_UNIT()
SI_UNIT($,.RADIAN.)
);
#1521=(
LENGTH_UNIT()
NAMED_UNIT(*)
SI_UNIT($,.METRE.)
);
#1522=PRODUCT_DEFINITION_SHAPE('','',#1523);
#1523=PRODUCT_DEFINITION('','',#1525,#1524);
#1524=PRODUCT_DEFINITION_CONTEXT('',#1531,'design');
#1525=PRODUCT_DEFINITION_FORMATION_WITH_SPECIFIED_SOURCE('','',#1527,
 .NOT_KNOWN.);
#1526=PRODUCT_RELATED_PRODUCT_CATEGORY('','',(#1527));
#1527=PRODUCT('Part 1','Part 1','Part 1',(#1529));
#1528=PRODUCT_CATEGORY('','');
#1529=PRODUCT_CONTEXT('',#1531,'mechanical');
#1530=APPLICATION_PROTOCOL_DEFINITION('international standard',
'ap242_managed_model_based_3d_engineering',2020,#1531);
#1531=APPLICATION_CONTEXT('managed model based 3d engineering');
ENDSEC;
END-ISO-10303-21;
