ISO-10303-21;
HEADER;
/* Generated by software containing ST-Developer
 * from STEP Tools, Inc. (www.steptools.com) 
 */
/* OPTION: using custom renumber hook */

FILE_DESCRIPTION(
/* description */ ('STEP AP242 Edition 2',
'CAx-IF Rec.Pracs.---Representation and Presentation of Product Manufa
cturing Information (PMI)---4.0---2014-10-13',
'CAx-IF Rec.Pracs.---3D Tessellated Geometry---0.4---2014-09-14','2;1',
'CAx-IF Rec.Pracs.---User Defined Attributes---1.5---2016-08-15'),
/* implementation_level */ '2;1');

FILE_NAME(
/* name */ 'book',
/* time_stamp */ '2026-09-08T02:25:40Z',
/* author */ (''),
/* organization */ (''),
/* preprocessor_version */ 'ST-DEVELOPER v20',
/* originating_system */ 'ONSHAPE BY PTC INC, 1.220',
/* authorisation */ '  ');

FILE_SCHEMA (('AP242_MANAGED_MODEL_BASED_3D_ENGINEERING_MIM_LF { 1 0 10303 442 3 1 4 }'));
ENDSEC;

DATA;
#10=SHAPE_REPRESENTATION_RELATIONSHIP('','',#628,#11);
#11=ADVANCED_BREP_SHAPE_REPRESENTATION('',(#626),#984);
#12=ORIENTED_EDGE('',*,*,#182,.F.);
#13=ORIENTED_EDGE('',*,*,#183,.F.);
#14=ORIENTED_EDGE('',*,*,#184,.T.);
#15=ORIENTED_EDGE('',*,*,#185,.T.);
#16=ORIENTED_EDGE('',*,*,#186,.T.);
#17=ORIENTED_EDGE('',*,*,#187,.F.);
#18=ORIENTED_EDGE('',*,*,#188,.F.);
#19=ORIENTED_EDGE('',*,*,#189,.T.);
#20=ORIENTED_EDGE('',*,*,#190,.F.);
#21=ORIENTED_EDGE('',*,*,#191,.F.);
#22=ORIENTED_EDGE('',*,*,#192,.F.);
#23=ORIENTED_EDGE('',*,*,#193,.T.);
#24=ORIENTED_EDGE('',*,*,#194,.F.);
#25=ORIENTED_EDGE('',*,*,#195,.F.);
#26=ORIENTED_EDGE('',*,*,#196,.F.);
#27=ORIENTED_EDGE('',*,*,#197,.T.);
#28=ORIENTED_EDGE('',*,*,#198,.F.);
#29=ORIENTED_EDGE('',*,*,#199,.F.);
#30=ORIENTED_EDGE('',*,*,#200,.F.);
#31=ORIENTED_EDGE('',*,*,#201,.T.);
#32=ORIENTED_EDGE('',*,*,#202,.F.);
#33=ORIENTED_EDGE('',*,*,#203,.T.);
#34=ORIENTED_EDGE('',*,*,#204,.T.);
#35=ORIENTED_EDGE('',*,*,#205,.F.);
#36=ORIENTED_EDGE('',*,*,#206,.F.);
#37=ORIENTED_EDGE('',*,*,#207,.T.);
#38=ORIENTED_EDGE('',*,*,#208,.F.);
#39=ORIENTED_EDGE('',*,*,#209,.F.);
#40=ORIENTED_EDGE('',*,*,#210,.T.);
#41=ORIENTED_EDGE('',*,*,#205,.T.);
#42=ORIENTED_EDGE('',*,*,#211,.T.);
#43=ORIENTED_EDGE('',*,*,#184,.F.);
#44=ORIENTED_EDGE('',*,*,#212,.F.);
#45=ORIENTED_EDGE('',*,*,#209,.T.);
#46=ORIENTED_EDGE('',*,*,#183,.T.);
#47=ORIENTED_EDGE('',*,*,#213,.T.);
#48=ORIENTED_EDGE('',*,*,#198,.T.);
#49=ORIENTED_EDGE('',*,*,#214,.F.);
#50=ORIENTED_EDGE('',*,*,#206,.T.);
#51=ORIENTED_EDGE('',*,*,#210,.F.);
#52=ORIENTED_EDGE('',*,*,#212,.T.);
#53=ORIENTED_EDGE('',*,*,#185,.F.);
#54=ORIENTED_EDGE('',*,*,#211,.F.);
#55=ORIENTED_EDGE('',*,*,#208,.T.);
#56=ORIENTED_EDGE('',*,*,#204,.F.);
#57=ORIENTED_EDGE('',*,*,#215,.F.);
#58=ORIENTED_EDGE('',*,*,#216,.F.);
#59=ORIENTED_EDGE('',*,*,#217,.T.);
#60=ORIENTED_EDGE('',*,*,#218,.F.);
#61=ORIENTED_EDGE('',*,*,#219,.F.);
#62=ORIENTED_EDGE('',*,*,#220,.T.);
#63=ORIENTED_EDGE('',*,*,#221,.T.);
#64=ORIENTED_EDGE('',*,*,#222,.F.);
#65=ORIENTED_EDGE('',*,*,#223,.F.);
#66=ORIENTED_EDGE('',*,*,#224,.T.);
#67=ORIENTED_EDGE('',*,*,#225,.T.);
#68=ORIENTED_EDGE('',*,*,#186,.F.);
#69=ORIENTED_EDGE('',*,*,#226,.F.);
#70=ORIENTED_EDGE('',*,*,#227,.T.);
#71=ORIENTED_EDGE('',*,*,#228,.T.);
#72=ORIENTED_EDGE('',*,*,#229,.F.);
#73=ORIENTED_EDGE('',*,*,#222,.T.);
#74=ORIENTED_EDGE('',*,*,#230,.F.);
#75=ORIENTED_EDGE('',*,*,#231,.F.);
#76=ORIENTED_EDGE('',*,*,#232,.T.);
#77=ORIENTED_EDGE('',*,*,#231,.T.);
#78=ORIENTED_EDGE('',*,*,#233,.T.);
#79=ORIENTED_EDGE('',*,*,#190,.T.);
#80=ORIENTED_EDGE('',*,*,#234,.F.);
#81=ORIENTED_EDGE('',*,*,#233,.F.);
#82=ORIENTED_EDGE('',*,*,#230,.T.);
#83=ORIENTED_EDGE('',*,*,#221,.F.);
#84=ORIENTED_EDGE('',*,*,#235,.F.);
#85=ORIENTED_EDGE('',*,*,#236,.T.);
#86=ORIENTED_EDGE('',*,*,#191,.T.);
#87=ORIENTED_EDGE('',*,*,#218,.T.);
#88=ORIENTED_EDGE('',*,*,#237,.F.);
#89=ORIENTED_EDGE('',*,*,#238,.F.);
#90=ORIENTED_EDGE('',*,*,#239,.T.);
#91=ORIENTED_EDGE('',*,*,#238,.T.);
#92=ORIENTED_EDGE('',*,*,#240,.T.);
#93=ORIENTED_EDGE('',*,*,#194,.T.);
#94=ORIENTED_EDGE('',*,*,#241,.F.);
#95=ORIENTED_EDGE('',*,*,#240,.F.);
#96=ORIENTED_EDGE('',*,*,#237,.T.);
#97=ORIENTED_EDGE('',*,*,#217,.F.);
#98=ORIENTED_EDGE('',*,*,#242,.F.);
#99=ORIENTED_EDGE('',*,*,#243,.T.);
#100=ORIENTED_EDGE('',*,*,#195,.T.);
#101=ORIENTED_EDGE('',*,*,#207,.F.);
#102=ORIENTED_EDGE('',*,*,#214,.T.);
#103=ORIENTED_EDGE('',*,*,#197,.F.);
#104=ORIENTED_EDGE('',*,*,#244,.F.);
#105=ORIENTED_EDGE('',*,*,#245,.T.);
#106=ORIENTED_EDGE('',*,*,#215,.T.);
#107=ORIENTED_EDGE('',*,*,#216,.T.);
#108=ORIENTED_EDGE('',*,*,#245,.F.);
#109=ORIENTED_EDGE('',*,*,#246,.F.);
#110=ORIENTED_EDGE('',*,*,#242,.T.);
#111=ORIENTED_EDGE('',*,*,#244,.T.);
#112=ORIENTED_EDGE('',*,*,#196,.T.);
#113=ORIENTED_EDGE('',*,*,#243,.F.);
#114=ORIENTED_EDGE('',*,*,#246,.T.);
#115=ORIENTED_EDGE('',*,*,#239,.F.);
#116=ORIENTED_EDGE('',*,*,#241,.T.);
#117=ORIENTED_EDGE('',*,*,#193,.F.);
#118=ORIENTED_EDGE('',*,*,#247,.F.);
#119=ORIENTED_EDGE('',*,*,#248,.T.);
#120=ORIENTED_EDGE('',*,*,#219,.T.);
#121=ORIENTED_EDGE('',*,*,#220,.F.);
#122=ORIENTED_EDGE('',*,*,#248,.F.);
#123=ORIENTED_EDGE('',*,*,#249,.T.);
#124=ORIENTED_EDGE('',*,*,#235,.T.);
#125=ORIENTED_EDGE('',*,*,#247,.T.);
#126=ORIENTED_EDGE('',*,*,#192,.T.);
#127=ORIENTED_EDGE('',*,*,#236,.F.);
#128=ORIENTED_EDGE('',*,*,#249,.F.);
#129=ORIENTED_EDGE('',*,*,#232,.F.);
#130=ORIENTED_EDGE('',*,*,#234,.T.);
#131=ORIENTED_EDGE('',*,*,#189,.F.);
#132=ORIENTED_EDGE('',*,*,#250,.F.);
#133=ORIENTED_EDGE('',*,*,#251,.T.);
#134=ORIENTED_EDGE('',*,*,#223,.T.);
#135=ORIENTED_EDGE('',*,*,#225,.F.);
#136=ORIENTED_EDGE('',*,*,#252,.F.);
#137=ORIENTED_EDGE('',*,*,#253,.T.);
#138=ORIENTED_EDGE('',*,*,#187,.T.);
#139=ORIENTED_EDGE('',*,*,#224,.F.);
#140=ORIENTED_EDGE('',*,*,#251,.F.);
#141=ORIENTED_EDGE('',*,*,#254,.T.);
#142=ORIENTED_EDGE('',*,*,#252,.T.);
#143=ORIENTED_EDGE('',*,*,#250,.T.);
#144=ORIENTED_EDGE('',*,*,#188,.T.);
#145=ORIENTED_EDGE('',*,*,#253,.F.);
#146=ORIENTED_EDGE('',*,*,#254,.F.);
#147=ORIENTED_EDGE('',*,*,#213,.F.);
#148=ORIENTED_EDGE('',*,*,#255,.F.);
#149=ORIENTED_EDGE('',*,*,#256,.T.);
#150=ORIENTED_EDGE('',*,*,#199,.T.);
#151=ORIENTED_EDGE('',*,*,#229,.T.);
#152=ORIENTED_EDGE('',*,*,#257,.F.);
#153=ORIENTED_EDGE('',*,*,#258,.F.);
#154=ORIENTED_EDGE('',*,*,#259,.F.);
#155=ORIENTED_EDGE('',*,*,#255,.T.);
#156=ORIENTED_EDGE('',*,*,#182,.T.);
#157=ORIENTED_EDGE('',*,*,#258,.T.);
#158=ORIENTED_EDGE('',*,*,#260,.T.);
#159=ORIENTED_EDGE('',*,*,#201,.F.);
#160=ORIENTED_EDGE('',*,*,#261,.F.);
#161=ORIENTED_EDGE('',*,*,#259,.T.);
#162=ORIENTED_EDGE('',*,*,#261,.T.);
#163=ORIENTED_EDGE('',*,*,#200,.T.);
#164=ORIENTED_EDGE('',*,*,#256,.F.);
#165=ORIENTED_EDGE('',*,*,#262,.T.);
#166=ORIENTED_EDGE('',*,*,#257,.T.);
#167=ORIENTED_EDGE('',*,*,#228,.F.);
#168=ORIENTED_EDGE('',*,*,#263,.F.);
#169=ORIENTED_EDGE('',*,*,#227,.F.);
#170=ORIENTED_EDGE('',*,*,#264,.F.);
#171=ORIENTED_EDGE('',*,*,#265,.T.);
#172=ORIENTED_EDGE('',*,*,#263,.T.);
#173=ORIENTED_EDGE('',*,*,#226,.T.);
#174=ORIENTED_EDGE('',*,*,#203,.F.);
#175=ORIENTED_EDGE('',*,*,#266,.F.);
#176=ORIENTED_EDGE('',*,*,#264,.T.);
#177=ORIENTED_EDGE('',*,*,#262,.F.);
#178=ORIENTED_EDGE('',*,*,#265,.F.);
#179=ORIENTED_EDGE('',*,*,#266,.T.);
#180=ORIENTED_EDGE('',*,*,#202,.T.);
#181=ORIENTED_EDGE('',*,*,#260,.F.);
#182=EDGE_CURVE('',#267,#268,#323,.T.);
#183=EDGE_CURVE('',#269,#267,#324,.T.);
#184=EDGE_CURVE('',#269,#270,#325,.T.);
#185=EDGE_CURVE('',#270,#268,#326,.T.);
#186=EDGE_CURVE('',#271,#272,#327,.T.);
#187=EDGE_CURVE('',#273,#272,#328,.T.);
#188=EDGE_CURVE('',#274,#273,#329,.T.);
#189=EDGE_CURVE('',#274,#275,#330,.T.);
#190=EDGE_CURVE('',#276,#275,#331,.T.);
#191=EDGE_CURVE('',#277,#276,#332,.T.);
#192=EDGE_CURVE('',#278,#277,#333,.T.);
#193=EDGE_CURVE('',#278,#279,#334,.T.);
#194=EDGE_CURVE('',#280,#279,#335,.T.);
#195=EDGE_CURVE('',#281,#280,#336,.T.);
#196=EDGE_CURVE('',#282,#281,#337,.T.);
#197=EDGE_CURVE('',#282,#283,#338,.T.);
#198=EDGE_CURVE('',#284,#283,#339,.T.);
#199=EDGE_CURVE('',#285,#284,#340,.T.);
#200=EDGE_CURVE('',#286,#285,#341,.T.);
#201=EDGE_CURVE('',#286,#287,#342,.T.);
#202=EDGE_CURVE('',#288,#287,#343,.T.);
#203=EDGE_CURVE('',#288,#271,#344,.T.);
#204=EDGE_CURVE('',#289,#290,#345,.T.);
#205=EDGE_CURVE('',#291,#290,#346,.T.);
#206=EDGE_CURVE('',#292,#291,#347,.T.);
#207=EDGE_CURVE('',#292,#289,#348,.T.);
#208=EDGE_CURVE('',#293,#290,#349,.T.);
#209=EDGE_CURVE('',#294,#293,#350,.T.);
#210=EDGE_CURVE('',#294,#291,#351,.T.);
#211=EDGE_CURVE('',#293,#270,#352,.T.);
#212=EDGE_CURVE('',#294,#269,#353,.T.);
#213=EDGE_CURVE('',#267,#284,#354,.T.);
#214=EDGE_CURVE('',#292,#283,#355,.T.);
#215=EDGE_CURVE('',#295,#289,#356,.T.);
#216=EDGE_CURVE('',#296,#295,#357,.T.);
#217=EDGE_CURVE('',#296,#297,#358,.T.);
#218=EDGE_CURVE('',#298,#297,#359,.T.);
#219=EDGE_CURVE('',#299,#298,#360,.T.);
#220=EDGE_CURVE('',#299,#300,#361,.T.);
#221=EDGE_CURVE('',#300,#301,#362,.T.);
#222=EDGE_CURVE('',#302,#301,#363,.T.);
#223=EDGE_CURVE('',#303,#302,#364,.T.);
#224=EDGE_CURVE('',#303,#304,#365,.T.);
#225=EDGE_CURVE('',#304,#272,#366,.T.);
#226=EDGE_CURVE('',#305,#271,#367,.T.);
#227=EDGE_CURVE('',#305,#306,#368,.T.);
#228=EDGE_CURVE('',#306,#307,#369,.T.);
#229=EDGE_CURVE('',#268,#307,#370,.T.);
#230=EDGE_CURVE('',#308,#301,#371,.T.);
#231=EDGE_CURVE('',#309,#308,#372,.T.);
#232=EDGE_CURVE('',#309,#302,#373,.T.);
#233=EDGE_CURVE('',#308,#276,#374,.T.);
#234=EDGE_CURVE('',#309,#275,#375,.T.);
#235=EDGE_CURVE('',#310,#300,#376,.T.);
#236=EDGE_CURVE('',#310,#277,#377,.T.);
#237=EDGE_CURVE('',#311,#297,#378,.T.);
#238=EDGE_CURVE('',#312,#311,#379,.T.);
#239=EDGE_CURVE('',#312,#298,#380,.T.);
#240=EDGE_CURVE('',#311,#280,#381,.T.);
#241=EDGE_CURVE('',#312,#279,#382,.T.);
#242=EDGE_CURVE('',#313,#296,#383,.T.);
#243=EDGE_CURVE('',#313,#281,#384,.T.);
#244=EDGE_CURVE('',#314,#282,#385,.T.);
#245=EDGE_CURVE('',#314,#295,#386,.T.);
#246=EDGE_CURVE('',#313,#314,#387,.T.);
#247=EDGE_CURVE('',#315,#278,#388,.T.);
#248=EDGE_CURVE('',#315,#299,#389,.T.);
#249=EDGE_CURVE('',#315,#310,#390,.T.);
#250=EDGE_CURVE('',#316,#274,#391,.T.);
#251=EDGE_CURVE('',#316,#303,#392,.T.);
#252=EDGE_CURVE('',#317,#304,#393,.T.);
#253=EDGE_CURVE('',#317,#273,#394,.T.);
#254=EDGE_CURVE('',#316,#317,#395,.T.);
#255=EDGE_CURVE('',#318,#267,#396,.T.);
#256=EDGE_CURVE('',#318,#285,#397,.T.);
#257=EDGE_CURVE('',#319,#307,#398,.T.);
#258=EDGE_CURVE('',#320,#319,#399,.T.);
#259=EDGE_CURVE('',#318,#320,#400,.T.);
#260=EDGE_CURVE('',#319,#287,#401,.T.);
#261=EDGE_CURVE('',#320,#286,#402,.T.);
#262=EDGE_CURVE('',#321,#319,#403,.T.);
#263=EDGE_CURVE('',#321,#306,#404,.T.);
#264=EDGE_CURVE('',#322,#305,#405,.T.);
#265=EDGE_CURVE('',#322,#321,#406,.T.);
#266=EDGE_CURVE('',#322,#288,#407,.T.);
#267=VERTEX_POINT('',#813);
#268=VERTEX_POINT('',#814);
#269=VERTEX_POINT('',#816);
#270=VERTEX_POINT('',#818);
#271=VERTEX_POINT('',#822);
#272=VERTEX_POINT('',#823);
#273=VERTEX_POINT('',#825);
#274=VERTEX_POINT('',#827);
#275=VERTEX_POINT('',#829);
#276=VERTEX_POINT('',#831);
#277=VERTEX_POINT('',#833);
#278=VERTEX_POINT('',#835);
#279=VERTEX_POINT('',#837);
#280=VERTEX_POINT('',#839);
#281=VERTEX_POINT('',#841);
#282=VERTEX_POINT('',#843);
#283=VERTEX_POINT('',#845);
#284=VERTEX_POINT('',#847);
#285=VERTEX_POINT('',#849);
#286=VERTEX_POINT('',#851);
#287=VERTEX_POINT('',#853);
#288=VERTEX_POINT('',#855);
#289=VERTEX_POINT('',#859);
#290=VERTEX_POINT('',#860);
#291=VERTEX_POINT('',#862);
#292=VERTEX_POINT('',#864);
#293=VERTEX_POINT('',#868);
#294=VERTEX_POINT('',#870);
#295=VERTEX_POINT('',#880);
#296=VERTEX_POINT('',#882);
#297=VERTEX_POINT('',#884);
#298=VERTEX_POINT('',#886);
#299=VERTEX_POINT('',#888);
#300=VERTEX_POINT('',#890);
#301=VERTEX_POINT('',#892);
#302=VERTEX_POINT('',#894);
#303=VERTEX_POINT('',#896);
#304=VERTEX_POINT('',#898);
#305=VERTEX_POINT('',#901);
#306=VERTEX_POINT('',#903);
#307=VERTEX_POINT('',#905);
#308=VERTEX_POINT('',#909);
#309=VERTEX_POINT('',#911);
#310=VERTEX_POINT('',#918);
#311=VERTEX_POINT('',#922);
#312=VERTEX_POINT('',#924);
#313=VERTEX_POINT('',#931);
#314=VERTEX_POINT('',#935);
#315=VERTEX_POINT('',#942);
#316=VERTEX_POINT('',#949);
#317=VERTEX_POINT('',#953);
#318=VERTEX_POINT('',#960);
#319=VERTEX_POINT('',#964);
#320=VERTEX_POINT('',#966);
#321=VERTEX_POINT('',#974);
#322=VERTEX_POINT('',#978);
#323=LINE('',#812,#408);
#324=LINE('',#815,#409);
#325=LINE('',#817,#410);
#326=LINE('',#819,#411);
#327=LINE('',#821,#412);
#328=LINE('',#824,#413);
#329=LINE('',#826,#414);
#330=LINE('',#828,#415);
#331=LINE('',#830,#416);
#332=LINE('',#832,#417);
#333=LINE('',#834,#418);
#334=LINE('',#836,#419);
#335=LINE('',#838,#420);
#336=LINE('',#840,#421);
#337=LINE('',#842,#422);
#338=LINE('',#844,#423);
#339=LINE('',#846,#424);
#340=LINE('',#848,#425);
#341=LINE('',#850,#426);
#342=LINE('',#852,#427);
#343=LINE('',#854,#428);
#344=LINE('',#856,#429);
#345=LINE('',#858,#430);
#346=LINE('',#861,#431);
#347=LINE('',#863,#432);
#348=LINE('',#865,#433);
#349=LINE('',#867,#434);
#350=LINE('',#869,#435);
#351=LINE('',#871,#436);
#352=LINE('',#873,#437);
#353=LINE('',#874,#438);
#354=LINE('',#876,#439);
#355=LINE('',#877,#440);
#356=LINE('',#879,#441);
#357=LINE('',#881,#442);
#358=LINE('',#883,#443);
#359=LINE('',#885,#444);
#360=LINE('',#887,#445);
#361=LINE('',#889,#446);
#362=LINE('',#891,#447);
#363=LINE('',#893,#448);
#364=LINE('',#895,#449);
#365=LINE('',#897,#450);
#366=LINE('',#899,#451);
#367=LINE('',#900,#452);
#368=LINE('',#902,#453);
#369=LINE('',#904,#454);
#370=LINE('',#906,#455);
#371=LINE('',#908,#456);
#372=LINE('',#910,#457);
#373=LINE('',#912,#458);
#374=LINE('',#914,#459);
#375=LINE('',#915,#460);
#376=LINE('',#917,#461);
#377=LINE('',#919,#462);
#378=LINE('',#921,#463);
#379=LINE('',#923,#464);
#380=LINE('',#925,#465);
#381=LINE('',#927,#466);
#382=LINE('',#928,#467);
#383=LINE('',#930,#468);
#384=LINE('',#932,#469);
#385=LINE('',#934,#470);
#386=LINE('',#936,#471);
#387=LINE('',#938,#472);
#388=LINE('',#941,#473);
#389=LINE('',#943,#474);
#390=LINE('',#945,#475);
#391=LINE('',#948,#476);
#392=LINE('',#950,#477);
#393=LINE('',#952,#478);
#394=LINE('',#954,#479);
#395=LINE('',#956,#480);
#396=LINE('',#959,#481);
#397=LINE('',#961,#482);
#398=LINE('',#963,#483);
#399=LINE('',#965,#484);
#400=LINE('',#967,#485);
#401=LINE('',#969,#486);
#402=LINE('',#970,#487);
#403=LINE('',#973,#488);
#404=LINE('',#975,#489);
#405=LINE('',#977,#490);
#406=LINE('',#979,#491);
#407=LINE('',#981,#492);
#408=VECTOR('',#665,1.);
#409=VECTOR('',#666,1.);
#410=VECTOR('',#667,1.);
#411=VECTOR('',#668,1.);
#412=VECTOR('',#671,1.);
#413=VECTOR('',#672,1.);
#414=VECTOR('',#673,1.);
#415=VECTOR('',#674,1.);
#416=VECTOR('',#675,1.);
#417=VECTOR('',#676,1.);
#418=VECTOR('',#677,1.);
#419=VECTOR('',#678,1.);
#420=VECTOR('',#679,1.);
#421=VECTOR('',#680,1.);
#422=VECTOR('',#681,1.);
#423=VECTOR('',#682,1.);
#424=VECTOR('',#683,1.);
#425=VECTOR('',#684,1.);
#426=VECTOR('',#685,1.);
#427=VECTOR('',#686,1.);
#428=VECTOR('',#687,1.);
#429=VECTOR('',#688,1.);
#430=VECTOR('',#691,1.);
#431=VECTOR('',#692,1.);
#432=VECTOR('',#693,1.);
#433=VECTOR('',#694,1.);
#434=VECTOR('',#697,1.);
#435=VECTOR('',#698,1.);
#436=VECTOR('',#699,1.);
#437=VECTOR('',#702,1.);
#438=VECTOR('',#703,1.);
#439=VECTOR('',#706,1.);
#440=VECTOR('',#707,1.);
#441=VECTOR('',#710,1.);
#442=VECTOR('',#711,1.);
#443=VECTOR('',#712,1.);
#444=VECTOR('',#713,1.);
#445=VECTOR('',#714,1.);
#446=VECTOR('',#715,1.);
#447=VECTOR('',#716,1.);
#448=VECTOR('',#717,1.);
#449=VECTOR('',#718,1.);
#450=VECTOR('',#719,1.);
#451=VECTOR('',#720,1.);
#452=VECTOR('',#721,1.);
#453=VECTOR('',#722,1.);
#454=VECTOR('',#723,1.);
#455=VECTOR('',#724,1.);
#456=VECTOR('',#727,1.);
#457=VECTOR('',#728,1.);
#458=VECTOR('',#729,1.);
#459=VECTOR('',#732,1.);
#460=VECTOR('',#733,1.);
#461=VECTOR('',#736,1.);
#462=VECTOR('',#737,1.);
#463=VECTOR('',#740,1.);
#464=VECTOR('',#741,1.);
#465=VECTOR('',#742,1.);
#466=VECTOR('',#745,1.);
#467=VECTOR('',#746,1.);
#468=VECTOR('',#749,1.);
#469=VECTOR('',#750,1.);
#470=VECTOR('',#753,1.);
#471=VECTOR('',#754,1.);
#472=VECTOR('',#757,1.);
#473=VECTOR('',#762,1.);
#474=VECTOR('',#763,1.);
#475=VECTOR('',#766,1.);
#476=VECTOR('',#771,1.);
#477=VECTOR('',#772,1.);
#478=VECTOR('',#775,1.);
#479=VECTOR('',#776,1.);
#480=VECTOR('',#779,1.);
#481=VECTOR('',#784,1.);
#482=VECTOR('',#785,1.);
#483=VECTOR('',#788,1.);
#484=VECTOR('',#789,1.);
#485=VECTOR('',#790,1.);
#486=VECTOR('',#793,1.);
#487=VECTOR('',#794,1.);
#488=VECTOR('',#799,1.);
#489=VECTOR('',#800,1.);
#490=VECTOR('',#803,1.);
#491=VECTOR('',#804,1.);
#492=VECTOR('',#807,1.);
#493=EDGE_LOOP('',(#12,#13,#14,#15));
#494=EDGE_LOOP('',(#16,#17,#18,#19,#20,#21,#22,#23,#24,#25,#26,#27,#28,
#29,#30,#31,#32,#33));
#495=EDGE_LOOP('',(#34,#35,#36,#37));
#496=EDGE_LOOP('',(#38,#39,#40,#41));
#497=EDGE_LOOP('',(#42,#43,#44,#45));
#498=EDGE_LOOP('',(#46,#47,#48,#49,#50,#51,#52));
#499=EDGE_LOOP('',(#53,#54,#55,#56,#57,#58,#59,#60,#61,#62,#63,#64,#65,
#66,#67,#68,#69,#70,#71,#72));
#500=EDGE_LOOP('',(#73,#74,#75,#76));
#501=EDGE_LOOP('',(#77,#78,#79,#80));
#502=EDGE_LOOP('',(#81,#82,#83,#84,#85,#86));
#503=EDGE_LOOP('',(#87,#88,#89,#90));
#504=EDGE_LOOP('',(#91,#92,#93,#94));
#505=EDGE_LOOP('',(#95,#96,#97,#98,#99,#100));
#506=EDGE_LOOP('',(#101,#102,#103,#104,#105,#106));
#507=EDGE_LOOP('',(#107,#108,#109,#110));
#508=EDGE_LOOP('',(#111,#112,#113,#114));
#509=EDGE_LOOP('',(#115,#116,#117,#118,#119,#120));
#510=EDGE_LOOP('',(#121,#122,#123,#124));
#511=EDGE_LOOP('',(#125,#126,#127,#128));
#512=EDGE_LOOP('',(#129,#130,#131,#132,#133,#134));
#513=EDGE_LOOP('',(#135,#136,#137,#138));
#514=EDGE_LOOP('',(#139,#140,#141,#142));
#515=EDGE_LOOP('',(#143,#144,#145,#146));
#516=EDGE_LOOP('',(#147,#148,#149,#150));
#517=EDGE_LOOP('',(#151,#152,#153,#154,#155,#156));
#518=EDGE_LOOP('',(#157,#158,#159,#160));
#519=EDGE_LOOP('',(#161,#162,#163,#164));
#520=EDGE_LOOP('',(#165,#166,#167,#168));
#521=EDGE_LOOP('',(#169,#170,#171,#172));
#522=EDGE_LOOP('',(#173,#174,#175,#176));
#523=EDGE_LOOP('',(#177,#178,#179,#180,#181));
#524=FACE_BOUND('',#493,.T.);
#525=FACE_BOUND('',#494,.T.);
#526=FACE_BOUND('',#495,.T.);
#527=FACE_BOUND('',#496,.T.);
#528=FACE_BOUND('',#497,.T.);
#529=FACE_BOUND('',#498,.T.);
#530=FACE_BOUND('',#499,.T.);
#531=FACE_BOUND('',#500,.T.);
#532=FACE_BOUND('',#501,.T.);
#533=FACE_BOUND('',#502,.T.);
#534=FACE_BOUND('',#503,.T.);
#535=FACE_BOUND('',#504,.T.);
#536=FACE_BOUND('',#505,.T.);
#537=FACE_BOUND('',#506,.T.);
#538=FACE_BOUND('',#507,.T.);
#539=FACE_BOUND('',#508,.T.);
#540=FACE_BOUND('',#509,.T.);
#541=FACE_BOUND('',#510,.T.);
#542=FACE_BOUND('',#511,.T.);
#543=FACE_BOUND('',#512,.T.);
#544=FACE_BOUND('',#513,.T.);
#545=FACE_BOUND('',#514,.T.);
#546=FACE_BOUND('',#515,.T.);
#547=FACE_BOUND('',#516,.T.);
#548=FACE_BOUND('',#517,.T.);
#549=FACE_BOUND('',#518,.T.);
#550=FACE_BOUND('',#519,.T.);
#551=FACE_BOUND('',#520,.T.);
#552=FACE_BOUND('',#521,.T.);
#553=FACE_BOUND('',#522,.T.);
#554=FACE_BOUND('',#523,.T.);
#555=PLANE('',#630);
#556=PLANE('',#631);
#557=PLANE('',#632);
#558=PLANE('',#633);
#559=PLANE('',#634);
#560=PLANE('',#635);
#561=PLANE('',#636);
#562=PLANE('',#637);
#563=PLANE('',#638);
#564=PLANE('',#639);
#565=PLANE('',#640);
#566=PLANE('',#641);
#567=PLANE('',#642);
#568=PLANE('',#643);
#569=PLANE('',#644);
#570=PLANE('',#645);
#571=PLANE('',#646);
#572=PLANE('',#647);
#573=PLANE('',#648);
#574=PLANE('',#649);
#575=PLANE('',#650);
#576=PLANE('',#651);
#577=PLANE('',#652);
#578=PLANE('',#653);
#579=PLANE('',#654);
#580=PLANE('',#655);
#581=PLANE('',#656);
#582=PLANE('',#657);
#583=PLANE('',#658);
#584=PLANE('',#659);
#585=PLANE('',#660);
#586=ADVANCED_FACE('',(#524),#555,.F.);
#587=ADVANCED_FACE('',(#525),#556,.F.);
#588=ADVANCED_FACE('',(#526),#557,.F.);
#589=ADVANCED_FACE('',(#527),#558,.T.);
#590=ADVANCED_FACE('',(#528),#559,.F.);
#591=ADVANCED_FACE('',(#529),#560,.T.);
#592=ADVANCED_FACE('',(#530),#561,.F.);
#593=ADVANCED_FACE('',(#531),#562,.F.);
#594=ADVANCED_FACE('',(#532),#563,.T.);
#595=ADVANCED_FACE('',(#533),#564,.T.);
#596=ADVANCED_FACE('',(#534),#565,.F.);
#597=ADVANCED_FACE('',(#535),#566,.T.);
#598=ADVANCED_FACE('',(#536),#567,.T.);
#599=ADVANCED_FACE('',(#537),#568,.F.);
#600=ADVANCED_FACE('',(#538),#569,.F.);
#601=ADVANCED_FACE('',(#539),#570,.T.);
#602=ADVANCED_FACE('',(#540),#571,.F.);
#603=ADVANCED_FACE('',(#541),#572,.T.);
#604=ADVANCED_FACE('',(#542),#573,.T.);
#605=ADVANCED_FACE('',(#543),#574,.F.);
#606=ADVANCED_FACE('',(#544),#575,.T.);
#607=ADVANCED_FACE('',(#545),#576,.T.);
#608=ADVANCED_FACE('',(#546),#577,.T.);
#609=ADVANCED_FACE('',(#547),#578,.T.);
#610=ADVANCED_FACE('',(#548),#579,.F.);
#611=ADVANCED_FACE('',(#549),#580,.F.);
#612=ADVANCED_FACE('',(#550),#581,.T.);
#613=ADVANCED_FACE('',(#551),#582,.T.);
#614=ADVANCED_FACE('',(#552),#583,.T.);
#615=ADVANCED_FACE('',(#553),#584,.F.);
#616=ADVANCED_FACE('',(#554),#585,.T.);
#617=CLOSED_SHELL('',(#586,#587,#588,#589,#590,#591,#592,#593,#594,#595,
#596,#597,#598,#599,#600,#601,#602,#603,#604,#605,#606,#607,#608,#609,#610,
#611,#612,#613,#614,#615,#616));
#618=STYLED_ITEM('',(#619),#626);
#619=PRESENTATION_STYLE_ASSIGNMENT((#620));
#620=SURFACE_STYLE_USAGE(.BOTH.,#621);
#621=SURFACE_SIDE_STYLE('',(#622));
#622=SURFACE_STYLE_FILL_AREA(#623);
#623=FILL_AREA_STYLE('',(#624));
#624=FILL_AREA_STYLE_COLOUR('',#625);
#625=COLOUR_RGB('',0.647058823529412,0.647058823529412,0.647058823529412);
#626=MANIFOLD_SOLID_BREP('Part 1',#617);
#627=SHAPE_DEFINITION_REPRESENTATION(#989,#628);
#628=SHAPE_REPRESENTATION('Part 1',(#629),#984);
#629=AXIS2_PLACEMENT_3D('',#810,#661,#662);
#630=AXIS2_PLACEMENT_3D('',#811,#663,#664);
#631=AXIS2_PLACEMENT_3D('',#820,#669,#670);
#632=AXIS2_PLACEMENT_3D('',#857,#689,#690);
#633=AXIS2_PLACEMENT_3D('',#866,#695,#696);
#634=AXIS2_PLACEMENT_3D('',#872,#700,#701);
#635=AXIS2_PLACEMENT_3D('',#875,#704,#705);
#636=AXIS2_PLACEMENT_3D('',#878,#708,#709);
#637=AXIS2_PLACEMENT_3D('',#907,#725,#726);
#638=AXIS2_PLACEMENT_3D('',#913,#730,#731);
#639=AXIS2_PLACEMENT_3D('',#916,#734,#735);
#640=AXIS2_PLACEMENT_3D('',#920,#738,#739);
#641=AXIS2_PLACEMENT_3D('',#926,#743,#744);
#642=AXIS2_PLACEMENT_3D('',#929,#747,#748);
#643=AXIS2_PLACEMENT_3D('',#933,#751,#752);
#644=AXIS2_PLACEMENT_3D('',#937,#755,#756);
#645=AXIS2_PLACEMENT_3D('',#939,#758,#759);
#646=AXIS2_PLACEMENT_3D('',#940,#760,#761);
#647=AXIS2_PLACEMENT_3D('',#944,#764,#765);
#648=AXIS2_PLACEMENT_3D('',#946,#767,#768);
#649=AXIS2_PLACEMENT_3D('',#947,#769,#770);
#650=AXIS2_PLACEMENT_3D('',#951,#773,#774);
#651=AXIS2_PLACEMENT_3D('',#955,#777,#778);
#652=AXIS2_PLACEMENT_3D('',#957,#780,#781);
#653=AXIS2_PLACEMENT_3D('',#958,#782,#783);
#654=AXIS2_PLACEMENT_3D('',#962,#786,#787);
#655=AXIS2_PLACEMENT_3D('',#968,#791,#792);
#656=AXIS2_PLACEMENT_3D('',#971,#795,#796);
#657=AXIS2_PLACEMENT_3D('',#972,#797,#798);
#658=AXIS2_PLACEMENT_3D('',#976,#801,#802);
#659=AXIS2_PLACEMENT_3D('',#980,#805,#806);
#660=AXIS2_PLACEMENT_3D('',#982,#808,#809);
#661=DIRECTION('',(0.,0.,1.));
#662=DIRECTION('',(1.,0.,0.));
#663=DIRECTION('',(1.,0.,0.));
#664=DIRECTION('',(0.,0.,-1.));
#665=DIRECTION('',(0.,1.,0.));
#666=DIRECTION('',(0.,0.,-1.));
#667=DIRECTION('',(0.,1.,0.));
#668=DIRECTION('',(0.,0.,-1.));
#669=DIRECTION('',(0.,0.,1.));
#670=DIRECTION('',(1.,0.,0.));
#671=DIRECTION('',(1.,0.,0.));
#672=DIRECTION('',(0.,1.,0.));
#673=DIRECTION('',(1.,0.,0.));
#674=DIRECTION('',(0.,1.,0.));
#675=DIRECTION('',(1.,0.,0.));
#676=DIRECTION('',(0.,1.,0.));
#677=DIRECTION('',(1.,0.,0.));
#678=DIRECTION('',(0.,1.,0.));
#679=DIRECTION('',(1.,0.,0.));
#680=DIRECTION('',(0.,1.,0.));
#681=DIRECTION('',(1.,0.,0.));
#682=DIRECTION('',(0.,1.,0.));
#683=DIRECTION('',(1.,0.,0.));
#684=DIRECTION('',(0.,1.,0.));
#685=DIRECTION('',(1.,0.,0.));
#686=DIRECTION('',(0.,1.,0.));
#687=DIRECTION('',(1.,0.,0.));
#688=DIRECTION('',(0.,1.,0.));
#689=DIRECTION('',(0.,0.,-1.));
#690=DIRECTION('',(-1.,0.,0.));
#691=DIRECTION('',(-1.,0.,0.));
#692=DIRECTION('',(0.,1.,0.));
#693=DIRECTION('',(-1.,0.,0.));
#694=DIRECTION('',(0.,1.,0.));
#695=DIRECTION('',(1.,0.,0.));
#696=DIRECTION('',(0.,0.,-1.));
#697=DIRECTION('',(0.,0.,-1.));
#698=DIRECTION('',(0.,1.,0.));
#699=DIRECTION('',(0.,0.,-1.));
#700=DIRECTION('',(0.,0.,-1.));
#701=DIRECTION('',(-1.,0.,0.));
#702=DIRECTION('',(-1.,0.,0.));
#703=DIRECTION('',(-1.,0.,0.));
#704=DIRECTION('',(0.,-1.,0.));
#705=DIRECTION('',(1.,0.,0.));
#706=DIRECTION('',(0.,0.,-1.));
#707=DIRECTION('',(0.,0.,-1.));
#708=DIRECTION('',(0.,-1.,0.));
#709=DIRECTION('',(1.,0.,0.));
#710=DIRECTION('',(0.,0.,-1.));
#711=DIRECTION('',(-1.,0.,0.));
#712=DIRECTION('',(0.,0.,-1.));
#713=DIRECTION('',(-1.,0.,0.));
#714=DIRECTION('',(0.,0.,-1.));
#715=DIRECTION('',(1.,0.,0.));
#716=DIRECTION('',(0.,0.,-1.));
#717=DIRECTION('',(-1.,0.,0.));
#718=DIRECTION('',(0.,0.,-1.));
#719=DIRECTION('',(1.,0.,0.));
#720=DIRECTION('',(0.,0.,-1.));
#721=DIRECTION('',(0.,0.,-1.));
#722=DIRECTION('',(1.,0.,0.));
#723=DIRECTION('',(0.,0.,-1.));
#724=DIRECTION('',(-1.,0.,0.));
#725=DIRECTION('',(0.,0.,-1.));
#726=DIRECTION('',(-1.,0.,0.));
#727=DIRECTION('',(0.,1.,0.));
#728=DIRECTION('',(-1.,0.,0.));
#729=DIRECTION('',(0.,1.,0.));
#730=DIRECTION('',(0.,-1.,0.));
#731=DIRECTION('',(1.,0.,0.));
#732=DIRECTION('',(0.,0.,-1.));
#733=DIRECTION('',(0.,0.,-1.));
#734=DIRECTION('',(1.,0.,0.));
#735=DIRECTION('',(0.,0.,-1.));
#736=DIRECTION('',(0.,1.,0.));
#737=DIRECTION('',(0.,0.,-1.));
#738=DIRECTION('',(0.,0.,-1.));
#739=DIRECTION('',(-1.,0.,0.));
#740=DIRECTION('',(0.,1.,0.));
#741=DIRECTION('',(-1.,0.,0.));
#742=DIRECTION('',(0.,1.,0.));
#743=DIRECTION('',(0.,-1.,0.));
#744=DIRECTION('',(1.,0.,0.));
#745=DIRECTION('',(0.,0.,-1.));
#746=DIRECTION('',(0.,0.,-1.));
#747=DIRECTION('',(1.,0.,0.));
#748=DIRECTION('',(0.,0.,-1.));
#749=DIRECTION('',(0.,1.,0.));
#750=DIRECTION('',(0.,0.,-1.));
#751=DIRECTION('',(1.,0.,0.));
#752=DIRECTION('',(0.,0.,-1.));
#753=DIRECTION('',(0.,0.,-1.));
#754=DIRECTION('',(0.,1.,0.));
#755=DIRECTION('',(0.,0.,-1.));
#756=DIRECTION('',(-1.,0.,0.));
#757=DIRECTION('',(-1.,0.,0.));
#758=DIRECTION('',(0.,-1.,0.));
#759=DIRECTION('',(1.,0.,0.));
#760=DIRECTION('',(1.,0.,0.));
#761=DIRECTION('',(0.,0.,-1.));
#762=DIRECTION('',(0.,0.,-1.));
#763=DIRECTION('',(0.,1.,0.));
#764=DIRECTION('',(0.,0.,1.));
#765=DIRECTION('',(1.,0.,0.));
#766=DIRECTION('',(1.,0.,0.));
#767=DIRECTION('',(0.,-1.,0.));
#768=DIRECTION('',(1.,0.,0.));
#769=DIRECTION('',(1.,0.,0.));
#770=DIRECTION('',(0.,0.,-1.));
#771=DIRECTION('',(0.,0.,-1.));
#772=DIRECTION('',(0.,1.,0.));
#773=DIRECTION('',(1.,0.,0.));
#774=DIRECTION('',(0.,0.,-1.));
#775=DIRECTION('',(0.,1.,0.));
#776=DIRECTION('',(0.,0.,-1.));
#777=DIRECTION('',(0.,0.,1.));
#778=DIRECTION('',(1.,0.,0.));
#779=DIRECTION('',(1.,0.,0.));
#780=DIRECTION('',(0.,-1.,0.));
#781=DIRECTION('',(1.,0.,0.));
#782=DIRECTION('',(1.,0.,0.));
#783=DIRECTION('',(0.,0.,-1.));
#784=DIRECTION('',(0.,1.,0.));
#785=DIRECTION('',(0.,0.,-1.));
#786=DIRECTION('',(0.,0.,-1.));
#787=DIRECTION('',(-1.,0.,0.));
#788=DIRECTION('',(0.,1.,0.));
#789=DIRECTION('',(0.,1.,0.));
#790=DIRECTION('',(-1.,0.,0.));
#791=DIRECTION('',(1.,0.,0.));
#792=DIRECTION('',(0.,0.,-1.));
#793=DIRECTION('',(0.,0.,-1.));
#794=DIRECTION('',(0.,0.,-1.));
#795=DIRECTION('',(0.,-1.,0.));
#796=DIRECTION('',(1.,0.,0.));
#797=DIRECTION('',(1.,0.,0.));
#798=DIRECTION('',(0.,0.,-1.));
#799=DIRECTION('',(0.,0.,-1.));
#800=DIRECTION('',(0.,1.,0.));
#801=DIRECTION('',(0.,0.,1.));
#802=DIRECTION('',(1.,0.,0.));
#803=DIRECTION('',(0.,1.,0.));
#804=DIRECTION('',(1.,0.,0.));
#805=DIRECTION('',(1.,0.,0.));
#806=DIRECTION('',(0.,0.,-1.));
#807=DIRECTION('',(0.,0.,-1.));
#808=DIRECTION('',(0.,-1.,0.));
#809=DIRECTION('',(1.,0.,0.));
#810=CARTESIAN_POINT('',(0.,0.,0.));
#811=CARTESIAN_POINT('',(-0.0463353698909283,-0.00762,0.0242511536926031));
#812=CARTESIAN_POINT('',(-0.0463353698909283,-0.00889,0.0240945015102625));
#813=CARTESIAN_POINT('',(-0.0463353698909283,-0.00762,0.0240945015102625));
#814=CARTESIAN_POINT('',(-0.0463353698909283,0.,0.0240945015102625));
#815=CARTESIAN_POINT('',(-0.0463353698909283,-0.00762,0.0242511536926031));
#816=CARTESIAN_POINT('',(-0.0463353698909283,-0.00762,0.0244078058749438));
#817=CARTESIAN_POINT('',(-0.0463353698909283,-0.00762,0.0244078058749438));
#818=CARTESIAN_POINT('',(-0.0463353698909283,0.,0.0244078058749438));
#819=CARTESIAN_POINT('',(-0.0463353698909283,0.,0.0242511536926031));
#820=CARTESIAN_POINT('',(-0.0450653698909283,-0.00762,0.0121508730448823));
#821=CARTESIAN_POINT('',(-0.0450653698909283,0.,0.0121508730448823));
#822=CARTESIAN_POINT('',(-0.0514153698909283,0.,0.0121508730448823));
#823=CARTESIAN_POINT('',(-0.0285553698909283,0.,0.0121508730448823));
#824=CARTESIAN_POINT('',(-0.0285553698909283,-0.00889,0.0121508730448823));
#825=CARTESIAN_POINT('',(-0.0285553698909283,-0.00889,0.0121508730448823));
#826=CARTESIAN_POINT('',(-0.0308413698909283,-0.00889,0.0121508730448823));
#827=CARTESIAN_POINT('',(-0.0331273698909283,-0.00889,0.0121508730448823));
#828=CARTESIAN_POINT('',(-0.0331273698909283,-0.00889,0.0121508730448823));
#829=CARTESIAN_POINT('',(-0.0331273698909283,-0.00762,0.0121508730448823));
#830=CARTESIAN_POINT('',(-0.0340163698909283,-0.00762,0.0121508730448823));
#831=CARTESIAN_POINT('',(-0.0349053698909283,-0.00762,0.0121508730448823));
#832=CARTESIAN_POINT('',(-0.0349053698909283,-0.00889,0.0121508730448823));
#833=CARTESIAN_POINT('',(-0.0349053698909283,-0.00889,0.0121508730448823));
#834=CARTESIAN_POINT('',(-0.0355403698909283,-0.00889,0.0121508730448823));
#835=CARTESIAN_POINT('',(-0.0361753698909283,-0.00889,0.0121508730448823));
#836=CARTESIAN_POINT('',(-0.0361753698909283,-0.00889,0.0121508730448823));
#837=CARTESIAN_POINT('',(-0.0361753698909283,-0.00762,0.0121508730448823));
#838=CARTESIAN_POINT('',(-0.0374453698909283,-0.00762,0.0121508730448823));
#839=CARTESIAN_POINT('',(-0.0387153698909283,-0.00762,0.0121508730448823));
#840=CARTESIAN_POINT('',(-0.0387153698909283,-0.00889,0.0121508730448823));
#841=CARTESIAN_POINT('',(-0.0387153698909283,-0.00889,0.0121508730448823));
#842=CARTESIAN_POINT('',(-0.0399853698909282,-0.00889,0.0121508730448823));
#843=CARTESIAN_POINT('',(-0.0412553698909282,-0.00889,0.0121508730448823));
#844=CARTESIAN_POINT('',(-0.0412553698909282,-0.00889,0.0121508730448823));
#845=CARTESIAN_POINT('',(-0.0412553698909282,-0.00762,0.0121508730448823));
#846=CARTESIAN_POINT('',(-0.0450653698909283,-0.00762,0.0121508730448823));
#847=CARTESIAN_POINT('',(-0.0463353698909283,-0.00762,0.0121508730448823));
#848=CARTESIAN_POINT('',(-0.0463353698909283,-0.00889,0.0121508730448823));
#849=CARTESIAN_POINT('',(-0.0463353698909283,-0.00889,0.0121508730448823));
#850=CARTESIAN_POINT('',(-0.0476053698909283,-0.00889,0.0121508730448823));
#851=CARTESIAN_POINT('',(-0.0488753698909283,-0.00889,0.0121508730448823));
#852=CARTESIAN_POINT('',(-0.0488753698909283,-0.00889,0.0121508730448823));
#853=CARTESIAN_POINT('',(-0.0488753698909283,-0.00762,0.0121508730448823));
#854=CARTESIAN_POINT('',(-0.0501453698909283,-0.00762,0.0121508730448823));
#855=CARTESIAN_POINT('',(-0.0514153698909283,-0.00762,0.0121508730448823));
#856=CARTESIAN_POINT('',(-0.0514153698909283,-0.00762,0.0121508730448823));
#857=CARTESIAN_POINT('',(-0.0425253698909282,-0.00762,0.0232685208320618));
#858=CARTESIAN_POINT('',(-0.0425253698909282,0.,0.0232685208320618));
#859=CARTESIAN_POINT('',(-0.0412553698909282,0.,0.0232685208320618));
#860=CARTESIAN_POINT('',(-0.0437953698909282,0.,0.0232685208320618));
#861=CARTESIAN_POINT('',(-0.0437953698909282,-0.00762,0.0232685208320618));
#862=CARTESIAN_POINT('',(-0.0437953698909282,-0.00762,0.0232685208320618));
#863=CARTESIAN_POINT('',(-0.0425253698909282,-0.00762,0.0232685208320618));
#864=CARTESIAN_POINT('',(-0.0412553698909282,-0.00762,0.0232685208320618));
#865=CARTESIAN_POINT('',(-0.0412553698909282,-0.00762,0.0232685208320618));
#866=CARTESIAN_POINT('',(-0.0437953698909282,-0.00762,0.0238381633535028));
#867=CARTESIAN_POINT('',(-0.0437953698909282,0.,0.0238381633535028));
#868=CARTESIAN_POINT('',(-0.0437953698909282,0.,0.0244078058749438));
#869=CARTESIAN_POINT('',(-0.0437953698909282,-0.00762,0.0244078058749438));
#870=CARTESIAN_POINT('',(-0.0437953698909282,-0.00762,0.0244078058749438));
#871=CARTESIAN_POINT('',(-0.0437953698909282,-0.00762,0.0238381633535028));
#872=CARTESIAN_POINT('',(-0.0450653698909283,-0.00762,0.0244078058749438));
#873=CARTESIAN_POINT('',(-0.0450653698909283,0.,0.0244078058749438));
#874=CARTESIAN_POINT('',(-0.0450653698909283,-0.00762,0.0244078058749438));
#875=CARTESIAN_POINT('',(-0.0399853698909282,-0.00762,0.0185008730448824));
#876=CARTESIAN_POINT('',(-0.0463353698909283,-0.00762,0.0242511536926031));
#877=CARTESIAN_POINT('',(-0.0412553698909282,-0.00762,0.0177096969384721));
#878=CARTESIAN_POINT('',(-0.0399853698909282,0.,0.0185008730448824));
#879=CARTESIAN_POINT('',(-0.0412553698909282,0.,0.0234821364283561));
#880=CARTESIAN_POINT('',(-0.0412553698909282,0.,0.0236957520246506));
#881=CARTESIAN_POINT('',(-0.0399853698909282,0.,0.0236957520246506));
#882=CARTESIAN_POINT('',(-0.0387153698909283,0.,0.0236957520246506));
#883=CARTESIAN_POINT('',(-0.0387153698909283,0.,0.0172397422540953));
#884=CARTESIAN_POINT('',(-0.0387153698909283,0.,0.0223286114633084));
#885=CARTESIAN_POINT('',(-0.0374453698909283,0.,0.0223286114633084));
#886=CARTESIAN_POINT('',(-0.0361753698909283,0.,0.0223286114633084));
#887=CARTESIAN_POINT('',(-0.0361753698909283,0.,0.0235897422540953));
#888=CARTESIAN_POINT('',(-0.0361753698909283,0.,0.0248508730448824));
#889=CARTESIAN_POINT('',(-0.0355403698909283,0.,0.0248508730448824));
#890=CARTESIAN_POINT('',(-0.0349053698909283,0.,0.0248508730448824));
#891=CARTESIAN_POINT('',(-0.0349053698909283,0.,0.0176812152314951));
#892=CARTESIAN_POINT('',(-0.0349053698909283,0.,0.023211557418108));
#893=CARTESIAN_POINT('',(-0.0340163698909283,0.,0.023211557418108));
#894=CARTESIAN_POINT('',(-0.0331273698909283,0.,0.023211557418108));
#895=CARTESIAN_POINT('',(-0.0331273698909283,0.,0.0240312152314952));
#896=CARTESIAN_POINT('',(-0.0331273698909283,0.,0.0248508730448824));
#897=CARTESIAN_POINT('',(-0.0308413698909283,0.,0.0248508730448824));
#898=CARTESIAN_POINT('',(-0.0285553698909283,0.,0.0248508730448824));
#899=CARTESIAN_POINT('',(-0.0285553698909283,0.,0.0185008730448824));
#900=CARTESIAN_POINT('',(-0.0514153698909283,0.,0.0185008730448824));
#901=CARTESIAN_POINT('',(-0.0514153698909283,0.,0.0248508730448824));
#902=CARTESIAN_POINT('',(-0.0501453698909283,0.,0.0248508730448824));
#903=CARTESIAN_POINT('',(-0.0488753698909283,0.,0.0248508730448824));
#904=CARTESIAN_POINT('',(-0.0488753698909283,0.,0.0181226872775724));
#905=CARTESIAN_POINT('',(-0.0488753698909283,0.,0.0240945015102625));
#906=CARTESIAN_POINT('',(-0.0476053698909283,0.,0.0240945015102625));
#907=CARTESIAN_POINT('',(-0.0340163698909283,-0.00762,0.023211557418108));
#908=CARTESIAN_POINT('',(-0.0349053698909283,-0.00762,0.023211557418108));
#909=CARTESIAN_POINT('',(-0.0349053698909283,-0.00762,0.023211557418108));
#910=CARTESIAN_POINT('',(-0.0340163698909283,-0.00762,0.023211557418108));
#911=CARTESIAN_POINT('',(-0.0331273698909283,-0.00762,0.023211557418108));
#912=CARTESIAN_POINT('',(-0.0331273698909283,-0.00762,0.023211557418108));
#913=CARTESIAN_POINT('',(-0.0399853698909282,-0.00762,0.0185008730448824));
#914=CARTESIAN_POINT('',(-0.0349053698909283,-0.00762,0.0176812152314951));
#915=CARTESIAN_POINT('',(-0.0331273698909283,-0.00762,0.0176812152314951));
#916=CARTESIAN_POINT('',(-0.0349053698909283,-0.00889,0.0176812152314951));
#917=CARTESIAN_POINT('',(-0.0349053698909283,-0.00889,0.0248508730448824));
#918=CARTESIAN_POINT('',(-0.0349053698909283,-0.00889,0.0248508730448824));
#919=CARTESIAN_POINT('',(-0.0349053698909283,-0.00889,0.0176812152314951));
#920=CARTESIAN_POINT('',(-0.0374453698909283,-0.00762,0.0223286114633084));
#921=CARTESIAN_POINT('',(-0.0387153698909283,-0.00762,0.0223286114633084));
#922=CARTESIAN_POINT('',(-0.0387153698909283,-0.00762,0.0223286114633084));
#923=CARTESIAN_POINT('',(-0.0374453698909283,-0.00762,0.0223286114633084));
#924=CARTESIAN_POINT('',(-0.0361753698909283,-0.00762,0.0223286114633084));
#925=CARTESIAN_POINT('',(-0.0361753698909283,-0.00762,0.0223286114633084));
#926=CARTESIAN_POINT('',(-0.0399853698909282,-0.00762,0.0185008730448824));
#927=CARTESIAN_POINT('',(-0.0387153698909283,-0.00762,0.0172397422540953));
#928=CARTESIAN_POINT('',(-0.0361753698909283,-0.00762,0.0172397422540953));
#929=CARTESIAN_POINT('',(-0.0387153698909283,-0.00889,0.0172397422540953));
#930=CARTESIAN_POINT('',(-0.0387153698909283,-0.00889,0.0236957520246506));
#931=CARTESIAN_POINT('',(-0.0387153698909283,-0.00889,0.0236957520246506));
#932=CARTESIAN_POINT('',(-0.0387153698909283,-0.00889,0.0172397422540953));
#933=CARTESIAN_POINT('',(-0.0412553698909282,-0.00889,0.0234821364283561));
#934=CARTESIAN_POINT('',(-0.0412553698909282,-0.00889,0.0234821364283561));
#935=CARTESIAN_POINT('',(-0.0412553698909282,-0.00889,0.0236957520246506));
#936=CARTESIAN_POINT('',(-0.0412553698909282,-0.00889,0.0236957520246506));
#937=CARTESIAN_POINT('',(-0.0399853698909282,-0.00889,0.0236957520246506));
#938=CARTESIAN_POINT('',(-0.0399853698909282,-0.00889,0.0236957520246506));
#939=CARTESIAN_POINT('',(-0.0399853698909282,-0.00889,0.0185008730448824));
#940=CARTESIAN_POINT('',(-0.0361753698909283,-0.00889,0.0235897422540953));
#941=CARTESIAN_POINT('',(-0.0361753698909283,-0.00889,0.0235897422540953));
#942=CARTESIAN_POINT('',(-0.0361753698909283,-0.00889,0.0248508730448824));
#943=CARTESIAN_POINT('',(-0.0361753698909283,-0.00889,0.0248508730448824));
#944=CARTESIAN_POINT('',(-0.0355403698909283,-0.00889,0.0248508730448824));
#945=CARTESIAN_POINT('',(-0.0355403698909283,-0.00889,0.0248508730448824));
#946=CARTESIAN_POINT('',(-0.0399853698909282,-0.00889,0.0185008730448824));
#947=CARTESIAN_POINT('',(-0.0331273698909283,-0.00889,0.0240312152314952));
#948=CARTESIAN_POINT('',(-0.0331273698909283,-0.00889,0.0240312152314952));
#949=CARTESIAN_POINT('',(-0.0331273698909283,-0.00889,0.0248508730448824));
#950=CARTESIAN_POINT('',(-0.0331273698909283,-0.00889,0.0248508730448824));
#951=CARTESIAN_POINT('',(-0.0285553698909283,-0.00889,0.0185008730448824));
#952=CARTESIAN_POINT('',(-0.0285553698909283,-0.00889,0.0248508730448824));
#953=CARTESIAN_POINT('',(-0.0285553698909283,-0.00889,0.0248508730448824));
#954=CARTESIAN_POINT('',(-0.0285553698909283,-0.00889,0.0185008730448824));
#955=CARTESIAN_POINT('',(-0.0308413698909283,-0.00889,0.0248508730448824));
#956=CARTESIAN_POINT('',(-0.0308413698909283,-0.00889,0.0248508730448824));
#957=CARTESIAN_POINT('',(-0.0399853698909282,-0.00889,0.0185008730448824));
#958=CARTESIAN_POINT('',(-0.0463353698909283,-0.00889,0.0181226872775724));
#959=CARTESIAN_POINT('',(-0.0463353698909283,-0.00889,0.0240945015102625));
#960=CARTESIAN_POINT('',(-0.0463353698909283,-0.00889,0.0240945015102625));
#961=CARTESIAN_POINT('',(-0.0463353698909283,-0.00889,0.0181226872775724));
#962=CARTESIAN_POINT('',(-0.0476053698909283,-0.00889,0.0240945015102625));
#963=CARTESIAN_POINT('',(-0.0488753698909283,-0.00889,0.0240945015102625));
#964=CARTESIAN_POINT('',(-0.0488753698909283,-0.00762,0.0240945015102625));
#965=CARTESIAN_POINT('',(-0.0488753698909283,-0.00889,0.0240945015102625));
#966=CARTESIAN_POINT('',(-0.0488753698909283,-0.00889,0.0240945015102625));
#967=CARTESIAN_POINT('',(-0.0476053698909283,-0.00889,0.0240945015102625));
#968=CARTESIAN_POINT('',(-0.0488753698909283,-0.00889,0.0181226872775724));
#969=CARTESIAN_POINT('',(-0.0488753698909283,-0.00762,0.0181226872775724));
#970=CARTESIAN_POINT('',(-0.0488753698909283,-0.00889,0.0181226872775724));
#971=CARTESIAN_POINT('',(-0.0399853698909282,-0.00889,0.0185008730448824));
#972=CARTESIAN_POINT('',(-0.0488753698909283,-0.00762,0.0181226872775724));
#973=CARTESIAN_POINT('',(-0.0488753698909283,-0.00762,0.0181226872775724));
#974=CARTESIAN_POINT('',(-0.0488753698909283,-0.00762,0.0248508730448824));
#975=CARTESIAN_POINT('',(-0.0488753698909283,-0.00762,0.0248508730448824));
#976=CARTESIAN_POINT('',(-0.0501453698909283,-0.00762,0.0248508730448824));
#977=CARTESIAN_POINT('',(-0.0514153698909283,-0.00762,0.0248508730448824));
#978=CARTESIAN_POINT('',(-0.0514153698909283,-0.00762,0.0248508730448824));
#979=CARTESIAN_POINT('',(-0.0501453698909283,-0.00762,0.0248508730448824));
#980=CARTESIAN_POINT('',(-0.0514153698909283,-0.00762,0.0185008730448824));
#981=CARTESIAN_POINT('',(-0.0514153698909283,-0.00762,0.0185008730448824));
#982=CARTESIAN_POINT('',(-0.0399853698909282,-0.00762,0.0185008730448824));
#983=MECHANICAL_DESIGN_GEOMETRIC_PRESENTATION_REPRESENTATION('',(#618),
#984);
#984=(
GEOMETRIC_REPRESENTATION_CONTEXT(3)
GLOBAL_UNCERTAINTY_ASSIGNED_CONTEXT((#985))
GLOBAL_UNIT_ASSIGNED_CONTEXT((#988,#987,#986))
REPRESENTATION_CONTEXT('Part 1','TOP_LEVEL_ASSEMBLY_PART')
);
#985=UNCERTAINTY_MEASURE_WITH_UNIT(LENGTH_MEASURE(1.E-8),#988,
'DISTANCE_ACCURACY_VALUE','Maximum Tolerance applied to model');
#986=(
NAMED_UNIT(*)
SI_UNIT($,.STERADIAN.)
SOLID_ANGLE_UNIT()
);
#987=(
NAMED_UNIT(*)
PLANE_ANGLE_UNIT()
SI_UNIT($,.RADIAN.)
);
#988=(
LENGTH_UNIT()
NAMED_UNIT(*)
SI_UNIT($,.METRE.)
);
#989=PRODUCT_DEFINITION_SHAPE('','',#990);
#990=PRODUCT_DEFINITION('','',#992,#991);
#991=PRODUCT_DEFINITION_CONTEXT('',#998,'design');
#992=PRODUCT_DEFINITION_FORMATION_WITH_SPECIFIED_SOURCE('','',#994,
 .NOT_KNOWN.);
#993=PRODUCT_RELATED_PRODUCT_CATEGORY('','',(#994));
#994=PRODUCT('Part 1','Part 1','Part 1',(#996));
#995=PRODUCT_CATEGORY('','');
#996=PRODUCT_CONTEXT('',#998,'mechanical');
#997=APPLICATION_PROTOCOL_DEFINITION('international standard',
'ap242_managed_model_based_3d_engineering',2020,#998);
#998=APPLICATION_CONTEXT('managed model based 3d engineering');
ENDSEC;
END-ISO-10303-21;
