ISO-10303-21;
HEADER;
/* Generated by software containing ST-Developer
 * from STEP Tools, Inc. (www.steptools.com) 
 */
/* OPTION: using custom renumber hook */

FILE_DESCRIPTION(
/* description */ ('STEP AP242 Edition 2',
'CAx-IF Rec.Pracs.---Representation and Presentation of Product Manufa
cturing Information (PMI)---4.0---2014-10-13',
'CAx-IF Rec.Pracs.---3D Tessellated Geometry---0.4---2014-09-14','2;1',
'CAx-IF Rec.Pracs.---User Defined Attributes---1.5---2016-08-15'),
/* implementation_level */ '2;1');

FILE_NAME(
/* name */ 'Couch',
/* time_stamp */ '2026-09-08T02:25:14Z',
/* author */ (''),
/* organization */ (''),
/* preprocessor_version */ 'ST-DEVELOPER v20',
/* originating_system */ 'ONSHAPE BY PTC INC, 1.220',
/* authorisation */ '  ');

FILE_SCHEMA (('AP242_MANAGED_MODEL_BASED_3D_ENGINEERING_MIM_LF { 1 0 10303 442 3 1 4 }'));
ENDSEC;

DATA;
#10=SHAPE_REPRESENTATION_RELATIONSHIP('','',#449,#11);
#11=ADVANCED_BREP_SHAPE_REPRESENTATION('',(#447),#775);
#12=TOROIDAL_SURFACE('',#493,0.00254,0.00254);
#13=TOROIDAL_SURFACE('',#498,0.00254,0.00254);
#14=B_SPLINE_CURVE_WITH_KNOTS('',3,(#754,#755,#756,#757,#758),
 .UNSPECIFIED.,.F.,.F.,(4,1,4),(0.,0.0029734597263095,0.00594691945261899),
 .UNSPECIFIED.);
#15=B_SPLINE_CURVE_WITH_KNOTS('',3,(#759,#760,#761,#762,#763),
 .UNSPECIFIED.,.F.,.F.,(4,1,4),(0.,0.00297345972630949,0.00594691945261899),
 .UNSPECIFIED.);
#16=SPHERICAL_SURFACE('',#483,0.00508);
#17=SPHERICAL_SURFACE('',#487,0.00508);
#18=ELLIPSE('',#473,0.00718420489685532,0.00508);
#19=ELLIPSE('',#476,0.00718420489685532,0.00508);
#20=CYLINDRICAL_SURFACE('',#471,0.00508);
#21=CYLINDRICAL_SURFACE('',#474,0.00508);
#22=CYLINDRICAL_SURFACE('',#477,0.00508);
#23=CYLINDRICAL_SURFACE('',#479,0.00508);
#24=CYLINDRICAL_SURFACE('',#481,0.00508);
#25=CYLINDRICAL_SURFACE('',#485,0.00508);
#26=CYLINDRICAL_SURFACE('',#489,0.00508);
#27=CYLINDRICAL_SURFACE('',#490,0.00508);
#28=CYLINDRICAL_SURFACE('',#491,0.00254);
#29=CYLINDRICAL_SURFACE('',#495,0.00254);
#30=CYLINDRICAL_SURFACE('',#496,0.00254);
#31=CYLINDRICAL_SURFACE('',#500,0.00254);
#32=CIRCLE('',#452,0.00508);
#33=CIRCLE('',#453,0.00508);
#34=CIRCLE('',#455,0.00254);
#35=CIRCLE('',#456,0.00254);
#36=CIRCLE('',#459,0.00254);
#37=CIRCLE('',#460,0.00254);
#38=CIRCLE('',#462,0.00508);
#39=CIRCLE('',#463,0.00508);
#40=CIRCLE('',#468,0.00508);
#41=CIRCLE('',#470,0.00508);
#42=CIRCLE('',#472,0.00508);
#43=CIRCLE('',#475,0.00508);
#44=CIRCLE('',#478,0.00508);
#45=CIRCLE('',#480,0.00508);
#46=CIRCLE('',#482,0.00508);
#47=CIRCLE('',#484,0.00508);
#48=CIRCLE('',#486,0.00508);
#49=CIRCLE('',#488,0.00508);
#50=CIRCLE('',#492,0.00254);
#51=CIRCLE('',#494,0.00254);
#52=CIRCLE('',#497,0.00254);
#53=CIRCLE('',#499,0.00254);
#54=ORIENTED_EDGE('',*,*,#178,.T.);
#55=ORIENTED_EDGE('',*,*,#179,.T.);
#56=ORIENTED_EDGE('',*,*,#180,.T.);
#57=ORIENTED_EDGE('',*,*,#181,.T.);
#58=ORIENTED_EDGE('',*,*,#182,.T.);
#59=ORIENTED_EDGE('',*,*,#183,.F.);
#60=ORIENTED_EDGE('',*,*,#184,.T.);
#61=ORIENTED_EDGE('',*,*,#185,.T.);
#62=ORIENTED_EDGE('',*,*,#186,.T.);
#63=ORIENTED_EDGE('',*,*,#187,.T.);
#64=ORIENTED_EDGE('',*,*,#188,.T.);
#65=ORIENTED_EDGE('',*,*,#189,.T.);
#66=ORIENTED_EDGE('',*,*,#190,.T.);
#67=ORIENTED_EDGE('',*,*,#191,.T.);
#68=ORIENTED_EDGE('',*,*,#192,.T.);
#69=ORIENTED_EDGE('',*,*,#193,.T.);
#70=ORIENTED_EDGE('',*,*,#194,.T.);
#71=ORIENTED_EDGE('',*,*,#195,.T.);
#72=ORIENTED_EDGE('',*,*,#196,.F.);
#73=ORIENTED_EDGE('',*,*,#182,.F.);
#74=ORIENTED_EDGE('',*,*,#197,.T.);
#75=ORIENTED_EDGE('',*,*,#198,.T.);
#76=ORIENTED_EDGE('',*,*,#191,.F.);
#77=ORIENTED_EDGE('',*,*,#199,.T.);
#78=ORIENTED_EDGE('',*,*,#200,.F.);
#79=ORIENTED_EDGE('',*,*,#201,.T.);
#80=ORIENTED_EDGE('',*,*,#202,.T.);
#81=ORIENTED_EDGE('',*,*,#203,.T.);
#82=ORIENTED_EDGE('',*,*,#204,.T.);
#83=ORIENTED_EDGE('',*,*,#201,.F.);
#84=ORIENTED_EDGE('',*,*,#205,.F.);
#85=ORIENTED_EDGE('',*,*,#206,.T.);
#86=ORIENTED_EDGE('',*,*,#200,.T.);
#87=ORIENTED_EDGE('',*,*,#207,.T.);
#88=ORIENTED_EDGE('',*,*,#208,.T.);
#89=ORIENTED_EDGE('',*,*,#209,.T.);
#90=ORIENTED_EDGE('',*,*,#210,.T.);
#91=ORIENTED_EDGE('',*,*,#205,.T.);
#92=ORIENTED_EDGE('',*,*,#211,.T.);
#93=ORIENTED_EDGE('',*,*,#212,.T.);
#94=ORIENTED_EDGE('',*,*,#197,.F.);
#95=ORIENTED_EDGE('',*,*,#204,.F.);
#96=ORIENTED_EDGE('',*,*,#213,.T.);
#97=ORIENTED_EDGE('',*,*,#214,.T.);
#98=ORIENTED_EDGE('',*,*,#215,.T.);
#99=ORIENTED_EDGE('',*,*,#216,.T.);
#100=ORIENTED_EDGE('',*,*,#217,.T.);
#101=ORIENTED_EDGE('',*,*,#202,.F.);
#102=ORIENTED_EDGE('',*,*,#218,.T.);
#103=ORIENTED_EDGE('',*,*,#219,.T.);
#104=ORIENTED_EDGE('',*,*,#220,.T.);
#105=ORIENTED_EDGE('',*,*,#183,.T.);
#106=ORIENTED_EDGE('',*,*,#196,.T.);
#107=ORIENTED_EDGE('',*,*,#221,.T.);
#108=ORIENTED_EDGE('',*,*,#222,.T.);
#109=ORIENTED_EDGE('',*,*,#223,.T.);
#110=ORIENTED_EDGE('',*,*,#194,.F.);
#111=ORIENTED_EDGE('',*,*,#181,.F.);
#112=ORIENTED_EDGE('',*,*,#220,.F.);
#113=ORIENTED_EDGE('',*,*,#224,.T.);
#114=ORIENTED_EDGE('',*,*,#211,.F.);
#115=ORIENTED_EDGE('',*,*,#225,.T.);
#116=ORIENTED_EDGE('',*,*,#184,.F.);
#117=ORIENTED_EDGE('',*,*,#208,.F.);
#118=ORIENTED_EDGE('',*,*,#226,.T.);
#119=ORIENTED_EDGE('',*,*,#221,.F.);
#120=ORIENTED_EDGE('',*,*,#180,.F.);
#121=ORIENTED_EDGE('',*,*,#227,.T.);
#122=ORIENTED_EDGE('',*,*,#217,.F.);
#123=ORIENTED_EDGE('',*,*,#228,.T.);
#124=ORIENTED_EDGE('',*,*,#213,.F.);
#125=ORIENTED_EDGE('',*,*,#203,.F.);
#126=ORIENTED_EDGE('',*,*,#210,.F.);
#127=ORIENTED_EDGE('',*,*,#229,.T.);
#128=ORIENTED_EDGE('',*,*,#215,.F.);
#129=ORIENTED_EDGE('',*,*,#206,.F.);
#130=ORIENTED_EDGE('',*,*,#225,.F.);
#131=ORIENTED_EDGE('',*,*,#214,.F.);
#132=ORIENTED_EDGE('',*,*,#230,.F.);
#133=ORIENTED_EDGE('',*,*,#185,.F.);
#134=ORIENTED_EDGE('',*,*,#230,.T.);
#135=ORIENTED_EDGE('',*,*,#228,.F.);
#136=ORIENTED_EDGE('',*,*,#231,.F.);
#137=ORIENTED_EDGE('',*,*,#231,.T.);
#138=ORIENTED_EDGE('',*,*,#216,.F.);
#139=ORIENTED_EDGE('',*,*,#232,.F.);
#140=ORIENTED_EDGE('',*,*,#178,.F.);
#141=ORIENTED_EDGE('',*,*,#232,.T.);
#142=ORIENTED_EDGE('',*,*,#229,.F.);
#143=ORIENTED_EDGE('',*,*,#233,.F.);
#144=ORIENTED_EDGE('',*,*,#233,.T.);
#145=ORIENTED_EDGE('',*,*,#209,.F.);
#146=ORIENTED_EDGE('',*,*,#227,.F.);
#147=ORIENTED_EDGE('',*,*,#179,.F.);
#148=ORIENTED_EDGE('',*,*,#223,.F.);
#149=ORIENTED_EDGE('',*,*,#234,.T.);
#150=ORIENTED_EDGE('',*,*,#187,.F.);
#151=ORIENTED_EDGE('',*,*,#235,.T.);
#152=ORIENTED_EDGE('',*,*,#218,.F.);
#153=ORIENTED_EDGE('',*,*,#195,.F.);
#154=ORIENTED_EDGE('',*,*,#235,.F.);
#155=ORIENTED_EDGE('',*,*,#186,.F.);
#156=ORIENTED_EDGE('',*,*,#236,.F.);
#157=ORIENTED_EDGE('',*,*,#219,.F.);
#158=ORIENTED_EDGE('',*,*,#236,.T.);
#159=ORIENTED_EDGE('',*,*,#193,.F.);
#160=ORIENTED_EDGE('',*,*,#237,.F.);
#161=ORIENTED_EDGE('',*,*,#224,.F.);
#162=ORIENTED_EDGE('',*,*,#237,.T.);
#163=ORIENTED_EDGE('',*,*,#192,.F.);
#164=ORIENTED_EDGE('',*,*,#198,.F.);
#165=ORIENTED_EDGE('',*,*,#212,.F.);
#166=ORIENTED_EDGE('',*,*,#199,.F.);
#167=ORIENTED_EDGE('',*,*,#190,.F.);
#168=ORIENTED_EDGE('',*,*,#238,.F.);
#169=ORIENTED_EDGE('',*,*,#207,.F.);
#170=ORIENTED_EDGE('',*,*,#238,.T.);
#171=ORIENTED_EDGE('',*,*,#189,.F.);
#172=ORIENTED_EDGE('',*,*,#239,.F.);
#173=ORIENTED_EDGE('',*,*,#226,.F.);
#174=ORIENTED_EDGE('',*,*,#239,.T.);
#175=ORIENTED_EDGE('',*,*,#188,.F.);
#176=ORIENTED_EDGE('',*,*,#234,.F.);
#177=ORIENTED_EDGE('',*,*,#222,.F.);
#178=EDGE_CURVE('',#240,#241,#278,.F.);
#179=EDGE_CURVE('',#241,#242,#279,.T.);
#180=EDGE_CURVE('',#242,#243,#32,.T.);
#181=EDGE_CURVE('',#243,#244,#280,.T.);
#182=EDGE_CURVE('',#244,#245,#281,.T.);
#183=EDGE_CURVE('',#246,#245,#282,.T.);
#184=EDGE_CURVE('',#246,#247,#33,.T.);
#185=EDGE_CURVE('',#247,#240,#283,.F.);
#186=EDGE_CURVE('',#248,#249,#284,.T.);
#187=EDGE_CURVE('',#249,#250,#285,.F.);
#188=EDGE_CURVE('',#250,#251,#286,.F.);
#189=EDGE_CURVE('',#251,#252,#34,.F.);
#190=EDGE_CURVE('',#252,#253,#287,.T.);
#191=EDGE_CURVE('',#253,#254,#288,.T.);
#192=EDGE_CURVE('',#254,#255,#289,.F.);
#193=EDGE_CURVE('',#255,#248,#35,.F.);
#194=EDGE_CURVE('',#244,#256,#290,.T.);
#195=EDGE_CURVE('',#256,#257,#291,.T.);
#196=EDGE_CURVE('',#245,#257,#292,.T.);
#197=EDGE_CURVE('',#258,#259,#293,.T.);
#198=EDGE_CURVE('',#259,#254,#36,.F.);
#199=EDGE_CURVE('',#253,#260,#37,.F.);
#200=EDGE_CURVE('',#261,#260,#294,.T.);
#201=EDGE_CURVE('',#261,#258,#295,.T.);
#202=EDGE_CURVE('',#262,#263,#296,.T.);
#203=EDGE_CURVE('',#263,#264,#38,.T.);
#204=EDGE_CURVE('',#264,#258,#297,.T.);
#205=EDGE_CURVE('',#265,#261,#298,.T.);
#206=EDGE_CURVE('',#265,#262,#39,.T.);
#207=EDGE_CURVE('',#260,#266,#299,.F.);
#208=EDGE_CURVE('',#266,#267,#300,.F.);
#209=EDGE_CURVE('',#267,#268,#301,.F.);
#210=EDGE_CURVE('',#268,#265,#302,.F.);
#211=EDGE_CURVE('',#269,#270,#303,.T.);
#212=EDGE_CURVE('',#270,#259,#304,.T.);
#213=EDGE_CURVE('',#264,#271,#305,.T.);
#214=EDGE_CURVE('',#271,#269,#306,.T.);
#215=EDGE_CURVE('',#262,#272,#307,.T.);
#216=EDGE_CURVE('',#272,#273,#308,.T.);
#217=EDGE_CURVE('',#273,#263,#309,.F.);
#218=EDGE_CURVE('',#257,#274,#40,.T.);
#219=EDGE_CURVE('',#274,#275,#310,.F.);
#220=EDGE_CURVE('',#275,#246,#311,.F.);
#221=EDGE_CURVE('',#243,#276,#312,.T.);
#222=EDGE_CURVE('',#276,#277,#313,.T.);
#223=EDGE_CURVE('',#277,#256,#41,.F.);
#224=EDGE_CURVE('',#275,#270,#42,.T.);
#225=EDGE_CURVE('',#269,#247,#18,.F.);
#226=EDGE_CURVE('',#266,#276,#43,.T.);
#227=EDGE_CURVE('',#242,#267,#19,.T.);
#228=EDGE_CURVE('',#273,#271,#44,.F.);
#229=EDGE_CURVE('',#268,#272,#45,.T.);
#230=EDGE_CURVE('',#240,#271,#46,.T.);
#231=EDGE_CURVE('',#240,#273,#47,.T.);
#232=EDGE_CURVE('',#241,#272,#48,.T.);
#233=EDGE_CURVE('',#241,#268,#49,.T.);
#234=EDGE_CURVE('',#277,#250,#14,.T.);
#235=EDGE_CURVE('',#249,#274,#15,.F.);
#236=EDGE_CURVE('',#275,#248,#50,.T.);
#237=EDGE_CURVE('',#270,#255,#51,.T.);
#238=EDGE_CURVE('',#266,#252,#52,.T.);
#239=EDGE_CURVE('',#276,#251,#53,.T.);
#240=VERTEX_POINT('',#642);
#241=VERTEX_POINT('',#643);
#242=VERTEX_POINT('',#645);
#243=VERTEX_POINT('',#647);
#244=VERTEX_POINT('',#649);
#245=VERTEX_POINT('',#651);
#246=VERTEX_POINT('',#653);
#247=VERTEX_POINT('',#655);
#248=VERTEX_POINT('',#659);
#249=VERTEX_POINT('',#660);
#250=VERTEX_POINT('',#662);
#251=VERTEX_POINT('',#664);
#252=VERTEX_POINT('',#666);
#253=VERTEX_POINT('',#668);
#254=VERTEX_POINT('',#670);
#255=VERTEX_POINT('',#672);
#256=VERTEX_POINT('',#676);
#257=VERTEX_POINT('',#678);
#258=VERTEX_POINT('',#682);
#259=VERTEX_POINT('',#683);
#260=VERTEX_POINT('',#686);
#261=VERTEX_POINT('',#688);
#262=VERTEX_POINT('',#692);
#263=VERTEX_POINT('',#693);
#264=VERTEX_POINT('',#695);
#265=VERTEX_POINT('',#698);
#266=VERTEX_POINT('',#702);
#267=VERTEX_POINT('',#704);
#268=VERTEX_POINT('',#706);
#269=VERTEX_POINT('',#710);
#270=VERTEX_POINT('',#711);
#271=VERTEX_POINT('',#714);
#272=VERTEX_POINT('',#718);
#273=VERTEX_POINT('',#720);
#274=VERTEX_POINT('',#724);
#275=VERTEX_POINT('',#726);
#276=VERTEX_POINT('',#730);
#277=VERTEX_POINT('',#732);
#278=LINE('',#641,#314);
#279=LINE('',#644,#315);
#280=LINE('',#648,#316);
#281=LINE('',#650,#317);
#282=LINE('',#652,#318);
#283=LINE('',#656,#319);
#284=LINE('',#658,#320);
#285=LINE('',#661,#321);
#286=LINE('',#663,#322);
#287=LINE('',#667,#323);
#288=LINE('',#669,#324);
#289=LINE('',#671,#325);
#290=LINE('',#675,#326);
#291=LINE('',#677,#327);
#292=LINE('',#679,#328);
#293=LINE('',#681,#329);
#294=LINE('',#687,#330);
#295=LINE('',#689,#331);
#296=LINE('',#691,#332);
#297=LINE('',#696,#333);
#298=LINE('',#697,#334);
#299=LINE('',#701,#335);
#300=LINE('',#703,#336);
#301=LINE('',#705,#337);
#302=LINE('',#707,#338);
#303=LINE('',#709,#339);
#304=LINE('',#712,#340);
#305=LINE('',#713,#341);
#306=LINE('',#715,#342);
#307=LINE('',#717,#343);
#308=LINE('',#719,#344);
#309=LINE('',#721,#345);
#310=LINE('',#725,#346);
#311=LINE('',#727,#347);
#312=LINE('',#729,#348);
#313=LINE('',#731,#349);
#314=VECTOR('',#505,1.);
#315=VECTOR('',#506,1.);
#316=VECTOR('',#509,1.);
#317=VECTOR('',#510,1.);
#318=VECTOR('',#511,1.);
#319=VECTOR('',#514,1.);
#320=VECTOR('',#517,1.);
#321=VECTOR('',#518,1.);
#322=VECTOR('',#519,1.);
#323=VECTOR('',#522,1.);
#324=VECTOR('',#523,1.);
#325=VECTOR('',#524,1.);
#326=VECTOR('',#529,1.);
#327=VECTOR('',#530,1.);
#328=VECTOR('',#531,1.);
#329=VECTOR('',#534,1.);
#330=VECTOR('',#539,1.);
#331=VECTOR('',#540,1.);
#332=VECTOR('',#543,1.);
#333=VECTOR('',#546,1.);
#334=VECTOR('',#547,1.);
#335=VECTOR('',#552,1.);
#336=VECTOR('',#553,1.);
#337=VECTOR('',#554,1.);
#338=VECTOR('',#555,1.);
#339=VECTOR('',#558,1.);
#340=VECTOR('',#559,1.);
#341=VECTOR('',#560,1.);
#342=VECTOR('',#561,1.);
#343=VECTOR('',#564,1.);
#344=VECTOR('',#565,1.);
#345=VECTOR('',#566,1.);
#346=VECTOR('',#571,1.);
#347=VECTOR('',#572,1.);
#348=VECTOR('',#575,1.);
#349=VECTOR('',#576,1.);
#350=EDGE_LOOP('',(#54,#55,#56,#57,#58,#59,#60,#61));
#351=EDGE_LOOP('',(#62,#63,#64,#65,#66,#67,#68,#69));
#352=EDGE_LOOP('',(#70,#71,#72,#73));
#353=EDGE_LOOP('',(#74,#75,#76,#77,#78,#79));
#354=EDGE_LOOP('',(#80,#81,#82,#83,#84,#85));
#355=EDGE_LOOP('',(#86,#87,#88,#89,#90,#91));
#356=EDGE_LOOP('',(#92,#93,#94,#95,#96,#97));
#357=EDGE_LOOP('',(#98,#99,#100,#101));
#358=EDGE_LOOP('',(#102,#103,#104,#105,#106));
#359=EDGE_LOOP('',(#107,#108,#109,#110,#111));
#360=EDGE_LOOP('',(#112,#113,#114,#115,#116));
#361=EDGE_LOOP('',(#117,#118,#119,#120,#121));
#362=EDGE_LOOP('',(#122,#123,#124,#125));
#363=EDGE_LOOP('',(#126,#127,#128,#129));
#364=EDGE_LOOP('',(#130,#131,#132,#133));
#365=EDGE_LOOP('',(#134,#135,#136));
#366=EDGE_LOOP('',(#137,#138,#139,#140));
#367=EDGE_LOOP('',(#141,#142,#143));
#368=EDGE_LOOP('',(#144,#145,#146,#147));
#369=EDGE_LOOP('',(#148,#149,#150,#151,#152,#153));
#370=EDGE_LOOP('',(#154,#155,#156,#157));
#371=EDGE_LOOP('',(#158,#159,#160,#161));
#372=EDGE_LOOP('',(#162,#163,#164,#165));
#373=EDGE_LOOP('',(#166,#167,#168,#169));
#374=EDGE_LOOP('',(#170,#171,#172,#173));
#375=EDGE_LOOP('',(#174,#175,#176,#177));
#376=FACE_BOUND('',#350,.T.);
#377=FACE_BOUND('',#351,.T.);
#378=FACE_BOUND('',#352,.T.);
#379=FACE_BOUND('',#353,.T.);
#380=FACE_BOUND('',#354,.T.);
#381=FACE_BOUND('',#355,.T.);
#382=FACE_BOUND('',#356,.T.);
#383=FACE_BOUND('',#357,.T.);
#384=FACE_BOUND('',#358,.T.);
#385=FACE_BOUND('',#359,.T.);
#386=FACE_BOUND('',#360,.T.);
#387=FACE_BOUND('',#361,.T.);
#388=FACE_BOUND('',#362,.T.);
#389=FACE_BOUND('',#363,.T.);
#390=FACE_BOUND('',#364,.T.);
#391=FACE_BOUND('',#365,.T.);
#392=FACE_BOUND('',#366,.T.);
#393=FACE_BOUND('',#367,.T.);
#394=FACE_BOUND('',#368,.T.);
#395=FACE_BOUND('',#369,.T.);
#396=FACE_BOUND('',#370,.T.);
#397=FACE_BOUND('',#371,.T.);
#398=FACE_BOUND('',#372,.T.);
#399=FACE_BOUND('',#373,.T.);
#400=FACE_BOUND('',#374,.T.);
#401=FACE_BOUND('',#375,.T.);
#402=PLANE('',#451);
#403=PLANE('',#454);
#404=PLANE('',#457);
#405=PLANE('',#458);
#406=PLANE('',#461);
#407=PLANE('',#464);
#408=PLANE('',#465);
#409=PLANE('',#466);
#410=PLANE('',#467);
#411=PLANE('',#469);
#412=ADVANCED_FACE('',(#376),#402,.F.);
#413=ADVANCED_FACE('',(#377),#403,.F.);
#414=ADVANCED_FACE('',(#378),#404,.T.);
#415=ADVANCED_FACE('',(#379),#405,.F.);
#416=ADVANCED_FACE('',(#380),#406,.T.);
#417=ADVANCED_FACE('',(#381),#407,.F.);
#418=ADVANCED_FACE('',(#382),#408,.T.);
#419=ADVANCED_FACE('',(#383),#409,.T.);
#420=ADVANCED_FACE('',(#384),#410,.F.);
#421=ADVANCED_FACE('',(#385),#411,.T.);
#422=ADVANCED_FACE('',(#386),#20,.T.);
#423=ADVANCED_FACE('',(#387),#21,.T.);
#424=ADVANCED_FACE('',(#388),#22,.T.);
#425=ADVANCED_FACE('',(#389),#23,.T.);
#426=ADVANCED_FACE('',(#390),#24,.T.);
#427=ADVANCED_FACE('',(#391),#16,.T.);
#428=ADVANCED_FACE('',(#392),#25,.T.);
#429=ADVANCED_FACE('',(#393),#17,.T.);
#430=ADVANCED_FACE('',(#394),#26,.T.);
#431=ADVANCED_FACE('',(#395),#27,.T.);
#432=ADVANCED_FACE('',(#396),#28,.T.);
#433=ADVANCED_FACE('',(#397),#12,.T.);
#434=ADVANCED_FACE('',(#398),#29,.T.);
#435=ADVANCED_FACE('',(#399),#30,.T.);
#436=ADVANCED_FACE('',(#400),#13,.T.);
#437=ADVANCED_FACE('',(#401),#31,.T.);
#438=CLOSED_SHELL('',(#412,#413,#414,#415,#416,#417,#418,#419,#420,#421,
#422,#423,#424,#425,#426,#427,#428,#429,#430,#431,#432,#433,#434,#435,#436,
#437));
#439=STYLED_ITEM('',(#440),#447);
#440=PRESENTATION_STYLE_ASSIGNMENT((#441));
#441=SURFACE_STYLE_USAGE(.BOTH.,#442);
#442=SURFACE_SIDE_STYLE('',(#443));
#443=SURFACE_STYLE_FILL_AREA(#444);
#444=FILL_AREA_STYLE('',(#445));
#445=FILL_AREA_STYLE_COLOUR('',#446);
#446=COLOUR_RGB('',0.615686274509804,0.811764705882353,0.929411764705882);
#447=MANIFOLD_SOLID_BREP('Part 1',#438);
#448=SHAPE_DEFINITION_REPRESENTATION(#780,#449);
#449=SHAPE_REPRESENTATION('Part 1',(#450),#775);
#450=AXIS2_PLACEMENT_3D('',#639,#501,#502);
#451=AXIS2_PLACEMENT_3D('',#640,#503,#504);
#452=AXIS2_PLACEMENT_3D('',#646,#507,#508);
#453=AXIS2_PLACEMENT_3D('',#654,#512,#513);
#454=AXIS2_PLACEMENT_3D('',#657,#515,#516);
#455=AXIS2_PLACEMENT_3D('',#665,#520,#521);
#456=AXIS2_PLACEMENT_3D('',#673,#525,#526);
#457=AXIS2_PLACEMENT_3D('',#674,#527,#528);
#458=AXIS2_PLACEMENT_3D('',#680,#532,#533);
#459=AXIS2_PLACEMENT_3D('',#684,#535,#536);
#460=AXIS2_PLACEMENT_3D('',#685,#537,#538);
#461=AXIS2_PLACEMENT_3D('',#690,#541,#542);
#462=AXIS2_PLACEMENT_3D('',#694,#544,#545);
#463=AXIS2_PLACEMENT_3D('',#699,#548,#549);
#464=AXIS2_PLACEMENT_3D('',#700,#550,#551);
#465=AXIS2_PLACEMENT_3D('',#708,#556,#557);
#466=AXIS2_PLACEMENT_3D('',#716,#562,#563);
#467=AXIS2_PLACEMENT_3D('',#722,#567,#568);
#468=AXIS2_PLACEMENT_3D('',#723,#569,#570);
#469=AXIS2_PLACEMENT_3D('',#728,#573,#574);
#470=AXIS2_PLACEMENT_3D('',#733,#577,#578);
#471=AXIS2_PLACEMENT_3D('',#734,#579,#580);
#472=AXIS2_PLACEMENT_3D('',#735,#581,#582);
#473=AXIS2_PLACEMENT_3D('',#736,#583,#584);
#474=AXIS2_PLACEMENT_3D('',#737,#585,#586);
#475=AXIS2_PLACEMENT_3D('',#738,#587,#588);
#476=AXIS2_PLACEMENT_3D('',#739,#589,#590);
#477=AXIS2_PLACEMENT_3D('',#740,#591,#592);
#478=AXIS2_PLACEMENT_3D('',#741,#593,#594);
#479=AXIS2_PLACEMENT_3D('',#742,#595,#596);
#480=AXIS2_PLACEMENT_3D('',#743,#597,#598);
#481=AXIS2_PLACEMENT_3D('',#744,#599,#600);
#482=AXIS2_PLACEMENT_3D('',#745,#601,#602);
#483=AXIS2_PLACEMENT_3D('',#746,#603,#604);
#484=AXIS2_PLACEMENT_3D('',#747,#605,#606);
#485=AXIS2_PLACEMENT_3D('',#748,#607,#608);
#486=AXIS2_PLACEMENT_3D('',#749,#609,#610);
#487=AXIS2_PLACEMENT_3D('',#750,#611,#612);
#488=AXIS2_PLACEMENT_3D('',#751,#613,#614);
#489=AXIS2_PLACEMENT_3D('',#752,#615,#616);
#490=AXIS2_PLACEMENT_3D('',#753,#617,#618);
#491=AXIS2_PLACEMENT_3D('',#764,#619,#620);
#492=AXIS2_PLACEMENT_3D('',#765,#621,#622);
#493=AXIS2_PLACEMENT_3D('',#766,#623,#624);
#494=AXIS2_PLACEMENT_3D('',#767,#625,#626);
#495=AXIS2_PLACEMENT_3D('',#768,#627,#628);
#496=AXIS2_PLACEMENT_3D('',#769,#629,#630);
#497=AXIS2_PLACEMENT_3D('',#770,#631,#632);
#498=AXIS2_PLACEMENT_3D('',#771,#633,#634);
#499=AXIS2_PLACEMENT_3D('',#772,#635,#636);
#500=AXIS2_PLACEMENT_3D('',#773,#637,#638);
#501=DIRECTION('',(0.,0.,1.));
#502=DIRECTION('',(1.,0.,0.));
#503=DIRECTION('',(0.,1.,0.));
#504=DIRECTION('',(0.,0.,1.));
#505=DIRECTION('',(1.,0.,0.));
#506=DIRECTION('',(0.,0.,-1.));
#507=DIRECTION('',(0.,1.,0.));
#508=DIRECTION('',(0.,0.,1.));
#509=DIRECTION('',(0.,0.,-1.));
#510=DIRECTION('',(1.,0.,0.));
#511=DIRECTION('',(0.,0.,-1.));
#512=DIRECTION('',(0.,1.,0.));
#513=DIRECTION('',(0.,0.,1.));
#514=DIRECTION('',(0.,0.,-1.));
#515=DIRECTION('',(0.,1.,0.));
#516=DIRECTION('',(0.,0.,1.));
#517=DIRECTION('',(0.,0.,-1.));
#518=DIRECTION('',(1.,0.,0.));
#519=DIRECTION('',(0.,0.,-1.));
#520=DIRECTION('',(0.,1.,0.));
#521=DIRECTION('',(0.,0.,1.));
#522=DIRECTION('',(0.,0.,-1.));
#523=DIRECTION('',(1.,0.,0.));
#524=DIRECTION('',(0.,0.,-1.));
#525=DIRECTION('',(0.,1.,0.));
#526=DIRECTION('',(0.,0.,1.));
#527=DIRECTION('',(0.,0.,1.));
#528=DIRECTION('',(1.,0.,0.));
#529=DIRECTION('',(0.,-1.,0.));
#530=DIRECTION('',(1.,0.,0.));
#531=DIRECTION('',(3.563279991736E-16,-1.,0.));
#532=DIRECTION('',(0.,0.,1.));
#533=DIRECTION('',(1.,0.,0.));
#534=DIRECTION('',(0.,-1.,0.));
#535=DIRECTION('',(0.,0.,1.));
#536=DIRECTION('',(1.,0.,0.));
#537=DIRECTION('',(0.,0.,1.));
#538=DIRECTION('',(1.,0.,0.));
#539=DIRECTION('',(0.,-1.,0.));
#540=DIRECTION('',(1.,0.,0.));
#541=DIRECTION('',(0.,1.,0.));
#542=DIRECTION('',(0.,0.,1.));
#543=DIRECTION('',(1.,0.,0.));
#544=DIRECTION('',(0.,1.,0.));
#545=DIRECTION('',(0.,0.,1.));
#546=DIRECTION('',(0.,0.,-1.));
#547=DIRECTION('',(0.,0.,-1.));
#548=DIRECTION('',(0.,1.,0.));
#549=DIRECTION('',(0.,0.,1.));
#550=DIRECTION('',(1.,0.,0.));
#551=DIRECTION('',(0.,0.,-1.));
#552=DIRECTION('',(0.,0.,-1.));
#553=DIRECTION('',(0.,-1.,0.));
#554=DIRECTION('',(0.,0.,-1.));
#555=DIRECTION('',(0.,-1.,0.));
#556=DIRECTION('',(1.,0.,0.));
#557=DIRECTION('',(0.,0.,-1.));
#558=DIRECTION('',(0.,-1.,0.));
#559=DIRECTION('',(0.,0.,-1.));
#560=DIRECTION('',(0.,-1.,0.));
#561=DIRECTION('',(0.,0.,-1.));
#562=DIRECTION('',(0.,0.,1.));
#563=DIRECTION('',(1.,0.,0.));
#564=DIRECTION('',(0.,-1.,0.));
#565=DIRECTION('',(1.,0.,0.));
#566=DIRECTION('',(0.,-1.,0.));
#567=DIRECTION('',(1.,3.563279991736E-16,0.));
#568=DIRECTION('',(-3.563279991736E-16,1.,0.));
#569=DIRECTION('',(1.,3.563279991736E-16,0.));
#570=DIRECTION('',(-3.563279991736E-16,1.,0.));
#571=DIRECTION('',(0.,0.,-1.));
#572=DIRECTION('',(3.563279991736E-16,-1.,0.));
#573=DIRECTION('',(1.,0.,0.));
#574=DIRECTION('',(0.,0.,-1.));
#575=DIRECTION('',(0.,-1.,0.));
#576=DIRECTION('',(0.,0.,-1.));
#577=DIRECTION('',(1.,0.,0.));
#578=DIRECTION('',(0.,0.,-1.));
#579=DIRECTION('',(-3.563279991736E-16,1.,0.));
#580=DIRECTION('',(-1.,-3.563279991736E-16,0.));
#581=DIRECTION('',(0.,1.,0.));
#582=DIRECTION('',(0.,0.,1.));
#583=DIRECTION('',(-2.51961944542287E-16,0.707106781186548,0.707106781186548));
#584=DIRECTION('',(2.51961944542287E-16,-0.707106781186548,0.707106781186548));
#585=DIRECTION('',(0.,1.,0.));
#586=DIRECTION('',(0.,0.,1.));
#587=DIRECTION('',(0.,1.,0.));
#588=DIRECTION('',(0.,0.,1.));
#589=DIRECTION('',(0.,-0.707106781186548,-0.707106781186548));
#590=DIRECTION('',(0.,0.707106781186548,-0.707106781186548));
#591=DIRECTION('',(0.,-1.,0.));
#592=DIRECTION('',(0.,0.,-1.));
#593=DIRECTION('',(0.,-1.,0.));
#594=DIRECTION('',(0.,0.,-1.));
#595=DIRECTION('',(0.,1.,0.));
#596=DIRECTION('',(0.,0.,1.));
#597=DIRECTION('',(0.,1.,0.));
#598=DIRECTION('',(0.,0.,1.));
#599=DIRECTION('',(0.,0.,1.));
#600=DIRECTION('',(1.,0.,0.));
#601=DIRECTION('',(0.,0.,1.));
#602=DIRECTION('',(1.,0.,0.));
#603=DIRECTION('',(0.,1.,0.));
#604=DIRECTION('',(0.,0.,1.));
#605=DIRECTION('',(-1.,0.,0.));
#606=DIRECTION('',(0.,0.,1.));
#607=DIRECTION('',(-1.,0.,0.));
#608=DIRECTION('',(0.,0.,1.));
#609=DIRECTION('',(-1.,0.,0.));
#610=DIRECTION('',(0.,0.,1.));
#611=DIRECTION('',(0.,1.,0.));
#612=DIRECTION('',(0.,0.,1.));
#613=DIRECTION('',(0.,0.,-1.));
#614=DIRECTION('',(-1.,0.,0.));
#615=DIRECTION('',(0.,0.,-1.));
#616=DIRECTION('',(-1.,0.,0.));
#617=DIRECTION('',(-1.,0.,0.));
#618=DIRECTION('',(0.,0.,1.));
#619=DIRECTION('',(0.,0.,-1.));
#620=DIRECTION('',(-1.,0.,0.));
#621=DIRECTION('',(0.,0.,1.));
#622=DIRECTION('',(1.,0.,0.));
#623=DIRECTION('',(0.,1.,0.));
#624=DIRECTION('',(0.,0.,1.));
#625=DIRECTION('',(0.,0.,-1.));
#626=DIRECTION('',(-1.,0.,0.));
#627=DIRECTION('',(0.,0.,1.));
#628=DIRECTION('',(1.,0.,0.));
#629=DIRECTION('',(0.,0.,-1.));
#630=DIRECTION('',(-1.,0.,0.));
#631=DIRECTION('',(0.,0.,1.));
#632=DIRECTION('',(1.,0.,0.));
#633=DIRECTION('',(0.,1.,0.));
#634=DIRECTION('',(0.,0.,1.));
#635=DIRECTION('',(0.,0.,-1.));
#636=DIRECTION('',(-1.,0.,0.));
#637=DIRECTION('',(0.,0.,1.));
#638=DIRECTION('',(1.,0.,0.));
#639=CARTESIAN_POINT('',(0.,0.,0.));
#640=CARTESIAN_POINT('',(-0.0298227528375388,0.00572774042925952,0.03048));
#641=CARTESIAN_POINT('',(-0.0298227528375388,0.00572774042925952,0.0254));
#642=CARTESIAN_POINT('',(0.0362172471624613,0.00572774042925952,0.0254));
#643=CARTESIAN_POINT('',(-0.0298227528375388,0.00572774042925952,0.0254));
#644=CARTESIAN_POINT('',(-0.0298227528375388,0.00572774042925952,0.03048));
#645=CARTESIAN_POINT('',(-0.0298227528375388,0.00572774042925952,0.01778));
#646=CARTESIAN_POINT('',(-0.0298227528375388,0.00572774042925952,0.0127));
#647=CARTESIAN_POINT('',(-0.0247427528375387,0.00572774042925952,0.0127));
#648=CARTESIAN_POINT('',(-0.0247427528375387,0.00572774042925952,0.01778));
#649=CARTESIAN_POINT('',(-0.0247427528375387,0.00572774042925952,0.01016));
#650=CARTESIAN_POINT('',(0.00319724716246128,0.00572774042925952,0.01016));
#651=CARTESIAN_POINT('',(0.0311372471624613,0.00572774042925952,0.01016));
#652=CARTESIAN_POINT('',(0.0311372471624613,0.00572774042925952,0.01778));
#653=CARTESIAN_POINT('',(0.0311372471624613,0.00572774042925952,0.0127));
#654=CARTESIAN_POINT('',(0.0362172471624613,0.00572774042925952,0.0127));
#655=CARTESIAN_POINT('',(0.0362172471624613,0.00572774042925952,0.01778));
#656=CARTESIAN_POINT('',(0.0362172471624613,0.00572774042925952,0.0254));
#657=CARTESIAN_POINT('',(0.00319724716246128,-0.0234822595707405,0.01016));
#658=CARTESIAN_POINT('',(0.0336772471624613,-0.0234822595707405,0.01016));
#659=CARTESIAN_POINT('',(0.0336772471624613,-0.0234822595707405,0.0127));
#660=CARTESIAN_POINT('',(0.0336772471624613,-0.0234822595707405,0.00508));
#661=CARTESIAN_POINT('',(-0.0247427528375387,-0.0234822595707405,0.00508));
#662=CARTESIAN_POINT('',(-0.0272827528375388,-0.0234822595707405,0.00508));
#663=CARTESIAN_POINT('',(-0.0272827528375388,-0.0234822595707405,0.0127));
#664=CARTESIAN_POINT('',(-0.0272827528375388,-0.0234822595707405,0.0127));
#665=CARTESIAN_POINT('',(-0.0298227528375388,-0.0234822595707405,0.0127));
#666=CARTESIAN_POINT('',(-0.0323627528375387,-0.0234822595707405,0.0127));
#667=CARTESIAN_POINT('',(-0.0323627528375387,-0.0234822595707405,0.01016));
#668=CARTESIAN_POINT('',(-0.0323627528375387,-0.0234822595707405,0.));
#669=CARTESIAN_POINT('',(0.00319724716246128,-0.0234822595707405,0.));
#670=CARTESIAN_POINT('',(0.0387572471624613,-0.0234822595707405,0.));
#671=CARTESIAN_POINT('',(0.0387572471624613,-0.0234822595707405,0.0127));
#672=CARTESIAN_POINT('',(0.0387572471624613,-0.0234822595707405,0.0127));
#673=CARTESIAN_POINT('',(0.0362172471624613,-0.0234822595707405,0.0127));
#674=CARTESIAN_POINT('',(0.00319724716246128,-0.00443225957074048,0.01016));
#675=CARTESIAN_POINT('',(-0.0247427528375387,-0.00887725957074048,0.01016));
#676=CARTESIAN_POINT('',(-0.0247427528375387,-0.0184022595707405,0.01016));
#677=CARTESIAN_POINT('',(0.0311372471624613,-0.0184022595707405,0.01016));
#678=CARTESIAN_POINT('',(0.0311372471624613,-0.0184022595707405,0.01016));
#679=CARTESIAN_POINT('',(0.0311372471624613,-0.00887725957074048,0.01016));
#680=CARTESIAN_POINT('',(0.00319724716246128,-0.00443225957074048,0.));
#681=CARTESIAN_POINT('',(0.0412972471624613,0.0101727404292595,0.));
#682=CARTESIAN_POINT('',(0.0412972471624613,0.0146177404292595,0.));
#683=CARTESIAN_POINT('',(0.0412972471624613,-0.0209422595707405,0.));
#684=CARTESIAN_POINT('',(0.0387572471624613,-0.0209422595707405,0.));
#685=CARTESIAN_POINT('',(-0.0323627528375387,-0.0209422595707405,0.));
#686=CARTESIAN_POINT('',(-0.0349027528375387,-0.0209422595707405,0.));
#687=CARTESIAN_POINT('',(-0.0349027528375387,0.0101727404292595,0.));
#688=CARTESIAN_POINT('',(-0.0349027528375387,0.0146177404292595,0.));
#689=CARTESIAN_POINT('',(-0.0298227528375388,0.0146177404292595,0.));
#690=CARTESIAN_POINT('',(-0.0298227528375388,0.0146177404292595,0.03048));
#691=CARTESIAN_POINT('',(-0.0298227528375388,0.0146177404292595,0.03048));
#692=CARTESIAN_POINT('',(-0.0298227528375388,0.0146177404292595,0.03048));
#693=CARTESIAN_POINT('',(0.0362172471624613,0.0146177404292595,0.03048));
#694=CARTESIAN_POINT('',(0.0362172471624613,0.0146177404292595,0.0254));
#695=CARTESIAN_POINT('',(0.0412972471624613,0.0146177404292595,0.0254));
#696=CARTESIAN_POINT('',(0.0412972471624613,0.0146177404292595,0.03048));
#697=CARTESIAN_POINT('',(-0.0349027528375387,0.0146177404292595,0.03048));
#698=CARTESIAN_POINT('',(-0.0349027528375387,0.0146177404292595,0.0254));
#699=CARTESIAN_POINT('',(-0.0298227528375388,0.0146177404292595,0.0254));
#700=CARTESIAN_POINT('',(-0.0349027528375387,0.0101727404292595,0.03048));
#701=CARTESIAN_POINT('',(-0.0349027528375387,-0.0209422595707405,0.03048));
#702=CARTESIAN_POINT('',(-0.0349027528375387,-0.0209422595707405,0.0127));
#703=CARTESIAN_POINT('',(-0.0349027528375387,0.00572774042925952,0.0127));
#704=CARTESIAN_POINT('',(-0.0349027528375387,0.0108077404292595,0.0127));
#705=CARTESIAN_POINT('',(-0.0349027528375387,0.0108077404292595,0.03048));
#706=CARTESIAN_POINT('',(-0.0349027528375387,0.0108077404292595,0.0254));
#707=CARTESIAN_POINT('',(-0.0349027528375387,0.0146177404292595,0.0254));
#708=CARTESIAN_POINT('',(0.0412972471624613,0.0101727404292595,0.03048));
#709=CARTESIAN_POINT('',(0.0412972471624613,0.0101727404292595,0.0127));
#710=CARTESIAN_POINT('',(0.0412972471624613,0.0108077404292595,0.0127));
#711=CARTESIAN_POINT('',(0.0412972471624613,-0.0209422595707405,0.0127));
#712=CARTESIAN_POINT('',(0.0412972471624613,-0.0209422595707405,0.));
#713=CARTESIAN_POINT('',(0.0412972471624613,0.0101727404292595,0.0254));
#714=CARTESIAN_POINT('',(0.0412972471624613,0.0108077404292595,0.0254));
#715=CARTESIAN_POINT('',(0.0412972471624613,0.0108077404292595,0.0127));
#716=CARTESIAN_POINT('',(0.00319724716246128,-0.00443225957074048,0.03048));
#717=CARTESIAN_POINT('',(-0.0298227528375388,0.00572774042925952,0.03048));
#718=CARTESIAN_POINT('',(-0.0298227528375388,0.0108077404292595,0.03048));
#719=CARTESIAN_POINT('',(0.0362172471624613,0.0108077404292595,0.03048));
#720=CARTESIAN_POINT('',(0.0362172471624613,0.0108077404292595,0.03048));
#721=CARTESIAN_POINT('',(0.0362172471624613,-0.00443225957074048,0.03048));
#722=CARTESIAN_POINT('',(0.0311372471624613,-0.00887725957074048,0.01778));
#723=CARTESIAN_POINT('',(0.0311372471624613,-0.0184022595707405,0.00508));
#724=CARTESIAN_POINT('',(0.0311372471624613,-0.0209422595707405,0.00947940905122495));
#725=CARTESIAN_POINT('',(0.0311372471624613,-0.0209422595707405,0.01778));
#726=CARTESIAN_POINT('',(0.0311372471624613,-0.0209422595707405,0.0127));
#727=CARTESIAN_POINT('',(0.0311372471624613,0.00572774042925952,0.0127));
#728=CARTESIAN_POINT('',(-0.0247427528375387,-0.00887725957074048,0.01778));
#729=CARTESIAN_POINT('',(-0.0247427528375387,-0.00887725957074048,0.0127));
#730=CARTESIAN_POINT('',(-0.0247427528375387,-0.0209422595707405,0.0127));
#731=CARTESIAN_POINT('',(-0.0247427528375387,-0.0209422595707405,0.00508));
#732=CARTESIAN_POINT('',(-0.0247427528375387,-0.0209422595707405,0.00947940905122495));
#733=CARTESIAN_POINT('',(-0.0247427528375387,-0.0184022595707405,0.00508));
#734=CARTESIAN_POINT('',(0.0362172471624613,-0.00443225957074047,0.0127));
#735=CARTESIAN_POINT('',(0.0362172471624613,-0.0209422595707405,0.0127));
#736=CARTESIAN_POINT('',(0.0362172471624613,0.0108077404292595,0.0127));
#737=CARTESIAN_POINT('',(-0.0298227528375388,-0.00443225957074048,0.0127));
#738=CARTESIAN_POINT('',(-0.0298227528375388,-0.0209422595707405,0.0127));
#739=CARTESIAN_POINT('',(-0.0298227528375388,0.0108077404292595,0.0127));
#740=CARTESIAN_POINT('',(0.0362172471624613,0.0101727404292595,0.0254));
#741=CARTESIAN_POINT('',(0.0362172471624613,0.0108077404292595,0.0254));
#742=CARTESIAN_POINT('',(-0.0298227528375388,-0.00443225957074048,0.0254));
#743=CARTESIAN_POINT('',(-0.0298227528375388,0.0108077404292595,0.0254));
#744=CARTESIAN_POINT('',(0.0362172471624613,0.0108077404292595,0.03048));
#745=CARTESIAN_POINT('',(0.0362172471624613,0.0108077404292595,0.0254));
#746=CARTESIAN_POINT('',(0.0362172471624613,0.0108077404292595,0.0254));
#747=CARTESIAN_POINT('',(0.0362172471624613,0.0108077404292595,0.0254));
#748=CARTESIAN_POINT('',(0.00319724716246128,0.0108077404292595,0.0254));
#749=CARTESIAN_POINT('',(-0.0298227528375388,0.0108077404292595,0.0254));
#750=CARTESIAN_POINT('',(-0.0298227528375388,0.0108077404292595,0.0254));
#751=CARTESIAN_POINT('',(-0.0298227528375388,0.0108077404292595,0.0254));
#752=CARTESIAN_POINT('',(-0.0298227528375388,0.0108077404292595,0.03048));
#753=CARTESIAN_POINT('',(0.00319724716246128,-0.0184022595707405,0.00508));
#754=CARTESIAN_POINT('',(-0.0247427528375387,-0.0209422595707405,0.00947940905122495));
#755=CARTESIAN_POINT('',(-0.0247427528375387,-0.0218194641505507,0.00897295475093716));
#756=CARTESIAN_POINT('',(-0.0255564458608829,-0.0231107779441237,0.00752425740920224));
#757=CARTESIAN_POINT('',(-0.0267105102464002,-0.0234822595707405,0.00588927376437202));
#758=CARTESIAN_POINT('',(-0.0272827528375388,-0.0234822595707405,0.00508));
#759=CARTESIAN_POINT('',(0.0311372471624613,-0.0209422595707405,0.00947940905122495));
#760=CARTESIAN_POINT('',(0.0311372471624613,-0.0218194641505507,0.00897295475093716));
#761=CARTESIAN_POINT('',(0.0319509401858056,-0.0231107779441237,0.0075242574092023));
#762=CARTESIAN_POINT('',(0.0331050045713226,-0.0234822595707405,0.00588927376437191));
#763=CARTESIAN_POINT('',(0.0336772471624613,-0.0234822595707405,0.00508));
#764=CARTESIAN_POINT('',(0.0336772471624613,-0.0209422595707405,0.01016));
#765=CARTESIAN_POINT('',(0.0336772471624613,-0.0209422595707405,0.0127));
#766=CARTESIAN_POINT('',(0.0362172471624613,-0.0209422595707405,0.0127));
#767=CARTESIAN_POINT('',(0.0387572471624613,-0.0209422595707405,0.0127));
#768=CARTESIAN_POINT('',(0.0387572471624613,-0.0209422595707405,0.03048));
#769=CARTESIAN_POINT('',(-0.0323627528375387,-0.0209422595707405,0.01016));
#770=CARTESIAN_POINT('',(-0.0323627528375387,-0.0209422595707405,0.0127));
#771=CARTESIAN_POINT('',(-0.0298227528375388,-0.0209422595707405,0.0127));
#772=CARTESIAN_POINT('',(-0.0272827528375388,-0.0209422595707405,0.0127));
#773=CARTESIAN_POINT('',(-0.0272827528375388,-0.0209422595707405,0.01778));
#774=MECHANICAL_DESIGN_GEOMETRIC_PRESENTATION_REPRESENTATION('',(#439),
#775);
#775=(
GEOMETRIC_REPRESENTATION_CONTEXT(3)
GLOBAL_UNCERTAINTY_ASSIGNED_CONTEXT((#776))
GLOBAL_UNIT_ASSIGNED_CONTEXT((#779,#778,#777))
REPRESENTATION_CONTEXT('Part 1','TOP_LEVEL_ASSEMBLY_PART')
);
#776=UNCERTAINTY_MEASURE_WITH_UNIT(LENGTH_MEASURE(2.E-5),#779,
'DISTANCE_ACCURACY_VALUE','Maximum Tolerance applied to model');
#777=(
NAMED_UNIT(*)
SI_UNIT($,.STERADIAN.)
SOLID_ANGLE_UNIT()
);
#778=(
NAMED_UNIT(*)
PLANE_ANGLE_UNIT()
SI_UNIT($,.RADIAN.)
);
#779=(
LENGTH_UNIT()
NAMED_UNIT(*)
SI_UNIT($,.METRE.)
);
#780=PRODUCT_DEFINITION_SHAPE('','',#781);
#781=PRODUCT_DEFINITION('','',#783,#782);
#782=PRODUCT_DEFINITION_CONTEXT('',#789,'design');
#783=PRODUCT_DEFINITION_FORMATION_WITH_SPECIFIED_SOURCE('','',#785,
 .NOT_KNOWN.);
#784=PRODUCT_RELATED_PRODUCT_CATEGORY('','',(#785));
#785=PRODUCT('Part 1','Part 1','Part 1',(#787));
#786=PRODUCT_CATEGORY('','');
#787=PRODUCT_CONTEXT('',#789,'mechanical');
#788=APPLICATION_PROTOCOL_DEFINITION('international standard',
'ap242_managed_model_based_3d_engineering',2020,#789);
#789=APPLICATION_CONTEXT('managed model based 3d engineering');
ENDSEC;
END-ISO-10303-21;
