ISO-10303-21;
HEADER;
/* Generated by software containing ST-Developer
 * from STEP Tools, Inc. (www.steptools.com) 
 */
/* OPTION: using custom renumber hook */

FILE_DESCRIPTION(
/* description */ ('STEP AP242 Edition 2',
'CAx-IF Rec.Pracs.---Representation and Presentation of Product Manufa
cturing Information (PMI)---4.0---2014-10-13',
'CAx-IF Rec.Pracs.---3D Tessellated Geometry---0.4---2014-09-14','2;1',
'CAx-IF Rec.Pracs.---User Defined Attributes---1.5---2016-08-15'),
/* implementation_level */ '2;1');

FILE_NAME(
/* name */ 'drawer 2',
/* time_stamp */ '2026-09-08T02:26:51Z',
/* author */ (''),
/* organization */ (''),
/* preprocessor_version */ 'ST-DEVELOPER v20',
/* originating_system */ 'ONSHAPE BY PTC INC, 1.220',
/* authorisation */ '  ');

FILE_SCHEMA (('AP242_MANAGED_MODEL_BASED_3D_ENGINEERING_MIM_LF { 1 0 10303 442 3 1 4 }'));
ENDSEC;

DATA;
#10=SHAPE_REPRESENTATION_RELATIONSHIP('','',#377,#11);
#11=ADVANCED_BREP_SHAPE_REPRESENTATION('',(#375),#587);
#12=ORIENTED_EDGE('',*,*,#108,.F.);
#13=ORIENTED_EDGE('',*,*,#109,.T.);
#14=ORIENTED_EDGE('',*,*,#110,.T.);
#15=ORIENTED_EDGE('',*,*,#111,.F.);
#16=ORIENTED_EDGE('',*,*,#112,.F.);
#17=ORIENTED_EDGE('',*,*,#113,.T.);
#18=ORIENTED_EDGE('',*,*,#114,.T.);
#19=ORIENTED_EDGE('',*,*,#115,.F.);
#20=ORIENTED_EDGE('',*,*,#116,.F.);
#21=ORIENTED_EDGE('',*,*,#117,.T.);
#22=ORIENTED_EDGE('',*,*,#118,.T.);
#23=ORIENTED_EDGE('',*,*,#119,.F.);
#24=ORIENTED_EDGE('',*,*,#110,.F.);
#25=ORIENTED_EDGE('',*,*,#120,.T.);
#26=ORIENTED_EDGE('',*,*,#121,.T.);
#27=ORIENTED_EDGE('',*,*,#122,.F.);
#28=ORIENTED_EDGE('',*,*,#123,.F.);
#29=ORIENTED_EDGE('',*,*,#124,.T.);
#30=ORIENTED_EDGE('',*,*,#115,.T.);
#31=ORIENTED_EDGE('',*,*,#125,.F.);
#32=ORIENTED_EDGE('',*,*,#126,.F.);
#33=ORIENTED_EDGE('',*,*,#127,.F.);
#34=ORIENTED_EDGE('',*,*,#116,.T.);
#35=ORIENTED_EDGE('',*,*,#128,.T.);
#36=ORIENTED_EDGE('',*,*,#129,.F.);
#37=ORIENTED_EDGE('',*,*,#130,.T.);
#38=ORIENTED_EDGE('',*,*,#131,.T.);
#39=ORIENTED_EDGE('',*,*,#132,.F.);
#40=ORIENTED_EDGE('',*,*,#133,.T.);
#41=ORIENTED_EDGE('',*,*,#134,.F.);
#42=ORIENTED_EDGE('',*,*,#117,.F.);
#43=ORIENTED_EDGE('',*,*,#127,.T.);
#44=ORIENTED_EDGE('',*,*,#135,.T.);
#45=ORIENTED_EDGE('',*,*,#136,.F.);
#46=ORIENTED_EDGE('',*,*,#118,.F.);
#47=ORIENTED_EDGE('',*,*,#134,.T.);
#48=ORIENTED_EDGE('',*,*,#137,.F.);
#49=ORIENTED_EDGE('',*,*,#128,.F.);
#50=ORIENTED_EDGE('',*,*,#119,.T.);
#51=ORIENTED_EDGE('',*,*,#136,.T.);
#52=ORIENTED_EDGE('',*,*,#126,.T.);
#53=ORIENTED_EDGE('',*,*,#137,.T.);
#54=ORIENTED_EDGE('',*,*,#135,.F.);
#55=ORIENTED_EDGE('',*,*,#133,.F.);
#56=ORIENTED_EDGE('',*,*,#130,.F.);
#57=ORIENTED_EDGE('',*,*,#138,.F.);
#58=ORIENTED_EDGE('',*,*,#139,.T.);
#59=ORIENTED_EDGE('',*,*,#140,.T.);
#60=ORIENTED_EDGE('',*,*,#129,.T.);
#61=ORIENTED_EDGE('',*,*,#141,.F.);
#62=ORIENTED_EDGE('',*,*,#142,.F.);
#63=ORIENTED_EDGE('',*,*,#138,.T.);
#64=ORIENTED_EDGE('',*,*,#132,.T.);
#65=ORIENTED_EDGE('',*,*,#143,.F.);
#66=ORIENTED_EDGE('',*,*,#144,.F.);
#67=ORIENTED_EDGE('',*,*,#141,.T.);
#68=ORIENTED_EDGE('',*,*,#131,.F.);
#69=ORIENTED_EDGE('',*,*,#140,.F.);
#70=ORIENTED_EDGE('',*,*,#145,.T.);
#71=ORIENTED_EDGE('',*,*,#143,.T.);
#72=ORIENTED_EDGE('',*,*,#139,.F.);
#73=ORIENTED_EDGE('',*,*,#142,.T.);
#74=ORIENTED_EDGE('',*,*,#144,.T.);
#75=ORIENTED_EDGE('',*,*,#145,.F.);
#76=ORIENTED_EDGE('',*,*,#121,.F.);
#77=ORIENTED_EDGE('',*,*,#146,.F.);
#78=ORIENTED_EDGE('',*,*,#147,.T.);
#79=ORIENTED_EDGE('',*,*,#148,.T.);
#80=ORIENTED_EDGE('',*,*,#124,.F.);
#81=ORIENTED_EDGE('',*,*,#149,.F.);
#82=ORIENTED_EDGE('',*,*,#150,.T.);
#83=ORIENTED_EDGE('',*,*,#146,.T.);
#84=ORIENTED_EDGE('',*,*,#120,.F.);
#85=ORIENTED_EDGE('',*,*,#109,.F.);
#86=ORIENTED_EDGE('',*,*,#151,.F.);
#87=ORIENTED_EDGE('',*,*,#112,.T.);
#88=ORIENTED_EDGE('',*,*,#123,.T.);
#89=ORIENTED_EDGE('',*,*,#152,.F.);
#90=ORIENTED_EDGE('',*,*,#153,.F.);
#91=ORIENTED_EDGE('',*,*,#149,.T.);
#92=ORIENTED_EDGE('',*,*,#125,.T.);
#93=ORIENTED_EDGE('',*,*,#114,.F.);
#94=ORIENTED_EDGE('',*,*,#154,.T.);
#95=ORIENTED_EDGE('',*,*,#111,.T.);
#96=ORIENTED_EDGE('',*,*,#122,.T.);
#97=ORIENTED_EDGE('',*,*,#148,.F.);
#98=ORIENTED_EDGE('',*,*,#155,.F.);
#99=ORIENTED_EDGE('',*,*,#152,.T.);
#100=ORIENTED_EDGE('',*,*,#150,.F.);
#101=ORIENTED_EDGE('',*,*,#153,.T.);
#102=ORIENTED_EDGE('',*,*,#155,.T.);
#103=ORIENTED_EDGE('',*,*,#147,.F.);
#104=ORIENTED_EDGE('',*,*,#151,.T.);
#105=ORIENTED_EDGE('',*,*,#108,.T.);
#106=ORIENTED_EDGE('',*,*,#154,.F.);
#107=ORIENTED_EDGE('',*,*,#113,.F.);
#108=EDGE_CURVE('',#156,#157,#188,.T.);
#109=EDGE_CURVE('',#156,#158,#189,.T.);
#110=EDGE_CURVE('',#158,#159,#190,.T.);
#111=EDGE_CURVE('',#157,#159,#191,.T.);
#112=EDGE_CURVE('',#160,#161,#192,.T.);
#113=EDGE_CURVE('',#160,#162,#193,.T.);
#114=EDGE_CURVE('',#162,#163,#194,.T.);
#115=EDGE_CURVE('',#161,#163,#195,.T.);
#116=EDGE_CURVE('',#164,#165,#196,.T.);
#117=EDGE_CURVE('',#164,#166,#197,.T.);
#118=EDGE_CURVE('',#166,#167,#198,.T.);
#119=EDGE_CURVE('',#165,#167,#199,.T.);
#120=EDGE_CURVE('',#158,#168,#200,.T.);
#121=EDGE_CURVE('',#168,#169,#201,.T.);
#122=EDGE_CURVE('',#159,#169,#202,.T.);
#123=EDGE_CURVE('',#170,#171,#203,.T.);
#124=EDGE_CURVE('',#170,#161,#204,.T.);
#125=EDGE_CURVE('',#171,#163,#205,.T.);
#126=EDGE_CURVE('',#172,#173,#206,.T.);
#127=EDGE_CURVE('',#164,#172,#207,.T.);
#128=EDGE_CURVE('',#165,#173,#208,.T.);
#129=EDGE_CURVE('',#174,#175,#209,.T.);
#130=EDGE_CURVE('',#174,#176,#210,.T.);
#131=EDGE_CURVE('',#176,#177,#211,.T.);
#132=EDGE_CURVE('',#175,#177,#212,.T.);
#133=EDGE_CURVE('',#172,#178,#213,.T.);
#134=EDGE_CURVE('',#166,#178,#214,.T.);
#135=EDGE_CURVE('',#178,#179,#215,.T.);
#136=EDGE_CURVE('',#167,#179,#216,.T.);
#137=EDGE_CURVE('',#173,#179,#217,.T.);
#138=EDGE_CURVE('',#180,#174,#218,.T.);
#139=EDGE_CURVE('',#180,#181,#219,.T.);
#140=EDGE_CURVE('',#181,#176,#220,.T.);
#141=EDGE_CURVE('',#182,#175,#221,.T.);
#142=EDGE_CURVE('',#180,#182,#222,.T.);
#143=EDGE_CURVE('',#183,#177,#223,.T.);
#144=EDGE_CURVE('',#182,#183,#224,.T.);
#145=EDGE_CURVE('',#181,#183,#225,.T.);
#146=EDGE_CURVE('',#184,#168,#226,.T.);
#147=EDGE_CURVE('',#184,#185,#227,.T.);
#148=EDGE_CURVE('',#185,#169,#228,.T.);
#149=EDGE_CURVE('',#186,#170,#229,.T.);
#150=EDGE_CURVE('',#186,#184,#230,.T.);
#151=EDGE_CURVE('',#160,#156,#231,.T.);
#152=EDGE_CURVE('',#187,#171,#232,.T.);
#153=EDGE_CURVE('',#186,#187,#233,.T.);
#154=EDGE_CURVE('',#162,#157,#234,.T.);
#155=EDGE_CURVE('',#187,#185,#235,.T.);
#156=VERTEX_POINT('',#489);
#157=VERTEX_POINT('',#490);
#158=VERTEX_POINT('',#492);
#159=VERTEX_POINT('',#494);
#160=VERTEX_POINT('',#498);
#161=VERTEX_POINT('',#499);
#162=VERTEX_POINT('',#501);
#163=VERTEX_POINT('',#503);
#164=VERTEX_POINT('',#507);
#165=VERTEX_POINT('',#508);
#166=VERTEX_POINT('',#510);
#167=VERTEX_POINT('',#512);
#168=VERTEX_POINT('',#515);
#169=VERTEX_POINT('',#517);
#170=VERTEX_POINT('',#520);
#171=VERTEX_POINT('',#521);
#172=VERTEX_POINT('',#526);
#173=VERTEX_POINT('',#527);
#174=VERTEX_POINT('',#531);
#175=VERTEX_POINT('',#532);
#176=VERTEX_POINT('',#534);
#177=VERTEX_POINT('',#536);
#178=VERTEX_POINT('',#540);
#179=VERTEX_POINT('',#544);
#180=VERTEX_POINT('',#551);
#181=VERTEX_POINT('',#553);
#182=VERTEX_POINT('',#557);
#183=VERTEX_POINT('',#561);
#184=VERTEX_POINT('',#568);
#185=VERTEX_POINT('',#570);
#186=VERTEX_POINT('',#574);
#187=VERTEX_POINT('',#579);
#188=LINE('',#488,#236);
#189=LINE('',#491,#237);
#190=LINE('',#493,#238);
#191=LINE('',#495,#239);
#192=LINE('',#497,#240);
#193=LINE('',#500,#241);
#194=LINE('',#502,#242);
#195=LINE('',#504,#243);
#196=LINE('',#506,#244);
#197=LINE('',#509,#245);
#198=LINE('',#511,#246);
#199=LINE('',#513,#247);
#200=LINE('',#514,#248);
#201=LINE('',#516,#249);
#202=LINE('',#518,#250);
#203=LINE('',#519,#251);
#204=LINE('',#522,#252);
#205=LINE('',#523,#253);
#206=LINE('',#525,#254);
#207=LINE('',#528,#255);
#208=LINE('',#529,#256);
#209=LINE('',#530,#257);
#210=LINE('',#533,#258);
#211=LINE('',#535,#259);
#212=LINE('',#537,#260);
#213=LINE('',#539,#261);
#214=LINE('',#541,#262);
#215=LINE('',#543,#263);
#216=LINE('',#545,#264);
#217=LINE('',#547,#265);
#218=LINE('',#550,#266);
#219=LINE('',#552,#267);
#220=LINE('',#554,#268);
#221=LINE('',#556,#269);
#222=LINE('',#558,#270);
#223=LINE('',#560,#271);
#224=LINE('',#562,#272);
#225=LINE('',#564,#273);
#226=LINE('',#567,#274);
#227=LINE('',#569,#275);
#228=LINE('',#571,#276);
#229=LINE('',#573,#277);
#230=LINE('',#575,#278);
#231=LINE('',#576,#279);
#232=LINE('',#578,#280);
#233=LINE('',#580,#281);
#234=LINE('',#582,#282);
#235=LINE('',#583,#283);
#236=VECTOR('',#402,1.);
#237=VECTOR('',#403,1.);
#238=VECTOR('',#404,1.);
#239=VECTOR('',#405,1.);
#240=VECTOR('',#408,1.);
#241=VECTOR('',#409,1.);
#242=VECTOR('',#410,1.);
#243=VECTOR('',#411,1.);
#244=VECTOR('',#414,1.);
#245=VECTOR('',#415,1.);
#246=VECTOR('',#416,1.);
#247=VECTOR('',#417,1.);
#248=VECTOR('',#418,1.);
#249=VECTOR('',#419,1.);
#250=VECTOR('',#420,1.);
#251=VECTOR('',#421,1.);
#252=VECTOR('',#422,1.);
#253=VECTOR('',#423,1.);
#254=VECTOR('',#426,1.);
#255=VECTOR('',#427,1.);
#256=VECTOR('',#428,1.);
#257=VECTOR('',#429,1.);
#258=VECTOR('',#430,1.);
#259=VECTOR('',#431,1.);
#260=VECTOR('',#432,1.);
#261=VECTOR('',#435,1.);
#262=VECTOR('',#436,1.);
#263=VECTOR('',#439,1.);
#264=VECTOR('',#440,1.);
#265=VECTOR('',#443,1.);
#266=VECTOR('',#448,1.);
#267=VECTOR('',#449,1.);
#268=VECTOR('',#450,1.);
#269=VECTOR('',#453,1.);
#270=VECTOR('',#454,1.);
#271=VECTOR('',#457,1.);
#272=VECTOR('',#458,1.);
#273=VECTOR('',#461,1.);
#274=VECTOR('',#466,1.);
#275=VECTOR('',#467,1.);
#276=VECTOR('',#468,1.);
#277=VECTOR('',#471,1.);
#278=VECTOR('',#472,1.);
#279=VECTOR('',#473,1.);
#280=VECTOR('',#476,1.);
#281=VECTOR('',#477,1.);
#282=VECTOR('',#480,1.);
#283=VECTOR('',#481,1.);
#284=EDGE_LOOP('',(#12,#13,#14,#15));
#285=EDGE_LOOP('',(#16,#17,#18,#19));
#286=EDGE_LOOP('',(#20,#21,#22,#23));
#287=EDGE_LOOP('',(#24,#25,#26,#27));
#288=EDGE_LOOP('',(#28,#29,#30,#31));
#289=EDGE_LOOP('',(#32,#33,#34,#35));
#290=EDGE_LOOP('',(#36,#37,#38,#39));
#291=EDGE_LOOP('',(#40,#41,#42,#43));
#292=EDGE_LOOP('',(#44,#45,#46,#47));
#293=EDGE_LOOP('',(#48,#49,#50,#51));
#294=EDGE_LOOP('',(#52,#53,#54,#55));
#295=EDGE_LOOP('',(#56,#57,#58,#59));
#296=EDGE_LOOP('',(#60,#61,#62,#63));
#297=EDGE_LOOP('',(#64,#65,#66,#67));
#298=EDGE_LOOP('',(#68,#69,#70,#71));
#299=EDGE_LOOP('',(#72,#73,#74,#75));
#300=EDGE_LOOP('',(#76,#77,#78,#79));
#301=EDGE_LOOP('',(#80,#81,#82,#83,#84,#85,#86,#87));
#302=EDGE_LOOP('',(#88,#89,#90,#91));
#303=EDGE_LOOP('',(#92,#93,#94,#95,#96,#97,#98,#99));
#304=EDGE_LOOP('',(#100,#101,#102,#103));
#305=EDGE_LOOP('',(#104,#105,#106,#107));
#306=FACE_BOUND('',#284,.T.);
#307=FACE_BOUND('',#285,.T.);
#308=FACE_BOUND('',#286,.T.);
#309=FACE_BOUND('',#287,.T.);
#310=FACE_BOUND('',#288,.T.);
#311=FACE_BOUND('',#289,.T.);
#312=FACE_BOUND('',#290,.T.);
#313=FACE_BOUND('',#291,.T.);
#314=FACE_BOUND('',#292,.T.);
#315=FACE_BOUND('',#293,.T.);
#316=FACE_BOUND('',#294,.T.);
#317=FACE_BOUND('',#295,.T.);
#318=FACE_BOUND('',#296,.T.);
#319=FACE_BOUND('',#297,.T.);
#320=FACE_BOUND('',#298,.T.);
#321=FACE_BOUND('',#299,.T.);
#322=FACE_BOUND('',#300,.T.);
#323=FACE_BOUND('',#301,.T.);
#324=FACE_BOUND('',#302,.T.);
#325=FACE_BOUND('',#303,.T.);
#326=FACE_BOUND('',#304,.T.);
#327=FACE_BOUND('',#305,.T.);
#328=PLANE('',#379);
#329=PLANE('',#380);
#330=PLANE('',#381);
#331=PLANE('',#382);
#332=PLANE('',#383);
#333=PLANE('',#384);
#334=PLANE('',#385);
#335=PLANE('',#386);
#336=PLANE('',#387);
#337=PLANE('',#388);
#338=PLANE('',#389);
#339=PLANE('',#390);
#340=PLANE('',#391);
#341=PLANE('',#392);
#342=PLANE('',#393);
#343=PLANE('',#394);
#344=PLANE('',#395);
#345=PLANE('',#396);
#346=PLANE('',#397);
#347=ADVANCED_FACE('',(#306),#328,.F.);
#348=ADVANCED_FACE('',(#307),#329,.T.);
#349=ADVANCED_FACE('',(#308,#309,#310),#330,.T.);
#350=ADVANCED_FACE('',(#311,#312),#331,.T.);
#351=ADVANCED_FACE('',(#313),#332,.F.);
#352=ADVANCED_FACE('',(#314),#333,.F.);
#353=ADVANCED_FACE('',(#315),#334,.T.);
#354=ADVANCED_FACE('',(#316),#335,.F.);
#355=ADVANCED_FACE('',(#317),#336,.T.);
#356=ADVANCED_FACE('',(#318),#337,.F.);
#357=ADVANCED_FACE('',(#319),#338,.F.);
#358=ADVANCED_FACE('',(#320),#339,.T.);
#359=ADVANCED_FACE('',(#321),#340,.T.);
#360=ADVANCED_FACE('',(#322),#341,.T.);
#361=ADVANCED_FACE('',(#323),#342,.T.);
#362=ADVANCED_FACE('',(#324),#343,.F.);
#363=ADVANCED_FACE('',(#325),#344,.F.);
#364=ADVANCED_FACE('',(#326),#345,.T.);
#365=ADVANCED_FACE('',(#327),#346,.F.);
#366=CLOSED_SHELL('',(#347,#348,#349,#350,#351,#352,#353,#354,#355,#356,
#357,#358,#359,#360,#361,#362,#363,#364,#365));
#367=STYLED_ITEM('',(#368),#375);
#368=PRESENTATION_STYLE_ASSIGNMENT((#369));
#369=SURFACE_STYLE_USAGE(.BOTH.,#370);
#370=SURFACE_SIDE_STYLE('',(#371));
#371=SURFACE_STYLE_FILL_AREA(#372);
#372=FILL_AREA_STYLE('',(#373));
#373=FILL_AREA_STYLE_COLOUR('',#374);
#374=COLOUR_RGB('',0.615686274509804,0.811764705882353,0.929411764705882);
#375=MANIFOLD_SOLID_BREP('Part 1',#366);
#376=SHAPE_DEFINITION_REPRESENTATION(#592,#377);
#377=SHAPE_REPRESENTATION('Part 1',(#378),#587);
#378=AXIS2_PLACEMENT_3D('',#486,#398,#399);
#379=AXIS2_PLACEMENT_3D('',#487,#400,#401);
#380=AXIS2_PLACEMENT_3D('',#496,#406,#407);
#381=AXIS2_PLACEMENT_3D('',#505,#412,#413);
#382=AXIS2_PLACEMENT_3D('',#524,#424,#425);
#383=AXIS2_PLACEMENT_3D('',#538,#433,#434);
#384=AXIS2_PLACEMENT_3D('',#542,#437,#438);
#385=AXIS2_PLACEMENT_3D('',#546,#441,#442);
#386=AXIS2_PLACEMENT_3D('',#548,#444,#445);
#387=AXIS2_PLACEMENT_3D('',#549,#446,#447);
#388=AXIS2_PLACEMENT_3D('',#555,#451,#452);
#389=AXIS2_PLACEMENT_3D('',#559,#455,#456);
#390=AXIS2_PLACEMENT_3D('',#563,#459,#460);
#391=AXIS2_PLACEMENT_3D('',#565,#462,#463);
#392=AXIS2_PLACEMENT_3D('',#566,#464,#465);
#393=AXIS2_PLACEMENT_3D('',#572,#469,#470);
#394=AXIS2_PLACEMENT_3D('',#577,#474,#475);
#395=AXIS2_PLACEMENT_3D('',#581,#478,#479);
#396=AXIS2_PLACEMENT_3D('',#584,#482,#483);
#397=AXIS2_PLACEMENT_3D('',#585,#484,#485);
#398=DIRECTION('',(0.,0.,1.));
#399=DIRECTION('',(1.,0.,0.));
#400=DIRECTION('',(1.,0.,0.));
#401=DIRECTION('',(0.,0.,-1.));
#402=DIRECTION('',(0.,0.,-1.));
#403=DIRECTION('',(0.,1.,0.));
#404=DIRECTION('',(0.,0.,-1.));
#405=DIRECTION('',(0.,1.,0.));
#406=DIRECTION('',(1.,0.,0.));
#407=DIRECTION('',(0.,0.,-1.));
#408=DIRECTION('',(0.,1.,0.));
#409=DIRECTION('',(0.,0.,-1.));
#410=DIRECTION('',(0.,1.,0.));
#411=DIRECTION('',(0.,0.,-1.));
#412=DIRECTION('',(0.,-1.,0.));
#413=DIRECTION('',(1.,0.,0.));
#414=DIRECTION('',(1.,0.,0.));
#415=DIRECTION('',(0.,0.,-1.));
#416=DIRECTION('',(1.,0.,0.));
#417=DIRECTION('',(0.,0.,-1.));
#418=DIRECTION('',(1.,0.,0.));
#419=DIRECTION('',(0.,0.,-1.));
#420=DIRECTION('',(1.,0.,0.));
#421=DIRECTION('',(0.,0.,-1.));
#422=DIRECTION('',(1.,0.,0.));
#423=DIRECTION('',(1.,0.,0.));
#424=DIRECTION('',(0.,0.,1.));
#425=DIRECTION('',(1.,0.,0.));
#426=DIRECTION('',(1.,0.,0.));
#427=DIRECTION('',(0.,1.,0.));
#428=DIRECTION('',(0.,1.,0.));
#429=DIRECTION('',(0.,-1.,0.));
#430=DIRECTION('',(1.,3.04893749292887E-16,0.));
#431=DIRECTION('',(0.,-1.,0.));
#432=DIRECTION('',(1.,3.90263999094894E-16,0.));
#433=DIRECTION('',(1.,0.,0.));
#434=DIRECTION('',(0.,0.,-1.));
#435=DIRECTION('',(0.,0.,-1.));
#436=DIRECTION('',(0.,1.,0.));
#437=DIRECTION('',(0.,0.,1.));
#438=DIRECTION('',(1.,0.,0.));
#439=DIRECTION('',(1.,0.,0.));
#440=DIRECTION('',(0.,1.,0.));
#441=DIRECTION('',(1.,0.,0.));
#442=DIRECTION('',(0.,0.,-1.));
#443=DIRECTION('',(0.,0.,-1.));
#444=DIRECTION('',(0.,-1.,0.));
#445=DIRECTION('',(1.,0.,0.));
#446=DIRECTION('',(3.04893749292887E-16,-1.,0.));
#447=DIRECTION('',(1.,3.04893749292887E-16,0.));
#448=DIRECTION('',(0.,0.,1.));
#449=DIRECTION('',(1.,3.04893749292887E-16,0.));
#450=DIRECTION('',(0.,0.,1.));
#451=DIRECTION('',(-1.,0.,0.));
#452=DIRECTION('',(0.,0.,1.));
#453=DIRECTION('',(0.,0.,1.));
#454=DIRECTION('',(0.,-1.,0.));
#455=DIRECTION('',(3.90263999094894E-16,-1.,0.));
#456=DIRECTION('',(1.,3.90263999094894E-16,0.));
#457=DIRECTION('',(0.,0.,1.));
#458=DIRECTION('',(1.,3.90263999094894E-16,0.));
#459=DIRECTION('',(-1.,0.,0.));
#460=DIRECTION('',(0.,0.,1.));
#461=DIRECTION('',(0.,-1.,0.));
#462=DIRECTION('',(0.,0.,1.));
#463=DIRECTION('',(1.,0.,0.));
#464=DIRECTION('',(1.,0.,0.));
#465=DIRECTION('',(0.,0.,-1.));
#466=DIRECTION('',(0.,1.,0.));
#467=DIRECTION('',(0.,0.,-1.));
#468=DIRECTION('',(0.,1.,0.));
#469=DIRECTION('',(0.,0.,1.));
#470=DIRECTION('',(1.,0.,0.));
#471=DIRECTION('',(0.,1.,0.));
#472=DIRECTION('',(1.,0.,0.));
#473=DIRECTION('',(1.,0.,0.));
#474=DIRECTION('',(1.,0.,0.));
#475=DIRECTION('',(0.,0.,-1.));
#476=DIRECTION('',(0.,1.,0.));
#477=DIRECTION('',(0.,0.,-1.));
#478=DIRECTION('',(0.,0.,1.));
#479=DIRECTION('',(1.,0.,0.));
#480=DIRECTION('',(1.,0.,0.));
#481=DIRECTION('',(1.,0.,0.));
#482=DIRECTION('',(0.,-1.,0.));
#483=DIRECTION('',(1.,0.,0.));
#484=DIRECTION('',(0.,-1.,0.));
#485=DIRECTION('',(1.,0.,0.));
#486=CARTESIAN_POINT('',(0.,0.,0.));
#487=CARTESIAN_POINT('',(-0.0359726520990684,-0.026035,0.0189034100621938));
#488=CARTESIAN_POINT('',(-0.0359726520990684,-0.026035,0.0189034100621938));
#489=CARTESIAN_POINT('',(-0.0359726520990684,-0.026035,0.0195384100621938));
#490=CARTESIAN_POINT('',(-0.0359726520990684,-0.026035,0.0182684100621938));
#491=CARTESIAN_POINT('',(-0.0359726520990684,-0.026035,0.0195384100621938));
#492=CARTESIAN_POINT('',(-0.0359726520990684,-0.0254,0.0195384100621938));
#493=CARTESIAN_POINT('',(-0.0359726520990684,-0.0254,0.0189034100621938));
#494=CARTESIAN_POINT('',(-0.0359726520990684,-0.0254,0.0182684100621938));
#495=CARTESIAN_POINT('',(-0.0359726520990684,-0.026035,0.0182684100621938));
#496=CARTESIAN_POINT('',(-0.0392746520990684,-0.026035,0.0189034100621938));
#497=CARTESIAN_POINT('',(-0.0392746520990684,-0.026035,0.0195384100621938));
#498=CARTESIAN_POINT('',(-0.0392746520990684,-0.026035,0.0195384100621938));
#499=CARTESIAN_POINT('',(-0.0392746520990684,-0.0254,0.0195384100621938));
#500=CARTESIAN_POINT('',(-0.0392746520990684,-0.026035,0.0189034100621938));
#501=CARTESIAN_POINT('',(-0.0392746520990684,-0.026035,0.0182684100621938));
#502=CARTESIAN_POINT('',(-0.0392746520990684,-0.026035,0.0182684100621938));
#503=CARTESIAN_POINT('',(-0.0392746520990684,-0.0254,0.0182684100621938));
#504=CARTESIAN_POINT('',(-0.0392746520990684,-0.0254,0.0189034100621938));
#505=CARTESIAN_POINT('',(-0.0376236520990684,-0.0254,0.0190644916146993));
#506=CARTESIAN_POINT('',(-0.0376236520990684,-0.0254,0.0266844916146993));
#507=CARTESIAN_POINT('',(-0.0477836520990684,-0.0254,0.0266844916146993));
#508=CARTESIAN_POINT('',(-0.0274636520990684,-0.0254,0.0266844916146993));
#509=CARTESIAN_POINT('',(-0.0477836520990684,-0.0254,0.0190644916146993));
#510=CARTESIAN_POINT('',(-0.0477836520990684,-0.0254,0.0114444916146994));
#511=CARTESIAN_POINT('',(-0.0376236520990684,-0.0254,0.0114444916146994));
#512=CARTESIAN_POINT('',(-0.0274636520990684,-0.0254,0.0114444916146994));
#513=CARTESIAN_POINT('',(-0.0274636520990684,-0.0254,0.0190644916146993));
#514=CARTESIAN_POINT('',(-0.0355281520990684,-0.0254,0.0195384100621938));
#515=CARTESIAN_POINT('',(-0.0350836520990684,-0.0254,0.0195384100621938));
#516=CARTESIAN_POINT('',(-0.0350836520990684,-0.0254,0.0189034100621938));
#517=CARTESIAN_POINT('',(-0.0350836520990684,-0.0254,0.0182684100621938));
#518=CARTESIAN_POINT('',(-0.0355281520990684,-0.0254,0.0182684100621938));
#519=CARTESIAN_POINT('',(-0.0401636520990684,-0.0254,0.0189034100621938));
#520=CARTESIAN_POINT('',(-0.0401636520990684,-0.0254,0.0195384100621938));
#521=CARTESIAN_POINT('',(-0.0401636520990684,-0.0254,0.0182684100621938));
#522=CARTESIAN_POINT('',(-0.0397191520990684,-0.0254,0.0195384100621938));
#523=CARTESIAN_POINT('',(-0.0397191520990684,-0.0254,0.0182684100621938));
#524=CARTESIAN_POINT('',(-0.0376236520990684,-0.0254,0.0266844916146993));
#525=CARTESIAN_POINT('',(-0.0376236520990684,0.,0.0266844916146993));
#526=CARTESIAN_POINT('',(-0.0477836520990684,0.,0.0266844916146993));
#527=CARTESIAN_POINT('',(-0.0274636520990684,0.,0.0266844916146993));
#528=CARTESIAN_POINT('',(-0.0477836520990684,-0.0254,0.0266844916146993));
#529=CARTESIAN_POINT('',(-0.0274636520990684,-0.0254,0.0266844916146993));
#530=CARTESIAN_POINT('',(-0.0465136520990684,-0.0127,0.0266844916146993));
#531=CARTESIAN_POINT('',(-0.0465136520990684,-0.00127,0.0266844916146993));
#532=CARTESIAN_POINT('',(-0.0465136520990684,-0.02413,0.0266844916146993));
#533=CARTESIAN_POINT('',(-0.0376236520990684,-0.00127,0.0266844916146993));
#534=CARTESIAN_POINT('',(-0.0287336520990683,-0.00127,0.0266844916146993));
#535=CARTESIAN_POINT('',(-0.0287336520990683,-0.0127,0.0266844916146993));
#536=CARTESIAN_POINT('',(-0.0287336520990683,-0.02413,0.0266844916146993));
#537=CARTESIAN_POINT('',(-0.0376236520990684,-0.02413,0.0266844916146993));
#538=CARTESIAN_POINT('',(-0.0477836520990684,-0.0254,0.0190644916146993));
#539=CARTESIAN_POINT('',(-0.0477836520990684,0.,0.0190644916146993));
#540=CARTESIAN_POINT('',(-0.0477836520990684,0.,0.0114444916146994));
#541=CARTESIAN_POINT('',(-0.0477836520990684,-0.0254,0.0114444916146994));
#542=CARTESIAN_POINT('',(-0.0376236520990684,-0.0254,0.0114444916146994));
#543=CARTESIAN_POINT('',(-0.0376236520990684,0.,0.0114444916146994));
#544=CARTESIAN_POINT('',(-0.0274636520990684,0.,0.0114444916146994));
#545=CARTESIAN_POINT('',(-0.0274636520990684,-0.0254,0.0114444916146994));
#546=CARTESIAN_POINT('',(-0.0274636520990684,-0.0254,0.0190644916146993));
#547=CARTESIAN_POINT('',(-0.0274636520990684,0.,0.0190644916146993));
#548=CARTESIAN_POINT('',(-0.0376236520990684,0.,0.0190644916146993));
#549=CARTESIAN_POINT('',(-0.0376236520990684,-0.00127,0.0119524916146994));
#550=CARTESIAN_POINT('',(-0.0465136520990684,-0.00127,0.0119524916146994));
#551=CARTESIAN_POINT('',(-0.0465136520990684,-0.00127,0.0119524916146994));
#552=CARTESIAN_POINT('',(-0.0376236520990684,-0.00127,0.0119524916146994));
#553=CARTESIAN_POINT('',(-0.0287336520990683,-0.00127,0.0119524916146994));
#554=CARTESIAN_POINT('',(-0.0287336520990683,-0.00127,0.0119524916146994));
#555=CARTESIAN_POINT('',(-0.0465136520990684,-0.0127,0.0119524916146994));
#556=CARTESIAN_POINT('',(-0.0465136520990684,-0.02413,0.0119524916146994));
#557=CARTESIAN_POINT('',(-0.0465136520990684,-0.02413,0.0119524916146994));
#558=CARTESIAN_POINT('',(-0.0465136520990684,-0.0127,0.0119524916146994));
#559=CARTESIAN_POINT('',(-0.0376236520990684,-0.02413,0.0119524916146994));
#560=CARTESIAN_POINT('',(-0.0287336520990683,-0.02413,0.0119524916146994));
#561=CARTESIAN_POINT('',(-0.0287336520990683,-0.02413,0.0119524916146994));
#562=CARTESIAN_POINT('',(-0.0376236520990684,-0.02413,0.0119524916146994));
#563=CARTESIAN_POINT('',(-0.0287336520990683,-0.0127,0.0119524916146994));
#564=CARTESIAN_POINT('',(-0.0287336520990683,-0.0127,0.0119524916146994));
#565=CARTESIAN_POINT('',(-0.0376236520990684,-0.0127,0.0119524916146994));
#566=CARTESIAN_POINT('',(-0.0350836520990684,-0.026035,0.0189034100621938));
#567=CARTESIAN_POINT('',(-0.0350836520990684,-0.026035,0.0195384100621938));
#568=CARTESIAN_POINT('',(-0.0350836520990684,-0.02667,0.0195384100621938));
#569=CARTESIAN_POINT('',(-0.0350836520990684,-0.02667,0.0189034100621938));
#570=CARTESIAN_POINT('',(-0.0350836520990684,-0.02667,0.0182684100621938));
#571=CARTESIAN_POINT('',(-0.0350836520990684,-0.026035,0.0182684100621938));
#572=CARTESIAN_POINT('',(-0.0397191520990684,-0.026035,0.0195384100621938));
#573=CARTESIAN_POINT('',(-0.0401636520990684,-0.026035,0.0195384100621938));
#574=CARTESIAN_POINT('',(-0.0401636520990684,-0.02667,0.0195384100621938));
#575=CARTESIAN_POINT('',(-0.0397191520990684,-0.02667,0.0195384100621938));
#576=CARTESIAN_POINT('',(-0.0376236520990684,-0.026035,0.0195384100621938));
#577=CARTESIAN_POINT('',(-0.0401636520990684,-0.026035,0.0189034100621938));
#578=CARTESIAN_POINT('',(-0.0401636520990684,-0.026035,0.0182684100621938));
#579=CARTESIAN_POINT('',(-0.0401636520990684,-0.02667,0.0182684100621938));
#580=CARTESIAN_POINT('',(-0.0401636520990684,-0.02667,0.0189034100621938));
#581=CARTESIAN_POINT('',(-0.0397191520990684,-0.026035,0.0182684100621938));
#582=CARTESIAN_POINT('',(-0.0376236520990684,-0.026035,0.0182684100621938));
#583=CARTESIAN_POINT('',(-0.0397191520990684,-0.02667,0.0182684100621938));
#584=CARTESIAN_POINT('',(-0.0376236520990684,-0.02667,0.0190644916146993));
#585=CARTESIAN_POINT('',(-0.0376236520990684,-0.026035,0.0190644916146993));
#586=MECHANICAL_DESIGN_GEOMETRIC_PRESENTATION_REPRESENTATION('',(#367),
#587);
#587=(
GEOMETRIC_REPRESENTATION_CONTEXT(3)
GLOBAL_UNCERTAINTY_ASSIGNED_CONTEXT((#588))
GLOBAL_UNIT_ASSIGNED_CONTEXT((#591,#590,#589))
REPRESENTATION_CONTEXT('Part 1','TOP_LEVEL_ASSEMBLY_PART')
);
#588=UNCERTAINTY_MEASURE_WITH_UNIT(LENGTH_MEASURE(1.E-8),#591,
'DISTANCE_ACCURACY_VALUE','Maximum Tolerance applied to model');
#589=(
NAMED_UNIT(*)
SI_UNIT($,.STERADIAN.)
SOLID_ANGLE_UNIT()
);
#590=(
NAMED_UNIT(*)
PLANE_ANGLE_UNIT()
SI_UNIT($,.RADIAN.)
);
#591=(
LENGTH_UNIT()
NAMED_UNIT(*)
SI_UNIT($,.METRE.)
);
#592=PRODUCT_DEFINITION_SHAPE('','',#593);
#593=PRODUCT_DEFINITION('','',#595,#594);
#594=PRODUCT_DEFINITION_CONTEXT('',#601,'design');
#595=PRODUCT_DEFINITION_FORMATION_WITH_SPECIFIED_SOURCE('','',#597,
 .NOT_KNOWN.);
#596=PRODUCT_RELATED_PRODUCT_CATEGORY('','',(#597));
#597=PRODUCT('Part 1','Part 1','Part 1',(#599));
#598=PRODUCT_CATEGORY('','');
#599=PRODUCT_CONTEXT('',#601,'mechanical');
#600=APPLICATION_PROTOCOL_DEFINITION('international standard',
'ap242_managed_model_based_3d_engineering',2020,#601);
#601=APPLICATION_CONTEXT('managed model based 3d engineering');
ENDSEC;
END-ISO-10303-21;
