ISO-10303-21;
HEADER;
/* Generated by software containing ST-Developer
 * from STEP Tools, Inc. (www.steptools.com) 
 */
/* OPTION: using custom renumber hook */

FILE_DESCRIPTION(
/* description */ ('STEP AP242 Edition 2',
'CAx-IF Rec.Pracs.---Representation and Presentation of Product Manufa
cturing Information (PMI)---4.0---2014-10-13',
'CAx-IF Rec.Pracs.---3D Tessellated Geometry---0.4---2014-09-14','2;1',
'CAx-IF Rec.Pracs.---User Defined Attributes---1.5---2016-08-15'),
/* implementation_level */ '2;1');

FILE_NAME(
/* name */ 'frog',
/* time_stamp */ '2026-09-08T02:26:29Z',
/* author */ (''),
/* organization */ (''),
/* preprocessor_version */ 'ST-DEVELOPER v20',
/* originating_system */ 'ONSHAPE BY PTC INC, 1.220',
/* authorisation */ '  ');

FILE_SCHEMA (('AP242_MANAGED_MODEL_BASED_3D_ENGINEERING_MIM_LF { 1 0 10303 442 3 1 4 }'));
ENDSEC;

DATA;
#10=SHAPE_REPRESENTATION_RELATIONSHIP('','',#387,#11);
#11=ADVANCED_BREP_SHAPE_REPRESENTATION('',(#385),#977);
#12=(
BOUNDED_SURFACE()
B_SPLINE_SURFACE(3,2,((#769,#770,#771),(#772,#773,#774),(#775,#776,#777),
(#778,#779,#780),(#781,#782,#783),(#784,#785,#786),(#787,#788,#789),(#790,
#791,#792),(#793,#794,#795),(#796,#797,#798),(#799,#800,#801),(#802,#803,
#804),(#805,#806,#807),(#808,#809,#810),(#811,#812,#813),(#814,#815,#816),
(#817,#818,#819),(#820,#821,#822),(#823,#824,#825),(#826,#827,#828),(#829,
#830,#831),(#832,#833,#834),(#835,#836,#837),(#838,#839,#840),(#841,#842,
#843)),.UNSPECIFIED.,.F.,.F.,.F.)
B_SPLINE_SURFACE_WITH_KNOTS((4,1,1,1,1,1,1,1,1,1,1,1,1,1,1,1,1,1,1,1,1,
1,4),(3,3),(0.0125610158569954,0.0154030405603099,0.0168240529119671,0.0182450652636244,
0.0196660776152817,0.0210870899669389,0.0225081023185962,0.0239291146702534,
0.026771139373568,0.0296131640768825,0.032455188780197,0.0352972134835115,
0.038139238186826,0.0409812628901406,0.0438232875934551,0.0466653122967696,
0.0480863246484269,0.0495073370000841,0.0509283493517414,0.0523493617033987,
0.0537703740550559,0.0551913864067132,0.0580334111100277),(0.,1.),
 .UNSPECIFIED.)
GEOMETRIC_REPRESENTATION_ITEM()
RATIONAL_B_SPLINE_SURFACE(((1.,0.707106781186547,1.),(1.,0.707106781186547,
1.),(1.,0.707106781186558,1.),(1.,0.70710678118653,1.),(1.,0.70710678118655,
1.),(1.,0.707106781186547,1.),(1.,0.707106781186547,1.),(1.,0.707106781186547,
1.),(1.,0.707106781186547,1.),(1.,0.707106781186547,1.),(1.,0.707106781186548,
1.),(1.,0.707106781186547,1.),(1.,0.707106781186547,1.),(1.,0.707106781186548,
1.),(1.,0.707106781186546,1.),(1.,0.707106781186544,1.),(1.,0.707106781186548,
1.),(1.,0.707106781186547,1.),(1.,0.707106781186548,1.),(1.,0.707106781186547,
1.),(1.,0.707106781186548,1.),(1.,0.707106781186547,1.),(1.,0.707106781186548,
1.),(1.,0.707106781186547,1.),(1.,0.707106781186547,1.)))
REPRESENTATION_ITEM('')
SURFACE()
);
#13=(
BOUNDED_SURFACE()
B_SPLINE_SURFACE(3,2,((#848,#849,#850),(#851,#852,#853),(#854,#855,#856),
(#857,#858,#859),(#860,#861,#862)),.UNSPECIFIED.,.F.,.F.,.F.)
B_SPLINE_SURFACE_WITH_KNOTS((4,1,4),(3,3),(0.0312728849014356,0.035308043775291,
0.0393432026491464),(0.,1.),.UNSPECIFIED.)
GEOMETRIC_REPRESENTATION_ITEM()
RATIONAL_B_SPLINE_SURFACE(((1.,0.707106781186547,1.),(1.,0.707106781186547,
1.),(1.,0.707106781186545,1.),(1.,0.707106781186552,1.),(1.,0.707106781186552,
1.)))
REPRESENTATION_ITEM('')
SURFACE()
);
#14=(
BOUNDED_SURFACE()
B_SPLINE_SURFACE(3,2,((#877,#878,#879),(#880,#881,#882),(#883,#884,#885),
(#886,#887,#888),(#889,#890,#891),(#892,#893,#894),(#895,#896,#897),(#898,
#899,#900),(#901,#902,#903),(#904,#905,#906),(#907,#908,#909),(#910,#911,
#912),(#913,#914,#915),(#916,#917,#918),(#919,#920,#921),(#922,#923,#924),
(#925,#926,#927),(#928,#929,#930),(#931,#932,#933),(#934,#935,#936),(#937,
#938,#939),(#940,#941,#942),(#943,#944,#945),(#946,#947,#948),(#949,#950,
#951)),.UNSPECIFIED.,.F.,.F.,.F.)
B_SPLINE_SURFACE_WITH_KNOTS((4,1,1,1,1,1,1,1,1,1,1,1,1,1,1,1,1,1,1,1,1,
1,4),(3,3),(0.0125609978771827,0.0154030225868048,0.0168240349416159,0.018245047296427,
0.0196660596512381,0.0210870720060492,0.0225080843608603,0.0239290967156713,
0.0267711214252935,0.0296131461349157,0.0324551708445378,0.03529719555416,
0.0381392202637822,0.0409812449734043,0.0438232696830265,0.0466652943926487,
0.0480863067474598,0.0495073191022708,0.0509283314570819,0.052349343811893,
0.0537703561667041,0.0551913685215152,0.0580333932311373),(0.,1.),
 .UNSPECIFIED.)
GEOMETRIC_REPRESENTATION_ITEM()
RATIONAL_B_SPLINE_SURFACE(((1.,0.707106781186548,1.),(1.,0.707106781186548,
1.),(1.,0.707106781186552,1.),(1.,0.707106781186541,1.),(1.,0.70710678118655,
1.),(1.,0.707106781186546,1.),(1.,0.707106781186552,1.),(1.,0.707106781186541,
1.),(1.,0.707106781186545,1.),(1.,0.707106781186548,1.),(1.,0.707106781186547,
1.),(1.,0.707106781186548,1.),(1.,0.707106781186547,1.),(1.,0.707106781186547,
1.),(1.,0.707106781186547,1.),(1.,0.707106781186548,1.),(1.,0.707106781186547,
1.),(1.,0.707106781186548,1.),(1.,0.707106781186547,1.),(1.,0.707106781186552,
1.),(1.,0.707106781186532,1.),(1.,0.707106781186552,1.),(1.,0.707106781186545,
1.),(1.,0.707106781186548,1.),(1.,0.707106781186548,1.)))
REPRESENTATION_ITEM('')
SURFACE()
);
#15=(
BOUNDED_SURFACE()
B_SPLINE_SURFACE(3,2,((#956,#957,#958),(#959,#960,#961),(#962,#963,#964),
(#965,#966,#967),(#968,#969,#970)),.UNSPECIFIED.,.F.,.F.,.F.)
B_SPLINE_SURFACE_WITH_KNOTS((4,1,4),(3,3),(0.0312728936596105,0.0353080525363481,
0.0393432114130857),(0.,1.),.UNSPECIFIED.)
GEOMETRIC_REPRESENTATION_ITEM()
RATIONAL_B_SPLINE_SURFACE(((1.,0.707106781186548,1.),(1.,0.707106781186547,
1.),(1.,0.707106781186545,1.),(1.,0.707106781186552,1.),(1.,0.707106781186552,
1.)))
REPRESENTATION_ITEM('')
SURFACE()
);
#16=TOROIDAL_SURFACE('',#414,0.00244557910793518,0.000254);
#17=TOROIDAL_SURFACE('',#415,0.00244556066482043,0.000254);
#18=TOROIDAL_SURFACE('',#416,0.00244557910793518,0.000254);
#19=TOROIDAL_SURFACE('',#417,0.00244556066482043,0.000254);
#20=ELLIPSE('',#397,0.0018119893792802,0.000848619082985011);
#21=ELLIPSE('',#398,0.0018119893792802,0.000848619082985011);
#22=ELLIPSE('',#403,0.0018119893792802,0.000848619082985011);
#23=ELLIPSE('',#404,0.0018119893792802,0.000848619082985011);
#24=PLANE('',#392);
#25=PLANE('',#393);
#26=PLANE('',#394);
#27=PLANE('',#395);
#28=PLANE('',#396);
#29=PLANE('',#402);
#30=PLANE('',#405);
#31=PLANE('',#408);
#32=PLANE('',#411);
#33=PLANE('',#412);
#34=PLANE('',#413);
#35=CIRCLE('',#390,0.00269957910793519);
#36=CIRCLE('',#391,0.00269957910793519);
#37=CIRCLE('',#400,0.00269956066482043);
#38=CIRCLE('',#401,0.00269956066482043);
#39=CIRCLE('',#406,0.00244556066482043);
#40=CIRCLE('',#407,0.00244557910793518);
#41=CIRCLE('',#409,0.00244556066482043);
#42=CIRCLE('',#410,0.00244557910793518);
#43=CYLINDRICAL_SURFACE('',#389,0.00269957910793519);
#44=CYLINDRICAL_SURFACE('',#399,0.00269956066482043);
#45=B_SPLINE_CURVE_WITH_KNOTS('',3,(#512,#513,#514,#515),.UNSPECIFIED.,
 .F.,.F.,(4,4),(0.,0.00768788877245226),.UNSPECIFIED.);
#46=B_SPLINE_CURVE_WITH_KNOTS('',3,(#519,#520,#521,#522),.UNSPECIFIED.,
 .F.,.F.,(4,4),(0.,0.00768788886152934),.UNSPECIFIED.);
#47=B_SPLINE_CURVE_WITH_KNOTS('',3,(#551,#552,#553,#554,#555,#556,#557,
#558,#559,#560,#561,#562,#563,#564,#565,#566,#567,#568,#569,#570,#571,#572),
 .UNSPECIFIED.,.F.,.F.,(4,1,1,1,1,1,1,1,1,1,1,1,1,1,1,1,1,1,1,4),(0.,0.00290592300691383,
0.00581184601382766,0.00726480751728457,0.00871776902074149,0.0116236920276553,
0.0145296150345691,0.017435538041483,0.0203414610483968,0.0232473840553106,
0.0261533070622245,0.0290592300691383,0.0319651530760521,0.0348710760829659,
0.0363240375864229,0.0377769990898798,0.0392299605933367,0.0406829220967936,
0.0435888451037074,0.0464947681106213),.UNSPECIFIED.);
#48=B_SPLINE_CURVE_WITH_KNOTS('',3,(#576,#577,#578,#579,#580,#581,#582,
#583,#584,#585,#586,#587,#588,#589,#590,#591,#592,#593,#594,#595,#596,#597),
 .UNSPECIFIED.,.F.,.F.,(4,1,1,1,1,1,1,1,1,1,1,1,1,1,1,1,1,1,1,4),(0.,0.00290592269549075,
0.0058118453909815,0.00726480673872687,0.00871776808647225,0.011623690781963,
0.0145296134774537,0.0174355361729445,0.0203414588684352,0.023247381563926,
0.0261533042594167,0.0290592269549075,0.0319651496503982,0.034871072345889,
0.0363240336936344,0.0377769950413797,0.0392299563891251,0.0406829177368705,
0.0435888404323612,0.046494763127852),.UNSPECIFIED.);
#49=B_SPLINE_CURVE_WITH_KNOTS('',3,(#693,#694,#695,#696),.UNSPECIFIED.,
 .F.,.F.,(4,4),(3.46944695195361E-18,0.00800884034158133),.UNSPECIFIED.);
#50=B_SPLINE_CURVE_WITH_KNOTS('',3,(#700,#701,#702,#703,#704,#705,#706,
#707,#708,#709,#710,#711,#712,#713,#714,#715,#716,#717,#718,#719,#720,#721,
#722),.UNSPECIFIED.,.F.,.F.,(4,1,1,1,1,1,1,1,1,1,1,1,1,1,1,1,1,1,1,1,4),
(0.,0.00283314338883842,0.00566628677767683,0.00708285847209604,0.00849943016651525,
0.00991600186093446,0.0113325735553537,0.0141657169441921,0.0169988603330305,
0.0198320037218689,0.0226651471107073,0.0254982904995458,0.0283314338883842,
0.0311645772772226,0.033997720666061,0.0368308640548994,0.0382474357493186,
0.0396640074437378,0.041080579138157,0.0424971508325763,0.0453302942214147),
 .UNSPECIFIED.);
#51=B_SPLINE_CURVE_WITH_KNOTS('',3,(#724,#725,#726,#727),.UNSPECIFIED.,
 .F.,.F.,(4,4),(1.17134304515954E-15,0.00800884030252814),.UNSPECIFIED.);
#52=B_SPLINE_CURVE_WITH_KNOTS('',3,(#732,#733,#734,#735,#736,#737,#738,
#739,#740,#741,#742,#743,#744,#745,#746,#747,#748,#749,#750,#751,#752,#753,
#754),.UNSPECIFIED.,.F.,.F.,(4,1,1,1,1,1,1,1,1,1,1,1,1,1,1,1,1,1,1,1,4),
(0.,0.00283314280824771,0.00566628561649541,0.00708285702061926,0.00849942842474312,
0.00991599982886697,0.0113325712329908,0.0141657140412385,0.0169988568494862,
0.0198319996577339,0.0226651424659816,0.0254982852742294,0.0283314280824771,
0.0311645708907248,0.0339977136989725,0.0368308565072202,0.038247427911344,
0.0396639993154679,0.0410805707195917,0.0424971421237156,0.0453302849319633),
 .UNSPECIFIED.);
#53=B_SPLINE_CURVE_WITH_KNOTS('',3,(#761,#762,#763,#764),.UNSPECIFIED.,
 .F.,.F.,(4,4),(0.,0.000468744117353787),.UNSPECIFIED.);
#54=B_SPLINE_CURVE_WITH_KNOTS('',3,(#765,#766,#767,#768),.UNSPECIFIED.,
 .F.,.F.,(4,4),(0.,0.000465547431370552),.UNSPECIFIED.);
#55=B_SPLINE_CURVE_WITH_KNOTS('',3,(#844,#845,#846,#847),.UNSPECIFIED.,
 .F.,.F.,(4,4),(0.,0.00046554768228719),.UNSPECIFIED.);
#56=B_SPLINE_CURVE_WITH_KNOTS('',3,(#863,#864,#865,#866),.UNSPECIFIED.,
 .F.,.F.,(4,4),(0.,0.000468744321615429),.UNSPECIFIED.);
#57=B_SPLINE_CURVE_WITH_KNOTS('',3,(#869,#870,#871,#872),.UNSPECIFIED.,
 .F.,.F.,(4,4),(0.,0.000468744117352952),.UNSPECIFIED.);
#58=B_SPLINE_CURVE_WITH_KNOTS('',3,(#873,#874,#875,#876),.UNSPECIFIED.,
 .F.,.F.,(4,4),(0.,0.000465547431370967),.UNSPECIFIED.);
#59=B_SPLINE_CURVE_WITH_KNOTS('',3,(#952,#953,#954,#955),.UNSPECIFIED.,
 .F.,.F.,(4,4),(0.,0.00046554768228719),.UNSPECIFIED.);
#60=B_SPLINE_CURVE_WITH_KNOTS('',3,(#971,#972,#973,#974),.UNSPECIFIED.,
 .F.,.F.,(4,4),(0.,0.000468744321615427),.UNSPECIFIED.);
#61=ORIENTED_EDGE('',*,*,#161,.T.);
#62=ORIENTED_EDGE('',*,*,#162,.T.);
#63=ORIENTED_EDGE('',*,*,#163,.F.);
#64=ORIENTED_EDGE('',*,*,#164,.T.);
#65=ORIENTED_EDGE('',*,*,#163,.T.);
#66=ORIENTED_EDGE('',*,*,#165,.T.);
#67=ORIENTED_EDGE('',*,*,#166,.F.);
#68=ORIENTED_EDGE('',*,*,#167,.T.);
#69=ORIENTED_EDGE('',*,*,#166,.T.);
#70=ORIENTED_EDGE('',*,*,#168,.T.);
#71=ORIENTED_EDGE('',*,*,#169,.F.);
#72=ORIENTED_EDGE('',*,*,#170,.T.);
#73=ORIENTED_EDGE('',*,*,#171,.F.);
#74=ORIENTED_EDGE('',*,*,#172,.F.);
#75=ORIENTED_EDGE('',*,*,#173,.T.);
#76=ORIENTED_EDGE('',*,*,#174,.T.);
#77=ORIENTED_EDGE('',*,*,#175,.F.);
#78=ORIENTED_EDGE('',*,*,#176,.F.);
#79=ORIENTED_EDGE('',*,*,#177,.T.);
#80=ORIENTED_EDGE('',*,*,#172,.T.);
#81=ORIENTED_EDGE('',*,*,#178,.F.);
#82=ORIENTED_EDGE('',*,*,#179,.F.);
#83=ORIENTED_EDGE('',*,*,#180,.T.);
#84=ORIENTED_EDGE('',*,*,#176,.T.);
#85=ORIENTED_EDGE('',*,*,#181,.F.);
#86=ORIENTED_EDGE('',*,*,#182,.F.);
#87=ORIENTED_EDGE('',*,*,#183,.T.);
#88=ORIENTED_EDGE('',*,*,#179,.T.);
#89=ORIENTED_EDGE('',*,*,#184,.F.);
#90=ORIENTED_EDGE('',*,*,#185,.F.);
#91=ORIENTED_EDGE('',*,*,#186,.T.);
#92=ORIENTED_EDGE('',*,*,#182,.T.);
#93=ORIENTED_EDGE('',*,*,#187,.F.);
#94=ORIENTED_EDGE('',*,*,#188,.T.);
#95=ORIENTED_EDGE('',*,*,#169,.T.);
#96=ORIENTED_EDGE('',*,*,#189,.T.);
#97=ORIENTED_EDGE('',*,*,#161,.F.);
#98=ORIENTED_EDGE('',*,*,#190,.T.);
#99=ORIENTED_EDGE('',*,*,#191,.F.);
#100=ORIENTED_EDGE('',*,*,#174,.F.);
#101=ORIENTED_EDGE('',*,*,#192,.T.);
#102=ORIENTED_EDGE('',*,*,#185,.T.);
#103=ORIENTED_EDGE('',*,*,#193,.F.);
#104=ORIENTED_EDGE('',*,*,#194,.T.);
#105=ORIENTED_EDGE('',*,*,#195,.T.);
#106=ORIENTED_EDGE('',*,*,#196,.T.);
#107=ORIENTED_EDGE('',*,*,#197,.T.);
#108=ORIENTED_EDGE('',*,*,#198,.T.);
#109=ORIENTED_EDGE('',*,*,#173,.F.);
#110=ORIENTED_EDGE('',*,*,#177,.F.);
#111=ORIENTED_EDGE('',*,*,#180,.F.);
#112=ORIENTED_EDGE('',*,*,#183,.F.);
#113=ORIENTED_EDGE('',*,*,#186,.F.);
#114=ORIENTED_EDGE('',*,*,#192,.F.);
#115=ORIENTED_EDGE('',*,*,#188,.F.);
#116=ORIENTED_EDGE('',*,*,#194,.F.);
#117=ORIENTED_EDGE('',*,*,#199,.T.);
#118=ORIENTED_EDGE('',*,*,#200,.T.);
#119=ORIENTED_EDGE('',*,*,#201,.T.);
#120=ORIENTED_EDGE('',*,*,#202,.T.);
#121=ORIENTED_EDGE('',*,*,#175,.T.);
#122=ORIENTED_EDGE('',*,*,#171,.T.);
#123=ORIENTED_EDGE('',*,*,#191,.T.);
#124=ORIENTED_EDGE('',*,*,#184,.T.);
#125=ORIENTED_EDGE('',*,*,#181,.T.);
#126=ORIENTED_EDGE('',*,*,#178,.T.);
#127=ORIENTED_EDGE('',*,*,#193,.T.);
#128=ORIENTED_EDGE('',*,*,#187,.T.);
#129=ORIENTED_EDGE('',*,*,#203,.F.);
#130=ORIENTED_EDGE('',*,*,#202,.F.);
#131=ORIENTED_EDGE('',*,*,#204,.F.);
#132=ORIENTED_EDGE('',*,*,#165,.F.);
#133=ORIENTED_EDGE('',*,*,#204,.T.);
#134=ORIENTED_EDGE('',*,*,#201,.F.);
#135=ORIENTED_EDGE('',*,*,#205,.F.);
#136=ORIENTED_EDGE('',*,*,#168,.F.);
#137=ORIENTED_EDGE('',*,*,#203,.T.);
#138=ORIENTED_EDGE('',*,*,#162,.F.);
#139=ORIENTED_EDGE('',*,*,#206,.F.);
#140=ORIENTED_EDGE('',*,*,#199,.F.);
#141=ORIENTED_EDGE('',*,*,#205,.T.);
#142=ORIENTED_EDGE('',*,*,#200,.F.);
#143=ORIENTED_EDGE('',*,*,#206,.T.);
#144=ORIENTED_EDGE('',*,*,#189,.F.);
#145=ORIENTED_EDGE('',*,*,#207,.F.);
#146=ORIENTED_EDGE('',*,*,#167,.F.);
#147=ORIENTED_EDGE('',*,*,#208,.F.);
#148=ORIENTED_EDGE('',*,*,#197,.F.);
#149=ORIENTED_EDGE('',*,*,#208,.T.);
#150=ORIENTED_EDGE('',*,*,#170,.F.);
#151=ORIENTED_EDGE('',*,*,#209,.F.);
#152=ORIENTED_EDGE('',*,*,#198,.F.);
#153=ORIENTED_EDGE('',*,*,#207,.T.);
#154=ORIENTED_EDGE('',*,*,#196,.F.);
#155=ORIENTED_EDGE('',*,*,#210,.F.);
#156=ORIENTED_EDGE('',*,*,#164,.F.);
#157=ORIENTED_EDGE('',*,*,#209,.T.);
#158=ORIENTED_EDGE('',*,*,#190,.F.);
#159=ORIENTED_EDGE('',*,*,#210,.T.);
#160=ORIENTED_EDGE('',*,*,#195,.F.);
#161=EDGE_CURVE('',#211,#212,#243,.T.);
#162=EDGE_CURVE('',#212,#213,#45,.T.);
#163=EDGE_CURVE('',#214,#213,#244,.T.);
#164=EDGE_CURVE('',#214,#211,#46,.T.);
#165=EDGE_CURVE('',#213,#215,#35,.T.);
#166=EDGE_CURVE('',#216,#215,#245,.T.);
#167=EDGE_CURVE('',#216,#214,#36,.F.);
#168=EDGE_CURVE('',#215,#217,#47,.T.);
#169=EDGE_CURVE('',#218,#217,#246,.T.);
#170=EDGE_CURVE('',#218,#216,#48,.T.);
#171=EDGE_CURVE('',#219,#220,#247,.T.);
#172=EDGE_CURVE('',#221,#219,#248,.T.);
#173=EDGE_CURVE('',#221,#222,#249,.T.);
#174=EDGE_CURVE('',#222,#220,#250,.T.);
#175=EDGE_CURVE('',#223,#219,#251,.T.);
#176=EDGE_CURVE('',#224,#223,#252,.T.);
#177=EDGE_CURVE('',#224,#221,#253,.T.);
#178=EDGE_CURVE('',#225,#223,#254,.T.);
#179=EDGE_CURVE('',#226,#225,#255,.T.);
#180=EDGE_CURVE('',#226,#224,#256,.T.);
#181=EDGE_CURVE('',#227,#225,#257,.T.);
#182=EDGE_CURVE('',#228,#227,#258,.T.);
#183=EDGE_CURVE('',#228,#226,#259,.T.);
#184=EDGE_CURVE('',#229,#227,#260,.T.);
#185=EDGE_CURVE('',#230,#229,#261,.T.);
#186=EDGE_CURVE('',#230,#228,#262,.T.);
#187=EDGE_CURVE('',#231,#231,#20,.T.);
#188=EDGE_CURVE('',#232,#232,#21,.T.);
#189=EDGE_CURVE('',#217,#212,#37,.T.);
#190=EDGE_CURVE('',#211,#218,#38,.F.);
#191=EDGE_CURVE('',#220,#229,#263,.T.);
#192=EDGE_CURVE('',#222,#230,#264,.T.);
#193=EDGE_CURVE('',#233,#233,#22,.T.);
#194=EDGE_CURVE('',#234,#234,#23,.T.);
#195=EDGE_CURVE('',#235,#236,#39,.T.);
#196=EDGE_CURVE('',#236,#237,#49,.T.);
#197=EDGE_CURVE('',#237,#238,#40,.T.);
#198=EDGE_CURVE('',#238,#235,#50,.T.);
#199=EDGE_CURVE('',#239,#240,#51,.T.);
#200=EDGE_CURVE('',#240,#241,#41,.F.);
#201=EDGE_CURVE('',#241,#242,#52,.T.);
#202=EDGE_CURVE('',#242,#239,#42,.F.);
#203=EDGE_CURVE('',#239,#213,#53,.F.);
#204=EDGE_CURVE('',#215,#242,#54,.T.);
#205=EDGE_CURVE('',#217,#241,#55,.T.);
#206=EDGE_CURVE('',#240,#212,#56,.F.);
#207=EDGE_CURVE('',#214,#237,#57,.T.);
#208=EDGE_CURVE('',#238,#216,#58,.F.);
#209=EDGE_CURVE('',#235,#218,#59,.F.);
#210=EDGE_CURVE('',#211,#236,#60,.T.);
#211=VERTEX_POINT('',#510);
#212=VERTEX_POINT('',#511);
#213=VERTEX_POINT('',#516);
#214=VERTEX_POINT('',#518);
#215=VERTEX_POINT('',#525);
#216=VERTEX_POINT('',#527);
#217=VERTEX_POINT('',#573);
#218=VERTEX_POINT('',#575);
#219=VERTEX_POINT('',#600);
#220=VERTEX_POINT('',#601);
#221=VERTEX_POINT('',#603);
#222=VERTEX_POINT('',#605);
#223=VERTEX_POINT('',#609);
#224=VERTEX_POINT('',#611);
#225=VERTEX_POINT('',#615);
#226=VERTEX_POINT('',#617);
#227=VERTEX_POINT('',#621);
#228=VERTEX_POINT('',#623);
#229=VERTEX_POINT('',#627);
#230=VERTEX_POINT('',#629);
#231=VERTEX_POINT('',#654);
#232=VERTEX_POINT('',#656);
#233=VERTEX_POINT('',#686);
#234=VERTEX_POINT('',#688);
#235=VERTEX_POINT('',#691);
#236=VERTEX_POINT('',#692);
#237=VERTEX_POINT('',#697);
#238=VERTEX_POINT('',#699);
#239=VERTEX_POINT('',#728);
#240=VERTEX_POINT('',#729);
#241=VERTEX_POINT('',#731);
#242=VERTEX_POINT('',#755);
#243=LINE('',#509,#265);
#244=LINE('',#517,#266);
#245=LINE('',#526,#267);
#246=LINE('',#574,#268);
#247=LINE('',#599,#269);
#248=LINE('',#602,#270);
#249=LINE('',#604,#271);
#250=LINE('',#606,#272);
#251=LINE('',#608,#273);
#252=LINE('',#610,#274);
#253=LINE('',#612,#275);
#254=LINE('',#614,#276);
#255=LINE('',#616,#277);
#256=LINE('',#618,#278);
#257=LINE('',#620,#279);
#258=LINE('',#622,#280);
#259=LINE('',#624,#281);
#260=LINE('',#626,#282);
#261=LINE('',#628,#283);
#262=LINE('',#630,#284);
#263=LINE('',#661,#285);
#264=LINE('',#662,#286);
#265=VECTOR('',#420,1.);
#266=VECTOR('',#421,1.);
#267=VECTOR('',#426,1.);
#268=VECTOR('',#429,1.);
#269=VECTOR('',#432,1.);
#270=VECTOR('',#433,1.);
#271=VECTOR('',#434,1.);
#272=VECTOR('',#435,1.);
#273=VECTOR('',#438,1.);
#274=VECTOR('',#439,1.);
#275=VECTOR('',#440,1.);
#276=VECTOR('',#443,1.);
#277=VECTOR('',#444,1.);
#278=VECTOR('',#445,1.);
#279=VECTOR('',#448,1.);
#280=VECTOR('',#449,1.);
#281=VECTOR('',#450,1.);
#282=VECTOR('',#453,1.);
#283=VECTOR('',#454,1.);
#284=VECTOR('',#455,1.);
#285=VECTOR('',#468,1.);
#286=VECTOR('',#469,1.);
#287=EDGE_LOOP('',(#61,#62,#63,#64));
#288=EDGE_LOOP('',(#65,#66,#67,#68));
#289=EDGE_LOOP('',(#69,#70,#71,#72));
#290=EDGE_LOOP('',(#73,#74,#75,#76));
#291=EDGE_LOOP('',(#77,#78,#79,#80));
#292=EDGE_LOOP('',(#81,#82,#83,#84));
#293=EDGE_LOOP('',(#85,#86,#87,#88));
#294=EDGE_LOOP('',(#89,#90,#91,#92));
#295=EDGE_LOOP('',(#93));
#296=EDGE_LOOP('',(#94));
#297=EDGE_LOOP('',(#95,#96,#97,#98));
#298=EDGE_LOOP('',(#99,#100,#101,#102));
#299=EDGE_LOOP('',(#103));
#300=EDGE_LOOP('',(#104));
#301=EDGE_LOOP('',(#105,#106,#107,#108));
#302=EDGE_LOOP('',(#109,#110,#111,#112,#113,#114));
#303=EDGE_LOOP('',(#115));
#304=EDGE_LOOP('',(#116));
#305=EDGE_LOOP('',(#117,#118,#119,#120));
#306=EDGE_LOOP('',(#121,#122,#123,#124,#125,#126));
#307=EDGE_LOOP('',(#127));
#308=EDGE_LOOP('',(#128));
#309=EDGE_LOOP('',(#129,#130,#131,#132));
#310=EDGE_LOOP('',(#133,#134,#135,#136));
#311=EDGE_LOOP('',(#137,#138,#139,#140));
#312=EDGE_LOOP('',(#141,#142,#143,#144));
#313=EDGE_LOOP('',(#145,#146,#147,#148));
#314=EDGE_LOOP('',(#149,#150,#151,#152));
#315=EDGE_LOOP('',(#153,#154,#155,#156));
#316=EDGE_LOOP('',(#157,#158,#159,#160));
#317=FACE_BOUND('',#287,.T.);
#318=FACE_BOUND('',#288,.T.);
#319=FACE_BOUND('',#289,.T.);
#320=FACE_BOUND('',#290,.T.);
#321=FACE_BOUND('',#291,.T.);
#322=FACE_BOUND('',#292,.T.);
#323=FACE_BOUND('',#293,.T.);
#324=FACE_BOUND('',#294,.T.);
#325=FACE_BOUND('',#295,.T.);
#326=FACE_BOUND('',#296,.T.);
#327=FACE_BOUND('',#297,.T.);
#328=FACE_BOUND('',#298,.T.);
#329=FACE_BOUND('',#299,.T.);
#330=FACE_BOUND('',#300,.T.);
#331=FACE_BOUND('',#301,.T.);
#332=FACE_BOUND('',#302,.T.);
#333=FACE_BOUND('',#303,.T.);
#334=FACE_BOUND('',#304,.T.);
#335=FACE_BOUND('',#305,.T.);
#336=FACE_BOUND('',#306,.T.);
#337=FACE_BOUND('',#307,.T.);
#338=FACE_BOUND('',#308,.T.);
#339=FACE_BOUND('',#309,.T.);
#340=FACE_BOUND('',#310,.T.);
#341=FACE_BOUND('',#311,.T.);
#342=FACE_BOUND('',#312,.T.);
#343=FACE_BOUND('',#313,.T.);
#344=FACE_BOUND('',#314,.T.);
#345=FACE_BOUND('',#315,.T.);
#346=FACE_BOUND('',#316,.T.);
#347=B_SPLINE_SURFACE_WITH_KNOTS('',3,1,((#501,#502),(#503,#504),(#505,
#506),(#507,#508)),.SURF_OF_LINEAR_EXTRUSION.,.F.,.F.,.F.,(4,4),(2,2),(1.26578216677537,
1.87580955078553),(0.,1.),.PIECEWISE_BEZIER_KNOTS.);
#348=B_SPLINE_SURFACE_WITH_KNOTS('',3,1,((#529,#530),(#531,#532),(#533,
#534),(#535,#536),(#537,#538),(#539,#540),(#541,#542),(#543,#544),(#545,
#546),(#547,#548),(#549,#550)),.SURF_OF_LINEAR_EXTRUSION.,.F.,.F.,.F.,(4,
1,1,1,1,1,1,1,4),(2,2),(2.34662210334555,2.93806413085545,3.52950615836535,
4.12094818587525,4.71239021338515,5.30383224089505,5.89527426840495,6.48671629591485,
7.07815832342475),(0.,1.),.UNSPECIFIED.);
#349=B_SPLINE_SURFACE_WITH_KNOTS('',3,1,((#631,#632),(#633,#634),(#635,
#636),(#637,#638),(#639,#640),(#641,#642),(#643,#644),(#645,#646),(#647,
#648),(#649,#650),(#651,#652)),.SURF_OF_LINEAR_EXTRUSION.,.T.,.F.,.F.,(1,
1,1,1,1,1,1,1,1,1,1,1,1,1,1),(2,2),(-2.35619449019234,-1.5707963267949,
-0.785398163397448,1.27760757944758E-16,0.785398163397448,1.5707963267949,
2.35619449019234,3.14159265358979,3.92699081698724,4.71238898038469,5.49778714378214,
6.28318530717959,7.06858347057703,7.85398163397448,8.63937979737193),(0.,
1.),.UNSPECIFIED.);
#350=B_SPLINE_SURFACE_WITH_KNOTS('',3,1,((#663,#664),(#665,#666),(#667,
#668),(#669,#670),(#671,#672),(#673,#674),(#675,#676),(#677,#678),(#679,
#680),(#681,#682),(#683,#684)),.SURF_OF_LINEAR_EXTRUSION.,.T.,.F.,.F.,(1,
1,1,1,1,1,1,1,1,1,1,1,1,1,1),(2,2),(3.92699081698724,4.71238898038469,5.49778714378214,
6.28318530717958,7.06858347057703,7.85398163397448,8.63937979737193,9.42477796076938,
10.2101761241668,10.9955742875643,11.7809724509617,12.5663706143592,13.3517687777566,
14.1371669411541,14.9225651045515),(0.,1.),.UNSPECIFIED.);
#351=ADVANCED_FACE('',(#317),#347,.F.);
#352=ADVANCED_FACE('',(#318),#43,.T.);
#353=ADVANCED_FACE('',(#319),#348,.F.);
#354=ADVANCED_FACE('',(#320),#24,.T.);
#355=ADVANCED_FACE('',(#321),#25,.T.);
#356=ADVANCED_FACE('',(#322),#26,.T.);
#357=ADVANCED_FACE('',(#323),#27,.T.);
#358=ADVANCED_FACE('',(#324),#28,.T.);
#359=ADVANCED_FACE('',(#325,#326),#349,.T.);
#360=ADVANCED_FACE('',(#327),#44,.T.);
#361=ADVANCED_FACE('',(#328),#29,.T.);
#362=ADVANCED_FACE('',(#329,#330),#350,.T.);
#363=ADVANCED_FACE('',(#331,#332,#333,#334),#30,.T.);
#364=ADVANCED_FACE('',(#335),#31,.F.);
#365=ADVANCED_FACE('',(#336),#32,.T.);
#366=ADVANCED_FACE('',(#337),#33,.T.);
#367=ADVANCED_FACE('',(#338),#34,.T.);
#368=ADVANCED_FACE('',(#339),#16,.T.);
#369=ADVANCED_FACE('',(#340),#12,.T.);
#370=ADVANCED_FACE('',(#341),#13,.T.);
#371=ADVANCED_FACE('',(#342),#17,.T.);
#372=ADVANCED_FACE('',(#343),#18,.T.);
#373=ADVANCED_FACE('',(#344),#14,.T.);
#374=ADVANCED_FACE('',(#345),#15,.T.);
#375=ADVANCED_FACE('',(#346),#19,.T.);
#376=CLOSED_SHELL('',(#351,#352,#353,#354,#355,#356,#357,#358,#359,#360,
#361,#362,#363,#364,#365,#366,#367,#368,#369,#370,#371,#372,#373,#374,#375));
#377=STYLED_ITEM('',(#378),#385);
#378=PRESENTATION_STYLE_ASSIGNMENT((#379));
#379=SURFACE_STYLE_USAGE(.BOTH.,#380);
#380=SURFACE_SIDE_STYLE('',(#381));
#381=SURFACE_STYLE_FILL_AREA(#382);
#382=FILL_AREA_STYLE('',(#383));
#383=FILL_AREA_STYLE_COLOUR('',#384);
#384=COLOUR_RGB('',0.615686274509804,0.811764705882353,0.929411764705882);
#385=MANIFOLD_SOLID_BREP('Part 1',#376);
#386=SHAPE_DEFINITION_REPRESENTATION(#982,#387);
#387=SHAPE_REPRESENTATION('Part 1',(#388),#977);
#388=AXIS2_PLACEMENT_3D('',#500,#418,#419);
#389=AXIS2_PLACEMENT_3D('',#523,#422,#423);
#390=AXIS2_PLACEMENT_3D('',#524,#424,#425);
#391=AXIS2_PLACEMENT_3D('',#528,#427,#428);
#392=AXIS2_PLACEMENT_3D('',#598,#430,#431);
#393=AXIS2_PLACEMENT_3D('',#607,#436,#437);
#394=AXIS2_PLACEMENT_3D('',#613,#441,#442);
#395=AXIS2_PLACEMENT_3D('',#619,#446,#447);
#396=AXIS2_PLACEMENT_3D('',#625,#451,#452);
#397=AXIS2_PLACEMENT_3D('',#653,#456,#457);
#398=AXIS2_PLACEMENT_3D('',#655,#458,#459);
#399=AXIS2_PLACEMENT_3D('',#657,#460,#461);
#400=AXIS2_PLACEMENT_3D('',#658,#462,#463);
#401=AXIS2_PLACEMENT_3D('',#659,#464,#465);
#402=AXIS2_PLACEMENT_3D('',#660,#466,#467);
#403=AXIS2_PLACEMENT_3D('',#685,#470,#471);
#404=AXIS2_PLACEMENT_3D('',#687,#472,#473);
#405=AXIS2_PLACEMENT_3D('',#689,#474,#475);
#406=AXIS2_PLACEMENT_3D('',#690,#476,#477);
#407=AXIS2_PLACEMENT_3D('',#698,#478,#479);
#408=AXIS2_PLACEMENT_3D('',#723,#480,#481);
#409=AXIS2_PLACEMENT_3D('',#730,#482,#483);
#410=AXIS2_PLACEMENT_3D('',#756,#484,#485);
#411=AXIS2_PLACEMENT_3D('',#757,#486,#487);
#412=AXIS2_PLACEMENT_3D('',#758,#488,#489);
#413=AXIS2_PLACEMENT_3D('',#759,#490,#491);
#414=AXIS2_PLACEMENT_3D('',#760,#492,#493);
#415=AXIS2_PLACEMENT_3D('',#867,#494,#495);
#416=AXIS2_PLACEMENT_3D('',#868,#496,#497);
#417=AXIS2_PLACEMENT_3D('',#975,#498,#499);
#418=DIRECTION('',(0.,0.,1.));
#419=DIRECTION('',(1.,0.,0.));
#420=DIRECTION('',(0.,1.,0.));
#421=DIRECTION('',(0.,1.,0.));
#422=DIRECTION('',(0.,1.,0.));
#423=DIRECTION('',(0.,0.,1.));
#424=DIRECTION('',(0.,-1.,0.));
#425=DIRECTION('',(0.,0.,-1.));
#426=DIRECTION('',(0.,1.,0.));
#427=DIRECTION('',(0.,-1.,0.));
#428=DIRECTION('',(0.,0.,-1.));
#429=DIRECTION('',(0.,1.,0.));
#430=DIRECTION('',(-0.707106781186511,0.,-0.707106781186584));
#431=DIRECTION('',(-0.707106781186584,0.,0.707106781186511));
#432=DIRECTION('',(-0.707106781186584,0.,0.707106781186511));
#433=DIRECTION('',(0.,1.,0.));
#434=DIRECTION('',(-0.707106781186584,0.,0.707106781186511));
#435=DIRECTION('',(0.,1.,0.));
#436=DIRECTION('',(0.707107639456868,0.,-0.707105922915185));
#437=DIRECTION('',(-0.707105922915185,0.,-0.707107639456869));
#438=DIRECTION('',(-0.707105922915185,0.,-0.707107639456868));
#439=DIRECTION('',(0.,1.,0.));
#440=DIRECTION('',(-0.707105922915185,0.,-0.707107639456868));
#441=DIRECTION('',(-0.707106781186507,0.,-0.707106781186589));
#442=DIRECTION('',(-0.707106781186589,0.,0.707106781186507));
#443=DIRECTION('',(-0.707106781186589,0.,0.707106781186507));
#444=DIRECTION('',(0.,1.,0.));
#445=DIRECTION('',(-0.707106781186589,0.,0.707106781186507));
#446=DIRECTION('',(-0.707107394236852,0.,0.707106168135712));
#447=DIRECTION('',(0.707106168135712,0.,0.707107394236852));
#448=DIRECTION('',(0.707106168135712,0.,0.707107394236852));
#449=DIRECTION('',(0.,1.,0.));
#450=DIRECTION('',(0.707106168135712,0.,0.707107394236852));
#451=DIRECTION('',(0.70710678118651,0.,0.707106781186586));
#452=DIRECTION('',(0.707106781186586,0.,-0.70710678118651));
#453=DIRECTION('',(0.707106781186586,0.,-0.70710678118651));
#454=DIRECTION('',(0.,1.,0.));
#455=DIRECTION('',(0.707106781186586,0.,-0.70710678118651));
#456=DIRECTION('',(0.,-1.,0.));
#457=DIRECTION('',(-0.924577223698685,0.,0.38099469473686));
#458=DIRECTION('',(0.,-1.,0.));
#459=DIRECTION('',(-0.924577223698685,0.,0.38099469473686));
#460=DIRECTION('',(0.,1.,0.));
#461=DIRECTION('',(0.,0.,1.));
#462=DIRECTION('',(0.,-1.,0.));
#463=DIRECTION('',(0.,0.,-1.));
#464=DIRECTION('',(0.,-1.,0.));
#465=DIRECTION('',(0.,0.,-1.));
#466=DIRECTION('',(0.707106781186582,0.,-0.707106781186513));
#467=DIRECTION('',(-0.707106781186513,0.,-0.707106781186582));
#468=DIRECTION('',(-0.707106781186513,0.,-0.707106781186582));
#469=DIRECTION('',(-0.707106781186513,0.,-0.707106781186582));
#470=DIRECTION('',(0.,-1.,0.));
#471=DIRECTION('',(0.953165913581908,0.,0.302447914830912));
#472=DIRECTION('',(0.,-1.,0.));
#473=DIRECTION('',(0.953165913581908,0.,0.302447914830912));
#474=DIRECTION('',(0.,-1.,0.));
#475=DIRECTION('',(1.,0.,0.));
#476=DIRECTION('',(0.,-1.,0.));
#477=DIRECTION('',(0.,0.,-1.));
#478=DIRECTION('',(0.,-1.,0.));
#479=DIRECTION('',(0.,0.,-1.));
#480=DIRECTION('',(0.,-1.,0.));
#481=DIRECTION('',(1.,0.,0.));
#482=DIRECTION('',(0.,-1.,0.));
#483=DIRECTION('',(0.,0.,-1.));
#484=DIRECTION('',(0.,-1.,0.));
#485=DIRECTION('',(0.,0.,-1.));
#486=DIRECTION('',(0.,-1.,0.));
#487=DIRECTION('',(1.,0.,0.));
#488=DIRECTION('',(0.,-1.,0.));
#489=DIRECTION('',(1.,0.,0.));
#490=DIRECTION('',(0.,-1.,0.));
#491=DIRECTION('',(1.,0.,0.));
#492=DIRECTION('',(0.,-1.,0.));
#493=DIRECTION('',(0.,0.,-1.));
#494=DIRECTION('',(0.,-1.,0.));
#495=DIRECTION('',(0.,0.,-1.));
#496=DIRECTION('',(0.,-1.,0.));
#497=DIRECTION('',(0.,0.,-1.));
#498=DIRECTION('',(0.,-1.,0.));
#499=DIRECTION('',(0.,0.,-1.));
#500=CARTESIAN_POINT('',(0.,0.,0.));
#501=CARTESIAN_POINT('',(-0.0289999633836257,-0.006096,0.0304059048205989));
#502=CARTESIAN_POINT('',(-0.0289999633836257,-0.000254,0.0304059048205989));
#503=CARTESIAN_POINT('',(-0.0314632137582339,-0.006096,0.0308712208811265));
#504=CARTESIAN_POINT('',(-0.0314632137582339,-0.000254,0.0308712208811265));
#505=CARTESIAN_POINT('',(-0.0341644906586666,-0.006096,0.0308712216396685));
#506=CARTESIAN_POINT('',(-0.0341644906586666,-0.000254,0.0308712216396685));
#507=CARTESIAN_POINT('',(-0.0366277417591892,-0.006096,0.0304059069625452));
#508=CARTESIAN_POINT('',(-0.0366277417591892,-0.000254,0.0304059069625452));
#509=CARTESIAN_POINT('',(-0.0289999633836257,-0.00635,0.0304059048205989));
#510=CARTESIAN_POINT('',(-0.0289999633836257,-0.006096,0.0304059048205989));
#511=CARTESIAN_POINT('',(-0.0289999633836257,-0.000254,0.0304059048205989));
#512=CARTESIAN_POINT('',(-0.0289999633836258,-0.000254,0.0304059048205989));
#513=CARTESIAN_POINT('',(-0.0315184072552503,-0.000254,0.0308816471134183));
#514=CARTESIAN_POINT('',(-0.0341089516560809,-0.000254,0.03088171310481));
#515=CARTESIAN_POINT('',(-0.0366277417591892,-0.000254,0.0304059069625452));
#516=CARTESIAN_POINT('',(-0.0366277417591892,-0.000254,0.0304059069625452));
#517=CARTESIAN_POINT('',(-0.0366277417591892,-0.00635,0.0304059069625452));
#518=CARTESIAN_POINT('',(-0.0366277417591892,-0.006096,0.0304059069625452));
#519=CARTESIAN_POINT('',(-0.0366277417591892,-0.006096,0.0304059069625452));
#520=CARTESIAN_POINT('',(-0.034109297585268,-0.006096,0.0308816477578675));
#521=CARTESIAN_POINT('',(-0.0315187532250314,-0.006096,0.0308817124682426));
#522=CARTESIAN_POINT('',(-0.0289999633836257,-0.006096,0.0304059048205989));
#523=CARTESIAN_POINT('',(-0.0391677417591891,-0.00635,0.029491506962545));
#524=CARTESIAN_POINT('',(-0.0391677417591891,-0.000254,0.029491506962545));
#525=CARTESIAN_POINT('',(-0.0417077417591891,-0.000254,0.028577106962545));
#526=CARTESIAN_POINT('',(-0.0417077417591891,-0.00635,0.028577106962545));
#527=CARTESIAN_POINT('',(-0.0417077417591891,-0.006096,0.028577106962545));
#528=CARTESIAN_POINT('',(-0.0391677417591891,-0.006096,0.029491506962545));
#529=CARTESIAN_POINT('',(-0.0417077417591891,-0.006096,0.028577106962545));
#530=CARTESIAN_POINT('',(-0.0417077417591891,-0.000254000000000001,0.028577106962545));
#531=CARTESIAN_POINT('',(-0.0434950412929096,-0.006096,0.0275250636624394));
#532=CARTESIAN_POINT('',(-0.0434950412929096,-0.000254000000000001,0.0275250636624394));
#533=CARTESIAN_POINT('',(-0.0459976460943085,-0.006096,0.0247706134450208));
#534=CARTESIAN_POINT('',(-0.0459976460943085,-0.000254,0.0247706134450208));
#535=CARTESIAN_POINT('',(-0.0452760177062357,-0.006096,0.0200822113638918));
#536=CARTESIAN_POINT('',(-0.0452760177062357,-0.000254000000000001,0.0200822113638918));
#537=CARTESIAN_POINT('',(-0.0403197959433338,-0.006096,0.0164323364918956));
#538=CARTESIAN_POINT('',(-0.0403197959433338,-0.000253999999999997,0.0164323364918956));
#539=CARTESIAN_POINT('',(-0.0328138416418633,-0.006096,0.0150602641439078));
#540=CARTESIAN_POINT('',(-0.0328138416418633,-0.000254000000000002,0.0150602641439078));
#541=CARTESIAN_POINT('',(-0.0253078929796351,-0.006096,0.0164323475977055));
#542=CARTESIAN_POINT('',(-0.0253078929796351,-0.000254,0.0164323475977055));
#543=CARTESIAN_POINT('',(-0.0203516862177395,-0.006096,0.0200822298029191));
#544=CARTESIAN_POINT('',(-0.0203516862177395,-0.000253999999999998,0.0200822298029191));
#545=CARTESIAN_POINT('',(-0.0196300770990086,-0.006096,0.0247706329517556));
#546=CARTESIAN_POINT('',(-0.0196300770990086,-0.000254,0.0247706329517556));
#547=CARTESIAN_POINT('',(-0.0221326932211944,-0.006096,0.0275250794663104));
#548=CARTESIAN_POINT('',(-0.0221326932211944,-0.000254000000000001,0.0275250794663104));
#549=CARTESIAN_POINT('',(-0.023919997078809,-0.006096,0.0285771201219234));
#550=CARTESIAN_POINT('',(-0.023919997078809,-0.000254000000000001,0.0285771201219234));
#551=CARTESIAN_POINT('',(-0.0417077417591891,-0.000254,0.028577106962545));
#552=CARTESIAN_POINT('',(-0.0425456996966431,-0.000254,0.02808386673211));
#553=CARTESIAN_POINT('',(-0.0441052196052706,-0.000254,0.0269068355387323));
#554=CARTESIAN_POINT('',(-0.0453994733813587,-0.000254,0.0247727992549531));
#555=CARTESIAN_POINT('',(-0.0455819460114204,-0.000254,0.0228235487146383));
#556=CARTESIAN_POINT('',(-0.0451355829823689,-0.000254,0.0209065764449242));
#557=CARTESIAN_POINT('',(-0.0436374141014398,-0.000254,0.0189252936739162));
#558=CARTESIAN_POINT('',(-0.0412200187277226,-0.000254,0.0173085683136269));
#559=CARTESIAN_POINT('',(-0.0385254754811611,-0.000254,0.0162487963882528));
#560=CARTESIAN_POINT('',(-0.0357037700255729,-0.000254,0.0156482583640513));
#561=CARTESIAN_POINT('',(-0.0328003626611669,-0.000254,0.0154519067137838));
#562=CARTESIAN_POINT('',(-0.0299263319054004,-0.000254,0.0156498659272596));
#563=CARTESIAN_POINT('',(-0.0271305385082095,-0.000254,0.016240853178677));
#564=CARTESIAN_POINT('',(-0.0244125097462234,-0.000254,0.0173026111403855));
#565=CARTESIAN_POINT('',(-0.0223903878709431,-0.000254,0.0186624467585321));
#566=CARTESIAN_POINT('',(-0.0211053213200126,-0.000254,0.0200940922302054));
#567=CARTESIAN_POINT('',(-0.0203831565152572,-0.000254,0.0213781075043068));
#568=CARTESIAN_POINT('',(-0.0200467954776144,-0.000254,0.0228089770366012));
#569=CARTESIAN_POINT('',(-0.0202253311229278,-0.000254,0.0247733495746534));
#570=CARTESIAN_POINT('',(-0.021527721867254,-0.000254,0.0269110343774214));
#571=CARTESIAN_POINT('',(-0.0230811606907076,-0.000254,0.0280833652520222));
#572=CARTESIAN_POINT('',(-0.023919997078809,-0.000254,0.0285771201219233));
#573=CARTESIAN_POINT('',(-0.023919997078809,-0.000254,0.0285771201219233));
#574=CARTESIAN_POINT('',(-0.023919997078809,-0.00635,0.0285771201219233));
#575=CARTESIAN_POINT('',(-0.023919997078809,-0.006096,0.0285771201219233));
#576=CARTESIAN_POINT('',(-0.023919997078809,-0.006096,0.0285771201219233));
#577=CARTESIAN_POINT('',(-0.0230820381093274,-0.006096,0.0280838817171191));
#578=CARTESIAN_POINT('',(-0.0215225153639333,-0.006096,0.0269068543558764));
#579=CARTESIAN_POINT('',(-0.0202282526768225,-0.006096,0.0247728249723803));
#580=CARTESIAN_POINT('',(-0.0200457685994001,-0.006096,0.0228235751001657));
#581=CARTESIAN_POINT('',(-0.0204921210304517,-0.006096,0.0209066004350861));
#582=CARTESIAN_POINT('',(-0.0219902824445815,-0.006096,0.0189253113548496));
#583=CARTESIAN_POINT('',(-0.0244076741714741,-0.006096,0.0173085803098411));
#584=CARTESIAN_POINT('',(-0.0271022162052555,-0.006096,0.0162488036827805));
#585=CARTESIAN_POINT('',(-0.0299239203307375,-0.006096,0.0156482619628825));
#586=CARTESIAN_POINT('',(-0.0328273278178074,-0.006096,0.0154519066903421));
#587=CARTESIAN_POINT('',(-0.0357013585704479,-0.006096,0.015649862358855));
#588=CARTESIAN_POINT('',(-0.0384971528474374,-0.006096,0.0162408458444349));
#589=CARTESIAN_POINT('',(-0.0412151830926302,-0.006096,0.0173025990917196));
#590=CARTESIAN_POINT('',(-0.0432373083260609,-0.006096,0.0186624302079354));
#591=CARTESIAN_POINT('',(-0.0445223791643138,-0.006096,0.0200940704195702));
#592=CARTESIAN_POINT('',(-0.0452445499842692,-0.006096,0.0213780825048791));
#593=CARTESIAN_POINT('',(-0.0455809190458481,-0.006096,0.0228089503221261));
#594=CARTESIAN_POINT('',(-0.0454023949452713,-0.006096,0.02477332378919));
#595=CARTESIAN_POINT('',(-0.0441000138298721,-0.006096,0.0269110147964724));
#596=CARTESIAN_POINT('',(-0.0425465771599127,-0.006096,0.0280833502381836));
#597=CARTESIAN_POINT('',(-0.0417077417591891,-0.006096,0.028577106962545));
#598=CARTESIAN_POINT('',(-0.0332628710468963,-0.00635,0.0266749589974051));
#599=CARTESIAN_POINT('',(-0.0332628710468963,-0.006096,0.0266749589974051));
#600=CARTESIAN_POINT('',(-0.0328138582408428,-0.006096,0.0262259461913516));
#601=CARTESIAN_POINT('',(-0.0337118838529498,-0.006096,0.0271239718034585));
#602=CARTESIAN_POINT('',(-0.0328138582408428,-0.00635,0.0262259461913516));
#603=CARTESIAN_POINT('',(-0.0328138582408428,-0.00635,0.0262259461913516));
#604=CARTESIAN_POINT('',(-0.0332628710468963,-0.00635,0.0266749589974051));
#605=CARTESIAN_POINT('',(-0.0337118838529498,-0.00635,0.0271239718034585));
#606=CARTESIAN_POINT('',(-0.0337118838529498,-0.00635,0.0271239718034585));
#607=CARTESIAN_POINT('',(-0.0323648459797917,-0.00635,0.0266749595424068));
#608=CARTESIAN_POINT('',(-0.0323648459797917,-0.006096,0.0266749595424068));
#609=CARTESIAN_POINT('',(-0.0319158337187405,-0.006096,0.0271239728934619));
#610=CARTESIAN_POINT('',(-0.0319158337187405,-0.00635,0.0271239728934619));
#611=CARTESIAN_POINT('',(-0.0319158337187405,-0.00635,0.0271239728934619));
#612=CARTESIAN_POINT('',(-0.0323648459797917,-0.00635,0.0266749595424068));
#613=CARTESIAN_POINT('',(-0.0317362285963191,-0.00635,0.0269443677710405));
#614=CARTESIAN_POINT('',(-0.0317362285963191,-0.006096,0.0269443677710405));
#615=CARTESIAN_POINT('',(-0.0315566234738977,-0.006096,0.0267647626486191));
#616=CARTESIAN_POINT('',(-0.0315566234738977,-0.00635,0.0267647626486191));
#617=CARTESIAN_POINT('',(-0.0315566234738977,-0.00635,0.0267647626486191));
#618=CARTESIAN_POINT('',(-0.0317362285963191,-0.00635,0.0269443677710405));
#619=CARTESIAN_POINT('',(-0.0321852408573702,-0.00635,0.0261361441751427));
#620=CARTESIAN_POINT('',(-0.0321852408573702,-0.006096,0.0261361441751427));
#621=CARTESIAN_POINT('',(-0.0328138582408428,-0.006096,0.0255075257016662));
#622=CARTESIAN_POINT('',(-0.0328138582408428,-0.00635,0.0255075257016662));
#623=CARTESIAN_POINT('',(-0.0328138582408428,-0.00635,0.0255075257016662));
#624=CARTESIAN_POINT('',(-0.0321852408573702,-0.00635,0.0261361441751427));
#625=CARTESIAN_POINT('',(-0.0334424761693176,-0.00635,0.0261361436301409));
#626=CARTESIAN_POINT('',(-0.0334424761693176,-0.006096,0.0261361436301409));
#627=CARTESIAN_POINT('',(-0.0340710940977925,-0.006096,0.0267647615586157));
#628=CARTESIAN_POINT('',(-0.0340710940977925,-0.00635,0.0267647615586157));
#629=CARTESIAN_POINT('',(-0.0340710940977925,-0.00635,0.0267647615586157));
#630=CARTESIAN_POINT('',(-0.0334424761693176,-0.00635,0.0261361436301409));
#631=CARTESIAN_POINT('',(-0.0270848886284298,-0.00635,0.0319273241826087));
#632=CARTESIAN_POINT('',(-0.0270848886284298,-0.006096,0.0319273241826087));
#633=CARTESIAN_POINT('',(-0.0278820264369221,-0.00635,0.0315365699078315));
#634=CARTESIAN_POINT('',(-0.0278820264369221,-0.006096,0.0315365699078315));
#635=CARTESIAN_POINT('',(-0.0275916022598006,-0.00635,0.0306976590744721));
#636=CARTESIAN_POINT('',(-0.0275916022598006,-0.006096,0.0306976590744721));
#637=CARTESIAN_POINT('',(-0.026383742641182,-0.00635,0.0299020142710907));
#638=CARTESIAN_POINT('',(-0.026383742641182,-0.006096,0.0299020142710907));
#639=CARTESIAN_POINT('',(-0.0249659953642103,-0.00635,0.0296157134326764));
#640=CARTESIAN_POINT('',(-0.0249659953642103,-0.006096,0.0296157134326764));
#641=CARTESIAN_POINT('',(-0.024168857555718,-0.00635,0.0300064677074536));
#642=CARTESIAN_POINT('',(-0.024168857555718,-0.006096,0.0300064677074536));
#643=CARTESIAN_POINT('',(-0.0244592817328395,-0.00635,0.030845378540813));
#644=CARTESIAN_POINT('',(-0.0244592817328395,-0.006096,0.030845378540813));
#645=CARTESIAN_POINT('',(-0.0256671413514581,-0.00635,0.0316410233441944));
#646=CARTESIAN_POINT('',(-0.0256671413514581,-0.006096,0.0316410233441944));
#647=CARTESIAN_POINT('',(-0.0270848886284298,-0.00635,0.0319273241826087));
#648=CARTESIAN_POINT('',(-0.0270848886284298,-0.006096,0.0319273241826087));
#649=CARTESIAN_POINT('',(-0.0278820264369221,-0.00635,0.0315365699078315));
#650=CARTESIAN_POINT('',(-0.0278820264369221,-0.006096,0.0315365699078315));
#651=CARTESIAN_POINT('',(-0.0275916022598006,-0.00635,0.0306976590744721));
#652=CARTESIAN_POINT('',(-0.0275916022598006,-0.006096,0.0306976590744721));
#653=CARTESIAN_POINT('',(-0.0260254419963201,-0.006096,0.0307715188076426));
#654=CARTESIAN_POINT('',(-0.0277007661059864,-0.006096,0.0314618771480678));
#655=CARTESIAN_POINT('',(-0.0260254419963201,-0.00635,0.0307715188076426));
#656=CARTESIAN_POINT('',(-0.0277007661059864,-0.00635,0.0314618771480678));
#657=CARTESIAN_POINT('',(-0.0264599802312174,-0.00635,0.0294915124712611));
#658=CARTESIAN_POINT('',(-0.0264599802312174,-0.000254,0.0294915124712611));
#659=CARTESIAN_POINT('',(-0.0264599802312174,-0.006096,0.0294915124712611));
#660=CARTESIAN_POINT('',(-0.0338914889753711,-0.00635,0.0269443666810371));
#661=CARTESIAN_POINT('',(-0.0338914889753711,-0.006096,0.0269443666810371));
#662=CARTESIAN_POINT('',(-0.0338914889753711,-0.00635,0.0269443666810371));
#663=CARTESIAN_POINT('',(-0.0380035920417613,-0.00635,0.0305231326443554));
#664=CARTESIAN_POINT('',(-0.0380035920417613,-0.006096,0.0305231326443554));
#665=CARTESIAN_POINT('',(-0.0376441210594245,-0.00635,0.031334858091685));
#666=CARTESIAN_POINT('',(-0.0376441210594245,-0.006096,0.031334858091685));
#667=CARTESIAN_POINT('',(-0.0384058403757711,-0.00635,0.0317908200112451));
#668=CARTESIAN_POINT('',(-0.0384058403757711,-0.006096,0.0317908200112451));
#669=CARTESIAN_POINT('',(-0.0398425451460068,-0.00635,0.0316239220944832));
#670=CARTESIAN_POINT('',(-0.0398425451460068,-0.006096,0.0316239220944832));
#671=CARTESIAN_POINT('',(-0.0411126332008535,-0.00635,0.0309319308775066));
#672=CARTESIAN_POINT('',(-0.0411126332008535,-0.006096,0.0309319308775066));
#673=CARTESIAN_POINT('',(-0.0414721041831903,-0.00635,0.0301202054301771));
#674=CARTESIAN_POINT('',(-0.0414721041831903,-0.006096,0.0301202054301771));
#675=CARTESIAN_POINT('',(-0.0407103848668437,-0.00635,0.0296642435106169));
#676=CARTESIAN_POINT('',(-0.0407103848668437,-0.006096,0.0296642435106169));
#677=CARTESIAN_POINT('',(-0.0392736800966081,-0.00635,0.0298311414273788));
#678=CARTESIAN_POINT('',(-0.0392736800966081,-0.006096,0.0298311414273788));
#679=CARTESIAN_POINT('',(-0.0380035920417613,-0.00635,0.0305231326443554));
#680=CARTESIAN_POINT('',(-0.0380035920417613,-0.006096,0.0305231326443554));
#681=CARTESIAN_POINT('',(-0.0376441210594245,-0.00635,0.031334858091685));
#682=CARTESIAN_POINT('',(-0.0376441210594245,-0.006096,0.031334858091685));
#683=CARTESIAN_POINT('',(-0.0384058403757711,-0.00635,0.0317908200112451));
#684=CARTESIAN_POINT('',(-0.0384058403757711,-0.006096,0.0317908200112451));
#685=CARTESIAN_POINT('',(-0.0395581126213074,-0.006096,0.030727531760931));
#686=CARTESIAN_POINT('',(-0.0378309861092051,-0.006096,0.0312755641703901));
#687=CARTESIAN_POINT('',(-0.0395581126213074,-0.00635,0.030727531760931));
#688=CARTESIAN_POINT('',(-0.0378309861092051,-0.00635,0.0312755641703901));
#689=CARTESIAN_POINT('',(-0.0328138582408428,-0.00635,0.0238543547573399));
#690=CARTESIAN_POINT('',(-0.0264599802312174,-0.00635,0.0294915124712611));
#691=CARTESIAN_POINT('',(-0.0242389929502259,-0.00635,0.0284678023252769));
#692=CARTESIAN_POINT('',(-0.0288252431426499,-0.00635,0.0301130414932053));
#693=CARTESIAN_POINT('',(-0.0288252431426499,-0.00635,0.0301130414932054));
#694=CARTESIAN_POINT('',(-0.0314557840050954,-0.00635,0.0306424475810973));
#695=CARTESIAN_POINT('',(-0.0341724661501393,-0.00635,0.0306423384773993));
#696=CARTESIAN_POINT('',(-0.0368024618344775,-0.00635,0.0301130438085366));
#697=CARTESIAN_POINT('',(-0.0368024618344775,-0.00635,0.0301130438085366));
#698=CARTESIAN_POINT('',(-0.0391677417591891,-0.00635,0.029491506962545));
#699=CARTESIAN_POINT('',(-0.0413887460354117,-0.00635,0.0284677896294056));
#700=CARTESIAN_POINT('',(-0.0413887460354117,-0.00635,0.0284677896294056));
#701=CARTESIAN_POINT('',(-0.0422198105863731,-0.00635,0.0279989335455791));
#702=CARTESIAN_POINT('',(-0.0437607782310803,-0.00635,0.0268885901955041));
#703=CARTESIAN_POINT('',(-0.0451102931201539,-0.00635,0.0248314073437777));
#704=CARTESIAN_POINT('',(-0.0453344058311284,-0.00635,0.0229068236074234));
#705=CARTESIAN_POINT('',(-0.0450200436988431,-0.00635,0.0214985514601267));
#706=CARTESIAN_POINT('',(-0.0443123974337847,-0.00635,0.0202371918243939));
#707=CARTESIAN_POINT('',(-0.0430478080386459,-0.00635,0.0188366683224046));
#708=CARTESIAN_POINT('',(-0.0410585253931959,-0.00635,0.0175103506487079));
#709=CARTESIAN_POINT('',(-0.0383902240037286,-0.00635,0.0164762243908481));
#710=CARTESIAN_POINT('',(-0.0356475084989181,-0.00635,0.0159005805540819));
#711=CARTESIAN_POINT('',(-0.0328282662298225,-0.00635,0.0157076406603762));
#712=CARTESIAN_POINT('',(-0.0299807835806272,-0.00635,0.015898610970678));
#713=CARTESIAN_POINT('',(-0.0272115978971026,-0.00635,0.0164833795436976));
#714=CARTESIAN_POINT('',(-0.0245667458819256,-0.00635,0.0175150951797969));
#715=CARTESIAN_POINT('',(-0.0221892263220265,-0.00635,0.0190906182972472));
#716=CARTESIAN_POINT('',(-0.0207109337087213,-0.00635,0.0210314193986802));
#717=CARTESIAN_POINT('',(-0.0202927502408689,-0.00635,0.02291901781377));
#718=CARTESIAN_POINT('',(-0.0204622454196701,-0.00635,0.0243490874611579));
#719=CARTESIAN_POINT('',(-0.0210581579175543,-0.00635,0.0256602833300098));
#720=CARTESIAN_POINT('',(-0.0222414605551997,-0.00635,0.0271519942563927));
#721=CARTESIAN_POINT('',(-0.0234084968731376,-0.00635,0.027999269284829));
#722=CARTESIAN_POINT('',(-0.024238992950226,-0.00635,0.0284678023252769));
#723=CARTESIAN_POINT('',(-0.0328138582408428,0.,0.0238543547573399));
#724=CARTESIAN_POINT('',(-0.0368024618344764,0.,0.0301130438085369));
#725=CARTESIAN_POINT('',(-0.0341719206667569,0.,0.0306424482575969));
#726=CARTESIAN_POINT('',(-0.031455238479557,0.,0.0306423377920629));
#727=CARTESIAN_POINT('',(-0.0288252431426499,0.,0.0301130414932054));
#728=CARTESIAN_POINT('',(-0.0368024618344775,0.,0.0301130438085366));
#729=CARTESIAN_POINT('',(-0.0288252431426499,0.,0.0301130414932054));
#730=CARTESIAN_POINT('',(-0.0264599802312174,0.,0.0294915124712611));
#731=CARTESIAN_POINT('',(-0.0242389929502259,0.,0.0284678023252769));
#732=CARTESIAN_POINT('',(-0.024238992950226,0.,0.0284678023252769));
#733=CARTESIAN_POINT('',(-0.0234079274848824,0.,0.0279989480584949));
#734=CARTESIAN_POINT('',(-0.0218669579149132,2.40046633077708E-19,0.0268886091420696));
#735=CARTESIAN_POINT('',(-0.0205174338242587,1.53023388400431E-19,0.0248314327952086));
#736=CARTESIAN_POINT('',(-0.0202933091884045,1.6443955188216E-19,0.0229068503895057));
#737=CARTESIAN_POINT('',(-0.0206076629174608,1.6214631843745E-19,0.0214985765212752));
#738=CARTESIAN_POINT('',(-0.0213153030313339,1.62757129604994E-19,0.020237213580031));
#739=CARTESIAN_POINT('',(-0.0225798881117103,1.62557114637706E-19,0.0188366847713441));
#740=CARTESIAN_POINT('',(-0.0245691674399731,1.62655208328058E-19,0.0175103626010371));
#741=CARTESIAN_POINT('',(-0.0272374673716279,1.62623626025084E-19,0.0164762316640923));
#742=CARTESIAN_POINT('',(-0.0299801820191874,1.62632242808559E-19,0.0159005840924014));
#743=CARTESIAN_POINT('',(-0.0327994242868132,1.62629357977635E-19,0.0157076406853439));
#744=CARTESIAN_POINT('',(-0.0356469068193734,1.62632280517854E-19,0.0158986074049082));
#745=CARTESIAN_POINT('',(-0.0384160938239875,1.62623475187903E-19,0.016483372319967));
#746=CARTESIAN_POINT('',(-0.0410609470007753,1.62655773967488E-19,0.0175150832733137));
#747=CARTESIAN_POINT('',(-0.0434384702018362,1.62535384179099E-19,0.0190906007746468));
#748=CARTESIAN_POINT('',(-0.0449167702839567,1.62909767824076E-19,0.0210313953873035));
#749=CARTESIAN_POINT('',(-0.045334964880673,1.6214631869932E-19,0.0229189914276349));
#750=CARTESIAN_POINT('',(-0.0451654784114782,1.64477774896787E-19,0.0243490619489591));
#751=CARTESIAN_POINT('',(-0.0445695727097042,1.55724536950488E-19,0.0256602608066258));
#752=CARTESIAN_POINT('',(-0.043386275339293,1.99299864400794E-19,0.027151976919999));
#753=CARTESIAN_POINT('',(-0.0422192411515277,0.,0.0279992547997961));
#754=CARTESIAN_POINT('',(-0.0413887460354117,0.,0.0284677896294056));
#755=CARTESIAN_POINT('',(-0.0413887460354117,0.,0.0284677896294056));
#756=CARTESIAN_POINT('',(-0.0391677417591891,0.,0.029491506962545));
#757=CARTESIAN_POINT('',(-0.0328138582408428,-0.006096,0.0238543547573399));
#758=CARTESIAN_POINT('',(-0.0328138582408428,-0.006096,0.0238543547573399));
#759=CARTESIAN_POINT('',(-0.0328138582408428,-0.006096,0.0238543547573399));
#760=CARTESIAN_POINT('',(-0.0391677417591891,-0.000254,0.029491506962545));
#761=CARTESIAN_POINT('',(-0.0366277417591892,-0.000254,0.0304059069625452));
#762=CARTESIAN_POINT('',(-0.0366277417591892,-9.51596997117209E-5,0.0304059069625452));
#763=CARTESIAN_POINT('',(-0.0367198063278696,2.68800926845077E-17,0.0302456401388916));
#764=CARTESIAN_POINT('',(-0.0368024618344786,1.59473959602332E-19,0.0301130438085363));
#765=CARTESIAN_POINT('',(-0.0417077417591891,-0.000254,0.028577106962545));
#766=CARTESIAN_POINT('',(-0.0417077417591891,-9.6263166073612E-5,0.028577106962545));
#767=CARTESIAN_POINT('',(-0.0415363993611742,-3.4740211955972E-18,0.028515542902857));
#768=CARTESIAN_POINT('',(-0.0413887460354117,1.59473826566781E-19,0.0284677896294056));
#769=CARTESIAN_POINT('',(-0.0411497309834942,1.62630325872826E-19,0.0285991560307354));
#770=CARTESIAN_POINT('',(-0.0412696230441925,1.62630325872826E-19,0.028823079887842));
#771=CARTESIAN_POINT('',(-0.0412696230441925,-0.000254,0.028823079887842));
#772=CARTESIAN_POINT('',(-0.0419953018646826,1.62630325872826E-19,0.0281464251961952));
#773=CARTESIAN_POINT('',(-0.0421322698052807,1.62630325872826E-19,0.0283612063812967));
#774=CARTESIAN_POINT('',(-0.042132269803871,-0.000254,0.0283612063786547));
#775=CARTESIAN_POINT('',(-0.0431957624963717,1.62630325872826E-19,0.0273208581769762));
#776=CARTESIAN_POINT('',(-0.0433619581932526,-7.38719289997158E-18,0.027517158646141));
#777=CARTESIAN_POINT('',(-0.0433619581935705,-0.000254,0.0275171586467368));
#778=CARTESIAN_POINT('',(-0.0444424470352755,1.62630325872826E-19,0.0258567980313256));
#779=CARTESIAN_POINT('',(-0.0446541575859014,1.2745669035614E-17,0.0260012716797175));
#780=CARTESIAN_POINT('',(-0.0446541575858416,-0.000254,0.0260012716796053));
#781=CARTESIAN_POINT('',(-0.0451025924601636,1.62630325872826E-19,0.0245561281121773));
#782=CARTESIAN_POINT('',(-0.0453468365294045,-1.4659042232607E-18,0.0246393280731615));
#783=CARTESIAN_POINT('',(-0.0453468365294205,-0.000254,0.0246393280731915));
#784=CARTESIAN_POINT('',(-0.0453422392287024,1.62630325872826E-19,0.0231157899201399));
#785=CARTESIAN_POINT('',(-0.0456013323893018,5.98942847579095E-19,0.0231144461556081));
#786=CARTESIAN_POINT('',(-0.0456013323892975,-0.000254,0.0231144461556001));
#787=CARTESIAN_POINT('',(-0.0450872609871164,1.62630325872826E-19,0.0216739014259907));
#788=CARTESIAN_POINT('',(-0.0453306243296866,4.59147881812776E-20,0.0215882794483758));
#789=CARTESIAN_POINT('',(-0.0453306243296877,-0.000254,0.021588279448378));
#790=CARTESIAN_POINT('',(-0.0444155790627621,1.62630325872826E-19,0.0203790126327663));
#791=CARTESIAN_POINT('',(-0.0446261427770959,1.93179954932748E-19,0.0202329373572467));
#792=CARTESIAN_POINT('',(-0.0446261427770956,-0.000254,0.0202329373572462));
#793=CARTESIAN_POINT('',(-0.0431543687286838,1.62630325872826E-19,0.018919234012695));
#794=CARTESIAN_POINT('',(-0.0433193542473364,1.45136478121996E-19,0.0187220056924381));
#795=CARTESIAN_POINT('',(-0.0433193542473365,-0.000254,0.0187220056924384));
#796=CARTESIAN_POINT('',(-0.041158512084183,1.62630325872826E-19,0.0175608941580606));
#797=CARTESIAN_POINT('',(-0.0412754384044922,1.67326810330684E-19,0.0173333560550576));
#798=CARTESIAN_POINT('',(-0.0412754384044921,-0.000254,0.0173333560550575));
#799=CARTESIAN_POINT('',(-0.0384864191165079,1.62630325872826E-19,0.0165024161824039));
#800=CARTESIAN_POINT('',(-0.0385589499673401,1.65776302233961E-19,0.0162577821056744));
#801=CARTESIAN_POINT('',(-0.0385589499673401,-0.000254,0.0162577821056744));
#802=CARTESIAN_POINT('',(-0.035685958891649,1.62630325872826E-19,0.0159022695523318));
#803=CARTESIAN_POINT('',(-0.0357208316907346,1.45349935970428E-19,0.0156498239987591));
#804=CARTESIAN_POINT('',(-0.0357208316907345,-0.000254,0.0156498239987591));
#805=CARTESIAN_POINT('',(-0.0328033706674631,1.62630325872826E-19,0.0157060794668194));
#806=CARTESIAN_POINT('',(-0.0328032472068202,2.28605909121283E-19,0.0154512989552238));
#807=CARTESIAN_POINT('',(-0.0328032472068202,-0.000254,0.0154512989552238));
#808=CARTESIAN_POINT('',(-0.0299500985808011,1.62630325872826E-19,0.0159031577467884));
#809=CARTESIAN_POINT('',(-0.0299153114141061,-8.39916172186068E-20,0.015650725401414));
#810=CARTESIAN_POINT('',(-0.0299153114141061,-0.000254,0.015650725401414));
#811=CARTESIAN_POINT('',(-0.0271747355072515,1.62630325872826E-19,0.016492438145955));
#812=CARTESIAN_POINT('',(-0.0271026948789484,1.0831425149901E-18,0.0162476690988693));
#813=CARTESIAN_POINT('',(-0.0271026948789484,-0.000254,0.0162476690988694));
#814=CARTESIAN_POINT('',(-0.0244777854823248,1.62630325872826E-19,0.0175543920319884));
#815=CARTESIAN_POINT('',(-0.0243610721187918,2.5818952439169E-18,0.0173266979038956));
#816=CARTESIAN_POINT('',(-0.0243610721187918,-0.000254,0.0173266979038955));
#817=CARTESIAN_POINT('',(-0.022480171612983,1.62630325872826E-19,0.0189153279533254));
#818=CARTESIAN_POINT('',(-0.0223153445933447,-1.3395244522318E-19,0.0187180477725329));
#819=CARTESIAN_POINT('',(-0.0223153445933444,-0.000254,0.0187180477725334));
#820=CARTESIAN_POINT('',(-0.0212235733574631,1.62630325872826E-19,0.0203626742151842));
#821=CARTESIAN_POINT('',(-0.0210134814730998,2.12626330236825E-19,0.0202159478376112));
#822=CARTESIAN_POINT('',(-0.0210134814731003,-0.000254,0.0202159478376103));
#823=CARTESIAN_POINT('',(-0.0205454974012471,1.62630325872826E-19,0.0216597340279298));
#824=CARTESIAN_POINT('',(-0.020302433155542,1.72584385647832E-19,0.021573349585867));
#825=CARTESIAN_POINT('',(-0.0203024331555403,-0.000254,0.0215733495858701));
#826=CARTESIAN_POINT('',(-0.0202852937137021,1.62630325872826E-19,0.0230967537141788));
#827=CARTESIAN_POINT('',(-0.0200261889232645,7.28180824088004E-20,0.0230942579657816));
#828=CARTESIAN_POINT('',(-0.0200261889232708,-0.000254,0.0230942579657698));
#829=CARTESIAN_POINT('',(-0.0205215120133373,1.62630325872826E-19,0.0245474316099697));
#830=CARTESIAN_POINT('',(-0.0202770562903415,1.86664588208269E-19,0.0246301782277793));
#831=CARTESIAN_POINT('',(-0.0202770562903178,-0.000254,0.0246301782278237));
#832=CARTESIAN_POINT('',(-0.0211800880855523,1.62630325872826E-19,0.0258501229903969));
#833=CARTESIAN_POINT('',(-0.0209681826671775,1.56305519995077E-19,0.0259943463947381));
#834=CARTESIAN_POINT('',(-0.0209681826672659,-0.000254,0.0259943463945727));
#835=CARTESIAN_POINT('',(-0.022437260390776,1.62630325872826E-19,0.0273268539277527));
#836=CARTESIAN_POINT('',(-0.0222712470268718,1.66425209399475E-19,0.0275233657631624));
#837=CARTESIAN_POINT('',(-0.0222712470264026,-0.000254,0.027523365764041));
#838=CARTESIAN_POINT('',(-0.0236308364441852,1.62630325872826E-19,0.028145725900883));
#839=CARTESIAN_POINT('',(-0.0234938403411615,1.62630325872826E-19,0.0283604949487334));
#840=CARTESIAN_POINT('',(-0.0234938403432424,-0.000254,0.028360494944837));
#841=CARTESIAN_POINT('',(-0.0244794664932515,1.62630325872826E-19,0.0285999488496001));
#842=CARTESIAN_POINT('',(-0.0243596043372673,1.62630325872826E-19,0.0288238887155526));
#843=CARTESIAN_POINT('',(-0.0243596043372673,-0.000254,0.0288238887155526));
#844=CARTESIAN_POINT('',(-0.023919997078809,-0.000254,0.0285771201219233));
#845=CARTESIAN_POINT('',(-0.023919997078809,-9.62630800463271E-5,0.0285771201219233));
#846=CARTESIAN_POINT('',(-0.0240913395900942,3.4808580035726E-18,0.0285155557642467));
#847=CARTESIAN_POINT('',(-0.024238992950226,1.59473961000651E-19,0.0284678023252769));
#848=CARTESIAN_POINT('',(-0.0287780042067467,1.62630325872826E-19,0.0301034717114089));
#849=CARTESIAN_POINT('',(-0.0287272546310865,1.62630325872826E-19,0.03035235015678));
#850=CARTESIAN_POINT('',(-0.0287272546310865,-0.000254,0.03035235015678));
#851=CARTESIAN_POINT('',(-0.0301054277572502,1.62630325872826E-19,0.0303741507635367));
#852=CARTESIAN_POINT('',(-0.030072570702751,-4.77201281596742E-16,0.030626677728372));
#853=CARTESIAN_POINT('',(-0.0300725707025532,-0.000254,0.0306266777292381));
#854=CARTESIAN_POINT('',(-0.0328416693938623,1.62630325872826E-19,0.030634183683728));
#855=CARTESIAN_POINT('',(-0.0328419998883715,-2.05354462026468E-15,0.0308896714358672));
#856=CARTESIAN_POINT('',(-0.0328419998881707,-0.000254,0.0308896714346097));
#857=CARTESIAN_POINT('',(-0.0355329339348282,1.62630325872826E-19,0.0303719493974453));
#858=CARTESIAN_POINT('',(-0.0355659348693841,4.58494104342957E-15,0.0306244466095252));
#859=CARTESIAN_POINT('',(-0.0355659348699834,-0.000254,0.0306244466111743));
#860=CARTESIAN_POINT('',(-0.0368492993442938,1.62630325872826E-19,0.0301035559085681));
#861=CARTESIAN_POINT('',(-0.0369000433540676,-3.25260651745651E-18,0.0303524354888315));
#862=CARTESIAN_POINT('',(-0.0369000433540676,-0.000254,0.0303524354888315));
#863=CARTESIAN_POINT('',(-0.0289999633836258,-0.000254,0.0304059048205989));
#864=CARTESIAN_POINT('',(-0.0289999633836258,-9.51596297555131E-5,0.0304059048205989));
#865=CARTESIAN_POINT('',(-0.0289078987317342,5.15921006451151E-18,0.0302456378523779));
#866=CARTESIAN_POINT('',(-0.0288252431426499,1.59473960977599E-19,0.0301130414932054));
#867=CARTESIAN_POINT('',(-0.0264599802312174,-0.000254,0.0294915124712611));
#868=CARTESIAN_POINT('',(-0.0391677417591891,-0.006096,0.029491506962545));
#869=CARTESIAN_POINT('',(-0.0366277417591892,-0.006096,0.0304059069625452));
#870=CARTESIAN_POINT('',(-0.0366277417591892,-0.006254840300288,0.0304059069625452));
#871=CARTESIAN_POINT('',(-0.0367198063278995,-0.00635000000000002,0.0302456401389109));
#872=CARTESIAN_POINT('',(-0.0368024618344776,-0.00635,0.0301130438085366));
#873=CARTESIAN_POINT('',(-0.0417077417591891,-0.006096,0.028577106962545));
#874=CARTESIAN_POINT('',(-0.0417077417591891,-0.00625373683392653,0.028577106962545));
#875=CARTESIAN_POINT('',(-0.041536399361179,-0.00635000000000002,0.0285155429028413));
#876=CARTESIAN_POINT('',(-0.0413887460354112,-0.00635,0.0284677896294058));
#877=CARTESIAN_POINT('',(-0.0244780083061018,-0.00635,0.0285991682423892));
#878=CARTESIAN_POINT('',(-0.024358116705997,-0.00635,0.0288230923461036));
#879=CARTESIAN_POINT('',(-0.024358116705997,-0.006096,0.0288230923461036));
#880=CARTESIAN_POINT('',(-0.0236324363770123,-0.00635,0.0281464390846553));
#881=CARTESIAN_POINT('',(-0.0234954689328077,-0.00635,0.0283612205807099));
#882=CARTESIAN_POINT('',(-0.0234954689342171,-0.006096,0.0283612205780808));
#883=CARTESIAN_POINT('',(-0.0224319739550784,-0.00635,0.0273208750496292));
#884=CARTESIAN_POINT('',(-0.0222657788357781,-0.00635,0.0275171759671295));
#885=CARTESIAN_POINT('',(-0.0222657788354603,-0.006096,0.0275171759677224));
#886=CARTESIAN_POINT('',(-0.0211852842582904,-0.00635,0.0258568197244438));
#887=CARTESIAN_POINT('',(-0.0209735743379194,-0.00635,0.0260012942515789));
#888=CARTESIAN_POINT('',(-0.0209735743379793,-0.006096,0.0260012942514672));
#889=CARTESIAN_POINT('',(-0.0205251324853937,-0.00635,0.0245561530538058));
#890=CARTESIAN_POINT('',(-0.0202808889053448,-0.00635,0.0246393543538391));
#891=CARTESIAN_POINT('',(-0.0202808889053287,-0.006096,0.024639354353869));
#892=CARTESIAN_POINT('',(-0.0202854771298006,-0.00635,0.0231158161307482));
#893=CARTESIAN_POINT('',(-0.0200263839606072,-0.00635,0.0231144739747946));
#894=CARTESIAN_POINT('',(-0.0200263839606115,-0.006096,0.0231144739747866));
#895=CARTESIAN_POINT('',(-0.0205404467324111,-0.00635,0.0216739263406962));
#896=CARTESIAN_POINT('',(-0.0202970828884957,-0.00635,0.0215883056894049));
#897=CARTESIAN_POINT('',(-0.0202970828884945,-0.006096,0.021588305689407));
#898=CARTESIAN_POINT('',(-0.0212121226207861,-0.00635,0.0203790339602434));
#899=CARTESIAN_POINT('',(-0.0210015582828726,-0.00635,0.0202329595403181));
#900=CARTESIAN_POINT('',(-0.0210015582828729,-0.006096,0.0202329595403176));
#901=CARTESIAN_POINT('',(-0.0224733274311588,-0.00635,0.0189192510786994));
#902=CARTESIAN_POINT('',(-0.0223083413288248,-0.00635,0.0187220232108244));
#903=CARTESIAN_POINT('',(-0.0223083413288247,-0.006096,0.0187220232108247));
#904=CARTESIAN_POINT('',(-0.0244691811401604,-0.00635,0.0175609060403261));
#905=CARTESIAN_POINT('',(-0.0243522543731582,-0.00635,0.0173333681528591));
#906=CARTESIAN_POINT('',(-0.0243522543731583,-0.006096,0.017333368152859));
#907=CARTESIAN_POINT('',(-0.0271412728269615,-0.00635,0.0165024234718255));
#908=CARTESIAN_POINT('',(-0.0270687416162861,-0.00635,0.0162577894978117));
#909=CARTESIAN_POINT('',(-0.0270687416162861,-0.006096,0.0162577894978117));
#910=CARTESIAN_POINT('',(-0.0299417317684894,-0.00635,0.015902273122812));
#911=CARTESIAN_POINT('',(-0.0299068586453829,-0.00635,0.015649827612485));
#912=CARTESIAN_POINT('',(-0.0299068586453829,-0.006096,0.015649827612485));
#913=CARTESIAN_POINT('',(-0.032824320135587,-0.00635,0.0157060794481536));
#914=CARTESIAN_POINT('',(-0.0328244432895702,-0.00635,0.0154512989364176));
#915=CARTESIAN_POINT('',(-0.0328244432895702,-0.006096,0.0154512989364176));
#916=CARTESIAN_POINT('',(-0.0356775922449595,-0.00635,0.0159031542097653));
#917=CARTESIAN_POINT('',(-0.035712379089537,-0.00635,0.0156507218212063));
#918=CARTESIAN_POINT('',(-0.035712379089537,-0.006096,0.0156507218212063));
#919=CARTESIAN_POINT('',(-0.0384529562231289,-0.00635,0.0164924308839152));
#920=CARTESIAN_POINT('',(-0.0385249964902678,-0.00635,0.0162476617358106));
#921=CARTESIAN_POINT('',(-0.0385249964902679,-0.006096,0.0162476617358107));
#922=CARTESIAN_POINT('',(-0.0411499077468271,-0.00635,0.0175543800503664));
#923=CARTESIAN_POINT('',(-0.0412666206612979,-0.00635,0.0173266857018961));
#924=CARTESIAN_POINT('',(-0.0412666206612978,-0.006096,0.0173266857018959));
#925=CARTESIAN_POINT('',(-0.043147525077884,-0.00635,0.0189153115369235));
#926=CARTESIAN_POINT('',(-0.0433123515339585,-0.00635,0.0187180309270293));
#927=CARTESIAN_POINT('',(-0.0433123515339588,-0.006096,0.0187180309270298));
#928=CARTESIAN_POINT('',(-0.0444041277737864,-0.00635,0.0203626522893833));
#929=CARTESIAN_POINT('',(-0.0446142190153487,-0.00635,0.0202159250362909));
#930=CARTESIAN_POINT('',(-0.0446142190153483,-0.006096,0.02021592503629));
#931=CARTESIAN_POINT('',(-0.0450822102290087,-0.00635,0.021659708956911));
#932=CARTESIAN_POINT('',(-0.0453252739678817,-0.00635,0.0215733231821482));
#933=CARTESIAN_POINT('',(-0.0453252739678834,-0.006096,0.0215733231821514));
#934=CARTESIAN_POINT('',(-0.0453424225078048,-0.00635,0.0230967272923004));
#935=CARTESIAN_POINT('',(-0.0456015272815887,-0.00635,0.0230942299225087));
#936=CARTESIAN_POINT('',(-0.0456015272815824,-0.006096,0.0230942299224968));
#937=CARTESIAN_POINT('',(-0.045106212967026,-0.00635,0.0245474065156071));
#938=CARTESIAN_POINT('',(-0.0453506691815071,-0.00635000000000001,0.0246301517846223));
#939=CARTESIAN_POINT('',(-0.0453506691815307,-0.006096,0.0246301517846666));
#940=CARTESIAN_POINT('',(-0.0444476430458878,-0.00635,0.0258501014941711));
#941=CARTESIAN_POINT('',(-0.0446595490885611,-0.00635,0.025994324027167));
#942=CARTESIAN_POINT('',(-0.0446595490884729,-0.006096,0.0259943240270017));
#943=CARTESIAN_POINT('',(-0.0431904761246854,-0.00635,0.0273268369563939));
#944=CARTESIAN_POINT('',(-0.0433564900690556,-0.00635,0.0275233483395883));
#945=CARTESIAN_POINT('',(-0.0433564900695237,-0.006096,0.0275233483404659));
#946=CARTESIAN_POINT('',(-0.0419969020633715,-0.00635,0.0281457118762421));
#947=CARTESIAN_POINT('',(-0.0421338986679976,-0.00635,0.0283604806104779));
#948=CARTESIAN_POINT('',(-0.0421338986659216,-0.006096,0.0283604806065856));
#949=CARTESIAN_POINT('',(-0.041148272698985,-0.00635,0.0285999366939159));
#950=CARTESIAN_POINT('',(-0.0412681353134988,-0.00635,0.0288238763144433));
#951=CARTESIAN_POINT('',(-0.0412681353134988,-0.006096,0.0288238763144433));
#952=CARTESIAN_POINT('',(-0.023919997078809,-0.006096,0.0285771201219233));
#953=CARTESIAN_POINT('',(-0.023919997078809,-0.00625373691995367,0.0285771201219233));
#954=CARTESIAN_POINT('',(-0.0240913395900942,-0.00635000000000002,0.0285155557642467));
#955=CARTESIAN_POINT('',(-0.024238992950226,-0.00635,0.0284678023252769));
#956=CARTESIAN_POINT('',(-0.0368497007788398,-0.00635,0.0301034740556104));
#957=CARTESIAN_POINT('',(-0.0369004501995425,-0.00635,0.0303523525325793));
#958=CARTESIAN_POINT('',(-0.0369004501995425,-0.006096,0.0303523525325793));
#959=CARTESIAN_POINT('',(-0.0355222769901534,-0.00635,0.0303741522954607));
#960=CARTESIAN_POINT('',(-0.0355551338975054,-0.00635,0.0306266792786759));
#961=CARTESIAN_POINT('',(-0.0355551338976856,-0.006096,0.0306266792795635));
#962=CARTESIAN_POINT('',(-0.0327860353153947,-0.00635,0.0306341836612047));
#963=CARTESIAN_POINT('',(-0.0327857046829322,-0.00635000000005232,0.0308896714132312));
#964=CARTESIAN_POINT('',(-0.0327857046827316,-0.006096,0.0308896714118212));
#965=CARTESIAN_POINT('',(-0.0300947708840448,-0.00635,0.0303719478733674));
#966=CARTESIAN_POINT('',(-0.0300617698023965,-0.00634999999989535,0.0306244450668414));
#967=CARTESIAN_POINT('',(-0.0300617698026175,-0.006096,0.0306244450687738));
#968=CARTESIAN_POINT('',(-0.0287784056386303,-0.00635,0.0301035535640841));
#969=CARTESIAN_POINT('',(-0.0287276614738666,-0.00635,0.0303524331127465));
#970=CARTESIAN_POINT('',(-0.0287276614738666,-0.006096,0.0303524331127465));
#971=CARTESIAN_POINT('',(-0.0289999633836257,-0.006096,0.0304059048205989));
#972=CARTESIAN_POINT('',(-0.0289999633836257,-0.00625484037024449,0.0304059048205989));
#973=CARTESIAN_POINT('',(-0.0289078987317342,-0.00635000000000001,0.0302456378523779));
#974=CARTESIAN_POINT('',(-0.0288252431426499,-0.00635,0.0301130414932054));
#975=CARTESIAN_POINT('',(-0.0264599802312174,-0.006096,0.0294915124712611));
#976=MECHANICAL_DESIGN_GEOMETRIC_PRESENTATION_REPRESENTATION('',(#377),
#977);
#977=(
GEOMETRIC_REPRESENTATION_CONTEXT(3)
GLOBAL_UNCERTAINTY_ASSIGNED_CONTEXT((#978))
GLOBAL_UNIT_ASSIGNED_CONTEXT((#981,#980,#979))
REPRESENTATION_CONTEXT('Part 1','TOP_LEVEL_ASSEMBLY_PART')
);
#978=UNCERTAINTY_MEASURE_WITH_UNIT(LENGTH_MEASURE(2.E-5),#981,
'DISTANCE_ACCURACY_VALUE','Maximum Tolerance applied to model');
#979=(
NAMED_UNIT(*)
SI_UNIT($,.STERADIAN.)
SOLID_ANGLE_UNIT()
);
#980=(
NAMED_UNIT(*)
PLANE_ANGLE_UNIT()
SI_UNIT($,.RADIAN.)
);
#981=(
LENGTH_UNIT()
NAMED_UNIT(*)
SI_UNIT($,.METRE.)
);
#982=PRODUCT_DEFINITION_SHAPE('','',#983);
#983=PRODUCT_DEFINITION('','',#985,#984);
#984=PRODUCT_DEFINITION_CONTEXT('',#991,'design');
#985=PRODUCT_DEFINITION_FORMATION_WITH_SPECIFIED_SOURCE('','',#987,
 .NOT_KNOWN.);
#986=PRODUCT_RELATED_PRODUCT_CATEGORY('','',(#987));
#987=PRODUCT('Part 1','Part 1','Part 1',(#989));
#988=PRODUCT_CATEGORY('','');
#989=PRODUCT_CONTEXT('',#991,'mechanical');
#990=APPLICATION_PROTOCOL_DEFINITION('international standard',
'ap242_managed_model_based_3d_engineering',2020,#991);
#991=APPLICATION_CONTEXT('managed model based 3d engineering');
ENDSEC;
END-ISO-10303-21;
