ISO-10303-21;
HEADER;
/* Generated by software containing ST-Developer
 * from STEP Tools, Inc. (www.steptools.com) 
 */
/* OPTION: using custom renumber hook */

FILE_DESCRIPTION(
/* description */ ('STEP AP242 Edition 2',
'CAx-IF Rec.Pracs.---Representation and Presentation of Product Manufa
cturing Information (PMI)---4.0---2014-10-13',
'CAx-IF Rec.Pracs.---3D Tessellated Geometry---0.4---2014-09-14','2;1',
'CAx-IF Rec.Pracs.---User Defined Attributes---1.5---2016-08-15'),
/* implementation_level */ '2;1');

FILE_NAME(
/* name */ 'holder',
/* time_stamp */ '2026-09-08T02:26:06Z',
/* author */ (''),
/* organization */ (''),
/* preprocessor_version */ 'ST-DEVELOPER v20',
/* originating_system */ 'ONSHAPE BY PTC INC, 1.220',
/* authorisation */ '  ');

FILE_SCHEMA (('AP242_MANAGED_MODEL_BASED_3D_ENGINEERING_MIM_LF { 1 0 10303 442 3 1 4 }'));
ENDSEC;

DATA;
#10=SHAPE_REPRESENTATION_RELATIONSHIP('','',#275,#11);
#11=ADVANCED_BREP_SHAPE_REPRESENTATION('',(#273),#449);
#12=CYLINDRICAL_SURFACE('',#295,0.00127);
#13=CYLINDRICAL_SURFACE('',#296,0.00127);
#14=CYLINDRICAL_SURFACE('',#297,0.00127);
#15=CYLINDRICAL_SURFACE('',#298,0.00127);
#16=CIRCLE('',#280,0.00127);
#17=CIRCLE('',#281,0.00127);
#18=CIRCLE('',#282,0.00127);
#19=CIRCLE('',#283,0.00127);
#20=CIRCLE('',#289,0.00127);
#21=CIRCLE('',#290,0.00127);
#22=CIRCLE('',#291,0.00127);
#23=CIRCLE('',#292,0.00127);
#24=ORIENTED_EDGE('',*,*,#96,.F.);
#25=ORIENTED_EDGE('',*,*,#97,.T.);
#26=ORIENTED_EDGE('',*,*,#98,.T.);
#27=ORIENTED_EDGE('',*,*,#99,.F.);
#28=ORIENTED_EDGE('',*,*,#100,.F.);
#29=ORIENTED_EDGE('',*,*,#101,.T.);
#30=ORIENTED_EDGE('',*,*,#102,.T.);
#31=ORIENTED_EDGE('',*,*,#103,.T.);
#32=ORIENTED_EDGE('',*,*,#104,.T.);
#33=ORIENTED_EDGE('',*,*,#105,.F.);
#34=ORIENTED_EDGE('',*,*,#106,.T.);
#35=ORIENTED_EDGE('',*,*,#107,.T.);
#36=ORIENTED_EDGE('',*,*,#100,.T.);
#37=ORIENTED_EDGE('',*,*,#108,.F.);
#38=ORIENTED_EDGE('',*,*,#109,.F.);
#39=ORIENTED_EDGE('',*,*,#110,.T.);
#40=ORIENTED_EDGE('',*,*,#111,.T.);
#41=ORIENTED_EDGE('',*,*,#112,.T.);
#42=ORIENTED_EDGE('',*,*,#96,.T.);
#43=ORIENTED_EDGE('',*,*,#113,.F.);
#44=ORIENTED_EDGE('',*,*,#114,.F.);
#45=ORIENTED_EDGE('',*,*,#115,.T.);
#46=ORIENTED_EDGE('',*,*,#109,.T.);
#47=ORIENTED_EDGE('',*,*,#116,.T.);
#48=ORIENTED_EDGE('',*,*,#117,.F.);
#49=ORIENTED_EDGE('',*,*,#118,.F.);
#50=ORIENTED_EDGE('',*,*,#119,.T.);
#51=ORIENTED_EDGE('',*,*,#104,.F.);
#52=ORIENTED_EDGE('',*,*,#120,.F.);
#53=ORIENTED_EDGE('',*,*,#117,.T.);
#54=ORIENTED_EDGE('',*,*,#121,.F.);
#55=ORIENTED_EDGE('',*,*,#118,.T.);
#56=ORIENTED_EDGE('',*,*,#120,.T.);
#57=ORIENTED_EDGE('',*,*,#103,.F.);
#58=ORIENTED_EDGE('',*,*,#105,.T.);
#59=ORIENTED_EDGE('',*,*,#119,.F.);
#60=ORIENTED_EDGE('',*,*,#116,.F.);
#61=ORIENTED_EDGE('',*,*,#108,.T.);
#62=ORIENTED_EDGE('',*,*,#102,.F.);
#63=ORIENTED_EDGE('',*,*,#122,.T.);
#64=ORIENTED_EDGE('',*,*,#123,.T.);
#65=ORIENTED_EDGE('',*,*,#124,.T.);
#66=ORIENTED_EDGE('',*,*,#98,.F.);
#67=ORIENTED_EDGE('',*,*,#125,.F.);
#68=ORIENTED_EDGE('',*,*,#126,.T.);
#69=ORIENTED_EDGE('',*,*,#127,.T.);
#70=ORIENTED_EDGE('',*,*,#114,.T.);
#71=ORIENTED_EDGE('',*,*,#121,.T.);
#72=ORIENTED_EDGE('',*,*,#124,.F.);
#73=ORIENTED_EDGE('',*,*,#128,.T.);
#74=ORIENTED_EDGE('',*,*,#113,.T.);
#75=ORIENTED_EDGE('',*,*,#99,.T.);
#76=ORIENTED_EDGE('',*,*,#112,.F.);
#77=ORIENTED_EDGE('',*,*,#129,.T.);
#78=ORIENTED_EDGE('',*,*,#125,.T.);
#79=ORIENTED_EDGE('',*,*,#97,.F.);
#80=ORIENTED_EDGE('',*,*,#129,.F.);
#81=ORIENTED_EDGE('',*,*,#111,.F.);
#82=ORIENTED_EDGE('',*,*,#130,.F.);
#83=ORIENTED_EDGE('',*,*,#126,.F.);
#84=ORIENTED_EDGE('',*,*,#110,.F.);
#85=ORIENTED_EDGE('',*,*,#115,.F.);
#86=ORIENTED_EDGE('',*,*,#127,.F.);
#87=ORIENTED_EDGE('',*,*,#130,.T.);
#88=ORIENTED_EDGE('',*,*,#131,.F.);
#89=ORIENTED_EDGE('',*,*,#106,.F.);
#90=ORIENTED_EDGE('',*,*,#128,.F.);
#91=ORIENTED_EDGE('',*,*,#123,.F.);
#92=ORIENTED_EDGE('',*,*,#107,.F.);
#93=ORIENTED_EDGE('',*,*,#131,.T.);
#94=ORIENTED_EDGE('',*,*,#122,.F.);
#95=ORIENTED_EDGE('',*,*,#101,.F.);
#96=EDGE_CURVE('',#132,#133,#156,.T.);
#97=EDGE_CURVE('',#132,#134,#157,.T.);
#98=EDGE_CURVE('',#134,#135,#158,.T.);
#99=EDGE_CURVE('',#133,#135,#159,.T.);
#100=EDGE_CURVE('',#136,#137,#160,.T.);
#101=EDGE_CURVE('',#136,#138,#161,.T.);
#102=EDGE_CURVE('',#138,#139,#162,.T.);
#103=EDGE_CURVE('',#139,#140,#163,.T.);
#104=EDGE_CURVE('',#140,#141,#164,.T.);
#105=EDGE_CURVE('',#137,#141,#165,.T.);
#106=EDGE_CURVE('',#142,#143,#16,.T.);
#107=EDGE_CURVE('',#143,#136,#17,.T.);
#108=EDGE_CURVE('',#144,#137,#166,.T.);
#109=EDGE_CURVE('',#145,#144,#167,.T.);
#110=EDGE_CURVE('',#145,#146,#18,.T.);
#111=EDGE_CURVE('',#146,#147,#19,.T.);
#112=EDGE_CURVE('',#147,#132,#168,.T.);
#113=EDGE_CURVE('',#142,#133,#169,.T.);
#114=EDGE_CURVE('',#148,#149,#170,.T.);
#115=EDGE_CURVE('',#148,#145,#171,.F.);
#116=EDGE_CURVE('',#144,#150,#172,.T.);
#117=EDGE_CURVE('',#151,#150,#173,.T.);
#118=EDGE_CURVE('',#149,#151,#174,.T.);
#119=EDGE_CURVE('',#150,#141,#175,.T.);
#120=EDGE_CURVE('',#151,#140,#176,.T.);
#121=EDGE_CURVE('',#149,#139,#177,.T.);
#122=EDGE_CURVE('',#138,#152,#20,.F.);
#123=EDGE_CURVE('',#152,#153,#21,.F.);
#124=EDGE_CURVE('',#153,#135,#178,.T.);
#125=EDGE_CURVE('',#154,#134,#179,.T.);
#126=EDGE_CURVE('',#154,#155,#22,.F.);
#127=EDGE_CURVE('',#155,#148,#23,.F.);
#128=EDGE_CURVE('',#153,#142,#180,.F.);
#129=EDGE_CURVE('',#147,#154,#181,.T.);
#130=EDGE_CURVE('',#155,#146,#182,.F.);
#131=EDGE_CURVE('',#143,#152,#183,.F.);
#132=VERTEX_POINT('',#376);
#133=VERTEX_POINT('',#377);
#134=VERTEX_POINT('',#379);
#135=VERTEX_POINT('',#381);
#136=VERTEX_POINT('',#385);
#137=VERTEX_POINT('',#386);
#138=VERTEX_POINT('',#388);
#139=VERTEX_POINT('',#390);
#140=VERTEX_POINT('',#392);
#141=VERTEX_POINT('',#394);
#142=VERTEX_POINT('',#398);
#143=VERTEX_POINT('',#399);
#144=VERTEX_POINT('',#402);
#145=VERTEX_POINT('',#404);
#146=VERTEX_POINT('',#406);
#147=VERTEX_POINT('',#408);
#148=VERTEX_POINT('',#413);
#149=VERTEX_POINT('',#414);
#150=VERTEX_POINT('',#417);
#151=VERTEX_POINT('',#419);
#152=VERTEX_POINT('',#429);
#153=VERTEX_POINT('',#431);
#154=VERTEX_POINT('',#434);
#155=VERTEX_POINT('',#436);
#156=LINE('',#375,#184);
#157=LINE('',#378,#185);
#158=LINE('',#380,#186);
#159=LINE('',#382,#187);
#160=LINE('',#384,#188);
#161=LINE('',#387,#189);
#162=LINE('',#389,#190);
#163=LINE('',#391,#191);
#164=LINE('',#393,#192);
#165=LINE('',#395,#193);
#166=LINE('',#401,#194);
#167=LINE('',#403,#195);
#168=LINE('',#409,#196);
#169=LINE('',#410,#197);
#170=LINE('',#412,#198);
#171=LINE('',#415,#199);
#172=LINE('',#416,#200);
#173=LINE('',#418,#201);
#174=LINE('',#420,#202);
#175=LINE('',#422,#203);
#176=LINE('',#423,#204);
#177=LINE('',#425,#205);
#178=LINE('',#432,#206);
#179=LINE('',#433,#207);
#180=LINE('',#439,#208);
#181=LINE('',#441,#209);
#182=LINE('',#443,#210);
#183=LINE('',#446,#211);
#184=VECTOR('',#303,1.);
#185=VECTOR('',#304,1.);
#186=VECTOR('',#305,1.);
#187=VECTOR('',#306,1.);
#188=VECTOR('',#309,1.);
#189=VECTOR('',#310,1.);
#190=VECTOR('',#311,1.);
#191=VECTOR('',#312,1.);
#192=VECTOR('',#313,1.);
#193=VECTOR('',#314,1.);
#194=VECTOR('',#321,1.);
#195=VECTOR('',#322,1.);
#196=VECTOR('',#327,1.);
#197=VECTOR('',#328,1.);
#198=VECTOR('',#331,1.);
#199=VECTOR('',#332,1.);
#200=VECTOR('',#333,1.);
#201=VECTOR('',#334,1.);
#202=VECTOR('',#335,1.);
#203=VECTOR('',#338,1.);
#204=VECTOR('',#339,1.);
#205=VECTOR('',#342,1.);
#206=VECTOR('',#351,1.);
#207=VECTOR('',#352,1.);
#208=VECTOR('',#359,1.);
#209=VECTOR('',#362,1.);
#210=VECTOR('',#365,1.);
#211=VECTOR('',#370,1.);
#212=EDGE_LOOP('',(#24,#25,#26,#27));
#213=EDGE_LOOP('',(#28,#29,#30,#31,#32,#33));
#214=EDGE_LOOP('',(#34,#35,#36,#37,#38,#39,#40,#41,#42,#43));
#215=EDGE_LOOP('',(#44,#45,#46,#47,#48,#49));
#216=EDGE_LOOP('',(#50,#51,#52,#53));
#217=EDGE_LOOP('',(#54,#55,#56,#57));
#218=EDGE_LOOP('',(#58,#59,#60,#61));
#219=EDGE_LOOP('',(#62,#63,#64,#65,#66,#67,#68,#69,#70,#71));
#220=EDGE_LOOP('',(#72,#73,#74,#75));
#221=EDGE_LOOP('',(#76,#77,#78,#79));
#222=EDGE_LOOP('',(#80,#81,#82,#83));
#223=EDGE_LOOP('',(#84,#85,#86,#87));
#224=EDGE_LOOP('',(#88,#89,#90,#91));
#225=EDGE_LOOP('',(#92,#93,#94,#95));
#226=FACE_BOUND('',#212,.T.);
#227=FACE_BOUND('',#213,.T.);
#228=FACE_BOUND('',#214,.T.);
#229=FACE_BOUND('',#215,.T.);
#230=FACE_BOUND('',#216,.T.);
#231=FACE_BOUND('',#217,.T.);
#232=FACE_BOUND('',#218,.T.);
#233=FACE_BOUND('',#219,.T.);
#234=FACE_BOUND('',#220,.T.);
#235=FACE_BOUND('',#221,.T.);
#236=FACE_BOUND('',#222,.T.);
#237=FACE_BOUND('',#223,.T.);
#238=FACE_BOUND('',#224,.T.);
#239=FACE_BOUND('',#225,.T.);
#240=PLANE('',#277);
#241=PLANE('',#278);
#242=PLANE('',#279);
#243=PLANE('',#284);
#244=PLANE('',#285);
#245=PLANE('',#286);
#246=PLANE('',#287);
#247=PLANE('',#288);
#248=PLANE('',#293);
#249=PLANE('',#294);
#250=ADVANCED_FACE('',(#226),#240,.T.);
#251=ADVANCED_FACE('',(#227),#241,.T.);
#252=ADVANCED_FACE('',(#228),#242,.T.);
#253=ADVANCED_FACE('',(#229),#243,.F.);
#254=ADVANCED_FACE('',(#230),#244,.F.);
#255=ADVANCED_FACE('',(#231),#245,.T.);
#256=ADVANCED_FACE('',(#232),#246,.F.);
#257=ADVANCED_FACE('',(#233),#247,.F.);
#258=ADVANCED_FACE('',(#234),#248,.F.);
#259=ADVANCED_FACE('',(#235),#249,.T.);
#260=ADVANCED_FACE('',(#236),#12,.T.);
#261=ADVANCED_FACE('',(#237),#13,.T.);
#262=ADVANCED_FACE('',(#238),#14,.T.);
#263=ADVANCED_FACE('',(#239),#15,.T.);
#264=CLOSED_SHELL('',(#250,#251,#252,#253,#254,#255,#256,#257,#258,#259,
#260,#261,#262,#263));
#265=STYLED_ITEM('',(#266),#273);
#266=PRESENTATION_STYLE_ASSIGNMENT((#267));
#267=SURFACE_STYLE_USAGE(.BOTH.,#268);
#268=SURFACE_SIDE_STYLE('',(#269));
#269=SURFACE_STYLE_FILL_AREA(#270);
#270=FILL_AREA_STYLE('',(#271));
#271=FILL_AREA_STYLE_COLOUR('',#272);
#272=COLOUR_RGB('',0.615686274509804,0.811764705882353,0.929411764705882);
#273=MANIFOLD_SOLID_BREP('Part 1',#264);
#274=SHAPE_DEFINITION_REPRESENTATION(#454,#275);
#275=SHAPE_REPRESENTATION('Part 1',(#276),#449);
#276=AXIS2_PLACEMENT_3D('',#373,#299,#300);
#277=AXIS2_PLACEMENT_3D('',#374,#301,#302);
#278=AXIS2_PLACEMENT_3D('',#383,#307,#308);
#279=AXIS2_PLACEMENT_3D('',#396,#315,#316);
#280=AXIS2_PLACEMENT_3D('',#397,#317,#318);
#281=AXIS2_PLACEMENT_3D('',#400,#319,#320);
#282=AXIS2_PLACEMENT_3D('',#405,#323,#324);
#283=AXIS2_PLACEMENT_3D('',#407,#325,#326);
#284=AXIS2_PLACEMENT_3D('',#411,#329,#330);
#285=AXIS2_PLACEMENT_3D('',#421,#336,#337);
#286=AXIS2_PLACEMENT_3D('',#424,#340,#341);
#287=AXIS2_PLACEMENT_3D('',#426,#343,#344);
#288=AXIS2_PLACEMENT_3D('',#427,#345,#346);
#289=AXIS2_PLACEMENT_3D('',#428,#347,#348);
#290=AXIS2_PLACEMENT_3D('',#430,#349,#350);
#291=AXIS2_PLACEMENT_3D('',#435,#353,#354);
#292=AXIS2_PLACEMENT_3D('',#437,#355,#356);
#293=AXIS2_PLACEMENT_3D('',#438,#357,#358);
#294=AXIS2_PLACEMENT_3D('',#440,#360,#361);
#295=AXIS2_PLACEMENT_3D('',#442,#363,#364);
#296=AXIS2_PLACEMENT_3D('',#444,#366,#367);
#297=AXIS2_PLACEMENT_3D('',#445,#368,#369);
#298=AXIS2_PLACEMENT_3D('',#447,#371,#372);
#299=DIRECTION('',(0.,0.,1.));
#300=DIRECTION('',(1.,0.,0.));
#301=DIRECTION('',(0.,-1.,0.));
#302=DIRECTION('',(1.,0.,0.));
#303=DIRECTION('',(1.,0.,0.));
#304=DIRECTION('',(0.,0.,-1.));
#305=DIRECTION('',(1.,0.,0.));
#306=DIRECTION('',(0.,0.,-1.));
#307=DIRECTION('',(1.,0.,0.));
#308=DIRECTION('',(0.,0.,-1.));
#309=DIRECTION('',(0.,1.,0.));
#310=DIRECTION('',(0.,0.,-1.));
#311=DIRECTION('',(0.,1.,0.));
#312=DIRECTION('',(0.,0.,-1.));
#313=DIRECTION('',(0.,1.,0.));
#314=DIRECTION('',(0.,0.,-1.));
#315=DIRECTION('',(0.,0.,1.));
#316=DIRECTION('',(1.,0.,0.));
#317=DIRECTION('',(0.,0.,1.));
#318=DIRECTION('',(1.,0.,0.));
#319=DIRECTION('',(0.,0.,1.));
#320=DIRECTION('',(1.,0.,0.));
#321=DIRECTION('',(1.,0.,0.));
#322=DIRECTION('',(0.,1.,0.));
#323=DIRECTION('',(0.,0.,1.));
#324=DIRECTION('',(1.,0.,0.));
#325=DIRECTION('',(0.,0.,1.));
#326=DIRECTION('',(1.,0.,0.));
#327=DIRECTION('',(0.,1.,0.));
#328=DIRECTION('',(0.,1.,0.));
#329=DIRECTION('',(1.,0.,0.));
#330=DIRECTION('',(0.,0.,-1.));
#331=DIRECTION('',(0.,1.,0.));
#332=DIRECTION('',(0.,0.,-1.));
#333=DIRECTION('',(0.,0.,-1.));
#334=DIRECTION('',(0.,1.,0.));
#335=DIRECTION('',(0.,0.,-1.));
#336=DIRECTION('',(0.,0.,1.));
#337=DIRECTION('',(1.,0.,0.));
#338=DIRECTION('',(1.,0.,0.));
#339=DIRECTION('',(1.,0.,0.));
#340=DIRECTION('',(0.,-1.,0.));
#341=DIRECTION('',(1.,0.,0.));
#342=DIRECTION('',(1.,0.,0.));
#343=DIRECTION('',(0.,-1.,0.));
#344=DIRECTION('',(1.,0.,0.));
#345=DIRECTION('',(0.,0.,1.));
#346=DIRECTION('',(1.,0.,0.));
#347=DIRECTION('',(0.,0.,1.));
#348=DIRECTION('',(1.,0.,0.));
#349=DIRECTION('',(0.,0.,1.));
#350=DIRECTION('',(1.,0.,0.));
#351=DIRECTION('',(0.,1.,0.));
#352=DIRECTION('',(0.,1.,0.));
#353=DIRECTION('',(0.,0.,1.));
#354=DIRECTION('',(1.,0.,0.));
#355=DIRECTION('',(0.,0.,1.));
#356=DIRECTION('',(1.,0.,0.));
#357=DIRECTION('',(1.,0.,0.));
#358=DIRECTION('',(0.,0.,-1.));
#359=DIRECTION('',(0.,0.,-1.));
#360=DIRECTION('',(1.,0.,0.));
#361=DIRECTION('',(0.,0.,-1.));
#362=DIRECTION('',(0.,0.,-1.));
#363=DIRECTION('',(0.,0.,-1.));
#364=DIRECTION('',(-1.,0.,0.));
#365=DIRECTION('',(0.,0.,-1.));
#366=DIRECTION('',(0.,0.,1.));
#367=DIRECTION('',(1.,0.,0.));
#368=DIRECTION('',(0.,0.,1.));
#369=DIRECTION('',(1.,0.,0.));
#370=DIRECTION('',(0.,0.,1.));
#371=DIRECTION('',(0.,0.,-1.));
#372=DIRECTION('',(-1.,0.,0.));
#373=CARTESIAN_POINT('',(0.,0.,0.));
#374=CARTESIAN_POINT('',(-0.0364876743406057,-0.003302,0.0349324850807781));
#375=CARTESIAN_POINT('',(-0.0364876743406057,-0.003302,0.0387424850807781));
#376=CARTESIAN_POINT('',(-0.0376306743406057,-0.003302,0.0387424850807781));
#377=CARTESIAN_POINT('',(-0.0353446743406057,-0.003302,0.0387424850807781));
#378=CARTESIAN_POINT('',(-0.0376306743406057,-0.003302,0.0382344850807781));
#379=CARTESIAN_POINT('',(-0.0376306743406057,-0.003302,0.0377264850807781));
#380=CARTESIAN_POINT('',(-0.0364876743406057,-0.003302,0.0377264850807781));
#381=CARTESIAN_POINT('',(-0.0353446743406057,-0.003302,0.0377264850807781));
#382=CARTESIAN_POINT('',(-0.0353446743406057,-0.003302,0.0382344850807781));
#383=CARTESIAN_POINT('',(-0.0339476743406057,-0.00254,0.0342974850807781));
#384=CARTESIAN_POINT('',(-0.0339476743406057,-0.00254,0.0387424850807781));
#385=CARTESIAN_POINT('',(-0.0339476743406057,-0.004572,0.0387424850807781));
#386=CARTESIAN_POINT('',(-0.0339476743406057,0.,0.0387424850807781));
#387=CARTESIAN_POINT('',(-0.0339476743406057,-0.004572,0.0342974850807781));
#388=CARTESIAN_POINT('',(-0.0339476743406057,-0.004572,0.0377264850807781));
#389=CARTESIAN_POINT('',(-0.0339476743406057,-0.003302,0.0377264850807781));
#390=CARTESIAN_POINT('',(-0.0339476743406057,-0.00254,0.0377264850807781));
#391=CARTESIAN_POINT('',(-0.0339476743406057,-0.00254,0.0342974850807781));
#392=CARTESIAN_POINT('',(-0.0339476743406057,-0.00254,0.0311224850807781));
#393=CARTESIAN_POINT('',(-0.0339476743406057,-0.00254,0.0311224850807781));
#394=CARTESIAN_POINT('',(-0.0339476743406057,0.,0.0311224850807781));
#395=CARTESIAN_POINT('',(-0.0339476743406057,0.,0.0342974850807781));
#396=CARTESIAN_POINT('',(-0.0364876743406057,-0.00254,0.0387424850807781));
#397=CARTESIAN_POINT('',(-0.0340746743406058,-0.004572,0.0387424850807781));
#398=CARTESIAN_POINT('',(-0.0353446743406057,-0.004572,0.0387424850807781));
#399=CARTESIAN_POINT('',(-0.0346461743406057,-0.00570614626481773,0.0387424850807781));
#400=CARTESIAN_POINT('',(-0.0352176743406057,-0.004572,0.0387424850807781));
#401=CARTESIAN_POINT('',(-0.0364876743406057,0.,0.0387424850807781));
#402=CARTESIAN_POINT('',(-0.0390276743406058,0.,0.0387424850807781));
#403=CARTESIAN_POINT('',(-0.0390276743406058,-0.00254,0.0387424850807781));
#404=CARTESIAN_POINT('',(-0.0390276743406058,-0.004572,0.0387424850807781));
#405=CARTESIAN_POINT('',(-0.0377576743406057,-0.004572,0.0387424850807781));
#406=CARTESIAN_POINT('',(-0.0383291743406057,-0.00570614626481773,0.0387424850807781));
#407=CARTESIAN_POINT('',(-0.0389006743406057,-0.004572,0.0387424850807781));
#408=CARTESIAN_POINT('',(-0.0376306743406057,-0.004572,0.0387424850807781));
#409=CARTESIAN_POINT('',(-0.0376306743406057,-0.005842,0.0387424850807781));
#410=CARTESIAN_POINT('',(-0.0353446743406057,-0.005842,0.0387424850807781));
#411=CARTESIAN_POINT('',(-0.0390276743406058,-0.00254,0.0342974850807781));
#412=CARTESIAN_POINT('',(-0.0390276743406058,-0.003302,0.0377264850807781));
#413=CARTESIAN_POINT('',(-0.0390276743406058,-0.004572,0.0377264850807781));
#414=CARTESIAN_POINT('',(-0.0390276743406058,-0.00254,0.0377264850807781));
#415=CARTESIAN_POINT('',(-0.0390276743406058,-0.004572,0.0387424850807781));
#416=CARTESIAN_POINT('',(-0.0390276743406058,0.,0.0342974850807781));
#417=CARTESIAN_POINT('',(-0.0390276743406058,0.,0.0311224850807781));
#418=CARTESIAN_POINT('',(-0.0390276743406058,-0.00254,0.0311224850807781));
#419=CARTESIAN_POINT('',(-0.0390276743406058,-0.00254,0.0311224850807781));
#420=CARTESIAN_POINT('',(-0.0390276743406058,-0.00254,0.0342974850807781));
#421=CARTESIAN_POINT('',(-0.0364876743406057,-0.00254,0.0311224850807781));
#422=CARTESIAN_POINT('',(-0.0364876743406057,0.,0.0311224850807781));
#423=CARTESIAN_POINT('',(-0.0364876743406057,-0.00254,0.0311224850807781));
#424=CARTESIAN_POINT('',(-0.0364876743406057,-0.00254,0.0349324850807781));
#425=CARTESIAN_POINT('',(-0.0364876743406057,-0.00254,0.0377264850807781));
#426=CARTESIAN_POINT('',(-0.0364876743406057,0.,0.0349324850807781));
#427=CARTESIAN_POINT('',(-0.0364876743406057,-0.003302,0.0377264850807781));
#428=CARTESIAN_POINT('',(-0.0352176743406057,-0.004572,0.0377264850807781));
#429=CARTESIAN_POINT('',(-0.0346461743406057,-0.00570614626481773,0.0377264850807781));
#430=CARTESIAN_POINT('',(-0.0340746743406058,-0.004572,0.0377264850807781));
#431=CARTESIAN_POINT('',(-0.0353446743406057,-0.004572,0.0377264850807781));
#432=CARTESIAN_POINT('',(-0.0353446743406057,-0.005842,0.0377264850807781));
#433=CARTESIAN_POINT('',(-0.0376306743406057,-0.005842,0.0377264850807781));
#434=CARTESIAN_POINT('',(-0.0376306743406057,-0.004572,0.0377264850807781));
#435=CARTESIAN_POINT('',(-0.0389006743406057,-0.004572,0.0377264850807781));
#436=CARTESIAN_POINT('',(-0.0383291743406057,-0.00570614626481773,0.0377264850807781));
#437=CARTESIAN_POINT('',(-0.0377576743406057,-0.004572,0.0377264850807781));
#438=CARTESIAN_POINT('',(-0.0353446743406057,-0.005842,0.0382344850807781));
#439=CARTESIAN_POINT('',(-0.0353446743406057,-0.004572,0.0387424850807781));
#440=CARTESIAN_POINT('',(-0.0376306743406057,-0.005842,0.0382344850807781));
#441=CARTESIAN_POINT('',(-0.0376306743406057,-0.004572,0.0382344850807781));
#442=CARTESIAN_POINT('',(-0.0389006743406057,-0.004572,0.0382344850807781));
#443=CARTESIAN_POINT('',(-0.0383291743406057,-0.00570614626481773,0.0382344850807781));
#444=CARTESIAN_POINT('',(-0.0377576743406057,-0.004572,0.0382344850807781));
#445=CARTESIAN_POINT('',(-0.0340746743406058,-0.004572,0.0382344850807781));
#446=CARTESIAN_POINT('',(-0.0346461743406057,-0.00570614626481773,0.0382344850807781));
#447=CARTESIAN_POINT('',(-0.0352176743406057,-0.004572,0.0342974850807781));
#448=MECHANICAL_DESIGN_GEOMETRIC_PRESENTATION_REPRESENTATION('',(#265),
#449);
#449=(
GEOMETRIC_REPRESENTATION_CONTEXT(3)
GLOBAL_UNCERTAINTY_ASSIGNED_CONTEXT((#450))
GLOBAL_UNIT_ASSIGNED_CONTEXT((#453,#452,#451))
REPRESENTATION_CONTEXT('Part 1','TOP_LEVEL_ASSEMBLY_PART')
);
#450=UNCERTAINTY_MEASURE_WITH_UNIT(LENGTH_MEASURE(1.E-8),#453,
'DISTANCE_ACCURACY_VALUE','Maximum Tolerance applied to model');
#451=(
NAMED_UNIT(*)
SI_UNIT($,.STERADIAN.)
SOLID_ANGLE_UNIT()
);
#452=(
NAMED_UNIT(*)
PLANE_ANGLE_UNIT()
SI_UNIT($,.RADIAN.)
);
#453=(
LENGTH_UNIT()
NAMED_UNIT(*)
SI_UNIT($,.METRE.)
);
#454=PRODUCT_DEFINITION_SHAPE('','',#455);
#455=PRODUCT_DEFINITION('','',#457,#456);
#456=PRODUCT_DEFINITION_CONTEXT('',#463,'design');
#457=PRODUCT_DEFINITION_FORMATION_WITH_SPECIFIED_SOURCE('','',#459,
 .NOT_KNOWN.);
#458=PRODUCT_RELATED_PRODUCT_CATEGORY('','',(#459));
#459=PRODUCT('Part 1','Part 1','Part 1',(#461));
#460=PRODUCT_CATEGORY('','');
#461=PRODUCT_CONTEXT('',#463,'mechanical');
#462=APPLICATION_PROTOCOL_DEFINITION('international standard',
'ap242_managed_model_based_3d_engineering',2020,#463);
#463=APPLICATION_CONTEXT('managed model based 3d engineering');
ENDSEC;
END-ISO-10303-21;
