ISO-10303-21;
HEADER;
/* Generated by software containing ST-Developer
 * from STEP Tools, Inc. (www.steptools.com) 
 */
/* OPTION: using custom renumber hook */

FILE_DESCRIPTION(
/* description */ ('STEP AP242 Edition 2',
'CAx-IF Rec.Pracs.---Representation and Presentation of Product Manufa
cturing Information (PMI)---4.0---2014-10-13',
'CAx-IF Rec.Pracs.---3D Tessellated Geometry---0.4---2014-09-14','2;1',
'CAx-IF Rec.Pracs.---User Defined Attributes---1.5---2016-08-15'),
/* implementation_level */ '2;1');

FILE_NAME(
/* name */ 'Ladder!!',
/* time_stamp */ '2026-09-08T02:24:58Z',
/* author */ (''),
/* organization */ (''),
/* preprocessor_version */ 'ST-DEVELOPER v20',
/* originating_system */ 'ONSHAPE BY PTC INC, 1.220',
/* authorisation */ '  ');

FILE_SCHEMA (('AP242_MANAGED_MODEL_BASED_3D_ENGINEERING_MIM_LF { 1 0 10303 442 3 1 4 }'));
ENDSEC;

DATA;
#10=SHAPE_REPRESENTATION_RELATIONSHIP('','',#1330,#11);
#11=ADVANCED_BREP_SHAPE_REPRESENTATION('',(#1328),#2082);
#12=ORIENTED_EDGE('',*,*,#386,.F.);
#13=ORIENTED_EDGE('',*,*,#387,.F.);
#14=ORIENTED_EDGE('',*,*,#388,.F.);
#15=ORIENTED_EDGE('',*,*,#389,.T.);
#16=ORIENTED_EDGE('',*,*,#390,.F.);
#17=ORIENTED_EDGE('',*,*,#391,.T.);
#18=ORIENTED_EDGE('',*,*,#392,.T.);
#19=ORIENTED_EDGE('',*,*,#393,.F.);
#20=ORIENTED_EDGE('',*,*,#394,.F.);
#21=ORIENTED_EDGE('',*,*,#395,.F.);
#22=ORIENTED_EDGE('',*,*,#396,.F.);
#23=ORIENTED_EDGE('',*,*,#397,.T.);
#24=ORIENTED_EDGE('',*,*,#398,.F.);
#25=ORIENTED_EDGE('',*,*,#399,.T.);
#26=ORIENTED_EDGE('',*,*,#400,.T.);
#27=ORIENTED_EDGE('',*,*,#401,.F.);
#28=ORIENTED_EDGE('',*,*,#402,.F.);
#29=ORIENTED_EDGE('',*,*,#403,.F.);
#30=ORIENTED_EDGE('',*,*,#404,.F.);
#31=ORIENTED_EDGE('',*,*,#405,.T.);
#32=ORIENTED_EDGE('',*,*,#406,.F.);
#33=ORIENTED_EDGE('',*,*,#407,.T.);
#34=ORIENTED_EDGE('',*,*,#408,.T.);
#35=ORIENTED_EDGE('',*,*,#409,.F.);
#36=ORIENTED_EDGE('',*,*,#410,.F.);
#37=ORIENTED_EDGE('',*,*,#411,.T.);
#38=ORIENTED_EDGE('',*,*,#412,.T.);
#39=ORIENTED_EDGE('',*,*,#413,.F.);
#40=ORIENTED_EDGE('',*,*,#414,.F.);
#41=ORIENTED_EDGE('',*,*,#415,.T.);
#42=ORIENTED_EDGE('',*,*,#416,.T.);
#43=ORIENTED_EDGE('',*,*,#417,.T.);
#44=ORIENTED_EDGE('',*,*,#418,.T.);
#45=ORIENTED_EDGE('',*,*,#419,.F.);
#46=ORIENTED_EDGE('',*,*,#420,.F.);
#47=ORIENTED_EDGE('',*,*,#421,.T.);
#48=ORIENTED_EDGE('',*,*,#422,.T.);
#49=ORIENTED_EDGE('',*,*,#423,.T.);
#50=ORIENTED_EDGE('',*,*,#421,.F.);
#51=ORIENTED_EDGE('',*,*,#424,.T.);
#52=ORIENTED_EDGE('',*,*,#425,.F.);
#53=ORIENTED_EDGE('',*,*,#422,.F.);
#54=ORIENTED_EDGE('',*,*,#426,.F.);
#55=ORIENTED_EDGE('',*,*,#427,.T.);
#56=ORIENTED_EDGE('',*,*,#428,.T.);
#57=ORIENTED_EDGE('',*,*,#429,.F.);
#58=ORIENTED_EDGE('',*,*,#430,.T.);
#59=ORIENTED_EDGE('',*,*,#431,.F.);
#60=ORIENTED_EDGE('',*,*,#432,.T.);
#61=ORIENTED_EDGE('',*,*,#433,.T.);
#62=ORIENTED_EDGE('',*,*,#434,.T.);
#63=ORIENTED_EDGE('',*,*,#413,.T.);
#64=ORIENTED_EDGE('',*,*,#435,.F.);
#65=ORIENTED_EDGE('',*,*,#436,.F.);
#66=ORIENTED_EDGE('',*,*,#437,.F.);
#67=ORIENTED_EDGE('',*,*,#438,.F.);
#68=ORIENTED_EDGE('',*,*,#439,.T.);
#69=ORIENTED_EDGE('',*,*,#440,.T.);
#70=ORIENTED_EDGE('',*,*,#441,.T.);
#71=ORIENTED_EDGE('',*,*,#440,.F.);
#72=ORIENTED_EDGE('',*,*,#442,.F.);
#73=ORIENTED_EDGE('',*,*,#436,.T.);
#74=ORIENTED_EDGE('',*,*,#427,.F.);
#75=ORIENTED_EDGE('',*,*,#443,.T.);
#76=ORIENTED_EDGE('',*,*,#444,.T.);
#77=ORIENTED_EDGE('',*,*,#445,.F.);
#78=ORIENTED_EDGE('',*,*,#439,.F.);
#79=ORIENTED_EDGE('',*,*,#446,.T.);
#80=ORIENTED_EDGE('',*,*,#447,.F.);
#81=ORIENTED_EDGE('',*,*,#448,.F.);
#82=ORIENTED_EDGE('',*,*,#443,.F.);
#83=ORIENTED_EDGE('',*,*,#426,.T.);
#84=ORIENTED_EDGE('',*,*,#424,.F.);
#85=ORIENTED_EDGE('',*,*,#420,.T.);
#86=ORIENTED_EDGE('',*,*,#449,.T.);
#87=ORIENTED_EDGE('',*,*,#450,.T.);
#88=ORIENTED_EDGE('',*,*,#451,.F.);
#89=ORIENTED_EDGE('',*,*,#452,.T.);
#90=ORIENTED_EDGE('',*,*,#453,.T.);
#91=ORIENTED_EDGE('',*,*,#454,.T.);
#92=ORIENTED_EDGE('',*,*,#455,.F.);
#93=ORIENTED_EDGE('',*,*,#456,.T.);
#94=ORIENTED_EDGE('',*,*,#457,.T.);
#95=ORIENTED_EDGE('',*,*,#458,.T.);
#96=ORIENTED_EDGE('',*,*,#459,.T.);
#97=ORIENTED_EDGE('',*,*,#388,.T.);
#98=ORIENTED_EDGE('',*,*,#460,.T.);
#99=ORIENTED_EDGE('',*,*,#461,.F.);
#100=ORIENTED_EDGE('',*,*,#462,.F.);
#101=ORIENTED_EDGE('',*,*,#396,.T.);
#102=ORIENTED_EDGE('',*,*,#463,.T.);
#103=ORIENTED_EDGE('',*,*,#464,.F.);
#104=ORIENTED_EDGE('',*,*,#465,.F.);
#105=ORIENTED_EDGE('',*,*,#404,.T.);
#106=ORIENTED_EDGE('',*,*,#466,.T.);
#107=ORIENTED_EDGE('',*,*,#467,.T.);
#108=ORIENTED_EDGE('',*,*,#468,.F.);
#109=ORIENTED_EDGE('',*,*,#469,.T.);
#110=ORIENTED_EDGE('',*,*,#432,.F.);
#111=ORIENTED_EDGE('',*,*,#442,.T.);
#112=ORIENTED_EDGE('',*,*,#445,.T.);
#113=ORIENTED_EDGE('',*,*,#470,.T.);
#114=ORIENTED_EDGE('',*,*,#471,.T.);
#115=ORIENTED_EDGE('',*,*,#472,.F.);
#116=ORIENTED_EDGE('',*,*,#437,.T.);
#117=ORIENTED_EDGE('',*,*,#441,.F.);
#118=ORIENTED_EDGE('',*,*,#435,.T.);
#119=ORIENTED_EDGE('',*,*,#412,.F.);
#120=ORIENTED_EDGE('',*,*,#473,.T.);
#121=ORIENTED_EDGE('',*,*,#474,.F.);
#122=ORIENTED_EDGE('',*,*,#475,.F.);
#123=ORIENTED_EDGE('',*,*,#476,.F.);
#124=ORIENTED_EDGE('',*,*,#477,.T.);
#125=ORIENTED_EDGE('',*,*,#478,.T.);
#126=ORIENTED_EDGE('',*,*,#479,.F.);
#127=ORIENTED_EDGE('',*,*,#480,.F.);
#128=ORIENTED_EDGE('',*,*,#481,.T.);
#129=ORIENTED_EDGE('',*,*,#482,.T.);
#130=ORIENTED_EDGE('',*,*,#483,.F.);
#131=ORIENTED_EDGE('',*,*,#484,.F.);
#132=ORIENTED_EDGE('',*,*,#392,.F.);
#133=ORIENTED_EDGE('',*,*,#485,.F.);
#134=ORIENTED_EDGE('',*,*,#486,.F.);
#135=ORIENTED_EDGE('',*,*,#487,.F.);
#136=ORIENTED_EDGE('',*,*,#401,.T.);
#137=ORIENTED_EDGE('',*,*,#488,.F.);
#138=ORIENTED_EDGE('',*,*,#489,.F.);
#139=ORIENTED_EDGE('',*,*,#490,.F.);
#140=ORIENTED_EDGE('',*,*,#409,.T.);
#141=ORIENTED_EDGE('',*,*,#491,.F.);
#142=ORIENTED_EDGE('',*,*,#492,.F.);
#143=ORIENTED_EDGE('',*,*,#418,.F.);
#144=ORIENTED_EDGE('',*,*,#493,.T.);
#145=ORIENTED_EDGE('',*,*,#428,.F.);
#146=ORIENTED_EDGE('',*,*,#494,.T.);
#147=ORIENTED_EDGE('',*,*,#495,.T.);
#148=ORIENTED_EDGE('',*,*,#433,.F.);
#149=ORIENTED_EDGE('',*,*,#469,.F.);
#150=ORIENTED_EDGE('',*,*,#473,.F.);
#151=ORIENTED_EDGE('',*,*,#411,.F.);
#152=ORIENTED_EDGE('',*,*,#496,.F.);
#153=ORIENTED_EDGE('',*,*,#494,.F.);
#154=ORIENTED_EDGE('',*,*,#468,.T.);
#155=ORIENTED_EDGE('',*,*,#497,.T.);
#156=ORIENTED_EDGE('',*,*,#474,.T.);
#157=ORIENTED_EDGE('',*,*,#497,.F.);
#158=ORIENTED_EDGE('',*,*,#467,.F.);
#159=ORIENTED_EDGE('',*,*,#498,.T.);
#160=ORIENTED_EDGE('',*,*,#475,.T.);
#161=ORIENTED_EDGE('',*,*,#498,.F.);
#162=ORIENTED_EDGE('',*,*,#466,.F.);
#163=ORIENTED_EDGE('',*,*,#403,.T.);
#164=ORIENTED_EDGE('',*,*,#499,.T.);
#165=ORIENTED_EDGE('',*,*,#500,.T.);
#166=ORIENTED_EDGE('',*,*,#500,.F.);
#167=ORIENTED_EDGE('',*,*,#501,.T.);
#168=ORIENTED_EDGE('',*,*,#502,.T.);
#169=ORIENTED_EDGE('',*,*,#476,.T.);
#170=ORIENTED_EDGE('',*,*,#477,.F.);
#171=ORIENTED_EDGE('',*,*,#502,.F.);
#172=ORIENTED_EDGE('',*,*,#503,.F.);
#173=ORIENTED_EDGE('',*,*,#405,.F.);
#174=ORIENTED_EDGE('',*,*,#465,.T.);
#175=ORIENTED_EDGE('',*,*,#504,.T.);
#176=ORIENTED_EDGE('',*,*,#478,.F.);
#177=ORIENTED_EDGE('',*,*,#504,.F.);
#178=ORIENTED_EDGE('',*,*,#464,.T.);
#179=ORIENTED_EDGE('',*,*,#505,.T.);
#180=ORIENTED_EDGE('',*,*,#479,.T.);
#181=ORIENTED_EDGE('',*,*,#505,.F.);
#182=ORIENTED_EDGE('',*,*,#463,.F.);
#183=ORIENTED_EDGE('',*,*,#395,.T.);
#184=ORIENTED_EDGE('',*,*,#506,.T.);
#185=ORIENTED_EDGE('',*,*,#507,.T.);
#186=ORIENTED_EDGE('',*,*,#507,.F.);
#187=ORIENTED_EDGE('',*,*,#508,.T.);
#188=ORIENTED_EDGE('',*,*,#509,.T.);
#189=ORIENTED_EDGE('',*,*,#480,.T.);
#190=ORIENTED_EDGE('',*,*,#481,.F.);
#191=ORIENTED_EDGE('',*,*,#509,.F.);
#192=ORIENTED_EDGE('',*,*,#510,.F.);
#193=ORIENTED_EDGE('',*,*,#397,.F.);
#194=ORIENTED_EDGE('',*,*,#462,.T.);
#195=ORIENTED_EDGE('',*,*,#511,.T.);
#196=ORIENTED_EDGE('',*,*,#482,.F.);
#197=ORIENTED_EDGE('',*,*,#511,.F.);
#198=ORIENTED_EDGE('',*,*,#461,.T.);
#199=ORIENTED_EDGE('',*,*,#512,.T.);
#200=ORIENTED_EDGE('',*,*,#483,.T.);
#201=ORIENTED_EDGE('',*,*,#512,.F.);
#202=ORIENTED_EDGE('',*,*,#460,.F.);
#203=ORIENTED_EDGE('',*,*,#387,.T.);
#204=ORIENTED_EDGE('',*,*,#513,.T.);
#205=ORIENTED_EDGE('',*,*,#514,.T.);
#206=ORIENTED_EDGE('',*,*,#514,.F.);
#207=ORIENTED_EDGE('',*,*,#515,.T.);
#208=ORIENTED_EDGE('',*,*,#393,.T.);
#209=ORIENTED_EDGE('',*,*,#484,.T.);
#210=ORIENTED_EDGE('',*,*,#516,.T.);
#211=ORIENTED_EDGE('',*,*,#517,.T.);
#212=ORIENTED_EDGE('',*,*,#389,.F.);
#213=ORIENTED_EDGE('',*,*,#459,.F.);
#214=ORIENTED_EDGE('',*,*,#518,.F.);
#215=ORIENTED_EDGE('',*,*,#519,.T.);
#216=ORIENTED_EDGE('',*,*,#516,.F.);
#217=ORIENTED_EDGE('',*,*,#458,.F.);
#218=ORIENTED_EDGE('',*,*,#520,.T.);
#219=ORIENTED_EDGE('',*,*,#485,.T.);
#220=ORIENTED_EDGE('',*,*,#391,.F.);
#221=ORIENTED_EDGE('',*,*,#521,.F.);
#222=ORIENTED_EDGE('',*,*,#486,.T.);
#223=ORIENTED_EDGE('',*,*,#520,.F.);
#224=ORIENTED_EDGE('',*,*,#457,.F.);
#225=ORIENTED_EDGE('',*,*,#522,.T.);
#226=ORIENTED_EDGE('',*,*,#523,.T.);
#227=ORIENTED_EDGE('',*,*,#524,.T.);
#228=ORIENTED_EDGE('',*,*,#525,.T.);
#229=ORIENTED_EDGE('',*,*,#526,.F.);
#230=ORIENTED_EDGE('',*,*,#398,.T.);
#231=ORIENTED_EDGE('',*,*,#487,.T.);
#232=ORIENTED_EDGE('',*,*,#522,.F.);
#233=ORIENTED_EDGE('',*,*,#456,.F.);
#234=ORIENTED_EDGE('',*,*,#527,.F.);
#235=ORIENTED_EDGE('',*,*,#523,.F.);
#236=ORIENTED_EDGE('',*,*,#455,.T.);
#237=ORIENTED_EDGE('',*,*,#528,.T.);
#238=ORIENTED_EDGE('',*,*,#529,.F.);
#239=ORIENTED_EDGE('',*,*,#530,.T.);
#240=ORIENTED_EDGE('',*,*,#528,.F.);
#241=ORIENTED_EDGE('',*,*,#454,.F.);
#242=ORIENTED_EDGE('',*,*,#531,.T.);
#243=ORIENTED_EDGE('',*,*,#488,.T.);
#244=ORIENTED_EDGE('',*,*,#400,.F.);
#245=ORIENTED_EDGE('',*,*,#532,.F.);
#246=ORIENTED_EDGE('',*,*,#489,.T.);
#247=ORIENTED_EDGE('',*,*,#531,.F.);
#248=ORIENTED_EDGE('',*,*,#453,.F.);
#249=ORIENTED_EDGE('',*,*,#533,.T.);
#250=ORIENTED_EDGE('',*,*,#534,.T.);
#251=ORIENTED_EDGE('',*,*,#535,.T.);
#252=ORIENTED_EDGE('',*,*,#536,.T.);
#253=ORIENTED_EDGE('',*,*,#537,.F.);
#254=ORIENTED_EDGE('',*,*,#406,.T.);
#255=ORIENTED_EDGE('',*,*,#490,.T.);
#256=ORIENTED_EDGE('',*,*,#533,.F.);
#257=ORIENTED_EDGE('',*,*,#452,.F.);
#258=ORIENTED_EDGE('',*,*,#538,.F.);
#259=ORIENTED_EDGE('',*,*,#534,.F.);
#260=ORIENTED_EDGE('',*,*,#451,.T.);
#261=ORIENTED_EDGE('',*,*,#539,.T.);
#262=ORIENTED_EDGE('',*,*,#540,.F.);
#263=ORIENTED_EDGE('',*,*,#541,.T.);
#264=ORIENTED_EDGE('',*,*,#539,.F.);
#265=ORIENTED_EDGE('',*,*,#450,.F.);
#266=ORIENTED_EDGE('',*,*,#542,.T.);
#267=ORIENTED_EDGE('',*,*,#491,.T.);
#268=ORIENTED_EDGE('',*,*,#408,.F.);
#269=ORIENTED_EDGE('',*,*,#543,.F.);
#270=ORIENTED_EDGE('',*,*,#492,.T.);
#271=ORIENTED_EDGE('',*,*,#542,.F.);
#272=ORIENTED_EDGE('',*,*,#449,.F.);
#273=ORIENTED_EDGE('',*,*,#419,.T.);
#274=ORIENTED_EDGE('',*,*,#544,.F.);
#275=ORIENTED_EDGE('',*,*,#429,.T.);
#276=ORIENTED_EDGE('',*,*,#493,.F.);
#277=ORIENTED_EDGE('',*,*,#417,.F.);
#278=ORIENTED_EDGE('',*,*,#545,.T.);
#279=ORIENTED_EDGE('',*,*,#496,.T.);
#280=ORIENTED_EDGE('',*,*,#546,.F.);
#281=ORIENTED_EDGE('',*,*,#415,.F.);
#282=ORIENTED_EDGE('',*,*,#414,.T.);
#283=ORIENTED_EDGE('',*,*,#423,.F.);
#284=ORIENTED_EDGE('',*,*,#425,.T.);
#285=ORIENTED_EDGE('',*,*,#547,.T.);
#286=ORIENTED_EDGE('',*,*,#495,.F.);
#287=ORIENTED_EDGE('',*,*,#545,.F.);
#288=ORIENTED_EDGE('',*,*,#546,.T.);
#289=ORIENTED_EDGE('',*,*,#410,.T.);
#290=ORIENTED_EDGE('',*,*,#548,.F.);
#291=ORIENTED_EDGE('',*,*,#430,.F.);
#292=ORIENTED_EDGE('',*,*,#544,.T.);
#293=ORIENTED_EDGE('',*,*,#416,.F.);
#294=ORIENTED_EDGE('',*,*,#431,.T.);
#295=ORIENTED_EDGE('',*,*,#548,.T.);
#296=ORIENTED_EDGE('',*,*,#434,.F.);
#297=ORIENTED_EDGE('',*,*,#547,.F.);
#298=ORIENTED_EDGE('',*,*,#549,.T.);
#299=ORIENTED_EDGE('',*,*,#503,.T.);
#300=ORIENTED_EDGE('',*,*,#550,.F.);
#301=ORIENTED_EDGE('',*,*,#536,.F.);
#302=ORIENTED_EDGE('',*,*,#540,.T.);
#303=ORIENTED_EDGE('',*,*,#551,.T.);
#304=ORIENTED_EDGE('',*,*,#499,.F.);
#305=ORIENTED_EDGE('',*,*,#552,.F.);
#306=ORIENTED_EDGE('',*,*,#538,.T.);
#307=ORIENTED_EDGE('',*,*,#541,.F.);
#308=ORIENTED_EDGE('',*,*,#552,.T.);
#309=ORIENTED_EDGE('',*,*,#402,.T.);
#310=ORIENTED_EDGE('',*,*,#549,.F.);
#311=ORIENTED_EDGE('',*,*,#535,.F.);
#312=ORIENTED_EDGE('',*,*,#537,.T.);
#313=ORIENTED_EDGE('',*,*,#550,.T.);
#314=ORIENTED_EDGE('',*,*,#501,.F.);
#315=ORIENTED_EDGE('',*,*,#551,.F.);
#316=ORIENTED_EDGE('',*,*,#543,.T.);
#317=ORIENTED_EDGE('',*,*,#407,.F.);
#318=ORIENTED_EDGE('',*,*,#553,.T.);
#319=ORIENTED_EDGE('',*,*,#510,.T.);
#320=ORIENTED_EDGE('',*,*,#554,.F.);
#321=ORIENTED_EDGE('',*,*,#525,.F.);
#322=ORIENTED_EDGE('',*,*,#529,.T.);
#323=ORIENTED_EDGE('',*,*,#555,.T.);
#324=ORIENTED_EDGE('',*,*,#506,.F.);
#325=ORIENTED_EDGE('',*,*,#556,.F.);
#326=ORIENTED_EDGE('',*,*,#527,.T.);
#327=ORIENTED_EDGE('',*,*,#530,.F.);
#328=ORIENTED_EDGE('',*,*,#556,.T.);
#329=ORIENTED_EDGE('',*,*,#394,.T.);
#330=ORIENTED_EDGE('',*,*,#553,.F.);
#331=ORIENTED_EDGE('',*,*,#524,.F.);
#332=ORIENTED_EDGE('',*,*,#526,.T.);
#333=ORIENTED_EDGE('',*,*,#554,.T.);
#334=ORIENTED_EDGE('',*,*,#508,.F.);
#335=ORIENTED_EDGE('',*,*,#555,.F.);
#336=ORIENTED_EDGE('',*,*,#532,.T.);
#337=ORIENTED_EDGE('',*,*,#399,.F.);
#338=ORIENTED_EDGE('',*,*,#518,.T.);
#339=ORIENTED_EDGE('',*,*,#557,.T.);
#340=ORIENTED_EDGE('',*,*,#513,.F.);
#341=ORIENTED_EDGE('',*,*,#558,.F.);
#342=ORIENTED_EDGE('',*,*,#519,.F.);
#343=ORIENTED_EDGE('',*,*,#558,.T.);
#344=ORIENTED_EDGE('',*,*,#386,.T.);
#345=ORIENTED_EDGE('',*,*,#517,.F.);
#346=ORIENTED_EDGE('',*,*,#390,.T.);
#347=ORIENTED_EDGE('',*,*,#515,.F.);
#348=ORIENTED_EDGE('',*,*,#557,.F.);
#349=ORIENTED_EDGE('',*,*,#521,.T.);
#350=ORIENTED_EDGE('',*,*,#444,.F.);
#351=ORIENTED_EDGE('',*,*,#448,.T.);
#352=ORIENTED_EDGE('',*,*,#559,.F.);
#353=ORIENTED_EDGE('',*,*,#560,.F.);
#354=ORIENTED_EDGE('',*,*,#561,.T.);
#355=ORIENTED_EDGE('',*,*,#562,.T.);
#356=ORIENTED_EDGE('',*,*,#563,.F.);
#357=ORIENTED_EDGE('',*,*,#470,.F.);
#358=ORIENTED_EDGE('',*,*,#438,.T.);
#359=ORIENTED_EDGE('',*,*,#472,.T.);
#360=ORIENTED_EDGE('',*,*,#564,.F.);
#361=ORIENTED_EDGE('',*,*,#565,.F.);
#362=ORIENTED_EDGE('',*,*,#566,.F.);
#363=ORIENTED_EDGE('',*,*,#567,.T.);
#364=ORIENTED_EDGE('',*,*,#568,.F.);
#365=ORIENTED_EDGE('',*,*,#446,.F.);
#366=ORIENTED_EDGE('',*,*,#561,.F.);
#367=ORIENTED_EDGE('',*,*,#569,.T.);
#368=ORIENTED_EDGE('',*,*,#566,.T.);
#369=ORIENTED_EDGE('',*,*,#570,.T.);
#370=ORIENTED_EDGE('',*,*,#570,.F.);
#371=ORIENTED_EDGE('',*,*,#565,.T.);
#372=ORIENTED_EDGE('',*,*,#571,.T.);
#373=ORIENTED_EDGE('',*,*,#562,.F.);
#374=ORIENTED_EDGE('',*,*,#563,.T.);
#375=ORIENTED_EDGE('',*,*,#571,.F.);
#376=ORIENTED_EDGE('',*,*,#564,.T.);
#377=ORIENTED_EDGE('',*,*,#471,.F.);
#378=ORIENTED_EDGE('',*,*,#569,.F.);
#379=ORIENTED_EDGE('',*,*,#560,.T.);
#380=ORIENTED_EDGE('',*,*,#572,.F.);
#381=ORIENTED_EDGE('',*,*,#567,.F.);
#382=ORIENTED_EDGE('',*,*,#447,.T.);
#383=ORIENTED_EDGE('',*,*,#568,.T.);
#384=ORIENTED_EDGE('',*,*,#572,.T.);
#385=ORIENTED_EDGE('',*,*,#559,.T.);
#386=EDGE_CURVE('',#573,#574,#693,.T.);
#387=EDGE_CURVE('',#575,#573,#694,.T.);
#388=EDGE_CURVE('',#576,#575,#695,.T.);
#389=EDGE_CURVE('',#576,#574,#696,.T.);
#390=EDGE_CURVE('',#577,#578,#697,.T.);
#391=EDGE_CURVE('',#577,#579,#698,.T.);
#392=EDGE_CURVE('',#579,#580,#699,.T.);
#393=EDGE_CURVE('',#578,#580,#700,.T.);
#394=EDGE_CURVE('',#581,#582,#701,.T.);
#395=EDGE_CURVE('',#583,#581,#702,.T.);
#396=EDGE_CURVE('',#584,#583,#703,.T.);
#397=EDGE_CURVE('',#584,#582,#704,.T.);
#398=EDGE_CURVE('',#585,#586,#705,.T.);
#399=EDGE_CURVE('',#585,#587,#706,.T.);
#400=EDGE_CURVE('',#587,#588,#707,.T.);
#401=EDGE_CURVE('',#586,#588,#708,.T.);
#402=EDGE_CURVE('',#589,#590,#709,.T.);
#403=EDGE_CURVE('',#591,#589,#710,.T.);
#404=EDGE_CURVE('',#592,#591,#711,.T.);
#405=EDGE_CURVE('',#592,#590,#712,.T.);
#406=EDGE_CURVE('',#593,#594,#713,.T.);
#407=EDGE_CURVE('',#593,#595,#714,.T.);
#408=EDGE_CURVE('',#595,#596,#715,.T.);
#409=EDGE_CURVE('',#594,#596,#716,.T.);
#410=EDGE_CURVE('',#597,#598,#717,.T.);
#411=EDGE_CURVE('',#597,#599,#718,.T.);
#412=EDGE_CURVE('',#599,#600,#719,.T.);
#413=EDGE_CURVE('',#598,#600,#720,.T.);
#414=EDGE_CURVE('',#601,#602,#721,.T.);
#415=EDGE_CURVE('',#601,#603,#722,.T.);
#416=EDGE_CURVE('',#603,#604,#723,.T.);
#417=EDGE_CURVE('',#604,#605,#724,.T.);
#418=EDGE_CURVE('',#605,#606,#725,.T.);
#419=EDGE_CURVE('',#607,#606,#726,.T.);
#420=EDGE_CURVE('',#608,#607,#727,.T.);
#421=EDGE_CURVE('',#608,#602,#728,.T.);
#422=EDGE_CURVE('',#609,#610,#729,.T.);
#423=EDGE_CURVE('',#610,#602,#730,.T.);
#424=EDGE_CURVE('',#608,#609,#731,.T.);
#425=EDGE_CURVE('',#610,#611,#732,.T.);
#426=EDGE_CURVE('',#612,#609,#733,.T.);
#427=EDGE_CURVE('',#612,#613,#734,.T.);
#428=EDGE_CURVE('',#613,#614,#735,.T.);
#429=EDGE_CURVE('',#615,#614,#736,.T.);
#430=EDGE_CURVE('',#615,#616,#737,.T.);
#431=EDGE_CURVE('',#611,#616,#738,.T.);
#432=EDGE_CURVE('',#617,#618,#739,.T.);
#433=EDGE_CURVE('',#618,#619,#740,.T.);
#434=EDGE_CURVE('',#619,#598,#741,.T.);
#435=EDGE_CURVE('',#620,#600,#742,.T.);
#436=EDGE_CURVE('',#617,#620,#743,.T.);
#437=EDGE_CURVE('',#621,#622,#744,.T.);
#438=EDGE_CURVE('',#623,#621,#745,.T.);
#439=EDGE_CURVE('',#623,#624,#746,.T.);
#440=EDGE_CURVE('',#624,#622,#747,.T.);
#441=EDGE_CURVE('',#620,#622,#748,.T.);
#442=EDGE_CURVE('',#617,#624,#749,.T.);
#443=EDGE_CURVE('',#612,#625,#750,.T.);
#444=EDGE_CURVE('',#625,#626,#751,.T.);
#445=EDGE_CURVE('',#613,#626,#752,.T.);
#446=EDGE_CURVE('',#623,#627,#753,.T.);
#447=EDGE_CURVE('',#628,#627,#754,.T.);
#448=EDGE_CURVE('',#625,#628,#755,.T.);
#449=EDGE_CURVE('',#607,#629,#756,.T.);
#450=EDGE_CURVE('',#629,#630,#757,.T.);
#451=EDGE_CURVE('',#631,#630,#758,.T.);
#452=EDGE_CURVE('',#631,#632,#759,.T.);
#453=EDGE_CURVE('',#632,#633,#760,.T.);
#454=EDGE_CURVE('',#633,#634,#761,.T.);
#455=EDGE_CURVE('',#635,#634,#762,.T.);
#456=EDGE_CURVE('',#635,#636,#763,.T.);
#457=EDGE_CURVE('',#636,#637,#764,.T.);
#458=EDGE_CURVE('',#637,#638,#765,.T.);
#459=EDGE_CURVE('',#638,#576,#766,.T.);
#460=EDGE_CURVE('',#575,#639,#767,.T.);
#461=EDGE_CURVE('',#640,#639,#768,.T.);
#462=EDGE_CURVE('',#584,#640,#769,.T.);
#463=EDGE_CURVE('',#583,#641,#770,.T.);
#464=EDGE_CURVE('',#642,#641,#771,.T.);
#465=EDGE_CURVE('',#592,#642,#772,.T.);
#466=EDGE_CURVE('',#591,#643,#773,.T.);
#467=EDGE_CURVE('',#643,#644,#774,.T.);
#468=EDGE_CURVE('',#645,#644,#775,.T.);
#469=EDGE_CURVE('',#645,#618,#776,.T.);
#470=EDGE_CURVE('',#626,#646,#777,.T.);
#471=EDGE_CURVE('',#646,#647,#778,.T.);
#472=EDGE_CURVE('',#621,#647,#779,.T.);
#473=EDGE_CURVE('',#599,#648,#780,.T.);
#474=EDGE_CURVE('',#649,#648,#781,.T.);
#475=EDGE_CURVE('',#650,#649,#782,.T.);
#476=EDGE_CURVE('',#651,#650,#783,.T.);
#477=EDGE_CURVE('',#651,#652,#784,.T.);
#478=EDGE_CURVE('',#652,#653,#785,.T.);
#479=EDGE_CURVE('',#654,#653,#786,.T.);
#480=EDGE_CURVE('',#655,#654,#787,.T.);
#481=EDGE_CURVE('',#655,#656,#788,.T.);
#482=EDGE_CURVE('',#656,#657,#789,.T.);
#483=EDGE_CURVE('',#658,#657,#790,.T.);
#484=EDGE_CURVE('',#580,#658,#791,.T.);
#485=EDGE_CURVE('',#659,#579,#792,.T.);
#486=EDGE_CURVE('',#660,#659,#793,.T.);
#487=EDGE_CURVE('',#586,#660,#794,.T.);
#488=EDGE_CURVE('',#661,#588,#795,.T.);
#489=EDGE_CURVE('',#662,#661,#796,.T.);
#490=EDGE_CURVE('',#594,#662,#797,.T.);
#491=EDGE_CURVE('',#663,#596,#798,.T.);
#492=EDGE_CURVE('',#606,#663,#799,.T.);
#493=EDGE_CURVE('',#605,#614,#800,.T.);
#494=EDGE_CURVE('',#645,#664,#801,.T.);
#495=EDGE_CURVE('',#664,#619,#802,.T.);
#496=EDGE_CURVE('',#664,#597,#803,.T.);
#497=EDGE_CURVE('',#644,#648,#804,.T.);
#498=EDGE_CURVE('',#643,#649,#805,.T.);
#499=EDGE_CURVE('',#589,#665,#806,.T.);
#500=EDGE_CURVE('',#665,#650,#807,.T.);
#501=EDGE_CURVE('',#665,#666,#808,.T.);
#502=EDGE_CURVE('',#666,#651,#809,.T.);
#503=EDGE_CURVE('',#590,#666,#810,.T.);
#504=EDGE_CURVE('',#642,#652,#811,.T.);
#505=EDGE_CURVE('',#641,#653,#812,.T.);
#506=EDGE_CURVE('',#581,#667,#813,.T.);
#507=EDGE_CURVE('',#667,#654,#814,.T.);
#508=EDGE_CURVE('',#667,#668,#815,.T.);
#509=EDGE_CURVE('',#668,#655,#816,.T.);
#510=EDGE_CURVE('',#582,#668,#817,.T.);
#511=EDGE_CURVE('',#640,#656,#818,.T.);
#512=EDGE_CURVE('',#639,#657,#819,.T.);
#513=EDGE_CURVE('',#573,#669,#820,.T.);
#514=EDGE_CURVE('',#669,#658,#821,.T.);
#515=EDGE_CURVE('',#669,#578,#822,.T.);
#516=EDGE_CURVE('',#638,#670,#823,.T.);
#517=EDGE_CURVE('',#670,#574,#824,.T.);
#518=EDGE_CURVE('',#671,#672,#825,.T.);
#519=EDGE_CURVE('',#671,#670,#826,.T.);
#520=EDGE_CURVE('',#637,#659,#827,.T.);
#521=EDGE_CURVE('',#672,#577,#828,.T.);
#522=EDGE_CURVE('',#636,#660,#829,.T.);
#523=EDGE_CURVE('',#635,#673,#830,.T.);
#524=EDGE_CURVE('',#673,#674,#831,.T.);
#525=EDGE_CURVE('',#674,#675,#832,.T.);
#526=EDGE_CURVE('',#585,#675,#833,.T.);
#527=EDGE_CURVE('',#673,#676,#834,.T.);
#528=EDGE_CURVE('',#634,#676,#835,.T.);
#529=EDGE_CURVE('',#677,#678,#836,.T.);
#530=EDGE_CURVE('',#677,#676,#837,.T.);
#531=EDGE_CURVE('',#633,#661,#838,.T.);
#532=EDGE_CURVE('',#678,#587,#839,.T.);
#533=EDGE_CURVE('',#632,#662,#840,.T.);
#534=EDGE_CURVE('',#631,#679,#841,.T.);
#535=EDGE_CURVE('',#679,#680,#842,.T.);
#536=EDGE_CURVE('',#680,#681,#843,.T.);
#537=EDGE_CURVE('',#593,#681,#844,.T.);
#538=EDGE_CURVE('',#679,#682,#845,.T.);
#539=EDGE_CURVE('',#630,#682,#846,.T.);
#540=EDGE_CURVE('',#683,#684,#847,.T.);
#541=EDGE_CURVE('',#683,#682,#848,.T.);
#542=EDGE_CURVE('',#629,#663,#849,.T.);
#543=EDGE_CURVE('',#684,#595,#850,.T.);
#544=EDGE_CURVE('',#615,#604,#851,.T.);
#545=EDGE_CURVE('',#601,#664,#852,.T.);
#546=EDGE_CURVE('',#603,#597,#853,.T.);
#547=EDGE_CURVE('',#611,#619,#854,.T.);
#548=EDGE_CURVE('',#616,#598,#855,.T.);
#549=EDGE_CURVE('',#680,#590,#856,.T.);
#550=EDGE_CURVE('',#681,#666,#857,.T.);
#551=EDGE_CURVE('',#684,#665,#858,.T.);
#552=EDGE_CURVE('',#683,#589,#859,.T.);
#553=EDGE_CURVE('',#674,#582,#860,.T.);
#554=EDGE_CURVE('',#675,#668,#861,.T.);
#555=EDGE_CURVE('',#678,#667,#862,.T.);
#556=EDGE_CURVE('',#677,#581,#863,.T.);
#557=EDGE_CURVE('',#672,#669,#864,.T.);
#558=EDGE_CURVE('',#671,#573,#865,.T.);
#559=EDGE_CURVE('',#685,#628,#866,.T.);
#560=EDGE_CURVE('',#686,#685,#867,.T.);
#561=EDGE_CURVE('',#686,#687,#868,.T.);
#562=EDGE_CURVE('',#687,#688,#869,.T.);
#563=EDGE_CURVE('',#646,#688,#870,.T.);
#564=EDGE_CURVE('',#689,#647,#871,.T.);
#565=EDGE_CURVE('',#690,#689,#872,.T.);
#566=EDGE_CURVE('',#691,#690,#873,.T.);
#567=EDGE_CURVE('',#691,#692,#874,.T.);
#568=EDGE_CURVE('',#627,#692,#875,.T.);
#569=EDGE_CURVE('',#686,#691,#876,.T.);
#570=EDGE_CURVE('',#690,#687,#877,.T.);
#571=EDGE_CURVE('',#689,#688,#878,.T.);
#572=EDGE_CURVE('',#692,#685,#879,.T.);
#573=VERTEX_POINT('',#1713);
#574=VERTEX_POINT('',#1714);
#575=VERTEX_POINT('',#1716);
#576=VERTEX_POINT('',#1718);
#577=VERTEX_POINT('',#1722);
#578=VERTEX_POINT('',#1723);
#579=VERTEX_POINT('',#1725);
#580=VERTEX_POINT('',#1727);
#581=VERTEX_POINT('',#1731);
#582=VERTEX_POINT('',#1732);
#583=VERTEX_POINT('',#1734);
#584=VERTEX_POINT('',#1736);
#585=VERTEX_POINT('',#1740);
#586=VERTEX_POINT('',#1741);
#587=VERTEX_POINT('',#1743);
#588=VERTEX_POINT('',#1745);
#589=VERTEX_POINT('',#1749);
#590=VERTEX_POINT('',#1750);
#591=VERTEX_POINT('',#1752);
#592=VERTEX_POINT('',#1754);
#593=VERTEX_POINT('',#1758);
#594=VERTEX_POINT('',#1759);
#595=VERTEX_POINT('',#1761);
#596=VERTEX_POINT('',#1763);
#597=VERTEX_POINT('',#1767);
#598=VERTEX_POINT('',#1768);
#599=VERTEX_POINT('',#1770);
#600=VERTEX_POINT('',#1772);
#601=VERTEX_POINT('',#1776);
#602=VERTEX_POINT('',#1777);
#603=VERTEX_POINT('',#1779);
#604=VERTEX_POINT('',#1781);
#605=VERTEX_POINT('',#1783);
#606=VERTEX_POINT('',#1785);
#607=VERTEX_POINT('',#1787);
#608=VERTEX_POINT('',#1789);
#609=VERTEX_POINT('',#1793);
#610=VERTEX_POINT('',#1794);
#611=VERTEX_POINT('',#1799);
#612=VERTEX_POINT('',#1801);
#613=VERTEX_POINT('',#1803);
#614=VERTEX_POINT('',#1805);
#615=VERTEX_POINT('',#1807);
#616=VERTEX_POINT('',#1809);
#617=VERTEX_POINT('',#1813);
#618=VERTEX_POINT('',#1814);
#619=VERTEX_POINT('',#1816);
#620=VERTEX_POINT('',#1819);
#621=VERTEX_POINT('',#1823);
#622=VERTEX_POINT('',#1824);
#623=VERTEX_POINT('',#1826);
#624=VERTEX_POINT('',#1828);
#625=VERTEX_POINT('',#1835);
#626=VERTEX_POINT('',#1837);
#627=VERTEX_POINT('',#1841);
#628=VERTEX_POINT('',#1843);
#629=VERTEX_POINT('',#1846);
#630=VERTEX_POINT('',#1848);
#631=VERTEX_POINT('',#1850);
#632=VERTEX_POINT('',#1852);
#633=VERTEX_POINT('',#1854);
#634=VERTEX_POINT('',#1856);
#635=VERTEX_POINT('',#1858);
#636=VERTEX_POINT('',#1860);
#637=VERTEX_POINT('',#1862);
#638=VERTEX_POINT('',#1864);
#639=VERTEX_POINT('',#1867);
#640=VERTEX_POINT('',#1869);
#641=VERTEX_POINT('',#1872);
#642=VERTEX_POINT('',#1874);
#643=VERTEX_POINT('',#1877);
#644=VERTEX_POINT('',#1879);
#645=VERTEX_POINT('',#1881);
#646=VERTEX_POINT('',#1885);
#647=VERTEX_POINT('',#1887);
#648=VERTEX_POINT('',#1890);
#649=VERTEX_POINT('',#1892);
#650=VERTEX_POINT('',#1894);
#651=VERTEX_POINT('',#1896);
#652=VERTEX_POINT('',#1898);
#653=VERTEX_POINT('',#1900);
#654=VERTEX_POINT('',#1902);
#655=VERTEX_POINT('',#1904);
#656=VERTEX_POINT('',#1906);
#657=VERTEX_POINT('',#1908);
#658=VERTEX_POINT('',#1910);
#659=VERTEX_POINT('',#1913);
#660=VERTEX_POINT('',#1915);
#661=VERTEX_POINT('',#1918);
#662=VERTEX_POINT('',#1920);
#663=VERTEX_POINT('',#1923);
#664=VERTEX_POINT('',#1928);
#665=VERTEX_POINT('',#1937);
#666=VERTEX_POINT('',#1941);
#667=VERTEX_POINT('',#1950);
#668=VERTEX_POINT('',#1954);
#669=VERTEX_POINT('',#1963);
#670=VERTEX_POINT('',#1969);
#671=VERTEX_POINT('',#1973);
#672=VERTEX_POINT('',#1974);
#673=VERTEX_POINT('',#1982);
#674=VERTEX_POINT('',#1984);
#675=VERTEX_POINT('',#1986);
#676=VERTEX_POINT('',#1990);
#677=VERTEX_POINT('',#1994);
#678=VERTEX_POINT('',#1995);
#679=VERTEX_POINT('',#2003);
#680=VERTEX_POINT('',#2005);
#681=VERTEX_POINT('',#2007);
#682=VERTEX_POINT('',#2011);
#683=VERTEX_POINT('',#2015);
#684=VERTEX_POINT('',#2016);
#685=VERTEX_POINT('',#2054);
#686=VERTEX_POINT('',#2056);
#687=VERTEX_POINT('',#2058);
#688=VERTEX_POINT('',#2060);
#689=VERTEX_POINT('',#2064);
#690=VERTEX_POINT('',#2066);
#691=VERTEX_POINT('',#2068);
#692=VERTEX_POINT('',#2070);
#693=LINE('',#1712,#880);
#694=LINE('',#1715,#881);
#695=LINE('',#1717,#882);
#696=LINE('',#1719,#883);
#697=LINE('',#1721,#884);
#698=LINE('',#1724,#885);
#699=LINE('',#1726,#886);
#700=LINE('',#1728,#887);
#701=LINE('',#1730,#888);
#702=LINE('',#1733,#889);
#703=LINE('',#1735,#890);
#704=LINE('',#1737,#891);
#705=LINE('',#1739,#892);
#706=LINE('',#1742,#893);
#707=LINE('',#1744,#894);
#708=LINE('',#1746,#895);
#709=LINE('',#1748,#896);
#710=LINE('',#1751,#897);
#711=LINE('',#1753,#898);
#712=LINE('',#1755,#899);
#713=LINE('',#1757,#900);
#714=LINE('',#1760,#901);
#715=LINE('',#1762,#902);
#716=LINE('',#1764,#903);
#717=LINE('',#1766,#904);
#718=LINE('',#1769,#905);
#719=LINE('',#1771,#906);
#720=LINE('',#1773,#907);
#721=LINE('',#1775,#908);
#722=LINE('',#1778,#909);
#723=LINE('',#1780,#910);
#724=LINE('',#1782,#911);
#725=LINE('',#1784,#912);
#726=LINE('',#1786,#913);
#727=LINE('',#1788,#914);
#728=LINE('',#1790,#915);
#729=LINE('',#1792,#916);
#730=LINE('',#1795,#917);
#731=LINE('',#1796,#918);
#732=LINE('',#1798,#919);
#733=LINE('',#1800,#920);
#734=LINE('',#1802,#921);
#735=LINE('',#1804,#922);
#736=LINE('',#1806,#923);
#737=LINE('',#1808,#924);
#738=LINE('',#1810,#925);
#739=LINE('',#1812,#926);
#740=LINE('',#1815,#927);
#741=LINE('',#1817,#928);
#742=LINE('',#1818,#929);
#743=LINE('',#1820,#930);
#744=LINE('',#1822,#931);
#745=LINE('',#1825,#932);
#746=LINE('',#1827,#933);
#747=LINE('',#1829,#934);
#748=LINE('',#1831,#935);
#749=LINE('',#1832,#936);
#750=LINE('',#1834,#937);
#751=LINE('',#1836,#938);
#752=LINE('',#1838,#939);
#753=LINE('',#1840,#940);
#754=LINE('',#1842,#941);
#755=LINE('',#1844,#942);
#756=LINE('',#1845,#943);
#757=LINE('',#1847,#944);
#758=LINE('',#1849,#945);
#759=LINE('',#1851,#946);
#760=LINE('',#1853,#947);
#761=LINE('',#1855,#948);
#762=LINE('',#1857,#949);
#763=LINE('',#1859,#950);
#764=LINE('',#1861,#951);
#765=LINE('',#1863,#952);
#766=LINE('',#1865,#953);
#767=LINE('',#1866,#954);
#768=LINE('',#1868,#955);
#769=LINE('',#1870,#956);
#770=LINE('',#1871,#957);
#771=LINE('',#1873,#958);
#772=LINE('',#1875,#959);
#773=LINE('',#1876,#960);
#774=LINE('',#1878,#961);
#775=LINE('',#1880,#962);
#776=LINE('',#1882,#963);
#777=LINE('',#1884,#964);
#778=LINE('',#1886,#965);
#779=LINE('',#1888,#966);
#780=LINE('',#1889,#967);
#781=LINE('',#1891,#968);
#782=LINE('',#1893,#969);
#783=LINE('',#1895,#970);
#784=LINE('',#1897,#971);
#785=LINE('',#1899,#972);
#786=LINE('',#1901,#973);
#787=LINE('',#1903,#974);
#788=LINE('',#1905,#975);
#789=LINE('',#1907,#976);
#790=LINE('',#1909,#977);
#791=LINE('',#1911,#978);
#792=LINE('',#1912,#979);
#793=LINE('',#1914,#980);
#794=LINE('',#1916,#981);
#795=LINE('',#1917,#982);
#796=LINE('',#1919,#983);
#797=LINE('',#1921,#984);
#798=LINE('',#1922,#985);
#799=LINE('',#1924,#986);
#800=LINE('',#1925,#987);
#801=LINE('',#1927,#988);
#802=LINE('',#1929,#989);
#803=LINE('',#1931,#990);
#804=LINE('',#1932,#991);
#805=LINE('',#1934,#992);
#806=LINE('',#1936,#993);
#807=LINE('',#1938,#994);
#808=LINE('',#1940,#995);
#809=LINE('',#1942,#996);
#810=LINE('',#1944,#997);
#811=LINE('',#1945,#998);
#812=LINE('',#1947,#999);
#813=LINE('',#1949,#1000);
#814=LINE('',#1951,#1001);
#815=LINE('',#1953,#1002);
#816=LINE('',#1955,#1003);
#817=LINE('',#1957,#1004);
#818=LINE('',#1958,#1005);
#819=LINE('',#1960,#1006);
#820=LINE('',#1962,#1007);
#821=LINE('',#1964,#1008);
#822=LINE('',#1966,#1009);
#823=LINE('',#1968,#1010);
#824=LINE('',#1970,#1011);
#825=LINE('',#1972,#1012);
#826=LINE('',#1975,#1013);
#827=LINE('',#1976,#1014);
#828=LINE('',#1977,#1015);
#829=LINE('',#1979,#1016);
#830=LINE('',#1981,#1017);
#831=LINE('',#1983,#1018);
#832=LINE('',#1985,#1019);
#833=LINE('',#1987,#1020);
#834=LINE('',#1989,#1021);
#835=LINE('',#1991,#1022);
#836=LINE('',#1993,#1023);
#837=LINE('',#1996,#1024);
#838=LINE('',#1997,#1025);
#839=LINE('',#1998,#1026);
#840=LINE('',#2000,#1027);
#841=LINE('',#2002,#1028);
#842=LINE('',#2004,#1029);
#843=LINE('',#2006,#1030);
#844=LINE('',#2008,#1031);
#845=LINE('',#2010,#1032);
#846=LINE('',#2012,#1033);
#847=LINE('',#2014,#1034);
#848=LINE('',#2017,#1035);
#849=LINE('',#2018,#1036);
#850=LINE('',#2019,#1037);
#851=LINE('',#2022,#1038);
#852=LINE('',#2024,#1039);
#853=LINE('',#2025,#1040);
#854=LINE('',#2027,#1041);
#855=LINE('',#2029,#1042);
#856=LINE('',#2032,#1043);
#857=LINE('',#2033,#1044);
#858=LINE('',#2035,#1045);
#859=LINE('',#2036,#1046);
#860=LINE('',#2040,#1047);
#861=LINE('',#2041,#1048);
#862=LINE('',#2043,#1049);
#863=LINE('',#2044,#1050);
#864=LINE('',#2048,#1051);
#865=LINE('',#2049,#1052);
#866=LINE('',#2053,#1053);
#867=LINE('',#2055,#1054);
#868=LINE('',#2057,#1055);
#869=LINE('',#2059,#1056);
#870=LINE('',#2061,#1057);
#871=LINE('',#2063,#1058);
#872=LINE('',#2065,#1059);
#873=LINE('',#2067,#1060);
#874=LINE('',#2069,#1061);
#875=LINE('',#2071,#1062);
#876=LINE('',#2073,#1063);
#877=LINE('',#2074,#1064);
#878=LINE('',#2076,#1065);
#879=LINE('',#2079,#1066);
#880=VECTOR('',#1399,1.);
#881=VECTOR('',#1400,1.);
#882=VECTOR('',#1401,1.);
#883=VECTOR('',#1402,1.);
#884=VECTOR('',#1405,1.);
#885=VECTOR('',#1406,1.);
#886=VECTOR('',#1407,1.);
#887=VECTOR('',#1408,1.);
#888=VECTOR('',#1411,1.);
#889=VECTOR('',#1412,1.);
#890=VECTOR('',#1413,1.);
#891=VECTOR('',#1414,1.);
#892=VECTOR('',#1417,1.);
#893=VECTOR('',#1418,1.);
#894=VECTOR('',#1419,1.);
#895=VECTOR('',#1420,1.);
#896=VECTOR('',#1423,1.);
#897=VECTOR('',#1424,1.);
#898=VECTOR('',#1425,1.);
#899=VECTOR('',#1426,1.);
#900=VECTOR('',#1429,1.);
#901=VECTOR('',#1430,1.);
#902=VECTOR('',#1431,1.);
#903=VECTOR('',#1432,1.);
#904=VECTOR('',#1435,1.);
#905=VECTOR('',#1436,1.);
#906=VECTOR('',#1437,1.);
#907=VECTOR('',#1438,1.);
#908=VECTOR('',#1441,1.);
#909=VECTOR('',#1442,1.);
#910=VECTOR('',#1443,1.);
#911=VECTOR('',#1444,1.);
#912=VECTOR('',#1445,1.);
#913=VECTOR('',#1446,1.);
#914=VECTOR('',#1447,1.);
#915=VECTOR('',#1448,1.);
#916=VECTOR('',#1451,1.);
#917=VECTOR('',#1452,1.);
#918=VECTOR('',#1453,1.);
#919=VECTOR('',#1456,1.);
#920=VECTOR('',#1457,1.);
#921=VECTOR('',#1458,1.);
#922=VECTOR('',#1459,1.);
#923=VECTOR('',#1460,1.);
#924=VECTOR('',#1461,1.);
#925=VECTOR('',#1462,1.);
#926=VECTOR('',#1465,1.);
#927=VECTOR('',#1466,1.);
#928=VECTOR('',#1467,1.);
#929=VECTOR('',#1468,1.);
#930=VECTOR('',#1469,1.);
#931=VECTOR('',#1472,1.);
#932=VECTOR('',#1473,1.);
#933=VECTOR('',#1474,1.);
#934=VECTOR('',#1475,1.);
#935=VECTOR('',#1478,1.);
#936=VECTOR('',#1479,1.);
#937=VECTOR('',#1482,1.);
#938=VECTOR('',#1483,1.);
#939=VECTOR('',#1484,1.);
#940=VECTOR('',#1487,1.);
#941=VECTOR('',#1488,1.);
#942=VECTOR('',#1489,1.);
#943=VECTOR('',#1490,1.);
#944=VECTOR('',#1491,1.);
#945=VECTOR('',#1492,1.);
#946=VECTOR('',#1493,1.);
#947=VECTOR('',#1494,1.);
#948=VECTOR('',#1495,1.);
#949=VECTOR('',#1496,1.);
#950=VECTOR('',#1497,1.);
#951=VECTOR('',#1498,1.);
#952=VECTOR('',#1499,1.);
#953=VECTOR('',#1500,1.);
#954=VECTOR('',#1501,1.);
#955=VECTOR('',#1502,1.);
#956=VECTOR('',#1503,1.);
#957=VECTOR('',#1504,1.);
#958=VECTOR('',#1505,1.);
#959=VECTOR('',#1506,1.);
#960=VECTOR('',#1507,1.);
#961=VECTOR('',#1508,1.);
#962=VECTOR('',#1509,1.);
#963=VECTOR('',#1510,1.);
#964=VECTOR('',#1513,1.);
#965=VECTOR('',#1514,1.);
#966=VECTOR('',#1515,1.);
#967=VECTOR('',#1516,1.);
#968=VECTOR('',#1517,1.);
#969=VECTOR('',#1518,1.);
#970=VECTOR('',#1519,1.);
#971=VECTOR('',#1520,1.);
#972=VECTOR('',#1521,1.);
#973=VECTOR('',#1522,1.);
#974=VECTOR('',#1523,1.);
#975=VECTOR('',#1524,1.);
#976=VECTOR('',#1525,1.);
#977=VECTOR('',#1526,1.);
#978=VECTOR('',#1527,1.);
#979=VECTOR('',#1528,1.);
#980=VECTOR('',#1529,1.);
#981=VECTOR('',#1530,1.);
#982=VECTOR('',#1531,1.);
#983=VECTOR('',#1532,1.);
#984=VECTOR('',#1533,1.);
#985=VECTOR('',#1534,1.);
#986=VECTOR('',#1535,1.);
#987=VECTOR('',#1536,1.);
#988=VECTOR('',#1539,1.);
#989=VECTOR('',#1540,1.);
#990=VECTOR('',#1543,1.);
#991=VECTOR('',#1544,1.);
#992=VECTOR('',#1547,1.);
#993=VECTOR('',#1550,1.);
#994=VECTOR('',#1551,1.);
#995=VECTOR('',#1554,1.);
#996=VECTOR('',#1555,1.);
#997=VECTOR('',#1558,1.);
#998=VECTOR('',#1559,1.);
#999=VECTOR('',#1562,1.);
#1000=VECTOR('',#1565,1.);
#1001=VECTOR('',#1566,1.);
#1002=VECTOR('',#1569,1.);
#1003=VECTOR('',#1570,1.);
#1004=VECTOR('',#1573,1.);
#1005=VECTOR('',#1574,1.);
#1006=VECTOR('',#1577,1.);
#1007=VECTOR('',#1580,1.);
#1008=VECTOR('',#1581,1.);
#1009=VECTOR('',#1584,1.);
#1010=VECTOR('',#1587,1.);
#1011=VECTOR('',#1588,1.);
#1012=VECTOR('',#1591,1.);
#1013=VECTOR('',#1592,1.);
#1014=VECTOR('',#1593,1.);
#1015=VECTOR('',#1594,1.);
#1016=VECTOR('',#1597,1.);
#1017=VECTOR('',#1600,1.);
#1018=VECTOR('',#1601,1.);
#1019=VECTOR('',#1602,1.);
#1020=VECTOR('',#1603,1.);
#1021=VECTOR('',#1606,1.);
#1022=VECTOR('',#1607,1.);
#1023=VECTOR('',#1610,1.);
#1024=VECTOR('',#1611,1.);
#1025=VECTOR('',#1612,1.);
#1026=VECTOR('',#1613,1.);
#1027=VECTOR('',#1616,1.);
#1028=VECTOR('',#1619,1.);
#1029=VECTOR('',#1620,1.);
#1030=VECTOR('',#1621,1.);
#1031=VECTOR('',#1622,1.);
#1032=VECTOR('',#1625,1.);
#1033=VECTOR('',#1626,1.);
#1034=VECTOR('',#1629,1.);
#1035=VECTOR('',#1630,1.);
#1036=VECTOR('',#1631,1.);
#1037=VECTOR('',#1632,1.);
#1038=VECTOR('',#1637,1.);
#1039=VECTOR('',#1640,1.);
#1040=VECTOR('',#1641,1.);
#1041=VECTOR('',#1644,1.);
#1042=VECTOR('',#1647,1.);
#1043=VECTOR('',#1652,1.);
#1044=VECTOR('',#1653,1.);
#1045=VECTOR('',#1656,1.);
#1046=VECTOR('',#1657,1.);
#1047=VECTOR('',#1664,1.);
#1048=VECTOR('',#1665,1.);
#1049=VECTOR('',#1668,1.);
#1050=VECTOR('',#1669,1.);
#1051=VECTOR('',#1676,1.);
#1052=VECTOR('',#1677,1.);
#1053=VECTOR('',#1684,1.);
#1054=VECTOR('',#1685,1.);
#1055=VECTOR('',#1686,1.);
#1056=VECTOR('',#1687,1.);
#1057=VECTOR('',#1688,1.);
#1058=VECTOR('',#1691,1.);
#1059=VECTOR('',#1692,1.);
#1060=VECTOR('',#1693,1.);
#1061=VECTOR('',#1694,1.);
#1062=VECTOR('',#1695,1.);
#1063=VECTOR('',#1698,1.);
#1064=VECTOR('',#1699,1.);
#1065=VECTOR('',#1702,1.);
#1066=VECTOR('',#1707,1.);
#1067=EDGE_LOOP('',(#12,#13,#14,#15));
#1068=EDGE_LOOP('',(#16,#17,#18,#19));
#1069=EDGE_LOOP('',(#20,#21,#22,#23));
#1070=EDGE_LOOP('',(#24,#25,#26,#27));
#1071=EDGE_LOOP('',(#28,#29,#30,#31));
#1072=EDGE_LOOP('',(#32,#33,#34,#35));
#1073=EDGE_LOOP('',(#36,#37,#38,#39));
#1074=EDGE_LOOP('',(#40,#41,#42,#43,#44,#45,#46,#47));
#1075=EDGE_LOOP('',(#48,#49,#50,#51));
#1076=EDGE_LOOP('',(#52,#53,#54,#55,#56,#57,#58,#59));
#1077=EDGE_LOOP('',(#60,#61,#62,#63,#64,#65));
#1078=EDGE_LOOP('',(#66,#67,#68,#69));
#1079=EDGE_LOOP('',(#70,#71,#72,#73));
#1080=EDGE_LOOP('',(#74,#75,#76,#77));
#1081=EDGE_LOOP('',(#78,#79,#80,#81,#82,#83,#84,#85,#86,#87,#88,#89,#90,
#91,#92,#93,#94,#95,#96,#97,#98,#99,#100,#101,#102,#103,#104,#105,#106,
#107,#108,#109,#110,#111));
#1082=EDGE_LOOP('',(#112,#113,#114,#115,#116,#117,#118,#119,#120,#121,#122,
#123,#124,#125,#126,#127,#128,#129,#130,#131,#132,#133,#134,#135,#136,#137,
#138,#139,#140,#141,#142,#143,#144,#145));
#1083=EDGE_LOOP('',(#146,#147,#148,#149));
#1084=EDGE_LOOP('',(#150,#151,#152,#153,#154,#155));
#1085=EDGE_LOOP('',(#156,#157,#158,#159));
#1086=EDGE_LOOP('',(#160,#161,#162,#163,#164,#165));
#1087=EDGE_LOOP('',(#166,#167,#168,#169));
#1088=EDGE_LOOP('',(#170,#171,#172,#173,#174,#175));
#1089=EDGE_LOOP('',(#176,#177,#178,#179));
#1090=EDGE_LOOP('',(#180,#181,#182,#183,#184,#185));
#1091=EDGE_LOOP('',(#186,#187,#188,#189));
#1092=EDGE_LOOP('',(#190,#191,#192,#193,#194,#195));
#1093=EDGE_LOOP('',(#196,#197,#198,#199));
#1094=EDGE_LOOP('',(#200,#201,#202,#203,#204,#205));
#1095=EDGE_LOOP('',(#206,#207,#208,#209));
#1096=EDGE_LOOP('',(#210,#211,#212,#213));
#1097=EDGE_LOOP('',(#214,#215,#216,#217,#218,#219,#220,#221));
#1098=EDGE_LOOP('',(#222,#223,#224,#225));
#1099=EDGE_LOOP('',(#226,#227,#228,#229,#230,#231,#232,#233));
#1100=EDGE_LOOP('',(#234,#235,#236,#237));
#1101=EDGE_LOOP('',(#238,#239,#240,#241,#242,#243,#244,#245));
#1102=EDGE_LOOP('',(#246,#247,#248,#249));
#1103=EDGE_LOOP('',(#250,#251,#252,#253,#254,#255,#256,#257));
#1104=EDGE_LOOP('',(#258,#259,#260,#261));
#1105=EDGE_LOOP('',(#262,#263,#264,#265,#266,#267,#268,#269));
#1106=EDGE_LOOP('',(#270,#271,#272,#273));
#1107=EDGE_LOOP('',(#274,#275,#276,#277));
#1108=EDGE_LOOP('',(#278,#279,#280,#281));
#1109=EDGE_LOOP('',(#282,#283,#284,#285,#286,#287));
#1110=EDGE_LOOP('',(#288,#289,#290,#291,#292,#293));
#1111=EDGE_LOOP('',(#294,#295,#296,#297));
#1112=EDGE_LOOP('',(#298,#299,#300,#301));
#1113=EDGE_LOOP('',(#302,#303,#304,#305));
#1114=EDGE_LOOP('',(#306,#307,#308,#309,#310,#311));
#1115=EDGE_LOOP('',(#312,#313,#314,#315,#316,#317));
#1116=EDGE_LOOP('',(#318,#319,#320,#321));
#1117=EDGE_LOOP('',(#322,#323,#324,#325));
#1118=EDGE_LOOP('',(#326,#327,#328,#329,#330,#331));
#1119=EDGE_LOOP('',(#332,#333,#334,#335,#336,#337));
#1120=EDGE_LOOP('',(#338,#339,#340,#341));
#1121=EDGE_LOOP('',(#342,#343,#344,#345));
#1122=EDGE_LOOP('',(#346,#347,#348,#349));
#1123=EDGE_LOOP('',(#350,#351,#352,#353,#354,#355,#356,#357));
#1124=EDGE_LOOP('',(#358,#359,#360,#361,#362,#363,#364,#365));
#1125=EDGE_LOOP('',(#366,#367,#368,#369));
#1126=EDGE_LOOP('',(#370,#371,#372,#373));
#1127=EDGE_LOOP('',(#374,#375,#376,#377));
#1128=EDGE_LOOP('',(#378,#379,#380,#381));
#1129=EDGE_LOOP('',(#382,#383,#384,#385));
#1130=FACE_BOUND('',#1067,.T.);
#1131=FACE_BOUND('',#1068,.T.);
#1132=FACE_BOUND('',#1069,.T.);
#1133=FACE_BOUND('',#1070,.T.);
#1134=FACE_BOUND('',#1071,.T.);
#1135=FACE_BOUND('',#1072,.T.);
#1136=FACE_BOUND('',#1073,.T.);
#1137=FACE_BOUND('',#1074,.T.);
#1138=FACE_BOUND('',#1075,.T.);
#1139=FACE_BOUND('',#1076,.T.);
#1140=FACE_BOUND('',#1077,.T.);
#1141=FACE_BOUND('',#1078,.T.);
#1142=FACE_BOUND('',#1079,.T.);
#1143=FACE_BOUND('',#1080,.T.);
#1144=FACE_BOUND('',#1081,.T.);
#1145=FACE_BOUND('',#1082,.T.);
#1146=FACE_BOUND('',#1083,.T.);
#1147=FACE_BOUND('',#1084,.T.);
#1148=FACE_BOUND('',#1085,.T.);
#1149=FACE_BOUND('',#1086,.T.);
#1150=FACE_BOUND('',#1087,.T.);
#1151=FACE_BOUND('',#1088,.T.);
#1152=FACE_BOUND('',#1089,.T.);
#1153=FACE_BOUND('',#1090,.T.);
#1154=FACE_BOUND('',#1091,.T.);
#1155=FACE_BOUND('',#1092,.T.);
#1156=FACE_BOUND('',#1093,.T.);
#1157=FACE_BOUND('',#1094,.T.);
#1158=FACE_BOUND('',#1095,.T.);
#1159=FACE_BOUND('',#1096,.T.);
#1160=FACE_BOUND('',#1097,.T.);
#1161=FACE_BOUND('',#1098,.T.);
#1162=FACE_BOUND('',#1099,.T.);
#1163=FACE_BOUND('',#1100,.T.);
#1164=FACE_BOUND('',#1101,.T.);
#1165=FACE_BOUND('',#1102,.T.);
#1166=FACE_BOUND('',#1103,.T.);
#1167=FACE_BOUND('',#1104,.T.);
#1168=FACE_BOUND('',#1105,.T.);
#1169=FACE_BOUND('',#1106,.T.);
#1170=FACE_BOUND('',#1107,.T.);
#1171=FACE_BOUND('',#1108,.T.);
#1172=FACE_BOUND('',#1109,.T.);
#1173=FACE_BOUND('',#1110,.T.);
#1174=FACE_BOUND('',#1111,.T.);
#1175=FACE_BOUND('',#1112,.T.);
#1176=FACE_BOUND('',#1113,.T.);
#1177=FACE_BOUND('',#1114,.T.);
#1178=FACE_BOUND('',#1115,.T.);
#1179=FACE_BOUND('',#1116,.T.);
#1180=FACE_BOUND('',#1117,.T.);
#1181=FACE_BOUND('',#1118,.T.);
#1182=FACE_BOUND('',#1119,.T.);
#1183=FACE_BOUND('',#1120,.T.);
#1184=FACE_BOUND('',#1121,.T.);
#1185=FACE_BOUND('',#1122,.T.);
#1186=FACE_BOUND('',#1123,.T.);
#1187=FACE_BOUND('',#1124,.T.);
#1188=FACE_BOUND('',#1125,.T.);
#1189=FACE_BOUND('',#1126,.T.);
#1190=FACE_BOUND('',#1127,.T.);
#1191=FACE_BOUND('',#1128,.T.);
#1192=FACE_BOUND('',#1129,.T.);
#1193=PLANE('',#1332);
#1194=PLANE('',#1333);
#1195=PLANE('',#1334);
#1196=PLANE('',#1335);
#1197=PLANE('',#1336);
#1198=PLANE('',#1337);
#1199=PLANE('',#1338);
#1200=PLANE('',#1339);
#1201=PLANE('',#1340);
#1202=PLANE('',#1341);
#1203=PLANE('',#1342);
#1204=PLANE('',#1343);
#1205=PLANE('',#1344);
#1206=PLANE('',#1345);
#1207=PLANE('',#1346);
#1208=PLANE('',#1347);
#1209=PLANE('',#1348);
#1210=PLANE('',#1349);
#1211=PLANE('',#1350);
#1212=PLANE('',#1351);
#1213=PLANE('',#1352);
#1214=PLANE('',#1353);
#1215=PLANE('',#1354);
#1216=PLANE('',#1355);
#1217=PLANE('',#1356);
#1218=PLANE('',#1357);
#1219=PLANE('',#1358);
#1220=PLANE('',#1359);
#1221=PLANE('',#1360);
#1222=PLANE('',#1361);
#1223=PLANE('',#1362);
#1224=PLANE('',#1363);
#1225=PLANE('',#1364);
#1226=PLANE('',#1365);
#1227=PLANE('',#1366);
#1228=PLANE('',#1367);
#1229=PLANE('',#1368);
#1230=PLANE('',#1369);
#1231=PLANE('',#1370);
#1232=PLANE('',#1371);
#1233=PLANE('',#1372);
#1234=PLANE('',#1373);
#1235=PLANE('',#1374);
#1236=PLANE('',#1375);
#1237=PLANE('',#1376);
#1238=PLANE('',#1377);
#1239=PLANE('',#1378);
#1240=PLANE('',#1379);
#1241=PLANE('',#1380);
#1242=PLANE('',#1381);
#1243=PLANE('',#1382);
#1244=PLANE('',#1383);
#1245=PLANE('',#1384);
#1246=PLANE('',#1385);
#1247=PLANE('',#1386);
#1248=PLANE('',#1387);
#1249=PLANE('',#1388);
#1250=PLANE('',#1389);
#1251=PLANE('',#1390);
#1252=PLANE('',#1391);
#1253=PLANE('',#1392);
#1254=PLANE('',#1393);
#1255=PLANE('',#1394);
#1256=ADVANCED_FACE('',(#1130),#1193,.F.);
#1257=ADVANCED_FACE('',(#1131),#1194,.F.);
#1258=ADVANCED_FACE('',(#1132),#1195,.F.);
#1259=ADVANCED_FACE('',(#1133),#1196,.T.);
#1260=ADVANCED_FACE('',(#1134),#1197,.F.);
#1261=ADVANCED_FACE('',(#1135),#1198,.T.);
#1262=ADVANCED_FACE('',(#1136),#1199,.F.);
#1263=ADVANCED_FACE('',(#1137),#1200,.F.);
#1264=ADVANCED_FACE('',(#1138),#1201,.T.);
#1265=ADVANCED_FACE('',(#1139),#1202,.F.);
#1266=ADVANCED_FACE('',(#1140),#1203,.T.);
#1267=ADVANCED_FACE('',(#1141),#1204,.T.);
#1268=ADVANCED_FACE('',(#1142),#1205,.F.);
#1269=ADVANCED_FACE('',(#1143),#1206,.T.);
#1270=ADVANCED_FACE('',(#1144),#1207,.F.);
#1271=ADVANCED_FACE('',(#1145),#1208,.T.);
#1272=ADVANCED_FACE('',(#1146),#1209,.F.);
#1273=ADVANCED_FACE('',(#1147),#1210,.T.);
#1274=ADVANCED_FACE('',(#1148),#1211,.F.);
#1275=ADVANCED_FACE('',(#1149),#1212,.F.);
#1276=ADVANCED_FACE('',(#1150),#1213,.F.);
#1277=ADVANCED_FACE('',(#1151),#1214,.T.);
#1278=ADVANCED_FACE('',(#1152),#1215,.T.);
#1279=ADVANCED_FACE('',(#1153),#1216,.F.);
#1280=ADVANCED_FACE('',(#1154),#1217,.F.);
#1281=ADVANCED_FACE('',(#1155),#1218,.T.);
#1282=ADVANCED_FACE('',(#1156),#1219,.T.);
#1283=ADVANCED_FACE('',(#1157),#1220,.F.);
#1284=ADVANCED_FACE('',(#1158),#1221,.F.);
#1285=ADVANCED_FACE('',(#1159),#1222,.F.);
#1286=ADVANCED_FACE('',(#1160),#1223,.F.);
#1287=ADVANCED_FACE('',(#1161),#1224,.F.);
#1288=ADVANCED_FACE('',(#1162),#1225,.F.);
#1289=ADVANCED_FACE('',(#1163),#1226,.T.);
#1290=ADVANCED_FACE('',(#1164),#1227,.F.);
#1291=ADVANCED_FACE('',(#1165),#1228,.F.);
#1292=ADVANCED_FACE('',(#1166),#1229,.F.);
#1293=ADVANCED_FACE('',(#1167),#1230,.T.);
#1294=ADVANCED_FACE('',(#1168),#1231,.F.);
#1295=ADVANCED_FACE('',(#1169),#1232,.F.);
#1296=ADVANCED_FACE('',(#1170),#1233,.T.);
#1297=ADVANCED_FACE('',(#1171),#1234,.F.);
#1298=ADVANCED_FACE('',(#1172),#1235,.T.);
#1299=ADVANCED_FACE('',(#1173),#1236,.F.);
#1300=ADVANCED_FACE('',(#1174),#1237,.T.);
#1301=ADVANCED_FACE('',(#1175),#1238,.F.);
#1302=ADVANCED_FACE('',(#1176),#1239,.T.);
#1303=ADVANCED_FACE('',(#1177),#1240,.F.);
#1304=ADVANCED_FACE('',(#1178),#1241,.T.);
#1305=ADVANCED_FACE('',(#1179),#1242,.F.);
#1306=ADVANCED_FACE('',(#1180),#1243,.T.);
#1307=ADVANCED_FACE('',(#1181),#1244,.F.);
#1308=ADVANCED_FACE('',(#1182),#1245,.T.);
#1309=ADVANCED_FACE('',(#1183),#1246,.T.);
#1310=ADVANCED_FACE('',(#1184),#1247,.F.);
#1311=ADVANCED_FACE('',(#1185),#1248,.T.);
#1312=ADVANCED_FACE('',(#1186),#1249,.T.);
#1313=ADVANCED_FACE('',(#1187),#1250,.F.);
#1314=ADVANCED_FACE('',(#1188),#1251,.F.);
#1315=ADVANCED_FACE('',(#1189),#1252,.F.);
#1316=ADVANCED_FACE('',(#1190),#1253,.F.);
#1317=ADVANCED_FACE('',(#1191),#1254,.T.);
#1318=ADVANCED_FACE('',(#1192),#1255,.F.);
#1319=CLOSED_SHELL('',(#1256,#1257,#1258,#1259,#1260,#1261,#1262,#1263,
#1264,#1265,#1266,#1267,#1268,#1269,#1270,#1271,#1272,#1273,#1274,#1275,
#1276,#1277,#1278,#1279,#1280,#1281,#1282,#1283,#1284,#1285,#1286,#1287,
#1288,#1289,#1290,#1291,#1292,#1293,#1294,#1295,#1296,#1297,#1298,#1299,
#1300,#1301,#1302,#1303,#1304,#1305,#1306,#1307,#1308,#1309,#1310,#1311,
#1312,#1313,#1314,#1315,#1316,#1317,#1318));
#1320=STYLED_ITEM('',(#1321),#1328);
#1321=PRESENTATION_STYLE_ASSIGNMENT((#1322));
#1322=SURFACE_STYLE_USAGE(.BOTH.,#1323);
#1323=SURFACE_SIDE_STYLE('',(#1324));
#1324=SURFACE_STYLE_FILL_AREA(#1325);
#1325=FILL_AREA_STYLE('',(#1326));
#1326=FILL_AREA_STYLE_COLOUR('',#1327);
#1327=COLOUR_RGB('',0.901960784313726,0.901960784313726,0.901960784313726);
#1328=MANIFOLD_SOLID_BREP('Part 1',#1319);
#1329=SHAPE_DEFINITION_REPRESENTATION(#2087,#1330);
#1330=SHAPE_REPRESENTATION('Part 1',(#1331),#2082);
#1331=AXIS2_PLACEMENT_3D('',#1710,#1395,#1396);
#1332=AXIS2_PLACEMENT_3D('',#1711,#1397,#1398);
#1333=AXIS2_PLACEMENT_3D('',#1720,#1403,#1404);
#1334=AXIS2_PLACEMENT_3D('',#1729,#1409,#1410);
#1335=AXIS2_PLACEMENT_3D('',#1738,#1415,#1416);
#1336=AXIS2_PLACEMENT_3D('',#1747,#1421,#1422);
#1337=AXIS2_PLACEMENT_3D('',#1756,#1427,#1428);
#1338=AXIS2_PLACEMENT_3D('',#1765,#1433,#1434);
#1339=AXIS2_PLACEMENT_3D('',#1774,#1439,#1440);
#1340=AXIS2_PLACEMENT_3D('',#1791,#1449,#1450);
#1341=AXIS2_PLACEMENT_3D('',#1797,#1454,#1455);
#1342=AXIS2_PLACEMENT_3D('',#1811,#1463,#1464);
#1343=AXIS2_PLACEMENT_3D('',#1821,#1470,#1471);
#1344=AXIS2_PLACEMENT_3D('',#1830,#1476,#1477);
#1345=AXIS2_PLACEMENT_3D('',#1833,#1480,#1481);
#1346=AXIS2_PLACEMENT_3D('',#1839,#1485,#1486);
#1347=AXIS2_PLACEMENT_3D('',#1883,#1511,#1512);
#1348=AXIS2_PLACEMENT_3D('',#1926,#1537,#1538);
#1349=AXIS2_PLACEMENT_3D('',#1930,#1541,#1542);
#1350=AXIS2_PLACEMENT_3D('',#1933,#1545,#1546);
#1351=AXIS2_PLACEMENT_3D('',#1935,#1548,#1549);
#1352=AXIS2_PLACEMENT_3D('',#1939,#1552,#1553);
#1353=AXIS2_PLACEMENT_3D('',#1943,#1556,#1557);
#1354=AXIS2_PLACEMENT_3D('',#1946,#1560,#1561);
#1355=AXIS2_PLACEMENT_3D('',#1948,#1563,#1564);
#1356=AXIS2_PLACEMENT_3D('',#1952,#1567,#1568);
#1357=AXIS2_PLACEMENT_3D('',#1956,#1571,#1572);
#1358=AXIS2_PLACEMENT_3D('',#1959,#1575,#1576);
#1359=AXIS2_PLACEMENT_3D('',#1961,#1578,#1579);
#1360=AXIS2_PLACEMENT_3D('',#1965,#1582,#1583);
#1361=AXIS2_PLACEMENT_3D('',#1967,#1585,#1586);
#1362=AXIS2_PLACEMENT_3D('',#1971,#1589,#1590);
#1363=AXIS2_PLACEMENT_3D('',#1978,#1595,#1596);
#1364=AXIS2_PLACEMENT_3D('',#1980,#1598,#1599);
#1365=AXIS2_PLACEMENT_3D('',#1988,#1604,#1605);
#1366=AXIS2_PLACEMENT_3D('',#1992,#1608,#1609);
#1367=AXIS2_PLACEMENT_3D('',#1999,#1614,#1615);
#1368=AXIS2_PLACEMENT_3D('',#2001,#1617,#1618);
#1369=AXIS2_PLACEMENT_3D('',#2009,#1623,#1624);
#1370=AXIS2_PLACEMENT_3D('',#2013,#1627,#1628);
#1371=AXIS2_PLACEMENT_3D('',#2020,#1633,#1634);
#1372=AXIS2_PLACEMENT_3D('',#2021,#1635,#1636);
#1373=AXIS2_PLACEMENT_3D('',#2023,#1638,#1639);
#1374=AXIS2_PLACEMENT_3D('',#2026,#1642,#1643);
#1375=AXIS2_PLACEMENT_3D('',#2028,#1645,#1646);
#1376=AXIS2_PLACEMENT_3D('',#2030,#1648,#1649);
#1377=AXIS2_PLACEMENT_3D('',#2031,#1650,#1651);
#1378=AXIS2_PLACEMENT_3D('',#2034,#1654,#1655);
#1379=AXIS2_PLACEMENT_3D('',#2037,#1658,#1659);
#1380=AXIS2_PLACEMENT_3D('',#2038,#1660,#1661);
#1381=AXIS2_PLACEMENT_3D('',#2039,#1662,#1663);
#1382=AXIS2_PLACEMENT_3D('',#2042,#1666,#1667);
#1383=AXIS2_PLACEMENT_3D('',#2045,#1670,#1671);
#1384=AXIS2_PLACEMENT_3D('',#2046,#1672,#1673);
#1385=AXIS2_PLACEMENT_3D('',#2047,#1674,#1675);
#1386=AXIS2_PLACEMENT_3D('',#2050,#1678,#1679);
#1387=AXIS2_PLACEMENT_3D('',#2051,#1680,#1681);
#1388=AXIS2_PLACEMENT_3D('',#2052,#1682,#1683);
#1389=AXIS2_PLACEMENT_3D('',#2062,#1689,#1690);
#1390=AXIS2_PLACEMENT_3D('',#2072,#1696,#1697);
#1391=AXIS2_PLACEMENT_3D('',#2075,#1700,#1701);
#1392=AXIS2_PLACEMENT_3D('',#2077,#1703,#1704);
#1393=AXIS2_PLACEMENT_3D('',#2078,#1705,#1706);
#1394=AXIS2_PLACEMENT_3D('',#2080,#1708,#1709);
#1395=DIRECTION('',(0.,0.,1.));
#1396=DIRECTION('',(1.,0.,0.));
#1397=DIRECTION('',(0.935941993439745,0.,-0.352154206159796));
#1398=DIRECTION('',(-0.352154206159796,0.,-0.935941993439745));
#1399=DIRECTION('',(-0.352154206159796,0.,-0.935941993439745));
#1400=DIRECTION('',(0.,-1.,0.));
#1401=DIRECTION('',(0.352154206159796,0.,0.935941993439745));
#1402=DIRECTION('',(0.,-1.,0.));
#1403=DIRECTION('',(0.,0.,1.));
#1404=DIRECTION('',(1.,0.,0.));
#1405=DIRECTION('',(-1.,0.,0.));
#1406=DIRECTION('',(0.,-1.,0.));
#1407=DIRECTION('',(-1.,0.,0.));
#1408=DIRECTION('',(0.,-1.,0.));
#1409=DIRECTION('',(0.935941993439745,0.,-0.352154206159796));
#1410=DIRECTION('',(-0.352154206159796,0.,-0.935941993439745));
#1411=DIRECTION('',(-0.352154206159796,-1.42800963807009E-16,-0.935941993439745));
#1412=DIRECTION('',(0.,-1.,0.));
#1413=DIRECTION('',(0.352154206159796,0.,0.935941993439745));
#1414=DIRECTION('',(0.,-1.,0.));
#1415=DIRECTION('',(0.,0.,1.));
#1416=DIRECTION('',(1.,0.,0.));
#1417=DIRECTION('',(0.,-1.,0.));
#1418=DIRECTION('',(-1.,-5.0287960048311E-17,0.));
#1419=DIRECTION('',(0.,-1.,0.));
#1420=DIRECTION('',(-1.,0.,0.));
#1421=DIRECTION('',(0.935941993439745,0.,-0.352154206159796));
#1422=DIRECTION('',(-0.352154206159796,0.,-0.935941993439745));
#1423=DIRECTION('',(-0.352154206159796,-1.42800963807009E-16,-0.935941993439745));
#1424=DIRECTION('',(0.,-1.,0.));
#1425=DIRECTION('',(0.352154206159796,0.,0.935941993439745));
#1426=DIRECTION('',(0.,-1.,0.));
#1427=DIRECTION('',(0.,0.,1.));
#1428=DIRECTION('',(1.,0.,0.));
#1429=DIRECTION('',(0.,-1.,0.));
#1430=DIRECTION('',(-1.,-5.02879600483111E-17,0.));
#1431=DIRECTION('',(0.,-1.,0.));
#1432=DIRECTION('',(-1.,0.,0.));
#1433=DIRECTION('',(0.935941993439745,0.,-0.352154206159796));
#1434=DIRECTION('',(-0.352154206159796,0.,-0.935941993439745));
#1435=DIRECTION('',(0.352154206159796,0.,0.935941993439745));
#1436=DIRECTION('',(0.,-1.,0.));
#1437=DIRECTION('',(0.352154206159796,0.,0.935941993439745));
#1438=DIRECTION('',(0.,-1.,0.));
#1439=DIRECTION('',(-1.,0.,-1.17384093477761E-16));
#1440=DIRECTION('',(-1.17384093477761E-16,0.,1.));
#1441=DIRECTION('',(-1.17384093477761E-16,0.,1.));
#1442=DIRECTION('',(0.,-1.,0.));
#1443=DIRECTION('',(-1.17384093477761E-16,0.,1.));
#1444=DIRECTION('',(0.,-1.,0.));
#1445=DIRECTION('',(1.17384093477761E-16,0.,-1.));
#1446=DIRECTION('',(0.,-1.,0.));
#1447=DIRECTION('',(1.17384093477761E-16,0.,-1.));
#1448=DIRECTION('',(0.,-1.,0.));
#1449=DIRECTION('',(0.,0.,1.));
#1450=DIRECTION('',(1.,0.,0.));
#1451=DIRECTION('',(0.,-1.,0.));
#1452=DIRECTION('',(1.,0.,0.));
#1453=DIRECTION('',(-1.,0.,0.));
#1454=DIRECTION('',(-0.935941993439745,0.,0.352154206159796));
#1455=DIRECTION('',(0.352154206159796,0.,0.935941993439745));
#1456=DIRECTION('',(0.352154206159796,0.,0.935941993439745));
#1457=DIRECTION('',(-0.352154206159796,0.,-0.935941993439745));
#1458=DIRECTION('',(0.,-1.,0.));
#1459=DIRECTION('',(-0.352154206159796,0.,-0.935941993439745));
#1460=DIRECTION('',(0.,-1.,0.));
#1461=DIRECTION('',(0.352154206159796,0.,0.935941993439745));
#1462=DIRECTION('',(0.,-1.,0.));
#1463=DIRECTION('',(0.,0.,-1.));
#1464=DIRECTION('',(-1.,0.,0.));
#1465=DIRECTION('',(1.,0.,0.));
#1466=DIRECTION('',(0.,-1.,0.));
#1467=DIRECTION('',(0.,-1.,0.));
#1468=DIRECTION('',(1.,0.,0.));
#1469=DIRECTION('',(0.,-1.,0.));
#1470=DIRECTION('',(0.,0.,1.));
#1471=DIRECTION('',(1.,0.,0.));
#1472=DIRECTION('',(-1.,0.,0.));
#1473=DIRECTION('',(0.,-1.,0.));
#1474=DIRECTION('',(-1.,0.,0.));
#1475=DIRECTION('',(0.,-1.,0.));
#1476=DIRECTION('',(1.,0.,2.4492935982947E-16));
#1477=DIRECTION('',(2.4492935982947E-16,0.,-1.));
#1478=DIRECTION('',(-2.4492935982947E-16,0.,1.));
#1479=DIRECTION('',(-2.4492935982947E-16,0.,1.));
#1480=DIRECTION('',(0.,0.,-1.));
#1481=DIRECTION('',(-1.,0.,0.));
#1482=DIRECTION('',(1.,0.,0.));
#1483=DIRECTION('',(0.,-1.,0.));
#1484=DIRECTION('',(1.,0.,0.));
#1485=DIRECTION('',(0.,-1.,0.));
#1486=DIRECTION('',(1.,0.,0.));
#1487=DIRECTION('',(0.,0.,-1.));
#1488=DIRECTION('',(1.,0.,0.));
#1489=DIRECTION('',(0.,0.,-1.));
#1490=DIRECTION('',(-1.,0.,0.));
#1491=DIRECTION('',(-0.352154206159796,0.,-0.935941993439745));
#1492=DIRECTION('',(-1.,0.,0.));
#1493=DIRECTION('',(0.,0.,-1.));
#1494=DIRECTION('',(-1.,0.,0.));
#1495=DIRECTION('',(-0.352154206159796,0.,-0.935941993439745));
#1496=DIRECTION('',(-1.,0.,0.));
#1497=DIRECTION('',(0.,0.,-1.));
#1498=DIRECTION('',(-1.,0.,0.));
#1499=DIRECTION('',(-0.352154206159796,0.,-0.935941993439745));
#1500=DIRECTION('',(-1.,0.,0.));
#1501=DIRECTION('',(-1.,0.,0.));
#1502=DIRECTION('',(0.,0.,-1.));
#1503=DIRECTION('',(-1.,0.,0.));
#1504=DIRECTION('',(-1.,0.,-1.04259770030407E-15));
#1505=DIRECTION('',(0.,0.,-1.));
#1506=DIRECTION('',(-1.,0.,0.));
#1507=DIRECTION('',(-1.,0.,0.));
#1508=DIRECTION('',(-3.41480999208032E-16,0.,1.));
#1509=DIRECTION('',(-1.,0.,0.));
#1510=DIRECTION('',(0.352154206159796,0.,0.935941993439745));
#1511=DIRECTION('',(0.,-1.,0.));
#1512=DIRECTION('',(1.,0.,0.));
#1513=DIRECTION('',(0.,0.,-1.));
#1514=DIRECTION('',(1.,0.,0.));
#1515=DIRECTION('',(0.,0.,-1.));
#1516=DIRECTION('',(-1.,0.,0.));
#1517=DIRECTION('',(-3.41480999208032E-16,0.,1.));
#1518=DIRECTION('',(-1.,0.,0.));
#1519=DIRECTION('',(0.352154206159796,0.,0.935941993439745));
#1520=DIRECTION('',(-1.,0.,0.));
#1521=DIRECTION('',(0.,0.,-1.));
#1522=DIRECTION('',(-1.,0.,-1.04259770030407E-15));
#1523=DIRECTION('',(0.352154206159796,0.,0.935941993439745));
#1524=DIRECTION('',(-1.,0.,0.));
#1525=DIRECTION('',(0.,0.,-1.));
#1526=DIRECTION('',(-1.,0.,0.));
#1527=DIRECTION('',(0.352154206159796,0.,0.935941993439745));
#1528=DIRECTION('',(-0.352154206159796,0.,-0.935941993439745));
#1529=DIRECTION('',(-1.,0.,0.));
#1530=DIRECTION('',(0.,0.,-1.));
#1531=DIRECTION('',(-0.352154206159796,0.,-0.935941993439745));
#1532=DIRECTION('',(-1.,0.,0.));
#1533=DIRECTION('',(0.,0.,-1.));
#1534=DIRECTION('',(-0.352154206159796,0.,-0.935941993439745));
#1535=DIRECTION('',(-1.,0.,0.));
#1536=DIRECTION('',(-1.,0.,0.));
#1537=DIRECTION('',(0.935941993439745,0.,-0.352154206159796));
#1538=DIRECTION('',(-0.352154206159796,0.,-0.935941993439745));
#1539=DIRECTION('',(0.,-1.,0.));
#1540=DIRECTION('',(0.352154206159796,0.,0.935941993439745));
#1541=DIRECTION('',(0.,0.,1.));
#1542=DIRECTION('',(1.,0.,0.));
#1543=DIRECTION('',(0.,-1.,0.));
#1544=DIRECTION('',(0.,-1.,0.));
#1545=DIRECTION('',(1.,0.,3.41480999208032E-16));
#1546=DIRECTION('',(3.41480999208032E-16,0.,-1.));
#1547=DIRECTION('',(0.,-1.,0.));
#1548=DIRECTION('',(0.,0.,1.));
#1549=DIRECTION('',(1.,0.,0.));
#1550=DIRECTION('',(0.,-1.,0.));
#1551=DIRECTION('',(0.,-1.,0.));
#1552=DIRECTION('',(0.935941993439745,0.,-0.352154206159796));
#1553=DIRECTION('',(-0.352154206159796,0.,-0.935941993439745));
#1554=DIRECTION('',(-0.352154206159796,-1.42800963807009E-16,-0.935941993439745));
#1555=DIRECTION('',(0.,-1.,0.));
#1556=DIRECTION('',(0.,0.,1.));
#1557=DIRECTION('',(1.,0.,0.));
#1558=DIRECTION('',(0.,-1.,0.));
#1559=DIRECTION('',(0.,-1.,0.));
#1560=DIRECTION('',(-1.,0.,0.));
#1561=DIRECTION('',(0.,0.,1.));
#1562=DIRECTION('',(0.,-1.,0.));
#1563=DIRECTION('',(-1.04259770030407E-15,0.,1.));
#1564=DIRECTION('',(1.,0.,1.04259770030407E-15));
#1565=DIRECTION('',(0.,-1.,0.));
#1566=DIRECTION('',(0.,-1.,0.));
#1567=DIRECTION('',(0.935941993439745,0.,-0.352154206159796));
#1568=DIRECTION('',(-0.352154206159796,0.,-0.935941993439745));
#1569=DIRECTION('',(-0.352154206159796,-1.42800963807009E-16,-0.935941993439745));
#1570=DIRECTION('',(0.,-1.,0.));
#1571=DIRECTION('',(0.,0.,1.));
#1572=DIRECTION('',(1.,0.,0.));
#1573=DIRECTION('',(0.,-1.,0.));
#1574=DIRECTION('',(0.,-1.,0.));
#1575=DIRECTION('',(-1.,0.,0.));
#1576=DIRECTION('',(0.,0.,1.));
#1577=DIRECTION('',(0.,-1.,0.));
#1578=DIRECTION('',(0.,0.,1.));
#1579=DIRECTION('',(1.,0.,0.));
#1580=DIRECTION('',(0.,-1.,0.));
#1581=DIRECTION('',(0.,-1.,0.));
#1582=DIRECTION('',(0.935941993439745,0.,-0.352154206159796));
#1583=DIRECTION('',(-0.352154206159796,0.,-0.935941993439745));
#1584=DIRECTION('',(-0.352154206159796,0.,-0.935941993439745));
#1585=DIRECTION('',(0.,0.,1.));
#1586=DIRECTION('',(1.,0.,0.));
#1587=DIRECTION('',(0.,-1.,0.));
#1588=DIRECTION('',(-1.,0.,0.));
#1589=DIRECTION('',(-0.935941993439745,0.,0.352154206159796));
#1590=DIRECTION('',(0.352154206159796,0.,0.935941993439745));
#1591=DIRECTION('',(0.,-1.,0.));
#1592=DIRECTION('',(-0.352154206159796,0.,-0.935941993439745));
#1593=DIRECTION('',(0.,-1.,0.));
#1594=DIRECTION('',(-0.352154206159796,0.,-0.935941993439745));
#1595=DIRECTION('',(0.,0.,1.));
#1596=DIRECTION('',(1.,0.,0.));
#1597=DIRECTION('',(0.,-1.,0.));
#1598=DIRECTION('',(-1.,0.,0.));
#1599=DIRECTION('',(0.,0.,1.));
#1600=DIRECTION('',(0.,-1.,0.));
#1601=DIRECTION('',(0.,-1.33653418730649E-16,-1.));
#1602=DIRECTION('',(0.,-1.,0.));
#1603=DIRECTION('',(0.,-1.33653418730649E-16,-1.));
#1604=DIRECTION('',(0.,0.,1.));
#1605=DIRECTION('',(1.,0.,0.));
#1606=DIRECTION('',(-1.,-5.0287960048311E-17,0.));
#1607=DIRECTION('',(0.,-1.,0.));
#1608=DIRECTION('',(-0.935941993439745,0.,0.352154206159796));
#1609=DIRECTION('',(0.352154206159796,0.,0.935941993439745));
#1610=DIRECTION('',(0.,-1.,0.));
#1611=DIRECTION('',(-0.352154206159796,-1.42800963807009E-16,-0.935941993439745));
#1612=DIRECTION('',(0.,-1.,0.));
#1613=DIRECTION('',(-0.352154206159796,-1.42800963807009E-16,-0.935941993439745));
#1614=DIRECTION('',(0.,0.,1.));
#1615=DIRECTION('',(1.,0.,0.));
#1616=DIRECTION('',(0.,-1.,0.));
#1617=DIRECTION('',(-1.,0.,0.));
#1618=DIRECTION('',(0.,0.,1.));
#1619=DIRECTION('',(0.,-1.,0.));
#1620=DIRECTION('',(0.,-1.33653418730649E-16,-1.));
#1621=DIRECTION('',(0.,-1.,0.));
#1622=DIRECTION('',(0.,-1.33653418730649E-16,-1.));
#1623=DIRECTION('',(0.,0.,1.));
#1624=DIRECTION('',(1.,0.,0.));
#1625=DIRECTION('',(-1.,-5.02879600483111E-17,0.));
#1626=DIRECTION('',(0.,-1.,0.));
#1627=DIRECTION('',(-0.935941993439745,0.,0.352154206159796));
#1628=DIRECTION('',(0.352154206159796,0.,0.935941993439745));
#1629=DIRECTION('',(0.,-1.,0.));
#1630=DIRECTION('',(-0.352154206159796,-1.42800963807009E-16,-0.935941993439745));
#1631=DIRECTION('',(0.,-1.,0.));
#1632=DIRECTION('',(-0.352154206159796,-1.42800963807009E-16,-0.935941993439745));
#1633=DIRECTION('',(0.,0.,1.));
#1634=DIRECTION('',(1.,0.,0.));
#1635=DIRECTION('',(0.,0.,1.));
#1636=DIRECTION('',(1.,0.,0.));
#1637=DIRECTION('',(1.,0.,0.));
#1638=DIRECTION('',(-0.352154206159796,0.,-0.935941993439745));
#1639=DIRECTION('',(-0.935941993439745,0.,0.352154206159796));
#1640=DIRECTION('',(-0.935941993439745,0.,0.352154206159796));
#1641=DIRECTION('',(-0.935941993439745,0.,0.352154206159796));
#1642=DIRECTION('',(0.,-1.,0.));
#1643=DIRECTION('',(0.,0.,-1.));
#1644=DIRECTION('',(-0.935941993439745,0.,0.352154206159796));
#1645=DIRECTION('',(0.,-1.,0.));
#1646=DIRECTION('',(0.,0.,-1.));
#1647=DIRECTION('',(-0.935941993439745,0.,0.352154206159796));
#1648=DIRECTION('',(-0.352154206159796,0.,-0.935941993439745));
#1649=DIRECTION('',(-0.935941993439745,0.,0.352154206159796));
#1650=DIRECTION('',(-0.352154206159796,0.,-0.935941993439745));
#1651=DIRECTION('',(-0.935941993439745,0.,0.352154206159796));
#1652=DIRECTION('',(-0.935941993439745,0.,0.352154206159796));
#1653=DIRECTION('',(-0.935941993439745,0.,0.352154206159796));
#1654=DIRECTION('',(-0.352154206159796,0.,-0.935941993439745));
#1655=DIRECTION('',(-0.935941993439745,0.,0.352154206159796));
#1656=DIRECTION('',(-0.935941993439745,0.,0.352154206159796));
#1657=DIRECTION('',(-0.935941993439745,0.,0.352154206159796));
#1658=DIRECTION('',(-5.02879600483111E-17,1.,-1.33653418730649E-16));
#1659=DIRECTION('',(0.,1.33653418730649E-16,1.));
#1660=DIRECTION('',(-5.02879600483111E-17,1.,-1.33653418730649E-16));
#1661=DIRECTION('',(0.,1.33653418730649E-16,1.));
#1662=DIRECTION('',(-0.352154206159796,0.,-0.935941993439745));
#1663=DIRECTION('',(-0.935941993439745,0.,0.352154206159796));
#1664=DIRECTION('',(-0.935941993439745,0.,0.352154206159796));
#1665=DIRECTION('',(-0.935941993439745,0.,0.352154206159796));
#1666=DIRECTION('',(-0.352154206159796,0.,-0.935941993439745));
#1667=DIRECTION('',(-0.935941993439745,0.,0.352154206159796));
#1668=DIRECTION('',(-0.935941993439745,0.,0.352154206159796));
#1669=DIRECTION('',(-0.935941993439745,0.,0.352154206159796));
#1670=DIRECTION('',(-5.0287960048311E-17,1.,-1.33653418730649E-16));
#1671=DIRECTION('',(0.,1.33653418730649E-16,1.));
#1672=DIRECTION('',(-5.0287960048311E-17,1.,-1.33653418730649E-16));
#1673=DIRECTION('',(0.,1.33653418730649E-16,1.));
#1674=DIRECTION('',(-0.352154206159796,0.,-0.935941993439745));
#1675=DIRECTION('',(-0.935941993439745,0.,0.352154206159796));
#1676=DIRECTION('',(-0.935941993439745,0.,0.352154206159796));
#1677=DIRECTION('',(-0.935941993439745,0.,0.352154206159796));
#1678=DIRECTION('',(0.,1.,0.));
#1679=DIRECTION('',(0.,0.,1.));
#1680=DIRECTION('',(0.,1.,0.));
#1681=DIRECTION('',(0.,0.,1.));
#1682=DIRECTION('',(-1.,0.,0.));
#1683=DIRECTION('',(0.,0.,1.));
#1684=DIRECTION('',(0.,1.,0.));
#1685=DIRECTION('',(0.,0.,-1.));
#1686=DIRECTION('',(0.,-1.,0.));
#1687=DIRECTION('',(0.,0.,-1.));
#1688=DIRECTION('',(0.,1.,0.));
#1689=DIRECTION('',(-1.,0.,0.));
#1690=DIRECTION('',(0.,0.,1.));
#1691=DIRECTION('',(0.,-1.,0.));
#1692=DIRECTION('',(0.,0.,-1.));
#1693=DIRECTION('',(0.,-1.,0.));
#1694=DIRECTION('',(0.,0.,-1.));
#1695=DIRECTION('',(0.,-1.,0.));
#1696=DIRECTION('',(0.,0.,1.));
#1697=DIRECTION('',(1.,0.,0.));
#1698=DIRECTION('',(1.,1.36592399683213E-15,0.));
#1699=DIRECTION('',(-1.,0.,0.));
#1700=DIRECTION('',(0.,-1.,0.));
#1701=DIRECTION('',(0.,0.,-1.));
#1702=DIRECTION('',(-1.,0.,0.));
#1703=DIRECTION('',(0.,0.,1.));
#1704=DIRECTION('',(1.,0.,0.));
#1705=DIRECTION('',(1.36592399683213E-15,-1.,0.));
#1706=DIRECTION('',(1.,1.36592399683213E-15,0.));
#1707=DIRECTION('',(-1.,-1.36592399683213E-15,0.));
#1708=DIRECTION('',(0.,0.,1.));
#1709=DIRECTION('',(1.,0.,0.));
#1710=CARTESIAN_POINT('',(0.,0.,0.));
#1711=CARTESIAN_POINT('',(-0.0327247790090023,0.0225634921605876,0.008435975));
#1712=CARTESIAN_POINT('',(-0.0327247790090023,0.0200234921605877,0.008435975));
#1713=CARTESIAN_POINT('',(-0.0295506890545696,0.0200234921605877,0.01687195));
#1714=CARTESIAN_POINT('',(-0.0358988689634351,0.0200234921605877,-8.67361737988404E-19));
#1715=CARTESIAN_POINT('',(-0.0295506890545696,0.0225634921605876,0.01687195));
#1716=CARTESIAN_POINT('',(-0.0295506890545696,0.0225634921605876,0.01687195));
#1717=CARTESIAN_POINT('',(-0.0327247790090023,0.0225634921605876,0.008435975));
#1718=CARTESIAN_POINT('',(-0.0358988689634351,0.0225634921605876,0.));
#1719=CARTESIAN_POINT('',(-0.0358988689634351,0.0225634921605876,0.));
#1720=CARTESIAN_POINT('',(-0.0346288689634351,0.0225634921605876,0.));
#1721=CARTESIAN_POINT('',(-0.0346288689634351,-0.0129965078394124,0.));
#1722=CARTESIAN_POINT('',(-0.0333588689634351,-0.0129965078394124,1.7347234759768E-18));
#1723=CARTESIAN_POINT('',(-0.0358988689634351,-0.0129965078394124,-8.67361737988404E-19));
#1724=CARTESIAN_POINT('',(-0.0333588689634351,0.0225634921605876,0.));
#1725=CARTESIAN_POINT('',(-0.0333588689634351,-0.0155365078394124,0.));
#1726=CARTESIAN_POINT('',(-0.0346288689634351,-0.0155365078394124,0.));
#1727=CARTESIAN_POINT('',(-0.0358988689634351,-0.0155365078394124,0.));
#1728=CARTESIAN_POINT('',(-0.0358988689634351,0.0225634921605876,0.));
#1729=CARTESIAN_POINT('',(-0.023361392835557,0.0225634921605876,0.033321625));
#1730=CARTESIAN_POINT('',(-0.0233613928355571,0.0200234921605877,0.033321625));
#1731=CARTESIAN_POINT('',(-0.0190834793516189,0.0200234921605877,0.0446913));
#1732=CARTESIAN_POINT('',(-0.0276393063194952,0.0200234921605877,0.02195195));
#1733=CARTESIAN_POINT('',(-0.0190834793516189,0.0225634921605876,0.0446913));
#1734=CARTESIAN_POINT('',(-0.0190834793516189,0.0225634921605876,0.0446913));
#1735=CARTESIAN_POINT('',(-0.023361392835557,0.0225634921605876,0.033321625));
#1736=CARTESIAN_POINT('',(-0.0276393063194952,0.0225634921605876,0.02195195));
#1737=CARTESIAN_POINT('',(-0.0276393063194952,0.0225634921605876,0.02195195));
#1738=CARTESIAN_POINT('',(-0.0241490876414652,0.0225634921605876,0.02195195));
#1739=CARTESIAN_POINT('',(-0.0231988689634351,0.0225634921605876,0.02195195));
#1740=CARTESIAN_POINT('',(-0.0231988689634351,-0.0129965078394124,0.02195195));
#1741=CARTESIAN_POINT('',(-0.0231988689634351,-0.0155365078394124,0.02195195));
#1742=CARTESIAN_POINT('',(-0.0241490876414652,-0.0129965078394124,0.02195195));
#1743=CARTESIAN_POINT('',(-0.0250993063194952,-0.0129965078394124,0.02195195));
#1744=CARTESIAN_POINT('',(-0.0250993063194952,0.0225634921605876,0.02195195));
#1745=CARTESIAN_POINT('',(-0.0250993063194952,-0.0155365078394124,0.02195195));
#1746=CARTESIAN_POINT('',(-0.0241490876414652,-0.0155365078394124,0.02195195));
#1747=CARTESIAN_POINT('',(-0.0128941831326064,0.0225634921605876,0.061140975));
#1748=CARTESIAN_POINT('',(-0.0128941831326064,0.0200234921605877,0.061140975));
#1749=CARTESIAN_POINT('',(-0.00861626964866817,0.0200234921605877,0.07251065));
#1750=CARTESIAN_POINT('',(-0.0171720966165445,0.0200234921605877,0.0497713));
#1751=CARTESIAN_POINT('',(-0.00861626964866817,0.0225634921605876,0.07251065));
#1752=CARTESIAN_POINT('',(-0.00861626964866817,0.0225634921605876,0.07251065));
#1753=CARTESIAN_POINT('',(-0.0128941831326064,0.0225634921605876,0.061140975));
#1754=CARTESIAN_POINT('',(-0.0171720966165445,0.0225634921605876,0.0497713));
#1755=CARTESIAN_POINT('',(-0.0171720966165445,0.0225634921605876,0.0497713));
#1756=CARTESIAN_POINT('',(-0.0138354827899898,0.0225634921605876,0.0497713));
#1757=CARTESIAN_POINT('',(-0.0130388689634351,0.0225634921605876,0.0497713));
#1758=CARTESIAN_POINT('',(-0.0130388689634351,-0.0129965078394124,0.0497713));
#1759=CARTESIAN_POINT('',(-0.0130388689634351,-0.0155365078394124,0.0497713));
#1760=CARTESIAN_POINT('',(-0.0138354827899898,-0.0129965078394124,0.0497713));
#1761=CARTESIAN_POINT('',(-0.0146320966165445,-0.0129965078394124,0.0497713));
#1762=CARTESIAN_POINT('',(-0.0146320966165445,0.0225634921605876,0.0497713));
#1763=CARTESIAN_POINT('',(-0.0146320966165445,-0.0155365078394124,0.0497713));
#1764=CARTESIAN_POINT('',(-0.0138354827899898,-0.0155365078394124,0.0497713));
#1765=CARTESIAN_POINT('',(-0.00242697342965566,0.0225634921605876,0.088960325));
#1766=CARTESIAN_POINT('',(-0.00242697342965566,-0.0129965078394124,0.088960325));
#1767=CARTESIAN_POINT('',(-0.00670488691359385,-0.0129965078394123,0.07759065));
#1768=CARTESIAN_POINT('',(0.00185094005428254,-0.0129965078394124,0.10033));
#1769=CARTESIAN_POINT('',(-0.00670488691359385,0.0225634921605876,0.07759065));
#1770=CARTESIAN_POINT('',(-0.00670488691359385,-0.0155365078394124,0.07759065));
#1771=CARTESIAN_POINT('',(-0.00242697342965566,-0.0155365078394124,0.088960325));
#1772=CARTESIAN_POINT('',(0.00185094005428254,-0.0155365078394124,0.10033));
#1773=CARTESIAN_POINT('',(0.00185094005428254,0.0225634921605876,0.10033));
#1774=CARTESIAN_POINT('',(-0.000338868963435107,0.0225634921605876,0.07505065));
#1775=CARTESIAN_POINT('',(-0.000338868963435107,0.0200234921605877,0.07505065));
#1776=CARTESIAN_POINT('',(-0.000338868963435115,0.0200234921605877,0.0751953947241916));
#1777=CARTESIAN_POINT('',(-0.000338868963435107,0.0200234921605877,0.07759065));
#1778=CARTESIAN_POINT('',(-0.000338868963435107,0.0225634921605876,0.0751953947241916));
#1779=CARTESIAN_POINT('',(-0.000338868963435104,-0.0129965078394124,0.0751953947241916));
#1780=CARTESIAN_POINT('',(-0.000338868963435107,-0.0129965078394124,0.07505065));
#1781=CARTESIAN_POINT('',(-0.000338868963435107,-0.0129965078394124,0.07759065));
#1782=CARTESIAN_POINT('',(-0.000338868963435107,0.0225634921605876,0.07759065));
#1783=CARTESIAN_POINT('',(-0.000338868963435107,-0.0155365078394124,0.07759065));
#1784=CARTESIAN_POINT('',(-0.000338868963435107,-0.0155365078394124,0.07505065));
#1785=CARTESIAN_POINT('',(-0.000338868963435107,-0.0155365078394124,0.07251065));
#1786=CARTESIAN_POINT('',(-0.000338868963435107,0.0225634921605876,0.07251065));
#1787=CARTESIAN_POINT('',(-0.000338868963435107,0.0225634921605876,0.07251065));
#1788=CARTESIAN_POINT('',(-0.000338868963435107,0.0225634921605876,0.07505065));
#1789=CARTESIAN_POINT('',(-0.000338868963435107,0.0225634921605876,0.07759065));
#1790=CARTESIAN_POINT('',(-0.000338868963435107,0.0225634921605876,0.07759065));
#1791=CARTESIAN_POINT('',(-0.00225187793851448,0.0225634921605876,0.07759065));
#1792=CARTESIAN_POINT('',(-0.00416488691359385,0.0225634921605876,0.07759065));
#1793=CARTESIAN_POINT('',(-0.00416488691359385,0.0225634921605876,0.07759065));
#1794=CARTESIAN_POINT('',(-0.00416488691359385,0.0200234921605877,0.07759065));
#1795=CARTESIAN_POINT('',(-0.00225187793851448,0.0200234921605877,0.07759065));
#1796=CARTESIAN_POINT('',(-0.00225187793851448,0.0225634921605876,0.07759065));
#1797=CARTESIAN_POINT('',(0.000113026570344362,0.0225634921605876,0.088960325));
#1798=CARTESIAN_POINT('',(0.000113026570344362,0.0200234921605877,0.088960325));
#1799=CARTESIAN_POINT('',(0.00407594808859581,0.0200234921605877,0.0994928263893331));
#1800=CARTESIAN_POINT('',(0.000113026570344362,0.0225634921605876,0.088960325));
#1801=CARTESIAN_POINT('',(0.00439094005428254,0.0225634921605876,0.10033));
#1802=CARTESIAN_POINT('',(0.00439094005428254,0.0225634921605876,0.10033));
#1803=CARTESIAN_POINT('',(0.00439094005428254,-0.0155365078394124,0.10033));
#1804=CARTESIAN_POINT('',(0.000113026570344362,-0.0155365078394124,0.088960325));
#1805=CARTESIAN_POINT('',(-0.00416488691359385,-0.0155365078394124,0.07759065));
#1806=CARTESIAN_POINT('',(-0.00416488691359385,0.0225634921605876,0.07759065));
#1807=CARTESIAN_POINT('',(-0.00416488691359385,-0.0129965078394124,0.07759065));
#1808=CARTESIAN_POINT('',(0.000113026570344362,-0.0129965078394124,0.088960325));
#1809=CARTESIAN_POINT('',(0.0040759480885958,-0.0129965078394124,0.0994928263893331));
#1810=CARTESIAN_POINT('',(0.00407594808859581,0.0225634921605876,0.0994928263893331));
#1811=CARTESIAN_POINT('',(0.0125305655182824,0.0225634921605876,0.10033));
#1812=CARTESIAN_POINT('',(0.0125305655182824,0.0225634921605876,0.10033));
#1813=CARTESIAN_POINT('',(2.30967758302519E-19,0.0225634921605876,0.10033));
#1814=CARTESIAN_POINT('',(0.00185094005428254,0.0225634921605876,0.10033));
#1815=CARTESIAN_POINT('',(0.00185094005428254,0.0225634921605876,0.10033));
#1816=CARTESIAN_POINT('',(0.00185094005428254,0.0200234921605877,0.10033));
#1817=CARTESIAN_POINT('',(0.00185094005428254,0.0225634921605876,0.10033));
#1818=CARTESIAN_POINT('',(0.0125305655182824,-0.0155365078394124,0.10033));
#1819=CARTESIAN_POINT('',(2.30967758302519E-19,-0.0155365078394124,0.10033));
#1820=CARTESIAN_POINT('',(2.30967758302519E-19,0.0225634921605876,0.10033));
#1821=CARTESIAN_POINT('',(0.0193599138572479,0.0225634921605876,0.1016));
#1822=CARTESIAN_POINT('',(0.0193599138572479,-0.0155365078394124,0.1016));
#1823=CARTESIAN_POINT('',(0.0276011310365649,-0.0155365078394124,0.1016));
#1824=CARTESIAN_POINT('',(-8.00925286809099E-20,-0.0155365078394124,0.1016));
#1825=CARTESIAN_POINT('',(0.0276011310365649,0.0225634921605876,0.1016));
#1826=CARTESIAN_POINT('',(0.0276011310365649,0.0225634921605876,0.1016));
#1827=CARTESIAN_POINT('',(0.0193599138572479,0.0225634921605876,0.1016));
#1828=CARTESIAN_POINT('',(-8.00925286809099E-20,0.0225634921605876,0.1016));
#1829=CARTESIAN_POINT('',(-8.00925286809099E-20,0.0225634921605876,0.1016));
#1830=CARTESIAN_POINT('',(7.54376148108046E-20,0.0225634921605876,0.100965));
#1831=CARTESIAN_POINT('',(7.54376148108046E-20,-0.0155365078394124,0.100965));
#1832=CARTESIAN_POINT('',(7.54376148108046E-20,0.0225634921605876,0.100965));
#1833=CARTESIAN_POINT('',(0.0125305655182824,0.0225634921605876,0.10033));
#1834=CARTESIAN_POINT('',(0.0125305655182824,0.0225634921605876,0.10033));
#1835=CARTESIAN_POINT('',(0.0250611310365649,0.0225634921605876,0.10033));
#1836=CARTESIAN_POINT('',(0.0250611310365649,0.0225634921605876,0.10033));
#1837=CARTESIAN_POINT('',(0.0250611310365649,-0.0155365078394124,0.10033));
#1838=CARTESIAN_POINT('',(0.0125305655182824,-0.0155365078394124,0.10033));
#1839=CARTESIAN_POINT('',(0.0138005655182824,0.0225634921605876,0.0508));
#1840=CARTESIAN_POINT('',(0.0276011310365649,0.0225634921605876,0.1016));
#1841=CARTESIAN_POINT('',(0.0276011310365649,0.0225634921605876,0.));
#1842=CARTESIAN_POINT('',(0.0263311310365649,0.0225634921605876,0.));
#1843=CARTESIAN_POINT('',(0.0250611310365649,0.0225634921605876,0.));
#1844=CARTESIAN_POINT('',(0.0250611310365649,0.0225634921605876,0.1016));
#1845=CARTESIAN_POINT('',(-0.00320756930605163,0.0225634921605876,0.07251065));
#1846=CARTESIAN_POINT('',(-0.00607626964866816,0.0225634921605876,0.07251065));
#1847=CARTESIAN_POINT('',(-0.0103541831326064,0.0225634921605876,0.061140975));
#1848=CARTESIAN_POINT('',(-0.0146320966165445,0.0225634921605876,0.0497713));
#1849=CARTESIAN_POINT('',(-0.0138354827899898,0.0225634921605876,0.0497713));
#1850=CARTESIAN_POINT('',(-0.0130388689634351,0.0225634921605876,0.0497713));
#1851=CARTESIAN_POINT('',(-0.0130388689634351,0.0225634921605876,0.0472313));
#1852=CARTESIAN_POINT('',(-0.0130388689634351,0.0225634921605876,0.0446913));
#1853=CARTESIAN_POINT('',(-0.014791174157527,0.0225634921605876,0.0446913));
#1854=CARTESIAN_POINT('',(-0.0165434793516189,0.0225634921605876,0.0446913));
#1855=CARTESIAN_POINT('',(-0.0208213928355571,0.0225634921605876,0.033321625));
#1856=CARTESIAN_POINT('',(-0.0250993063194952,0.0225634921605876,0.02195195));
#1857=CARTESIAN_POINT('',(-0.0241490876414652,0.0225634921605876,0.02195195));
#1858=CARTESIAN_POINT('',(-0.0231988689634351,0.0225634921605876,0.02195195));
#1859=CARTESIAN_POINT('',(-0.0231988689634351,0.0225634921605876,0.01941195));
#1860=CARTESIAN_POINT('',(-0.0231988689634351,0.0225634921605876,0.01687195));
#1861=CARTESIAN_POINT('',(-0.0251047790090024,0.0225634921605876,0.01687195));
#1862=CARTESIAN_POINT('',(-0.0270106890545696,0.0225634921605876,0.01687195));
#1863=CARTESIAN_POINT('',(-0.0301847790090023,0.0225634921605876,0.008435975));
#1864=CARTESIAN_POINT('',(-0.0333588689634351,0.0225634921605876,0.));
#1865=CARTESIAN_POINT('',(-0.0346288689634351,0.0225634921605876,0.));
#1866=CARTESIAN_POINT('',(-0.0327247790090023,0.0225634921605876,0.01687195));
#1867=CARTESIAN_POINT('',(-0.0358988689634351,0.0225634921605876,0.01687195));
#1868=CARTESIAN_POINT('',(-0.0358988689634351,0.0225634921605876,0.01941195));
#1869=CARTESIAN_POINT('',(-0.0358988689634351,0.0225634921605876,0.02195195));
#1870=CARTESIAN_POINT('',(-0.0317690876414652,0.0225634921605876,0.02195195));
#1871=CARTESIAN_POINT('',(-0.022411174157527,0.0225634921605876,0.0446913));
#1872=CARTESIAN_POINT('',(-0.0257388689634351,0.0225634921605876,0.0446913));
#1873=CARTESIAN_POINT('',(-0.0257388689634351,0.0225634921605876,0.0472313));
#1874=CARTESIAN_POINT('',(-0.0257388689634351,0.0225634921605876,0.0497713));
#1875=CARTESIAN_POINT('',(-0.0214554827899898,0.0225634921605876,0.0497713));
#1876=CARTESIAN_POINT('',(-0.0108275693060516,0.0225634921605876,0.07251065));
#1877=CARTESIAN_POINT('',(-0.0130388689634351,0.0225634921605876,0.07251065));
#1878=CARTESIAN_POINT('',(-0.0130388689634351,0.0225634921605876,0.07505065));
#1879=CARTESIAN_POINT('',(-0.0130388689634351,0.0225634921605876,0.07759065));
#1880=CARTESIAN_POINT('',(-0.00987187793851448,0.0225634921605876,0.07759065));
#1881=CARTESIAN_POINT('',(-0.00670488691359385,0.0225634921605876,0.07759065));
#1882=CARTESIAN_POINT('',(-0.00242697342965566,0.0225634921605876,0.088960325));
#1883=CARTESIAN_POINT('',(0.0138005655182824,-0.0155365078394124,0.0508));
#1884=CARTESIAN_POINT('',(0.0250611310365649,-0.0155365078394124,0.1016));
#1885=CARTESIAN_POINT('',(0.0250611310365649,-0.0155365078394124,0.));
#1886=CARTESIAN_POINT('',(0.0263311310365649,-0.0155365078394124,0.));
#1887=CARTESIAN_POINT('',(0.0276011310365649,-0.0155365078394124,0.));
#1888=CARTESIAN_POINT('',(0.0276011310365649,-0.0155365078394124,0.1016));
#1889=CARTESIAN_POINT('',(-0.00987187793851448,-0.0155365078394124,0.07759065));
#1890=CARTESIAN_POINT('',(-0.0130388689634351,-0.0155365078394124,0.07759065));
#1891=CARTESIAN_POINT('',(-0.0130388689634351,-0.0155365078394124,0.07505065));
#1892=CARTESIAN_POINT('',(-0.0130388689634351,-0.0155365078394124,0.07251065));
#1893=CARTESIAN_POINT('',(-0.0108275693060516,-0.0155365078394124,0.07251065));
#1894=CARTESIAN_POINT('',(-0.00861626964866817,-0.0155365078394124,0.07251065));
#1895=CARTESIAN_POINT('',(-0.0128941831326064,-0.0155365078394124,0.061140975));
#1896=CARTESIAN_POINT('',(-0.0171720966165445,-0.0155365078394124,0.0497713));
#1897=CARTESIAN_POINT('',(-0.0214554827899898,-0.0155365078394124,0.0497713));
#1898=CARTESIAN_POINT('',(-0.0257388689634351,-0.0155365078394124,0.0497713));
#1899=CARTESIAN_POINT('',(-0.0257388689634351,-0.0155365078394124,0.0472313));
#1900=CARTESIAN_POINT('',(-0.0257388689634351,-0.0155365078394124,0.0446913));
#1901=CARTESIAN_POINT('',(-0.022411174157527,-0.0155365078394124,0.0446913));
#1902=CARTESIAN_POINT('',(-0.0190834793516189,-0.0155365078394124,0.0446913));
#1903=CARTESIAN_POINT('',(-0.023361392835557,-0.0155365078394124,0.033321625));
#1904=CARTESIAN_POINT('',(-0.0276393063194952,-0.0155365078394124,0.02195195));
#1905=CARTESIAN_POINT('',(-0.0317690876414652,-0.0155365078394124,0.02195195));
#1906=CARTESIAN_POINT('',(-0.0358988689634351,-0.0155365078394124,0.02195195));
#1907=CARTESIAN_POINT('',(-0.0358988689634351,-0.0155365078394124,0.01941195));
#1908=CARTESIAN_POINT('',(-0.0358988689634351,-0.0155365078394124,0.01687195));
#1909=CARTESIAN_POINT('',(-0.0327247790090023,-0.0155365078394124,0.01687195));
#1910=CARTESIAN_POINT('',(-0.0295506890545696,-0.0155365078394124,0.01687195));
#1911=CARTESIAN_POINT('',(-0.0327247790090023,-0.0155365078394124,0.008435975));
#1912=CARTESIAN_POINT('',(-0.0301847790090023,-0.0155365078394124,0.008435975));
#1913=CARTESIAN_POINT('',(-0.0270106890545696,-0.0155365078394124,0.01687195));
#1914=CARTESIAN_POINT('',(-0.0251047790090024,-0.0155365078394124,0.01687195));
#1915=CARTESIAN_POINT('',(-0.0231988689634351,-0.0155365078394124,0.01687195));
#1916=CARTESIAN_POINT('',(-0.0231988689634351,-0.0155365078394124,0.01941195));
#1917=CARTESIAN_POINT('',(-0.0208213928355571,-0.0155365078394124,0.033321625));
#1918=CARTESIAN_POINT('',(-0.0165434793516189,-0.0155365078394124,0.0446913));
#1919=CARTESIAN_POINT('',(-0.014791174157527,-0.0155365078394124,0.0446913));
#1920=CARTESIAN_POINT('',(-0.0130388689634351,-0.0155365078394124,0.0446913));
#1921=CARTESIAN_POINT('',(-0.0130388689634351,-0.0155365078394124,0.0472313));
#1922=CARTESIAN_POINT('',(-0.0103541831326064,-0.0155365078394124,0.061140975));
#1923=CARTESIAN_POINT('',(-0.00607626964866816,-0.0155365078394124,0.07251065));
#1924=CARTESIAN_POINT('',(-0.00320756930605163,-0.0155365078394124,0.07251065));
#1925=CARTESIAN_POINT('',(-0.00225187793851448,-0.0155365078394124,0.07759065));
#1926=CARTESIAN_POINT('',(-0.00242697342965566,0.0225634921605876,0.088960325));
#1927=CARTESIAN_POINT('',(-0.00670488691359385,0.0225634921605876,0.07759065));
#1928=CARTESIAN_POINT('',(-0.00670488691359385,0.0200234921605877,0.07759065));
#1929=CARTESIAN_POINT('',(-0.00242697342965566,0.0200234921605877,0.088960325));
#1930=CARTESIAN_POINT('',(-0.00987187793851448,0.0225634921605876,0.07759065));
#1931=CARTESIAN_POINT('',(-0.00670488691359385,0.0225634921605876,0.07759065));
#1932=CARTESIAN_POINT('',(-0.0130388689634351,0.0225634921605876,0.07759065));
#1933=CARTESIAN_POINT('',(-0.0130388689634351,0.0225634921605876,0.07505065));
#1934=CARTESIAN_POINT('',(-0.0130388689634351,0.0225634921605876,0.07251065));
#1935=CARTESIAN_POINT('',(-0.0108275693060516,0.0225634921605876,0.07251065));
#1936=CARTESIAN_POINT('',(-0.00861626964866817,0.0225634921605876,0.07251065));
#1937=CARTESIAN_POINT('',(-0.00861626964866817,-0.0129965078394124,0.07251065));
#1938=CARTESIAN_POINT('',(-0.00861626964866817,0.0225634921605876,0.07251065));
#1939=CARTESIAN_POINT('',(-0.0128941831326064,0.0225634921605876,0.061140975));
#1940=CARTESIAN_POINT('',(-0.0128941831326064,-0.0129965078394124,0.061140975));
#1941=CARTESIAN_POINT('',(-0.0171720966165445,-0.0129965078394124,0.0497713));
#1942=CARTESIAN_POINT('',(-0.0171720966165445,0.0225634921605876,0.0497713));
#1943=CARTESIAN_POINT('',(-0.0214554827899898,0.0225634921605876,0.0497713));
#1944=CARTESIAN_POINT('',(-0.0171720966165445,0.0225634921605876,0.0497713));
#1945=CARTESIAN_POINT('',(-0.0257388689634351,0.0225634921605876,0.0497713));
#1946=CARTESIAN_POINT('',(-0.0257388689634351,0.0225634921605876,0.0472313));
#1947=CARTESIAN_POINT('',(-0.0257388689634351,0.0225634921605876,0.0446913));
#1948=CARTESIAN_POINT('',(-0.022411174157527,0.0225634921605876,0.0446913));
#1949=CARTESIAN_POINT('',(-0.0190834793516189,0.0225634921605876,0.0446913));
#1950=CARTESIAN_POINT('',(-0.0190834793516189,-0.0129965078394124,0.0446913));
#1951=CARTESIAN_POINT('',(-0.0190834793516189,0.0225634921605876,0.0446913));
#1952=CARTESIAN_POINT('',(-0.023361392835557,0.0225634921605876,0.033321625));
#1953=CARTESIAN_POINT('',(-0.023361392835557,-0.0129965078394124,0.033321625));
#1954=CARTESIAN_POINT('',(-0.0276393063194952,-0.0129965078394124,0.02195195));
#1955=CARTESIAN_POINT('',(-0.0276393063194952,0.0225634921605876,0.02195195));
#1956=CARTESIAN_POINT('',(-0.0317690876414652,0.0225634921605876,0.02195195));
#1957=CARTESIAN_POINT('',(-0.0276393063194952,0.0225634921605876,0.02195195));
#1958=CARTESIAN_POINT('',(-0.0358988689634351,0.0225634921605876,0.02195195));
#1959=CARTESIAN_POINT('',(-0.0358988689634351,0.0225634921605876,0.01941195));
#1960=CARTESIAN_POINT('',(-0.0358988689634351,0.0225634921605876,0.01687195));
#1961=CARTESIAN_POINT('',(-0.0327247790090023,0.0225634921605876,0.01687195));
#1962=CARTESIAN_POINT('',(-0.0295506890545696,0.0225634921605876,0.01687195));
#1963=CARTESIAN_POINT('',(-0.0295506890545696,-0.0129965078394124,0.01687195));
#1964=CARTESIAN_POINT('',(-0.0295506890545696,0.0225634921605876,0.01687195));
#1965=CARTESIAN_POINT('',(-0.0327247790090023,0.0225634921605876,0.008435975));
#1966=CARTESIAN_POINT('',(-0.0327247790090023,-0.0129965078394124,0.008435975));
#1967=CARTESIAN_POINT('',(-0.0346288689634351,0.0225634921605876,0.));
#1968=CARTESIAN_POINT('',(-0.0333588689634351,0.0225634921605876,0.));
#1969=CARTESIAN_POINT('',(-0.0333588689634351,0.0200234921605877,1.7347234759768E-18));
#1970=CARTESIAN_POINT('',(-0.0346288689634351,0.0200234921605877,0.));
#1971=CARTESIAN_POINT('',(-0.0301847790090023,0.0225634921605876,0.008435975));
#1972=CARTESIAN_POINT('',(-0.0273256810202563,0.0225634921605876,0.0160347763893331));
#1973=CARTESIAN_POINT('',(-0.0273256810202563,0.0200234921605877,0.0160347763893331));
#1974=CARTESIAN_POINT('',(-0.0273256810202563,-0.0129965078394124,0.0160347763893331));
#1975=CARTESIAN_POINT('',(-0.0301847790090023,0.0200234921605877,0.008435975));
#1976=CARTESIAN_POINT('',(-0.0270106890545696,0.0225634921605876,0.01687195));
#1977=CARTESIAN_POINT('',(-0.0301847790090023,-0.0129965078394124,0.008435975));
#1978=CARTESIAN_POINT('',(-0.0251047790090024,0.0225634921605876,0.01687195));
#1979=CARTESIAN_POINT('',(-0.0231988689634351,0.0225634921605876,0.01687195));
#1980=CARTESIAN_POINT('',(-0.0231988689634351,0.0225634921605876,0.01941195));
#1981=CARTESIAN_POINT('',(-0.0231988689634351,0.0225634921605876,0.02195195));
#1982=CARTESIAN_POINT('',(-0.0231988689634351,0.0200234921605877,0.02195195));
#1983=CARTESIAN_POINT('',(-0.0231988689634351,0.0200234921605877,0.01941195));
#1984=CARTESIAN_POINT('',(-0.0231988689634351,0.0200234921605877,0.0202812068309936));
#1985=CARTESIAN_POINT('',(-0.0231988689634351,0.0225634921605876,0.0202812068309935));
#1986=CARTESIAN_POINT('',(-0.0231988689634351,-0.0129965078394124,0.0202812068309935));
#1987=CARTESIAN_POINT('',(-0.0231988689634351,-0.0129965078394124,0.01941195));
#1988=CARTESIAN_POINT('',(-0.0241490876414652,0.0225634921605876,0.02195195));
#1989=CARTESIAN_POINT('',(-0.0241490876414652,0.0200234921605877,0.02195195));
#1990=CARTESIAN_POINT('',(-0.0250993063194952,0.0200234921605877,0.02195195));
#1991=CARTESIAN_POINT('',(-0.0250993063194952,0.0225634921605876,0.02195195));
#1992=CARTESIAN_POINT('',(-0.0208213928355571,0.0225634921605876,0.033321625));
#1993=CARTESIAN_POINT('',(-0.0168584713173056,0.0225634921605876,0.043854126389333));
#1994=CARTESIAN_POINT('',(-0.0168584713173056,0.0200234921605877,0.043854126389333));
#1995=CARTESIAN_POINT('',(-0.0168584713173056,-0.0129965078394124,0.043854126389333));
#1996=CARTESIAN_POINT('',(-0.0208213928355571,0.0200234921605877,0.033321625));
#1997=CARTESIAN_POINT('',(-0.0165434793516189,0.0225634921605876,0.0446913));
#1998=CARTESIAN_POINT('',(-0.0208213928355571,-0.0129965078394124,0.033321625));
#1999=CARTESIAN_POINT('',(-0.014791174157527,0.0225634921605876,0.0446913));
#2000=CARTESIAN_POINT('',(-0.0130388689634351,0.0225634921605876,0.0446913));
#2001=CARTESIAN_POINT('',(-0.0130388689634351,0.0225634921605876,0.0472313));
#2002=CARTESIAN_POINT('',(-0.0130388689634351,0.0225634921605876,0.0497713));
#2003=CARTESIAN_POINT('',(-0.0130388689634351,0.0200234921605877,0.0497713));
#2004=CARTESIAN_POINT('',(-0.0130388689634351,0.0200234921605877,0.0472313));
#2005=CARTESIAN_POINT('',(-0.0130388689634351,0.0200234921605877,0.0482161464613612));
#2006=CARTESIAN_POINT('',(-0.0130388689634351,0.0225634921605876,0.0482161464613612));
#2007=CARTESIAN_POINT('',(-0.0130388689634351,-0.0129965078394124,0.0482161464613612));
#2008=CARTESIAN_POINT('',(-0.0130388689634351,-0.0129965078394124,0.0472313));
#2009=CARTESIAN_POINT('',(-0.0138354827899898,0.0225634921605876,0.0497713));
#2010=CARTESIAN_POINT('',(-0.0138354827899898,0.0200234921605877,0.0497713));
#2011=CARTESIAN_POINT('',(-0.0146320966165445,0.0200234921605877,0.0497713));
#2012=CARTESIAN_POINT('',(-0.0146320966165445,0.0225634921605876,0.0497713));
#2013=CARTESIAN_POINT('',(-0.0103541831326064,0.0225634921605876,0.061140975));
#2014=CARTESIAN_POINT('',(-0.0063912616143549,0.0225634921605876,0.071673476389333));
#2015=CARTESIAN_POINT('',(-0.00639126161435488,0.0200234921605877,0.071673476389333));
#2016=CARTESIAN_POINT('',(-0.00639126161435488,-0.0129965078394124,0.071673476389333));
#2017=CARTESIAN_POINT('',(-0.0103541831326064,0.0200234921605877,0.061140975));
#2018=CARTESIAN_POINT('',(-0.00607626964866816,0.0225634921605876,0.07251065));
#2019=CARTESIAN_POINT('',(-0.0103541831326063,-0.0129965078394124,0.061140975));
#2020=CARTESIAN_POINT('',(-0.00320756930605163,0.0225634921605876,0.07251065));
#2021=CARTESIAN_POINT('',(-0.00225187793851448,0.0225634921605876,0.07759065));
#2022=CARTESIAN_POINT('',(-0.00225187793851448,-0.0129965078394124,0.07759065));
#2023=CARTESIAN_POINT('',(0.110974455924082,0.0225634921605876,0.0333130389419638));
#2024=CARTESIAN_POINT('',(0.110974455924082,0.0200234921605877,0.0333130389419638));
#2025=CARTESIAN_POINT('',(0.110974455924082,-0.0129965078394124,0.0333130389419638));
#2026=CARTESIAN_POINT('',(0.11525236940802,0.0200234921605877,0.0446827139419638));
#2027=CARTESIAN_POINT('',(0.119530282891958,0.0200234921605877,0.0560523889419638));
#2028=CARTESIAN_POINT('',(0.11525236940802,-0.0129965078394124,0.0446827139419638));
#2029=CARTESIAN_POINT('',(0.119530282891958,-0.0129965078394124,0.0560523889419638));
#2030=CARTESIAN_POINT('',(0.119530282891958,0.0225634921605876,0.0560523889419638));
#2031=CARTESIAN_POINT('',(0.100507246221131,0.0225634921605876,0.00549368894196377));
#2032=CARTESIAN_POINT('',(0.100507246221131,0.0200234921605877,0.00549368894196377));
#2033=CARTESIAN_POINT('',(0.100507246221131,-0.0129965078394124,0.00549368894196377));
#2034=CARTESIAN_POINT('',(0.109063073189007,0.0225634921605876,0.0282330389419638));
#2035=CARTESIAN_POINT('',(0.109063073189007,-0.0129965078394124,0.0282330389419638));
#2036=CARTESIAN_POINT('',(0.109063073189007,0.0200234921605877,0.0282330389419638));
#2037=CARTESIAN_POINT('',(0.104785159705069,0.0200234921605877,0.0168633639419638));
#2038=CARTESIAN_POINT('',(0.104785159705069,-0.0129965078394124,0.0168633639419638));
#2039=CARTESIAN_POINT('',(0.0900400365181803,0.0225634921605876,-0.0223256610580362));
#2040=CARTESIAN_POINT('',(0.0900400365181803,0.0200234921605877,-0.0223256610580362));
#2041=CARTESIAN_POINT('',(0.0900400365181803,-0.0129965078394124,-0.0223256610580362));
#2042=CARTESIAN_POINT('',(0.0985958634860567,0.0225634921605876,0.000413688941963787));
#2043=CARTESIAN_POINT('',(0.0985958634860567,-0.0129965078394124,0.000413688941963787));
#2044=CARTESIAN_POINT('',(0.0985958634860567,0.0200234921605877,0.000413688941963787));
#2045=CARTESIAN_POINT('',(0.0943179500021185,0.0200234921605877,-0.0109559860580362));
#2046=CARTESIAN_POINT('',(0.0943179500021185,-0.0129965078394124,-0.0109559860580362));
#2047=CARTESIAN_POINT('',(-0.00577776242120003,0.0225634921605876,0.00792723316354116));
#2048=CARTESIAN_POINT('',(-0.00577776242120003,-0.0129965078394124,0.00792723316354116));
#2049=CARTESIAN_POINT('',(-0.00577776242120003,0.0200234921605877,0.00792723316354116));
#2050=CARTESIAN_POINT('',(-0.00895185237563281,0.0200234921605877,-0.000508741836458831));
#2051=CARTESIAN_POINT('',(-0.00895185237563281,-0.0129965078394124,-0.000508741836458831));
#2052=CARTESIAN_POINT('',(0.0250611310365649,0.0225634921605876,0.1016));
#2053=CARTESIAN_POINT('',(0.0250611310365649,0.0212934921605877,0.));
#2054=CARTESIAN_POINT('',(0.0250611310365649,0.0200234921605877,0.));
#2055=CARTESIAN_POINT('',(0.0250611310365649,0.0200234921605877,0.1016));
#2056=CARTESIAN_POINT('',(0.0250611310365649,0.0200234921605877,0.0977989399027824));
#2057=CARTESIAN_POINT('',(0.0250611310365649,0.0225634921605876,0.0977989399027824));
#2058=CARTESIAN_POINT('',(0.0250611310365649,-0.0129965078394124,0.0977989399027824));
#2059=CARTESIAN_POINT('',(0.0250611310365649,-0.0129965078394124,0.1016));
#2060=CARTESIAN_POINT('',(0.0250611310365649,-0.0129965078394124,0.));
#2061=CARTESIAN_POINT('',(0.0250611310365649,-0.0142665078394124,0.));
#2062=CARTESIAN_POINT('',(0.0276011310365649,0.0225634921605876,0.1016));
#2063=CARTESIAN_POINT('',(0.0276011310365649,-0.0142665078394124,0.));
#2064=CARTESIAN_POINT('',(0.0276011310365649,-0.0129965078394124,0.));
#2065=CARTESIAN_POINT('',(0.0276011310365649,-0.0129965078394124,0.1016));
#2066=CARTESIAN_POINT('',(0.0276011310365649,-0.0129965078394124,0.0977989399027824));
#2067=CARTESIAN_POINT('',(0.0276011310365649,0.0225634921605876,0.0977989399027824));
#2068=CARTESIAN_POINT('',(0.0276011310365649,0.0200234921605877,0.0977989399027824));
#2069=CARTESIAN_POINT('',(0.0276011310365649,0.0200234921605877,0.1016));
#2070=CARTESIAN_POINT('',(0.0276011310365649,0.0200234921605877,0.));
#2071=CARTESIAN_POINT('',(0.0276011310365649,0.0212934921605877,0.));
#2072=CARTESIAN_POINT('',(0.0263311310365649,0.0225634921605876,0.0977989399027824));
#2073=CARTESIAN_POINT('',(0.0263311310365649,0.0200234921605877,0.0977989399027824));
#2074=CARTESIAN_POINT('',(0.0263311310365649,-0.0129965078394124,0.0977989399027824));
#2075=CARTESIAN_POINT('',(0.0263311310365649,-0.0129965078394124,0.1016));
#2076=CARTESIAN_POINT('',(0.0263311310365649,-0.0129965078394124,0.));
#2077=CARTESIAN_POINT('',(-0.0041488689634351,0.00351349216058763,0.));
#2078=CARTESIAN_POINT('',(0.0263311310365649,0.0200234921605877,0.1016));
#2079=CARTESIAN_POINT('',(0.0263311310365649,0.0200234921605877,0.));
#2080=CARTESIAN_POINT('',(-0.0041488689634351,0.00351349216058763,0.));
#2081=MECHANICAL_DESIGN_GEOMETRIC_PRESENTATION_REPRESENTATION('',(#1320),
#2082);
#2082=(
GEOMETRIC_REPRESENTATION_CONTEXT(3)
GLOBAL_UNCERTAINTY_ASSIGNED_CONTEXT((#2083))
GLOBAL_UNIT_ASSIGNED_CONTEXT((#2086,#2085,#2084))
REPRESENTATION_CONTEXT('Part 1','TOP_LEVEL_ASSEMBLY_PART')
);
#2083=UNCERTAINTY_MEASURE_WITH_UNIT(LENGTH_MEASURE(1.E-8),#2086,
'DISTANCE_ACCURACY_VALUE','Maximum Tolerance applied to model');
#2084=(
NAMED_UNIT(*)
SI_UNIT($,.STERADIAN.)
SOLID_ANGLE_UNIT()
);
#2085=(
NAMED_UNIT(*)
PLANE_ANGLE_UNIT()
SI_UNIT($,.RADIAN.)
);
#2086=(
LENGTH_UNIT()
NAMED_UNIT(*)
SI_UNIT($,.METRE.)
);
#2087=PRODUCT_DEFINITION_SHAPE('','',#2088);
#2088=PRODUCT_DEFINITION('','',#2090,#2089);
#2089=PRODUCT_DEFINITION_CONTEXT('',#2096,'design');
#2090=PRODUCT_DEFINITION_FORMATION_WITH_SPECIFIED_SOURCE('','',#2092,
 .NOT_KNOWN.);
#2091=PRODUCT_RELATED_PRODUCT_CATEGORY('','',(#2092));
#2092=PRODUCT('Part 1','Part 1','Part 1',(#2094));
#2093=PRODUCT_CATEGORY('','');
#2094=PRODUCT_CONTEXT('',#2096,'mechanical');
#2095=APPLICATION_PROTOCOL_DEFINITION('international standard',
'ap242_managed_model_based_3d_engineering',2020,#2096);
#2096=APPLICATION_CONTEXT('managed model based 3d engineering');
ENDSEC;
END-ISO-10303-21;
