ISO-10303-21;
HEADER;
/* Generated by software containing ST-Developer
 * from STEP Tools, Inc. (www.steptools.com) 
 */
/* OPTION: using custom renumber hook */

FILE_DESCRIPTION(
/* description */ ('STEP AP242 Edition 2',
'CAx-IF Rec.Pracs.---Representation and Presentation of Product Manufa
cturing Information (PMI)---4.0---2014-10-13',
'CAx-IF Rec.Pracs.---3D Tessellated Geometry---0.4---2014-09-14','2;1',
'CAx-IF Rec.Pracs.---User Defined Attributes---1.5---2016-08-15'),
/* implementation_level */ '2;1');

FILE_NAME(
/* name */ 'Lamp',
/* time_stamp */ '2026-09-08T02:25:22Z',
/* author */ (''),
/* organization */ (''),
/* preprocessor_version */ 'ST-DEVELOPER v20',
/* originating_system */ 'ONSHAPE BY PTC INC, 1.220',
/* authorisation */ '  ');

FILE_SCHEMA (('AP242_MANAGED_MODEL_BASED_3D_ENGINEERING_MIM_LF { 1 0 10303 442 3 1 4 }'));
ENDSEC;

DATA;
#10=SHAPE_REPRESENTATION_RELATIONSHIP('','',#80,#11);
#11=ADVANCED_BREP_SHAPE_REPRESENTATION('',(#78),#135);
#12=PLANE('',#85);
#13=PLANE('',#86);
#14=ORIENTED_EDGE('',*,*,#24,.F.);
#15=ORIENTED_EDGE('',*,*,#25,.F.);
#16=ORIENTED_EDGE('',*,*,#24,.T.);
#17=ORIENTED_EDGE('',*,*,#26,.F.);
#18=ORIENTED_EDGE('',*,*,#27,.F.);
#19=ORIENTED_EDGE('',*,*,#28,.T.);
#20=ORIENTED_EDGE('',*,*,#28,.F.);
#21=ORIENTED_EDGE('',*,*,#26,.T.);
#22=ORIENTED_EDGE('',*,*,#25,.T.);
#23=ORIENTED_EDGE('',*,*,#27,.T.);
#24=EDGE_CURVE('',#29,#29,#34,.T.);
#25=EDGE_CURVE('',#30,#30,#35,.T.);
#26=EDGE_CURVE('',#31,#31,#36,.T.);
#27=EDGE_CURVE('',#32,#32,#37,.T.);
#28=EDGE_CURVE('',#33,#33,#38,.T.);
#29=VERTEX_POINT('',#120);
#30=VERTEX_POINT('',#122);
#31=VERTEX_POINT('',#126);
#32=VERTEX_POINT('',#129);
#33=VERTEX_POINT('',#131);
#34=CIRCLE('',#83,0.000720485358197645);
#35=CIRCLE('',#84,0.00127000000000002);
#36=CIRCLE('',#87,0.00254);
#37=CIRCLE('',#89,0.00254);
#38=CIRCLE('',#90,0.00201083215447774);
#39=EDGE_LOOP('',(#14));
#40=EDGE_LOOP('',(#15));
#41=EDGE_LOOP('',(#16));
#42=EDGE_LOOP('',(#17));
#43=EDGE_LOOP('',(#18));
#44=EDGE_LOOP('',(#19));
#45=EDGE_LOOP('',(#20));
#46=EDGE_LOOP('',(#21));
#47=EDGE_LOOP('',(#22));
#48=EDGE_LOOP('',(#23));
#49=FACE_BOUND('',#39,.T.);
#50=FACE_BOUND('',#40,.T.);
#51=FACE_BOUND('',#41,.T.);
#52=FACE_BOUND('',#42,.T.);
#53=FACE_BOUND('',#43,.T.);
#54=FACE_BOUND('',#44,.T.);
#55=FACE_BOUND('',#45,.T.);
#56=FACE_BOUND('',#46,.T.);
#57=FACE_BOUND('',#47,.T.);
#58=FACE_BOUND('',#48,.T.);
#59=CONICAL_SURFACE('',#82,0.00127000000000001,0.213060754762467);
#60=CONICAL_SURFACE('',#88,0.00201083215447774,0.205395834000099);
#61=CONICAL_SURFACE('',#91,0.00254,0.205395834000098);
#62=CONICAL_SURFACE('',#92,0.00254,0.12435499454676);
#63=ADVANCED_FACE('',(#49,#50),#59,.T.);
#64=ADVANCED_FACE('',(#51),#12,.F.);
#65=ADVANCED_FACE('',(#52),#13,.T.);
#66=ADVANCED_FACE('',(#53,#54),#60,.T.);
#67=ADVANCED_FACE('',(#55,#56),#61,.T.);
#68=ADVANCED_FACE('',(#57,#58),#62,.T.);
#69=CLOSED_SHELL('',(#63,#64,#65,#66,#67,#68));
#70=STYLED_ITEM('',(#71),#78);
#71=PRESENTATION_STYLE_ASSIGNMENT((#72));
#72=SURFACE_STYLE_USAGE(.BOTH.,#73);
#73=SURFACE_SIDE_STYLE('',(#74));
#74=SURFACE_STYLE_FILL_AREA(#75);
#75=FILL_AREA_STYLE('',(#76));
#76=FILL_AREA_STYLE_COLOUR('',#77);
#77=COLOUR_RGB('',0.647058823529412,0.647058823529412,0.647058823529412);
#78=MANIFOLD_SOLID_BREP('Part 1',#69);
#79=SHAPE_DEFINITION_REPRESENTATION(#140,#80);
#80=SHAPE_REPRESENTATION('Part 1',(#81),#135);
#81=AXIS2_PLACEMENT_3D('',#117,#93,#94);
#82=AXIS2_PLACEMENT_3D('',#118,#95,#96);
#83=AXIS2_PLACEMENT_3D('',#119,#97,#98);
#84=AXIS2_PLACEMENT_3D('',#121,#99,#100);
#85=AXIS2_PLACEMENT_3D('',#123,#101,#102);
#86=AXIS2_PLACEMENT_3D('',#124,#103,#104);
#87=AXIS2_PLACEMENT_3D('',#125,#105,#106);
#88=AXIS2_PLACEMENT_3D('',#127,#107,#108);
#89=AXIS2_PLACEMENT_3D('',#128,#109,#110);
#90=AXIS2_PLACEMENT_3D('',#130,#111,#112);
#91=AXIS2_PLACEMENT_3D('',#132,#113,#114);
#92=AXIS2_PLACEMENT_3D('',#133,#115,#116);
#93=DIRECTION('',(0.,0.,1.));
#94=DIRECTION('',(1.,0.,0.));
#95=DIRECTION('',(0.,0.,-1.));
#96=DIRECTION('',(-1.,0.,0.));
#97=DIRECTION('',(0.,0.,1.));
#98=DIRECTION('',(1.,0.,0.));
#99=DIRECTION('',(1.3710741038539E-16,0.,-1.));
#100=DIRECTION('',(-1.,0.,-1.3710741038539E-16));
#101=DIRECTION('',(0.,0.,-1.));
#102=DIRECTION('',(-1.,0.,0.));
#103=DIRECTION('',(0.,0.,-1.));
#104=DIRECTION('',(-1.,0.,0.));
#105=DIRECTION('',(0.,0.,1.));
#106=DIRECTION('',(1.,0.,0.));
#107=DIRECTION('',(0.,0.,1.));
#108=DIRECTION('',(1.,0.,0.));
#109=DIRECTION('',(0.,0.,1.));
#110=DIRECTION('',(1.,0.,0.));
#111=DIRECTION('',(0.,0.,1.));
#112=DIRECTION('',(1.,0.,0.));
#113=DIRECTION('',(0.,0.,-1.));
#114=DIRECTION('',(-1.,0.,0.));
#115=DIRECTION('',(1.3710741038539E-16,0.,-1.));
#116=DIRECTION('',(-1.,0.,-1.3710741038539E-16));
#117=CARTESIAN_POINT('',(0.,0.,0.));
#118=CARTESIAN_POINT('',(-0.0495115823460031,0.,0.01524));
#119=CARTESIAN_POINT('',(-0.0495115823460031,0.,0.01778));
#120=CARTESIAN_POINT('',(-0.0487910969878055,0.,0.01778));
#121=CARTESIAN_POINT('',(-0.0495115823460031,0.,0.01524));
#122=CARTESIAN_POINT('',(-0.0507815823460031,0.,0.01524));
#123=CARTESIAN_POINT('',(-0.0498718250251019,0.,0.01778));
#124=CARTESIAN_POINT('',(-0.0507815823460031,0.,-6.50521303491305E-20));
#125=CARTESIAN_POINT('',(-0.0495115823460031,0.,0.));
#126=CARTESIAN_POINT('',(-0.0469715823460031,0.,0.));
#127=CARTESIAN_POINT('',(-0.0495115823460031,0.,0.00254));
#128=CARTESIAN_POINT('',(-0.0495115823460031,0.,0.00508));
#129=CARTESIAN_POINT('',(-0.0469715823460031,0.,0.00508));
#130=CARTESIAN_POINT('',(-0.0495115823460031,0.,0.00254));
#131=CARTESIAN_POINT('',(-0.0475007501915254,0.,0.00254));
#132=CARTESIAN_POINT('',(-0.0495115823460031,0.,0.));
#133=CARTESIAN_POINT('',(-0.0495115823460031,0.,0.00508));
#134=MECHANICAL_DESIGN_GEOMETRIC_PRESENTATION_REPRESENTATION('',(#70),#135);
#135=(
GEOMETRIC_REPRESENTATION_CONTEXT(3)
GLOBAL_UNCERTAINTY_ASSIGNED_CONTEXT((#136))
GLOBAL_UNIT_ASSIGNED_CONTEXT((#139,#138,#137))
REPRESENTATION_CONTEXT('Part 1','TOP_LEVEL_ASSEMBLY_PART')
);
#136=UNCERTAINTY_MEASURE_WITH_UNIT(LENGTH_MEASURE(1.E-8),#139,
'DISTANCE_ACCURACY_VALUE','Maximum Tolerance applied to model');
#137=(
NAMED_UNIT(*)
SI_UNIT($,.STERADIAN.)
SOLID_ANGLE_UNIT()
);
#138=(
NAMED_UNIT(*)
PLANE_ANGLE_UNIT()
SI_UNIT($,.RADIAN.)
);
#139=(
LENGTH_UNIT()
NAMED_UNIT(*)
SI_UNIT($,.METRE.)
);
#140=PRODUCT_DEFINITION_SHAPE('','',#141);
#141=PRODUCT_DEFINITION('','',#143,#142);
#142=PRODUCT_DEFINITION_CONTEXT('',#149,'design');
#143=PRODUCT_DEFINITION_FORMATION_WITH_SPECIFIED_SOURCE('','',#145,
 .NOT_KNOWN.);
#144=PRODUCT_RELATED_PRODUCT_CATEGORY('','',(#145));
#145=PRODUCT('Part 1','Part 1','Part 1',(#147));
#146=PRODUCT_CATEGORY('','');
#147=PRODUCT_CONTEXT('',#149,'mechanical');
#148=APPLICATION_PROTOCOL_DEFINITION('international standard',
'ap242_managed_model_based_3d_engineering',2020,#149);
#149=APPLICATION_CONTEXT('managed model based 3d engineering');
ENDSEC;
END-ISO-10303-21;
