ISO-10303-21;
HEADER;
/* Generated by software containing ST-Developer
 * from STEP Tools, Inc. (www.steptools.com) 
 */
/* OPTION: using custom renumber hook */

FILE_DESCRIPTION(
/* description */ ('STEP AP242 Edition 2',
'CAx-IF Rec.Pracs.---Representation and Presentation of Product Manufa
cturing Information (PMI)---4.0---2014-10-13',
'CAx-IF Rec.Pracs.---3D Tessellated Geometry---0.4---2014-09-14','2;1',
'CAx-IF Rec.Pracs.---User Defined Attributes---1.5---2016-08-15'),
/* implementation_level */ '2;1');

FILE_NAME(
/* name */ 'Side Plate Copy 1',
/* time_stamp */ '2026-09-08T02:24:42Z',
/* author */ (''),
/* organization */ (''),
/* preprocessor_version */ 'ST-DEVELOPER v20',
/* originating_system */ 'ONSHAPE BY PTC INC, 1.220',
/* authorisation */ '  ');

FILE_SCHEMA (('AP242_MANAGED_MODEL_BASED_3D_ENGINEERING_MIM_LF { 1 0 10303 442 3 1 4 }'));
ENDSEC;

DATA;
#10=SHAPE_REPRESENTATION_RELATIONSHIP('','',#803,#11);
#11=ADVANCED_BREP_SHAPE_REPRESENTATION('',(#801),#1297);
#12=CYLINDRICAL_SURFACE('',#813,0.00257853647374157);
#13=CYLINDRICAL_SURFACE('',#817,0.0127);
#14=CYLINDRICAL_SURFACE('',#823,0.01397);
#15=CYLINDRICAL_SURFACE('',#827,0.00257853647374156);
#16=CYLINDRICAL_SURFACE('',#831,0.0127);
#17=CYLINDRICAL_SURFACE('',#835,0.00257853647374158);
#18=CYLINDRICAL_SURFACE('',#839,0.0127);
#19=CYLINDRICAL_SURFACE('',#842,0.0025785364737416);
#20=CYLINDRICAL_SURFACE('',#846,0.0127);
#21=CYLINDRICAL_SURFACE('',#860,0.01397);
#22=CIRCLE('',#810,0.01397);
#23=CIRCLE('',#812,0.01397);
#24=CIRCLE('',#814,0.00257853647374157);
#25=CIRCLE('',#815,0.00257853647374157);
#26=CIRCLE('',#818,0.0127);
#27=CIRCLE('',#819,0.0127);
#28=CIRCLE('',#824,0.01397);
#29=CIRCLE('',#828,0.00257853647374156);
#30=CIRCLE('',#829,0.00257853647374156);
#31=CIRCLE('',#832,0.0127);
#32=CIRCLE('',#833,0.0127);
#33=CIRCLE('',#836,0.00257853647374158);
#34=CIRCLE('',#837,0.00257853647374158);
#35=CIRCLE('',#840,0.0127);
#36=CIRCLE('',#841,0.0127);
#37=CIRCLE('',#843,0.0025785364737416);
#38=CIRCLE('',#844,0.0025785364737416);
#39=CIRCLE('',#847,0.0127);
#40=CIRCLE('',#848,0.0127);
#41=CIRCLE('',#861,0.01397);
#42=ORIENTED_EDGE('',*,*,#258,.F.);
#43=ORIENTED_EDGE('',*,*,#259,.F.);
#44=ORIENTED_EDGE('',*,*,#260,.T.);
#45=ORIENTED_EDGE('',*,*,#261,.T.);
#46=ORIENTED_EDGE('',*,*,#262,.T.);
#47=ORIENTED_EDGE('',*,*,#263,.F.);
#48=ORIENTED_EDGE('',*,*,#264,.F.);
#49=ORIENTED_EDGE('',*,*,#259,.T.);
#50=ORIENTED_EDGE('',*,*,#265,.T.);
#51=ORIENTED_EDGE('',*,*,#266,.F.);
#52=ORIENTED_EDGE('',*,*,#267,.F.);
#53=ORIENTED_EDGE('',*,*,#263,.T.);
#54=ORIENTED_EDGE('',*,*,#268,.F.);
#55=ORIENTED_EDGE('',*,*,#261,.F.);
#56=ORIENTED_EDGE('',*,*,#269,.T.);
#57=ORIENTED_EDGE('',*,*,#266,.T.);
#58=ORIENTED_EDGE('',*,*,#270,.F.);
#59=ORIENTED_EDGE('',*,*,#271,.T.);
#60=ORIENTED_EDGE('',*,*,#272,.F.);
#61=ORIENTED_EDGE('',*,*,#273,.F.);
#62=ORIENTED_EDGE('',*,*,#260,.F.);
#63=ORIENTED_EDGE('',*,*,#264,.T.);
#64=ORIENTED_EDGE('',*,*,#267,.T.);
#65=ORIENTED_EDGE('',*,*,#269,.F.);
#66=ORIENTED_EDGE('',*,*,#274,.F.);
#67=ORIENTED_EDGE('',*,*,#275,.T.);
#68=ORIENTED_EDGE('',*,*,#276,.T.);
#69=ORIENTED_EDGE('',*,*,#277,.T.);
#70=ORIENTED_EDGE('',*,*,#258,.T.);
#71=ORIENTED_EDGE('',*,*,#268,.T.);
#72=ORIENTED_EDGE('',*,*,#265,.F.);
#73=ORIENTED_EDGE('',*,*,#262,.F.);
#74=ORIENTED_EDGE('',*,*,#278,.T.);
#75=ORIENTED_EDGE('',*,*,#279,.F.);
#76=ORIENTED_EDGE('',*,*,#280,.F.);
#77=ORIENTED_EDGE('',*,*,#281,.T.);
#78=ORIENTED_EDGE('',*,*,#280,.T.);
#79=ORIENTED_EDGE('',*,*,#282,.T.);
#80=ORIENTED_EDGE('',*,*,#283,.F.);
#81=ORIENTED_EDGE('',*,*,#284,.F.);
#82=ORIENTED_EDGE('',*,*,#283,.T.);
#83=ORIENTED_EDGE('',*,*,#285,.T.);
#84=ORIENTED_EDGE('',*,*,#286,.F.);
#85=ORIENTED_EDGE('',*,*,#287,.F.);
#86=ORIENTED_EDGE('',*,*,#286,.T.);
#87=ORIENTED_EDGE('',*,*,#288,.F.);
#88=ORIENTED_EDGE('',*,*,#278,.F.);
#89=ORIENTED_EDGE('',*,*,#289,.T.);
#90=ORIENTED_EDGE('',*,*,#290,.T.);
#91=ORIENTED_EDGE('',*,*,#274,.T.);
#92=ORIENTED_EDGE('',*,*,#291,.F.);
#93=ORIENTED_EDGE('',*,*,#292,.F.);
#94=ORIENTED_EDGE('',*,*,#277,.F.);
#95=ORIENTED_EDGE('',*,*,#293,.F.);
#96=ORIENTED_EDGE('',*,*,#294,.T.);
#97=ORIENTED_EDGE('',*,*,#291,.T.);
#98=ORIENTED_EDGE('',*,*,#276,.F.);
#99=ORIENTED_EDGE('',*,*,#295,.F.);
#100=ORIENTED_EDGE('',*,*,#296,.T.);
#101=ORIENTED_EDGE('',*,*,#293,.T.);
#102=ORIENTED_EDGE('',*,*,#275,.F.);
#103=ORIENTED_EDGE('',*,*,#290,.F.);
#104=ORIENTED_EDGE('',*,*,#297,.T.);
#105=ORIENTED_EDGE('',*,*,#295,.T.);
#106=ORIENTED_EDGE('',*,*,#298,.T.);
#107=ORIENTED_EDGE('',*,*,#299,.F.);
#108=ORIENTED_EDGE('',*,*,#300,.F.);
#109=ORIENTED_EDGE('',*,*,#301,.T.);
#110=ORIENTED_EDGE('',*,*,#300,.T.);
#111=ORIENTED_EDGE('',*,*,#302,.F.);
#112=ORIENTED_EDGE('',*,*,#303,.F.);
#113=ORIENTED_EDGE('',*,*,#304,.T.);
#114=ORIENTED_EDGE('',*,*,#303,.T.);
#115=ORIENTED_EDGE('',*,*,#305,.T.);
#116=ORIENTED_EDGE('',*,*,#306,.F.);
#117=ORIENTED_EDGE('',*,*,#307,.F.);
#118=ORIENTED_EDGE('',*,*,#306,.T.);
#119=ORIENTED_EDGE('',*,*,#308,.T.);
#120=ORIENTED_EDGE('',*,*,#298,.F.);
#121=ORIENTED_EDGE('',*,*,#309,.F.);
#122=ORIENTED_EDGE('',*,*,#310,.T.);
#123=ORIENTED_EDGE('',*,*,#311,.F.);
#124=ORIENTED_EDGE('',*,*,#312,.F.);
#125=ORIENTED_EDGE('',*,*,#313,.T.);
#126=ORIENTED_EDGE('',*,*,#312,.T.);
#127=ORIENTED_EDGE('',*,*,#314,.F.);
#128=ORIENTED_EDGE('',*,*,#315,.F.);
#129=ORIENTED_EDGE('',*,*,#316,.T.);
#130=ORIENTED_EDGE('',*,*,#315,.T.);
#131=ORIENTED_EDGE('',*,*,#317,.T.);
#132=ORIENTED_EDGE('',*,*,#318,.F.);
#133=ORIENTED_EDGE('',*,*,#319,.F.);
#134=ORIENTED_EDGE('',*,*,#318,.T.);
#135=ORIENTED_EDGE('',*,*,#320,.T.);
#136=ORIENTED_EDGE('',*,*,#310,.F.);
#137=ORIENTED_EDGE('',*,*,#321,.F.);
#138=ORIENTED_EDGE('',*,*,#322,.T.);
#139=ORIENTED_EDGE('',*,*,#323,.F.);
#140=ORIENTED_EDGE('',*,*,#324,.F.);
#141=ORIENTED_EDGE('',*,*,#325,.T.);
#142=ORIENTED_EDGE('',*,*,#324,.T.);
#143=ORIENTED_EDGE('',*,*,#326,.T.);
#144=ORIENTED_EDGE('',*,*,#327,.F.);
#145=ORIENTED_EDGE('',*,*,#328,.F.);
#146=ORIENTED_EDGE('',*,*,#327,.T.);
#147=ORIENTED_EDGE('',*,*,#329,.T.);
#148=ORIENTED_EDGE('',*,*,#330,.F.);
#149=ORIENTED_EDGE('',*,*,#331,.F.);
#150=ORIENTED_EDGE('',*,*,#330,.T.);
#151=ORIENTED_EDGE('',*,*,#332,.T.);
#152=ORIENTED_EDGE('',*,*,#322,.F.);
#153=ORIENTED_EDGE('',*,*,#333,.F.);
#154=ORIENTED_EDGE('',*,*,#334,.T.);
#155=ORIENTED_EDGE('',*,*,#335,.T.);
#156=ORIENTED_EDGE('',*,*,#336,.F.);
#157=ORIENTED_EDGE('',*,*,#337,.F.);
#158=ORIENTED_EDGE('',*,*,#336,.T.);
#159=ORIENTED_EDGE('',*,*,#338,.F.);
#160=ORIENTED_EDGE('',*,*,#339,.F.);
#161=ORIENTED_EDGE('',*,*,#340,.T.);
#162=ORIENTED_EDGE('',*,*,#339,.T.);
#163=ORIENTED_EDGE('',*,*,#341,.F.);
#164=ORIENTED_EDGE('',*,*,#342,.F.);
#165=ORIENTED_EDGE('',*,*,#343,.T.);
#166=ORIENTED_EDGE('',*,*,#342,.T.);
#167=ORIENTED_EDGE('',*,*,#344,.T.);
#168=ORIENTED_EDGE('',*,*,#334,.F.);
#169=ORIENTED_EDGE('',*,*,#345,.F.);
#170=ORIENTED_EDGE('',*,*,#345,.T.);
#171=ORIENTED_EDGE('',*,*,#337,.T.);
#172=ORIENTED_EDGE('',*,*,#340,.F.);
#173=ORIENTED_EDGE('',*,*,#343,.F.);
#174=ORIENTED_EDGE('',*,*,#333,.T.);
#175=ORIENTED_EDGE('',*,*,#325,.F.);
#176=ORIENTED_EDGE('',*,*,#328,.T.);
#177=ORIENTED_EDGE('',*,*,#331,.T.);
#178=ORIENTED_EDGE('',*,*,#321,.T.);
#179=ORIENTED_EDGE('',*,*,#313,.F.);
#180=ORIENTED_EDGE('',*,*,#316,.F.);
#181=ORIENTED_EDGE('',*,*,#319,.T.);
#182=ORIENTED_EDGE('',*,*,#309,.T.);
#183=ORIENTED_EDGE('',*,*,#301,.F.);
#184=ORIENTED_EDGE('',*,*,#304,.F.);
#185=ORIENTED_EDGE('',*,*,#307,.T.);
#186=ORIENTED_EDGE('',*,*,#297,.F.);
#187=ORIENTED_EDGE('',*,*,#292,.T.);
#188=ORIENTED_EDGE('',*,*,#294,.F.);
#189=ORIENTED_EDGE('',*,*,#296,.F.);
#190=ORIENTED_EDGE('',*,*,#289,.F.);
#191=ORIENTED_EDGE('',*,*,#281,.F.);
#192=ORIENTED_EDGE('',*,*,#284,.T.);
#193=ORIENTED_EDGE('',*,*,#287,.T.);
#194=ORIENTED_EDGE('',*,*,#346,.T.);
#195=ORIENTED_EDGE('',*,*,#347,.T.);
#196=ORIENTED_EDGE('',*,*,#348,.F.);
#197=ORIENTED_EDGE('',*,*,#349,.F.);
#198=ORIENTED_EDGE('',*,*,#350,.T.);
#199=ORIENTED_EDGE('',*,*,#351,.T.);
#200=ORIENTED_EDGE('',*,*,#352,.F.);
#201=ORIENTED_EDGE('',*,*,#347,.F.);
#202=ORIENTED_EDGE('',*,*,#352,.T.);
#203=ORIENTED_EDGE('',*,*,#353,.F.);
#204=ORIENTED_EDGE('',*,*,#354,.F.);
#205=ORIENTED_EDGE('',*,*,#348,.T.);
#206=ORIENTED_EDGE('',*,*,#354,.T.);
#207=ORIENTED_EDGE('',*,*,#355,.F.);
#208=ORIENTED_EDGE('',*,*,#356,.F.);
#209=ORIENTED_EDGE('',*,*,#349,.T.);
#210=ORIENTED_EDGE('',*,*,#356,.T.);
#211=ORIENTED_EDGE('',*,*,#357,.T.);
#212=ORIENTED_EDGE('',*,*,#350,.F.);
#213=ORIENTED_EDGE('',*,*,#346,.F.);
#214=ORIENTED_EDGE('',*,*,#358,.F.);
#215=ORIENTED_EDGE('',*,*,#270,.T.);
#216=ORIENTED_EDGE('',*,*,#359,.T.);
#217=ORIENTED_EDGE('',*,*,#360,.F.);
#218=ORIENTED_EDGE('',*,*,#359,.F.);
#219=ORIENTED_EDGE('',*,*,#273,.T.);
#220=ORIENTED_EDGE('',*,*,#361,.T.);
#221=ORIENTED_EDGE('',*,*,#362,.F.);
#222=ORIENTED_EDGE('',*,*,#361,.F.);
#223=ORIENTED_EDGE('',*,*,#272,.T.);
#224=ORIENTED_EDGE('',*,*,#363,.T.);
#225=ORIENTED_EDGE('',*,*,#364,.F.);
#226=ORIENTED_EDGE('',*,*,#271,.F.);
#227=ORIENTED_EDGE('',*,*,#358,.T.);
#228=ORIENTED_EDGE('',*,*,#365,.T.);
#229=ORIENTED_EDGE('',*,*,#363,.F.);
#230=ORIENTED_EDGE('',*,*,#344,.F.);
#231=ORIENTED_EDGE('',*,*,#341,.T.);
#232=ORIENTED_EDGE('',*,*,#338,.T.);
#233=ORIENTED_EDGE('',*,*,#335,.F.);
#234=ORIENTED_EDGE('',*,*,#332,.F.);
#235=ORIENTED_EDGE('',*,*,#329,.F.);
#236=ORIENTED_EDGE('',*,*,#326,.F.);
#237=ORIENTED_EDGE('',*,*,#323,.T.);
#238=ORIENTED_EDGE('',*,*,#320,.F.);
#239=ORIENTED_EDGE('',*,*,#317,.F.);
#240=ORIENTED_EDGE('',*,*,#314,.T.);
#241=ORIENTED_EDGE('',*,*,#311,.T.);
#242=ORIENTED_EDGE('',*,*,#308,.F.);
#243=ORIENTED_EDGE('',*,*,#305,.F.);
#244=ORIENTED_EDGE('',*,*,#302,.T.);
#245=ORIENTED_EDGE('',*,*,#299,.T.);
#246=ORIENTED_EDGE('',*,*,#360,.T.);
#247=ORIENTED_EDGE('',*,*,#362,.T.);
#248=ORIENTED_EDGE('',*,*,#364,.T.);
#249=ORIENTED_EDGE('',*,*,#365,.F.);
#250=ORIENTED_EDGE('',*,*,#288,.T.);
#251=ORIENTED_EDGE('',*,*,#285,.F.);
#252=ORIENTED_EDGE('',*,*,#282,.F.);
#253=ORIENTED_EDGE('',*,*,#279,.T.);
#254=ORIENTED_EDGE('',*,*,#357,.F.);
#255=ORIENTED_EDGE('',*,*,#355,.T.);
#256=ORIENTED_EDGE('',*,*,#353,.T.);
#257=ORIENTED_EDGE('',*,*,#351,.F.);
#258=EDGE_CURVE('',#366,#367,#438,.T.);
#259=EDGE_CURVE('',#368,#366,#439,.T.);
#260=EDGE_CURVE('',#368,#369,#440,.T.);
#261=EDGE_CURVE('',#369,#367,#441,.T.);
#262=EDGE_CURVE('',#366,#370,#442,.T.);
#263=EDGE_CURVE('',#371,#370,#443,.T.);
#264=EDGE_CURVE('',#368,#371,#444,.T.);
#265=EDGE_CURVE('',#370,#372,#445,.T.);
#266=EDGE_CURVE('',#373,#372,#446,.T.);
#267=EDGE_CURVE('',#371,#373,#447,.T.);
#268=EDGE_CURVE('',#367,#372,#448,.T.);
#269=EDGE_CURVE('',#369,#373,#449,.T.);
#270=EDGE_CURVE('',#374,#375,#450,.T.);
#271=EDGE_CURVE('',#374,#376,#451,.T.);
#272=EDGE_CURVE('',#377,#376,#452,.T.);
#273=EDGE_CURVE('',#375,#377,#22,.T.);
#274=EDGE_CURVE('',#378,#379,#453,.T.);
#275=EDGE_CURVE('',#378,#380,#454,.T.);
#276=EDGE_CURVE('',#380,#381,#23,.T.);
#277=EDGE_CURVE('',#381,#379,#455,.T.);
#278=EDGE_CURVE('',#382,#383,#456,.T.);
#279=EDGE_CURVE('',#384,#383,#24,.T.);
#280=EDGE_CURVE('',#385,#384,#457,.T.);
#281=EDGE_CURVE('',#385,#382,#25,.T.);
#282=EDGE_CURVE('',#384,#386,#458,.T.);
#283=EDGE_CURVE('',#387,#386,#459,.T.);
#284=EDGE_CURVE('',#385,#387,#460,.T.);
#285=EDGE_CURVE('',#386,#388,#26,.T.);
#286=EDGE_CURVE('',#389,#388,#461,.T.);
#287=EDGE_CURVE('',#387,#389,#27,.T.);
#288=EDGE_CURVE('',#383,#388,#462,.T.);
#289=EDGE_CURVE('',#382,#389,#463,.T.);
#290=EDGE_CURVE('',#390,#378,#464,.T.);
#291=EDGE_CURVE('',#391,#379,#465,.T.);
#292=EDGE_CURVE('',#390,#391,#466,.T.);
#293=EDGE_CURVE('',#392,#381,#467,.T.);
#294=EDGE_CURVE('',#392,#391,#468,.T.);
#295=EDGE_CURVE('',#393,#380,#469,.T.);
#296=EDGE_CURVE('',#393,#392,#28,.T.);
#297=EDGE_CURVE('',#390,#393,#470,.T.);
#298=EDGE_CURVE('',#394,#395,#471,.T.);
#299=EDGE_CURVE('',#396,#395,#472,.T.);
#300=EDGE_CURVE('',#397,#396,#473,.T.);
#301=EDGE_CURVE('',#397,#394,#474,.T.);
#302=EDGE_CURVE('',#398,#396,#29,.T.);
#303=EDGE_CURVE('',#399,#398,#475,.T.);
#304=EDGE_CURVE('',#399,#397,#30,.T.);
#305=EDGE_CURVE('',#398,#400,#476,.T.);
#306=EDGE_CURVE('',#401,#400,#477,.T.);
#307=EDGE_CURVE('',#399,#401,#478,.T.);
#308=EDGE_CURVE('',#400,#395,#31,.T.);
#309=EDGE_CURVE('',#401,#394,#32,.T.);
#310=EDGE_CURVE('',#402,#403,#479,.T.);
#311=EDGE_CURVE('',#404,#403,#480,.T.);
#312=EDGE_CURVE('',#405,#404,#481,.T.);
#313=EDGE_CURVE('',#405,#402,#482,.T.);
#314=EDGE_CURVE('',#406,#404,#33,.T.);
#315=EDGE_CURVE('',#407,#406,#483,.T.);
#316=EDGE_CURVE('',#407,#405,#34,.T.);
#317=EDGE_CURVE('',#406,#408,#484,.T.);
#318=EDGE_CURVE('',#409,#408,#485,.T.);
#319=EDGE_CURVE('',#407,#409,#486,.T.);
#320=EDGE_CURVE('',#408,#403,#35,.T.);
#321=EDGE_CURVE('',#409,#402,#36,.T.);
#322=EDGE_CURVE('',#410,#411,#487,.T.);
#323=EDGE_CURVE('',#412,#411,#37,.T.);
#324=EDGE_CURVE('',#413,#412,#488,.T.);
#325=EDGE_CURVE('',#413,#410,#38,.T.);
#326=EDGE_CURVE('',#412,#414,#489,.T.);
#327=EDGE_CURVE('',#415,#414,#490,.T.);
#328=EDGE_CURVE('',#413,#415,#491,.T.);
#329=EDGE_CURVE('',#414,#416,#39,.T.);
#330=EDGE_CURVE('',#417,#416,#492,.T.);
#331=EDGE_CURVE('',#415,#417,#40,.T.);
#332=EDGE_CURVE('',#416,#411,#493,.T.);
#333=EDGE_CURVE('',#417,#410,#494,.T.);
#334=EDGE_CURVE('',#418,#419,#495,.T.);
#335=EDGE_CURVE('',#419,#420,#496,.T.);
#336=EDGE_CURVE('',#421,#420,#497,.T.);
#337=EDGE_CURVE('',#418,#421,#498,.T.);
#338=EDGE_CURVE('',#422,#420,#499,.T.);
#339=EDGE_CURVE('',#423,#422,#500,.T.);
#340=EDGE_CURVE('',#423,#421,#501,.T.);
#341=EDGE_CURVE('',#424,#422,#502,.T.);
#342=EDGE_CURVE('',#425,#424,#503,.T.);
#343=EDGE_CURVE('',#425,#423,#504,.T.);
#344=EDGE_CURVE('',#424,#419,#505,.T.);
#345=EDGE_CURVE('',#425,#418,#506,.T.);
#346=EDGE_CURVE('',#426,#427,#507,.T.);
#347=EDGE_CURVE('',#427,#428,#508,.T.);
#348=EDGE_CURVE('',#429,#428,#509,.T.);
#349=EDGE_CURVE('',#426,#429,#510,.T.);
#350=EDGE_CURVE('',#427,#430,#511,.T.);
#351=EDGE_CURVE('',#430,#431,#512,.T.);
#352=EDGE_CURVE('',#428,#431,#513,.T.);
#353=EDGE_CURVE('',#432,#431,#514,.T.);
#354=EDGE_CURVE('',#429,#432,#515,.T.);
#355=EDGE_CURVE('',#433,#432,#516,.T.);
#356=EDGE_CURVE('',#426,#433,#517,.T.);
#357=EDGE_CURVE('',#433,#430,#518,.T.);
#358=EDGE_CURVE('',#374,#434,#519,.T.);
#359=EDGE_CURVE('',#375,#435,#520,.T.);
#360=EDGE_CURVE('',#434,#435,#521,.T.);
#361=EDGE_CURVE('',#377,#436,#522,.T.);
#362=EDGE_CURVE('',#435,#436,#41,.T.);
#363=EDGE_CURVE('',#376,#437,#523,.T.);
#364=EDGE_CURVE('',#436,#437,#524,.T.);
#365=EDGE_CURVE('',#434,#437,#525,.T.);
#366=VERTEX_POINT('',#1078);
#367=VERTEX_POINT('',#1079);
#368=VERTEX_POINT('',#1081);
#369=VERTEX_POINT('',#1083);
#370=VERTEX_POINT('',#1087);
#371=VERTEX_POINT('',#1089);
#372=VERTEX_POINT('',#1093);
#373=VERTEX_POINT('',#1095);
#374=VERTEX_POINT('',#1102);
#375=VERTEX_POINT('',#1103);
#376=VERTEX_POINT('',#1105);
#377=VERTEX_POINT('',#1107);
#378=VERTEX_POINT('',#1111);
#379=VERTEX_POINT('',#1112);
#380=VERTEX_POINT('',#1114);
#381=VERTEX_POINT('',#1116);
#382=VERTEX_POINT('',#1120);
#383=VERTEX_POINT('',#1121);
#384=VERTEX_POINT('',#1123);
#385=VERTEX_POINT('',#1125);
#386=VERTEX_POINT('',#1129);
#387=VERTEX_POINT('',#1131);
#388=VERTEX_POINT('',#1135);
#389=VERTEX_POINT('',#1137);
#390=VERTEX_POINT('',#1144);
#391=VERTEX_POINT('',#1146);
#392=VERTEX_POINT('',#1150);
#393=VERTEX_POINT('',#1154);
#394=VERTEX_POINT('',#1160);
#395=VERTEX_POINT('',#1161);
#396=VERTEX_POINT('',#1163);
#397=VERTEX_POINT('',#1165);
#398=VERTEX_POINT('',#1169);
#399=VERTEX_POINT('',#1171);
#400=VERTEX_POINT('',#1175);
#401=VERTEX_POINT('',#1177);
#402=VERTEX_POINT('',#1184);
#403=VERTEX_POINT('',#1185);
#404=VERTEX_POINT('',#1187);
#405=VERTEX_POINT('',#1189);
#406=VERTEX_POINT('',#1193);
#407=VERTEX_POINT('',#1195);
#408=VERTEX_POINT('',#1199);
#409=VERTEX_POINT('',#1201);
#410=VERTEX_POINT('',#1208);
#411=VERTEX_POINT('',#1209);
#412=VERTEX_POINT('',#1211);
#413=VERTEX_POINT('',#1213);
#414=VERTEX_POINT('',#1217);
#415=VERTEX_POINT('',#1219);
#416=VERTEX_POINT('',#1223);
#417=VERTEX_POINT('',#1225);
#418=VERTEX_POINT('',#1232);
#419=VERTEX_POINT('',#1233);
#420=VERTEX_POINT('',#1235);
#421=VERTEX_POINT('',#1237);
#422=VERTEX_POINT('',#1241);
#423=VERTEX_POINT('',#1243);
#424=VERTEX_POINT('',#1247);
#425=VERTEX_POINT('',#1249);
#426=VERTEX_POINT('',#1256);
#427=VERTEX_POINT('',#1257);
#428=VERTEX_POINT('',#1259);
#429=VERTEX_POINT('',#1261);
#430=VERTEX_POINT('',#1265);
#431=VERTEX_POINT('',#1267);
#432=VERTEX_POINT('',#1271);
#433=VERTEX_POINT('',#1275);
#434=VERTEX_POINT('',#1281);
#435=VERTEX_POINT('',#1283);
#436=VERTEX_POINT('',#1287);
#437=VERTEX_POINT('',#1291);
#438=LINE('',#1077,#526);
#439=LINE('',#1080,#527);
#440=LINE('',#1082,#528);
#441=LINE('',#1084,#529);
#442=LINE('',#1086,#530);
#443=LINE('',#1088,#531);
#444=LINE('',#1090,#532);
#445=LINE('',#1092,#533);
#446=LINE('',#1094,#534);
#447=LINE('',#1096,#535);
#448=LINE('',#1098,#536);
#449=LINE('',#1099,#537);
#450=LINE('',#1101,#538);
#451=LINE('',#1104,#539);
#452=LINE('',#1106,#540);
#453=LINE('',#1110,#541);
#454=LINE('',#1113,#542);
#455=LINE('',#1117,#543);
#456=LINE('',#1119,#544);
#457=LINE('',#1124,#545);
#458=LINE('',#1128,#546);
#459=LINE('',#1130,#547);
#460=LINE('',#1132,#548);
#461=LINE('',#1136,#549);
#462=LINE('',#1140,#550);
#463=LINE('',#1141,#551);
#464=LINE('',#1143,#552);
#465=LINE('',#1145,#553);
#466=LINE('',#1147,#554);
#467=LINE('',#1149,#555);
#468=LINE('',#1151,#556);
#469=LINE('',#1153,#557);
#470=LINE('',#1157,#558);
#471=LINE('',#1159,#559);
#472=LINE('',#1162,#560);
#473=LINE('',#1164,#561);
#474=LINE('',#1166,#562);
#475=LINE('',#1170,#563);
#476=LINE('',#1174,#564);
#477=LINE('',#1176,#565);
#478=LINE('',#1178,#566);
#479=LINE('',#1183,#567);
#480=LINE('',#1186,#568);
#481=LINE('',#1188,#569);
#482=LINE('',#1190,#570);
#483=LINE('',#1194,#571);
#484=LINE('',#1198,#572);
#485=LINE('',#1200,#573);
#486=LINE('',#1202,#574);
#487=LINE('',#1207,#575);
#488=LINE('',#1212,#576);
#489=LINE('',#1216,#577);
#490=LINE('',#1218,#578);
#491=LINE('',#1220,#579);
#492=LINE('',#1224,#580);
#493=LINE('',#1228,#581);
#494=LINE('',#1229,#582);
#495=LINE('',#1231,#583);
#496=LINE('',#1234,#584);
#497=LINE('',#1236,#585);
#498=LINE('',#1238,#586);
#499=LINE('',#1240,#587);
#500=LINE('',#1242,#588);
#501=LINE('',#1244,#589);
#502=LINE('',#1246,#590);
#503=LINE('',#1248,#591);
#504=LINE('',#1250,#592);
#505=LINE('',#1252,#593);
#506=LINE('',#1253,#594);
#507=LINE('',#1255,#595);
#508=LINE('',#1258,#596);
#509=LINE('',#1260,#597);
#510=LINE('',#1262,#598);
#511=LINE('',#1264,#599);
#512=LINE('',#1266,#600);
#513=LINE('',#1268,#601);
#514=LINE('',#1270,#602);
#515=LINE('',#1272,#603);
#516=LINE('',#1274,#604);
#517=LINE('',#1276,#605);
#518=LINE('',#1278,#606);
#519=LINE('',#1280,#607);
#520=LINE('',#1282,#608);
#521=LINE('',#1284,#609);
#522=LINE('',#1286,#610);
#523=LINE('',#1290,#611);
#524=LINE('',#1292,#612);
#525=LINE('',#1294,#613);
#526=VECTOR('',#869,1.);
#527=VECTOR('',#870,1.);
#528=VECTOR('',#871,1.);
#529=VECTOR('',#872,1.);
#530=VECTOR('',#875,1.);
#531=VECTOR('',#876,1.);
#532=VECTOR('',#877,1.);
#533=VECTOR('',#880,1.);
#534=VECTOR('',#881,1.);
#535=VECTOR('',#882,1.);
#536=VECTOR('',#885,1.);
#537=VECTOR('',#886,1.);
#538=VECTOR('',#889,1.);
#539=VECTOR('',#890,1.);
#540=VECTOR('',#891,1.);
#541=VECTOR('',#896,1.);
#542=VECTOR('',#897,1.);
#543=VECTOR('',#900,1.);
#544=VECTOR('',#903,1.);
#545=VECTOR('',#906,1.);
#546=VECTOR('',#911,1.);
#547=VECTOR('',#912,1.);
#548=VECTOR('',#913,1.);
#549=VECTOR('',#918,1.);
#550=VECTOR('',#923,1.);
#551=VECTOR('',#924,1.);
#552=VECTOR('',#927,1.);
#553=VECTOR('',#928,1.);
#554=VECTOR('',#929,1.);
#555=VECTOR('',#932,1.);
#556=VECTOR('',#933,1.);
#557=VECTOR('',#936,1.);
#558=VECTOR('',#941,1.);
#559=VECTOR('',#944,1.);
#560=VECTOR('',#945,1.);
#561=VECTOR('',#946,1.);
#562=VECTOR('',#947,1.);
#563=VECTOR('',#952,1.);
#564=VECTOR('',#957,1.);
#565=VECTOR('',#958,1.);
#566=VECTOR('',#959,1.);
#567=VECTOR('',#968,1.);
#568=VECTOR('',#969,1.);
#569=VECTOR('',#970,1.);
#570=VECTOR('',#971,1.);
#571=VECTOR('',#976,1.);
#572=VECTOR('',#981,1.);
#573=VECTOR('',#982,1.);
#574=VECTOR('',#983,1.);
#575=VECTOR('',#992,1.);
#576=VECTOR('',#995,1.);
#577=VECTOR('',#1000,1.);
#578=VECTOR('',#1001,1.);
#579=VECTOR('',#1002,1.);
#580=VECTOR('',#1007,1.);
#581=VECTOR('',#1012,1.);
#582=VECTOR('',#1013,1.);
#583=VECTOR('',#1016,1.);
#584=VECTOR('',#1017,1.);
#585=VECTOR('',#1018,1.);
#586=VECTOR('',#1019,1.);
#587=VECTOR('',#1022,1.);
#588=VECTOR('',#1023,1.);
#589=VECTOR('',#1024,1.);
#590=VECTOR('',#1027,1.);
#591=VECTOR('',#1028,1.);
#592=VECTOR('',#1029,1.);
#593=VECTOR('',#1032,1.);
#594=VECTOR('',#1033,1.);
#595=VECTOR('',#1036,1.);
#596=VECTOR('',#1037,1.);
#597=VECTOR('',#1038,1.);
#598=VECTOR('',#1039,1.);
#599=VECTOR('',#1042,1.);
#600=VECTOR('',#1043,1.);
#601=VECTOR('',#1044,1.);
#602=VECTOR('',#1047,1.);
#603=VECTOR('',#1048,1.);
#604=VECTOR('',#1051,1.);
#605=VECTOR('',#1052,1.);
#606=VECTOR('',#1055,1.);
#607=VECTOR('',#1058,1.);
#608=VECTOR('',#1059,1.);
#609=VECTOR('',#1060,1.);
#610=VECTOR('',#1063,1.);
#611=VECTOR('',#1068,1.);
#612=VECTOR('',#1069,1.);
#613=VECTOR('',#1072,1.);
#614=EDGE_LOOP('',(#42,#43,#44,#45));
#615=EDGE_LOOP('',(#46,#47,#48,#49));
#616=EDGE_LOOP('',(#50,#51,#52,#53));
#617=EDGE_LOOP('',(#54,#55,#56,#57));
#618=EDGE_LOOP('',(#58,#59,#60,#61));
#619=EDGE_LOOP('',(#62,#63,#64,#65));
#620=EDGE_LOOP('',(#66,#67,#68,#69));
#621=EDGE_LOOP('',(#70,#71,#72,#73));
#622=EDGE_LOOP('',(#74,#75,#76,#77));
#623=EDGE_LOOP('',(#78,#79,#80,#81));
#624=EDGE_LOOP('',(#82,#83,#84,#85));
#625=EDGE_LOOP('',(#86,#87,#88,#89));
#626=EDGE_LOOP('',(#90,#91,#92,#93));
#627=EDGE_LOOP('',(#94,#95,#96,#97));
#628=EDGE_LOOP('',(#98,#99,#100,#101));
#629=EDGE_LOOP('',(#102,#103,#104,#105));
#630=EDGE_LOOP('',(#106,#107,#108,#109));
#631=EDGE_LOOP('',(#110,#111,#112,#113));
#632=EDGE_LOOP('',(#114,#115,#116,#117));
#633=EDGE_LOOP('',(#118,#119,#120,#121));
#634=EDGE_LOOP('',(#122,#123,#124,#125));
#635=EDGE_LOOP('',(#126,#127,#128,#129));
#636=EDGE_LOOP('',(#130,#131,#132,#133));
#637=EDGE_LOOP('',(#134,#135,#136,#137));
#638=EDGE_LOOP('',(#138,#139,#140,#141));
#639=EDGE_LOOP('',(#142,#143,#144,#145));
#640=EDGE_LOOP('',(#146,#147,#148,#149));
#641=EDGE_LOOP('',(#150,#151,#152,#153));
#642=EDGE_LOOP('',(#154,#155,#156,#157));
#643=EDGE_LOOP('',(#158,#159,#160,#161));
#644=EDGE_LOOP('',(#162,#163,#164,#165));
#645=EDGE_LOOP('',(#166,#167,#168,#169));
#646=EDGE_LOOP('',(#170,#171,#172,#173));
#647=EDGE_LOOP('',(#174,#175,#176,#177));
#648=EDGE_LOOP('',(#178,#179,#180,#181));
#649=EDGE_LOOP('',(#182,#183,#184,#185));
#650=EDGE_LOOP('',(#186,#187,#188,#189));
#651=EDGE_LOOP('',(#190,#191,#192,#193));
#652=EDGE_LOOP('',(#194,#195,#196,#197));
#653=EDGE_LOOP('',(#198,#199,#200,#201));
#654=EDGE_LOOP('',(#202,#203,#204,#205));
#655=EDGE_LOOP('',(#206,#207,#208,#209));
#656=EDGE_LOOP('',(#210,#211,#212,#213));
#657=EDGE_LOOP('',(#214,#215,#216,#217));
#658=EDGE_LOOP('',(#218,#219,#220,#221));
#659=EDGE_LOOP('',(#222,#223,#224,#225));
#660=EDGE_LOOP('',(#226,#227,#228,#229));
#661=EDGE_LOOP('',(#230,#231,#232,#233));
#662=EDGE_LOOP('',(#234,#235,#236,#237));
#663=EDGE_LOOP('',(#238,#239,#240,#241));
#664=EDGE_LOOP('',(#242,#243,#244,#245));
#665=EDGE_LOOP('',(#246,#247,#248,#249));
#666=EDGE_LOOP('',(#250,#251,#252,#253));
#667=EDGE_LOOP('',(#254,#255,#256,#257));
#668=FACE_BOUND('',#614,.T.);
#669=FACE_BOUND('',#615,.T.);
#670=FACE_BOUND('',#616,.T.);
#671=FACE_BOUND('',#617,.T.);
#672=FACE_BOUND('',#618,.T.);
#673=FACE_BOUND('',#619,.T.);
#674=FACE_BOUND('',#620,.T.);
#675=FACE_BOUND('',#621,.T.);
#676=FACE_BOUND('',#622,.T.);
#677=FACE_BOUND('',#623,.T.);
#678=FACE_BOUND('',#624,.T.);
#679=FACE_BOUND('',#625,.T.);
#680=FACE_BOUND('',#626,.T.);
#681=FACE_BOUND('',#627,.T.);
#682=FACE_BOUND('',#628,.T.);
#683=FACE_BOUND('',#629,.T.);
#684=FACE_BOUND('',#630,.T.);
#685=FACE_BOUND('',#631,.T.);
#686=FACE_BOUND('',#632,.T.);
#687=FACE_BOUND('',#633,.T.);
#688=FACE_BOUND('',#634,.T.);
#689=FACE_BOUND('',#635,.T.);
#690=FACE_BOUND('',#636,.T.);
#691=FACE_BOUND('',#637,.T.);
#692=FACE_BOUND('',#638,.T.);
#693=FACE_BOUND('',#639,.T.);
#694=FACE_BOUND('',#640,.T.);
#695=FACE_BOUND('',#641,.T.);
#696=FACE_BOUND('',#642,.T.);
#697=FACE_BOUND('',#643,.T.);
#698=FACE_BOUND('',#644,.T.);
#699=FACE_BOUND('',#645,.T.);
#700=FACE_BOUND('',#646,.T.);
#701=FACE_BOUND('',#647,.T.);
#702=FACE_BOUND('',#648,.T.);
#703=FACE_BOUND('',#649,.T.);
#704=FACE_BOUND('',#650,.T.);
#705=FACE_BOUND('',#651,.T.);
#706=FACE_BOUND('',#652,.T.);
#707=FACE_BOUND('',#653,.T.);
#708=FACE_BOUND('',#654,.T.);
#709=FACE_BOUND('',#655,.T.);
#710=FACE_BOUND('',#656,.T.);
#711=FACE_BOUND('',#657,.T.);
#712=FACE_BOUND('',#658,.T.);
#713=FACE_BOUND('',#659,.T.);
#714=FACE_BOUND('',#660,.T.);
#715=FACE_BOUND('',#661,.T.);
#716=FACE_BOUND('',#662,.T.);
#717=FACE_BOUND('',#663,.T.);
#718=FACE_BOUND('',#664,.T.);
#719=FACE_BOUND('',#665,.T.);
#720=FACE_BOUND('',#666,.T.);
#721=FACE_BOUND('',#667,.T.);
#722=PLANE('',#805);
#723=PLANE('',#806);
#724=PLANE('',#807);
#725=PLANE('',#808);
#726=PLANE('',#809);
#727=PLANE('',#811);
#728=PLANE('',#816);
#729=PLANE('',#820);
#730=PLANE('',#821);
#731=PLANE('',#822);
#732=PLANE('',#825);
#733=PLANE('',#826);
#734=PLANE('',#830);
#735=PLANE('',#834);
#736=PLANE('',#838);
#737=PLANE('',#845);
#738=PLANE('',#849);
#739=PLANE('',#850);
#740=PLANE('',#851);
#741=PLANE('',#852);
#742=PLANE('',#853);
#743=PLANE('',#854);
#744=PLANE('',#855);
#745=PLANE('',#856);
#746=PLANE('',#857);
#747=PLANE('',#858);
#748=PLANE('',#859);
#749=PLANE('',#862);
#750=PLANE('',#863);
#751=PLANE('',#864);
#752=ADVANCED_FACE('',(#668),#722,.T.);
#753=ADVANCED_FACE('',(#669),#723,.F.);
#754=ADVANCED_FACE('',(#670),#724,.F.);
#755=ADVANCED_FACE('',(#671),#725,.T.);
#756=ADVANCED_FACE('',(#672,#673),#726,.T.);
#757=ADVANCED_FACE('',(#674,#675),#727,.F.);
#758=ADVANCED_FACE('',(#676),#12,.T.);
#759=ADVANCED_FACE('',(#677),#728,.F.);
#760=ADVANCED_FACE('',(#678),#13,.F.);
#761=ADVANCED_FACE('',(#679),#729,.T.);
#762=ADVANCED_FACE('',(#680),#730,.F.);
#763=ADVANCED_FACE('',(#681),#731,.T.);
#764=ADVANCED_FACE('',(#682),#14,.T.);
#765=ADVANCED_FACE('',(#683),#732,.T.);
#766=ADVANCED_FACE('',(#684),#733,.T.);
#767=ADVANCED_FACE('',(#685),#15,.T.);
#768=ADVANCED_FACE('',(#686),#734,.F.);
#769=ADVANCED_FACE('',(#687),#16,.F.);
#770=ADVANCED_FACE('',(#688),#735,.T.);
#771=ADVANCED_FACE('',(#689),#17,.T.);
#772=ADVANCED_FACE('',(#690),#736,.F.);
#773=ADVANCED_FACE('',(#691),#18,.F.);
#774=ADVANCED_FACE('',(#692),#19,.T.);
#775=ADVANCED_FACE('',(#693),#737,.F.);
#776=ADVANCED_FACE('',(#694),#20,.F.);
#777=ADVANCED_FACE('',(#695),#738,.F.);
#778=ADVANCED_FACE('',(#696),#739,.F.);
#779=ADVANCED_FACE('',(#697),#740,.T.);
#780=ADVANCED_FACE('',(#698),#741,.T.);
#781=ADVANCED_FACE('',(#699),#742,.F.);
#782=ADVANCED_FACE('',(#700,#701,#702,#703,#704,#705,#706),#743,.F.);
#783=ADVANCED_FACE('',(#707),#744,.F.);
#784=ADVANCED_FACE('',(#708),#745,.T.);
#785=ADVANCED_FACE('',(#709),#746,.T.);
#786=ADVANCED_FACE('',(#710),#747,.F.);
#787=ADVANCED_FACE('',(#711),#748,.T.);
#788=ADVANCED_FACE('',(#712),#21,.T.);
#789=ADVANCED_FACE('',(#713),#749,.T.);
#790=ADVANCED_FACE('',(#714),#750,.F.);
#791=ADVANCED_FACE('',(#715,#716,#717,#718,#719,#720,#721),#751,.T.);
#792=CLOSED_SHELL('',(#752,#753,#754,#755,#756,#757,#758,#759,#760,#761,
#762,#763,#764,#765,#766,#767,#768,#769,#770,#771,#772,#773,#774,#775,#776,
#777,#778,#779,#780,#781,#782,#783,#784,#785,#786,#787,#788,#789,#790,#791));
#793=STYLED_ITEM('',(#794),#801);
#794=PRESENTATION_STYLE_ASSIGNMENT((#795));
#795=SURFACE_STYLE_USAGE(.BOTH.,#796);
#796=SURFACE_SIDE_STYLE('',(#797));
#797=SURFACE_STYLE_FILL_AREA(#798);
#798=FILL_AREA_STYLE('',(#799));
#799=FILL_AREA_STYLE_COLOUR('',#800);
#800=COLOUR_RGB('',0.615686274509804,0.811764705882353,0.929411764705882);
#801=MANIFOLD_SOLID_BREP('Part 1',#792);
#802=SHAPE_DEFINITION_REPRESENTATION(#1302,#803);
#803=SHAPE_REPRESENTATION('Part 1',(#804),#1297);
#804=AXIS2_PLACEMENT_3D('',#1075,#865,#866);
#805=AXIS2_PLACEMENT_3D('',#1076,#867,#868);
#806=AXIS2_PLACEMENT_3D('',#1085,#873,#874);
#807=AXIS2_PLACEMENT_3D('',#1091,#878,#879);
#808=AXIS2_PLACEMENT_3D('',#1097,#883,#884);
#809=AXIS2_PLACEMENT_3D('',#1100,#887,#888);
#810=AXIS2_PLACEMENT_3D('',#1108,#892,#893);
#811=AXIS2_PLACEMENT_3D('',#1109,#894,#895);
#812=AXIS2_PLACEMENT_3D('',#1115,#898,#899);
#813=AXIS2_PLACEMENT_3D('',#1118,#901,#902);
#814=AXIS2_PLACEMENT_3D('',#1122,#904,#905);
#815=AXIS2_PLACEMENT_3D('',#1126,#907,#908);
#816=AXIS2_PLACEMENT_3D('',#1127,#909,#910);
#817=AXIS2_PLACEMENT_3D('',#1133,#914,#915);
#818=AXIS2_PLACEMENT_3D('',#1134,#916,#917);
#819=AXIS2_PLACEMENT_3D('',#1138,#919,#920);
#820=AXIS2_PLACEMENT_3D('',#1139,#921,#922);
#821=AXIS2_PLACEMENT_3D('',#1142,#925,#926);
#822=AXIS2_PLACEMENT_3D('',#1148,#930,#931);
#823=AXIS2_PLACEMENT_3D('',#1152,#934,#935);
#824=AXIS2_PLACEMENT_3D('',#1155,#937,#938);
#825=AXIS2_PLACEMENT_3D('',#1156,#939,#940);
#826=AXIS2_PLACEMENT_3D('',#1158,#942,#943);
#827=AXIS2_PLACEMENT_3D('',#1167,#948,#949);
#828=AXIS2_PLACEMENT_3D('',#1168,#950,#951);
#829=AXIS2_PLACEMENT_3D('',#1172,#953,#954);
#830=AXIS2_PLACEMENT_3D('',#1173,#955,#956);
#831=AXIS2_PLACEMENT_3D('',#1179,#960,#961);
#832=AXIS2_PLACEMENT_3D('',#1180,#962,#963);
#833=AXIS2_PLACEMENT_3D('',#1181,#964,#965);
#834=AXIS2_PLACEMENT_3D('',#1182,#966,#967);
#835=AXIS2_PLACEMENT_3D('',#1191,#972,#973);
#836=AXIS2_PLACEMENT_3D('',#1192,#974,#975);
#837=AXIS2_PLACEMENT_3D('',#1196,#977,#978);
#838=AXIS2_PLACEMENT_3D('',#1197,#979,#980);
#839=AXIS2_PLACEMENT_3D('',#1203,#984,#985);
#840=AXIS2_PLACEMENT_3D('',#1204,#986,#987);
#841=AXIS2_PLACEMENT_3D('',#1205,#988,#989);
#842=AXIS2_PLACEMENT_3D('',#1206,#990,#991);
#843=AXIS2_PLACEMENT_3D('',#1210,#993,#994);
#844=AXIS2_PLACEMENT_3D('',#1214,#996,#997);
#845=AXIS2_PLACEMENT_3D('',#1215,#998,#999);
#846=AXIS2_PLACEMENT_3D('',#1221,#1003,#1004);
#847=AXIS2_PLACEMENT_3D('',#1222,#1005,#1006);
#848=AXIS2_PLACEMENT_3D('',#1226,#1008,#1009);
#849=AXIS2_PLACEMENT_3D('',#1227,#1010,#1011);
#850=AXIS2_PLACEMENT_3D('',#1230,#1014,#1015);
#851=AXIS2_PLACEMENT_3D('',#1239,#1020,#1021);
#852=AXIS2_PLACEMENT_3D('',#1245,#1025,#1026);
#853=AXIS2_PLACEMENT_3D('',#1251,#1030,#1031);
#854=AXIS2_PLACEMENT_3D('',#1254,#1034,#1035);
#855=AXIS2_PLACEMENT_3D('',#1263,#1040,#1041);
#856=AXIS2_PLACEMENT_3D('',#1269,#1045,#1046);
#857=AXIS2_PLACEMENT_3D('',#1273,#1049,#1050);
#858=AXIS2_PLACEMENT_3D('',#1277,#1053,#1054);
#859=AXIS2_PLACEMENT_3D('',#1279,#1056,#1057);
#860=AXIS2_PLACEMENT_3D('',#1285,#1061,#1062);
#861=AXIS2_PLACEMENT_3D('',#1288,#1064,#1065);
#862=AXIS2_PLACEMENT_3D('',#1289,#1066,#1067);
#863=AXIS2_PLACEMENT_3D('',#1293,#1070,#1071);
#864=AXIS2_PLACEMENT_3D('',#1295,#1073,#1074);
#865=DIRECTION('',(0.,0.,1.));
#866=DIRECTION('',(1.,0.,0.));
#867=DIRECTION('',(0.,1.,0.));
#868=DIRECTION('',(0.,0.,1.));
#869=DIRECTION('',(1.,0.,0.));
#870=DIRECTION('',(0.,0.,-1.));
#871=DIRECTION('',(1.,0.,0.));
#872=DIRECTION('',(0.,0.,-1.));
#873=DIRECTION('',(1.,0.,0.));
#874=DIRECTION('',(0.,0.,-1.));
#875=DIRECTION('',(0.,-1.,0.));
#876=DIRECTION('',(0.,0.,-1.));
#877=DIRECTION('',(0.,-1.,0.));
#878=DIRECTION('',(0.,1.,0.));
#879=DIRECTION('',(0.,0.,1.));
#880=DIRECTION('',(1.,0.,0.));
#881=DIRECTION('',(0.,0.,-1.));
#882=DIRECTION('',(1.,0.,0.));
#883=DIRECTION('',(1.,0.,0.));
#884=DIRECTION('',(0.,0.,-1.));
#885=DIRECTION('',(0.,-1.,0.));
#886=DIRECTION('',(0.,-1.,0.));
#887=DIRECTION('',(0.,0.,1.));
#888=DIRECTION('',(1.,0.,0.));
#889=DIRECTION('',(0.,1.,0.));
#890=DIRECTION('',(-1.,-1.24174908802921E-16,0.));
#891=DIRECTION('',(-1.30087999698298E-16,-1.,0.));
#892=DIRECTION('',(0.,0.,1.));
#893=DIRECTION('',(1.,0.,0.));
#894=DIRECTION('',(0.,0.,1.));
#895=DIRECTION('',(1.,0.,0.));
#896=DIRECTION('',(-1.,-1.24174908802921E-16,0.));
#897=DIRECTION('',(0.,1.,0.));
#898=DIRECTION('',(0.,0.,1.));
#899=DIRECTION('',(1.,0.,0.));
#900=DIRECTION('',(-1.30087999698298E-16,-1.,0.));
#901=DIRECTION('',(0.,0.,1.));
#902=DIRECTION('',(1.,0.,0.));
#903=DIRECTION('',(0.,0.,1.));
#904=DIRECTION('',(0.,0.,1.));
#905=DIRECTION('',(1.,0.,0.));
#906=DIRECTION('',(0.,0.,1.));
#907=DIRECTION('',(0.,0.,1.));
#908=DIRECTION('',(1.,0.,0.));
#909=DIRECTION('',(0.,-1.,0.));
#910=DIRECTION('',(0.,0.,-1.));
#911=DIRECTION('',(1.,0.,0.));
#912=DIRECTION('',(0.,0.,1.));
#913=DIRECTION('',(1.,0.,0.));
#914=DIRECTION('',(0.,0.,1.));
#915=DIRECTION('',(1.,0.,0.));
#916=DIRECTION('',(0.,0.,1.));
#917=DIRECTION('',(1.,0.,0.));
#918=DIRECTION('',(0.,0.,1.));
#919=DIRECTION('',(0.,0.,1.));
#920=DIRECTION('',(1.,0.,0.));
#921=DIRECTION('',(0.510485338822723,-0.859886456950596,0.));
#922=DIRECTION('',(0.859886456950596,0.510485338822723,0.));
#923=DIRECTION('',(0.859886456950596,0.510485338822723,0.));
#924=DIRECTION('',(0.859886456950596,0.510485338822723,0.));
#925=DIRECTION('',(-1.24174908802921E-16,1.,0.));
#926=DIRECTION('',(-1.,-1.24174908802921E-16,0.));
#927=DIRECTION('',(0.,0.,1.));
#928=DIRECTION('',(0.,0.,1.));
#929=DIRECTION('',(-1.,-1.24174908802921E-16,0.));
#930=DIRECTION('',(-1.,1.30087999698298E-16,0.));
#931=DIRECTION('',(-1.30087999698298E-16,-1.,0.));
#932=DIRECTION('',(0.,0.,1.));
#933=DIRECTION('',(-1.30087999698298E-16,-1.,0.));
#934=DIRECTION('',(0.,0.,1.));
#935=DIRECTION('',(1.,0.,0.));
#936=DIRECTION('',(0.,0.,1.));
#937=DIRECTION('',(0.,0.,1.));
#938=DIRECTION('',(1.,0.,0.));
#939=DIRECTION('',(1.,0.,0.));
#940=DIRECTION('',(0.,0.,-1.));
#941=DIRECTION('',(0.,1.,0.));
#942=DIRECTION('',(1.,0.,0.));
#943=DIRECTION('',(0.,0.,-1.));
#944=DIRECTION('',(0.,0.,1.));
#945=DIRECTION('',(0.,1.,0.));
#946=DIRECTION('',(0.,0.,1.));
#947=DIRECTION('',(0.,1.,0.));
#948=DIRECTION('',(0.,0.,1.));
#949=DIRECTION('',(1.,0.,0.));
#950=DIRECTION('',(0.,0.,1.));
#951=DIRECTION('',(1.,0.,0.));
#952=DIRECTION('',(0.,0.,1.));
#953=DIRECTION('',(0.,0.,1.));
#954=DIRECTION('',(1.,0.,0.));
#955=DIRECTION('',(0.5,-0.866025403784439,0.));
#956=DIRECTION('',(0.866025403784439,0.5,0.));
#957=DIRECTION('',(0.866025403784439,0.5,0.));
#958=DIRECTION('',(0.,0.,1.));
#959=DIRECTION('',(0.866025403784439,0.5,0.));
#960=DIRECTION('',(0.,0.,1.));
#961=DIRECTION('',(1.,0.,0.));
#962=DIRECTION('',(0.,0.,1.));
#963=DIRECTION('',(1.,0.,0.));
#964=DIRECTION('',(0.,0.,1.));
#965=DIRECTION('',(1.,0.,0.));
#966=DIRECTION('',(0.5,0.866025403784438,0.));
#967=DIRECTION('',(-0.866025403784438,0.5,0.));
#968=DIRECTION('',(0.,0.,1.));
#969=DIRECTION('',(-0.866025403784438,0.5,0.));
#970=DIRECTION('',(0.,0.,1.));
#971=DIRECTION('',(-0.866025403784438,0.5,0.));
#972=DIRECTION('',(0.,0.,1.));
#973=DIRECTION('',(1.,0.,0.));
#974=DIRECTION('',(0.,0.,1.));
#975=DIRECTION('',(1.,0.,0.));
#976=DIRECTION('',(0.,0.,1.));
#977=DIRECTION('',(0.,0.,1.));
#978=DIRECTION('',(1.,0.,0.));
#979=DIRECTION('',(1.,0.,0.));
#980=DIRECTION('',(0.,0.,-1.));
#981=DIRECTION('',(0.,1.,0.));
#982=DIRECTION('',(0.,0.,1.));
#983=DIRECTION('',(0.,1.,0.));
#984=DIRECTION('',(0.,0.,1.));
#985=DIRECTION('',(1.,0.,0.));
#986=DIRECTION('',(0.,0.,1.));
#987=DIRECTION('',(1.,0.,0.));
#988=DIRECTION('',(0.,0.,1.));
#989=DIRECTION('',(1.,0.,0.));
#990=DIRECTION('',(0.,0.,1.));
#991=DIRECTION('',(1.,0.,0.));
#992=DIRECTION('',(0.,0.,1.));
#993=DIRECTION('',(0.,0.,1.));
#994=DIRECTION('',(1.,0.,0.));
#995=DIRECTION('',(0.,0.,1.));
#996=DIRECTION('',(0.,0.,1.));
#997=DIRECTION('',(1.,0.,0.));
#998=DIRECTION('',(0.51048533882272,0.859886456950598,0.));
#999=DIRECTION('',(-0.859886456950598,0.51048533882272,0.));
#1000=DIRECTION('',(-0.859886456950598,0.51048533882272,0.));
#1001=DIRECTION('',(0.,0.,1.));
#1002=DIRECTION('',(-0.859886456950598,0.51048533882272,0.));
#1003=DIRECTION('',(0.,0.,1.));
#1004=DIRECTION('',(1.,0.,0.));
#1005=DIRECTION('',(0.,0.,1.));
#1006=DIRECTION('',(1.,0.,0.));
#1007=DIRECTION('',(0.,0.,1.));
#1008=DIRECTION('',(0.,0.,1.));
#1009=DIRECTION('',(1.,0.,0.));
#1010=DIRECTION('',(0.,-1.,0.));
#1011=DIRECTION('',(0.,0.,-1.));
#1012=DIRECTION('',(1.,0.,0.));
#1013=DIRECTION('',(1.,0.,0.));
#1014=DIRECTION('',(2.87562946701502E-16,-1.,0.));
#1015=DIRECTION('',(1.,2.87562946701502E-16,0.));
#1016=DIRECTION('',(0.,0.,1.));
#1017=DIRECTION('',(1.,2.87562946701502E-16,0.));
#1018=DIRECTION('',(0.,0.,1.));
#1019=DIRECTION('',(1.,2.87562946701502E-16,0.));
#1020=DIRECTION('',(-1.,0.,0.));
#1021=DIRECTION('',(0.,0.,1.));
#1022=DIRECTION('',(0.,-1.,0.));
#1023=DIRECTION('',(0.,0.,1.));
#1024=DIRECTION('',(0.,-1.,0.));
#1025=DIRECTION('',(0.,-1.,0.));
#1026=DIRECTION('',(0.,0.,-1.));
#1027=DIRECTION('',(1.,0.,0.));
#1028=DIRECTION('',(0.,0.,1.));
#1029=DIRECTION('',(1.,0.,0.));
#1030=DIRECTION('',(-1.,0.,0.));
#1031=DIRECTION('',(0.,0.,1.));
#1032=DIRECTION('',(0.,-1.,0.));
#1033=DIRECTION('',(0.,-1.,0.));
#1034=DIRECTION('',(0.,0.,1.));
#1035=DIRECTION('',(1.,0.,0.));
#1036=DIRECTION('',(0.,-1.,0.));
#1037=DIRECTION('',(1.,0.,0.));
#1038=DIRECTION('',(0.,-1.,0.));
#1039=DIRECTION('',(1.,0.,0.));
#1040=DIRECTION('',(0.,-1.,0.));
#1041=DIRECTION('',(0.,0.,-1.));
#1042=DIRECTION('',(0.,0.,1.));
#1043=DIRECTION('',(1.,0.,0.));
#1044=DIRECTION('',(0.,0.,1.));
#1045=DIRECTION('',(-1.,0.,0.));
#1046=DIRECTION('',(0.,0.,1.));
#1047=DIRECTION('',(0.,-1.,0.));
#1048=DIRECTION('',(0.,0.,1.));
#1049=DIRECTION('',(0.,-1.,0.));
#1050=DIRECTION('',(0.,0.,-1.));
#1051=DIRECTION('',(1.,0.,0.));
#1052=DIRECTION('',(0.,0.,1.));
#1053=DIRECTION('',(-1.,0.,0.));
#1054=DIRECTION('',(0.,0.,1.));
#1055=DIRECTION('',(0.,-1.,0.));
#1056=DIRECTION('',(1.,0.,0.));
#1057=DIRECTION('',(0.,0.,-1.));
#1058=DIRECTION('',(0.,0.,1.));
#1059=DIRECTION('',(0.,0.,1.));
#1060=DIRECTION('',(0.,1.,0.));
#1061=DIRECTION('',(0.,0.,1.));
#1062=DIRECTION('',(1.,0.,0.));
#1063=DIRECTION('',(0.,0.,1.));
#1064=DIRECTION('',(0.,0.,1.));
#1065=DIRECTION('',(1.,0.,0.));
#1066=DIRECTION('',(-1.,1.30087999698298E-16,0.));
#1067=DIRECTION('',(-1.30087999698298E-16,-1.,0.));
#1068=DIRECTION('',(0.,0.,1.));
#1069=DIRECTION('',(-1.30087999698298E-16,-1.,0.));
#1070=DIRECTION('',(-1.24174908802921E-16,1.,0.));
#1071=DIRECTION('',(-1.,-1.24174908802921E-16,0.));
#1072=DIRECTION('',(-1.,-1.24174908802921E-16,0.));
#1073=DIRECTION('',(0.,0.,1.));
#1074=DIRECTION('',(1.,0.,0.));
#1075=CARTESIAN_POINT('',(0.,0.,0.));
#1076=CARTESIAN_POINT('',(-0.00172520554411838,0.073247604444623,0.0025));
#1077=CARTESIAN_POINT('',(-0.00172520554411838,0.073247604444623,0.));
#1078=CARTESIAN_POINT('',(-0.0704752055441184,0.073247604444623,0.));
#1079=CARTESIAN_POINT('',(0.0670247944558816,0.073247604444623,0.));
#1080=CARTESIAN_POINT('',(-0.0704752055441184,0.073247604444623,0.0025));
#1081=CARTESIAN_POINT('',(-0.0704752055441184,0.073247604444623,0.0025));
#1082=CARTESIAN_POINT('',(-0.00172520554411838,0.073247604444623,0.0025));
#1083=CARTESIAN_POINT('',(0.0670247944558816,0.073247604444623,0.0025));
#1084=CARTESIAN_POINT('',(0.0670247944558816,0.073247604444623,0.0025));
#1085=CARTESIAN_POINT('',(-0.0704752055441184,0.00449760444462299,0.0025));
#1086=CARTESIAN_POINT('',(-0.0704752055441184,0.00449760444462299,0.));
#1087=CARTESIAN_POINT('',(-0.0704752055441184,-0.064252395555377,0.));
#1088=CARTESIAN_POINT('',(-0.0704752055441184,-0.064252395555377,0.0025));
#1089=CARTESIAN_POINT('',(-0.0704752055441184,-0.064252395555377,0.0025));
#1090=CARTESIAN_POINT('',(-0.0704752055441184,0.00449760444462299,0.0025));
#1091=CARTESIAN_POINT('',(-0.00172520554411838,-0.064252395555377,0.0025));
#1092=CARTESIAN_POINT('',(-0.00172520554411838,-0.064252395555377,0.));
#1093=CARTESIAN_POINT('',(0.0670247944558816,-0.064252395555377,0.));
#1094=CARTESIAN_POINT('',(0.0670247944558816,-0.064252395555377,0.0025));
#1095=CARTESIAN_POINT('',(0.0670247944558816,-0.064252395555377,0.0025));
#1096=CARTESIAN_POINT('',(-0.00172520554411838,-0.064252395555377,0.0025));
#1097=CARTESIAN_POINT('',(0.0670247944558816,0.00449760444462301,0.0025));
#1098=CARTESIAN_POINT('',(0.0670247944558816,0.00449760444462301,0.));
#1099=CARTESIAN_POINT('',(0.0670247944558816,0.00449760444462301,0.0025));
#1100=CARTESIAN_POINT('',(-0.00172520554411838,0.00449760444462299,0.0025));
#1101=CARTESIAN_POINT('',(0.0122447944558816,0.00449760444462299,0.0025));
#1102=CARTESIAN_POINT('',(0.0122447944558816,0.0210300609469414,0.0025));
#1103=CARTESIAN_POINT('',(0.0122447944558816,0.0489700609469414,0.0025));
#1104=CARTESIAN_POINT('',(-0.00172520554411838,0.0210300609469414,0.0025));
#1105=CARTESIAN_POINT('',(-0.0156952055441184,0.0210300609469414,0.0025));
#1106=CARTESIAN_POINT('',(-0.0156952055441184,0.00449760444462299,0.0025));
#1107=CARTESIAN_POINT('',(-0.0156952055441184,0.0489700609469414,0.0025));
#1108=CARTESIAN_POINT('',(-0.00172520554411838,0.0489700609469414,0.0025));
#1109=CARTESIAN_POINT('',(-0.00172520554411838,0.00449760444462299,0.));
#1110=CARTESIAN_POINT('',(-0.00172520554411838,0.0210300609469414,0.));
#1111=CARTESIAN_POINT('',(0.0122447944558816,0.0210300609469414,0.));
#1112=CARTESIAN_POINT('',(-0.0156952055441184,0.0210300609469414,0.));
#1113=CARTESIAN_POINT('',(0.0122447944558816,0.00449760444462299,0.));
#1114=CARTESIAN_POINT('',(0.0122447944558816,0.0489700609469414,0.));
#1115=CARTESIAN_POINT('',(-0.00172520554411838,0.0489700609469414,0.));
#1116=CARTESIAN_POINT('',(-0.0156952055441184,0.0489700609469414,0.));
#1117=CARTESIAN_POINT('',(-0.0156952055441184,0.00449760444462299,0.));
#1118=CARTESIAN_POINT('',(-0.00172520554411837,0.0489700609469414,-0.000675));
#1119=CARTESIAN_POINT('',(0.000511481014121665,0.0502530588372763,-0.000675));
#1120=CARTESIAN_POINT('',(0.000511481014121665,0.0502530588372763,-0.000675));
#1121=CARTESIAN_POINT('',(0.000511481014121665,0.0502530588372763,0.003135));
#1122=CARTESIAN_POINT('',(-0.00172520554411837,0.0489700609469414,0.003135));
#1123=CARTESIAN_POINT('',(0.000853330929623192,0.0489700609469414,0.003135));
#1124=CARTESIAN_POINT('',(0.000853330929623192,0.0489700609469414,-0.000675));
#1125=CARTESIAN_POINT('',(0.000853330929623192,0.0489700609469414,-0.000675));
#1126=CARTESIAN_POINT('',(-0.00172520554411837,0.0489700609469414,-0.000675));
#1127=CARTESIAN_POINT('',(0.00591406269275241,0.0489700609469414,-0.000675));
#1128=CARTESIAN_POINT('',(0.00591406269275241,0.0489700609469414,0.003135));
#1129=CARTESIAN_POINT('',(0.0109747944558816,0.0489700609469414,0.003135));
#1130=CARTESIAN_POINT('',(0.0109747944558816,0.0489700609469414,-0.000675));
#1131=CARTESIAN_POINT('',(0.0109747944558816,0.0489700609469414,-0.000675));
#1132=CARTESIAN_POINT('',(0.00591406269275241,0.0489700609469414,-0.000675));
#1133=CARTESIAN_POINT('',(-0.00172520554411835,0.0489700609469414,-0.000675));
#1134=CARTESIAN_POINT('',(-0.00172520554411835,0.0489700609469414,0.003135));
#1135=CARTESIAN_POINT('',(0.0092149880551321,0.0554200349012236,0.003135));
#1136=CARTESIAN_POINT('',(0.0092149880551321,0.0554200349012236,-0.000675));
#1137=CARTESIAN_POINT('',(0.0092149880551321,0.0554200349012236,-0.000675));
#1138=CARTESIAN_POINT('',(-0.00172520554411835,0.0489700609469414,-0.000675));
#1139=CARTESIAN_POINT('',(0.00486323453462689,0.05283654686925,-0.000675));
#1140=CARTESIAN_POINT('',(0.00486323453462689,0.05283654686925,0.003135));
#1141=CARTESIAN_POINT('',(0.00486323453462689,0.05283654686925,-0.000675));
#1142=CARTESIAN_POINT('',(-0.00172520554411838,0.0210300609469414,-0.000675));
#1143=CARTESIAN_POINT('',(0.0122447944558816,0.0210300609469414,-0.000675));
#1144=CARTESIAN_POINT('',(0.0122447944558816,0.0210300609469414,-0.000675));
#1145=CARTESIAN_POINT('',(-0.0156952055441184,0.0210300609469414,-0.000675));
#1146=CARTESIAN_POINT('',(-0.0156952055441184,0.0210300609469414,-0.000675));
#1147=CARTESIAN_POINT('',(-0.00172520554411838,0.0210300609469414,-0.000675));
#1148=CARTESIAN_POINT('',(-0.0156952055441184,0.0356350609469414,-0.000675));
#1149=CARTESIAN_POINT('',(-0.0156952055441184,0.0489700609469414,-0.000675));
#1150=CARTESIAN_POINT('',(-0.0156952055441184,0.0489700609469414,-0.000675));
#1151=CARTESIAN_POINT('',(-0.0156952055441184,0.0356350609469414,-0.000675));
#1152=CARTESIAN_POINT('',(-0.00172520554411838,0.0489700609469414,-0.000675));
#1153=CARTESIAN_POINT('',(0.0122447944558816,0.0489700609469414,-0.000675));
#1154=CARTESIAN_POINT('',(0.0122447944558816,0.0489700609469414,-0.000675));
#1155=CARTESIAN_POINT('',(-0.00172520554411838,0.0489700609469414,-0.000675));
#1156=CARTESIAN_POINT('',(0.0122447944558816,0.0356350609469414,-0.000675));
#1157=CARTESIAN_POINT('',(0.0122447944558816,0.0356350609469414,-0.000675));
#1158=CARTESIAN_POINT('',(-0.00147120554411839,0.0566017887102509,-0.000675));
#1159=CARTESIAN_POINT('',(-0.00147120554411839,0.0616675206928906,-0.000675));
#1160=CARTESIAN_POINT('',(-0.00147120554411839,0.0616675206928906,-0.000675));
#1161=CARTESIAN_POINT('',(-0.00147120554411839,0.0616675206928906,0.003135));
#1162=CARTESIAN_POINT('',(-0.00147120554411839,0.0566017887102509,0.003135));
#1163=CARTESIAN_POINT('',(-0.00147120554411839,0.0515360567276113,0.003135));
#1164=CARTESIAN_POINT('',(-0.00147120554411839,0.0515360567276113,-0.000675));
#1165=CARTESIAN_POINT('',(-0.00147120554411839,0.0515360567276113,-0.000675));
#1166=CARTESIAN_POINT('',(-0.00147120554411839,0.0566017887102509,-0.000675));
#1167=CARTESIAN_POINT('',(-0.00172520554411837,0.0489700609469414,-0.000675));
#1168=CARTESIAN_POINT('',(-0.00172520554411837,0.0489700609469414,0.003135));
#1169=CARTESIAN_POINT('',(0.000129835399697024,0.0507610588372764,0.003135));
#1170=CARTESIAN_POINT('',(0.000129835399697024,0.0507610588372764,-0.000675));
#1171=CARTESIAN_POINT('',(0.000129835399697024,0.0507610588372764,-0.000675));
#1172=CARTESIAN_POINT('',(-0.00172520554411837,0.0489700609469414,-0.000675));
#1173=CARTESIAN_POINT('',(0.00453906197336556,0.0533067269865019,-0.000675));
#1174=CARTESIAN_POINT('',(0.00453906197336556,0.0533067269865019,0.003135));
#1175=CARTESIAN_POINT('',(0.0089482885470341,0.0558523951357275,0.003135));
#1176=CARTESIAN_POINT('',(0.0089482885470341,0.0558523951357275,-0.000675));
#1177=CARTESIAN_POINT('',(0.0089482885470341,0.0558523951357275,-0.000675));
#1178=CARTESIAN_POINT('',(0.00453906197336556,0.0533067269865019,-0.000675));
#1179=CARTESIAN_POINT('',(-0.00172520554411838,0.0489700609469414,-0.000675));
#1180=CARTESIAN_POINT('',(-0.00172520554411838,0.0489700609469414,0.003135));
#1181=CARTESIAN_POINT('',(-0.00172520554411838,0.0489700609469414,-0.000675));
#1182=CARTESIAN_POINT('',(-0.00798947306160229,0.0533067269865019,-0.000675));
#1183=CARTESIAN_POINT('',(-0.0123986996352708,0.0558523951357275,-0.000675));
#1184=CARTESIAN_POINT('',(-0.0123986996352708,0.0558523951357275,-0.000675));
#1185=CARTESIAN_POINT('',(-0.0123986996352708,0.0558523951357275,0.003135));
#1186=CARTESIAN_POINT('',(-0.00798947306160229,0.0533067269865019,0.003135));
#1187=CARTESIAN_POINT('',(-0.00358024648793375,0.0507610588372763,0.003135));
#1188=CARTESIAN_POINT('',(-0.00358024648793375,0.0507610588372763,-0.000675));
#1189=CARTESIAN_POINT('',(-0.00358024648793375,0.0507610588372763,-0.000675));
#1190=CARTESIAN_POINT('',(-0.00798947306160229,0.0533067269865019,-0.000675));
#1191=CARTESIAN_POINT('',(-0.00172520554411837,0.0489700609469414,-0.000675));
#1192=CARTESIAN_POINT('',(-0.00172520554411837,0.0489700609469414,0.003135));
#1193=CARTESIAN_POINT('',(-0.00197920554411838,0.0515360567276113,0.003135));
#1194=CARTESIAN_POINT('',(-0.00197920554411838,0.0515360567276113,-0.000675));
#1195=CARTESIAN_POINT('',(-0.00197920554411838,0.0515360567276113,-0.000675));
#1196=CARTESIAN_POINT('',(-0.00172520554411837,0.0489700609469414,-0.000675));
#1197=CARTESIAN_POINT('',(-0.00197920554411838,0.0566017887102509,-0.000675));
#1198=CARTESIAN_POINT('',(-0.00197920554411838,0.0566017887102509,0.003135));
#1199=CARTESIAN_POINT('',(-0.00197920554411838,0.0616675206928906,0.003135));
#1200=CARTESIAN_POINT('',(-0.00197920554411838,0.0616675206928906,-0.000675));
#1201=CARTESIAN_POINT('',(-0.00197920554411838,0.0616675206928906,-0.000675));
#1202=CARTESIAN_POINT('',(-0.00197920554411838,0.0566017887102509,-0.000675));
#1203=CARTESIAN_POINT('',(-0.00172520554411835,0.0489700609469414,-0.000675));
#1204=CARTESIAN_POINT('',(-0.00172520554411835,0.0489700609469414,0.003135));
#1205=CARTESIAN_POINT('',(-0.00172520554411835,0.0489700609469414,-0.000675));
#1206=CARTESIAN_POINT('',(-0.00172520554411836,0.0489700609469414,-0.000675));
#1207=CARTESIAN_POINT('',(-0.00430374201785995,0.0489700609469414,-0.000675));
#1208=CARTESIAN_POINT('',(-0.00430374201785995,0.0489700609469414,-0.000675));
#1209=CARTESIAN_POINT('',(-0.00430374201785995,0.0489700609469414,0.003135));
#1210=CARTESIAN_POINT('',(-0.00172520554411836,0.0489700609469414,0.003135));
#1211=CARTESIAN_POINT('',(-0.00396189210235842,0.0502530588372764,0.003135));
#1212=CARTESIAN_POINT('',(-0.00396189210235842,0.0502530588372764,-0.000675));
#1213=CARTESIAN_POINT('',(-0.00396189210235842,0.0502530588372764,-0.000675));
#1214=CARTESIAN_POINT('',(-0.00172520554411836,0.0489700609469414,-0.000675));
#1215=CARTESIAN_POINT('',(-0.00831364562286363,0.05283654686925,-0.000675));
#1216=CARTESIAN_POINT('',(-0.00831364562286363,0.05283654686925,0.003135));
#1217=CARTESIAN_POINT('',(-0.0126653991433688,0.0554200349012236,0.003135));
#1218=CARTESIAN_POINT('',(-0.0126653991433688,0.0554200349012236,-0.000675));
#1219=CARTESIAN_POINT('',(-0.0126653991433688,0.0554200349012236,-0.000675));
#1220=CARTESIAN_POINT('',(-0.00831364562286363,0.05283654686925,-0.000675));
#1221=CARTESIAN_POINT('',(-0.00172520554411836,0.0489700609469414,-0.000675));
#1222=CARTESIAN_POINT('',(-0.00172520554411836,0.0489700609469414,0.003135));
#1223=CARTESIAN_POINT('',(-0.0144252055441184,0.0489700609469414,0.003135));
#1224=CARTESIAN_POINT('',(-0.0144252055441184,0.0489700609469414,-0.000675));
#1225=CARTESIAN_POINT('',(-0.0144252055441184,0.0489700609469414,-0.000675));
#1226=CARTESIAN_POINT('',(-0.00172520554411836,0.0489700609469414,-0.000675));
#1227=CARTESIAN_POINT('',(-0.00936447378098916,0.0489700609469414,-0.000675));
#1228=CARTESIAN_POINT('',(-0.00936447378098916,0.0489700609469414,0.003135));
#1229=CARTESIAN_POINT('',(-0.00936447378098916,0.0489700609469414,-0.000675));
#1230=CARTESIAN_POINT('',(-0.00839270554411838,0.0223000609469414,-0.000675));
#1231=CARTESIAN_POINT('',(-0.0144252055441184,0.0223000609469414,-0.000675));
#1232=CARTESIAN_POINT('',(-0.0144252055441184,0.0223000609469414,-0.000675));
#1233=CARTESIAN_POINT('',(-0.0144252055441184,0.0223000609469414,0.003135));
#1234=CARTESIAN_POINT('',(-0.00839270554411838,0.0223000609469414,0.003135));
#1235=CARTESIAN_POINT('',(-0.00236020554411838,0.0223000609469414,0.003135));
#1236=CARTESIAN_POINT('',(-0.00236020554411838,0.0223000609469414,-0.000675));
#1237=CARTESIAN_POINT('',(-0.00236020554411838,0.0223000609469414,-0.000675));
#1238=CARTESIAN_POINT('',(-0.00839270554411838,0.0223000609469414,-0.000675));
#1239=CARTESIAN_POINT('',(-0.00236020554411838,0.0350000609469414,-0.000675));
#1240=CARTESIAN_POINT('',(-0.00236020554411838,0.0350000609469414,0.003135));
#1241=CARTESIAN_POINT('',(-0.00236020554411838,0.0477000609469414,0.003135));
#1242=CARTESIAN_POINT('',(-0.00236020554411838,0.0477000609469414,-0.000675));
#1243=CARTESIAN_POINT('',(-0.00236020554411838,0.0477000609469414,-0.000675));
#1244=CARTESIAN_POINT('',(-0.00236020554411838,0.0350000609469414,-0.000675));
#1245=CARTESIAN_POINT('',(-0.00839270554411838,0.0477000609469414,-0.000675));
#1246=CARTESIAN_POINT('',(-0.00839270554411838,0.0477000609469414,0.003135));
#1247=CARTESIAN_POINT('',(-0.0144252055441184,0.0477000609469414,0.003135));
#1248=CARTESIAN_POINT('',(-0.0144252055441184,0.0477000609469414,-0.000675));
#1249=CARTESIAN_POINT('',(-0.0144252055441184,0.0477000609469414,-0.000675));
#1250=CARTESIAN_POINT('',(-0.00839270554411838,0.0477000609469414,-0.000675));
#1251=CARTESIAN_POINT('',(-0.0144252055441184,0.0350000609469414,-0.000675));
#1252=CARTESIAN_POINT('',(-0.0144252055441184,0.0350000609469414,0.003135));
#1253=CARTESIAN_POINT('',(-0.0144252055441184,0.0350000609469414,-0.000675));
#1254=CARTESIAN_POINT('',(-0.00172520554411838,0.00449760444462299,-0.000675));
#1255=CARTESIAN_POINT('',(-0.00109020554411838,0.0350000609469414,-0.000675));
#1256=CARTESIAN_POINT('',(-0.00109020554411838,0.0477000609469414,-0.000675));
#1257=CARTESIAN_POINT('',(-0.00109020554411838,0.0223000609469414,-0.000675));
#1258=CARTESIAN_POINT('',(0.00494229445588162,0.0223000609469414,-0.000675));
#1259=CARTESIAN_POINT('',(0.0109747944558816,0.0223000609469414,-0.000675));
#1260=CARTESIAN_POINT('',(0.0109747944558816,0.0350000609469414,-0.000675));
#1261=CARTESIAN_POINT('',(0.0109747944558816,0.0477000609469414,-0.000675));
#1262=CARTESIAN_POINT('',(0.00494229445588162,0.0477000609469414,-0.000675));
#1263=CARTESIAN_POINT('',(0.00494229445588162,0.0223000609469414,-0.000675));
#1264=CARTESIAN_POINT('',(-0.00109020554411838,0.0223000609469414,-0.000675));
#1265=CARTESIAN_POINT('',(-0.00109020554411838,0.0223000609469414,0.003135));
#1266=CARTESIAN_POINT('',(0.00494229445588162,0.0223000609469414,0.003135));
#1267=CARTESIAN_POINT('',(0.0109747944558816,0.0223000609469414,0.003135));
#1268=CARTESIAN_POINT('',(0.0109747944558816,0.0223000609469414,-0.000675));
#1269=CARTESIAN_POINT('',(0.0109747944558816,0.0350000609469414,-0.000675));
#1270=CARTESIAN_POINT('',(0.0109747944558816,0.0350000609469414,0.003135));
#1271=CARTESIAN_POINT('',(0.0109747944558816,0.0477000609469414,0.003135));
#1272=CARTESIAN_POINT('',(0.0109747944558816,0.0477000609469414,-0.000675));
#1273=CARTESIAN_POINT('',(0.00494229445588162,0.0477000609469414,-0.000675));
#1274=CARTESIAN_POINT('',(0.00494229445588162,0.0477000609469414,0.003135));
#1275=CARTESIAN_POINT('',(-0.00109020554411838,0.0477000609469414,0.003135));
#1276=CARTESIAN_POINT('',(-0.00109020554411838,0.0477000609469414,-0.000675));
#1277=CARTESIAN_POINT('',(-0.00109020554411838,0.0350000609469414,-0.000675));
#1278=CARTESIAN_POINT('',(-0.00109020554411838,0.0350000609469414,0.003135));
#1279=CARTESIAN_POINT('',(0.0122447944558816,0.0356350609469414,-0.000675));
#1280=CARTESIAN_POINT('',(0.0122447944558816,0.0210300609469414,-0.000675));
#1281=CARTESIAN_POINT('',(0.0122447944558816,0.0210300609469414,0.003135));
#1282=CARTESIAN_POINT('',(0.0122447944558816,0.0489700609469414,-0.000675));
#1283=CARTESIAN_POINT('',(0.0122447944558816,0.0489700609469414,0.003135));
#1284=CARTESIAN_POINT('',(0.0122447944558816,0.0356350609469414,0.003135));
#1285=CARTESIAN_POINT('',(-0.00172520554411838,0.0489700609469414,-0.000675));
#1286=CARTESIAN_POINT('',(-0.0156952055441184,0.0489700609469414,-0.000675));
#1287=CARTESIAN_POINT('',(-0.0156952055441184,0.0489700609469414,0.003135));
#1288=CARTESIAN_POINT('',(-0.00172520554411838,0.0489700609469414,0.003135));
#1289=CARTESIAN_POINT('',(-0.0156952055441184,0.0356350609469414,-0.000675));
#1290=CARTESIAN_POINT('',(-0.0156952055441184,0.0210300609469414,-0.000675));
#1291=CARTESIAN_POINT('',(-0.0156952055441184,0.0210300609469414,0.003135));
#1292=CARTESIAN_POINT('',(-0.0156952055441184,0.0356350609469414,0.003135));
#1293=CARTESIAN_POINT('',(-0.00172520554411838,0.0210300609469414,-0.000675));
#1294=CARTESIAN_POINT('',(-0.00172520554411838,0.0210300609469414,0.003135));
#1295=CARTESIAN_POINT('',(-0.00172520554411838,0.00449760444462299,0.003135));
#1296=MECHANICAL_DESIGN_GEOMETRIC_PRESENTATION_REPRESENTATION('',(#793),
#1297);
#1297=(
GEOMETRIC_REPRESENTATION_CONTEXT(3)
GLOBAL_UNCERTAINTY_ASSIGNED_CONTEXT((#1298))
GLOBAL_UNIT_ASSIGNED_CONTEXT((#1301,#1300,#1299))
REPRESENTATION_CONTEXT('Part 1','TOP_LEVEL_ASSEMBLY_PART')
);
#1298=UNCERTAINTY_MEASURE_WITH_UNIT(LENGTH_MEASURE(1.E-8),#1301,
'DISTANCE_ACCURACY_VALUE','Maximum Tolerance applied to model');
#1299=(
NAMED_UNIT(*)
SI_UNIT($,.STERADIAN.)
SOLID_ANGLE_UNIT()
);
#1300=(
NAMED_UNIT(*)
PLANE_ANGLE_UNIT()
SI_UNIT($,.RADIAN.)
);
#1301=(
LENGTH_UNIT()
NAMED_UNIT(*)
SI_UNIT($,.METRE.)
);
#1302=PRODUCT_DEFINITION_SHAPE('','',#1303);
#1303=PRODUCT_DEFINITION('','',#1305,#1304);
#1304=PRODUCT_DEFINITION_CONTEXT('',#1311,'design');
#1305=PRODUCT_DEFINITION_FORMATION_WITH_SPECIFIED_SOURCE('','',#1307,
 .NOT_KNOWN.);
#1306=PRODUCT_RELATED_PRODUCT_CATEGORY('','',(#1307));
#1307=PRODUCT('Part 1','Part 1','Part 1',(#1309));
#1308=PRODUCT_CATEGORY('','');
#1309=PRODUCT_CONTEXT('',#1311,'mechanical');
#1310=APPLICATION_PROTOCOL_DEFINITION('international standard',
'ap242_managed_model_based_3d_engineering',2020,#1311);
#1311=APPLICATION_CONTEXT('managed model based 3d engineering');
ENDSEC;
END-ISO-10303-21;
