ISO-10303-21;
HEADER;
/* Generated by software containing ST-Developer
 * from STEP Tools, Inc. (www.steptools.com) 
 */
/* OPTION: using custom renumber hook */

FILE_DESCRIPTION(
/* description */ ('STEP AP242 Edition 2',
'CAx-IF Rec.Pracs.---Representation and Presentation of Product Manufa
cturing Information (PMI)---4.0---2014-10-13',
'CAx-IF Rec.Pracs.---3D Tessellated Geometry---0.4---2014-09-14','2;1',
'CAx-IF Rec.Pracs.---User Defined Attributes---1.5---2016-08-15'),
/* implementation_level */ '2;1');

FILE_NAME(
/* name */ 'table',
/* time_stamp */ '2026-09-08T02:25:10Z',
/* author */ (''),
/* organization */ (''),
/* preprocessor_version */ 'ST-DEVELOPER v20',
/* originating_system */ 'ONSHAPE BY PTC INC, 1.220',
/* authorisation */ '  ');

FILE_SCHEMA (('AP242_MANAGED_MODEL_BASED_3D_ENGINEERING_MIM_LF { 1 0 10303 442 3 1 4 }'));
ENDSEC;

DATA;
#10=SHAPE_REPRESENTATION_RELATIONSHIP('','',#343,#11);
#11=ADVANCED_BREP_SHAPE_REPRESENTATION('',(#341),#615);
#12=PLANE('',#363);
#13=PLANE('',#367);
#14=PLANE('',#374);
#15=PLANE('',#381);
#16=PLANE('',#382);
#17=PLANE('',#389);
#18=PLANE('',#390);
#19=PLANE('',#397);
#20=PLANE('',#398);
#21=PLANE('',#399);
#22=PLANE('',#400);
#23=LINE('',#526,#29);
#24=LINE('',#530,#30);
#25=LINE('',#534,#31);
#26=LINE('',#540,#32);
#27=LINE('',#546,#33);
#28=LINE('',#552,#34);
#29=VECTOR('',#407,1.);
#30=VECTOR('',#410,1.);
#31=VECTOR('',#415,1.);
#32=VECTOR('',#422,1.);
#33=VECTOR('',#429,1.);
#34=VECTOR('',#436,1.);
#35=ORIENTED_EDGE('',*,*,#107,.F.);
#36=ORIENTED_EDGE('',*,*,#108,.F.);
#37=ORIENTED_EDGE('',*,*,#109,.T.);
#38=ORIENTED_EDGE('',*,*,#110,.T.);
#39=ORIENTED_EDGE('',*,*,#111,.T.);
#40=ORIENTED_EDGE('',*,*,#112,.F.);
#41=ORIENTED_EDGE('',*,*,#113,.F.);
#42=ORIENTED_EDGE('',*,*,#108,.T.);
#43=ORIENTED_EDGE('',*,*,#114,.F.);
#44=ORIENTED_EDGE('',*,*,#115,.F.);
#45=ORIENTED_EDGE('',*,*,#116,.T.);
#46=ORIENTED_EDGE('',*,*,#112,.T.);
#47=ORIENTED_EDGE('',*,*,#117,.T.);
#48=ORIENTED_EDGE('',*,*,#118,.F.);
#49=ORIENTED_EDGE('',*,*,#119,.F.);
#50=ORIENTED_EDGE('',*,*,#115,.T.);
#51=ORIENTED_EDGE('',*,*,#120,.F.);
#52=ORIENTED_EDGE('',*,*,#121,.F.);
#53=ORIENTED_EDGE('',*,*,#122,.T.);
#54=ORIENTED_EDGE('',*,*,#118,.T.);
#55=ORIENTED_EDGE('',*,*,#123,.T.);
#56=ORIENTED_EDGE('',*,*,#110,.F.);
#57=ORIENTED_EDGE('',*,*,#124,.F.);
#58=ORIENTED_EDGE('',*,*,#121,.T.);
#59=ORIENTED_EDGE('',*,*,#125,.F.);
#60=ORIENTED_EDGE('',*,*,#126,.F.);
#61=ORIENTED_EDGE('',*,*,#109,.F.);
#62=ORIENTED_EDGE('',*,*,#113,.T.);
#63=ORIENTED_EDGE('',*,*,#116,.F.);
#64=ORIENTED_EDGE('',*,*,#119,.T.);
#65=ORIENTED_EDGE('',*,*,#122,.F.);
#66=ORIENTED_EDGE('',*,*,#124,.T.);
#67=ORIENTED_EDGE('',*,*,#127,.F.);
#68=ORIENTED_EDGE('',*,*,#107,.T.);
#69=ORIENTED_EDGE('',*,*,#123,.F.);
#70=ORIENTED_EDGE('',*,*,#120,.T.);
#71=ORIENTED_EDGE('',*,*,#117,.F.);
#72=ORIENTED_EDGE('',*,*,#114,.T.);
#73=ORIENTED_EDGE('',*,*,#111,.F.);
#74=ORIENTED_EDGE('',*,*,#125,.T.);
#75=ORIENTED_EDGE('',*,*,#128,.F.);
#76=ORIENTED_EDGE('',*,*,#126,.T.);
#77=ORIENTED_EDGE('',*,*,#129,.F.);
#78=ORIENTED_EDGE('',*,*,#127,.T.);
#79=ORIENTED_EDGE('',*,*,#130,.F.);
#80=ORIENTED_EDGE('',*,*,#131,.F.);
#81=ORIENTED_EDGE('',*,*,#130,.T.);
#82=ORIENTED_EDGE('',*,*,#132,.F.);
#83=ORIENTED_EDGE('',*,*,#131,.T.);
#84=ORIENTED_EDGE('',*,*,#133,.T.);
#85=ORIENTED_EDGE('',*,*,#134,.F.);
#86=ORIENTED_EDGE('',*,*,#132,.T.);
#87=ORIENTED_EDGE('',*,*,#133,.F.);
#88=ORIENTED_EDGE('',*,*,#135,.F.);
#89=ORIENTED_EDGE('',*,*,#129,.T.);
#90=ORIENTED_EDGE('',*,*,#136,.F.);
#91=ORIENTED_EDGE('',*,*,#135,.T.);
#92=ORIENTED_EDGE('',*,*,#137,.T.);
#93=ORIENTED_EDGE('',*,*,#138,.F.);
#94=ORIENTED_EDGE('',*,*,#136,.T.);
#95=ORIENTED_EDGE('',*,*,#137,.F.);
#96=ORIENTED_EDGE('',*,*,#139,.F.);
#97=ORIENTED_EDGE('',*,*,#128,.T.);
#98=ORIENTED_EDGE('',*,*,#140,.F.);
#99=ORIENTED_EDGE('',*,*,#139,.T.);
#100=ORIENTED_EDGE('',*,*,#141,.T.);
#101=ORIENTED_EDGE('',*,*,#142,.F.);
#102=ORIENTED_EDGE('',*,*,#140,.T.);
#103=ORIENTED_EDGE('',*,*,#141,.F.);
#104=ORIENTED_EDGE('',*,*,#134,.T.);
#105=ORIENTED_EDGE('',*,*,#138,.T.);
#106=ORIENTED_EDGE('',*,*,#142,.T.);
#107=EDGE_CURVE('',#143,#144,#173,.T.);
#108=EDGE_CURVE('',#145,#143,#23,.T.);
#109=EDGE_CURVE('',#145,#146,#174,.T.);
#110=EDGE_CURVE('',#146,#144,#24,.T.);
#111=EDGE_CURVE('',#143,#147,#175,.T.);
#112=EDGE_CURVE('',#148,#147,#25,.T.);
#113=EDGE_CURVE('',#145,#148,#176,.T.);
#114=EDGE_CURVE('',#149,#147,#177,.T.);
#115=EDGE_CURVE('',#150,#149,#26,.T.);
#116=EDGE_CURVE('',#150,#148,#178,.T.);
#117=EDGE_CURVE('',#149,#151,#179,.T.);
#118=EDGE_CURVE('',#152,#151,#27,.T.);
#119=EDGE_CURVE('',#150,#152,#180,.T.);
#120=EDGE_CURVE('',#153,#151,#181,.T.);
#121=EDGE_CURVE('',#154,#153,#28,.T.);
#122=EDGE_CURVE('',#154,#152,#182,.T.);
#123=EDGE_CURVE('',#153,#144,#183,.T.);
#124=EDGE_CURVE('',#154,#146,#184,.T.);
#125=EDGE_CURVE('',#155,#155,#185,.T.);
#126=EDGE_CURVE('',#156,#156,#186,.T.);
#127=EDGE_CURVE('',#157,#157,#187,.T.);
#128=EDGE_CURVE('',#158,#158,#188,.T.);
#129=EDGE_CURVE('',#159,#159,#189,.T.);
#130=EDGE_CURVE('',#160,#160,#190,.T.);
#131=EDGE_CURVE('',#161,#161,#191,.T.);
#132=EDGE_CURVE('',#162,#162,#192,.T.);
#133=EDGE_CURVE('',#163,#163,#193,.T.);
#134=EDGE_CURVE('',#164,#164,#194,.T.);
#135=EDGE_CURVE('',#165,#165,#195,.T.);
#136=EDGE_CURVE('',#166,#166,#196,.T.);
#137=EDGE_CURVE('',#167,#167,#197,.T.);
#138=EDGE_CURVE('',#168,#168,#198,.T.);
#139=EDGE_CURVE('',#169,#169,#199,.T.);
#140=EDGE_CURVE('',#170,#170,#200,.T.);
#141=EDGE_CURVE('',#171,#171,#201,.T.);
#142=EDGE_CURVE('',#172,#172,#202,.T.);
#143=VERTEX_POINT('',#524);
#144=VERTEX_POINT('',#525);
#145=VERTEX_POINT('',#527);
#146=VERTEX_POINT('',#529);
#147=VERTEX_POINT('',#533);
#148=VERTEX_POINT('',#535);
#149=VERTEX_POINT('',#539);
#150=VERTEX_POINT('',#541);
#151=VERTEX_POINT('',#545);
#152=VERTEX_POINT('',#547);
#153=VERTEX_POINT('',#551);
#154=VERTEX_POINT('',#553);
#155=VERTEX_POINT('',#560);
#156=VERTEX_POINT('',#562);
#157=VERTEX_POINT('',#564);
#158=VERTEX_POINT('',#568);
#159=VERTEX_POINT('',#571);
#160=VERTEX_POINT('',#574);
#161=VERTEX_POINT('',#577);
#162=VERTEX_POINT('',#580);
#163=VERTEX_POINT('',#583);
#164=VERTEX_POINT('',#585);
#165=VERTEX_POINT('',#589);
#166=VERTEX_POINT('',#592);
#167=VERTEX_POINT('',#595);
#168=VERTEX_POINT('',#597);
#169=VERTEX_POINT('',#601);
#170=VERTEX_POINT('',#604);
#171=VERTEX_POINT('',#607);
#172=VERTEX_POINT('',#609);
#173=CIRCLE('',#346,0.0177799999999996);
#174=CIRCLE('',#347,0.0177799999999996);
#175=CIRCLE('',#349,0.00635);
#176=CIRCLE('',#350,0.00635);
#177=CIRCLE('',#352,0.0508000000000021);
#178=CIRCLE('',#353,0.0508000000000021);
#179=CIRCLE('',#355,0.00635);
#180=CIRCLE('',#356,0.00635);
#181=CIRCLE('',#358,0.0177799999999898);
#182=CIRCLE('',#359,0.0177799999999898);
#183=CIRCLE('',#361,0.00635);
#184=CIRCLE('',#362,0.00635);
#185=CIRCLE('',#364,0.001905);
#186=CIRCLE('',#365,0.001905);
#187=CIRCLE('',#366,0.001905);
#188=CIRCLE('',#369,0.001905);
#189=CIRCLE('',#371,0.001905);
#190=CIRCLE('',#373,0.001905);
#191=CIRCLE('',#375,0.0127);
#192=CIRCLE('',#377,0.0127);
#193=CIRCLE('',#379,0.000635);
#194=CIRCLE('',#380,0.000635);
#195=CIRCLE('',#383,0.0127);
#196=CIRCLE('',#385,0.0127);
#197=CIRCLE('',#387,0.000635);
#198=CIRCLE('',#388,0.000635);
#199=CIRCLE('',#391,0.0127);
#200=CIRCLE('',#393,0.0127);
#201=CIRCLE('',#395,0.000635);
#202=CIRCLE('',#396,0.000635);
#203=EDGE_LOOP('',(#35,#36,#37,#38));
#204=EDGE_LOOP('',(#39,#40,#41,#42));
#205=EDGE_LOOP('',(#43,#44,#45,#46));
#206=EDGE_LOOP('',(#47,#48,#49,#50));
#207=EDGE_LOOP('',(#51,#52,#53,#54));
#208=EDGE_LOOP('',(#55,#56,#57,#58));
#209=EDGE_LOOP('',(#59));
#210=EDGE_LOOP('',(#60));
#211=EDGE_LOOP('',(#61,#62,#63,#64,#65,#66));
#212=EDGE_LOOP('',(#67));
#213=EDGE_LOOP('',(#68,#69,#70,#71,#72,#73));
#214=EDGE_LOOP('',(#74));
#215=EDGE_LOOP('',(#75));
#216=EDGE_LOOP('',(#76));
#217=EDGE_LOOP('',(#77));
#218=EDGE_LOOP('',(#78));
#219=EDGE_LOOP('',(#79));
#220=EDGE_LOOP('',(#80));
#221=EDGE_LOOP('',(#81));
#222=EDGE_LOOP('',(#82));
#223=EDGE_LOOP('',(#83));
#224=EDGE_LOOP('',(#84));
#225=EDGE_LOOP('',(#85));
#226=EDGE_LOOP('',(#86));
#227=EDGE_LOOP('',(#87));
#228=EDGE_LOOP('',(#88));
#229=EDGE_LOOP('',(#89));
#230=EDGE_LOOP('',(#90));
#231=EDGE_LOOP('',(#91));
#232=EDGE_LOOP('',(#92));
#233=EDGE_LOOP('',(#93));
#234=EDGE_LOOP('',(#94));
#235=EDGE_LOOP('',(#95));
#236=EDGE_LOOP('',(#96));
#237=EDGE_LOOP('',(#97));
#238=EDGE_LOOP('',(#98));
#239=EDGE_LOOP('',(#99));
#240=EDGE_LOOP('',(#100));
#241=EDGE_LOOP('',(#101));
#242=EDGE_LOOP('',(#102));
#243=EDGE_LOOP('',(#103));
#244=EDGE_LOOP('',(#104));
#245=EDGE_LOOP('',(#105));
#246=EDGE_LOOP('',(#106));
#247=FACE_BOUND('',#203,.T.);
#248=FACE_BOUND('',#204,.T.);
#249=FACE_BOUND('',#205,.T.);
#250=FACE_BOUND('',#206,.T.);
#251=FACE_BOUND('',#207,.T.);
#252=FACE_BOUND('',#208,.T.);
#253=FACE_BOUND('',#209,.T.);
#254=FACE_BOUND('',#210,.T.);
#255=FACE_BOUND('',#211,.T.);
#256=FACE_BOUND('',#212,.T.);
#257=FACE_BOUND('',#213,.T.);
#258=FACE_BOUND('',#214,.T.);
#259=FACE_BOUND('',#215,.T.);
#260=FACE_BOUND('',#216,.T.);
#261=FACE_BOUND('',#217,.T.);
#262=FACE_BOUND('',#218,.T.);
#263=FACE_BOUND('',#219,.T.);
#264=FACE_BOUND('',#220,.T.);
#265=FACE_BOUND('',#221,.T.);
#266=FACE_BOUND('',#222,.T.);
#267=FACE_BOUND('',#223,.T.);
#268=FACE_BOUND('',#224,.T.);
#269=FACE_BOUND('',#225,.T.);
#270=FACE_BOUND('',#226,.T.);
#271=FACE_BOUND('',#227,.T.);
#272=FACE_BOUND('',#228,.T.);
#273=FACE_BOUND('',#229,.T.);
#274=FACE_BOUND('',#230,.T.);
#275=FACE_BOUND('',#231,.T.);
#276=FACE_BOUND('',#232,.T.);
#277=FACE_BOUND('',#233,.T.);
#278=FACE_BOUND('',#234,.T.);
#279=FACE_BOUND('',#235,.T.);
#280=FACE_BOUND('',#236,.T.);
#281=FACE_BOUND('',#237,.T.);
#282=FACE_BOUND('',#238,.T.);
#283=FACE_BOUND('',#239,.T.);
#284=FACE_BOUND('',#240,.T.);
#285=FACE_BOUND('',#241,.T.);
#286=FACE_BOUND('',#242,.T.);
#287=FACE_BOUND('',#243,.T.);
#288=FACE_BOUND('',#244,.T.);
#289=FACE_BOUND('',#245,.T.);
#290=FACE_BOUND('',#246,.T.);
#291=CYLINDRICAL_SURFACE('',#345,0.0177799999999996);
#292=CYLINDRICAL_SURFACE('',#348,0.00635);
#293=CYLINDRICAL_SURFACE('',#351,0.0508000000000021);
#294=CYLINDRICAL_SURFACE('',#354,0.00635);
#295=CYLINDRICAL_SURFACE('',#357,0.0177799999999898);
#296=CYLINDRICAL_SURFACE('',#360,0.00635);
#297=CYLINDRICAL_SURFACE('',#368,0.001905);
#298=CYLINDRICAL_SURFACE('',#370,0.001905);
#299=CYLINDRICAL_SURFACE('',#372,0.001905);
#300=CYLINDRICAL_SURFACE('',#376,0.0127);
#301=CYLINDRICAL_SURFACE('',#378,0.000635);
#302=CYLINDRICAL_SURFACE('',#384,0.0127);
#303=CYLINDRICAL_SURFACE('',#386,0.000635);
#304=CYLINDRICAL_SURFACE('',#392,0.0127);
#305=CYLINDRICAL_SURFACE('',#394,0.000635);
#306=ADVANCED_FACE('',(#247),#291,.F.);
#307=ADVANCED_FACE('',(#248),#292,.T.);
#308=ADVANCED_FACE('',(#249),#293,.F.);
#309=ADVANCED_FACE('',(#250),#294,.T.);
#310=ADVANCED_FACE('',(#251),#295,.F.);
#311=ADVANCED_FACE('',(#252),#296,.T.);
#312=ADVANCED_FACE('',(#253,#254,#255,#256),#12,.T.);
#313=ADVANCED_FACE('',(#257),#13,.F.);
#314=ADVANCED_FACE('',(#258,#259),#297,.T.);
#315=ADVANCED_FACE('',(#260,#261),#298,.T.);
#316=ADVANCED_FACE('',(#262,#263),#299,.T.);
#317=ADVANCED_FACE('',(#264,#265),#14,.F.);
#318=ADVANCED_FACE('',(#266,#267),#300,.T.);
#319=ADVANCED_FACE('',(#268,#269),#301,.F.);
#320=ADVANCED_FACE('',(#270,#271),#15,.T.);
#321=ADVANCED_FACE('',(#272,#273),#16,.F.);
#322=ADVANCED_FACE('',(#274,#275),#302,.T.);
#323=ADVANCED_FACE('',(#276,#277),#303,.F.);
#324=ADVANCED_FACE('',(#278,#279),#17,.T.);
#325=ADVANCED_FACE('',(#280,#281),#18,.F.);
#326=ADVANCED_FACE('',(#282,#283),#304,.T.);
#327=ADVANCED_FACE('',(#284,#285),#305,.F.);
#328=ADVANCED_FACE('',(#286,#287),#19,.T.);
#329=ADVANCED_FACE('',(#288),#20,.T.);
#330=ADVANCED_FACE('',(#289),#21,.T.);
#331=ADVANCED_FACE('',(#290),#22,.T.);
#332=CLOSED_SHELL('',(#306,#307,#308,#309,#310,#311,#312,#313,#314,#315,
#316,#317,#318,#319,#320,#321,#322,#323,#324,#325,#326,#327,#328,#329,#330,
#331));
#333=STYLED_ITEM('',(#334),#341);
#334=PRESENTATION_STYLE_ASSIGNMENT((#335));
#335=SURFACE_STYLE_USAGE(.BOTH.,#336);
#336=SURFACE_SIDE_STYLE('',(#337));
#337=SURFACE_STYLE_FILL_AREA(#338);
#338=FILL_AREA_STYLE('',(#339));
#339=FILL_AREA_STYLE_COLOUR('',#340);
#340=COLOUR_RGB('',0.301960784313725,0.301960784313725,0.301960784313725);
#341=MANIFOLD_SOLID_BREP('Part 1',#332);
#342=SHAPE_DEFINITION_REPRESENTATION(#620,#343);
#343=SHAPE_REPRESENTATION('Part 1',(#344),#615);
#344=AXIS2_PLACEMENT_3D('',#521,#401,#402);
#345=AXIS2_PLACEMENT_3D('',#522,#403,#404);
#346=AXIS2_PLACEMENT_3D('',#523,#405,#406);
#347=AXIS2_PLACEMENT_3D('',#528,#408,#409);
#348=AXIS2_PLACEMENT_3D('',#531,#411,#412);
#349=AXIS2_PLACEMENT_3D('',#532,#413,#414);
#350=AXIS2_PLACEMENT_3D('',#536,#416,#417);
#351=AXIS2_PLACEMENT_3D('',#537,#418,#419);
#352=AXIS2_PLACEMENT_3D('',#538,#420,#421);
#353=AXIS2_PLACEMENT_3D('',#542,#423,#424);
#354=AXIS2_PLACEMENT_3D('',#543,#425,#426);
#355=AXIS2_PLACEMENT_3D('',#544,#427,#428);
#356=AXIS2_PLACEMENT_3D('',#548,#430,#431);
#357=AXIS2_PLACEMENT_3D('',#549,#432,#433);
#358=AXIS2_PLACEMENT_3D('',#550,#434,#435);
#359=AXIS2_PLACEMENT_3D('',#554,#437,#438);
#360=AXIS2_PLACEMENT_3D('',#555,#439,#440);
#361=AXIS2_PLACEMENT_3D('',#556,#441,#442);
#362=AXIS2_PLACEMENT_3D('',#557,#443,#444);
#363=AXIS2_PLACEMENT_3D('',#558,#445,#446);
#364=AXIS2_PLACEMENT_3D('',#559,#447,#448);
#365=AXIS2_PLACEMENT_3D('',#561,#449,#450);
#366=AXIS2_PLACEMENT_3D('',#563,#451,#452);
#367=AXIS2_PLACEMENT_3D('',#565,#453,#454);
#368=AXIS2_PLACEMENT_3D('',#566,#455,#456);
#369=AXIS2_PLACEMENT_3D('',#567,#457,#458);
#370=AXIS2_PLACEMENT_3D('',#569,#459,#460);
#371=AXIS2_PLACEMENT_3D('',#570,#461,#462);
#372=AXIS2_PLACEMENT_3D('',#572,#463,#464);
#373=AXIS2_PLACEMENT_3D('',#573,#465,#466);
#374=AXIS2_PLACEMENT_3D('',#575,#467,#468);
#375=AXIS2_PLACEMENT_3D('',#576,#469,#470);
#376=AXIS2_PLACEMENT_3D('',#578,#471,#472);
#377=AXIS2_PLACEMENT_3D('',#579,#473,#474);
#378=AXIS2_PLACEMENT_3D('',#581,#475,#476);
#379=AXIS2_PLACEMENT_3D('',#582,#477,#478);
#380=AXIS2_PLACEMENT_3D('',#584,#479,#480);
#381=AXIS2_PLACEMENT_3D('',#586,#481,#482);
#382=AXIS2_PLACEMENT_3D('',#587,#483,#484);
#383=AXIS2_PLACEMENT_3D('',#588,#485,#486);
#384=AXIS2_PLACEMENT_3D('',#590,#487,#488);
#385=AXIS2_PLACEMENT_3D('',#591,#489,#490);
#386=AXIS2_PLACEMENT_3D('',#593,#491,#492);
#387=AXIS2_PLACEMENT_3D('',#594,#493,#494);
#388=AXIS2_PLACEMENT_3D('',#596,#495,#496);
#389=AXIS2_PLACEMENT_3D('',#598,#497,#498);
#390=AXIS2_PLACEMENT_3D('',#599,#499,#500);
#391=AXIS2_PLACEMENT_3D('',#600,#501,#502);
#392=AXIS2_PLACEMENT_3D('',#602,#503,#504);
#393=AXIS2_PLACEMENT_3D('',#603,#505,#506);
#394=AXIS2_PLACEMENT_3D('',#605,#507,#508);
#395=AXIS2_PLACEMENT_3D('',#606,#509,#510);
#396=AXIS2_PLACEMENT_3D('',#608,#511,#512);
#397=AXIS2_PLACEMENT_3D('',#610,#513,#514);
#398=AXIS2_PLACEMENT_3D('',#611,#515,#516);
#399=AXIS2_PLACEMENT_3D('',#612,#517,#518);
#400=AXIS2_PLACEMENT_3D('',#613,#519,#520);
#401=DIRECTION('',(0.,0.,1.));
#402=DIRECTION('',(1.,0.,0.));
#403=DIRECTION('',(0.,0.,-1.));
#404=DIRECTION('',(-1.,0.,0.));
#405=DIRECTION('',(0.,0.,1.));
#406=DIRECTION('',(1.,0.,0.));
#407=DIRECTION('',(0.,0.,-1.));
#408=DIRECTION('',(0.,0.,1.));
#409=DIRECTION('',(1.,0.,0.));
#410=DIRECTION('',(0.,0.,-1.));
#411=DIRECTION('',(0.,0.,-1.));
#412=DIRECTION('',(-1.,0.,0.));
#413=DIRECTION('',(0.,0.,1.));
#414=DIRECTION('',(1.,0.,0.));
#415=DIRECTION('',(0.,0.,-1.));
#416=DIRECTION('',(0.,0.,1.));
#417=DIRECTION('',(1.,0.,0.));
#418=DIRECTION('',(0.,0.,-1.));
#419=DIRECTION('',(-1.,0.,0.));
#420=DIRECTION('',(0.,0.,1.));
#421=DIRECTION('',(1.,0.,0.));
#422=DIRECTION('',(0.,0.,-1.));
#423=DIRECTION('',(0.,0.,1.));
#424=DIRECTION('',(1.,0.,0.));
#425=DIRECTION('',(0.,0.,-1.));
#426=DIRECTION('',(-1.,0.,0.));
#427=DIRECTION('',(0.,0.,1.));
#428=DIRECTION('',(1.,0.,0.));
#429=DIRECTION('',(0.,0.,-1.));
#430=DIRECTION('',(0.,0.,1.));
#431=DIRECTION('',(1.,0.,0.));
#432=DIRECTION('',(0.,0.,-1.));
#433=DIRECTION('',(-1.,0.,0.));
#434=DIRECTION('',(0.,0.,1.));
#435=DIRECTION('',(1.,0.,0.));
#436=DIRECTION('',(0.,0.,-1.));
#437=DIRECTION('',(0.,0.,1.));
#438=DIRECTION('',(1.,0.,0.));
#439=DIRECTION('',(0.,0.,-1.));
#440=DIRECTION('',(-1.,0.,0.));
#441=DIRECTION('',(0.,0.,1.));
#442=DIRECTION('',(1.,0.,0.));
#443=DIRECTION('',(0.,0.,1.));
#444=DIRECTION('',(1.,0.,0.));
#445=DIRECTION('',(0.,0.,1.));
#446=DIRECTION('',(1.,0.,0.));
#447=DIRECTION('',(0.,0.,1.));
#448=DIRECTION('',(1.,0.,0.));
#449=DIRECTION('',(0.,0.,1.));
#450=DIRECTION('',(1.,0.,0.));
#451=DIRECTION('',(0.,0.,1.));
#452=DIRECTION('',(1.,0.,0.));
#453=DIRECTION('',(0.,0.,1.));
#454=DIRECTION('',(1.,0.,0.));
#455=DIRECTION('',(0.,0.,-1.));
#456=DIRECTION('',(-1.,0.,0.));
#457=DIRECTION('',(0.,0.,1.));
#458=DIRECTION('',(1.,0.,0.));
#459=DIRECTION('',(0.,0.,-1.));
#460=DIRECTION('',(-1.,0.,0.));
#461=DIRECTION('',(0.,0.,1.));
#462=DIRECTION('',(1.,0.,0.));
#463=DIRECTION('',(0.,0.,-1.));
#464=DIRECTION('',(-1.,0.,0.));
#465=DIRECTION('',(0.,0.,1.));
#466=DIRECTION('',(1.,0.,0.));
#467=DIRECTION('',(0.,0.,1.));
#468=DIRECTION('',(1.,0.,0.));
#469=DIRECTION('',(0.,0.,1.));
#470=DIRECTION('',(1.,0.,0.));
#471=DIRECTION('',(0.,0.,-1.));
#472=DIRECTION('',(-1.,0.,0.));
#473=DIRECTION('',(0.,0.,1.));
#474=DIRECTION('',(1.,0.,0.));
#475=DIRECTION('',(0.,0.,-1.));
#476=DIRECTION('',(-1.,0.,0.));
#477=DIRECTION('',(0.,0.,1.));
#478=DIRECTION('',(1.,0.,0.));
#479=DIRECTION('',(0.,0.,1.));
#480=DIRECTION('',(1.,0.,0.));
#481=DIRECTION('',(0.,0.,1.));
#482=DIRECTION('',(1.,0.,0.));
#483=DIRECTION('',(0.,0.,1.));
#484=DIRECTION('',(1.,0.,0.));
#485=DIRECTION('',(0.,0.,1.));
#486=DIRECTION('',(1.,0.,0.));
#487=DIRECTION('',(0.,0.,-1.));
#488=DIRECTION('',(-1.,0.,0.));
#489=DIRECTION('',(0.,0.,1.));
#490=DIRECTION('',(1.,0.,0.));
#491=DIRECTION('',(0.,0.,-1.));
#492=DIRECTION('',(-1.,0.,0.));
#493=DIRECTION('',(0.,0.,1.));
#494=DIRECTION('',(1.,0.,0.));
#495=DIRECTION('',(0.,0.,1.));
#496=DIRECTION('',(1.,0.,0.));
#497=DIRECTION('',(0.,0.,1.));
#498=DIRECTION('',(1.,0.,0.));
#499=DIRECTION('',(0.,0.,1.));
#500=DIRECTION('',(1.,0.,0.));
#501=DIRECTION('',(0.,0.,1.));
#502=DIRECTION('',(1.,0.,0.));
#503=DIRECTION('',(0.,0.,-1.));
#504=DIRECTION('',(-1.,0.,0.));
#505=DIRECTION('',(0.,0.,1.));
#506=DIRECTION('',(1.,0.,0.));
#507=DIRECTION('',(0.,0.,-1.));
#508=DIRECTION('',(-1.,0.,0.));
#509=DIRECTION('',(0.,0.,1.));
#510=DIRECTION('',(1.,0.,0.));
#511=DIRECTION('',(0.,0.,1.));
#512=DIRECTION('',(1.,0.,0.));
#513=DIRECTION('',(0.,0.,1.));
#514=DIRECTION('',(1.,0.,0.));
#515=DIRECTION('',(0.,0.,1.));
#516=DIRECTION('',(1.,0.,0.));
#517=DIRECTION('',(0.,0.,1.));
#518=DIRECTION('',(1.,0.,0.));
#519=DIRECTION('',(0.,0.,1.));
#520=DIRECTION('',(1.,0.,0.));
#521=CARTESIAN_POINT('',(0.,0.,0.));
#522=CARTESIAN_POINT('',(-0.0238429099055272,0.0361919006924232,0.00254));
#523=CARTESIAN_POINT('',(-0.0238429099055272,0.0361919006924232,0.));
#524=CARTESIAN_POINT('',(-0.0117172124861976,0.0231882142114725,0.));
#525=CARTESIAN_POINT('',(-0.00635,0.0393741173784924,0.));
#526=CARTESIAN_POINT('',(-0.0117172124861976,0.0231882142114725,0.00254));
#527=CARTESIAN_POINT('',(-0.0117172124861976,0.0231882142114725,0.00254));
#528=CARTESIAN_POINT('',(-0.0238429099055272,0.0361919006924232,0.00254));
#529=CARTESIAN_POINT('',(-0.00635,0.0393741173784924,0.00254));
#530=CARTESIAN_POINT('',(-0.00635,0.0393741173784924,0.00254));
#531=CARTESIAN_POINT('',(-0.0117172124861976,0.0168382142114726,0.00254));
#532=CARTESIAN_POINT('',(-0.0117172124861976,0.0168382142114726,0.));
#533=CARTESIAN_POINT('',(-0.0117172124861976,0.0104882142114726,0.));
#534=CARTESIAN_POINT('',(-0.0117172124861976,0.0104882142114726,0.00254));
#535=CARTESIAN_POINT('',(-0.0117172124861976,0.0104882142114726,0.00254));
#536=CARTESIAN_POINT('',(-0.0117172124861976,0.0168382142114726,0.00254));
#537=CARTESIAN_POINT('',(0.00314035465022637,-0.0380905126016794,0.00254));
#538=CARTESIAN_POINT('',(0.00314035465022637,-0.0380905126016794,0.));
#539=CARTESIAN_POINT('',(0.0136580583967666,0.0116087621203951,0.));
#540=CARTESIAN_POINT('',(0.0136580583967666,0.0116087621203951,0.00254));
#541=CARTESIAN_POINT('',(0.0136580583967666,0.0116087621203951,0.00254));
#542=CARTESIAN_POINT('',(0.00314035465022637,-0.0380905126016794,0.00254));
#543=CARTESIAN_POINT('',(0.0136580583967666,0.0179587621203951,0.00254));
#544=CARTESIAN_POINT('',(0.0136580583967666,0.0179587621203951,0.));
#545=CARTESIAN_POINT('',(0.0136580583967666,0.0243087621203951,0.));
#546=CARTESIAN_POINT('',(0.0136580583967666,0.0243087621203951,0.00254));
#547=CARTESIAN_POINT('',(0.0136580583967666,0.0243087621203951,0.00254));
#548=CARTESIAN_POINT('',(0.0136580583967666,0.0179587621203951,0.00254));
#549=CARTESIAN_POINT('',(0.024116732568426,0.038687375912095,0.00254));
#550=CARTESIAN_POINT('',(0.024116732568426,0.038687375912095,0.));
#551=CARTESIAN_POINT('',(0.00635,0.0393741173784924,0.));
#552=CARTESIAN_POINT('',(0.00635,0.0393741173784924,0.00254));
#553=CARTESIAN_POINT('',(0.00635,0.0393741173784924,0.00254));
#554=CARTESIAN_POINT('',(0.024116732568426,0.038687375912095,0.00254));
#555=CARTESIAN_POINT('',(0.,0.0393741173784924,0.00254));
#556=CARTESIAN_POINT('',(0.,0.0393741173784924,0.));
#557=CARTESIAN_POINT('',(0.,0.0393741173784924,0.00254));
#558=CARTESIAN_POINT('',(0.000970422955284482,0.0281061657949825,0.00254));
#559=CARTESIAN_POINT('',(-0.0117172124861976,0.0168382142114726,0.00254));
#560=CARTESIAN_POINT('',(-0.0098122124861976,0.0168382142114726,0.00254));
#561=CARTESIAN_POINT('',(-2.88668828424265E-18,0.0393741173784924,0.00254));
#562=CARTESIAN_POINT('',(0.001905,0.0393741173784924,0.00254));
#563=CARTESIAN_POINT('',(0.0136580583967666,0.0179587621203951,0.00254));
#564=CARTESIAN_POINT('',(0.0155630583967666,0.0179587621203951,0.00254));
#565=CARTESIAN_POINT('',(0.000970422955284482,0.0281061657949825,0.));
#566=CARTESIAN_POINT('',(-0.0117172124861976,0.0168382142114726,0.0254));
#567=CARTESIAN_POINT('',(-0.0117172124861976,0.0168382142114726,0.0254));
#568=CARTESIAN_POINT('',(-0.0098122124861976,0.0168382142114726,0.0254));
#569=CARTESIAN_POINT('',(-2.88668828424265E-18,0.0393741173784924,0.02159));
#570=CARTESIAN_POINT('',(-2.88668828424265E-18,0.0393741173784924,0.02159));
#571=CARTESIAN_POINT('',(0.001905,0.0393741173784924,0.02159));
#572=CARTESIAN_POINT('',(0.0136580583967666,0.0179587621203951,0.01905));
#573=CARTESIAN_POINT('',(0.0136580583967666,0.0179587621203951,0.01905));
#574=CARTESIAN_POINT('',(0.0155630583967666,0.0179587621203951,0.01905));
#575=CARTESIAN_POINT('',(0.0136580583967666,0.0179587621203951,0.01905));
#576=CARTESIAN_POINT('',(0.0136580583967666,0.0179587621203951,0.01905));
#577=CARTESIAN_POINT('',(0.0263580583967666,0.0179587621203951,0.01905));
#578=CARTESIAN_POINT('',(0.0136580583967666,0.0179587621203951,0.02032));
#579=CARTESIAN_POINT('',(0.0136580583967666,0.0179587621203951,0.02032));
#580=CARTESIAN_POINT('',(0.0263580583967666,0.0179587621203951,0.02032));
#581=CARTESIAN_POINT('',(0.0136580583967666,0.0179587621203951,0.02032));
#582=CARTESIAN_POINT('',(0.0136580583967666,0.0179587621203951,0.02032));
#583=CARTESIAN_POINT('',(0.0142930583967666,0.0179587621203951,0.02032));
#584=CARTESIAN_POINT('',(0.0136580583967666,0.0179587621203951,0.01905));
#585=CARTESIAN_POINT('',(0.0142930583967666,0.0179587621203951,0.01905));
#586=CARTESIAN_POINT('',(0.0136580583967666,0.0179587621203951,0.02032));
#587=CARTESIAN_POINT('',(-3.46944695195361E-18,0.0393741173784924,0.02159));
#588=CARTESIAN_POINT('',(-3.46944695195361E-18,0.0393741173784924,0.02159));
#589=CARTESIAN_POINT('',(0.0127,0.0393741173784924,0.02159));
#590=CARTESIAN_POINT('',(-3.46944695195361E-18,0.0393741173784924,0.02286));
#591=CARTESIAN_POINT('',(-3.46944695195361E-18,0.0393741173784924,0.02286));
#592=CARTESIAN_POINT('',(0.0127,0.0393741173784924,0.02286));
#593=CARTESIAN_POINT('',(-2.92734586571086E-18,0.0393741173784924,0.02286));
#594=CARTESIAN_POINT('',(-2.92734586571086E-18,0.0393741173784924,0.02286));
#595=CARTESIAN_POINT('',(0.000634999999999997,0.0393741173784924,0.02286));
#596=CARTESIAN_POINT('',(-2.92734586571086E-18,0.0393741173784924,0.02159));
#597=CARTESIAN_POINT('',(0.000634999999999997,0.0393741173784924,0.02159));
#598=CARTESIAN_POINT('',(-3.46944695195361E-18,0.0393741173784924,0.02286));
#599=CARTESIAN_POINT('',(-0.0117172124861976,0.0168382142114726,0.0254));
#600=CARTESIAN_POINT('',(-0.0117172124861976,0.0168382142114726,0.0254));
#601=CARTESIAN_POINT('',(0.000982787513802401,0.0168382142114726,0.0254));
#602=CARTESIAN_POINT('',(-0.0117172124861976,0.0168382142114726,0.02667));
#603=CARTESIAN_POINT('',(-0.0117172124861976,0.0168382142114726,0.02667));
#604=CARTESIAN_POINT('',(0.000982787513802401,0.0168382142114726,0.02667));
#605=CARTESIAN_POINT('',(-0.0117172124861976,0.0168382142114726,0.02667));
#606=CARTESIAN_POINT('',(-0.0117172124861976,0.0168382142114726,0.02667));
#607=CARTESIAN_POINT('',(-0.0110822124861976,0.0168382142114726,0.02667));
#608=CARTESIAN_POINT('',(-0.0117172124861976,0.0168382142114726,0.0254));
#609=CARTESIAN_POINT('',(-0.0110822124861976,0.0168382142114726,0.0254));
#610=CARTESIAN_POINT('',(-0.0117172124861976,0.0168382142114726,0.02667));
#611=CARTESIAN_POINT('',(0.000970422955284482,0.0281061657949825,0.01905));
#612=CARTESIAN_POINT('',(0.000970422955284482,0.0281061657949825,0.02159));
#613=CARTESIAN_POINT('',(0.000970422955284482,0.0281061657949825,0.0254));
#614=MECHANICAL_DESIGN_GEOMETRIC_PRESENTATION_REPRESENTATION('',(#333),
#615);
#615=(
GEOMETRIC_REPRESENTATION_CONTEXT(3)
GLOBAL_UNCERTAINTY_ASSIGNED_CONTEXT((#616))
GLOBAL_UNIT_ASSIGNED_CONTEXT((#619,#618,#617))
REPRESENTATION_CONTEXT('Part 1','TOP_LEVEL_ASSEMBLY_PART')
);
#616=UNCERTAINTY_MEASURE_WITH_UNIT(LENGTH_MEASURE(1.E-8),#619,
'DISTANCE_ACCURACY_VALUE','Maximum Tolerance applied to model');
#617=(
NAMED_UNIT(*)
SI_UNIT($,.STERADIAN.)
SOLID_ANGLE_UNIT()
);
#618=(
NAMED_UNIT(*)
PLANE_ANGLE_UNIT()
SI_UNIT($,.RADIAN.)
);
#619=(
LENGTH_UNIT()
NAMED_UNIT(*)
SI_UNIT($,.METRE.)
);
#620=PRODUCT_DEFINITION_SHAPE('','',#621);
#621=PRODUCT_DEFINITION('','',#623,#622);
#622=PRODUCT_DEFINITION_CONTEXT('',#629,'design');
#623=PRODUCT_DEFINITION_FORMATION_WITH_SPECIFIED_SOURCE('','',#625,
 .NOT_KNOWN.);
#624=PRODUCT_RELATED_PRODUCT_CATEGORY('','',(#625));
#625=PRODUCT('Part 1','Part 1','Part 1',(#627));
#626=PRODUCT_CATEGORY('','');
#627=PRODUCT_CONTEXT('',#629,'mechanical');
#628=APPLICATION_PROTOCOL_DEFINITION('international standard',
'ap242_managed_model_based_3d_engineering',2020,#629);
#629=APPLICATION_CONTEXT('managed model based 3d engineering');
ENDSEC;
END-ISO-10303-21;
