ISO-10303-21;
HEADER;
/* Generated by software containing ST-Developer
 * from STEP Tools, Inc. (www.steptools.com) 
 */
/* OPTION: using custom renumber hook */

FILE_DESCRIPTION(
/* description */ ('STEP AP242 Edition 2',
'CAx-IF Rec.Pracs.---Representation and Presentation of Product Manufa
cturing Information (PMI)---4.0---2014-10-13',
'CAx-IF Rec.Pracs.---3D Tessellated Geometry---0.4---2014-09-14','2;1',
'CAx-IF Rec.Pracs.---User Defined Attributes---1.5---2016-08-15'),
/* implementation_level */ '2;1');

FILE_NAME(
/* name */ 'tv',
/* time_stamp */ '2026-09-08T02:27:01Z',
/* author */ (''),
/* organization */ (''),
/* preprocessor_version */ 'ST-DEVELOPER v20',
/* originating_system */ 'ONSHAPE BY PTC INC, 1.220',
/* authorisation */ '  ');

FILE_SCHEMA (('AP242_MANAGED_MODEL_BASED_3D_ENGINEERING_MIM_LF { 1 0 10303 442 3 1 4 }'));
ENDSEC;

DATA;
#10=SHAPE_REPRESENTATION_RELATIONSHIP('','',#793,#11);
#11=ADVANCED_BREP_SHAPE_REPRESENTATION('',(#791),#1277);
#12=CYLINDRICAL_SURFACE('',#827,0.00189805077388883);
#13=CYLINDRICAL_SURFACE('',#830,0.00230219308287784);
#14=CYLINDRICAL_SURFACE('',#834,0.000190500000000007);
#15=CYLINDRICAL_SURFACE('',#838,0.00230219308287784);
#16=CYLINDRICAL_SURFACE('',#841,0.00230219308287784);
#17=CYLINDRICAL_SURFACE('',#845,0.000190500000000006);
#18=CIRCLE('',#797,0.00189805077388883);
#19=CIRCLE('',#828,0.00189805077388883);
#20=CIRCLE('',#831,0.00230219308287784);
#21=CIRCLE('',#832,0.00230219308287784);
#22=CIRCLE('',#835,0.000190500000000007);
#23=CIRCLE('',#836,0.000190500000000007);
#24=CIRCLE('',#839,0.00230219308287784);
#25=CIRCLE('',#840,0.00230219308287784);
#26=CIRCLE('',#842,0.00230219308287784);
#27=CIRCLE('',#843,0.00230219308287784);
#28=CIRCLE('',#846,0.000190500000000006);
#29=CIRCLE('',#847,0.000190500000000006);
#30=ORIENTED_EDGE('',*,*,#238,.F.);
#31=ORIENTED_EDGE('',*,*,#239,.F.);
#32=ORIENTED_EDGE('',*,*,#240,.T.);
#33=ORIENTED_EDGE('',*,*,#241,.T.);
#34=ORIENTED_EDGE('',*,*,#242,.T.);
#35=ORIENTED_EDGE('',*,*,#243,.T.);
#36=ORIENTED_EDGE('',*,*,#244,.F.);
#37=ORIENTED_EDGE('',*,*,#245,.F.);
#38=ORIENTED_EDGE('',*,*,#246,.F.);
#39=ORIENTED_EDGE('',*,*,#247,.T.);
#40=ORIENTED_EDGE('',*,*,#248,.F.);
#41=ORIENTED_EDGE('',*,*,#240,.F.);
#42=ORIENTED_EDGE('',*,*,#249,.T.);
#43=ORIENTED_EDGE('',*,*,#250,.F.);
#44=ORIENTED_EDGE('',*,*,#251,.T.);
#45=ORIENTED_EDGE('',*,*,#252,.T.);
#46=ORIENTED_EDGE('',*,*,#253,.F.);
#47=ORIENTED_EDGE('',*,*,#254,.F.);
#48=ORIENTED_EDGE('',*,*,#255,.T.);
#49=ORIENTED_EDGE('',*,*,#256,.T.);
#50=ORIENTED_EDGE('',*,*,#257,.F.);
#51=ORIENTED_EDGE('',*,*,#258,.F.);
#52=ORIENTED_EDGE('',*,*,#259,.T.);
#53=ORIENTED_EDGE('',*,*,#260,.T.);
#54=ORIENTED_EDGE('',*,*,#261,.F.);
#55=ORIENTED_EDGE('',*,*,#262,.F.);
#56=ORIENTED_EDGE('',*,*,#263,.F.);
#57=ORIENTED_EDGE('',*,*,#264,.T.);
#58=ORIENTED_EDGE('',*,*,#265,.T.);
#59=ORIENTED_EDGE('',*,*,#266,.T.);
#60=ORIENTED_EDGE('',*,*,#267,.F.);
#61=ORIENTED_EDGE('',*,*,#247,.F.);
#62=ORIENTED_EDGE('',*,*,#268,.T.);
#63=ORIENTED_EDGE('',*,*,#269,.F.);
#64=ORIENTED_EDGE('',*,*,#270,.F.);
#65=ORIENTED_EDGE('',*,*,#271,.T.);
#66=ORIENTED_EDGE('',*,*,#272,.T.);
#67=ORIENTED_EDGE('',*,*,#273,.F.);
#68=ORIENTED_EDGE('',*,*,#241,.F.);
#69=ORIENTED_EDGE('',*,*,#248,.T.);
#70=ORIENTED_EDGE('',*,*,#267,.T.);
#71=ORIENTED_EDGE('',*,*,#274,.T.);
#72=ORIENTED_EDGE('',*,*,#268,.F.);
#73=ORIENTED_EDGE('',*,*,#249,.F.);
#74=ORIENTED_EDGE('',*,*,#239,.T.);
#75=ORIENTED_EDGE('',*,*,#266,.F.);
#76=ORIENTED_EDGE('',*,*,#274,.F.);
#77=ORIENTED_EDGE('',*,*,#238,.T.);
#78=ORIENTED_EDGE('',*,*,#273,.T.);
#79=ORIENTED_EDGE('',*,*,#275,.T.);
#80=ORIENTED_EDGE('',*,*,#276,.F.);
#81=ORIENTED_EDGE('',*,*,#277,.F.);
#82=ORIENTED_EDGE('',*,*,#263,.T.);
#83=ORIENTED_EDGE('',*,*,#278,.T.);
#84=ORIENTED_EDGE('',*,*,#279,.F.);
#85=ORIENTED_EDGE('',*,*,#280,.F.);
#86=ORIENTED_EDGE('',*,*,#276,.T.);
#87=ORIENTED_EDGE('',*,*,#281,.F.);
#88=ORIENTED_EDGE('',*,*,#265,.F.);
#89=ORIENTED_EDGE('',*,*,#282,.T.);
#90=ORIENTED_EDGE('',*,*,#279,.T.);
#91=ORIENTED_EDGE('',*,*,#264,.F.);
#92=ORIENTED_EDGE('',*,*,#277,.T.);
#93=ORIENTED_EDGE('',*,*,#280,.T.);
#94=ORIENTED_EDGE('',*,*,#282,.F.);
#95=ORIENTED_EDGE('',*,*,#262,.T.);
#96=ORIENTED_EDGE('',*,*,#281,.T.);
#97=ORIENTED_EDGE('',*,*,#278,.F.);
#98=ORIENTED_EDGE('',*,*,#275,.F.);
#99=ORIENTED_EDGE('',*,*,#283,.T.);
#100=ORIENTED_EDGE('',*,*,#284,.F.);
#101=ORIENTED_EDGE('',*,*,#285,.F.);
#102=ORIENTED_EDGE('',*,*,#270,.T.);
#103=ORIENTED_EDGE('',*,*,#286,.T.);
#104=ORIENTED_EDGE('',*,*,#287,.F.);
#105=ORIENTED_EDGE('',*,*,#288,.F.);
#106=ORIENTED_EDGE('',*,*,#284,.T.);
#107=ORIENTED_EDGE('',*,*,#289,.T.);
#108=ORIENTED_EDGE('',*,*,#272,.F.);
#109=ORIENTED_EDGE('',*,*,#290,.F.);
#110=ORIENTED_EDGE('',*,*,#287,.T.);
#111=ORIENTED_EDGE('',*,*,#271,.F.);
#112=ORIENTED_EDGE('',*,*,#285,.T.);
#113=ORIENTED_EDGE('',*,*,#288,.T.);
#114=ORIENTED_EDGE('',*,*,#290,.T.);
#115=ORIENTED_EDGE('',*,*,#269,.T.);
#116=ORIENTED_EDGE('',*,*,#289,.F.);
#117=ORIENTED_EDGE('',*,*,#286,.F.);
#118=ORIENTED_EDGE('',*,*,#283,.F.);
#119=ORIENTED_EDGE('',*,*,#291,.T.);
#120=ORIENTED_EDGE('',*,*,#292,.F.);
#121=ORIENTED_EDGE('',*,*,#293,.F.);
#122=ORIENTED_EDGE('',*,*,#258,.T.);
#123=ORIENTED_EDGE('',*,*,#294,.T.);
#124=ORIENTED_EDGE('',*,*,#295,.F.);
#125=ORIENTED_EDGE('',*,*,#296,.F.);
#126=ORIENTED_EDGE('',*,*,#292,.T.);
#127=ORIENTED_EDGE('',*,*,#297,.F.);
#128=ORIENTED_EDGE('',*,*,#260,.F.);
#129=ORIENTED_EDGE('',*,*,#298,.T.);
#130=ORIENTED_EDGE('',*,*,#295,.T.);
#131=ORIENTED_EDGE('',*,*,#259,.F.);
#132=ORIENTED_EDGE('',*,*,#293,.T.);
#133=ORIENTED_EDGE('',*,*,#296,.T.);
#134=ORIENTED_EDGE('',*,*,#298,.F.);
#135=ORIENTED_EDGE('',*,*,#261,.T.);
#136=ORIENTED_EDGE('',*,*,#297,.T.);
#137=ORIENTED_EDGE('',*,*,#294,.F.);
#138=ORIENTED_EDGE('',*,*,#291,.F.);
#139=ORIENTED_EDGE('',*,*,#299,.T.);
#140=ORIENTED_EDGE('',*,*,#300,.F.);
#141=ORIENTED_EDGE('',*,*,#301,.F.);
#142=ORIENTED_EDGE('',*,*,#254,.T.);
#143=ORIENTED_EDGE('',*,*,#302,.T.);
#144=ORIENTED_EDGE('',*,*,#303,.F.);
#145=ORIENTED_EDGE('',*,*,#304,.F.);
#146=ORIENTED_EDGE('',*,*,#300,.T.);
#147=ORIENTED_EDGE('',*,*,#305,.T.);
#148=ORIENTED_EDGE('',*,*,#256,.F.);
#149=ORIENTED_EDGE('',*,*,#306,.F.);
#150=ORIENTED_EDGE('',*,*,#303,.T.);
#151=ORIENTED_EDGE('',*,*,#255,.F.);
#152=ORIENTED_EDGE('',*,*,#301,.T.);
#153=ORIENTED_EDGE('',*,*,#304,.T.);
#154=ORIENTED_EDGE('',*,*,#306,.T.);
#155=ORIENTED_EDGE('',*,*,#257,.T.);
#156=ORIENTED_EDGE('',*,*,#305,.F.);
#157=ORIENTED_EDGE('',*,*,#302,.F.);
#158=ORIENTED_EDGE('',*,*,#299,.F.);
#159=ORIENTED_EDGE('',*,*,#251,.F.);
#160=ORIENTED_EDGE('',*,*,#307,.F.);
#161=ORIENTED_EDGE('',*,*,#308,.T.);
#162=ORIENTED_EDGE('',*,*,#309,.T.);
#163=ORIENTED_EDGE('',*,*,#250,.T.);
#164=ORIENTED_EDGE('',*,*,#310,.F.);
#165=ORIENTED_EDGE('',*,*,#311,.F.);
#166=ORIENTED_EDGE('',*,*,#307,.T.);
#167=ORIENTED_EDGE('',*,*,#253,.T.);
#168=ORIENTED_EDGE('',*,*,#312,.F.);
#169=ORIENTED_EDGE('',*,*,#313,.F.);
#170=ORIENTED_EDGE('',*,*,#310,.T.);
#171=ORIENTED_EDGE('',*,*,#252,.F.);
#172=ORIENTED_EDGE('',*,*,#309,.F.);
#173=ORIENTED_EDGE('',*,*,#314,.T.);
#174=ORIENTED_EDGE('',*,*,#312,.T.);
#175=ORIENTED_EDGE('',*,*,#308,.F.);
#176=ORIENTED_EDGE('',*,*,#311,.T.);
#177=ORIENTED_EDGE('',*,*,#313,.T.);
#178=ORIENTED_EDGE('',*,*,#314,.F.);
#179=ORIENTED_EDGE('',*,*,#315,.F.);
#180=ORIENTED_EDGE('',*,*,#246,.T.);
#181=ORIENTED_EDGE('',*,*,#315,.T.);
#182=ORIENTED_EDGE('',*,*,#316,.T.);
#183=ORIENTED_EDGE('',*,*,#317,.F.);
#184=ORIENTED_EDGE('',*,*,#318,.F.);
#185=ORIENTED_EDGE('',*,*,#319,.T.);
#186=ORIENTED_EDGE('',*,*,#320,.F.);
#187=ORIENTED_EDGE('',*,*,#321,.F.);
#188=ORIENTED_EDGE('',*,*,#322,.T.);
#189=ORIENTED_EDGE('',*,*,#317,.T.);
#190=ORIENTED_EDGE('',*,*,#323,.T.);
#191=ORIENTED_EDGE('',*,*,#324,.F.);
#192=ORIENTED_EDGE('',*,*,#325,.F.);
#193=ORIENTED_EDGE('',*,*,#321,.T.);
#194=ORIENTED_EDGE('',*,*,#326,.F.);
#195=ORIENTED_EDGE('',*,*,#327,.F.);
#196=ORIENTED_EDGE('',*,*,#328,.T.);
#197=ORIENTED_EDGE('',*,*,#324,.T.);
#198=ORIENTED_EDGE('',*,*,#329,.T.);
#199=ORIENTED_EDGE('',*,*,#242,.F.);
#200=ORIENTED_EDGE('',*,*,#330,.F.);
#201=ORIENTED_EDGE('',*,*,#327,.T.);
#202=ORIENTED_EDGE('',*,*,#331,.T.);
#203=ORIENTED_EDGE('',*,*,#332,.F.);
#204=ORIENTED_EDGE('',*,*,#333,.F.);
#205=ORIENTED_EDGE('',*,*,#244,.T.);
#206=ORIENTED_EDGE('',*,*,#334,.F.);
#207=ORIENTED_EDGE('',*,*,#335,.F.);
#208=ORIENTED_EDGE('',*,*,#336,.T.);
#209=ORIENTED_EDGE('',*,*,#332,.T.);
#210=ORIENTED_EDGE('',*,*,#337,.T.);
#211=ORIENTED_EDGE('',*,*,#338,.F.);
#212=ORIENTED_EDGE('',*,*,#339,.F.);
#213=ORIENTED_EDGE('',*,*,#335,.T.);
#214=ORIENTED_EDGE('',*,*,#340,.F.);
#215=ORIENTED_EDGE('',*,*,#319,.F.);
#216=ORIENTED_EDGE('',*,*,#341,.T.);
#217=ORIENTED_EDGE('',*,*,#338,.T.);
#218=ORIENTED_EDGE('',*,*,#318,.T.);
#219=ORIENTED_EDGE('',*,*,#322,.F.);
#220=ORIENTED_EDGE('',*,*,#325,.T.);
#221=ORIENTED_EDGE('',*,*,#328,.F.);
#222=ORIENTED_EDGE('',*,*,#330,.T.);
#223=ORIENTED_EDGE('',*,*,#245,.T.);
#224=ORIENTED_EDGE('',*,*,#333,.T.);
#225=ORIENTED_EDGE('',*,*,#336,.F.);
#226=ORIENTED_EDGE('',*,*,#339,.T.);
#227=ORIENTED_EDGE('',*,*,#341,.F.);
#228=ORIENTED_EDGE('',*,*,#316,.F.);
#229=ORIENTED_EDGE('',*,*,#340,.T.);
#230=ORIENTED_EDGE('',*,*,#337,.F.);
#231=ORIENTED_EDGE('',*,*,#334,.T.);
#232=ORIENTED_EDGE('',*,*,#331,.F.);
#233=ORIENTED_EDGE('',*,*,#243,.F.);
#234=ORIENTED_EDGE('',*,*,#329,.F.);
#235=ORIENTED_EDGE('',*,*,#326,.T.);
#236=ORIENTED_EDGE('',*,*,#323,.F.);
#237=ORIENTED_EDGE('',*,*,#320,.T.);
#238=EDGE_CURVE('',#342,#343,#412,.T.);
#239=EDGE_CURVE('',#344,#342,#413,.T.);
#240=EDGE_CURVE('',#344,#345,#414,.T.);
#241=EDGE_CURVE('',#345,#343,#415,.T.);
#242=EDGE_CURVE('',#346,#347,#416,.T.);
#243=EDGE_CURVE('',#347,#348,#417,.T.);
#244=EDGE_CURVE('',#349,#348,#418,.T.);
#245=EDGE_CURVE('',#346,#349,#419,.T.);
#246=EDGE_CURVE('',#350,#350,#18,.T.);
#247=EDGE_CURVE('',#351,#352,#420,.T.);
#248=EDGE_CURVE('',#345,#352,#421,.T.);
#249=EDGE_CURVE('',#344,#351,#422,.T.);
#250=EDGE_CURVE('',#353,#354,#423,.T.);
#251=EDGE_CURVE('',#353,#355,#424,.T.);
#252=EDGE_CURVE('',#355,#356,#425,.T.);
#253=EDGE_CURVE('',#354,#356,#426,.T.);
#254=EDGE_CURVE('',#357,#358,#427,.T.);
#255=EDGE_CURVE('',#357,#359,#428,.T.);
#256=EDGE_CURVE('',#359,#360,#429,.T.);
#257=EDGE_CURVE('',#358,#360,#430,.T.);
#258=EDGE_CURVE('',#361,#362,#431,.T.);
#259=EDGE_CURVE('',#361,#363,#432,.T.);
#260=EDGE_CURVE('',#363,#364,#433,.T.);
#261=EDGE_CURVE('',#362,#364,#434,.T.);
#262=EDGE_CURVE('',#365,#366,#435,.T.);
#263=EDGE_CURVE('',#367,#365,#436,.T.);
#264=EDGE_CURVE('',#367,#368,#437,.T.);
#265=EDGE_CURVE('',#368,#366,#438,.T.);
#266=EDGE_CURVE('',#369,#370,#439,.T.);
#267=EDGE_CURVE('',#352,#370,#440,.T.);
#268=EDGE_CURVE('',#351,#369,#441,.T.);
#269=EDGE_CURVE('',#371,#372,#442,.T.);
#270=EDGE_CURVE('',#373,#371,#443,.T.);
#271=EDGE_CURVE('',#373,#374,#444,.T.);
#272=EDGE_CURVE('',#374,#372,#445,.T.);
#273=EDGE_CURVE('',#343,#370,#446,.T.);
#274=EDGE_CURVE('',#342,#369,#447,.T.);
#275=EDGE_CURVE('',#365,#375,#448,.T.);
#276=EDGE_CURVE('',#376,#375,#449,.T.);
#277=EDGE_CURVE('',#367,#376,#450,.T.);
#278=EDGE_CURVE('',#375,#377,#451,.T.);
#279=EDGE_CURVE('',#378,#377,#452,.T.);
#280=EDGE_CURVE('',#376,#378,#453,.T.);
#281=EDGE_CURVE('',#366,#377,#454,.T.);
#282=EDGE_CURVE('',#368,#378,#455,.T.);
#283=EDGE_CURVE('',#371,#379,#456,.T.);
#284=EDGE_CURVE('',#380,#379,#457,.T.);
#285=EDGE_CURVE('',#373,#380,#458,.T.);
#286=EDGE_CURVE('',#379,#381,#459,.T.);
#287=EDGE_CURVE('',#382,#381,#460,.T.);
#288=EDGE_CURVE('',#380,#382,#461,.T.);
#289=EDGE_CURVE('',#381,#372,#462,.T.);
#290=EDGE_CURVE('',#382,#374,#463,.T.);
#291=EDGE_CURVE('',#362,#383,#464,.T.);
#292=EDGE_CURVE('',#384,#383,#465,.T.);
#293=EDGE_CURVE('',#361,#384,#466,.T.);
#294=EDGE_CURVE('',#383,#385,#467,.T.);
#295=EDGE_CURVE('',#386,#385,#468,.T.);
#296=EDGE_CURVE('',#384,#386,#469,.T.);
#297=EDGE_CURVE('',#364,#385,#470,.T.);
#298=EDGE_CURVE('',#363,#386,#471,.T.);
#299=EDGE_CURVE('',#358,#387,#472,.T.);
#300=EDGE_CURVE('',#388,#387,#473,.T.);
#301=EDGE_CURVE('',#357,#388,#474,.T.);
#302=EDGE_CURVE('',#387,#389,#475,.T.);
#303=EDGE_CURVE('',#390,#389,#476,.T.);
#304=EDGE_CURVE('',#388,#390,#477,.T.);
#305=EDGE_CURVE('',#389,#360,#478,.T.);
#306=EDGE_CURVE('',#390,#359,#479,.T.);
#307=EDGE_CURVE('',#391,#353,#480,.T.);
#308=EDGE_CURVE('',#391,#392,#481,.T.);
#309=EDGE_CURVE('',#392,#355,#482,.T.);
#310=EDGE_CURVE('',#393,#354,#483,.T.);
#311=EDGE_CURVE('',#391,#393,#484,.T.);
#312=EDGE_CURVE('',#394,#356,#485,.T.);
#313=EDGE_CURVE('',#393,#394,#486,.T.);
#314=EDGE_CURVE('',#392,#394,#487,.T.);
#315=EDGE_CURVE('',#395,#395,#19,.T.);
#316=EDGE_CURVE('',#396,#397,#20,.T.);
#317=EDGE_CURVE('',#398,#397,#488,.T.);
#318=EDGE_CURVE('',#399,#398,#21,.T.);
#319=EDGE_CURVE('',#399,#396,#489,.T.);
#320=EDGE_CURVE('',#400,#397,#490,.T.);
#321=EDGE_CURVE('',#401,#400,#491,.T.);
#322=EDGE_CURVE('',#401,#398,#492,.T.);
#323=EDGE_CURVE('',#400,#402,#22,.T.);
#324=EDGE_CURVE('',#403,#402,#493,.T.);
#325=EDGE_CURVE('',#401,#403,#23,.T.);
#326=EDGE_CURVE('',#404,#402,#494,.T.);
#327=EDGE_CURVE('',#405,#404,#495,.T.);
#328=EDGE_CURVE('',#405,#403,#496,.T.);
#329=EDGE_CURVE('',#404,#347,#24,.T.);
#330=EDGE_CURVE('',#405,#346,#25,.T.);
#331=EDGE_CURVE('',#348,#406,#26,.T.);
#332=EDGE_CURVE('',#407,#406,#497,.T.);
#333=EDGE_CURVE('',#349,#407,#27,.T.);
#334=EDGE_CURVE('',#408,#406,#498,.T.);
#335=EDGE_CURVE('',#409,#408,#499,.T.);
#336=EDGE_CURVE('',#409,#407,#500,.T.);
#337=EDGE_CURVE('',#408,#410,#28,.T.);
#338=EDGE_CURVE('',#411,#410,#501,.T.);
#339=EDGE_CURVE('',#409,#411,#29,.T.);
#340=EDGE_CURVE('',#396,#410,#502,.T.);
#341=EDGE_CURVE('',#399,#411,#503,.T.);
#342=VERTEX_POINT('',#1060);
#343=VERTEX_POINT('',#1061);
#344=VERTEX_POINT('',#1063);
#345=VERTEX_POINT('',#1065);
#346=VERTEX_POINT('',#1068);
#347=VERTEX_POINT('',#1069);
#348=VERTEX_POINT('',#1071);
#349=VERTEX_POINT('',#1073);
#350=VERTEX_POINT('',#1077);
#351=VERTEX_POINT('',#1079);
#352=VERTEX_POINT('',#1080);
#353=VERTEX_POINT('',#1084);
#354=VERTEX_POINT('',#1085);
#355=VERTEX_POINT('',#1087);
#356=VERTEX_POINT('',#1089);
#357=VERTEX_POINT('',#1093);
#358=VERTEX_POINT('',#1094);
#359=VERTEX_POINT('',#1096);
#360=VERTEX_POINT('',#1098);
#361=VERTEX_POINT('',#1101);
#362=VERTEX_POINT('',#1102);
#363=VERTEX_POINT('',#1104);
#364=VERTEX_POINT('',#1106);
#365=VERTEX_POINT('',#1109);
#366=VERTEX_POINT('',#1110);
#367=VERTEX_POINT('',#1112);
#368=VERTEX_POINT('',#1114);
#369=VERTEX_POINT('',#1117);
#370=VERTEX_POINT('',#1118);
#371=VERTEX_POINT('',#1122);
#372=VERTEX_POINT('',#1123);
#373=VERTEX_POINT('',#1125);
#374=VERTEX_POINT('',#1127);
#375=VERTEX_POINT('',#1136);
#376=VERTEX_POINT('',#1138);
#377=VERTEX_POINT('',#1142);
#378=VERTEX_POINT('',#1144);
#379=VERTEX_POINT('',#1153);
#380=VERTEX_POINT('',#1155);
#381=VERTEX_POINT('',#1159);
#382=VERTEX_POINT('',#1161);
#383=VERTEX_POINT('',#1170);
#384=VERTEX_POINT('',#1172);
#385=VERTEX_POINT('',#1176);
#386=VERTEX_POINT('',#1178);
#387=VERTEX_POINT('',#1187);
#388=VERTEX_POINT('',#1189);
#389=VERTEX_POINT('',#1193);
#390=VERTEX_POINT('',#1195);
#391=VERTEX_POINT('',#1204);
#392=VERTEX_POINT('',#1206);
#393=VERTEX_POINT('',#1210);
#394=VERTEX_POINT('',#1214);
#395=VERTEX_POINT('',#1221);
#396=VERTEX_POINT('',#1225);
#397=VERTEX_POINT('',#1226);
#398=VERTEX_POINT('',#1228);
#399=VERTEX_POINT('',#1230);
#400=VERTEX_POINT('',#1234);
#401=VERTEX_POINT('',#1236);
#402=VERTEX_POINT('',#1240);
#403=VERTEX_POINT('',#1242);
#404=VERTEX_POINT('',#1246);
#405=VERTEX_POINT('',#1248);
#406=VERTEX_POINT('',#1255);
#407=VERTEX_POINT('',#1257);
#408=VERTEX_POINT('',#1261);
#409=VERTEX_POINT('',#1263);
#410=VERTEX_POINT('',#1267);
#411=VERTEX_POINT('',#1269);
#412=LINE('',#1059,#504);
#413=LINE('',#1062,#505);
#414=LINE('',#1064,#506);
#415=LINE('',#1066,#507);
#416=LINE('',#1067,#508);
#417=LINE('',#1070,#509);
#418=LINE('',#1072,#510);
#419=LINE('',#1074,#511);
#420=LINE('',#1078,#512);
#421=LINE('',#1081,#513);
#422=LINE('',#1082,#514);
#423=LINE('',#1083,#515);
#424=LINE('',#1086,#516);
#425=LINE('',#1088,#517);
#426=LINE('',#1090,#518);
#427=LINE('',#1092,#519);
#428=LINE('',#1095,#520);
#429=LINE('',#1097,#521);
#430=LINE('',#1099,#522);
#431=LINE('',#1100,#523);
#432=LINE('',#1103,#524);
#433=LINE('',#1105,#525);
#434=LINE('',#1107,#526);
#435=LINE('',#1108,#527);
#436=LINE('',#1111,#528);
#437=LINE('',#1113,#529);
#438=LINE('',#1115,#530);
#439=LINE('',#1116,#531);
#440=LINE('',#1119,#532);
#441=LINE('',#1120,#533);
#442=LINE('',#1121,#534);
#443=LINE('',#1124,#535);
#444=LINE('',#1126,#536);
#445=LINE('',#1128,#537);
#446=LINE('',#1130,#538);
#447=LINE('',#1132,#539);
#448=LINE('',#1135,#540);
#449=LINE('',#1137,#541);
#450=LINE('',#1139,#542);
#451=LINE('',#1141,#543);
#452=LINE('',#1143,#544);
#453=LINE('',#1145,#545);
#454=LINE('',#1147,#546);
#455=LINE('',#1148,#547);
#456=LINE('',#1152,#548);
#457=LINE('',#1154,#549);
#458=LINE('',#1156,#550);
#459=LINE('',#1158,#551);
#460=LINE('',#1160,#552);
#461=LINE('',#1162,#553);
#462=LINE('',#1164,#554);
#463=LINE('',#1165,#555);
#464=LINE('',#1169,#556);
#465=LINE('',#1171,#557);
#466=LINE('',#1173,#558);
#467=LINE('',#1175,#559);
#468=LINE('',#1177,#560);
#469=LINE('',#1179,#561);
#470=LINE('',#1181,#562);
#471=LINE('',#1182,#563);
#472=LINE('',#1186,#564);
#473=LINE('',#1188,#565);
#474=LINE('',#1190,#566);
#475=LINE('',#1192,#567);
#476=LINE('',#1194,#568);
#477=LINE('',#1196,#569);
#478=LINE('',#1198,#570);
#479=LINE('',#1199,#571);
#480=LINE('',#1203,#572);
#481=LINE('',#1205,#573);
#482=LINE('',#1207,#574);
#483=LINE('',#1209,#575);
#484=LINE('',#1211,#576);
#485=LINE('',#1213,#577);
#486=LINE('',#1215,#578);
#487=LINE('',#1217,#579);
#488=LINE('',#1227,#580);
#489=LINE('',#1231,#581);
#490=LINE('',#1233,#582);
#491=LINE('',#1235,#583);
#492=LINE('',#1237,#584);
#493=LINE('',#1241,#585);
#494=LINE('',#1245,#586);
#495=LINE('',#1247,#587);
#496=LINE('',#1249,#588);
#497=LINE('',#1256,#589);
#498=LINE('',#1260,#590);
#499=LINE('',#1262,#591);
#500=LINE('',#1264,#592);
#501=LINE('',#1268,#593);
#502=LINE('',#1272,#594);
#503=LINE('',#1273,#595);
#504=VECTOR('',#855,1.);
#505=VECTOR('',#856,1.);
#506=VECTOR('',#857,1.);
#507=VECTOR('',#858,1.);
#508=VECTOR('',#859,1.);
#509=VECTOR('',#860,1.);
#510=VECTOR('',#861,1.);
#511=VECTOR('',#862,1.);
#512=VECTOR('',#867,1.);
#513=VECTOR('',#868,1.);
#514=VECTOR('',#869,1.);
#515=VECTOR('',#870,1.);
#516=VECTOR('',#871,1.);
#517=VECTOR('',#872,1.);
#518=VECTOR('',#873,1.);
#519=VECTOR('',#876,1.);
#520=VECTOR('',#877,1.);
#521=VECTOR('',#878,1.);
#522=VECTOR('',#879,1.);
#523=VECTOR('',#880,1.);
#524=VECTOR('',#881,1.);
#525=VECTOR('',#882,1.);
#526=VECTOR('',#883,1.);
#527=VECTOR('',#884,1.);
#528=VECTOR('',#885,1.);
#529=VECTOR('',#886,1.);
#530=VECTOR('',#887,1.);
#531=VECTOR('',#888,1.);
#532=VECTOR('',#889,1.);
#533=VECTOR('',#890,1.);
#534=VECTOR('',#891,1.);
#535=VECTOR('',#892,1.);
#536=VECTOR('',#893,1.);
#537=VECTOR('',#894,1.);
#538=VECTOR('',#897,1.);
#539=VECTOR('',#900,1.);
#540=VECTOR('',#905,1.);
#541=VECTOR('',#906,1.);
#542=VECTOR('',#907,1.);
#543=VECTOR('',#910,1.);
#544=VECTOR('',#911,1.);
#545=VECTOR('',#912,1.);
#546=VECTOR('',#915,1.);
#547=VECTOR('',#916,1.);
#548=VECTOR('',#923,1.);
#549=VECTOR('',#924,1.);
#550=VECTOR('',#925,1.);
#551=VECTOR('',#928,1.);
#552=VECTOR('',#929,1.);
#553=VECTOR('',#930,1.);
#554=VECTOR('',#933,1.);
#555=VECTOR('',#934,1.);
#556=VECTOR('',#941,1.);
#557=VECTOR('',#942,1.);
#558=VECTOR('',#943,1.);
#559=VECTOR('',#946,1.);
#560=VECTOR('',#947,1.);
#561=VECTOR('',#948,1.);
#562=VECTOR('',#951,1.);
#563=VECTOR('',#952,1.);
#564=VECTOR('',#959,1.);
#565=VECTOR('',#960,1.);
#566=VECTOR('',#961,1.);
#567=VECTOR('',#964,1.);
#568=VECTOR('',#965,1.);
#569=VECTOR('',#966,1.);
#570=VECTOR('',#969,1.);
#571=VECTOR('',#970,1.);
#572=VECTOR('',#977,1.);
#573=VECTOR('',#978,1.);
#574=VECTOR('',#979,1.);
#575=VECTOR('',#982,1.);
#576=VECTOR('',#983,1.);
#577=VECTOR('',#986,1.);
#578=VECTOR('',#987,1.);
#579=VECTOR('',#990,1.);
#580=VECTOR('',#1003,1.);
#581=VECTOR('',#1006,1.);
#582=VECTOR('',#1009,1.);
#583=VECTOR('',#1010,1.);
#584=VECTOR('',#1011,1.);
#585=VECTOR('',#1016,1.);
#586=VECTOR('',#1021,1.);
#587=VECTOR('',#1022,1.);
#588=VECTOR('',#1023,1.);
#589=VECTOR('',#1034,1.);
#590=VECTOR('',#1039,1.);
#591=VECTOR('',#1040,1.);
#592=VECTOR('',#1041,1.);
#593=VECTOR('',#1046,1.);
#594=VECTOR('',#1051,1.);
#595=VECTOR('',#1052,1.);
#596=EDGE_LOOP('',(#30,#31,#32,#33));
#597=EDGE_LOOP('',(#34,#35,#36,#37));
#598=EDGE_LOOP('',(#38));
#599=EDGE_LOOP('',(#39,#40,#41,#42));
#600=EDGE_LOOP('',(#43,#44,#45,#46));
#601=EDGE_LOOP('',(#47,#48,#49,#50));
#602=EDGE_LOOP('',(#51,#52,#53,#54));
#603=EDGE_LOOP('',(#55,#56,#57,#58));
#604=EDGE_LOOP('',(#59,#60,#61,#62));
#605=EDGE_LOOP('',(#63,#64,#65,#66));
#606=EDGE_LOOP('',(#67,#68,#69,#70));
#607=EDGE_LOOP('',(#71,#72,#73,#74));
#608=EDGE_LOOP('',(#75,#76,#77,#78));
#609=EDGE_LOOP('',(#79,#80,#81,#82));
#610=EDGE_LOOP('',(#83,#84,#85,#86));
#611=EDGE_LOOP('',(#87,#88,#89,#90));
#612=EDGE_LOOP('',(#91,#92,#93,#94));
#613=EDGE_LOOP('',(#95,#96,#97,#98));
#614=EDGE_LOOP('',(#99,#100,#101,#102));
#615=EDGE_LOOP('',(#103,#104,#105,#106));
#616=EDGE_LOOP('',(#107,#108,#109,#110));
#617=EDGE_LOOP('',(#111,#112,#113,#114));
#618=EDGE_LOOP('',(#115,#116,#117,#118));
#619=EDGE_LOOP('',(#119,#120,#121,#122));
#620=EDGE_LOOP('',(#123,#124,#125,#126));
#621=EDGE_LOOP('',(#127,#128,#129,#130));
#622=EDGE_LOOP('',(#131,#132,#133,#134));
#623=EDGE_LOOP('',(#135,#136,#137,#138));
#624=EDGE_LOOP('',(#139,#140,#141,#142));
#625=EDGE_LOOP('',(#143,#144,#145,#146));
#626=EDGE_LOOP('',(#147,#148,#149,#150));
#627=EDGE_LOOP('',(#151,#152,#153,#154));
#628=EDGE_LOOP('',(#155,#156,#157,#158));
#629=EDGE_LOOP('',(#159,#160,#161,#162));
#630=EDGE_LOOP('',(#163,#164,#165,#166));
#631=EDGE_LOOP('',(#167,#168,#169,#170));
#632=EDGE_LOOP('',(#171,#172,#173,#174));
#633=EDGE_LOOP('',(#175,#176,#177,#178));
#634=EDGE_LOOP('',(#179));
#635=EDGE_LOOP('',(#180));
#636=EDGE_LOOP('',(#181));
#637=EDGE_LOOP('',(#182,#183,#184,#185));
#638=EDGE_LOOP('',(#186,#187,#188,#189));
#639=EDGE_LOOP('',(#190,#191,#192,#193));
#640=EDGE_LOOP('',(#194,#195,#196,#197));
#641=EDGE_LOOP('',(#198,#199,#200,#201));
#642=EDGE_LOOP('',(#202,#203,#204,#205));
#643=EDGE_LOOP('',(#206,#207,#208,#209));
#644=EDGE_LOOP('',(#210,#211,#212,#213));
#645=EDGE_LOOP('',(#214,#215,#216,#217));
#646=EDGE_LOOP('',(#218,#219,#220,#221,#222,#223,#224,#225,#226,#227));
#647=EDGE_LOOP('',(#228,#229,#230,#231,#232,#233,#234,#235,#236,#237));
#648=FACE_BOUND('',#596,.T.);
#649=FACE_BOUND('',#597,.T.);
#650=FACE_BOUND('',#598,.T.);
#651=FACE_BOUND('',#599,.T.);
#652=FACE_BOUND('',#600,.T.);
#653=FACE_BOUND('',#601,.T.);
#654=FACE_BOUND('',#602,.T.);
#655=FACE_BOUND('',#603,.T.);
#656=FACE_BOUND('',#604,.T.);
#657=FACE_BOUND('',#605,.T.);
#658=FACE_BOUND('',#606,.T.);
#659=FACE_BOUND('',#607,.T.);
#660=FACE_BOUND('',#608,.T.);
#661=FACE_BOUND('',#609,.T.);
#662=FACE_BOUND('',#610,.T.);
#663=FACE_BOUND('',#611,.T.);
#664=FACE_BOUND('',#612,.T.);
#665=FACE_BOUND('',#613,.T.);
#666=FACE_BOUND('',#614,.T.);
#667=FACE_BOUND('',#615,.T.);
#668=FACE_BOUND('',#616,.T.);
#669=FACE_BOUND('',#617,.T.);
#670=FACE_BOUND('',#618,.T.);
#671=FACE_BOUND('',#619,.T.);
#672=FACE_BOUND('',#620,.T.);
#673=FACE_BOUND('',#621,.T.);
#674=FACE_BOUND('',#622,.T.);
#675=FACE_BOUND('',#623,.T.);
#676=FACE_BOUND('',#624,.T.);
#677=FACE_BOUND('',#625,.T.);
#678=FACE_BOUND('',#626,.T.);
#679=FACE_BOUND('',#627,.T.);
#680=FACE_BOUND('',#628,.T.);
#681=FACE_BOUND('',#629,.T.);
#682=FACE_BOUND('',#630,.T.);
#683=FACE_BOUND('',#631,.T.);
#684=FACE_BOUND('',#632,.T.);
#685=FACE_BOUND('',#633,.T.);
#686=FACE_BOUND('',#634,.T.);
#687=FACE_BOUND('',#635,.T.);
#688=FACE_BOUND('',#636,.T.);
#689=FACE_BOUND('',#637,.T.);
#690=FACE_BOUND('',#638,.T.);
#691=FACE_BOUND('',#639,.T.);
#692=FACE_BOUND('',#640,.T.);
#693=FACE_BOUND('',#641,.T.);
#694=FACE_BOUND('',#642,.T.);
#695=FACE_BOUND('',#643,.T.);
#696=FACE_BOUND('',#644,.T.);
#697=FACE_BOUND('',#645,.T.);
#698=FACE_BOUND('',#646,.T.);
#699=FACE_BOUND('',#647,.T.);
#700=PLANE('',#795);
#701=PLANE('',#796);
#702=PLANE('',#798);
#703=PLANE('',#799);
#704=PLANE('',#800);
#705=PLANE('',#801);
#706=PLANE('',#802);
#707=PLANE('',#803);
#708=PLANE('',#804);
#709=PLANE('',#805);
#710=PLANE('',#806);
#711=PLANE('',#807);
#712=PLANE('',#808);
#713=PLANE('',#809);
#714=PLANE('',#810);
#715=PLANE('',#811);
#716=PLANE('',#812);
#717=PLANE('',#813);
#718=PLANE('',#814);
#719=PLANE('',#815);
#720=PLANE('',#816);
#721=PLANE('',#817);
#722=PLANE('',#818);
#723=PLANE('',#819);
#724=PLANE('',#820);
#725=PLANE('',#821);
#726=PLANE('',#822);
#727=PLANE('',#823);
#728=PLANE('',#824);
#729=PLANE('',#825);
#730=PLANE('',#826);
#731=PLANE('',#829);
#732=PLANE('',#833);
#733=PLANE('',#837);
#734=PLANE('',#844);
#735=PLANE('',#848);
#736=PLANE('',#849);
#737=PLANE('',#850);
#738=ADVANCED_FACE('',(#648,#649),#700,.T.);
#739=ADVANCED_FACE('',(#650,#651,#652),#701,.T.);
#740=ADVANCED_FACE('',(#653,#654,#655,#656,#657),#702,.F.);
#741=ADVANCED_FACE('',(#658),#703,.T.);
#742=ADVANCED_FACE('',(#659),#704,.F.);
#743=ADVANCED_FACE('',(#660),#705,.F.);
#744=ADVANCED_FACE('',(#661),#706,.F.);
#745=ADVANCED_FACE('',(#662),#707,.F.);
#746=ADVANCED_FACE('',(#663),#708,.T.);
#747=ADVANCED_FACE('',(#664),#709,.T.);
#748=ADVANCED_FACE('',(#665),#710,.F.);
#749=ADVANCED_FACE('',(#666),#711,.F.);
#750=ADVANCED_FACE('',(#667),#712,.F.);
#751=ADVANCED_FACE('',(#668),#713,.F.);
#752=ADVANCED_FACE('',(#669),#714,.T.);
#753=ADVANCED_FACE('',(#670),#715,.F.);
#754=ADVANCED_FACE('',(#671),#716,.F.);
#755=ADVANCED_FACE('',(#672),#717,.F.);
#756=ADVANCED_FACE('',(#673),#718,.T.);
#757=ADVANCED_FACE('',(#674),#719,.T.);
#758=ADVANCED_FACE('',(#675),#720,.F.);
#759=ADVANCED_FACE('',(#676),#721,.F.);
#760=ADVANCED_FACE('',(#677),#722,.F.);
#761=ADVANCED_FACE('',(#678),#723,.F.);
#762=ADVANCED_FACE('',(#679),#724,.T.);
#763=ADVANCED_FACE('',(#680),#725,.F.);
#764=ADVANCED_FACE('',(#681),#726,.T.);
#765=ADVANCED_FACE('',(#682),#727,.F.);
#766=ADVANCED_FACE('',(#683),#728,.F.);
#767=ADVANCED_FACE('',(#684),#729,.T.);
#768=ADVANCED_FACE('',(#685),#730,.T.);
#769=ADVANCED_FACE('',(#686,#687),#12,.T.);
#770=ADVANCED_FACE('',(#688),#731,.T.);
#771=ADVANCED_FACE('',(#689),#13,.T.);
#772=ADVANCED_FACE('',(#690),#732,.T.);
#773=ADVANCED_FACE('',(#691),#14,.T.);
#774=ADVANCED_FACE('',(#692),#733,.T.);
#775=ADVANCED_FACE('',(#693),#15,.T.);
#776=ADVANCED_FACE('',(#694),#16,.T.);
#777=ADVANCED_FACE('',(#695),#734,.T.);
#778=ADVANCED_FACE('',(#696),#17,.T.);
#779=ADVANCED_FACE('',(#697),#735,.T.);
#780=ADVANCED_FACE('',(#698),#736,.T.);
#781=ADVANCED_FACE('',(#699),#737,.F.);
#782=CLOSED_SHELL('',(#738,#739,#740,#741,#742,#743,#744,#745,#746,#747,
#748,#749,#750,#751,#752,#753,#754,#755,#756,#757,#758,#759,#760,#761,#762,
#763,#764,#765,#766,#767,#768,#769,#770,#771,#772,#773,#774,#775,#776,#777,
#778,#779,#780,#781));
#783=STYLED_ITEM('',(#784),#791);
#784=PRESENTATION_STYLE_ASSIGNMENT((#785));
#785=SURFACE_STYLE_USAGE(.BOTH.,#786);
#786=SURFACE_SIDE_STYLE('',(#787));
#787=SURFACE_STYLE_FILL_AREA(#788);
#788=FILL_AREA_STYLE('',(#789));
#789=FILL_AREA_STYLE_COLOUR('',#790);
#790=COLOUR_RGB('',0.615686274509804,0.811764705882353,0.929411764705882);
#791=MANIFOLD_SOLID_BREP('Part 1',#782);
#792=SHAPE_DEFINITION_REPRESENTATION(#1282,#793);
#793=SHAPE_REPRESENTATION('Part 1',(#794),#1277);
#794=AXIS2_PLACEMENT_3D('',#1057,#851,#852);
#795=AXIS2_PLACEMENT_3D('',#1058,#853,#854);
#796=AXIS2_PLACEMENT_3D('',#1075,#863,#864);
#797=AXIS2_PLACEMENT_3D('',#1076,#865,#866);
#798=AXIS2_PLACEMENT_3D('',#1091,#874,#875);
#799=AXIS2_PLACEMENT_3D('',#1129,#895,#896);
#800=AXIS2_PLACEMENT_3D('',#1131,#898,#899);
#801=AXIS2_PLACEMENT_3D('',#1133,#901,#902);
#802=AXIS2_PLACEMENT_3D('',#1134,#903,#904);
#803=AXIS2_PLACEMENT_3D('',#1140,#908,#909);
#804=AXIS2_PLACEMENT_3D('',#1146,#913,#914);
#805=AXIS2_PLACEMENT_3D('',#1149,#917,#918);
#806=AXIS2_PLACEMENT_3D('',#1150,#919,#920);
#807=AXIS2_PLACEMENT_3D('',#1151,#921,#922);
#808=AXIS2_PLACEMENT_3D('',#1157,#926,#927);
#809=AXIS2_PLACEMENT_3D('',#1163,#931,#932);
#810=AXIS2_PLACEMENT_3D('',#1166,#935,#936);
#811=AXIS2_PLACEMENT_3D('',#1167,#937,#938);
#812=AXIS2_PLACEMENT_3D('',#1168,#939,#940);
#813=AXIS2_PLACEMENT_3D('',#1174,#944,#945);
#814=AXIS2_PLACEMENT_3D('',#1180,#949,#950);
#815=AXIS2_PLACEMENT_3D('',#1183,#953,#954);
#816=AXIS2_PLACEMENT_3D('',#1184,#955,#956);
#817=AXIS2_PLACEMENT_3D('',#1185,#957,#958);
#818=AXIS2_PLACEMENT_3D('',#1191,#962,#963);
#819=AXIS2_PLACEMENT_3D('',#1197,#967,#968);
#820=AXIS2_PLACEMENT_3D('',#1200,#971,#972);
#821=AXIS2_PLACEMENT_3D('',#1201,#973,#974);
#822=AXIS2_PLACEMENT_3D('',#1202,#975,#976);
#823=AXIS2_PLACEMENT_3D('',#1208,#980,#981);
#824=AXIS2_PLACEMENT_3D('',#1212,#984,#985);
#825=AXIS2_PLACEMENT_3D('',#1216,#988,#989);
#826=AXIS2_PLACEMENT_3D('',#1218,#991,#992);
#827=AXIS2_PLACEMENT_3D('',#1219,#993,#994);
#828=AXIS2_PLACEMENT_3D('',#1220,#995,#996);
#829=AXIS2_PLACEMENT_3D('',#1222,#997,#998);
#830=AXIS2_PLACEMENT_3D('',#1223,#999,#1000);
#831=AXIS2_PLACEMENT_3D('',#1224,#1001,#1002);
#832=AXIS2_PLACEMENT_3D('',#1229,#1004,#1005);
#833=AXIS2_PLACEMENT_3D('',#1232,#1007,#1008);
#834=AXIS2_PLACEMENT_3D('',#1238,#1012,#1013);
#835=AXIS2_PLACEMENT_3D('',#1239,#1014,#1015);
#836=AXIS2_PLACEMENT_3D('',#1243,#1017,#1018);
#837=AXIS2_PLACEMENT_3D('',#1244,#1019,#1020);
#838=AXIS2_PLACEMENT_3D('',#1250,#1024,#1025);
#839=AXIS2_PLACEMENT_3D('',#1251,#1026,#1027);
#840=AXIS2_PLACEMENT_3D('',#1252,#1028,#1029);
#841=AXIS2_PLACEMENT_3D('',#1253,#1030,#1031);
#842=AXIS2_PLACEMENT_3D('',#1254,#1032,#1033);
#843=AXIS2_PLACEMENT_3D('',#1258,#1035,#1036);
#844=AXIS2_PLACEMENT_3D('',#1259,#1037,#1038);
#845=AXIS2_PLACEMENT_3D('',#1265,#1042,#1043);
#846=AXIS2_PLACEMENT_3D('',#1266,#1044,#1045);
#847=AXIS2_PLACEMENT_3D('',#1270,#1047,#1048);
#848=AXIS2_PLACEMENT_3D('',#1271,#1049,#1050);
#849=AXIS2_PLACEMENT_3D('',#1274,#1053,#1054);
#850=AXIS2_PLACEMENT_3D('',#1275,#1055,#1056);
#851=DIRECTION('',(0.,0.,1.));
#852=DIRECTION('',(1.,0.,0.));
#853=DIRECTION('',(0.,0.,1.));
#854=DIRECTION('',(1.,0.,0.));
#855=DIRECTION('',(1.,0.,0.));
#856=DIRECTION('',(0.,1.,0.));
#857=DIRECTION('',(1.,0.,0.));
#858=DIRECTION('',(0.,1.,0.));
#859=DIRECTION('',(0.,1.,0.));
#860=DIRECTION('',(1.,0.,0.));
#861=DIRECTION('',(0.,1.,0.));
#862=DIRECTION('',(1.,0.,0.));
#863=DIRECTION('',(0.,-1.,0.));
#864=DIRECTION('',(1.,0.,0.));
#865=DIRECTION('',(0.,-1.,0.));
#866=DIRECTION('',(0.,0.,-1.));
#867=DIRECTION('',(1.,0.,0.));
#868=DIRECTION('',(6.82961998416066E-17,0.,-1.));
#869=DIRECTION('',(0.,0.,-1.));
#870=DIRECTION('',(0.,0.,-1.));
#871=DIRECTION('',(1.,0.,0.));
#872=DIRECTION('',(0.,0.,-1.));
#873=DIRECTION('',(1.,0.,0.));
#874=DIRECTION('',(0.,0.,1.));
#875=DIRECTION('',(1.,0.,0.));
#876=DIRECTION('',(0.,1.,0.));
#877=DIRECTION('',(1.,0.,0.));
#878=DIRECTION('',(0.,1.,0.));
#879=DIRECTION('',(1.,0.,0.));
#880=DIRECTION('',(0.,1.,0.));
#881=DIRECTION('',(1.,0.,0.));
#882=DIRECTION('',(0.,1.,0.));
#883=DIRECTION('',(1.,0.,0.));
#884=DIRECTION('',(1.,0.,0.));
#885=DIRECTION('',(0.,1.,0.));
#886=DIRECTION('',(1.,0.,0.));
#887=DIRECTION('',(0.,1.,0.));
#888=DIRECTION('',(1.,0.,0.));
#889=DIRECTION('',(0.,1.,0.));
#890=DIRECTION('',(0.,1.,0.));
#891=DIRECTION('',(1.,0.,0.));
#892=DIRECTION('',(0.,1.,0.));
#893=DIRECTION('',(1.,0.,0.));
#894=DIRECTION('',(0.,1.,0.));
#895=DIRECTION('',(1.,0.,6.82961998416066E-17));
#896=DIRECTION('',(6.82961998416066E-17,0.,-1.));
#897=DIRECTION('',(6.82961998416066E-17,0.,-1.));
#898=DIRECTION('',(1.,0.,0.));
#899=DIRECTION('',(0.,0.,-1.));
#900=DIRECTION('',(0.,0.,-1.));
#901=DIRECTION('',(0.,-1.,0.));
#902=DIRECTION('',(1.,0.,0.));
#903=DIRECTION('',(1.,0.,0.));
#904=DIRECTION('',(0.,0.,-1.));
#905=DIRECTION('',(0.,0.,-1.));
#906=DIRECTION('',(0.,1.,0.));
#907=DIRECTION('',(0.,0.,-1.));
#908=DIRECTION('',(0.,0.,1.));
#909=DIRECTION('',(1.,0.,0.));
#910=DIRECTION('',(1.,0.,0.));
#911=DIRECTION('',(0.,1.,0.));
#912=DIRECTION('',(1.,0.,0.));
#913=DIRECTION('',(1.,0.,0.));
#914=DIRECTION('',(0.,0.,-1.));
#915=DIRECTION('',(0.,0.,-1.));
#916=DIRECTION('',(0.,0.,-1.));
#917=DIRECTION('',(0.,-1.,0.));
#918=DIRECTION('',(1.,0.,0.));
#919=DIRECTION('',(0.,-1.,0.));
#920=DIRECTION('',(1.,0.,0.));
#921=DIRECTION('',(1.,0.,0.));
#922=DIRECTION('',(0.,0.,-1.));
#923=DIRECTION('',(0.,0.,-1.));
#924=DIRECTION('',(0.,1.,0.));
#925=DIRECTION('',(0.,0.,-1.));
#926=DIRECTION('',(0.,0.,1.));
#927=DIRECTION('',(1.,0.,0.));
#928=DIRECTION('',(1.,0.,0.));
#929=DIRECTION('',(0.,1.,0.));
#930=DIRECTION('',(1.,0.,0.));
#931=DIRECTION('',(-1.,0.,0.));
#932=DIRECTION('',(0.,0.,1.));
#933=DIRECTION('',(0.,0.,1.));
#934=DIRECTION('',(0.,0.,1.));
#935=DIRECTION('',(0.,-1.,0.));
#936=DIRECTION('',(1.,0.,0.));
#937=DIRECTION('',(0.,-1.,0.));
#938=DIRECTION('',(1.,0.,0.));
#939=DIRECTION('',(1.,0.,0.));
#940=DIRECTION('',(0.,0.,-1.));
#941=DIRECTION('',(0.,0.,-1.));
#942=DIRECTION('',(0.,1.,0.));
#943=DIRECTION('',(0.,0.,-1.));
#944=DIRECTION('',(0.,0.,1.));
#945=DIRECTION('',(1.,0.,0.));
#946=DIRECTION('',(1.,0.,0.));
#947=DIRECTION('',(0.,1.,0.));
#948=DIRECTION('',(1.,0.,0.));
#949=DIRECTION('',(1.,0.,0.));
#950=DIRECTION('',(0.,0.,-1.));
#951=DIRECTION('',(0.,0.,-1.));
#952=DIRECTION('',(0.,0.,-1.));
#953=DIRECTION('',(0.,-1.,0.));
#954=DIRECTION('',(1.,0.,0.));
#955=DIRECTION('',(0.,-1.,0.));
#956=DIRECTION('',(1.,0.,0.));
#957=DIRECTION('',(1.,0.,0.));
#958=DIRECTION('',(0.,0.,-1.));
#959=DIRECTION('',(0.,0.,-1.));
#960=DIRECTION('',(0.,1.,0.));
#961=DIRECTION('',(0.,0.,-1.));
#962=DIRECTION('',(0.,0.,1.));
#963=DIRECTION('',(1.,0.,0.));
#964=DIRECTION('',(1.,0.,0.));
#965=DIRECTION('',(0.,1.,0.));
#966=DIRECTION('',(1.,0.,0.));
#967=DIRECTION('',(-1.,0.,0.));
#968=DIRECTION('',(0.,0.,1.));
#969=DIRECTION('',(0.,0.,1.));
#970=DIRECTION('',(0.,0.,1.));
#971=DIRECTION('',(0.,-1.,0.));
#972=DIRECTION('',(1.,0.,0.));
#973=DIRECTION('',(0.,-1.,0.));
#974=DIRECTION('',(1.,0.,0.));
#975=DIRECTION('',(0.,0.,-1.));
#976=DIRECTION('',(-1.,0.,0.));
#977=DIRECTION('',(0.,-1.,0.));
#978=DIRECTION('',(1.,0.,0.));
#979=DIRECTION('',(0.,-1.,0.));
#980=DIRECTION('',(-1.,0.,0.));
#981=DIRECTION('',(0.,0.,1.));
#982=DIRECTION('',(0.,-1.,0.));
#983=DIRECTION('',(0.,0.,-1.));
#984=DIRECTION('',(0.,0.,-1.));
#985=DIRECTION('',(-1.,0.,0.));
#986=DIRECTION('',(0.,-1.,0.));
#987=DIRECTION('',(1.,0.,0.));
#988=DIRECTION('',(-1.,0.,0.));
#989=DIRECTION('',(0.,0.,1.));
#990=DIRECTION('',(0.,0.,-1.));
#991=DIRECTION('',(0.,-1.,0.));
#992=DIRECTION('',(1.,0.,0.));
#993=DIRECTION('',(0.,1.,0.));
#994=DIRECTION('',(0.,0.,1.));
#995=DIRECTION('',(0.,-1.,0.));
#996=DIRECTION('',(0.,0.,-1.));
#997=DIRECTION('',(0.,-1.,0.));
#998=DIRECTION('',(1.,0.,0.));
#999=DIRECTION('',(0.,1.,0.));
#1000=DIRECTION('',(0.,0.,1.));
#1001=DIRECTION('',(0.,-1.,0.));
#1002=DIRECTION('',(0.,0.,-1.));
#1003=DIRECTION('',(0.,1.,0.));
#1004=DIRECTION('',(0.,-1.,0.));
#1005=DIRECTION('',(0.,0.,-1.));
#1006=DIRECTION('',(0.,1.,0.));
#1007=DIRECTION('',(0.835821243821366,0.,0.549001683400793));
#1008=DIRECTION('',(0.549001683400793,0.,-0.835821243821366));
#1009=DIRECTION('',(0.549001683400793,0.,-0.835821243821366));
#1010=DIRECTION('',(0.,1.,0.));
#1011=DIRECTION('',(0.549001683400793,0.,-0.835821243821366));
#1012=DIRECTION('',(0.,1.,0.));
#1013=DIRECTION('',(0.,0.,1.));
#1014=DIRECTION('',(0.,-1.,0.));
#1015=DIRECTION('',(0.,0.,-1.));
#1016=DIRECTION('',(0.,1.,0.));
#1017=DIRECTION('',(0.,-1.,0.));
#1018=DIRECTION('',(0.,0.,-1.));
#1019=DIRECTION('',(-0.835821243821366,0.,-0.549001683400793));
#1020=DIRECTION('',(-0.549001683400793,0.,0.835821243821366));
#1021=DIRECTION('',(-0.549001683400793,0.,0.835821243821367));
#1022=DIRECTION('',(0.,1.,0.));
#1023=DIRECTION('',(-0.549001683400793,0.,0.835821243821367));
#1024=DIRECTION('',(0.,1.,0.));
#1025=DIRECTION('',(0.,0.,1.));
#1026=DIRECTION('',(0.,-1.,0.));
#1027=DIRECTION('',(0.,0.,-1.));
#1028=DIRECTION('',(0.,-1.,0.));
#1029=DIRECTION('',(0.,0.,-1.));
#1030=DIRECTION('',(0.,1.,0.));
#1031=DIRECTION('',(0.,0.,1.));
#1032=DIRECTION('',(0.,-1.,0.));
#1033=DIRECTION('',(0.,0.,-1.));
#1034=DIRECTION('',(0.,1.,0.));
#1035=DIRECTION('',(0.,-1.,0.));
#1036=DIRECTION('',(0.,0.,-1.));
#1037=DIRECTION('',(0.830644074381843,0.,-0.556803755100782));
#1038=DIRECTION('',(-0.556803755100782,0.,-0.830644074381843));
#1039=DIRECTION('',(-0.556803755100782,0.,-0.830644074381843));
#1040=DIRECTION('',(0.,1.,0.));
#1041=DIRECTION('',(-0.556803755100782,0.,-0.830644074381843));
#1042=DIRECTION('',(0.,1.,0.));
#1043=DIRECTION('',(0.,0.,1.));
#1044=DIRECTION('',(0.,-1.,0.));
#1045=DIRECTION('',(0.,0.,-1.));
#1046=DIRECTION('',(0.,1.,0.));
#1047=DIRECTION('',(0.,-1.,0.));
#1048=DIRECTION('',(0.,0.,-1.));
#1049=DIRECTION('',(-0.830644074381843,0.,0.556803755100782));
#1050=DIRECTION('',(0.556803755100782,0.,0.830644074381843));
#1051=DIRECTION('',(0.556803755100782,0.,0.830644074381843));
#1052=DIRECTION('',(0.556803755100782,0.,0.830644074381843));
#1053=DIRECTION('',(0.,-1.,0.));
#1054=DIRECTION('',(1.,0.,0.));
#1055=DIRECTION('',(0.,-1.,0.));
#1056=DIRECTION('',(1.,0.,0.));
#1057=CARTESIAN_POINT('',(0.,0.,0.));
#1058=CARTESIAN_POINT('',(-0.0152989558466381,-0.0254,0.0483034502456264));
#1059=CARTESIAN_POINT('',(-0.0152989558466381,0.,0.0483034502456264));
#1060=CARTESIAN_POINT('',(-0.0449752667979693,0.,0.0483034502456264));
#1061=CARTESIAN_POINT('',(-0.00687526679796927,0.,0.0483034502456264));
#1062=CARTESIAN_POINT('',(-0.0449752667979693,-0.0254,0.0483034502456264));
#1063=CARTESIAN_POINT('',(-0.0449752667979693,-0.0254,0.0483034502456264));
#1064=CARTESIAN_POINT('',(-0.0152989558466381,-0.0254,0.0483034502456264));
#1065=CARTESIAN_POINT('',(-0.00687526679796927,-0.0254,0.0483034502456264));
#1066=CARTESIAN_POINT('',(-0.00687526679796927,-0.0254,0.0483034502456264));
#1067=CARTESIAN_POINT('',(-0.0283270310610627,-0.0127,0.0483034502456264));
#1068=CARTESIAN_POINT('',(-0.0283270310610627,-0.0127,0.0483034502456264));
#1069=CARTESIAN_POINT('',(-0.0283270310610627,-0.01143,0.0483034502456264));
#1070=CARTESIAN_POINT('',(-0.0260248379781849,-0.01143,0.0483034502456264));
#1071=CARTESIAN_POINT('',(-0.0237226448953071,-0.01143,0.0483034502456264));
#1072=CARTESIAN_POINT('',(-0.0237226448953071,-0.0127,0.0483034502456264));
#1073=CARTESIAN_POINT('',(-0.0237226448953071,-0.0127,0.0483034502456264));
#1074=CARTESIAN_POINT('',(-0.0260248379781849,-0.0127,0.0483034502456264));
#1075=CARTESIAN_POINT('',(-0.0259252667979693,-0.0254,0.0370734737232543));
#1076=CARTESIAN_POINT('',(-0.00941526679796927,-0.0254,0.0419534502456264));
#1077=CARTESIAN_POINT('',(-0.00941526679796927,-0.0254,0.0400553994717376));
#1078=CARTESIAN_POINT('',(-0.0424352667979693,-0.0254,0.0229034502456264));
#1079=CARTESIAN_POINT('',(-0.0449752667979693,-0.0254,0.0229034502456264));
#1080=CARTESIAN_POINT('',(-0.00687526679796926,-0.0254,0.0229034502456264));
#1081=CARTESIAN_POINT('',(-0.00687526679796927,-0.0254,0.0356034502456264));
#1082=CARTESIAN_POINT('',(-0.0449752667979693,-0.0254,0.0356034502456264));
#1083=CARTESIAN_POINT('',(-0.0437052667979693,-0.0254,0.0356034502456264));
#1084=CARTESIAN_POINT('',(-0.0437052667979693,-0.0254,0.0470334502456264));
#1085=CARTESIAN_POINT('',(-0.0437052667979693,-0.0254,0.0241734502456264));
#1086=CARTESIAN_POINT('',(-0.0278302667979692,-0.0254,0.0470334502456264));
#1087=CARTESIAN_POINT('',(-0.0119552667979693,-0.0254,0.0470334502456264));
#1088=CARTESIAN_POINT('',(-0.0119552667979693,-0.0254,0.0356034502456264));
#1089=CARTESIAN_POINT('',(-0.0119552667979693,-0.0254,0.0241734502456264));
#1090=CARTESIAN_POINT('',(-0.0278302667979692,-0.0254,0.0241734502456264));
#1091=CARTESIAN_POINT('',(-0.0424352667979693,-0.0254,0.0229034502456264));
#1092=CARTESIAN_POINT('',(-0.0398952667979693,-0.02286,0.0229034502456264));
#1093=CARTESIAN_POINT('',(-0.0398952667979693,-0.02286,0.0229034502456264));
#1094=CARTESIAN_POINT('',(-0.0398952667979693,-0.02032,0.0229034502456264));
#1095=CARTESIAN_POINT('',(-0.0392602667979692,-0.02286,0.0229034502456264));
#1096=CARTESIAN_POINT('',(-0.0386252667979693,-0.02286,0.0229034502456264));
#1097=CARTESIAN_POINT('',(-0.0386252667979693,-0.02286,0.0229034502456264));
#1098=CARTESIAN_POINT('',(-0.0386252667979693,-0.02032,0.0229034502456264));
#1099=CARTESIAN_POINT('',(-0.0392602667979692,-0.02032,0.0229034502456264));
#1100=CARTESIAN_POINT('',(-0.0132252667979693,-0.02286,0.0229034502456264));
#1101=CARTESIAN_POINT('',(-0.0132252667979693,-0.02286,0.0229034502456264));
#1102=CARTESIAN_POINT('',(-0.0132252667979693,-0.02032,0.0229034502456264));
#1103=CARTESIAN_POINT('',(-0.0125902667979693,-0.02286,0.0229034502456264));
#1104=CARTESIAN_POINT('',(-0.0119552667979693,-0.02286,0.0229034502456264));
#1105=CARTESIAN_POINT('',(-0.0119552667979693,-0.02286,0.0229034502456264));
#1106=CARTESIAN_POINT('',(-0.0119552667979693,-0.02032,0.0229034502456264));
#1107=CARTESIAN_POINT('',(-0.0125902667979693,-0.02032,0.0229034502456264));
#1108=CARTESIAN_POINT('',(-0.0125902667979693,-0.000635,0.0229034502456264));
#1109=CARTESIAN_POINT('',(-0.0132252667979693,-0.000635,0.0229034502456264));
#1110=CARTESIAN_POINT('',(-0.0119552667979693,-0.000635,0.0229034502456264));
#1111=CARTESIAN_POINT('',(-0.0132252667979693,-0.003175,0.0229034502456264));
#1112=CARTESIAN_POINT('',(-0.0132252667979693,-0.003175,0.0229034502456264));
#1113=CARTESIAN_POINT('',(-0.0125902667979693,-0.003175,0.0229034502456264));
#1114=CARTESIAN_POINT('',(-0.0119552667979693,-0.003175,0.0229034502456264));
#1115=CARTESIAN_POINT('',(-0.0119552667979693,-0.003175,0.0229034502456264));
#1116=CARTESIAN_POINT('',(-0.0424352667979693,0.,0.0229034502456264));
#1117=CARTESIAN_POINT('',(-0.0449752667979693,0.,0.0229034502456264));
#1118=CARTESIAN_POINT('',(-0.00687526679796926,0.,0.0229034502456264));
#1119=CARTESIAN_POINT('',(-0.00687526679796926,-0.0254,0.0229034502456264));
#1120=CARTESIAN_POINT('',(-0.0449752667979693,-0.0254,0.0229034502456264));
#1121=CARTESIAN_POINT('',(-0.0392602667979692,-0.000635,0.0229034502456264));
#1122=CARTESIAN_POINT('',(-0.0398952667979693,-0.000635,0.0229034502456264));
#1123=CARTESIAN_POINT('',(-0.0386252667979693,-0.000635,0.0229034502456264));
#1124=CARTESIAN_POINT('',(-0.0398952667979693,-0.003175,0.0229034502456264));
#1125=CARTESIAN_POINT('',(-0.0398952667979693,-0.003175,0.0229034502456264));
#1126=CARTESIAN_POINT('',(-0.0392602667979692,-0.003175,0.0229034502456264));
#1127=CARTESIAN_POINT('',(-0.0386252667979693,-0.003175,0.0229034502456264));
#1128=CARTESIAN_POINT('',(-0.0386252667979693,-0.003175,0.0229034502456264));
#1129=CARTESIAN_POINT('',(-0.00687526679796927,-0.0254,0.0356034502456264));
#1130=CARTESIAN_POINT('',(-0.00687526679796927,0.,0.0356034502456264));
#1131=CARTESIAN_POINT('',(-0.0449752667979693,-0.0254,0.0356034502456264));
#1132=CARTESIAN_POINT('',(-0.0449752667979693,0.,0.0356034502456264));
#1133=CARTESIAN_POINT('',(-0.0259252667979693,0.,0.0370734737232543));
#1134=CARTESIAN_POINT('',(-0.0132252667979693,-0.003175,0.0216944991321502));
#1135=CARTESIAN_POINT('',(-0.0132252667979693,-0.000635,0.0216944991321502));
#1136=CARTESIAN_POINT('',(-0.0132252667979693,-0.000635,0.020485548018674));
#1137=CARTESIAN_POINT('',(-0.0132252667979693,-0.003175,0.020485548018674));
#1138=CARTESIAN_POINT('',(-0.0132252667979693,-0.003175,0.020485548018674));
#1139=CARTESIAN_POINT('',(-0.0132252667979693,-0.003175,0.0216944991321502));
#1140=CARTESIAN_POINT('',(-0.0125902667979693,-0.003175,0.020485548018674));
#1141=CARTESIAN_POINT('',(-0.0125902667979693,-0.000635,0.020485548018674));
#1142=CARTESIAN_POINT('',(-0.0119552667979693,-0.000635,0.020485548018674));
#1143=CARTESIAN_POINT('',(-0.0119552667979693,-0.003175,0.020485548018674));
#1144=CARTESIAN_POINT('',(-0.0119552667979693,-0.003175,0.020485548018674));
#1145=CARTESIAN_POINT('',(-0.0125902667979693,-0.003175,0.020485548018674));
#1146=CARTESIAN_POINT('',(-0.0119552667979693,-0.003175,0.0216944991321502));
#1147=CARTESIAN_POINT('',(-0.0119552667979693,-0.000635,0.0216944991321502));
#1148=CARTESIAN_POINT('',(-0.0119552667979693,-0.003175,0.0216944991321502));
#1149=CARTESIAN_POINT('',(-0.0259252667979693,-0.003175,0.0370734737232543));
#1150=CARTESIAN_POINT('',(-0.0259252667979693,-0.000635,0.0370734737232543));
#1151=CARTESIAN_POINT('',(-0.0398952667979693,-0.003175,0.0218638317918846));
#1152=CARTESIAN_POINT('',(-0.0398952667979693,-0.000635,0.0218638317918846));
#1153=CARTESIAN_POINT('',(-0.0398952667979693,-0.000635,0.0208242133381428));
#1154=CARTESIAN_POINT('',(-0.0398952667979693,-0.003175,0.0208242133381428));
#1155=CARTESIAN_POINT('',(-0.0398952667979693,-0.003175,0.0208242133381428));
#1156=CARTESIAN_POINT('',(-0.0398952667979693,-0.003175,0.0218638317918846));
#1157=CARTESIAN_POINT('',(-0.0392602667979692,-0.003175,0.0208242133381428));
#1158=CARTESIAN_POINT('',(-0.0392602667979692,-0.000635,0.0208242133381428));
#1159=CARTESIAN_POINT('',(-0.0386252667979693,-0.000635,0.0208242133381428));
#1160=CARTESIAN_POINT('',(-0.0386252667979693,-0.003175,0.0208242133381428));
#1161=CARTESIAN_POINT('',(-0.0386252667979693,-0.003175,0.0208242133381428));
#1162=CARTESIAN_POINT('',(-0.0392602667979692,-0.003175,0.0208242133381428));
#1163=CARTESIAN_POINT('',(-0.0386252667979693,-0.003175,0.0218638317918846));
#1164=CARTESIAN_POINT('',(-0.0386252667979693,-0.000635,0.0218638317918846));
#1165=CARTESIAN_POINT('',(-0.0386252667979693,-0.003175,0.0218638317918846));
#1166=CARTESIAN_POINT('',(-0.0259252667979693,-0.003175,0.0370734737232543));
#1167=CARTESIAN_POINT('',(-0.0259252667979693,-0.000635,0.0370734737232543));
#1168=CARTESIAN_POINT('',(-0.0132252667979693,-0.02286,0.0216944991321502));
#1169=CARTESIAN_POINT('',(-0.0132252667979693,-0.02032,0.0216944991321502));
#1170=CARTESIAN_POINT('',(-0.0132252667979693,-0.02032,0.020485548018674));
#1171=CARTESIAN_POINT('',(-0.0132252667979693,-0.02286,0.020485548018674));
#1172=CARTESIAN_POINT('',(-0.0132252667979693,-0.02286,0.020485548018674));
#1173=CARTESIAN_POINT('',(-0.0132252667979693,-0.02286,0.0216944991321502));
#1174=CARTESIAN_POINT('',(-0.0125902667979693,-0.02286,0.020485548018674));
#1175=CARTESIAN_POINT('',(-0.0125902667979693,-0.02032,0.020485548018674));
#1176=CARTESIAN_POINT('',(-0.0119552667979693,-0.02032,0.020485548018674));
#1177=CARTESIAN_POINT('',(-0.0119552667979693,-0.02286,0.020485548018674));
#1178=CARTESIAN_POINT('',(-0.0119552667979693,-0.02286,0.020485548018674));
#1179=CARTESIAN_POINT('',(-0.0125902667979693,-0.02286,0.020485548018674));
#1180=CARTESIAN_POINT('',(-0.0119552667979693,-0.02286,0.0216944991321502));
#1181=CARTESIAN_POINT('',(-0.0119552667979693,-0.02032,0.0216944991321502));
#1182=CARTESIAN_POINT('',(-0.0119552667979693,-0.02286,0.0216944991321502));
#1183=CARTESIAN_POINT('',(-0.0259252667979693,-0.02286,0.0370734737232543));
#1184=CARTESIAN_POINT('',(-0.0259252667979693,-0.02032,0.0370734737232543));
#1185=CARTESIAN_POINT('',(-0.0398952667979693,-0.02286,0.0218638317918846));
#1186=CARTESIAN_POINT('',(-0.0398952667979693,-0.02032,0.0218638317918846));
#1187=CARTESIAN_POINT('',(-0.0398952667979693,-0.02032,0.0208242133381428));
#1188=CARTESIAN_POINT('',(-0.0398952667979693,-0.02286,0.0208242133381428));
#1189=CARTESIAN_POINT('',(-0.0398952667979693,-0.02286,0.0208242133381428));
#1190=CARTESIAN_POINT('',(-0.0398952667979693,-0.02286,0.0218638317918846));
#1191=CARTESIAN_POINT('',(-0.0392602667979692,-0.02286,0.0208242133381428));
#1192=CARTESIAN_POINT('',(-0.0392602667979692,-0.02032,0.0208242133381428));
#1193=CARTESIAN_POINT('',(-0.0386252667979693,-0.02032,0.0208242133381428));
#1194=CARTESIAN_POINT('',(-0.0386252667979693,-0.02286,0.0208242133381428));
#1195=CARTESIAN_POINT('',(-0.0386252667979693,-0.02286,0.0208242133381428));
#1196=CARTESIAN_POINT('',(-0.0392602667979692,-0.02286,0.0208242133381428));
#1197=CARTESIAN_POINT('',(-0.0386252667979693,-0.02286,0.0218638317918846));
#1198=CARTESIAN_POINT('',(-0.0386252667979693,-0.02032,0.0218638317918846));
#1199=CARTESIAN_POINT('',(-0.0386252667979693,-0.02286,0.0218638317918846));
#1200=CARTESIAN_POINT('',(-0.0259252667979693,-0.02286,0.0370734737232543));
#1201=CARTESIAN_POINT('',(-0.0259252667979693,-0.02032,0.0370734737232543));
#1202=CARTESIAN_POINT('',(-0.0278302667979692,-0.024892,0.0470334502456264));
#1203=CARTESIAN_POINT('',(-0.0437052667979693,-0.024892,0.0470334502456264));
#1204=CARTESIAN_POINT('',(-0.0437052667979693,-0.024892,0.0470334502456264));
#1205=CARTESIAN_POINT('',(-0.0278302667979692,-0.024892,0.0470334502456264));
#1206=CARTESIAN_POINT('',(-0.0119552667979693,-0.024892,0.0470334502456264));
#1207=CARTESIAN_POINT('',(-0.0119552667979693,-0.024892,0.0470334502456264));
#1208=CARTESIAN_POINT('',(-0.0437052667979693,-0.024892,0.0356034502456264));
#1209=CARTESIAN_POINT('',(-0.0437052667979693,-0.024892,0.0241734502456264));
#1210=CARTESIAN_POINT('',(-0.0437052667979693,-0.024892,0.0241734502456264));
#1211=CARTESIAN_POINT('',(-0.0437052667979693,-0.024892,0.0356034502456264));
#1212=CARTESIAN_POINT('',(-0.0278302667979692,-0.024892,0.0241734502456264));
#1213=CARTESIAN_POINT('',(-0.0119552667979693,-0.024892,0.0241734502456264));
#1214=CARTESIAN_POINT('',(-0.0119552667979693,-0.024892,0.0241734502456264));
#1215=CARTESIAN_POINT('',(-0.0278302667979692,-0.024892,0.0241734502456264));
#1216=CARTESIAN_POINT('',(-0.0119552667979693,-0.024892,0.0356034502456264));
#1217=CARTESIAN_POINT('',(-0.0119552667979693,-0.024892,0.0356034502456264));
#1218=CARTESIAN_POINT('',(-0.0259252667979693,-0.024892,0.0356034502456264));
#1219=CARTESIAN_POINT('',(-0.00941526679796927,-0.026035,0.0419534502456264));
#1220=CARTESIAN_POINT('',(-0.00941526679796927,-0.026035,0.0419534502456264));
#1221=CARTESIAN_POINT('',(-0.00941526679796927,-0.026035,0.0400553994717376));
#1222=CARTESIAN_POINT('',(-0.0259252667979693,-0.026035,0.0356034502456264));
#1223=CARTESIAN_POINT('',(-0.0260248379781849,-0.0127,0.0483034502456264));
#1224=CARTESIAN_POINT('',(-0.0260248379781849,-0.01143,0.0483034502456264));
#1225=CARTESIAN_POINT('',(-0.02501751643733,-0.01143,0.0503735701223921));
#1226=CARTESIAN_POINT('',(-0.0270321595190397,-0.01143,0.0503735701223921));
#1227=CARTESIAN_POINT('',(-0.0270321595190397,-0.0127,0.0503735701223921));
#1228=CARTESIAN_POINT('',(-0.0270321595190397,-0.0127,0.0503735701223921));
#1229=CARTESIAN_POINT('',(-0.0260248379781849,-0.0127,0.0483034502456264));
#1230=CARTESIAN_POINT('',(-0.02501751643733,-0.0127,0.0503735701223921));
#1231=CARTESIAN_POINT('',(-0.02501751643733,-0.0127,0.0503735701223921));
#1232=CARTESIAN_POINT('',(-0.0280837337990338,-0.0127,0.0519745271854574));
#1233=CARTESIAN_POINT('',(-0.0280837337990338,-0.01143,0.0519745271854574));
#1234=CARTESIAN_POINT('',(-0.0291353080790278,-0.01143,0.0535754842485226));
#1235=CARTESIAN_POINT('',(-0.0291353080790278,-0.0127,0.0535754842485226));
#1236=CARTESIAN_POINT('',(-0.0291353080790278,-0.0127,0.0535754842485226));
#1237=CARTESIAN_POINT('',(-0.0280837337990338,-0.0127,0.0519745271854574));
#1238=CARTESIAN_POINT('',(-0.0292945320259759,-0.0127,0.0534708994278347));
#1239=CARTESIAN_POINT('',(-0.0292945320259759,-0.01143,0.0534708994278347));
#1240=CARTESIAN_POINT('',(-0.0294537559729238,-0.01143,0.0533663146071469));
#1241=CARTESIAN_POINT('',(-0.0294537559729238,-0.0127,0.0533663146071469));
#1242=CARTESIAN_POINT('',(-0.0294537559729238,-0.0127,0.0533663146071469));
#1243=CARTESIAN_POINT('',(-0.0292945320259759,-0.0127,0.0534708994278347));
#1244=CARTESIAN_POINT('',(-0.0284069300884482,-0.0127,0.0517725866837516));
#1245=CARTESIAN_POINT('',(-0.0284069300884482,-0.01143,0.0517725866837516));
#1246=CARTESIAN_POINT('',(-0.0273601042039725,-0.01143,0.0501788587603563));
#1247=CARTESIAN_POINT('',(-0.0273601042039725,-0.0127,0.0501788587603563));
#1248=CARTESIAN_POINT('',(-0.0273601042039725,-0.0127,0.0501788587603563));
#1249=CARTESIAN_POINT('',(-0.0284069300884482,-0.0127,0.0517725866837516));
#1250=CARTESIAN_POINT('',(-0.0260248379781849,-0.0127,0.0483034502456264));
#1251=CARTESIAN_POINT('',(-0.0260248379781849,-0.01143,0.0483034502456264));
#1252=CARTESIAN_POINT('',(-0.0260248379781849,-0.0127,0.0483034502456264));
#1253=CARTESIAN_POINT('',(-0.0260248379781849,-0.0127,0.0483034502456264));
#1254=CARTESIAN_POINT('',(-0.0260248379781849,-0.01143,0.0483034502456264));
#1255=CARTESIAN_POINT('',(-0.0246894261479543,-0.01143,0.0501787550833876));
#1256=CARTESIAN_POINT('',(-0.0246894261479543,-0.0127,0.0501787550833876));
#1257=CARTESIAN_POINT('',(-0.0246894261479543,-0.0127,0.0501787550833876));
#1258=CARTESIAN_POINT('',(-0.0260248379781849,-0.0127,0.0483034502456264));
#1259=CARTESIAN_POINT('',(-0.0236287149944873,-0.0127,0.0517611320450851));
#1260=CARTESIAN_POINT('',(-0.0236287149944873,-0.01143,0.0517611320450851));
#1261=CARTESIAN_POINT('',(-0.0225680038410203,-0.01143,0.0533435090067825));
#1262=CARTESIAN_POINT('',(-0.0225680038410203,-0.0127,0.0533435090067825));
#1263=CARTESIAN_POINT('',(-0.0225680038410203,-0.0127,0.0533435090067825));
#1264=CARTESIAN_POINT('',(-0.0236287149944873,-0.0127,0.0517611320450851));
#1265=CARTESIAN_POINT('',(-0.0227262415371901,-0.0127,0.0534495801221292));
#1266=CARTESIAN_POINT('',(-0.0227262415371901,-0.01143,0.0534495801221292));
#1267=CARTESIAN_POINT('',(-0.0228844792333598,-0.01143,0.0535556512374759));
#1268=CARTESIAN_POINT('',(-0.0228844792333598,-0.0127,0.0535556512374759));
#1269=CARTESIAN_POINT('',(-0.0228844792333598,-0.0127,0.0535556512374759));
#1270=CARTESIAN_POINT('',(-0.0227262415371901,-0.0127,0.0534495801221292));
#1271=CARTESIAN_POINT('',(-0.0239509978353449,-0.0127,0.051964610679934));
#1272=CARTESIAN_POINT('',(-0.0239509978353449,-0.01143,0.051964610679934));
#1273=CARTESIAN_POINT('',(-0.0239509978353449,-0.0127,0.051964610679934));
#1274=CARTESIAN_POINT('',(-0.0259252667979693,-0.0127,0.0370734737232543));
#1275=CARTESIAN_POINT('',(-0.0259252667979693,-0.01143,0.0370734737232543));
#1276=MECHANICAL_DESIGN_GEOMETRIC_PRESENTATION_REPRESENTATION('',(#783),
#1277);
#1277=(
GEOMETRIC_REPRESENTATION_CONTEXT(3)
GLOBAL_UNCERTAINTY_ASSIGNED_CONTEXT((#1278))
GLOBAL_UNIT_ASSIGNED_CONTEXT((#1281,#1280,#1279))
REPRESENTATION_CONTEXT('Part 1','TOP_LEVEL_ASSEMBLY_PART')
);
#1278=UNCERTAINTY_MEASURE_WITH_UNIT(LENGTH_MEASURE(1.E-8),#1281,
'DISTANCE_ACCURACY_VALUE','Maximum Tolerance applied to model');
#1279=(
NAMED_UNIT(*)
SI_UNIT($,.STERADIAN.)
SOLID_ANGLE_UNIT()
);
#1280=(
NAMED_UNIT(*)
PLANE_ANGLE_UNIT()
SI_UNIT($,.RADIAN.)
);
#1281=(
LENGTH_UNIT()
NAMED_UNIT(*)
SI_UNIT($,.METRE.)
);
#1282=PRODUCT_DEFINITION_SHAPE('','',#1283);
#1283=PRODUCT_DEFINITION('','',#1285,#1284);
#1284=PRODUCT_DEFINITION_CONTEXT('',#1291,'design');
#1285=PRODUCT_DEFINITION_FORMATION_WITH_SPECIFIED_SOURCE('','',#1287,
 .NOT_KNOWN.);
#1286=PRODUCT_RELATED_PRODUCT_CATEGORY('','',(#1287));
#1287=PRODUCT('Part 1','Part 1','Part 1',(#1289));
#1288=PRODUCT_CATEGORY('','');
#1289=PRODUCT_CONTEXT('',#1291,'mechanical');
#1290=APPLICATION_PROTOCOL_DEFINITION('international standard',
'ap242_managed_model_based_3d_engineering',2020,#1291);
#1291=APPLICATION_CONTEXT('managed model based 3d engineering');
ENDSEC;
END-ISO-10303-21;
